<?xml version="1.0" encoding="utf-8" standalone="no"?>
<!DOCTYPE svg PUBLIC "-//W3C//DTD SVG 1.1//EN"
  "http://www.w3.org/Graphics/SVG/1.1/DTD/svg11.dtd">
<svg xmlns:xlink="http://www.w3.org/1999/xlink" width="854.512212pt" height="284.315712pt" viewBox="0 0 854.512212 284.315712" xmlns="http://www.w3.org/2000/svg" version="1.1">
 <metadata>
  <rdf:RDF xmlns:dc="http://purl.org/dc/elements/1.1/" xmlns:cc="http://creativecommons.org/ns#" xmlns:rdf="http://www.w3.org/1999/02/22-rdf-syntax-ns#">
   <cc:Work>
    <dc:type rdf:resource="http://purl.org/dc/dcmitype/StillImage"/>
    <dc:date>2026-02-22T20:27:20.536680</dc:date>
    <dc:format>image/svg+xml</dc:format>
    <dc:creator>
     <cc:Agent>
      <dc:title>Matplotlib v3.10.8, https://matplotlib.org/</dc:title>
     </cc:Agent>
    </dc:creator>
   </cc:Work>
  </rdf:RDF>
 </metadata>
 <defs>
  <style type="text/css">*{stroke-linejoin: round; stroke-linecap: butt}</style>
 </defs>
 <g id="figure_1">
  <g id="patch_1">
   <path d="M 0 284.315712 
L 854.512212 284.315712 
L 854.512212 0 
L 0 0 
z
" style="fill: #ffffff"/>
  </g>
  <g id="axes_1">
   <g id="patch_2">
    <path d="M 46.278613 244.3368 
L 847.312212 244.3368 
L 847.312212 38.2464 
L 46.278613 38.2464 
z
" style="fill: #ffffff"/>
   </g>
   <g id="matplotlib.axis_1">
    <g id="xtick_1">
     <g id="line2d_1">
      <path d="M 82.689231 244.3368 
L 82.689231 38.2464 
" clip-path="url(#p5faf05f9a5)" style="fill: none; stroke: #cccccc; stroke-width: 0.8; stroke-linecap: round"/>
     </g>
     <g id="text_1">
      <!-- 0 -->
      <g style="fill: #262626" transform="translate(79.469806 260.326419) scale(0.1012 -0.1012)">
       <defs>
        <path id="DejaVuSans-30" d="M 2034 4250 
Q 1547 4250 1301 3770 
Q 1056 3291 1056 2328 
Q 1056 1369 1301 889 
Q 1547 409 2034 409 
Q 2525 409 2770 889 
Q 3016 1369 3016 2328 
Q 3016 3291 2770 3770 
Q 2525 4250 2034 4250 
z
M 2034 4750 
Q 2819 4750 3233 4129 
Q 3647 3509 3647 2328 
Q 3647 1150 3233 529 
Q 2819 -91 2034 -91 
Q 1250 -91 836 529 
Q 422 1150 422 2328 
Q 422 3509 836 4129 
Q 1250 4750 2034 4750 
z
" transform="scale(0.015625)"/>
       </defs>
       <use xlink:href="#DejaVuSans-30"/>
      </g>
     </g>
    </g>
    <g id="xtick_2">
     <g id="line2d_2">
      <path d="M 180.831059 244.3368 
L 180.831059 38.2464 
" clip-path="url(#p5faf05f9a5)" style="fill: none; stroke: #cccccc; stroke-width: 0.8; stroke-linecap: round"/>
     </g>
     <g id="text_2">
      <!-- 100 -->
      <g style="fill: #262626" transform="translate(171.172784 260.326419) scale(0.1012 -0.1012)">
       <defs>
        <path id="DejaVuSans-31" d="M 794 531 
L 1825 531 
L 1825 4091 
L 703 3866 
L 703 4441 
L 1819 4666 
L 2450 4666 
L 2450 531 
L 3481 531 
L 3481 0 
L 794 0 
L 794 531 
z
" transform="scale(0.015625)"/>
       </defs>
       <use xlink:href="#DejaVuSans-31"/>
       <use xlink:href="#DejaVuSans-30" transform="translate(63.623047 0)"/>
       <use xlink:href="#DejaVuSans-30" transform="translate(127.246094 0)"/>
      </g>
     </g>
    </g>
    <g id="xtick_3">
     <g id="line2d_3">
      <path d="M 278.972887 244.3368 
L 278.972887 38.2464 
" clip-path="url(#p5faf05f9a5)" style="fill: none; stroke: #cccccc; stroke-width: 0.8; stroke-linecap: round"/>
     </g>
     <g id="text_3">
      <!-- 200 -->
      <g style="fill: #262626" transform="translate(269.314612 260.326419) scale(0.1012 -0.1012)">
       <defs>
        <path id="DejaVuSans-32" d="M 1228 531 
L 3431 531 
L 3431 0 
L 469 0 
L 469 531 
Q 828 903 1448 1529 
Q 2069 2156 2228 2338 
Q 2531 2678 2651 2914 
Q 2772 3150 2772 3378 
Q 2772 3750 2511 3984 
Q 2250 4219 1831 4219 
Q 1534 4219 1204 4116 
Q 875 4013 500 3803 
L 500 4441 
Q 881 4594 1212 4672 
Q 1544 4750 1819 4750 
Q 2544 4750 2975 4387 
Q 3406 4025 3406 3419 
Q 3406 3131 3298 2873 
Q 3191 2616 2906 2266 
Q 2828 2175 2409 1742 
Q 1991 1309 1228 531 
z
" transform="scale(0.015625)"/>
       </defs>
       <use xlink:href="#DejaVuSans-32"/>
       <use xlink:href="#DejaVuSans-30" transform="translate(63.623047 0)"/>
       <use xlink:href="#DejaVuSans-30" transform="translate(127.246094 0)"/>
      </g>
     </g>
    </g>
    <g id="xtick_4">
     <g id="line2d_4">
      <path d="M 377.114715 244.3368 
L 377.114715 38.2464 
" clip-path="url(#p5faf05f9a5)" style="fill: none; stroke: #cccccc; stroke-width: 0.8; stroke-linecap: round"/>
     </g>
     <g id="text_4">
      <!-- 300 -->
      <g style="fill: #262626" transform="translate(367.45644 260.326419) scale(0.1012 -0.1012)">
       <defs>
        <path id="DejaVuSans-33" d="M 2597 2516 
Q 3050 2419 3304 2112 
Q 3559 1806 3559 1356 
Q 3559 666 3084 287 
Q 2609 -91 1734 -91 
Q 1441 -91 1130 -33 
Q 819 25 488 141 
L 488 750 
Q 750 597 1062 519 
Q 1375 441 1716 441 
Q 2309 441 2620 675 
Q 2931 909 2931 1356 
Q 2931 1769 2642 2001 
Q 2353 2234 1838 2234 
L 1294 2234 
L 1294 2753 
L 1863 2753 
Q 2328 2753 2575 2939 
Q 2822 3125 2822 3475 
Q 2822 3834 2567 4026 
Q 2313 4219 1838 4219 
Q 1578 4219 1281 4162 
Q 984 4106 628 3988 
L 628 4550 
Q 988 4650 1302 4700 
Q 1616 4750 1894 4750 
Q 2613 4750 3031 4423 
Q 3450 4097 3450 3541 
Q 3450 3153 3228 2886 
Q 3006 2619 2597 2516 
z
" transform="scale(0.015625)"/>
       </defs>
       <use xlink:href="#DejaVuSans-33"/>
       <use xlink:href="#DejaVuSans-30" transform="translate(63.623047 0)"/>
       <use xlink:href="#DejaVuSans-30" transform="translate(127.246094 0)"/>
      </g>
     </g>
    </g>
    <g id="xtick_5">
     <g id="line2d_5">
      <path d="M 475.256543 244.3368 
L 475.256543 38.2464 
" clip-path="url(#p5faf05f9a5)" style="fill: none; stroke: #cccccc; stroke-width: 0.8; stroke-linecap: round"/>
     </g>
     <g id="text_5">
      <!-- 400 -->
      <g style="fill: #262626" transform="translate(465.598268 260.326419) scale(0.1012 -0.1012)">
       <defs>
        <path id="DejaVuSans-34" d="M 2419 4116 
L 825 1625 
L 2419 1625 
L 2419 4116 
z
M 2253 4666 
L 3047 4666 
L 3047 1625 
L 3713 1625 
L 3713 1100 
L 3047 1100 
L 3047 0 
L 2419 0 
L 2419 1100 
L 313 1100 
L 313 1709 
L 2253 4666 
z
" transform="scale(0.015625)"/>
       </defs>
       <use xlink:href="#DejaVuSans-34"/>
       <use xlink:href="#DejaVuSans-30" transform="translate(63.623047 0)"/>
       <use xlink:href="#DejaVuSans-30" transform="translate(127.246094 0)"/>
      </g>
     </g>
    </g>
    <g id="xtick_6">
     <g id="line2d_6">
      <path d="M 573.398371 244.3368 
L 573.398371 38.2464 
" clip-path="url(#p5faf05f9a5)" style="fill: none; stroke: #cccccc; stroke-width: 0.8; stroke-linecap: round"/>
     </g>
     <g id="text_6">
      <!-- 500 -->
      <g style="fill: #262626" transform="translate(563.740096 260.326419) scale(0.1012 -0.1012)">
       <defs>
        <path id="DejaVuSans-35" d="M 691 4666 
L 3169 4666 
L 3169 4134 
L 1269 4134 
L 1269 2991 
Q 1406 3038 1543 3061 
Q 1681 3084 1819 3084 
Q 2600 3084 3056 2656 
Q 3513 2228 3513 1497 
Q 3513 744 3044 326 
Q 2575 -91 1722 -91 
Q 1428 -91 1123 -41 
Q 819 9 494 109 
L 494 744 
Q 775 591 1075 516 
Q 1375 441 1709 441 
Q 2250 441 2565 725 
Q 2881 1009 2881 1497 
Q 2881 1984 2565 2268 
Q 2250 2553 1709 2553 
Q 1456 2553 1204 2497 
Q 953 2441 691 2322 
L 691 4666 
z
" transform="scale(0.015625)"/>
       </defs>
       <use xlink:href="#DejaVuSans-35"/>
       <use xlink:href="#DejaVuSans-30" transform="translate(63.623047 0)"/>
       <use xlink:href="#DejaVuSans-30" transform="translate(127.246094 0)"/>
      </g>
     </g>
    </g>
    <g id="xtick_7">
     <g id="line2d_7">
      <path d="M 671.540199 244.3368 
L 671.540199 38.2464 
" clip-path="url(#p5faf05f9a5)" style="fill: none; stroke: #cccccc; stroke-width: 0.8; stroke-linecap: round"/>
     </g>
     <g id="text_7">
      <!-- 600 -->
      <g style="fill: #262626" transform="translate(661.881924 260.326419) scale(0.1012 -0.1012)">
       <defs>
        <path id="DejaVuSans-36" d="M 2113 2584 
Q 1688 2584 1439 2293 
Q 1191 2003 1191 1497 
Q 1191 994 1439 701 
Q 1688 409 2113 409 
Q 2538 409 2786 701 
Q 3034 994 3034 1497 
Q 3034 2003 2786 2293 
Q 2538 2584 2113 2584 
z
M 3366 4563 
L 3366 3988 
Q 3128 4100 2886 4159 
Q 2644 4219 2406 4219 
Q 1781 4219 1451 3797 
Q 1122 3375 1075 2522 
Q 1259 2794 1537 2939 
Q 1816 3084 2150 3084 
Q 2853 3084 3261 2657 
Q 3669 2231 3669 1497 
Q 3669 778 3244 343 
Q 2819 -91 2113 -91 
Q 1303 -91 875 529 
Q 447 1150 447 2328 
Q 447 3434 972 4092 
Q 1497 4750 2381 4750 
Q 2619 4750 2861 4703 
Q 3103 4656 3366 4563 
z
" transform="scale(0.015625)"/>
       </defs>
       <use xlink:href="#DejaVuSans-36"/>
       <use xlink:href="#DejaVuSans-30" transform="translate(63.623047 0)"/>
       <use xlink:href="#DejaVuSans-30" transform="translate(127.246094 0)"/>
      </g>
     </g>
    </g>
    <g id="xtick_8">
     <g id="line2d_8">
      <path d="M 769.682027 244.3368 
L 769.682027 38.2464 
" clip-path="url(#p5faf05f9a5)" style="fill: none; stroke: #cccccc; stroke-width: 0.8; stroke-linecap: round"/>
     </g>
     <g id="text_8">
      <!-- 700 -->
      <g style="fill: #262626" transform="translate(760.023752 260.326419) scale(0.1012 -0.1012)">
       <defs>
        <path id="DejaVuSans-37" d="M 525 4666 
L 3525 4666 
L 3525 4397 
L 1831 0 
L 1172 0 
L 2766 4134 
L 525 4134 
L 525 4666 
z
" transform="scale(0.015625)"/>
       </defs>
       <use xlink:href="#DejaVuSans-37"/>
       <use xlink:href="#DejaVuSans-30" transform="translate(63.623047 0)"/>
       <use xlink:href="#DejaVuSans-30" transform="translate(127.246094 0)"/>
      </g>
     </g>
    </g>
    <g id="text_9">
     <!-- Time (s) -->
     <g style="fill: #262626" transform="translate(424.3523 274.819737) scale(0.1104 -0.1104)">
      <defs>
       <path id="DejaVuSans-54" d="M -19 4666 
L 3928 4666 
L 3928 4134 
L 2272 4134 
L 2272 0 
L 1638 0 
L 1638 4134 
L -19 4134 
L -19 4666 
z
" transform="scale(0.015625)"/>
       <path id="DejaVuSans-69" d="M 603 3500 
L 1178 3500 
L 1178 0 
L 603 0 
L 603 3500 
z
M 603 4863 
L 1178 4863 
L 1178 4134 
L 603 4134 
L 603 4863 
z
" transform="scale(0.015625)"/>
       <path id="DejaVuSans-6d" d="M 3328 2828 
Q 3544 3216 3844 3400 
Q 4144 3584 4550 3584 
Q 5097 3584 5394 3201 
Q 5691 2819 5691 2113 
L 5691 0 
L 5113 0 
L 5113 2094 
Q 5113 2597 4934 2840 
Q 4756 3084 4391 3084 
Q 3944 3084 3684 2787 
Q 3425 2491 3425 1978 
L 3425 0 
L 2847 0 
L 2847 2094 
Q 2847 2600 2669 2842 
Q 2491 3084 2119 3084 
Q 1678 3084 1418 2786 
Q 1159 2488 1159 1978 
L 1159 0 
L 581 0 
L 581 3500 
L 1159 3500 
L 1159 2956 
Q 1356 3278 1631 3431 
Q 1906 3584 2284 3584 
Q 2666 3584 2933 3390 
Q 3200 3197 3328 2828 
z
" transform="scale(0.015625)"/>
       <path id="DejaVuSans-65" d="M 3597 1894 
L 3597 1613 
L 953 1613 
Q 991 1019 1311 708 
Q 1631 397 2203 397 
Q 2534 397 2845 478 
Q 3156 559 3463 722 
L 3463 178 
Q 3153 47 2828 -22 
Q 2503 -91 2169 -91 
Q 1331 -91 842 396 
Q 353 884 353 1716 
Q 353 2575 817 3079 
Q 1281 3584 2069 3584 
Q 2775 3584 3186 3129 
Q 3597 2675 3597 1894 
z
M 3022 2063 
Q 3016 2534 2758 2815 
Q 2500 3097 2075 3097 
Q 1594 3097 1305 2825 
Q 1016 2553 972 2059 
L 3022 2063 
z
" transform="scale(0.015625)"/>
       <path id="DejaVuSans-20" transform="scale(0.015625)"/>
       <path id="DejaVuSans-28" d="M 1984 4856 
Q 1566 4138 1362 3434 
Q 1159 2731 1159 2009 
Q 1159 1288 1364 580 
Q 1569 -128 1984 -844 
L 1484 -844 
Q 1016 -109 783 600 
Q 550 1309 550 2009 
Q 550 2706 781 3412 
Q 1013 4119 1484 4856 
L 1984 4856 
z
" transform="scale(0.015625)"/>
       <path id="DejaVuSans-73" d="M 2834 3397 
L 2834 2853 
Q 2591 2978 2328 3040 
Q 2066 3103 1784 3103 
Q 1356 3103 1142 2972 
Q 928 2841 928 2578 
Q 928 2378 1081 2264 
Q 1234 2150 1697 2047 
L 1894 2003 
Q 2506 1872 2764 1633 
Q 3022 1394 3022 966 
Q 3022 478 2636 193 
Q 2250 -91 1575 -91 
Q 1294 -91 989 -36 
Q 684 19 347 128 
L 347 722 
Q 666 556 975 473 
Q 1284 391 1588 391 
Q 1994 391 2212 530 
Q 2431 669 2431 922 
Q 2431 1156 2273 1281 
Q 2116 1406 1581 1522 
L 1381 1569 
Q 847 1681 609 1914 
Q 372 2147 372 2553 
Q 372 3047 722 3315 
Q 1072 3584 1716 3584 
Q 2034 3584 2315 3537 
Q 2597 3491 2834 3397 
z
" transform="scale(0.015625)"/>
       <path id="DejaVuSans-29" d="M 513 4856 
L 1013 4856 
Q 1481 4119 1714 3412 
Q 1947 2706 1947 2009 
Q 1947 1309 1714 600 
Q 1481 -109 1013 -844 
L 513 -844 
Q 928 -128 1133 580 
Q 1338 1288 1338 2009 
Q 1338 2731 1133 3434 
Q 928 4138 513 4856 
z
" transform="scale(0.015625)"/>
      </defs>
      <use xlink:href="#DejaVuSans-54"/>
      <use xlink:href="#DejaVuSans-69" transform="translate(57.958984 0)"/>
      <use xlink:href="#DejaVuSans-6d" transform="translate(85.742188 0)"/>
      <use xlink:href="#DejaVuSans-65" transform="translate(183.154297 0)"/>
      <use xlink:href="#DejaVuSans-20" transform="translate(244.677734 0)"/>
      <use xlink:href="#DejaVuSans-28" transform="translate(276.464844 0)"/>
      <use xlink:href="#DejaVuSans-73" transform="translate(315.478516 0)"/>
      <use xlink:href="#DejaVuSans-29" transform="translate(367.578125 0)"/>
     </g>
    </g>
   </g>
   <g id="matplotlib.axis_2">
    <g id="ytick_1">
     <g id="line2d_9">
      <path d="M 46.278613 244.3368 
L 847.312212 244.3368 
" clip-path="url(#p5faf05f9a5)" style="fill: none; stroke: #cccccc; stroke-width: 0.8; stroke-linecap: round"/>
     </g>
     <g id="text_10">
      <!-- 0.0 -->
      <g style="fill: #262626" transform="translate(21.88465 248.181609) scale(0.1012 -0.1012)">
       <defs>
        <path id="DejaVuSans-2e" d="M 684 794 
L 1344 794 
L 1344 0 
L 684 0 
L 684 794 
z
" transform="scale(0.015625)"/>
       </defs>
       <use xlink:href="#DejaVuSans-30"/>
       <use xlink:href="#DejaVuSans-2e" transform="translate(63.623047 0)"/>
       <use xlink:href="#DejaVuSans-30" transform="translate(95.410156 0)"/>
      </g>
     </g>
    </g>
    <g id="ytick_2">
     <g id="line2d_10">
      <path d="M 46.278613 220.970541 
L 847.312212 220.970541 
" clip-path="url(#p5faf05f9a5)" style="fill: none; stroke: #cccccc; stroke-width: 0.8; stroke-linecap: round"/>
     </g>
     <g id="text_11">
      <!-- 0.5 -->
      <g style="fill: #262626" transform="translate(21.88465 224.815351) scale(0.1012 -0.1012)">
       <use xlink:href="#DejaVuSans-30"/>
       <use xlink:href="#DejaVuSans-2e" transform="translate(63.623047 0)"/>
       <use xlink:href="#DejaVuSans-35" transform="translate(95.410156 0)"/>
      </g>
     </g>
    </g>
    <g id="ytick_3">
     <g id="line2d_11">
      <path d="M 46.278613 197.604283 
L 847.312212 197.604283 
" clip-path="url(#p5faf05f9a5)" style="fill: none; stroke: #cccccc; stroke-width: 0.8; stroke-linecap: round"/>
     </g>
     <g id="text_12">
      <!-- 1.0 -->
      <g style="fill: #262626" transform="translate(21.88465 201.449092) scale(0.1012 -0.1012)">
       <use xlink:href="#DejaVuSans-31"/>
       <use xlink:href="#DejaVuSans-2e" transform="translate(63.623047 0)"/>
       <use xlink:href="#DejaVuSans-30" transform="translate(95.410156 0)"/>
      </g>
     </g>
    </g>
    <g id="ytick_4">
     <g id="line2d_12">
      <path d="M 46.278613 174.238024 
L 847.312212 174.238024 
" clip-path="url(#p5faf05f9a5)" style="fill: none; stroke: #cccccc; stroke-width: 0.8; stroke-linecap: round"/>
     </g>
     <g id="text_13">
      <!-- 1.5 -->
      <g style="fill: #262626" transform="translate(21.88465 178.082834) scale(0.1012 -0.1012)">
       <use xlink:href="#DejaVuSans-31"/>
       <use xlink:href="#DejaVuSans-2e" transform="translate(63.623047 0)"/>
       <use xlink:href="#DejaVuSans-35" transform="translate(95.410156 0)"/>
      </g>
     </g>
    </g>
    <g id="ytick_5">
     <g id="line2d_13">
      <path d="M 46.278613 150.871766 
L 847.312212 150.871766 
" clip-path="url(#p5faf05f9a5)" style="fill: none; stroke: #cccccc; stroke-width: 0.8; stroke-linecap: round"/>
     </g>
     <g id="text_14">
      <!-- 2.0 -->
      <g style="fill: #262626" transform="translate(21.88465 154.716575) scale(0.1012 -0.1012)">
       <use xlink:href="#DejaVuSans-32"/>
       <use xlink:href="#DejaVuSans-2e" transform="translate(63.623047 0)"/>
       <use xlink:href="#DejaVuSans-30" transform="translate(95.410156 0)"/>
      </g>
     </g>
    </g>
    <g id="ytick_6">
     <g id="line2d_14">
      <path d="M 46.278613 127.505507 
L 847.312212 127.505507 
" clip-path="url(#p5faf05f9a5)" style="fill: none; stroke: #cccccc; stroke-width: 0.8; stroke-linecap: round"/>
     </g>
     <g id="text_15">
      <!-- 2.5 -->
      <g style="fill: #262626" transform="translate(21.88465 131.350317) scale(0.1012 -0.1012)">
       <use xlink:href="#DejaVuSans-32"/>
       <use xlink:href="#DejaVuSans-2e" transform="translate(63.623047 0)"/>
       <use xlink:href="#DejaVuSans-35" transform="translate(95.410156 0)"/>
      </g>
     </g>
    </g>
    <g id="ytick_7">
     <g id="line2d_15">
      <path d="M 46.278613 104.139249 
L 847.312212 104.139249 
" clip-path="url(#p5faf05f9a5)" style="fill: none; stroke: #cccccc; stroke-width: 0.8; stroke-linecap: round"/>
     </g>
     <g id="text_16">
      <!-- 3.0 -->
      <g style="fill: #262626" transform="translate(21.88465 107.984058) scale(0.1012 -0.1012)">
       <use xlink:href="#DejaVuSans-33"/>
       <use xlink:href="#DejaVuSans-2e" transform="translate(63.623047 0)"/>
       <use xlink:href="#DejaVuSans-30" transform="translate(95.410156 0)"/>
      </g>
     </g>
    </g>
    <g id="ytick_8">
     <g id="line2d_16">
      <path d="M 46.278613 80.77299 
L 847.312212 80.77299 
" clip-path="url(#p5faf05f9a5)" style="fill: none; stroke: #cccccc; stroke-width: 0.8; stroke-linecap: round"/>
     </g>
     <g id="text_17">
      <!-- 3.5 -->
      <g style="fill: #262626" transform="translate(21.88465 84.6178) scale(0.1012 -0.1012)">
       <use xlink:href="#DejaVuSans-33"/>
       <use xlink:href="#DejaVuSans-2e" transform="translate(63.623047 0)"/>
       <use xlink:href="#DejaVuSans-35" transform="translate(95.410156 0)"/>
      </g>
     </g>
    </g>
    <g id="ytick_9">
     <g id="line2d_17">
      <path d="M 46.278613 57.406732 
L 847.312212 57.406732 
" clip-path="url(#p5faf05f9a5)" style="fill: none; stroke: #cccccc; stroke-width: 0.8; stroke-linecap: round"/>
     </g>
     <g id="text_18">
      <!-- 4.0 -->
      <g style="fill: #262626" transform="translate(21.88465 61.251541) scale(0.1012 -0.1012)">
       <use xlink:href="#DejaVuSans-34"/>
       <use xlink:href="#DejaVuSans-2e" transform="translate(63.623047 0)"/>
       <use xlink:href="#DejaVuSans-30" transform="translate(95.410156 0)"/>
      </g>
     </g>
    </g>
    <g id="text_19">
     <!-- Active Connections -->
     <g style="fill: #262626" transform="translate(15.588675 194.230987) rotate(-90) scale(0.1104 -0.1104)">
      <defs>
       <path id="DejaVuSans-41" d="M 2188 4044 
L 1331 1722 
L 3047 1722 
L 2188 4044 
z
M 1831 4666 
L 2547 4666 
L 4325 0 
L 3669 0 
L 3244 1197 
L 1141 1197 
L 716 0 
L 50 0 
L 1831 4666 
z
" transform="scale(0.015625)"/>
       <path id="DejaVuSans-63" d="M 3122 3366 
L 3122 2828 
Q 2878 2963 2633 3030 
Q 2388 3097 2138 3097 
Q 1578 3097 1268 2742 
Q 959 2388 959 1747 
Q 959 1106 1268 751 
Q 1578 397 2138 397 
Q 2388 397 2633 464 
Q 2878 531 3122 666 
L 3122 134 
Q 2881 22 2623 -34 
Q 2366 -91 2075 -91 
Q 1284 -91 818 406 
Q 353 903 353 1747 
Q 353 2603 823 3093 
Q 1294 3584 2113 3584 
Q 2378 3584 2631 3529 
Q 2884 3475 3122 3366 
z
" transform="scale(0.015625)"/>
       <path id="DejaVuSans-74" d="M 1172 4494 
L 1172 3500 
L 2356 3500 
L 2356 3053 
L 1172 3053 
L 1172 1153 
Q 1172 725 1289 603 
Q 1406 481 1766 481 
L 2356 481 
L 2356 0 
L 1766 0 
Q 1100 0 847 248 
Q 594 497 594 1153 
L 594 3053 
L 172 3053 
L 172 3500 
L 594 3500 
L 594 4494 
L 1172 4494 
z
" transform="scale(0.015625)"/>
       <path id="DejaVuSans-76" d="M 191 3500 
L 800 3500 
L 1894 563 
L 2988 3500 
L 3597 3500 
L 2284 0 
L 1503 0 
L 191 3500 
z
" transform="scale(0.015625)"/>
       <path id="DejaVuSans-43" d="M 4122 4306 
L 4122 3641 
Q 3803 3938 3442 4084 
Q 3081 4231 2675 4231 
Q 1875 4231 1450 3742 
Q 1025 3253 1025 2328 
Q 1025 1406 1450 917 
Q 1875 428 2675 428 
Q 3081 428 3442 575 
Q 3803 722 4122 1019 
L 4122 359 
Q 3791 134 3420 21 
Q 3050 -91 2638 -91 
Q 1578 -91 968 557 
Q 359 1206 359 2328 
Q 359 3453 968 4101 
Q 1578 4750 2638 4750 
Q 3056 4750 3426 4639 
Q 3797 4528 4122 4306 
z
" transform="scale(0.015625)"/>
       <path id="DejaVuSans-6f" d="M 1959 3097 
Q 1497 3097 1228 2736 
Q 959 2375 959 1747 
Q 959 1119 1226 758 
Q 1494 397 1959 397 
Q 2419 397 2687 759 
Q 2956 1122 2956 1747 
Q 2956 2369 2687 2733 
Q 2419 3097 1959 3097 
z
M 1959 3584 
Q 2709 3584 3137 3096 
Q 3566 2609 3566 1747 
Q 3566 888 3137 398 
Q 2709 -91 1959 -91 
Q 1206 -91 779 398 
Q 353 888 353 1747 
Q 353 2609 779 3096 
Q 1206 3584 1959 3584 
z
" transform="scale(0.015625)"/>
       <path id="DejaVuSans-6e" d="M 3513 2113 
L 3513 0 
L 2938 0 
L 2938 2094 
Q 2938 2591 2744 2837 
Q 2550 3084 2163 3084 
Q 1697 3084 1428 2787 
Q 1159 2491 1159 1978 
L 1159 0 
L 581 0 
L 581 3500 
L 1159 3500 
L 1159 2956 
Q 1366 3272 1645 3428 
Q 1925 3584 2291 3584 
Q 2894 3584 3203 3211 
Q 3513 2838 3513 2113 
z
" transform="scale(0.015625)"/>
      </defs>
      <use xlink:href="#DejaVuSans-41"/>
      <use xlink:href="#DejaVuSans-63" transform="translate(66.658203 0)"/>
      <use xlink:href="#DejaVuSans-74" transform="translate(121.638672 0)"/>
      <use xlink:href="#DejaVuSans-69" transform="translate(160.847656 0)"/>
      <use xlink:href="#DejaVuSans-76" transform="translate(188.630859 0)"/>
      <use xlink:href="#DejaVuSans-65" transform="translate(247.810547 0)"/>
      <use xlink:href="#DejaVuSans-20" transform="translate(309.333984 0)"/>
      <use xlink:href="#DejaVuSans-43" transform="translate(341.121094 0)"/>
      <use xlink:href="#DejaVuSans-6f" transform="translate(410.945312 0)"/>
      <use xlink:href="#DejaVuSans-6e" transform="translate(472.126953 0)"/>
      <use xlink:href="#DejaVuSans-6e" transform="translate(535.505859 0)"/>
      <use xlink:href="#DejaVuSans-65" transform="translate(598.884766 0)"/>
      <use xlink:href="#DejaVuSans-63" transform="translate(660.408203 0)"/>
      <use xlink:href="#DejaVuSans-74" transform="translate(715.388672 0)"/>
      <use xlink:href="#DejaVuSans-69" transform="translate(754.597656 0)"/>
      <use xlink:href="#DejaVuSans-6f" transform="translate(782.380859 0)"/>
      <use xlink:href="#DejaVuSans-6e" transform="translate(843.5625 0)"/>
      <use xlink:href="#DejaVuSans-73" transform="translate(906.941406 0)"/>
     </g>
    </g>
   </g>
   <g id="FillBetweenPolyCollection_1">
    <defs>
     <path id="m7a8065da36" d="M 82.689231 -226.908981 
L 82.689231 -39.978912 
L 83.670649 -39.978912 
L 84.652067 -39.978912 
L 85.633486 -39.978912 
L 86.614904 -39.978912 
L 87.596322 -39.978912 
L 88.57774 -39.978912 
L 89.559159 -39.978912 
L 90.540577 -39.978912 
L 91.521995 -39.978912 
L 92.503413 -39.978912 
L 93.484832 -39.978912 
L 94.46625 -39.978912 
L 95.447668 -39.978912 
L 96.429087 -39.978912 
L 97.410505 -39.978912 
L 98.391923 -39.978912 
L 99.373341 -39.978912 
L 100.35476 -39.978912 
L 101.336178 -39.978912 
L 102.317596 -39.978912 
L 103.299015 -39.978912 
L 104.280433 -39.978912 
L 105.261851 -39.978912 
L 106.243269 -39.978912 
L 107.224688 -39.978912 
L 108.206106 -39.978912 
L 109.187524 -39.978912 
L 110.168943 -39.978912 
L 111.150361 -39.978912 
L 112.131779 -39.978912 
L 113.113197 -39.978912 
L 114.094616 -39.978912 
L 115.076034 -39.978912 
L 116.057452 -39.978912 
L 117.03887 -39.978912 
L 118.020289 -39.978912 
L 119.983125 -39.978912 
L 121.945962 -39.978912 
L 122.92738 -39.978912 
L 123.908798 -39.978912 
L 124.890217 -39.978912 
L 125.871635 -39.978912 
L 126.853053 -39.978912 
L 127.834472 -39.978912 
L 128.81589 -39.978912 
L 129.797308 -39.978912 
L 130.778726 -39.978912 
L 131.760145 -39.978912 
L 132.741563 -39.978912 
L 133.722981 -39.978912 
L 134.7044 -39.978912 
L 135.685818 -39.978912 
L 136.667236 -39.978912 
L 137.648654 -39.978912 
L 138.630073 -39.978912 
L 139.611491 -39.978912 
L 140.592909 -39.978912 
L 141.574327 -39.978912 
L 142.555746 -39.978912 
L 143.537164 -39.978912 
L 144.518582 -39.978912 
L 145.500001 -39.978912 
L 146.481419 -39.978912 
L 147.462837 -39.978912 
L 148.444255 -39.978912 
L 149.425674 -39.978912 
L 150.407092 -39.978912 
L 151.38851 -39.978912 
L 152.369929 -39.978912 
L 153.351347 -39.978912 
L 155.314183 -39.978912 
L 156.295602 -39.978912 
L 157.27702 -39.978912 
L 158.258438 -39.978912 
L 159.239857 -39.978912 
L 160.221275 -39.978912 
L 161.202693 -39.978912 
L 162.184111 -39.978912 
L 163.16553 -39.978912 
L 164.146948 -39.978912 
L 165.128366 -39.978912 
L 166.109784 -39.978912 
L 167.091203 -39.978912 
L 168.072621 -39.978912 
L 169.054039 -39.978912 
L 170.035458 -39.978912 
L 171.016876 -39.978912 
L 171.998294 -39.978912 
L 172.979712 -39.978912 
L 173.961131 -39.978912 
L 174.942549 -39.978912 
L 175.923967 -39.978912 
L 176.905386 -39.978912 
L 177.886804 -39.978912 
L 178.868222 -39.978912 
L 179.84964 -39.978912 
L 180.831059 -39.978912 
L 181.812477 -39.978912 
L 182.793895 -39.978912 
L 183.775314 -39.978912 
L 184.756732 -39.978912 
L 185.73815 -39.978912 
L 186.719568 -39.978912 
L 187.700987 -39.978912 
L 188.682405 -39.978912 
L 190.645241 -39.978912 
L 191.62666 -39.978912 
L 192.608078 -39.978912 
L 193.589496 -39.978912 
L 194.570915 -39.978912 
L 195.552333 -39.978912 
L 196.533751 -39.978912 
L 197.515169 -39.978912 
L 198.496588 -39.978912 
L 199.478006 -39.978912 
L 200.459424 -39.978912 
L 201.440843 -39.978912 
L 202.422261 -39.978912 
L 203.403679 -39.978912 
L 204.385097 -39.978912 
L 205.366516 -39.978912 
L 206.347934 -39.978912 
L 207.329352 -39.978912 
L 208.310771 -39.978912 
L 209.292189 -39.978912 
L 210.273607 -39.978912 
L 211.255025 -39.978912 
L 212.236444 -39.978912 
L 213.217862 -39.978912 
L 214.19928 -39.978912 
L 215.180698 -39.978912 
L 216.162117 -39.978912 
L 217.143535 -39.978912 
L 218.124953 -39.978912 
L 219.106372 -39.978912 
L 220.08779 -39.978912 
L 221.069208 -39.978912 
L 222.050626 -39.978912 
L 223.032045 -39.978912 
L 224.994881 -39.978912 
L 225.9763 -39.978912 
L 226.957718 -39.978912 
L 227.939136 -39.978912 
L 228.920554 -39.978912 
L 229.901973 -39.978912 
L 230.883391 -39.978912 
L 231.864809 -39.978912 
L 232.846227 -39.978912 
L 233.827646 -39.978912 
L 234.809064 -39.978912 
L 235.790482 -39.978912 
L 236.771901 -39.978912 
L 237.753319 -39.978912 
L 238.734737 -39.978912 
L 239.716155 -39.978912 
L 240.697574 -39.978912 
L 241.678992 -39.978912 
L 242.66041 -39.978912 
L 243.641829 -39.978912 
L 244.623247 -39.978912 
L 245.604665 -39.978912 
L 246.586083 -39.978912 
L 247.567502 -39.978912 
L 248.54892 -39.978912 
L 249.530338 -39.978912 
L 250.511757 -39.978912 
L 251.493175 -39.978912 
L 252.474593 -39.978912 
L 253.456011 -39.978912 
L 254.43743 -39.978912 
L 255.418848 -39.978912 
L 256.400266 -39.978912 
L 257.381684 -39.978912 
L 258.363103 -39.978912 
L 260.325939 -39.978912 
L 261.307358 -39.978912 
L 262.288776 -39.978912 
L 263.270194 -39.978912 
L 264.251612 -39.978912 
L 265.233031 -39.978912 
L 266.214449 -39.978912 
L 267.195867 -39.978912 
L 268.177286 -39.978912 
L 269.158704 -39.978912 
L 270.140122 -39.978912 
L 271.12154 -39.978912 
L 272.102959 -39.978912 
L 273.084377 -39.978912 
L 274.065795 -39.978912 
L 275.047214 -39.978912 
L 276.028632 -39.978912 
L 277.01005 -39.978912 
L 277.991468 -39.978912 
L 278.972887 -39.978912 
L 279.954305 -39.978912 
L 280.935723 -39.978912 
L 281.917141 -39.978912 
L 282.89856 -39.978912 
L 283.879978 -39.978912 
L 284.861396 -39.978912 
L 285.842815 -39.978912 
L 286.824233 -39.978912 
L 287.805651 -39.978912 
L 288.787069 -39.978912 
L 289.768488 -39.978912 
L 290.749906 -39.978912 
L 291.731324 -39.978912 
L 292.712743 -39.978912 
L 294.675579 -39.978912 
L 295.656997 -39.978912 
L 296.638416 -39.978912 
L 297.619834 -39.978912 
L 298.601252 -39.978912 
L 299.582671 -39.978912 
L 300.564089 -39.978912 
L 301.545507 -39.978912 
L 302.526925 -39.978912 
L 303.508344 -39.978912 
L 304.489762 -39.978912 
L 305.47118 -39.978912 
L 306.452598 -39.978912 
L 307.434017 -39.978912 
L 308.415435 -39.978912 
L 309.396853 -39.978912 
L 310.378272 -39.978912 
L 311.35969 -39.978912 
L 312.341108 -39.978912 
L 313.322526 -39.978912 
L 314.303945 -39.978912 
L 315.285363 -39.978912 
L 316.266781 -39.978912 
L 317.2482 -39.978912 
L 318.229618 -39.978912 
L 319.211036 -39.978912 
L 320.192454 -39.978912 
L 321.173873 -39.978912 
L 322.155291 -39.978912 
L 323.136709 -39.978912 
L 324.118128 -39.978912 
L 325.099546 -39.978912 
L 326.080964 -39.978912 
L 327.062382 -39.978912 
L 328.043801 -39.978912 
L 330.006637 -39.978912 
L 330.988055 -39.978912 
L 331.969474 -39.978912 
L 332.950892 -39.978912 
L 333.93231 -39.978912 
L 334.913729 -39.978912 
L 335.895147 -39.978912 
L 336.876565 -39.978912 
L 337.857983 -39.978912 
L 338.839402 -39.978912 
L 339.82082 -39.978912 
L 340.802238 -39.978912 
L 341.783657 -39.978912 
L 342.765075 -39.978912 
L 343.746493 -39.978912 
L 344.727911 -39.978912 
L 345.70933 -39.978912 
L 346.690748 -39.978912 
L 347.672166 -39.978912 
L 348.653585 -39.978912 
L 349.635003 -39.978912 
L 350.616421 -39.978912 
L 351.597839 -39.978912 
L 352.579258 -39.978912 
L 353.560676 -39.978912 
L 354.542094 -39.978912 
L 355.523512 -39.978912 
L 356.504931 -39.978912 
L 357.486349 -39.978912 
L 358.467767 -39.978912 
L 359.449186 -39.978912 
L 360.430604 -39.978912 
L 361.412022 -39.978912 
L 362.39344 -39.978912 
L 364.356277 -39.978912 
L 365.337695 -39.978912 
L 366.319114 -39.978912 
L 367.300532 -39.978912 
L 368.28195 -39.978912 
L 369.263368 -39.978912 
L 370.244787 -39.978912 
L 371.226205 -39.978912 
L 372.207623 -39.978912 
L 373.189042 -39.978912 
L 374.17046 -39.978912 
L 375.151878 -39.978912 
L 376.133296 -39.978912 
L 377.114715 -39.978912 
L 378.096133 -39.978912 
L 379.077551 -39.978912 
L 380.058969 -39.978912 
L 381.040388 -39.978912 
L 382.021806 -39.978912 
L 383.003224 -39.978912 
L 383.984643 -39.978912 
L 384.966061 -39.978912 
L 385.947479 -39.978912 
L 386.928897 -39.978912 
L 387.910316 -39.978912 
L 388.891734 -39.978912 
L 389.873152 -39.978912 
L 390.854571 -39.978912 
L 391.835989 -39.978912 
L 392.817407 -39.978912 
L 393.798825 -39.978912 
L 394.780244 -39.978912 
L 395.761662 -39.978912 
L 396.74308 -39.978912 
L 397.724499 -39.978912 
L 399.687335 -39.978912 
L 400.668753 -39.978912 
L 401.650172 -39.978912 
L 402.63159 -39.978912 
L 403.613008 -39.978912 
L 404.594426 -39.978912 
L 405.575845 -39.978912 
L 406.557263 -39.978912 
L 407.538681 -39.978912 
L 408.5201 -39.978912 
L 409.501518 -39.978912 
L 410.482936 -39.978912 
L 411.464354 -39.978912 
L 412.445773 -39.978912 
L 413.427191 -39.978912 
L 414.408609 -39.978912 
L 415.390028 -39.978912 
L 416.371446 -39.978912 
L 417.352864 -39.978912 
L 418.334282 -39.978912 
L 419.315701 -39.978912 
L 420.297119 -39.978912 
L 421.278537 -39.978912 
L 422.259956 -39.978912 
L 423.241374 -39.978912 
L 424.222792 -39.978912 
L 425.20421 -39.978912 
L 426.185629 -39.978912 
L 427.167047 -39.978912 
L 428.148465 -39.978912 
L 429.129883 -39.978912 
L 430.111302 -39.978912 
L 431.09272 -39.978912 
L 432.074138 -39.978912 
L 433.055557 -39.978912 
L 435.018393 -39.978912 
L 435.999811 -39.978912 
L 436.98123 -39.978912 
L 437.962648 -39.978912 
L 438.944066 -39.978912 
L 439.925485 -39.978912 
L 440.906903 -39.978912 
L 441.888321 -39.978912 
L 442.869739 -39.978912 
L 443.851158 -39.978912 
L 444.832576 -39.978912 
L 445.813994 -39.978912 
L 446.795412 -39.978912 
L 447.776831 -39.978912 
L 448.758249 -39.978912 
L 449.739667 -39.978912 
L 450.721086 -39.978912 
L 451.702504 -39.978912 
L 452.683922 -39.978912 
L 453.66534 -39.978912 
L 454.646759 -39.978912 
L 455.628177 -39.978912 
L 456.609595 -39.978912 
L 457.591014 -39.978912 
L 458.572432 -39.978912 
L 459.55385 -39.978912 
L 460.535268 -39.978912 
L 461.516687 -39.978912 
L 462.498105 -39.978912 
L 463.479523 -39.978912 
L 464.460942 -39.978912 
L 465.44236 -39.978912 
L 466.423778 -39.978912 
L 467.405196 -39.978912 
L 469.368033 -39.978912 
L 470.349451 -39.978912 
L 471.330869 -39.978912 
L 472.312288 -39.978912 
L 473.293706 -39.978912 
L 474.275124 -39.978912 
L 475.256543 -39.978912 
L 476.237961 -39.978912 
L 477.219379 -39.978912 
L 478.200797 -39.978912 
L 479.182216 -39.978912 
L 480.163634 -39.978912 
L 481.145052 -39.978912 
L 482.126471 -39.978912 
L 483.107889 -39.978912 
L 484.089307 -39.978912 
L 485.070725 -39.978912 
L 486.052144 -39.978912 
L 487.033562 -39.978912 
L 488.01498 -39.978912 
L 488.996399 -39.978912 
L 489.977817 -39.978912 
L 490.959235 -39.978912 
L 491.940653 -39.978912 
L 492.922072 -39.978912 
L 493.90349 -39.978912 
L 494.884908 -39.978912 
L 495.866326 -39.978912 
L 496.847745 -39.978912 
L 497.829163 -39.978912 
L 498.810581 -39.978912 
L 499.792 -39.978912 
L 500.773418 -39.978912 
L 501.754836 -39.978912 
L 502.736254 -39.978912 
L 504.699091 -39.978912 
L 505.680509 -39.978912 
L 506.661928 -39.978912 
L 507.643346 -39.978912 
L 508.624764 -39.978912 
L 509.606182 -39.978912 
L 510.587601 -39.978912 
L 511.569019 -39.978912 
L 512.550437 -39.978912 
L 513.531856 -39.978912 
L 514.513274 -39.978912 
L 515.494692 -39.978912 
L 516.47611 -39.978912 
L 517.457529 -39.978912 
L 518.438947 -39.978912 
L 519.420365 -39.978912 
L 520.401783 -39.978912 
L 521.383202 -39.978912 
L 522.36462 -39.978912 
L 523.346038 -39.978912 
L 524.327457 -39.978912 
L 525.308875 -39.978912 
L 526.290293 -39.978912 
L 527.271711 -39.978912 
L 528.25313 -39.978912 
L 529.234548 -39.978912 
L 530.215966 -39.978912 
L 531.197385 -39.978912 
L 532.178803 -39.978912 
L 533.160221 -39.978912 
L 534.141639 -39.978912 
L 535.123058 -39.978912 
L 536.104476 -39.978912 
L 537.085894 -39.978912 
L 539.048731 -39.978912 
L 540.030149 -39.978912 
L 541.011567 -39.978912 
L 541.992986 -39.978912 
L 542.974404 -39.978912 
L 543.955822 -39.978912 
L 544.93724 -39.978912 
L 545.918659 -39.978912 
L 546.900077 -39.978912 
L 547.881495 -39.978912 
L 548.862914 -39.978912 
L 549.844332 -39.978912 
L 550.82575 -39.978912 
L 551.807168 -39.978912 
L 552.788587 -39.978912 
L 553.770005 -39.978912 
L 554.751423 -39.978912 
L 555.732842 -39.978912 
L 556.71426 -39.978912 
L 557.695678 -39.978912 
L 558.677096 -39.978912 
L 559.658515 -39.978912 
L 560.639933 -39.978912 
L 561.621351 -39.978912 
L 562.60277 -39.978912 
L 563.584188 -39.978912 
L 564.565606 -39.978912 
L 565.547024 -39.978912 
L 566.528443 -39.978912 
L 567.509861 -39.978912 
L 568.491279 -39.978912 
L 569.472697 -39.978912 
L 570.454116 -39.978912 
L 571.435534 -39.978912 
L 573.398371 -39.978912 
L 574.379789 -39.978912 
L 575.361207 -39.978912 
L 576.342625 -39.978912 
L 577.324044 -39.978912 
L 578.305462 -39.978912 
L 579.28688 -39.978912 
L 580.268299 -39.978912 
L 581.249717 -39.978912 
L 582.231135 -39.978912 
L 583.212553 -39.978912 
L 584.193972 -39.978912 
L 585.17539 -39.978912 
L 586.156808 -39.978912 
L 587.138227 -39.978912 
L 588.119645 -39.978912 
L 589.101063 -39.978912 
L 590.082481 -39.978912 
L 591.0639 -39.978912 
L 592.045318 -39.978912 
L 593.026736 -39.978912 
L 594.008154 -39.978912 
L 594.989573 -39.978912 
L 595.970991 -39.978912 
L 596.952409 -39.978912 
L 597.933828 -39.978912 
L 598.915246 -39.978912 
L 599.896664 -39.978912 
L 600.878082 -39.978912 
L 601.859501 -39.978912 
L 602.840919 -39.978912 
L 603.822337 -39.978912 
L 604.803756 -39.978912 
L 605.785174 -39.978912 
L 606.766592 -39.978912 
L 608.729429 -39.978912 
L 609.710847 -39.978912 
L 610.692265 -39.978912 
L 611.673684 -39.978912 
L 612.655102 -39.978912 
L 613.63652 -39.978912 
L 614.617938 -39.978912 
L 615.599357 -39.978912 
L 616.580775 -39.978912 
L 617.562193 -39.978912 
L 618.543611 -39.978912 
L 619.52503 -39.978912 
L 620.506448 -39.978912 
L 621.487866 -39.978912 
L 622.469285 -39.978912 
L 623.450703 -39.978912 
L 624.432121 -39.978912 
L 625.413539 -39.978912 
L 626.394958 -39.978912 
L 627.376376 -39.978912 
L 628.357794 -39.978912 
L 629.339213 -39.978912 
L 630.320631 -39.978912 
L 631.302049 -39.978912 
L 632.283467 -39.978912 
L 633.264886 -39.978912 
L 634.246304 -39.978912 
L 635.227722 -39.978912 
L 636.209141 -39.978912 
L 637.190559 -39.978912 
L 638.171977 -39.978912 
L 639.153395 -39.978912 
L 640.134814 -39.978912 
L 641.116232 -39.978912 
L 643.079068 -39.978912 
L 644.060487 -39.978912 
L 645.041905 -39.978912 
L 646.023323 -39.978912 
L 647.004742 -39.978912 
L 647.98616 -39.978912 
L 648.967578 -39.978912 
L 649.948996 -39.978912 
L 650.930415 -39.978912 
L 651.911833 -39.978912 
L 652.893251 -39.978912 
L 653.87467 -39.978912 
L 654.856088 -39.978912 
L 655.837506 -39.978912 
L 656.818924 -39.978912 
L 657.800343 -39.978912 
L 658.781761 -39.978912 
L 659.763179 -39.978912 
L 660.744598 -39.978912 
L 661.726016 -39.978912 
L 662.707434 -39.978912 
L 663.688852 -39.978912 
L 664.670271 -39.978912 
L 665.651689 -39.978912 
L 666.633107 -39.978912 
L 667.614525 -39.978912 
L 668.595944 -39.978912 
L 669.577362 -39.978912 
L 670.55878 -39.978912 
L 671.540199 -39.978912 
L 672.521617 -39.978912 
L 673.503035 -39.978912 
L 674.484453 -39.978912 
L 675.465872 -39.978912 
L 676.44729 -39.978912 
L 678.410127 -39.978912 
L 679.391545 -39.978912 
L 680.372963 -39.978912 
L 681.354381 -39.978912 
L 682.3358 -39.978912 
L 683.317218 -39.978912 
L 684.298636 -39.978912 
L 685.280054 -39.978912 
L 686.261473 -39.978912 
L 687.242891 -39.978912 
L 688.224309 -39.978912 
L 689.205728 -39.978912 
L 690.187146 -39.978912 
L 691.168564 -39.978912 
L 692.149982 -39.978912 
L 693.131401 -39.978912 
L 694.112819 -39.978912 
L 695.094237 -39.978912 
L 696.075656 -39.978912 
L 697.057074 -39.978912 
L 698.038492 -39.978912 
L 699.01991 -39.978912 
L 700.001329 -39.978912 
L 700.982747 -39.978912 
L 701.964165 -39.978912 
L 702.945584 -39.978912 
L 703.927002 -39.978912 
L 704.90842 -39.978912 
L 705.889838 -39.978912 
L 706.871257 -39.978912 
L 707.852675 -39.978912 
L 708.834093 -39.978912 
L 709.815511 -39.978912 
L 710.79693 -39.978912 
L 712.759766 -39.978912 
L 713.741185 -39.978912 
L 714.722603 -39.978912 
L 715.704021 -39.978912 
L 716.685439 -39.978912 
L 717.666858 -39.978912 
L 718.648276 -39.978912 
L 719.629694 -39.978912 
L 720.611113 -39.978912 
L 721.592531 -39.978912 
L 722.573949 -39.978912 
L 723.555367 -39.978912 
L 724.536786 -39.978912 
L 725.518204 -39.978912 
L 726.499622 -39.978912 
L 727.481041 -39.978912 
L 728.462459 -39.978912 
L 729.443877 -39.978912 
L 730.425295 -39.978912 
L 731.406714 -39.978912 
L 732.388132 -39.978912 
L 733.36955 -39.978912 
L 734.350968 -39.978912 
L 735.332387 -39.978912 
L 736.313805 -39.978912 
L 737.295223 -39.978912 
L 738.276642 -39.978912 
L 739.25806 -39.978912 
L 740.239478 -39.978912 
L 741.220896 -39.978912 
L 742.202315 -39.978912 
L 743.183733 -39.978912 
L 744.165151 -39.978912 
L 745.14657 -39.978912 
L 747.109406 -39.978912 
L 748.090824 -39.978912 
L 749.072243 -39.978912 
L 750.053661 -39.978912 
L 751.035079 -39.978912 
L 752.016498 -39.978912 
L 752.997916 -39.978912 
L 753.979334 -39.978912 
L 754.960752 -39.978912 
L 755.942171 -39.978912 
L 756.923589 -39.978912 
L 757.905007 -39.978912 
L 758.886425 -39.978912 
L 759.867844 -39.978912 
L 760.849262 -39.978912 
L 761.83068 -39.978912 
L 762.812099 -39.978912 
L 763.793517 -39.978912 
L 764.774935 -39.978912 
L 765.756353 -39.978912 
L 766.737772 -39.978912 
L 767.71919 -39.978912 
L 768.700608 -39.978912 
L 769.682027 -39.978912 
L 770.663445 -39.978912 
L 771.644863 -39.978912 
L 772.626281 -39.978912 
L 773.6077 -39.978912 
L 774.589118 -39.978912 
L 775.570536 -39.978912 
L 776.551955 -39.978912 
L 777.533373 -39.978912 
L 778.514791 -39.978912 
L 779.496209 -39.978912 
L 780.477628 -39.978912 
L 782.440464 -39.978912 
L 783.421882 -39.978912 
L 784.403301 -39.978912 
L 785.384719 -39.978912 
L 786.366137 -39.978912 
L 787.347556 -39.978912 
L 788.328974 -39.978912 
L 789.310392 -39.978912 
L 790.29181 -39.978912 
L 791.273229 -39.978912 
L 792.254647 -39.978912 
L 793.236065 -39.978912 
L 794.217484 -39.978912 
L 795.198902 -39.978912 
L 796.18032 -39.978912 
L 797.161738 -39.978912 
L 798.143157 -39.978912 
L 799.124575 -39.978912 
L 800.105993 -39.978912 
L 801.087412 -39.978912 
L 802.06883 -39.978912 
L 803.050248 -39.978912 
L 804.031666 -39.978912 
L 805.013085 -39.978912 
L 805.994503 -39.978912 
L 806.975921 -39.978912 
L 807.957339 -39.978912 
L 808.938758 -39.978912 
L 809.920176 -39.978912 
L 810.901594 -39.978912 
L 810.901594 -226.908981 
L 810.901594 -226.908981 
L 809.920176 -226.908981 
L 808.938758 -226.908981 
L 807.957339 -226.908981 
L 806.975921 -226.908981 
L 805.994503 -226.908981 
L 805.013085 -226.908981 
L 804.031666 -226.908981 
L 803.050248 -226.908981 
L 802.06883 -226.908981 
L 801.087412 -226.908981 
L 800.105993 -226.908981 
L 799.124575 -226.908981 
L 798.143157 -226.908981 
L 797.161738 -226.908981 
L 796.18032 -226.908981 
L 795.198902 -226.908981 
L 794.217484 -226.908981 
L 793.236065 -226.908981 
L 792.254647 -226.908981 
L 791.273229 -226.908981 
L 790.29181 -226.908981 
L 789.310392 -226.908981 
L 788.328974 -226.908981 
L 787.347556 -226.908981 
L 786.366137 -226.908981 
L 785.384719 -226.908981 
L 784.403301 -226.908981 
L 783.421882 -226.908981 
L 782.440464 -226.908981 
L 780.477628 -226.908981 
L 779.496209 -226.908981 
L 778.514791 -226.908981 
L 777.533373 -226.908981 
L 776.551955 -226.908981 
L 775.570536 -226.908981 
L 774.589118 -226.908981 
L 773.6077 -226.908981 
L 772.626281 -226.908981 
L 771.644863 -226.908981 
L 770.663445 -226.908981 
L 769.682027 -226.908981 
L 768.700608 -226.908981 
L 767.71919 -226.908981 
L 766.737772 -226.908981 
L 765.756353 -226.908981 
L 764.774935 -226.908981 
L 763.793517 -226.908981 
L 762.812099 -226.908981 
L 761.83068 -226.908981 
L 760.849262 -226.908981 
L 759.867844 -226.908981 
L 758.886425 -226.908981 
L 757.905007 -226.908981 
L 756.923589 -226.908981 
L 755.942171 -226.908981 
L 754.960752 -226.908981 
L 753.979334 -226.908981 
L 752.997916 -226.908981 
L 752.016498 -226.908981 
L 751.035079 -226.908981 
L 750.053661 -226.908981 
L 749.072243 -226.908981 
L 748.090824 -226.908981 
L 747.109406 -226.908981 
L 745.14657 -226.908981 
L 744.165151 -226.908981 
L 743.183733 -226.908981 
L 742.202315 -226.908981 
L 741.220896 -226.908981 
L 740.239478 -226.908981 
L 739.25806 -226.908981 
L 738.276642 -226.908981 
L 737.295223 -226.908981 
L 736.313805 -226.908981 
L 735.332387 -226.908981 
L 734.350968 -226.908981 
L 733.36955 -226.908981 
L 732.388132 -226.908981 
L 731.406714 -226.908981 
L 730.425295 -226.908981 
L 729.443877 -226.908981 
L 728.462459 -226.908981 
L 727.481041 -226.908981 
L 726.499622 -226.908981 
L 725.518204 -226.908981 
L 724.536786 -226.908981 
L 723.555367 -226.908981 
L 722.573949 -226.908981 
L 721.592531 -226.908981 
L 720.611113 -226.908981 
L 719.629694 -226.908981 
L 718.648276 -226.908981 
L 717.666858 -226.908981 
L 716.685439 -226.908981 
L 715.704021 -226.908981 
L 714.722603 -226.908981 
L 713.741185 -226.908981 
L 712.759766 -226.908981 
L 710.79693 -226.908981 
L 709.815511 -226.908981 
L 708.834093 -226.908981 
L 707.852675 -226.908981 
L 706.871257 -226.908981 
L 705.889838 -226.908981 
L 704.90842 -226.908981 
L 703.927002 -226.908981 
L 702.945584 -226.908981 
L 701.964165 -226.908981 
L 700.982747 -226.908981 
L 700.001329 -226.908981 
L 699.01991 -226.908981 
L 698.038492 -226.908981 
L 697.057074 -226.908981 
L 696.075656 -226.908981 
L 695.094237 -226.908981 
L 694.112819 -226.908981 
L 693.131401 -226.908981 
L 692.149982 -226.908981 
L 691.168564 -226.908981 
L 690.187146 -226.908981 
L 689.205728 -226.908981 
L 688.224309 -226.908981 
L 687.242891 -226.908981 
L 686.261473 -226.908981 
L 685.280054 -226.908981 
L 684.298636 -226.908981 
L 683.317218 -226.908981 
L 682.3358 -226.908981 
L 681.354381 -226.908981 
L 680.372963 -226.908981 
L 679.391545 -226.908981 
L 678.410127 -226.908981 
L 676.44729 -226.908981 
L 675.465872 -226.908981 
L 674.484453 -226.908981 
L 673.503035 -226.908981 
L 672.521617 -226.908981 
L 671.540199 -226.908981 
L 670.55878 -226.908981 
L 669.577362 -226.908981 
L 668.595944 -226.908981 
L 667.614525 -226.908981 
L 666.633107 -226.908981 
L 665.651689 -226.908981 
L 664.670271 -226.908981 
L 663.688852 -226.908981 
L 662.707434 -226.908981 
L 661.726016 -226.908981 
L 660.744598 -226.908981 
L 659.763179 -226.908981 
L 658.781761 -226.908981 
L 657.800343 -226.908981 
L 656.818924 -226.908981 
L 655.837506 -226.908981 
L 654.856088 -226.908981 
L 653.87467 -226.908981 
L 652.893251 -226.908981 
L 651.911833 -226.908981 
L 650.930415 -226.908981 
L 649.948996 -226.908981 
L 648.967578 -226.908981 
L 647.98616 -226.908981 
L 647.004742 -226.908981 
L 646.023323 -226.908981 
L 645.041905 -226.908981 
L 644.060487 -226.908981 
L 643.079068 -226.908981 
L 641.116232 -226.908981 
L 640.134814 -226.908981 
L 639.153395 -226.908981 
L 638.171977 -226.908981 
L 637.190559 -226.908981 
L 636.209141 -226.908981 
L 635.227722 -226.908981 
L 634.246304 -226.908981 
L 633.264886 -226.908981 
L 632.283467 -226.908981 
L 631.302049 -226.908981 
L 630.320631 -226.908981 
L 629.339213 -226.908981 
L 628.357794 -226.908981 
L 627.376376 -226.908981 
L 626.394958 -226.908981 
L 625.413539 -226.908981 
L 624.432121 -226.908981 
L 623.450703 -226.908981 
L 622.469285 -226.908981 
L 621.487866 -226.908981 
L 620.506448 -226.908981 
L 619.52503 -226.908981 
L 618.543611 -226.908981 
L 617.562193 -226.908981 
L 616.580775 -226.908981 
L 615.599357 -226.908981 
L 614.617938 -226.908981 
L 613.63652 -226.908981 
L 612.655102 -226.908981 
L 611.673684 -226.908981 
L 610.692265 -226.908981 
L 609.710847 -226.908981 
L 608.729429 -226.908981 
L 606.766592 -226.908981 
L 605.785174 -226.908981 
L 604.803756 -226.908981 
L 603.822337 -226.908981 
L 602.840919 -226.908981 
L 601.859501 -226.908981 
L 600.878082 -226.908981 
L 599.896664 -226.908981 
L 598.915246 -226.908981 
L 597.933828 -226.908981 
L 596.952409 -226.908981 
L 595.970991 -226.908981 
L 594.989573 -226.908981 
L 594.008154 -226.908981 
L 593.026736 -226.908981 
L 592.045318 -226.908981 
L 591.0639 -226.908981 
L 590.082481 -226.908981 
L 589.101063 -226.908981 
L 588.119645 -226.908981 
L 587.138227 -226.908981 
L 586.156808 -226.908981 
L 585.17539 -226.908981 
L 584.193972 -226.908981 
L 583.212553 -226.908981 
L 582.231135 -226.908981 
L 581.249717 -226.908981 
L 580.268299 -226.908981 
L 579.28688 -226.908981 
L 578.305462 -226.908981 
L 577.324044 -226.908981 
L 576.342625 -226.908981 
L 575.361207 -226.908981 
L 574.379789 -226.908981 
L 573.398371 -226.908981 
L 571.435534 -226.908981 
L 570.454116 -226.908981 
L 569.472697 -226.908981 
L 568.491279 -226.908981 
L 567.509861 -226.908981 
L 566.528443 -226.908981 
L 565.547024 -226.908981 
L 564.565606 -226.908981 
L 563.584188 -226.908981 
L 562.60277 -226.908981 
L 561.621351 -226.908981 
L 560.639933 -226.908981 
L 559.658515 -226.908981 
L 558.677096 -226.908981 
L 557.695678 -226.908981 
L 556.71426 -226.908981 
L 555.732842 -226.908981 
L 554.751423 -226.908981 
L 553.770005 -226.908981 
L 552.788587 -226.908981 
L 551.807168 -226.908981 
L 550.82575 -226.908981 
L 549.844332 -226.908981 
L 548.862914 -226.908981 
L 547.881495 -226.908981 
L 546.900077 -226.908981 
L 545.918659 -226.908981 
L 544.93724 -226.908981 
L 543.955822 -226.908981 
L 542.974404 -226.908981 
L 541.992986 -226.908981 
L 541.011567 -226.908981 
L 540.030149 -226.908981 
L 539.048731 -226.908981 
L 537.085894 -226.908981 
L 536.104476 -226.908981 
L 535.123058 -226.908981 
L 534.141639 -226.908981 
L 533.160221 -226.908981 
L 532.178803 -226.908981 
L 531.197385 -226.908981 
L 530.215966 -226.908981 
L 529.234548 -226.908981 
L 528.25313 -226.908981 
L 527.271711 -226.908981 
L 526.290293 -226.908981 
L 525.308875 -226.908981 
L 524.327457 -226.908981 
L 523.346038 -226.908981 
L 522.36462 -226.908981 
L 521.383202 -226.908981 
L 520.401783 -226.908981 
L 519.420365 -226.908981 
L 518.438947 -226.908981 
L 517.457529 -226.908981 
L 516.47611 -226.908981 
L 515.494692 -226.908981 
L 514.513274 -226.908981 
L 513.531856 -226.908981 
L 512.550437 -226.908981 
L 511.569019 -226.908981 
L 510.587601 -226.908981 
L 509.606182 -226.908981 
L 508.624764 -226.908981 
L 507.643346 -226.908981 
L 506.661928 -226.908981 
L 505.680509 -226.908981 
L 504.699091 -226.908981 
L 502.736254 -226.908981 
L 501.754836 -226.908981 
L 500.773418 -226.908981 
L 499.792 -226.908981 
L 498.810581 -226.908981 
L 497.829163 -226.908981 
L 496.847745 -226.908981 
L 495.866326 -226.908981 
L 494.884908 -226.908981 
L 493.90349 -226.908981 
L 492.922072 -226.908981 
L 491.940653 -226.908981 
L 490.959235 -226.908981 
L 489.977817 -226.908981 
L 488.996399 -226.908981 
L 488.01498 -226.908981 
L 487.033562 -226.908981 
L 486.052144 -226.908981 
L 485.070725 -226.908981 
L 484.089307 -226.908981 
L 483.107889 -226.908981 
L 482.126471 -226.908981 
L 481.145052 -226.908981 
L 480.163634 -226.908981 
L 479.182216 -226.908981 
L 478.200797 -226.908981 
L 477.219379 -226.908981 
L 476.237961 -226.908981 
L 475.256543 -226.908981 
L 474.275124 -226.908981 
L 473.293706 -226.908981 
L 472.312288 -226.908981 
L 471.330869 -226.908981 
L 470.349451 -226.908981 
L 469.368033 -226.908981 
L 467.405196 -226.908981 
L 466.423778 -226.908981 
L 465.44236 -226.908981 
L 464.460942 -226.908981 
L 463.479523 -226.908981 
L 462.498105 -226.908981 
L 461.516687 -226.908981 
L 460.535268 -226.908981 
L 459.55385 -226.908981 
L 458.572432 -226.908981 
L 457.591014 -226.908981 
L 456.609595 -226.908981 
L 455.628177 -226.908981 
L 454.646759 -226.908981 
L 453.66534 -226.908981 
L 452.683922 -226.908981 
L 451.702504 -226.908981 
L 450.721086 -226.908981 
L 449.739667 -226.908981 
L 448.758249 -226.908981 
L 447.776831 -226.908981 
L 446.795412 -226.908981 
L 445.813994 -226.908981 
L 444.832576 -226.908981 
L 443.851158 -226.908981 
L 442.869739 -226.908981 
L 441.888321 -226.908981 
L 440.906903 -226.908981 
L 439.925485 -226.908981 
L 438.944066 -226.908981 
L 437.962648 -226.908981 
L 436.98123 -226.908981 
L 435.999811 -226.908981 
L 435.018393 -226.908981 
L 433.055557 -226.908981 
L 432.074138 -226.908981 
L 431.09272 -226.908981 
L 430.111302 -226.908981 
L 429.129883 -226.908981 
L 428.148465 -226.908981 
L 427.167047 -226.908981 
L 426.185629 -226.908981 
L 425.20421 -226.908981 
L 424.222792 -226.908981 
L 423.241374 -226.908981 
L 422.259956 -226.908981 
L 421.278537 -226.908981 
L 420.297119 -226.908981 
L 419.315701 -226.908981 
L 418.334282 -226.908981 
L 417.352864 -226.908981 
L 416.371446 -226.908981 
L 415.390028 -226.908981 
L 414.408609 -226.908981 
L 413.427191 -226.908981 
L 412.445773 -226.908981 
L 411.464354 -226.908981 
L 410.482936 -226.908981 
L 409.501518 -226.908981 
L 408.5201 -226.908981 
L 407.538681 -226.908981 
L 406.557263 -226.908981 
L 405.575845 -226.908981 
L 404.594426 -226.908981 
L 403.613008 -226.908981 
L 402.63159 -226.908981 
L 401.650172 -226.908981 
L 400.668753 -226.908981 
L 399.687335 -226.908981 
L 397.724499 -226.908981 
L 396.74308 -226.908981 
L 395.761662 -226.908981 
L 394.780244 -226.908981 
L 393.798825 -226.908981 
L 392.817407 -226.908981 
L 391.835989 -226.908981 
L 390.854571 -226.908981 
L 389.873152 -226.908981 
L 388.891734 -226.908981 
L 387.910316 -226.908981 
L 386.928897 -226.908981 
L 385.947479 -226.908981 
L 384.966061 -226.908981 
L 383.984643 -226.908981 
L 383.003224 -226.908981 
L 382.021806 -226.908981 
L 381.040388 -226.908981 
L 380.058969 -226.908981 
L 379.077551 -226.908981 
L 378.096133 -226.908981 
L 377.114715 -226.908981 
L 376.133296 -226.908981 
L 375.151878 -226.908981 
L 374.17046 -226.908981 
L 373.189042 -226.908981 
L 372.207623 -226.908981 
L 371.226205 -226.908981 
L 370.244787 -226.908981 
L 369.263368 -226.908981 
L 368.28195 -226.908981 
L 367.300532 -226.908981 
L 366.319114 -226.908981 
L 365.337695 -226.908981 
L 364.356277 -226.908981 
L 362.39344 -226.908981 
L 361.412022 -226.908981 
L 360.430604 -226.908981 
L 359.449186 -226.908981 
L 358.467767 -226.908981 
L 357.486349 -226.908981 
L 356.504931 -226.908981 
L 355.523512 -226.908981 
L 354.542094 -226.908981 
L 353.560676 -226.908981 
L 352.579258 -226.908981 
L 351.597839 -226.908981 
L 350.616421 -226.908981 
L 349.635003 -226.908981 
L 348.653585 -226.908981 
L 347.672166 -226.908981 
L 346.690748 -226.908981 
L 345.70933 -226.908981 
L 344.727911 -226.908981 
L 343.746493 -226.908981 
L 342.765075 -226.908981 
L 341.783657 -226.908981 
L 340.802238 -226.908981 
L 339.82082 -226.908981 
L 338.839402 -226.908981 
L 337.857983 -226.908981 
L 336.876565 -226.908981 
L 335.895147 -226.908981 
L 334.913729 -226.908981 
L 333.93231 -226.908981 
L 332.950892 -226.908981 
L 331.969474 -226.908981 
L 330.988055 -226.908981 
L 330.006637 -226.908981 
L 328.043801 -226.908981 
L 327.062382 -226.908981 
L 326.080964 -226.908981 
L 325.099546 -226.908981 
L 324.118128 -226.908981 
L 323.136709 -226.908981 
L 322.155291 -226.908981 
L 321.173873 -226.908981 
L 320.192454 -226.908981 
L 319.211036 -226.908981 
L 318.229618 -226.908981 
L 317.2482 -226.908981 
L 316.266781 -226.908981 
L 315.285363 -226.908981 
L 314.303945 -226.908981 
L 313.322526 -226.908981 
L 312.341108 -226.908981 
L 311.35969 -226.908981 
L 310.378272 -226.908981 
L 309.396853 -226.908981 
L 308.415435 -226.908981 
L 307.434017 -226.908981 
L 306.452598 -226.908981 
L 305.47118 -226.908981 
L 304.489762 -226.908981 
L 303.508344 -226.908981 
L 302.526925 -226.908981 
L 301.545507 -226.908981 
L 300.564089 -226.908981 
L 299.582671 -226.908981 
L 298.601252 -226.908981 
L 297.619834 -226.908981 
L 296.638416 -226.908981 
L 295.656997 -226.908981 
L 294.675579 -226.908981 
L 292.712743 -226.908981 
L 291.731324 -226.908981 
L 290.749906 -226.908981 
L 289.768488 -226.908981 
L 288.787069 -226.908981 
L 287.805651 -226.908981 
L 286.824233 -226.908981 
L 285.842815 -226.908981 
L 284.861396 -226.908981 
L 283.879978 -226.908981 
L 282.89856 -226.908981 
L 281.917141 -226.908981 
L 280.935723 -226.908981 
L 279.954305 -226.908981 
L 278.972887 -226.908981 
L 277.991468 -226.908981 
L 277.01005 -226.908981 
L 276.028632 -226.908981 
L 275.047214 -226.908981 
L 274.065795 -226.908981 
L 273.084377 -226.908981 
L 272.102959 -226.908981 
L 271.12154 -226.908981 
L 270.140122 -226.908981 
L 269.158704 -226.908981 
L 268.177286 -226.908981 
L 267.195867 -226.908981 
L 266.214449 -226.908981 
L 265.233031 -226.908981 
L 264.251612 -226.908981 
L 263.270194 -226.908981 
L 262.288776 -226.908981 
L 261.307358 -226.908981 
L 260.325939 -226.908981 
L 258.363103 -226.908981 
L 257.381684 -226.908981 
L 256.400266 -226.908981 
L 255.418848 -226.908981 
L 254.43743 -226.908981 
L 253.456011 -226.908981 
L 252.474593 -226.908981 
L 251.493175 -226.908981 
L 250.511757 -226.908981 
L 249.530338 -226.908981 
L 248.54892 -226.908981 
L 247.567502 -226.908981 
L 246.586083 -226.908981 
L 245.604665 -226.908981 
L 244.623247 -226.908981 
L 243.641829 -226.908981 
L 242.66041 -226.908981 
L 241.678992 -226.908981 
L 240.697574 -226.908981 
L 239.716155 -226.908981 
L 238.734737 -226.908981 
L 237.753319 -226.908981 
L 236.771901 -226.908981 
L 235.790482 -226.908981 
L 234.809064 -226.908981 
L 233.827646 -226.908981 
L 232.846227 -226.908981 
L 231.864809 -226.908981 
L 230.883391 -226.908981 
L 229.901973 -226.908981 
L 228.920554 -226.908981 
L 227.939136 -226.908981 
L 226.957718 -226.908981 
L 225.9763 -226.908981 
L 224.994881 -226.908981 
L 223.032045 -226.908981 
L 222.050626 -226.908981 
L 221.069208 -226.908981 
L 220.08779 -226.908981 
L 219.106372 -226.908981 
L 218.124953 -226.908981 
L 217.143535 -226.908981 
L 216.162117 -226.908981 
L 215.180698 -226.908981 
L 214.19928 -226.908981 
L 213.217862 -226.908981 
L 212.236444 -226.908981 
L 211.255025 -226.908981 
L 210.273607 -226.908981 
L 209.292189 -226.908981 
L 208.310771 -226.908981 
L 207.329352 -226.908981 
L 206.347934 -226.908981 
L 205.366516 -226.908981 
L 204.385097 -226.908981 
L 203.403679 -226.908981 
L 202.422261 -226.908981 
L 201.440843 -226.908981 
L 200.459424 -226.908981 
L 199.478006 -226.908981 
L 198.496588 -226.908981 
L 197.515169 -226.908981 
L 196.533751 -226.908981 
L 195.552333 -226.908981 
L 194.570915 -226.908981 
L 193.589496 -226.908981 
L 192.608078 -226.908981 
L 191.62666 -226.908981 
L 190.645241 -226.908981 
L 188.682405 -226.908981 
L 187.700987 -226.908981 
L 186.719568 -226.908981 
L 185.73815 -226.908981 
L 184.756732 -226.908981 
L 183.775314 -226.908981 
L 182.793895 -226.908981 
L 181.812477 -226.908981 
L 180.831059 -226.908981 
L 179.84964 -226.908981 
L 178.868222 -226.908981 
L 177.886804 -226.908981 
L 176.905386 -226.908981 
L 175.923967 -226.908981 
L 174.942549 -226.908981 
L 173.961131 -226.908981 
L 172.979712 -226.908981 
L 171.998294 -226.908981 
L 171.016876 -226.908981 
L 170.035458 -226.908981 
L 169.054039 -226.908981 
L 168.072621 -226.908981 
L 167.091203 -226.908981 
L 166.109784 -226.908981 
L 165.128366 -226.908981 
L 164.146948 -226.908981 
L 163.16553 -226.908981 
L 162.184111 -226.908981 
L 161.202693 -226.908981 
L 160.221275 -226.908981 
L 159.239857 -226.908981 
L 158.258438 -226.908981 
L 157.27702 -226.908981 
L 156.295602 -226.908981 
L 155.314183 -226.908981 
L 153.351347 -226.908981 
L 152.369929 -226.908981 
L 151.38851 -226.908981 
L 150.407092 -226.908981 
L 149.425674 -226.908981 
L 148.444255 -226.908981 
L 147.462837 -226.908981 
L 146.481419 -226.908981 
L 145.500001 -226.908981 
L 144.518582 -226.908981 
L 143.537164 -226.908981 
L 142.555746 -226.908981 
L 141.574327 -226.908981 
L 140.592909 -226.908981 
L 139.611491 -226.908981 
L 138.630073 -226.908981 
L 137.648654 -226.908981 
L 136.667236 -226.908981 
L 135.685818 -226.908981 
L 134.7044 -226.908981 
L 133.722981 -226.908981 
L 132.741563 -226.908981 
L 131.760145 -226.908981 
L 130.778726 -226.908981 
L 129.797308 -226.908981 
L 128.81589 -226.908981 
L 127.834472 -226.908981 
L 126.853053 -226.908981 
L 125.871635 -226.908981 
L 124.890217 -226.908981 
L 123.908798 -226.908981 
L 122.92738 -226.908981 
L 121.945962 -226.908981 
L 119.983125 -226.908981 
L 118.020289 -226.908981 
L 117.03887 -226.908981 
L 116.057452 -226.908981 
L 115.076034 -226.908981 
L 114.094616 -226.908981 
L 113.113197 -226.908981 
L 112.131779 -226.908981 
L 111.150361 -226.908981 
L 110.168943 -226.908981 
L 109.187524 -226.908981 
L 108.206106 -226.908981 
L 107.224688 -226.908981 
L 106.243269 -226.908981 
L 105.261851 -226.908981 
L 104.280433 -226.908981 
L 103.299015 -226.908981 
L 102.317596 -226.908981 
L 101.336178 -226.908981 
L 100.35476 -226.908981 
L 99.373341 -226.908981 
L 98.391923 -226.908981 
L 97.410505 -226.908981 
L 96.429087 -226.908981 
L 95.447668 -226.908981 
L 94.46625 -226.908981 
L 93.484832 -226.908981 
L 92.503413 -226.908981 
L 91.521995 -226.908981 
L 90.540577 -226.908981 
L 89.559159 -226.908981 
L 88.57774 -226.908981 
L 87.596322 -226.908981 
L 86.614904 -226.908981 
L 85.633486 -226.908981 
L 84.652067 -226.908981 
L 83.670649 -226.908981 
L 82.689231 -226.908981 
z
" style="stroke: #4c72b0; stroke-opacity: 0.1; stroke-width: 0.8"/>
    </defs>
    <g clip-path="url(#p5faf05f9a5)">
     <use xlink:href="#m7a8065da36" x="0" y="284.315712" style="fill: #4c72b0; fill-opacity: 0.1; stroke: #4c72b0; stroke-opacity: 0.1; stroke-width: 0.8"/>
    </g>
   </g>
   <g id="FillBetweenPolyCollection_2">
    <path d="M 118.020289 48.060229 
L 118.020289 244.3368 
L 119.001707 244.3368 
L 119.001707 244.3368 
L 120.964544 244.3368 
L 120.964544 244.3368 
L 122.436671 244.3368 
L 122.436671 244.3368 
L 122.92738 244.3368 
L 122.92738 48.060229 
L 122.92738 48.060229 
L 122.436671 48.060229 
L 122.436671 48.060229 
L 120.964544 48.060229 
L 120.964544 48.060229 
L 119.001707 48.060229 
L 119.001707 48.060229 
L 118.020289 48.060229 
z
" clip-path="url(#p5faf05f9a5)" style="fill: #ff0000; fill-opacity: 0.12; stroke: #ff0000; stroke-opacity: 0.12; stroke-width: 0.8"/>
    <path d="M 187.700987 48.060229 
L 187.700987 244.3368 
L 187.700987 244.3368 
L 187.700987 48.060229 
L 187.700987 48.060229 
L 187.700987 48.060229 
z
" clip-path="url(#p5faf05f9a5)" style="fill: #ff0000; fill-opacity: 0.12; stroke: #ff0000; stroke-opacity: 0.12; stroke-width: 0.8"/>
    <path d="M 190.645241 48.060229 
L 190.645241 244.3368 
L 190.645241 244.3368 
L 190.645241 48.060229 
L 190.645241 48.060229 
L 190.645241 48.060229 
z
" clip-path="url(#p5faf05f9a5)" style="fill: #ff0000; fill-opacity: 0.12; stroke: #ff0000; stroke-opacity: 0.12; stroke-width: 0.8"/>
    <path d="M 223.032045 48.060229 
L 223.032045 244.3368 
L 224.013463 244.3368 
L 224.013463 244.3368 
L 224.994881 244.3368 
L 224.994881 48.060229 
L 224.994881 48.060229 
L 224.013463 48.060229 
L 224.013463 48.060229 
L 223.032045 48.060229 
z
" clip-path="url(#p5faf05f9a5)" style="fill: #ff0000; fill-opacity: 0.12; stroke: #ff0000; stroke-opacity: 0.12; stroke-width: 0.8"/>
    <path d="M 257.381684 48.060229 
L 257.381684 244.3368 
L 257.381684 244.3368 
L 257.381684 48.060229 
L 257.381684 48.060229 
L 257.381684 48.060229 
z
" clip-path="url(#p5faf05f9a5)" style="fill: #ff0000; fill-opacity: 0.12; stroke: #ff0000; stroke-opacity: 0.12; stroke-width: 0.8"/>
    <path d="M 292.712743 48.060229 
L 292.712743 244.3368 
L 293.694161 244.3368 
L 293.694161 244.3368 
L 294.675579 244.3368 
L 294.675579 48.060229 
L 294.675579 48.060229 
L 293.694161 48.060229 
L 293.694161 48.060229 
L 292.712743 48.060229 
z
" clip-path="url(#p5faf05f9a5)" style="fill: #ff0000; fill-opacity: 0.12; stroke: #ff0000; stroke-opacity: 0.12; stroke-width: 0.8"/>
    <path d="M 327.062382 48.060229 
L 327.062382 244.3368 
L 327.062382 244.3368 
L 327.062382 48.060229 
L 327.062382 48.060229 
L 327.062382 48.060229 
z
" clip-path="url(#p5faf05f9a5)" style="fill: #ff0000; fill-opacity: 0.12; stroke: #ff0000; stroke-opacity: 0.12; stroke-width: 0.8"/>
    <path d="M 330.006637 48.060229 
L 330.006637 244.3368 
L 330.006637 244.3368 
L 330.006637 48.060229 
L 330.006637 48.060229 
L 330.006637 48.060229 
z
" clip-path="url(#p5faf05f9a5)" style="fill: #ff0000; fill-opacity: 0.12; stroke: #ff0000; stroke-opacity: 0.12; stroke-width: 0.8"/>
    <path d="M 362.39344 48.060229 
L 362.39344 244.3368 
L 363.374859 244.3368 
L 363.374859 244.3368 
L 364.356277 244.3368 
L 364.356277 48.060229 
L 364.356277 48.060229 
L 363.374859 48.060229 
L 363.374859 48.060229 
L 362.39344 48.060229 
z
" clip-path="url(#p5faf05f9a5)" style="fill: #ff0000; fill-opacity: 0.12; stroke: #ff0000; stroke-opacity: 0.12; stroke-width: 0.8"/>
    <path d="M 396.74308 48.060229 
L 396.74308 244.3368 
L 397.233789 244.3368 
L 397.233789 244.3368 
L 398.705917 244.3368 
L 398.705917 244.3368 
L 400.178044 244.3368 
L 400.178044 244.3368 
L 401.159462 244.3368 
L 401.159462 244.3368 
L 401.650172 244.3368 
L 401.650172 48.060229 
L 401.650172 48.060229 
L 401.159462 48.060229 
L 401.159462 48.060229 
L 400.178044 48.060229 
L 400.178044 48.060229 
L 398.705917 48.060229 
L 398.705917 48.060229 
L 397.233789 48.060229 
L 397.233789 48.060229 
L 396.74308 48.060229 
z
" clip-path="url(#p5faf05f9a5)" style="fill: #ff0000; fill-opacity: 0.12; stroke: #ff0000; stroke-opacity: 0.12; stroke-width: 0.8"/>
    <path d="M 432.074138 48.060229 
L 432.074138 244.3368 
L 432.564847 244.3368 
L 432.564847 244.3368 
L 433.055557 244.3368 
L 433.055557 48.060229 
L 433.055557 48.060229 
L 432.564847 48.060229 
L 432.564847 48.060229 
L 432.074138 48.060229 
z
" clip-path="url(#p5faf05f9a5)" style="fill: #ff0000; fill-opacity: 0.12; stroke: #ff0000; stroke-opacity: 0.12; stroke-width: 0.8"/>
    <path d="M 466.423778 48.060229 
L 466.423778 244.3368 
L 466.423778 244.3368 
L 466.423778 48.060229 
L 466.423778 48.060229 
L 466.423778 48.060229 
z
" clip-path="url(#p5faf05f9a5)" style="fill: #ff0000; fill-opacity: 0.12; stroke: #ff0000; stroke-opacity: 0.12; stroke-width: 0.8"/>
    <path d="M 501.754836 48.060229 
L 501.754836 244.3368 
L 502.245545 244.3368 
L 502.245545 244.3368 
L 502.736254 244.3368 
L 502.736254 48.060229 
L 502.736254 48.060229 
L 502.245545 48.060229 
L 502.245545 48.060229 
L 501.754836 48.060229 
z
" clip-path="url(#p5faf05f9a5)" style="fill: #ff0000; fill-opacity: 0.12; stroke: #ff0000; stroke-opacity: 0.12; stroke-width: 0.8"/>
    <path d="M 536.104476 48.060229 
L 536.104476 244.3368 
L 536.104476 244.3368 
L 536.104476 48.060229 
L 536.104476 48.060229 
L 536.104476 48.060229 
z
" clip-path="url(#p5faf05f9a5)" style="fill: #ff0000; fill-opacity: 0.12; stroke: #ff0000; stroke-opacity: 0.12; stroke-width: 0.8"/>
    <path d="M 539.048731 48.060229 
L 539.048731 244.3368 
L 539.048731 244.3368 
L 539.048731 48.060229 
L 539.048731 48.060229 
L 539.048731 48.060229 
z
" clip-path="url(#p5faf05f9a5)" style="fill: #ff0000; fill-opacity: 0.12; stroke: #ff0000; stroke-opacity: 0.12; stroke-width: 0.8"/>
    <path d="M 571.435534 48.060229 
L 571.435534 244.3368 
L 572.416952 244.3368 
L 572.416952 244.3368 
L 573.398371 244.3368 
L 573.398371 48.060229 
L 573.398371 48.060229 
L 572.416952 48.060229 
L 572.416952 48.060229 
L 571.435534 48.060229 
z
" clip-path="url(#p5faf05f9a5)" style="fill: #ff0000; fill-opacity: 0.12; stroke: #ff0000; stroke-opacity: 0.12; stroke-width: 0.8"/>
    <path d="M 605.785174 48.060229 
L 605.785174 244.3368 
L 606.275883 244.3368 
L 606.275883 244.3368 
L 607.74801 244.3368 
L 607.74801 244.3368 
L 609.220138 244.3368 
L 609.220138 244.3368 
L 610.201556 244.3368 
L 610.201556 244.3368 
L 610.692265 244.3368 
L 610.692265 48.060229 
L 610.692265 48.060229 
L 610.201556 48.060229 
L 610.201556 48.060229 
L 609.220138 48.060229 
L 609.220138 48.060229 
L 607.74801 48.060229 
L 607.74801 48.060229 
L 606.275883 48.060229 
L 606.275883 48.060229 
L 605.785174 48.060229 
z
" clip-path="url(#p5faf05f9a5)" style="fill: #ff0000; fill-opacity: 0.12; stroke: #ff0000; stroke-opacity: 0.12; stroke-width: 0.8"/>
    <path d="M 641.116232 48.060229 
L 641.116232 244.3368 
L 642.09765 244.3368 
L 642.09765 244.3368 
L 643.079068 244.3368 
L 643.079068 48.060229 
L 643.079068 48.060229 
L 642.09765 48.060229 
L 642.09765 48.060229 
L 641.116232 48.060229 
z
" clip-path="url(#p5faf05f9a5)" style="fill: #ff0000; fill-opacity: 0.12; stroke: #ff0000; stroke-opacity: 0.12; stroke-width: 0.8"/>
    <path d="M 675.465872 48.060229 
L 675.465872 244.3368 
L 675.465872 244.3368 
L 675.465872 48.060229 
L 675.465872 48.060229 
L 675.465872 48.060229 
z
" clip-path="url(#p5faf05f9a5)" style="fill: #ff0000; fill-opacity: 0.12; stroke: #ff0000; stroke-opacity: 0.12; stroke-width: 0.8"/>
    <path d="M 678.410127 48.060229 
L 678.410127 244.3368 
L 678.410127 244.3368 
L 678.410127 48.060229 
L 678.410127 48.060229 
L 678.410127 48.060229 
z
" clip-path="url(#p5faf05f9a5)" style="fill: #ff0000; fill-opacity: 0.12; stroke: #ff0000; stroke-opacity: 0.12; stroke-width: 0.8"/>
    <path d="M 709.815511 48.060229 
L 709.815511 244.3368 
L 709.815511 244.3368 
L 709.815511 48.060229 
L 709.815511 48.060229 
L 709.815511 48.060229 
z
" clip-path="url(#p5faf05f9a5)" style="fill: #ff0000; fill-opacity: 0.12; stroke: #ff0000; stroke-opacity: 0.12; stroke-width: 0.8"/>
    <path d="M 745.14657 48.060229 
L 745.14657 244.3368 
L 746.127988 244.3368 
L 746.127988 244.3368 
L 747.109406 244.3368 
L 747.109406 48.060229 
L 747.109406 48.060229 
L 746.127988 48.060229 
L 746.127988 48.060229 
L 745.14657 48.060229 
z
" clip-path="url(#p5faf05f9a5)" style="fill: #ff0000; fill-opacity: 0.12; stroke: #ff0000; stroke-opacity: 0.12; stroke-width: 0.8"/>
    <path d="M 779.496209 48.060229 
L 779.496209 244.3368 
L 779.496209 244.3368 
L 779.496209 48.060229 
L 779.496209 48.060229 
L 779.496209 48.060229 
z
" clip-path="url(#p5faf05f9a5)" style="fill: #ff0000; fill-opacity: 0.12; stroke: #ff0000; stroke-opacity: 0.12; stroke-width: 0.8"/>
    <path d="M 782.440464 48.060229 
L 782.440464 244.3368 
L 782.440464 244.3368 
L 782.440464 48.060229 
L 782.440464 48.060229 
L 782.440464 48.060229 
z
" clip-path="url(#p5faf05f9a5)" style="fill: #ff0000; fill-opacity: 0.12; stroke: #ff0000; stroke-opacity: 0.12; stroke-width: 0.8"/>
   </g>
   <g id="line2d_18">
    <path d="M 82.689231 57.406732 
L 810.901594 57.406732 
L 810.901594 57.406732 
" clip-path="url(#p5faf05f9a5)" style="fill: none; stroke: #4c72b0; stroke-width: 1.5; stroke-linecap: round"/>
   </g>
   <g id="line2d_19">
    <path d="M 116.200739 244.3368 
L 116.200739 38.2464 
" clip-path="url(#p5faf05f9a5)" style="fill: none; stroke-dasharray: 2.96,1.28; stroke-dashoffset: 0; stroke: #d32f2f; stroke-opacity: 0.5; stroke-width: 0.8"/>
   </g>
   <g id="line2d_20">
    <path d="M 151.085252 244.3368 
L 151.085252 38.2464 
" clip-path="url(#p5faf05f9a5)" style="fill: none; stroke-dasharray: 2.96,1.28; stroke-dashoffset: 0; stroke: #d32f2f; stroke-opacity: 0.5; stroke-width: 0.8"/>
   </g>
   <g id="line2d_21">
    <path d="M 186.242599 244.3368 
L 186.242599 38.2464 
" clip-path="url(#p5faf05f9a5)" style="fill: none; stroke-dasharray: 2.96,1.28; stroke-dashoffset: 0; stroke: #d32f2f; stroke-opacity: 0.5; stroke-width: 0.8"/>
   </g>
   <g id="line2d_22">
    <path d="M 220.953401 244.3368 
L 220.953401 38.2464 
" clip-path="url(#p5faf05f9a5)" style="fill: none; stroke-dasharray: 2.96,1.28; stroke-dashoffset: 0; stroke: #d32f2f; stroke-opacity: 0.5; stroke-width: 0.8"/>
   </g>
   <g id="line2d_23">
    <path d="M 255.938018 244.3368 
L 255.938018 38.2464 
" clip-path="url(#p5faf05f9a5)" style="fill: none; stroke-dasharray: 2.96,1.28; stroke-dashoffset: 0; stroke: #d32f2f; stroke-opacity: 0.5; stroke-width: 0.8"/>
   </g>
   <g id="line2d_24">
    <path d="M 290.665504 244.3368 
L 290.665504 38.2464 
" clip-path="url(#p5faf05f9a5)" style="fill: none; stroke-dasharray: 2.96,1.28; stroke-dashoffset: 0; stroke: #d32f2f; stroke-opacity: 0.5; stroke-width: 0.8"/>
   </g>
   <g id="line2d_25">
    <path d="M 325.458745 244.3368 
L 325.458745 38.2464 
" clip-path="url(#p5faf05f9a5)" style="fill: none; stroke-dasharray: 2.96,1.28; stroke-dashoffset: 0; stroke: #d32f2f; stroke-opacity: 0.5; stroke-width: 0.8"/>
   </g>
   <g id="line2d_26">
    <path d="M 360.314797 244.3368 
L 360.314797 38.2464 
" clip-path="url(#p5faf05f9a5)" style="fill: none; stroke-dasharray: 2.96,1.28; stroke-dashoffset: 0; stroke: #d32f2f; stroke-opacity: 0.5; stroke-width: 0.8"/>
   </g>
   <g id="line2d_27">
    <path d="M 395.142387 244.3368 
L 395.142387 38.2464 
" clip-path="url(#p5faf05f9a5)" style="fill: none; stroke-dasharray: 2.96,1.28; stroke-dashoffset: 0; stroke: #d32f2f; stroke-opacity: 0.5; stroke-width: 0.8"/>
   </g>
   <g id="line2d_28">
    <path d="M 430.263422 244.3368 
L 430.263422 38.2464 
" clip-path="url(#p5faf05f9a5)" style="fill: none; stroke-dasharray: 2.96,1.28; stroke-dashoffset: 0; stroke: #d32f2f; stroke-opacity: 0.5; stroke-width: 0.8"/>
   </g>
   <g id="line2d_29">
    <path d="M 465.162656 244.3368 
L 465.162656 38.2464 
" clip-path="url(#p5faf05f9a5)" style="fill: none; stroke-dasharray: 2.96,1.28; stroke-dashoffset: 0; stroke: #d32f2f; stroke-opacity: 0.5; stroke-width: 0.8"/>
   </g>
   <g id="line2d_30">
    <path d="M 499.950008 244.3368 
L 499.950008 38.2464 
" clip-path="url(#p5faf05f9a5)" style="fill: none; stroke-dasharray: 2.96,1.28; stroke-dashoffset: 0; stroke: #d32f2f; stroke-opacity: 0.5; stroke-width: 0.8"/>
   </g>
   <g id="line2d_31">
    <path d="M 534.692215 244.3368 
L 534.692215 38.2464 
" clip-path="url(#p5faf05f9a5)" style="fill: none; stroke-dasharray: 2.96,1.28; stroke-dashoffset: 0; stroke: #d32f2f; stroke-opacity: 0.5; stroke-width: 0.8"/>
   </g>
   <g id="line2d_32">
    <path d="M 569.361797 244.3368 
L 569.361797 38.2464 
" clip-path="url(#p5faf05f9a5)" style="fill: none; stroke-dasharray: 2.96,1.28; stroke-dashoffset: 0; stroke: #d32f2f; stroke-opacity: 0.5; stroke-width: 0.8"/>
   </g>
   <g id="line2d_33">
    <path d="M 604.242384 244.3368 
L 604.242384 38.2464 
" clip-path="url(#p5faf05f9a5)" style="fill: none; stroke-dasharray: 2.96,1.28; stroke-dashoffset: 0; stroke: #d32f2f; stroke-opacity: 0.5; stroke-width: 0.8"/>
   </g>
   <g id="line2d_34">
    <path d="M 639.122971 244.3368 
L 639.122971 38.2464 
" clip-path="url(#p5faf05f9a5)" style="fill: none; stroke-dasharray: 2.96,1.28; stroke-dashoffset: 0; stroke: #d32f2f; stroke-opacity: 0.5; stroke-width: 0.8"/>
   </g>
   <g id="line2d_35">
    <path d="M 673.960376 244.3368 
L 673.960376 38.2464 
" clip-path="url(#p5faf05f9a5)" style="fill: none; stroke-dasharray: 2.96,1.28; stroke-dashoffset: 0; stroke: #d32f2f; stroke-opacity: 0.5; stroke-width: 0.8"/>
   </g>
   <g id="line2d_36">
    <path d="M 708.525928 244.3368 
L 708.525928 38.2464 
" clip-path="url(#p5faf05f9a5)" style="fill: none; stroke-dasharray: 2.96,1.28; stroke-dashoffset: 0; stroke: #d32f2f; stroke-opacity: 0.5; stroke-width: 0.8"/>
   </g>
   <g id="line2d_37">
    <path d="M 743.241637 244.3368 
L 743.241637 38.2464 
" clip-path="url(#p5faf05f9a5)" style="fill: none; stroke-dasharray: 2.96,1.28; stroke-dashoffset: 0; stroke: #d32f2f; stroke-opacity: 0.5; stroke-width: 0.8"/>
   </g>
   <g id="line2d_38">
    <path d="M 777.884721 244.3368 
L 777.884721 38.2464 
" clip-path="url(#p5faf05f9a5)" style="fill: none; stroke-dasharray: 2.96,1.28; stroke-dashoffset: 0; stroke: #d32f2f; stroke-opacity: 0.5; stroke-width: 0.8"/>
   </g>
   <g id="patch_3">
    <path d="M 46.278613 244.3368 
L 46.278613 38.2464 
" style="fill: none; stroke: #cccccc; stroke-linejoin: miter; stroke-linecap: square"/>
   </g>
   <g id="patch_4">
    <path d="M 847.312212 244.3368 
L 847.312212 38.2464 
" style="fill: none; stroke: #cccccc; stroke-linejoin: miter; stroke-linecap: square"/>
   </g>
   <g id="patch_5">
    <path d="M 46.278612 244.3368 
L 847.312212 244.3368 
" style="fill: none; stroke: #cccccc; stroke-linejoin: miter; stroke-linecap: square"/>
   </g>
   <g id="patch_6">
    <path d="M 46.278612 38.2464 
L 847.312212 38.2464 
" style="fill: none; stroke: #cccccc; stroke-linejoin: miter; stroke-linecap: square"/>
   </g>
   <g id="legend_1">
    <g id="patch_7">
     <path d="M 51.878613 240.3368 
L 183.772362 240.3368 
Q 185.372362 240.3368 185.372362 238.7368 
L 185.372362 204.3093 
Q 185.372362 202.7093 183.772362 202.7093 
L 51.878613 202.7093 
Q 50.278613 202.7093 50.278613 204.3093 
L 50.278613 238.7368 
Q 50.278613 240.3368 51.878613 240.3368 
z
" style="fill: #ffffff; opacity: 0.9; stroke: #cccccc; stroke-width: 0.8; stroke-linejoin: miter"/>
    </g>
    <g id="line2d_39">
     <path d="M 53.478613 209.18805 
L 61.478613 209.18805 
L 69.478612 209.18805 
" style="fill: none; stroke: #4c72b0; stroke-width: 1.5; stroke-linecap: round"/>
    </g>
    <g id="text_20">
     <!-- Active connections (client) -->
     <g style="fill: #262626" transform="translate(75.878613 211.98805) scale(0.08 -0.08)">
      <defs>
       <path id="DejaVuSans-6c" d="M 603 4863 
L 1178 4863 
L 1178 0 
L 603 0 
L 603 4863 
z
" transform="scale(0.015625)"/>
      </defs>
      <use xlink:href="#DejaVuSans-41"/>
      <use xlink:href="#DejaVuSans-63" transform="translate(66.658203 0)"/>
      <use xlink:href="#DejaVuSans-74" transform="translate(121.638672 0)"/>
      <use xlink:href="#DejaVuSans-69" transform="translate(160.847656 0)"/>
      <use xlink:href="#DejaVuSans-76" transform="translate(188.630859 0)"/>
      <use xlink:href="#DejaVuSans-65" transform="translate(247.810547 0)"/>
      <use xlink:href="#DejaVuSans-20" transform="translate(309.333984 0)"/>
      <use xlink:href="#DejaVuSans-63" transform="translate(341.121094 0)"/>
      <use xlink:href="#DejaVuSans-6f" transform="translate(396.101562 0)"/>
      <use xlink:href="#DejaVuSans-6e" transform="translate(457.283203 0)"/>
      <use xlink:href="#DejaVuSans-6e" transform="translate(520.662109 0)"/>
      <use xlink:href="#DejaVuSans-65" transform="translate(584.041016 0)"/>
      <use xlink:href="#DejaVuSans-63" transform="translate(645.564453 0)"/>
      <use xlink:href="#DejaVuSans-74" transform="translate(700.544922 0)"/>
      <use xlink:href="#DejaVuSans-69" transform="translate(739.753906 0)"/>
      <use xlink:href="#DejaVuSans-6f" transform="translate(767.537109 0)"/>
      <use xlink:href="#DejaVuSans-6e" transform="translate(828.71875 0)"/>
      <use xlink:href="#DejaVuSans-73" transform="translate(892.097656 0)"/>
      <use xlink:href="#DejaVuSans-20" transform="translate(944.197266 0)"/>
      <use xlink:href="#DejaVuSans-28" transform="translate(975.984375 0)"/>
      <use xlink:href="#DejaVuSans-63" transform="translate(1014.998047 0)"/>
      <use xlink:href="#DejaVuSans-6c" transform="translate(1069.978516 0)"/>
      <use xlink:href="#DejaVuSans-69" transform="translate(1097.761719 0)"/>
      <use xlink:href="#DejaVuSans-65" transform="translate(1125.544922 0)"/>
      <use xlink:href="#DejaVuSans-6e" transform="translate(1187.068359 0)"/>
      <use xlink:href="#DejaVuSans-74" transform="translate(1250.447266 0)"/>
      <use xlink:href="#DejaVuSans-29" transform="translate(1289.65625 0)"/>
     </g>
    </g>
    <g id="patch_8">
     <path d="M 53.478613 223.73055 
L 69.478612 223.73055 
L 69.478612 218.13055 
L 53.478613 218.13055 
z
" style="fill: #ff0000; fill-opacity: 0.12; stroke: #ff0000; stroke-opacity: 0.12; stroke-width: 0.8; stroke-linejoin: miter"/>
    </g>
    <g id="text_21">
     <!-- Service frozen -->
     <g style="fill: #262626" transform="translate(75.878613 223.73055) scale(0.08 -0.08)">
      <defs>
       <path id="DejaVuSans-53" d="M 3425 4513 
L 3425 3897 
Q 3066 4069 2747 4153 
Q 2428 4238 2131 4238 
Q 1616 4238 1336 4038 
Q 1056 3838 1056 3469 
Q 1056 3159 1242 3001 
Q 1428 2844 1947 2747 
L 2328 2669 
Q 3034 2534 3370 2195 
Q 3706 1856 3706 1288 
Q 3706 609 3251 259 
Q 2797 -91 1919 -91 
Q 1588 -91 1214 -16 
Q 841 59 441 206 
L 441 856 
Q 825 641 1194 531 
Q 1563 422 1919 422 
Q 2459 422 2753 634 
Q 3047 847 3047 1241 
Q 3047 1584 2836 1778 
Q 2625 1972 2144 2069 
L 1759 2144 
Q 1053 2284 737 2584 
Q 422 2884 422 3419 
Q 422 4038 858 4394 
Q 1294 4750 2059 4750 
Q 2388 4750 2728 4690 
Q 3069 4631 3425 4513 
z
" transform="scale(0.015625)"/>
       <path id="DejaVuSans-72" d="M 2631 2963 
Q 2534 3019 2420 3045 
Q 2306 3072 2169 3072 
Q 1681 3072 1420 2755 
Q 1159 2438 1159 1844 
L 1159 0 
L 581 0 
L 581 3500 
L 1159 3500 
L 1159 2956 
Q 1341 3275 1631 3429 
Q 1922 3584 2338 3584 
Q 2397 3584 2469 3576 
Q 2541 3569 2628 3553 
L 2631 2963 
z
" transform="scale(0.015625)"/>
       <path id="DejaVuSans-66" d="M 2375 4863 
L 2375 4384 
L 1825 4384 
Q 1516 4384 1395 4259 
Q 1275 4134 1275 3809 
L 1275 3500 
L 2222 3500 
L 2222 3053 
L 1275 3053 
L 1275 0 
L 697 0 
L 697 3053 
L 147 3053 
L 147 3500 
L 697 3500 
L 697 3744 
Q 697 4328 969 4595 
Q 1241 4863 1831 4863 
L 2375 4863 
z
" transform="scale(0.015625)"/>
       <path id="DejaVuSans-7a" d="M 353 3500 
L 3084 3500 
L 3084 2975 
L 922 459 
L 3084 459 
L 3084 0 
L 275 0 
L 275 525 
L 2438 3041 
L 353 3041 
L 353 3500 
z
" transform="scale(0.015625)"/>
      </defs>
      <use xlink:href="#DejaVuSans-53"/>
      <use xlink:href="#DejaVuSans-65" transform="translate(63.476562 0)"/>
      <use xlink:href="#DejaVuSans-72" transform="translate(125 0)"/>
      <use xlink:href="#DejaVuSans-76" transform="translate(166.113281 0)"/>
      <use xlink:href="#DejaVuSans-69" transform="translate(225.292969 0)"/>
      <use xlink:href="#DejaVuSans-63" transform="translate(253.076172 0)"/>
      <use xlink:href="#DejaVuSans-65" transform="translate(308.056641 0)"/>
      <use xlink:href="#DejaVuSans-20" transform="translate(369.580078 0)"/>
      <use xlink:href="#DejaVuSans-66" transform="translate(401.367188 0)"/>
      <use xlink:href="#DejaVuSans-72" transform="translate(436.572266 0)"/>
      <use xlink:href="#DejaVuSans-6f" transform="translate(475.435547 0)"/>
      <use xlink:href="#DejaVuSans-7a" transform="translate(536.617188 0)"/>
      <use xlink:href="#DejaVuSans-65" transform="translate(589.107422 0)"/>
      <use xlink:href="#DejaVuSans-6e" transform="translate(650.630859 0)"/>
     </g>
    </g>
    <g id="line2d_40">
     <path d="M 53.478613 232.67305 
L 61.478613 232.67305 
L 69.478612 232.67305 
" style="fill: none; stroke-dasharray: 2.96,1.28; stroke-dashoffset: 0; stroke: #d32f2f; stroke-opacity: 0.5; stroke-width: 0.8"/>
    </g>
    <g id="text_22">
     <!-- Migrations (n=20) -->
     <g style="fill: #262626" transform="translate(75.878613 235.47305) scale(0.08 -0.08)">
      <defs>
       <path id="DejaVuSans-4d" d="M 628 4666 
L 1569 4666 
L 2759 1491 
L 3956 4666 
L 4897 4666 
L 4897 0 
L 4281 0 
L 4281 4097 
L 3078 897 
L 2444 897 
L 1241 4097 
L 1241 0 
L 628 0 
L 628 4666 
z
" transform="scale(0.015625)"/>
       <path id="DejaVuSans-67" d="M 2906 1791 
Q 2906 2416 2648 2759 
Q 2391 3103 1925 3103 
Q 1463 3103 1205 2759 
Q 947 2416 947 1791 
Q 947 1169 1205 825 
Q 1463 481 1925 481 
Q 2391 481 2648 825 
Q 2906 1169 2906 1791 
z
M 3481 434 
Q 3481 -459 3084 -895 
Q 2688 -1331 1869 -1331 
Q 1566 -1331 1297 -1286 
Q 1028 -1241 775 -1147 
L 775 -588 
Q 1028 -725 1275 -790 
Q 1522 -856 1778 -856 
Q 2344 -856 2625 -561 
Q 2906 -266 2906 331 
L 2906 616 
Q 2728 306 2450 153 
Q 2172 0 1784 0 
Q 1141 0 747 490 
Q 353 981 353 1791 
Q 353 2603 747 3093 
Q 1141 3584 1784 3584 
Q 2172 3584 2450 3431 
Q 2728 3278 2906 2969 
L 2906 3500 
L 3481 3500 
L 3481 434 
z
" transform="scale(0.015625)"/>
       <path id="DejaVuSans-61" d="M 2194 1759 
Q 1497 1759 1228 1600 
Q 959 1441 959 1056 
Q 959 750 1161 570 
Q 1363 391 1709 391 
Q 2188 391 2477 730 
Q 2766 1069 2766 1631 
L 2766 1759 
L 2194 1759 
z
M 3341 1997 
L 3341 0 
L 2766 0 
L 2766 531 
Q 2569 213 2275 61 
Q 1981 -91 1556 -91 
Q 1019 -91 701 211 
Q 384 513 384 1019 
Q 384 1609 779 1909 
Q 1175 2209 1959 2209 
L 2766 2209 
L 2766 2266 
Q 2766 2663 2505 2880 
Q 2244 3097 1772 3097 
Q 1472 3097 1187 3025 
Q 903 2953 641 2809 
L 641 3341 
Q 956 3463 1253 3523 
Q 1550 3584 1831 3584 
Q 2591 3584 2966 3190 
Q 3341 2797 3341 1997 
z
" transform="scale(0.015625)"/>
       <path id="DejaVuSans-3d" d="M 678 2906 
L 4684 2906 
L 4684 2381 
L 678 2381 
L 678 2906 
z
M 678 1631 
L 4684 1631 
L 4684 1100 
L 678 1100 
L 678 1631 
z
" transform="scale(0.015625)"/>
      </defs>
      <use xlink:href="#DejaVuSans-4d"/>
      <use xlink:href="#DejaVuSans-69" transform="translate(86.279297 0)"/>
      <use xlink:href="#DejaVuSans-67" transform="translate(114.0625 0)"/>
      <use xlink:href="#DejaVuSans-72" transform="translate(177.539062 0)"/>
      <use xlink:href="#DejaVuSans-61" transform="translate(218.652344 0)"/>
      <use xlink:href="#DejaVuSans-74" transform="translate(279.931641 0)"/>
      <use xlink:href="#DejaVuSans-69" transform="translate(319.140625 0)"/>
      <use xlink:href="#DejaVuSans-6f" transform="translate(346.923828 0)"/>
      <use xlink:href="#DejaVuSans-6e" transform="translate(408.105469 0)"/>
      <use xlink:href="#DejaVuSans-73" transform="translate(471.484375 0)"/>
      <use xlink:href="#DejaVuSans-20" transform="translate(523.583984 0)"/>
      <use xlink:href="#DejaVuSans-28" transform="translate(555.371094 0)"/>
      <use xlink:href="#DejaVuSans-6e" transform="translate(594.384766 0)"/>
      <use xlink:href="#DejaVuSans-3d" transform="translate(657.763672 0)"/>
      <use xlink:href="#DejaVuSans-32" transform="translate(741.552734 0)"/>
      <use xlink:href="#DejaVuSans-30" transform="translate(805.175781 0)"/>
      <use xlink:href="#DejaVuSans-29" transform="translate(868.798828 0)"/>
     </g>
    </g>
   </g>
  </g>
  <g id="text_23">
   <!-- Client Connection Health -->
   <g style="fill: #262626" transform="translate(334.220997 17.26641) scale(0.13248 -0.13248)">
    <defs>
     <path id="DejaVuSans-Bold-43" d="M 4288 256 
Q 3956 84 3597 -3 
Q 3238 -91 2847 -91 
Q 1681 -91 1000 561 
Q 319 1213 319 2328 
Q 319 3447 1000 4098 
Q 1681 4750 2847 4750 
Q 3238 4750 3597 4662 
Q 3956 4575 4288 4403 
L 4288 3438 
Q 3953 3666 3628 3772 
Q 3303 3878 2944 3878 
Q 2300 3878 1931 3465 
Q 1563 3053 1563 2328 
Q 1563 1606 1931 1193 
Q 2300 781 2944 781 
Q 3303 781 3628 887 
Q 3953 994 4288 1222 
L 4288 256 
z
" transform="scale(0.015625)"/>
     <path id="DejaVuSans-Bold-6c" d="M 538 4863 
L 1656 4863 
L 1656 0 
L 538 0 
L 538 4863 
z
" transform="scale(0.015625)"/>
     <path id="DejaVuSans-Bold-69" d="M 538 3500 
L 1656 3500 
L 1656 0 
L 538 0 
L 538 3500 
z
M 538 4863 
L 1656 4863 
L 1656 3950 
L 538 3950 
L 538 4863 
z
" transform="scale(0.015625)"/>
     <path id="DejaVuSans-Bold-65" d="M 4031 1759 
L 4031 1441 
L 1416 1441 
Q 1456 1047 1700 850 
Q 1944 653 2381 653 
Q 2734 653 3104 758 
Q 3475 863 3866 1075 
L 3866 213 
Q 3469 63 3072 -14 
Q 2675 -91 2278 -91 
Q 1328 -91 801 392 
Q 275 875 275 1747 
Q 275 2603 792 3093 
Q 1309 3584 2216 3584 
Q 3041 3584 3536 3087 
Q 4031 2591 4031 1759 
z
M 2881 2131 
Q 2881 2450 2695 2645 
Q 2509 2841 2209 2841 
Q 1884 2841 1681 2658 
Q 1478 2475 1428 2131 
L 2881 2131 
z
" transform="scale(0.015625)"/>
     <path id="DejaVuSans-Bold-6e" d="M 4056 2131 
L 4056 0 
L 2931 0 
L 2931 347 
L 2931 1631 
Q 2931 2084 2911 2256 
Q 2891 2428 2841 2509 
Q 2775 2619 2662 2680 
Q 2550 2741 2406 2741 
Q 2056 2741 1856 2470 
Q 1656 2200 1656 1722 
L 1656 0 
L 538 0 
L 538 3500 
L 1656 3500 
L 1656 2988 
Q 1909 3294 2193 3439 
Q 2478 3584 2822 3584 
Q 3428 3584 3742 3212 
Q 4056 2841 4056 2131 
z
" transform="scale(0.015625)"/>
     <path id="DejaVuSans-Bold-74" d="M 1759 4494 
L 1759 3500 
L 2913 3500 
L 2913 2700 
L 1759 2700 
L 1759 1216 
Q 1759 972 1856 886 
Q 1953 800 2241 800 
L 2816 800 
L 2816 0 
L 1856 0 
Q 1194 0 917 276 
Q 641 553 641 1216 
L 641 2700 
L 84 2700 
L 84 3500 
L 641 3500 
L 641 4494 
L 1759 4494 
z
" transform="scale(0.015625)"/>
     <path id="DejaVuSans-Bold-20" transform="scale(0.015625)"/>
     <path id="DejaVuSans-Bold-6f" d="M 2203 2784 
Q 1831 2784 1636 2517 
Q 1441 2250 1441 1747 
Q 1441 1244 1636 976 
Q 1831 709 2203 709 
Q 2569 709 2762 976 
Q 2956 1244 2956 1747 
Q 2956 2250 2762 2517 
Q 2569 2784 2203 2784 
z
M 2203 3584 
Q 3106 3584 3614 3096 
Q 4122 2609 4122 1747 
Q 4122 884 3614 396 
Q 3106 -91 2203 -91 
Q 1297 -91 786 396 
Q 275 884 275 1747 
Q 275 2609 786 3096 
Q 1297 3584 2203 3584 
z
" transform="scale(0.015625)"/>
     <path id="DejaVuSans-Bold-63" d="M 3366 3391 
L 3366 2478 
Q 3138 2634 2908 2709 
Q 2678 2784 2431 2784 
Q 1963 2784 1702 2511 
Q 1441 2238 1441 1747 
Q 1441 1256 1702 982 
Q 1963 709 2431 709 
Q 2694 709 2930 787 
Q 3166 866 3366 1019 
L 3366 103 
Q 3103 6 2833 -42 
Q 2563 -91 2291 -91 
Q 1344 -91 809 395 
Q 275 881 275 1747 
Q 275 2613 809 3098 
Q 1344 3584 2291 3584 
Q 2566 3584 2833 3536 
Q 3100 3488 3366 3391 
z
" transform="scale(0.015625)"/>
     <path id="DejaVuSans-Bold-48" d="M 588 4666 
L 1791 4666 
L 1791 2888 
L 3566 2888 
L 3566 4666 
L 4769 4666 
L 4769 0 
L 3566 0 
L 3566 1978 
L 1791 1978 
L 1791 0 
L 588 0 
L 588 4666 
z
" transform="scale(0.015625)"/>
     <path id="DejaVuSans-Bold-61" d="M 2106 1575 
Q 1756 1575 1579 1456 
Q 1403 1338 1403 1106 
Q 1403 894 1545 773 
Q 1688 653 1941 653 
Q 2256 653 2472 879 
Q 2688 1106 2688 1447 
L 2688 1575 
L 2106 1575 
z
M 3816 1997 
L 3816 0 
L 2688 0 
L 2688 519 
Q 2463 200 2181 54 
Q 1900 -91 1497 -91 
Q 953 -91 614 226 
Q 275 544 275 1050 
Q 275 1666 698 1953 
Q 1122 2241 2028 2241 
L 2688 2241 
L 2688 2328 
Q 2688 2594 2478 2717 
Q 2269 2841 1825 2841 
Q 1466 2841 1156 2769 
Q 847 2697 581 2553 
L 581 3406 
Q 941 3494 1303 3539 
Q 1666 3584 2028 3584 
Q 2975 3584 3395 3211 
Q 3816 2838 3816 1997 
z
" transform="scale(0.015625)"/>
     <path id="DejaVuSans-Bold-68" d="M 4056 2131 
L 4056 0 
L 2931 0 
L 2931 347 
L 2931 1625 
Q 2931 2084 2911 2256 
Q 2891 2428 2841 2509 
Q 2775 2619 2662 2680 
Q 2550 2741 2406 2741 
Q 2056 2741 1856 2470 
Q 1656 2200 1656 1722 
L 1656 0 
L 538 0 
L 538 4863 
L 1656 4863 
L 1656 2988 
Q 1909 3294 2193 3439 
Q 2478 3584 2822 3584 
Q 3428 3584 3742 3212 
Q 4056 2841 4056 2131 
z
" transform="scale(0.015625)"/>
    </defs>
    <use xlink:href="#DejaVuSans-Bold-43"/>
    <use xlink:href="#DejaVuSans-Bold-6c" transform="translate(73.388672 0)"/>
    <use xlink:href="#DejaVuSans-Bold-69" transform="translate(107.666016 0)"/>
    <use xlink:href="#DejaVuSans-Bold-65" transform="translate(141.943359 0)"/>
    <use xlink:href="#DejaVuSans-Bold-6e" transform="translate(209.765625 0)"/>
    <use xlink:href="#DejaVuSans-Bold-74" transform="translate(280.957031 0)"/>
    <use xlink:href="#DejaVuSans-Bold-20" transform="translate(328.759766 0)"/>
    <use xlink:href="#DejaVuSans-Bold-43" transform="translate(363.574219 0)"/>
    <use xlink:href="#DejaVuSans-Bold-6f" transform="translate(436.962891 0)"/>
    <use xlink:href="#DejaVuSans-Bold-6e" transform="translate(505.664062 0)"/>
    <use xlink:href="#DejaVuSans-Bold-6e" transform="translate(576.855469 0)"/>
    <use xlink:href="#DejaVuSans-Bold-65" transform="translate(648.046875 0)"/>
    <use xlink:href="#DejaVuSans-Bold-63" transform="translate(715.869141 0)"/>
    <use xlink:href="#DejaVuSans-Bold-74" transform="translate(775.146484 0)"/>
    <use xlink:href="#DejaVuSans-Bold-69" transform="translate(822.949219 0)"/>
    <use xlink:href="#DejaVuSans-Bold-6f" transform="translate(857.226562 0)"/>
    <use xlink:href="#DejaVuSans-Bold-6e" transform="translate(925.927734 0)"/>
    <use xlink:href="#DejaVuSans-Bold-20" transform="translate(997.119141 0)"/>
    <use xlink:href="#DejaVuSans-Bold-48" transform="translate(1031.933594 0)"/>
    <use xlink:href="#DejaVuSans-Bold-65" transform="translate(1115.625 0)"/>
    <use xlink:href="#DejaVuSans-Bold-61" transform="translate(1183.447266 0)"/>
    <use xlink:href="#DejaVuSans-Bold-6c" transform="translate(1250.927734 0)"/>
    <use xlink:href="#DejaVuSans-Bold-74" transform="translate(1285.205078 0)"/>
    <use xlink:href="#DejaVuSans-Bold-68" transform="translate(1333.007812 0)"/>
   </g>
  </g>
 </g>
 <defs>
  <clipPath id="p5faf05f9a5">
   <rect x="46.278613" y="38.2464" width="801.0336" height="206.0904"/>
  </clipPath>
 </defs>
</svg>
