<?xml version="1.0" encoding="utf-8" standalone="no"?>
<!DOCTYPE svg PUBLIC "-//W3C//DTD SVG 1.1//EN"
  "http://www.w3.org/Graphics/SVG/1.1/DTD/svg11.dtd">
<svg xmlns:xlink="http://www.w3.org/1999/xlink" width="854.471062pt" height="284.315712pt" viewBox="0 0 854.471062 284.315712" xmlns="http://www.w3.org/2000/svg" version="1.1">
 <metadata>
  <rdf:RDF xmlns:dc="http://purl.org/dc/elements/1.1/" xmlns:cc="http://creativecommons.org/ns#" xmlns:rdf="http://www.w3.org/1999/02/22-rdf-syntax-ns#">
   <cc:Work>
    <dc:type rdf:resource="http://purl.org/dc/dcmitype/StillImage"/>
    <dc:date>2026-02-22T20:27:21.259794</dc:date>
    <dc:format>image/svg+xml</dc:format>
    <dc:creator>
     <cc:Agent>
      <dc:title>Matplotlib v3.10.8, https://matplotlib.org/</dc:title>
     </cc:Agent>
    </dc:creator>
   </cc:Work>
  </rdf:RDF>
 </metadata>
 <defs>
  <style type="text/css">*{stroke-linejoin: round; stroke-linecap: butt}</style>
 </defs>
 <g id="figure_1">
  <g id="patch_1">
   <path d="M 0 284.315712 
L 854.471062 284.315712 
L 854.471062 0 
L 0 0 
z
" style="fill: #ffffff"/>
  </g>
  <g id="axes_1">
   <g id="patch_2">
    <path d="M 52.717462 244.3368 
L 847.271062 244.3368 
L 847.271062 38.2464 
L 52.717462 38.2464 
z
" style="fill: #ffffff"/>
   </g>
   <g id="matplotlib.axis_1">
    <g id="xtick_1">
     <g id="line2d_1">
      <path d="M 88.833535 244.3368 
L 88.833535 38.2464 
" clip-path="url(#p004ba4fc22)" style="fill: none; stroke: #cccccc; stroke-width: 0.8; stroke-linecap: round"/>
     </g>
     <g id="text_1">
      <!-- 0 -->
      <g style="fill: #262626" transform="translate(85.61411 260.326419) scale(0.1012 -0.1012)">
       <defs>
        <path id="DejaVuSans-30" d="M 2034 4250 
Q 1547 4250 1301 3770 
Q 1056 3291 1056 2328 
Q 1056 1369 1301 889 
Q 1547 409 2034 409 
Q 2525 409 2770 889 
Q 3016 1369 3016 2328 
Q 3016 3291 2770 3770 
Q 2525 4250 2034 4250 
z
M 2034 4750 
Q 2819 4750 3233 4129 
Q 3647 3509 3647 2328 
Q 3647 1150 3233 529 
Q 2819 -91 2034 -91 
Q 1250 -91 836 529 
Q 422 1150 422 2328 
Q 422 3509 836 4129 
Q 1250 4750 2034 4750 
z
" transform="scale(0.015625)"/>
       </defs>
       <use xlink:href="#DejaVuSans-30"/>
      </g>
     </g>
    </g>
    <g id="xtick_2">
     <g id="line2d_2">
      <path d="M 186.18144 244.3368 
L 186.18144 38.2464 
" clip-path="url(#p004ba4fc22)" style="fill: none; stroke: #cccccc; stroke-width: 0.8; stroke-linecap: round"/>
     </g>
     <g id="text_2">
      <!-- 100 -->
      <g style="fill: #262626" transform="translate(176.523165 260.326419) scale(0.1012 -0.1012)">
       <defs>
        <path id="DejaVuSans-31" d="M 794 531 
L 1825 531 
L 1825 4091 
L 703 3866 
L 703 4441 
L 1819 4666 
L 2450 4666 
L 2450 531 
L 3481 531 
L 3481 0 
L 794 0 
L 794 531 
z
" transform="scale(0.015625)"/>
       </defs>
       <use xlink:href="#DejaVuSans-31"/>
       <use xlink:href="#DejaVuSans-30" transform="translate(63.623047 0)"/>
       <use xlink:href="#DejaVuSans-30" transform="translate(127.246094 0)"/>
      </g>
     </g>
    </g>
    <g id="xtick_3">
     <g id="line2d_3">
      <path d="M 283.529345 244.3368 
L 283.529345 38.2464 
" clip-path="url(#p004ba4fc22)" style="fill: none; stroke: #cccccc; stroke-width: 0.8; stroke-linecap: round"/>
     </g>
     <g id="text_3">
      <!-- 200 -->
      <g style="fill: #262626" transform="translate(273.87107 260.326419) scale(0.1012 -0.1012)">
       <defs>
        <path id="DejaVuSans-32" d="M 1228 531 
L 3431 531 
L 3431 0 
L 469 0 
L 469 531 
Q 828 903 1448 1529 
Q 2069 2156 2228 2338 
Q 2531 2678 2651 2914 
Q 2772 3150 2772 3378 
Q 2772 3750 2511 3984 
Q 2250 4219 1831 4219 
Q 1534 4219 1204 4116 
Q 875 4013 500 3803 
L 500 4441 
Q 881 4594 1212 4672 
Q 1544 4750 1819 4750 
Q 2544 4750 2975 4387 
Q 3406 4025 3406 3419 
Q 3406 3131 3298 2873 
Q 3191 2616 2906 2266 
Q 2828 2175 2409 1742 
Q 1991 1309 1228 531 
z
" transform="scale(0.015625)"/>
       </defs>
       <use xlink:href="#DejaVuSans-32"/>
       <use xlink:href="#DejaVuSans-30" transform="translate(63.623047 0)"/>
       <use xlink:href="#DejaVuSans-30" transform="translate(127.246094 0)"/>
      </g>
     </g>
    </g>
    <g id="xtick_4">
     <g id="line2d_4">
      <path d="M 380.87725 244.3368 
L 380.87725 38.2464 
" clip-path="url(#p004ba4fc22)" style="fill: none; stroke: #cccccc; stroke-width: 0.8; stroke-linecap: round"/>
     </g>
     <g id="text_4">
      <!-- 300 -->
      <g style="fill: #262626" transform="translate(371.218975 260.326419) scale(0.1012 -0.1012)">
       <defs>
        <path id="DejaVuSans-33" d="M 2597 2516 
Q 3050 2419 3304 2112 
Q 3559 1806 3559 1356 
Q 3559 666 3084 287 
Q 2609 -91 1734 -91 
Q 1441 -91 1130 -33 
Q 819 25 488 141 
L 488 750 
Q 750 597 1062 519 
Q 1375 441 1716 441 
Q 2309 441 2620 675 
Q 2931 909 2931 1356 
Q 2931 1769 2642 2001 
Q 2353 2234 1838 2234 
L 1294 2234 
L 1294 2753 
L 1863 2753 
Q 2328 2753 2575 2939 
Q 2822 3125 2822 3475 
Q 2822 3834 2567 4026 
Q 2313 4219 1838 4219 
Q 1578 4219 1281 4162 
Q 984 4106 628 3988 
L 628 4550 
Q 988 4650 1302 4700 
Q 1616 4750 1894 4750 
Q 2613 4750 3031 4423 
Q 3450 4097 3450 3541 
Q 3450 3153 3228 2886 
Q 3006 2619 2597 2516 
z
" transform="scale(0.015625)"/>
       </defs>
       <use xlink:href="#DejaVuSans-33"/>
       <use xlink:href="#DejaVuSans-30" transform="translate(63.623047 0)"/>
       <use xlink:href="#DejaVuSans-30" transform="translate(127.246094 0)"/>
      </g>
     </g>
    </g>
    <g id="xtick_5">
     <g id="line2d_5">
      <path d="M 478.225155 244.3368 
L 478.225155 38.2464 
" clip-path="url(#p004ba4fc22)" style="fill: none; stroke: #cccccc; stroke-width: 0.8; stroke-linecap: round"/>
     </g>
     <g id="text_5">
      <!-- 400 -->
      <g style="fill: #262626" transform="translate(468.56688 260.326419) scale(0.1012 -0.1012)">
       <defs>
        <path id="DejaVuSans-34" d="M 2419 4116 
L 825 1625 
L 2419 1625 
L 2419 4116 
z
M 2253 4666 
L 3047 4666 
L 3047 1625 
L 3713 1625 
L 3713 1100 
L 3047 1100 
L 3047 0 
L 2419 0 
L 2419 1100 
L 313 1100 
L 313 1709 
L 2253 4666 
z
" transform="scale(0.015625)"/>
       </defs>
       <use xlink:href="#DejaVuSans-34"/>
       <use xlink:href="#DejaVuSans-30" transform="translate(63.623047 0)"/>
       <use xlink:href="#DejaVuSans-30" transform="translate(127.246094 0)"/>
      </g>
     </g>
    </g>
    <g id="xtick_6">
     <g id="line2d_6">
      <path d="M 575.57306 244.3368 
L 575.57306 38.2464 
" clip-path="url(#p004ba4fc22)" style="fill: none; stroke: #cccccc; stroke-width: 0.8; stroke-linecap: round"/>
     </g>
     <g id="text_6">
      <!-- 500 -->
      <g style="fill: #262626" transform="translate(565.914785 260.326419) scale(0.1012 -0.1012)">
       <defs>
        <path id="DejaVuSans-35" d="M 691 4666 
L 3169 4666 
L 3169 4134 
L 1269 4134 
L 1269 2991 
Q 1406 3038 1543 3061 
Q 1681 3084 1819 3084 
Q 2600 3084 3056 2656 
Q 3513 2228 3513 1497 
Q 3513 744 3044 326 
Q 2575 -91 1722 -91 
Q 1428 -91 1123 -41 
Q 819 9 494 109 
L 494 744 
Q 775 591 1075 516 
Q 1375 441 1709 441 
Q 2250 441 2565 725 
Q 2881 1009 2881 1497 
Q 2881 1984 2565 2268 
Q 2250 2553 1709 2553 
Q 1456 2553 1204 2497 
Q 953 2441 691 2322 
L 691 4666 
z
" transform="scale(0.015625)"/>
       </defs>
       <use xlink:href="#DejaVuSans-35"/>
       <use xlink:href="#DejaVuSans-30" transform="translate(63.623047 0)"/>
       <use xlink:href="#DejaVuSans-30" transform="translate(127.246094 0)"/>
      </g>
     </g>
    </g>
    <g id="xtick_7">
     <g id="line2d_7">
      <path d="M 672.920965 244.3368 
L 672.920965 38.2464 
" clip-path="url(#p004ba4fc22)" style="fill: none; stroke: #cccccc; stroke-width: 0.8; stroke-linecap: round"/>
     </g>
     <g id="text_7">
      <!-- 600 -->
      <g style="fill: #262626" transform="translate(663.26269 260.326419) scale(0.1012 -0.1012)">
       <defs>
        <path id="DejaVuSans-36" d="M 2113 2584 
Q 1688 2584 1439 2293 
Q 1191 2003 1191 1497 
Q 1191 994 1439 701 
Q 1688 409 2113 409 
Q 2538 409 2786 701 
Q 3034 994 3034 1497 
Q 3034 2003 2786 2293 
Q 2538 2584 2113 2584 
z
M 3366 4563 
L 3366 3988 
Q 3128 4100 2886 4159 
Q 2644 4219 2406 4219 
Q 1781 4219 1451 3797 
Q 1122 3375 1075 2522 
Q 1259 2794 1537 2939 
Q 1816 3084 2150 3084 
Q 2853 3084 3261 2657 
Q 3669 2231 3669 1497 
Q 3669 778 3244 343 
Q 2819 -91 2113 -91 
Q 1303 -91 875 529 
Q 447 1150 447 2328 
Q 447 3434 972 4092 
Q 1497 4750 2381 4750 
Q 2619 4750 2861 4703 
Q 3103 4656 3366 4563 
z
" transform="scale(0.015625)"/>
       </defs>
       <use xlink:href="#DejaVuSans-36"/>
       <use xlink:href="#DejaVuSans-30" transform="translate(63.623047 0)"/>
       <use xlink:href="#DejaVuSans-30" transform="translate(127.246094 0)"/>
      </g>
     </g>
    </g>
    <g id="xtick_8">
     <g id="line2d_8">
      <path d="M 770.26887 244.3368 
L 770.26887 38.2464 
" clip-path="url(#p004ba4fc22)" style="fill: none; stroke: #cccccc; stroke-width: 0.8; stroke-linecap: round"/>
     </g>
     <g id="text_8">
      <!-- 700 -->
      <g style="fill: #262626" transform="translate(760.610595 260.326419) scale(0.1012 -0.1012)">
       <defs>
        <path id="DejaVuSans-37" d="M 525 4666 
L 3525 4666 
L 3525 4397 
L 1831 0 
L 1172 0 
L 2766 4134 
L 525 4134 
L 525 4666 
z
" transform="scale(0.015625)"/>
       </defs>
       <use xlink:href="#DejaVuSans-37"/>
       <use xlink:href="#DejaVuSans-30" transform="translate(63.623047 0)"/>
       <use xlink:href="#DejaVuSans-30" transform="translate(127.246094 0)"/>
      </g>
     </g>
    </g>
    <g id="text_9">
     <!-- Time (s) -->
     <g style="fill: #262626" transform="translate(427.55115 274.819737) scale(0.1104 -0.1104)">
      <defs>
       <path id="DejaVuSans-54" d="M -19 4666 
L 3928 4666 
L 3928 4134 
L 2272 4134 
L 2272 0 
L 1638 0 
L 1638 4134 
L -19 4134 
L -19 4666 
z
" transform="scale(0.015625)"/>
       <path id="DejaVuSans-69" d="M 603 3500 
L 1178 3500 
L 1178 0 
L 603 0 
L 603 3500 
z
M 603 4863 
L 1178 4863 
L 1178 4134 
L 603 4134 
L 603 4863 
z
" transform="scale(0.015625)"/>
       <path id="DejaVuSans-6d" d="M 3328 2828 
Q 3544 3216 3844 3400 
Q 4144 3584 4550 3584 
Q 5097 3584 5394 3201 
Q 5691 2819 5691 2113 
L 5691 0 
L 5113 0 
L 5113 2094 
Q 5113 2597 4934 2840 
Q 4756 3084 4391 3084 
Q 3944 3084 3684 2787 
Q 3425 2491 3425 1978 
L 3425 0 
L 2847 0 
L 2847 2094 
Q 2847 2600 2669 2842 
Q 2491 3084 2119 3084 
Q 1678 3084 1418 2786 
Q 1159 2488 1159 1978 
L 1159 0 
L 581 0 
L 581 3500 
L 1159 3500 
L 1159 2956 
Q 1356 3278 1631 3431 
Q 1906 3584 2284 3584 
Q 2666 3584 2933 3390 
Q 3200 3197 3328 2828 
z
" transform="scale(0.015625)"/>
       <path id="DejaVuSans-65" d="M 3597 1894 
L 3597 1613 
L 953 1613 
Q 991 1019 1311 708 
Q 1631 397 2203 397 
Q 2534 397 2845 478 
Q 3156 559 3463 722 
L 3463 178 
Q 3153 47 2828 -22 
Q 2503 -91 2169 -91 
Q 1331 -91 842 396 
Q 353 884 353 1716 
Q 353 2575 817 3079 
Q 1281 3584 2069 3584 
Q 2775 3584 3186 3129 
Q 3597 2675 3597 1894 
z
M 3022 2063 
Q 3016 2534 2758 2815 
Q 2500 3097 2075 3097 
Q 1594 3097 1305 2825 
Q 1016 2553 972 2059 
L 3022 2063 
z
" transform="scale(0.015625)"/>
       <path id="DejaVuSans-20" transform="scale(0.015625)"/>
       <path id="DejaVuSans-28" d="M 1984 4856 
Q 1566 4138 1362 3434 
Q 1159 2731 1159 2009 
Q 1159 1288 1364 580 
Q 1569 -128 1984 -844 
L 1484 -844 
Q 1016 -109 783 600 
Q 550 1309 550 2009 
Q 550 2706 781 3412 
Q 1013 4119 1484 4856 
L 1984 4856 
z
" transform="scale(0.015625)"/>
       <path id="DejaVuSans-73" d="M 2834 3397 
L 2834 2853 
Q 2591 2978 2328 3040 
Q 2066 3103 1784 3103 
Q 1356 3103 1142 2972 
Q 928 2841 928 2578 
Q 928 2378 1081 2264 
Q 1234 2150 1697 2047 
L 1894 2003 
Q 2506 1872 2764 1633 
Q 3022 1394 3022 966 
Q 3022 478 2636 193 
Q 2250 -91 1575 -91 
Q 1294 -91 989 -36 
Q 684 19 347 128 
L 347 722 
Q 666 556 975 473 
Q 1284 391 1588 391 
Q 1994 391 2212 530 
Q 2431 669 2431 922 
Q 2431 1156 2273 1281 
Q 2116 1406 1581 1522 
L 1381 1569 
Q 847 1681 609 1914 
Q 372 2147 372 2553 
Q 372 3047 722 3315 
Q 1072 3584 1716 3584 
Q 2034 3584 2315 3537 
Q 2597 3491 2834 3397 
z
" transform="scale(0.015625)"/>
       <path id="DejaVuSans-29" d="M 513 4856 
L 1013 4856 
Q 1481 4119 1714 3412 
Q 1947 2706 1947 2009 
Q 1947 1309 1714 600 
Q 1481 -109 1013 -844 
L 513 -844 
Q 928 -128 1133 580 
Q 1338 1288 1338 2009 
Q 1338 2731 1133 3434 
Q 928 4138 513 4856 
z
" transform="scale(0.015625)"/>
      </defs>
      <use xlink:href="#DejaVuSans-54"/>
      <use xlink:href="#DejaVuSans-69" transform="translate(57.958984 0)"/>
      <use xlink:href="#DejaVuSans-6d" transform="translate(85.742188 0)"/>
      <use xlink:href="#DejaVuSans-65" transform="translate(183.154297 0)"/>
      <use xlink:href="#DejaVuSans-20" transform="translate(244.677734 0)"/>
      <use xlink:href="#DejaVuSans-28" transform="translate(276.464844 0)"/>
      <use xlink:href="#DejaVuSans-73" transform="translate(315.478516 0)"/>
      <use xlink:href="#DejaVuSans-29" transform="translate(367.578125 0)"/>
     </g>
    </g>
   </g>
   <g id="matplotlib.axis_2">
    <g id="ytick_1">
     <g id="line2d_9">
      <path d="M 52.717462 244.3368 
L 847.271062 244.3368 
" clip-path="url(#p004ba4fc22)" style="fill: none; stroke: #cccccc; stroke-width: 0.8; stroke-linecap: round"/>
     </g>
     <g id="text_10">
      <!-- 0.0 -->
      <g style="fill: #262626" transform="translate(28.3235 248.181609) scale(0.1012 -0.1012)">
       <defs>
        <path id="DejaVuSans-2e" d="M 684 794 
L 1344 794 
L 1344 0 
L 684 0 
L 684 794 
z
" transform="scale(0.015625)"/>
       </defs>
       <use xlink:href="#DejaVuSans-30"/>
       <use xlink:href="#DejaVuSans-2e" transform="translate(63.623047 0)"/>
       <use xlink:href="#DejaVuSans-30" transform="translate(95.410156 0)"/>
      </g>
     </g>
    </g>
    <g id="ytick_2">
     <g id="line2d_10">
      <path d="M 52.717462 217.95554 
L 847.271062 217.95554 
" clip-path="url(#p004ba4fc22)" style="fill: none; stroke: #cccccc; stroke-width: 0.8; stroke-linecap: round"/>
     </g>
     <g id="text_11">
      <!-- 2.5 -->
      <g style="fill: #262626" transform="translate(28.3235 221.80035) scale(0.1012 -0.1012)">
       <use xlink:href="#DejaVuSans-32"/>
       <use xlink:href="#DejaVuSans-2e" transform="translate(63.623047 0)"/>
       <use xlink:href="#DejaVuSans-35" transform="translate(95.410156 0)"/>
      </g>
     </g>
    </g>
    <g id="ytick_3">
     <g id="line2d_11">
      <path d="M 52.717462 191.574281 
L 847.271062 191.574281 
" clip-path="url(#p004ba4fc22)" style="fill: none; stroke: #cccccc; stroke-width: 0.8; stroke-linecap: round"/>
     </g>
     <g id="text_12">
      <!-- 5.0 -->
      <g style="fill: #262626" transform="translate(28.3235 195.41909) scale(0.1012 -0.1012)">
       <use xlink:href="#DejaVuSans-35"/>
       <use xlink:href="#DejaVuSans-2e" transform="translate(63.623047 0)"/>
       <use xlink:href="#DejaVuSans-30" transform="translate(95.410156 0)"/>
      </g>
     </g>
    </g>
    <g id="ytick_4">
     <g id="line2d_12">
      <path d="M 52.717462 165.193021 
L 847.271062 165.193021 
" clip-path="url(#p004ba4fc22)" style="fill: none; stroke: #cccccc; stroke-width: 0.8; stroke-linecap: round"/>
     </g>
     <g id="text_13">
      <!-- 7.5 -->
      <g style="fill: #262626" transform="translate(28.3235 169.037831) scale(0.1012 -0.1012)">
       <use xlink:href="#DejaVuSans-37"/>
       <use xlink:href="#DejaVuSans-2e" transform="translate(63.623047 0)"/>
       <use xlink:href="#DejaVuSans-35" transform="translate(95.410156 0)"/>
      </g>
     </g>
    </g>
    <g id="ytick_5">
     <g id="line2d_13">
      <path d="M 52.717462 138.811762 
L 847.271062 138.811762 
" clip-path="url(#p004ba4fc22)" style="fill: none; stroke: #cccccc; stroke-width: 0.8; stroke-linecap: round"/>
     </g>
     <g id="text_14">
      <!-- 10.0 -->
      <g style="fill: #262626" transform="translate(21.88465 142.656571) scale(0.1012 -0.1012)">
       <use xlink:href="#DejaVuSans-31"/>
       <use xlink:href="#DejaVuSans-30" transform="translate(63.623047 0)"/>
       <use xlink:href="#DejaVuSans-2e" transform="translate(127.246094 0)"/>
       <use xlink:href="#DejaVuSans-30" transform="translate(159.033203 0)"/>
      </g>
     </g>
    </g>
    <g id="ytick_6">
     <g id="line2d_14">
      <path d="M 52.717462 112.430502 
L 847.271062 112.430502 
" clip-path="url(#p004ba4fc22)" style="fill: none; stroke: #cccccc; stroke-width: 0.8; stroke-linecap: round"/>
     </g>
     <g id="text_15">
      <!-- 12.5 -->
      <g style="fill: #262626" transform="translate(21.88465 116.275311) scale(0.1012 -0.1012)">
       <use xlink:href="#DejaVuSans-31"/>
       <use xlink:href="#DejaVuSans-32" transform="translate(63.623047 0)"/>
       <use xlink:href="#DejaVuSans-2e" transform="translate(127.246094 0)"/>
       <use xlink:href="#DejaVuSans-35" transform="translate(159.033203 0)"/>
      </g>
     </g>
    </g>
    <g id="ytick_7">
     <g id="line2d_15">
      <path d="M 52.717462 86.049242 
L 847.271062 86.049242 
" clip-path="url(#p004ba4fc22)" style="fill: none; stroke: #cccccc; stroke-width: 0.8; stroke-linecap: round"/>
     </g>
     <g id="text_16">
      <!-- 15.0 -->
      <g style="fill: #262626" transform="translate(21.88465 89.894052) scale(0.1012 -0.1012)">
       <use xlink:href="#DejaVuSans-31"/>
       <use xlink:href="#DejaVuSans-35" transform="translate(63.623047 0)"/>
       <use xlink:href="#DejaVuSans-2e" transform="translate(127.246094 0)"/>
       <use xlink:href="#DejaVuSans-30" transform="translate(159.033203 0)"/>
      </g>
     </g>
    </g>
    <g id="ytick_8">
     <g id="line2d_16">
      <path d="M 52.717462 59.667983 
L 847.271062 59.667983 
" clip-path="url(#p004ba4fc22)" style="fill: none; stroke: #cccccc; stroke-width: 0.8; stroke-linecap: round"/>
     </g>
     <g id="text_17">
      <!-- 17.5 -->
      <g style="fill: #262626" transform="translate(21.88465 63.512792) scale(0.1012 -0.1012)">
       <use xlink:href="#DejaVuSans-31"/>
       <use xlink:href="#DejaVuSans-37" transform="translate(63.623047 0)"/>
       <use xlink:href="#DejaVuSans-2e" transform="translate(127.246094 0)"/>
       <use xlink:href="#DejaVuSans-35" transform="translate(159.033203 0)"/>
      </g>
     </g>
    </g>
    <g id="text_18">
     <!-- CPU % -->
     <g style="fill: #262626" transform="translate(15.588675 159.513637) rotate(-90) scale(0.1104 -0.1104)">
      <defs>
       <path id="DejaVuSans-43" d="M 4122 4306 
L 4122 3641 
Q 3803 3938 3442 4084 
Q 3081 4231 2675 4231 
Q 1875 4231 1450 3742 
Q 1025 3253 1025 2328 
Q 1025 1406 1450 917 
Q 1875 428 2675 428 
Q 3081 428 3442 575 
Q 3803 722 4122 1019 
L 4122 359 
Q 3791 134 3420 21 
Q 3050 -91 2638 -91 
Q 1578 -91 968 557 
Q 359 1206 359 2328 
Q 359 3453 968 4101 
Q 1578 4750 2638 4750 
Q 3056 4750 3426 4639 
Q 3797 4528 4122 4306 
z
" transform="scale(0.015625)"/>
       <path id="DejaVuSans-50" d="M 1259 4147 
L 1259 2394 
L 2053 2394 
Q 2494 2394 2734 2622 
Q 2975 2850 2975 3272 
Q 2975 3691 2734 3919 
Q 2494 4147 2053 4147 
L 1259 4147 
z
M 628 4666 
L 2053 4666 
Q 2838 4666 3239 4311 
Q 3641 3956 3641 3272 
Q 3641 2581 3239 2228 
Q 2838 1875 2053 1875 
L 1259 1875 
L 1259 0 
L 628 0 
L 628 4666 
z
" transform="scale(0.015625)"/>
       <path id="DejaVuSans-55" d="M 556 4666 
L 1191 4666 
L 1191 1831 
Q 1191 1081 1462 751 
Q 1734 422 2344 422 
Q 2950 422 3222 751 
Q 3494 1081 3494 1831 
L 3494 4666 
L 4128 4666 
L 4128 1753 
Q 4128 841 3676 375 
Q 3225 -91 2344 -91 
Q 1459 -91 1007 375 
Q 556 841 556 1753 
L 556 4666 
z
" transform="scale(0.015625)"/>
       <path id="DejaVuSans-25" d="M 4653 2053 
Q 4381 2053 4226 1822 
Q 4072 1591 4072 1178 
Q 4072 772 4226 539 
Q 4381 306 4653 306 
Q 4919 306 5073 539 
Q 5228 772 5228 1178 
Q 5228 1588 5073 1820 
Q 4919 2053 4653 2053 
z
M 4653 2450 
Q 5147 2450 5437 2106 
Q 5728 1763 5728 1178 
Q 5728 594 5436 251 
Q 5144 -91 4653 -91 
Q 4153 -91 3862 251 
Q 3572 594 3572 1178 
Q 3572 1766 3864 2108 
Q 4156 2450 4653 2450 
z
M 1428 4353 
Q 1159 4353 1004 4120 
Q 850 3888 850 3481 
Q 850 3069 1003 2837 
Q 1156 2606 1428 2606 
Q 1700 2606 1854 2837 
Q 2009 3069 2009 3481 
Q 2009 3884 1853 4118 
Q 1697 4353 1428 4353 
z
M 4250 4750 
L 4750 4750 
L 1831 -91 
L 1331 -91 
L 4250 4750 
z
M 1428 4750 
Q 1922 4750 2215 4408 
Q 2509 4066 2509 3481 
Q 2509 2891 2217 2550 
Q 1925 2209 1428 2209 
Q 931 2209 642 2551 
Q 353 2894 353 3481 
Q 353 4063 643 4406 
Q 934 4750 1428 4750 
z
" transform="scale(0.015625)"/>
      </defs>
      <use xlink:href="#DejaVuSans-43"/>
      <use xlink:href="#DejaVuSans-50" transform="translate(69.824219 0)"/>
      <use xlink:href="#DejaVuSans-55" transform="translate(130.126953 0)"/>
      <use xlink:href="#DejaVuSans-20" transform="translate(203.320312 0)"/>
      <use xlink:href="#DejaVuSans-25" transform="translate(235.107422 0)"/>
     </g>
    </g>
   </g>
   <g id="FillBetweenPolyCollection_1">
    <path d="M 88.833535 237.161097 
L 88.833535 244.3368 
L 89.807014 244.3368 
L 90.780493 244.3368 
L 91.753972 244.3368 
L 92.727451 244.3368 
L 93.70093 244.3368 
L 94.67441 244.3368 
L 95.647889 244.3368 
L 96.621368 244.3368 
L 97.594847 244.3368 
L 98.568326 244.3368 
L 99.541805 244.3368 
L 100.515284 244.3368 
L 101.488763 244.3368 
L 102.462242 244.3368 
L 103.435721 244.3368 
L 104.4092 244.3368 
L 105.382679 244.3368 
L 106.356158 244.3368 
L 106.356158 233.784296 
L 106.356158 233.784296 
L 105.382679 223.231792 
L 104.4092 233.784296 
L 103.435721 233.784296 
L 102.462242 233.784296 
L 101.488763 233.784296 
L 100.515284 223.231792 
L 99.541805 233.784296 
L 98.568326 233.784296 
L 97.594847 233.784296 
L 96.621368 233.784296 
L 95.647889 233.784296 
L 94.67441 233.784296 
L 93.70093 233.784296 
L 92.727451 223.231792 
L 91.753972 233.784296 
L 90.780493 233.784296 
L 89.807014 233.467721 
L 88.833535 237.161097 
z
" clip-path="url(#p004ba4fc22)" style="fill: #4c72b0; fill-opacity: 0.1; stroke: #4c72b0; stroke-opacity: 0.1; stroke-width: 0.8"/>
    <path d="M 108.303116 233.784296 
L 108.303116 244.3368 
L 109.276595 244.3368 
L 110.250074 244.3368 
L 111.223553 244.3368 
L 112.197032 244.3368 
L 113.170511 244.3368 
L 114.143991 244.3368 
L 115.11747 244.3368 
L 116.090949 244.3368 
L 117.064428 244.3368 
L 118.037907 244.3368 
L 119.011386 244.3368 
L 119.984865 244.3368 
L 120.958344 244.3368 
L 121.931823 244.3368 
L 121.931823 223.231792 
L 121.931823 223.231792 
L 120.958344 233.784296 
L 119.984865 223.231792 
L 119.011386 233.784296 
L 118.037907 223.231792 
L 117.064428 233.784296 
L 116.090949 223.231792 
L 115.11747 223.231792 
L 114.143991 233.784296 
L 113.170511 233.784296 
L 112.197032 223.231792 
L 111.223553 233.784296 
L 110.250074 233.784296 
L 109.276595 223.231792 
L 108.303116 233.784296 
z
" clip-path="url(#p004ba4fc22)" style="fill: #4c72b0; fill-opacity: 0.1; stroke: #4c72b0; stroke-opacity: 0.1; stroke-width: 0.8"/>
    <path d="M 125.825739 223.231792 
L 125.825739 244.3368 
L 127.772697 244.3368 
L 128.746176 244.3368 
L 129.719655 244.3368 
L 130.693134 244.3368 
L 131.666613 244.3368 
L 132.640092 244.3368 
L 133.613571 244.3368 
L 134.587051 244.3368 
L 135.56053 244.3368 
L 136.534009 244.3368 
L 137.507488 244.3368 
L 138.480967 244.3368 
L 139.454446 244.3368 
L 140.427925 244.3368 
L 141.401404 244.3368 
L 142.374883 244.3368 
L 143.348362 244.3368 
L 144.321841 244.3368 
L 145.29532 244.3368 
L 146.268799 244.3368 
L 147.242278 244.3368 
L 148.215757 244.3368 
L 149.189236 244.3368 
L 150.162715 244.3368 
L 151.136194 244.3368 
L 152.109673 244.3368 
L 153.083152 244.3368 
L 154.056632 244.3368 
L 155.030111 244.3368 
L 156.00359 244.3368 
L 156.977069 244.3368 
L 156.977069 212.679288 
L 156.977069 212.679288 
L 156.00359 212.679288 
L 155.030111 212.679288 
L 154.056632 212.679288 
L 153.083152 233.784296 
L 152.109673 212.679288 
L 151.136194 223.231792 
L 150.162715 223.231792 
L 149.189236 212.679288 
L 148.215757 223.231792 
L 147.242278 233.784296 
L 146.268799 212.679288 
L 145.29532 212.679288 
L 144.321841 212.679288 
L 143.348362 223.231792 
L 142.374883 223.231792 
L 141.401404 223.231792 
L 140.427925 212.679288 
L 139.454446 202.126785 
L 138.480967 212.679288 
L 137.507488 212.679288 
L 136.534009 223.231792 
L 135.56053 212.679288 
L 134.587051 233.784296 
L 133.613571 212.679288 
L 132.640092 212.679288 
L 131.666613 202.126785 
L 130.693134 223.231792 
L 129.719655 213.206914 
L 128.746176 233.784296 
L 127.772697 208.774862 
L 125.825739 223.231792 
z
" clip-path="url(#p004ba4fc22)" style="fill: #4c72b0; fill-opacity: 0.1; stroke: #4c72b0; stroke-opacity: 0.1; stroke-width: 0.8"/>
    <path d="M 158.924027 212.679288 
L 158.924027 244.3368 
L 158.924027 212.679288 
L 158.924027 212.679288 
z
" clip-path="url(#p004ba4fc22)" style="fill: #4c72b0; fill-opacity: 0.1; stroke: #4c72b0; stroke-opacity: 0.1; stroke-width: 0.8"/>
    <path d="M 161.844464 230.829595 
L 161.844464 244.3368 
L 162.817943 244.3368 
L 163.791422 244.3368 
L 164.764901 244.3368 
L 165.73838 244.3368 
L 166.711859 244.3368 
L 167.685338 244.3368 
L 168.658817 244.3368 
L 169.632296 244.3368 
L 170.605775 244.3368 
L 171.579254 244.3368 
L 172.552733 244.3368 
L 173.526213 244.3368 
L 174.499692 244.3368 
L 175.473171 244.3368 
L 176.44665 244.3368 
L 177.420129 244.3368 
L 178.393608 244.3368 
L 179.367087 244.3368 
L 180.340566 244.3368 
L 181.314045 244.3368 
L 182.287524 244.3368 
L 183.261003 244.3368 
L 184.234482 244.3368 
L 185.207961 244.3368 
L 186.18144 244.3368 
L 187.154919 244.3368 
L 188.128398 244.3368 
L 189.101877 244.3368 
L 190.075356 244.3368 
L 191.048835 244.3368 
L 192.022314 244.3368 
L 192.022314 223.231792 
L 192.022314 223.231792 
L 191.048835 223.231792 
L 190.075356 223.231792 
L 189.101877 223.231792 
L 188.128398 223.231792 
L 187.154919 223.231792 
L 186.18144 212.679288 
L 185.207961 223.231792 
L 184.234482 223.231792 
L 183.261003 223.231792 
L 182.287524 223.231792 
L 181.314045 223.231792 
L 180.340566 223.231792 
L 179.367087 223.231792 
L 178.393608 223.231792 
L 177.420129 233.784296 
L 176.44665 223.231792 
L 175.473171 223.231792 
L 174.499692 223.231792 
L 173.526213 223.231792 
L 172.552733 212.679288 
L 171.579254 223.231792 
L 170.605775 223.231792 
L 169.632296 223.231792 
L 168.658817 223.231792 
L 167.685338 233.784296 
L 166.711859 223.231792 
L 165.73838 223.231792 
L 164.764901 212.679288 
L 163.791422 223.231792 
L 162.817943 212.679288 
L 161.844464 230.829595 
z
" clip-path="url(#p004ba4fc22)" style="fill: #4c72b0; fill-opacity: 0.1; stroke: #4c72b0; stroke-opacity: 0.1; stroke-width: 0.8"/>
    <path d="M 193.969273 223.231792 
L 193.969273 244.3368 
L 193.969273 223.231792 
L 193.969273 223.231792 
z
" clip-path="url(#p004ba4fc22)" style="fill: #4c72b0; fill-opacity: 0.1; stroke: #4c72b0; stroke-opacity: 0.1; stroke-width: 0.8"/>
    <path d="M 196.88971 205.503586 
L 196.88971 244.3368 
L 197.863189 244.3368 
L 198.836668 244.3368 
L 199.810147 244.3368 
L 200.783626 244.3368 
L 201.757105 244.3368 
L 202.730584 244.3368 
L 203.704063 244.3368 
L 204.677542 244.3368 
L 205.651021 244.3368 
L 206.6245 244.3368 
L 207.597979 244.3368 
L 208.571458 244.3368 
L 209.544937 244.3368 
L 210.518416 244.3368 
L 211.491895 244.3368 
L 212.465374 244.3368 
L 213.438854 244.3368 
L 214.412333 244.3368 
L 215.385812 244.3368 
L 216.359291 244.3368 
L 217.33277 244.3368 
L 218.306249 244.3368 
L 219.279728 244.3368 
L 220.253207 244.3368 
L 221.226686 244.3368 
L 222.200165 244.3368 
L 223.173644 244.3368 
L 224.147123 244.3368 
L 225.120602 244.3368 
L 226.094081 244.3368 
L 226.094081 223.231792 
L 226.094081 223.231792 
L 225.120602 212.679288 
L 224.147123 223.231792 
L 223.173644 202.126785 
L 222.200165 212.679288 
L 221.226686 191.574281 
L 220.253207 223.231792 
L 219.279728 212.679288 
L 218.306249 212.679288 
L 217.33277 212.679288 
L 216.359291 202.126785 
L 215.385812 223.231792 
L 214.412333 212.679288 
L 213.438854 212.679288 
L 212.465374 202.126785 
L 211.491895 212.679288 
L 210.518416 223.231792 
L 209.544937 212.679288 
L 208.571458 212.679288 
L 207.597979 212.679288 
L 206.6245 212.679288 
L 205.651021 212.679288 
L 204.677542 212.679288 
L 203.704063 212.679288 
L 202.730584 212.679288 
L 201.757105 212.679288 
L 200.783626 202.126785 
L 199.810147 212.679288 
L 198.836668 212.679288 
L 197.863189 212.679288 
L 196.88971 205.503586 
z
" clip-path="url(#p004ba4fc22)" style="fill: #4c72b0; fill-opacity: 0.1; stroke: #4c72b0; stroke-opacity: 0.1; stroke-width: 0.8"/>
    <path d="M 228.041039 223.231792 
L 228.041039 244.3368 
L 228.041039 223.231792 
L 228.041039 223.231792 
z
" clip-path="url(#p004ba4fc22)" style="fill: #4c72b0; fill-opacity: 0.1; stroke: #4c72b0; stroke-opacity: 0.1; stroke-width: 0.8"/>
    <path d="M 230.961476 218.16659 
L 230.961476 244.3368 
L 231.934955 244.3368 
L 232.908435 244.3368 
L 233.881914 244.3368 
L 234.855393 244.3368 
L 235.828872 244.3368 
L 236.802351 244.3368 
L 237.77583 244.3368 
L 238.749309 244.3368 
L 239.722788 244.3368 
L 240.696267 244.3368 
L 241.669746 244.3368 
L 242.643225 244.3368 
L 243.616704 244.3368 
L 244.590183 244.3368 
L 245.563662 244.3368 
L 246.537141 244.3368 
L 247.51062 244.3368 
L 248.484099 244.3368 
L 249.457578 244.3368 
L 250.431057 244.3368 
L 251.404536 244.3368 
L 252.378016 244.3368 
L 253.351495 244.3368 
L 254.324974 244.3368 
L 255.298453 244.3368 
L 256.271932 244.3368 
L 257.245411 244.3368 
L 258.21889 244.3368 
L 259.192369 244.3368 
L 260.165848 244.3368 
L 261.139327 244.3368 
L 261.139327 223.231792 
L 261.139327 223.231792 
L 260.165848 223.231792 
L 259.192369 233.784296 
L 258.21889 223.231792 
L 257.245411 223.231792 
L 256.271932 233.784296 
L 255.298453 233.784296 
L 254.324974 223.231792 
L 253.351495 233.784296 
L 252.378016 223.231792 
L 251.404536 223.231792 
L 250.431057 223.231792 
L 249.457578 223.231792 
L 248.484099 223.231792 
L 247.51062 233.784296 
L 246.537141 212.679288 
L 245.563662 233.784296 
L 244.590183 223.231792 
L 243.616704 233.784296 
L 242.643225 223.231792 
L 241.669746 223.231792 
L 240.696267 212.679288 
L 239.722788 223.231792 
L 238.749309 223.231792 
L 237.77583 223.231792 
L 236.802351 233.784296 
L 235.828872 212.679288 
L 234.855393 223.231792 
L 233.881914 223.231792 
L 232.908435 223.231792 
L 231.934955 223.231792 
L 230.961476 218.16659 
z
" clip-path="url(#p004ba4fc22)" style="fill: #4c72b0; fill-opacity: 0.1; stroke: #4c72b0; stroke-opacity: 0.1; stroke-width: 0.8"/>
    <path d="M 263.086285 223.231792 
L 263.086285 244.3368 
L 263.086285 223.231792 
L 263.086285 223.231792 
z
" clip-path="url(#p004ba4fc22)" style="fill: #4c72b0; fill-opacity: 0.1; stroke: #4c72b0; stroke-opacity: 0.1; stroke-width: 0.8"/>
    <path d="M 266.006722 217.11134 
L 266.006722 244.3368 
L 266.980201 244.3368 
L 267.95368 244.3368 
L 268.927159 244.3368 
L 269.900638 244.3368 
L 270.874117 244.3368 
L 271.847596 244.3368 
L 272.821076 244.3368 
L 273.794555 244.3368 
L 274.768034 244.3368 
L 275.741513 244.3368 
L 276.714992 244.3368 
L 277.688471 244.3368 
L 278.66195 244.3368 
L 279.635429 244.3368 
L 280.608908 244.3368 
L 281.582387 244.3368 
L 282.555866 244.3368 
L 283.529345 244.3368 
L 284.502824 244.3368 
L 285.476303 244.3368 
L 286.449782 244.3368 
L 287.423261 244.3368 
L 288.39674 244.3368 
L 289.370219 244.3368 
L 290.343698 244.3368 
L 291.317177 244.3368 
L 292.290657 244.3368 
L 293.264136 244.3368 
L 294.237615 244.3368 
L 295.211094 244.3368 
L 295.211094 212.679288 
L 295.211094 212.679288 
L 294.237615 212.679288 
L 293.264136 223.231792 
L 292.290657 191.574281 
L 291.317177 223.231792 
L 290.343698 223.231792 
L 289.370219 212.679288 
L 288.39674 233.784296 
L 287.423261 202.126785 
L 286.449782 202.126785 
L 285.476303 223.231792 
L 284.502824 212.679288 
L 283.529345 202.126785 
L 282.555866 212.679288 
L 281.582387 202.126785 
L 280.608908 223.231792 
L 279.635429 212.679288 
L 278.66195 202.126785 
L 277.688471 202.126785 
L 276.714992 223.231792 
L 275.741513 212.679288 
L 274.768034 212.679288 
L 273.794555 212.679288 
L 272.821076 212.679288 
L 271.847596 202.126785 
L 270.874117 212.679288 
L 269.900638 202.126785 
L 268.927159 212.679288 
L 267.95368 212.679288 
L 266.980201 212.679288 
L 266.006722 217.11134 
z
" clip-path="url(#p004ba4fc22)" style="fill: #4c72b0; fill-opacity: 0.1; stroke: #4c72b0; stroke-opacity: 0.1; stroke-width: 0.8"/>
    <path d="M 297.158052 230.618545 
L 297.158052 244.3368 
L 297.158052 230.618545 
L 297.158052 230.618545 
z
" clip-path="url(#p004ba4fc22)" style="fill: #4c72b0; fill-opacity: 0.1; stroke: #4c72b0; stroke-opacity: 0.1; stroke-width: 0.8"/>
    <path d="M 300.078489 220.277091 
L 300.078489 244.3368 
L 301.051968 244.3368 
L 302.025447 244.3368 
L 302.998926 244.3368 
L 303.972405 244.3368 
L 304.945884 244.3368 
L 305.919363 244.3368 
L 306.892842 244.3368 
L 307.866321 244.3368 
L 308.8398 244.3368 
L 309.813279 244.3368 
L 310.786758 244.3368 
L 311.760238 244.3368 
L 312.733717 244.3368 
L 313.707196 244.3368 
L 314.680675 244.3368 
L 315.654154 244.3368 
L 316.627633 244.3368 
L 317.601112 244.3368 
L 318.574591 244.3368 
L 319.54807 244.3368 
L 320.521549 244.3368 
L 321.495028 244.3368 
L 322.468507 244.3368 
L 323.441986 244.3368 
L 324.415465 244.3368 
L 325.388944 244.3368 
L 326.362423 244.3368 
L 327.335902 244.3368 
L 328.309381 244.3368 
L 329.28286 244.3368 
L 330.256339 244.3368 
L 330.256339 212.679288 
L 330.256339 212.679288 
L 329.28286 223.231792 
L 328.309381 223.231792 
L 327.335902 223.231792 
L 326.362423 233.784296 
L 325.388944 223.231792 
L 324.415465 223.231792 
L 323.441986 233.784296 
L 322.468507 223.231792 
L 321.495028 223.231792 
L 320.521549 223.231792 
L 319.54807 223.231792 
L 318.574591 223.231792 
L 317.601112 233.784296 
L 316.627633 223.231792 
L 315.654154 233.784296 
L 314.680675 212.679288 
L 313.707196 223.231792 
L 312.733717 233.784296 
L 311.760238 223.231792 
L 310.786758 223.231792 
L 309.813279 233.784296 
L 308.8398 223.231792 
L 307.866321 223.231792 
L 306.892842 223.231792 
L 305.919363 223.231792 
L 304.945884 233.784296 
L 303.972405 212.679288 
L 302.998926 223.231792 
L 302.025447 223.231792 
L 301.051968 223.231792 
L 300.078489 220.277091 
z
" clip-path="url(#p004ba4fc22)" style="fill: #4c72b0; fill-opacity: 0.1; stroke: #4c72b0; stroke-opacity: 0.1; stroke-width: 0.8"/>
    <path d="M 332.203298 212.679288 
L 332.203298 244.3368 
L 332.203298 212.679288 
L 332.203298 212.679288 
z
" clip-path="url(#p004ba4fc22)" style="fill: #4c72b0; fill-opacity: 0.1; stroke: #4c72b0; stroke-opacity: 0.1; stroke-width: 0.8"/>
    <path d="M 335.123735 217.95554 
L 335.123735 244.3368 
L 336.097214 244.3368 
L 337.070693 244.3368 
L 338.044172 244.3368 
L 339.017651 244.3368 
L 339.99113 244.3368 
L 340.964609 244.3368 
L 341.938088 244.3368 
L 342.911567 244.3368 
L 343.885046 244.3368 
L 344.858525 244.3368 
L 345.832004 244.3368 
L 346.805483 244.3368 
L 347.778962 244.3368 
L 348.752441 244.3368 
L 349.72592 244.3368 
L 350.699399 244.3368 
L 351.672879 244.3368 
L 352.646358 244.3368 
L 353.619837 244.3368 
L 354.593316 244.3368 
L 355.566795 244.3368 
L 356.540274 244.3368 
L 357.513753 244.3368 
L 358.487232 244.3368 
L 359.460711 244.3368 
L 360.43419 244.3368 
L 361.407669 244.3368 
L 362.381148 244.3368 
L 363.354627 244.3368 
L 364.328106 244.3368 
L 364.328106 212.679288 
L 364.328106 212.679288 
L 363.354627 202.126785 
L 362.381148 202.126785 
L 361.407669 212.679288 
L 360.43419 212.679288 
L 359.460711 202.126785 
L 358.487232 212.679288 
L 357.513753 212.679288 
L 356.540274 223.231792 
L 355.566795 202.126785 
L 354.593316 223.231792 
L 353.619837 212.679288 
L 352.646358 212.679288 
L 351.672879 223.231792 
L 350.699399 223.231792 
L 349.72592 212.679288 
L 348.752441 223.231792 
L 347.778962 202.126785 
L 346.805483 202.126785 
L 345.832004 202.126785 
L 344.858525 212.679288 
L 343.885046 212.679288 
L 342.911567 212.679288 
L 341.938088 223.231792 
L 340.964609 202.126785 
L 339.99113 223.231792 
L 339.017651 223.231792 
L 338.044172 212.679288 
L 337.070693 212.679288 
L 336.097214 202.126785 
L 335.123735 217.95554 
z
" clip-path="url(#p004ba4fc22)" style="fill: #4c72b0; fill-opacity: 0.1; stroke: #4c72b0; stroke-opacity: 0.1; stroke-width: 0.8"/>
    <path d="M 366.275064 212.679288 
L 366.275064 244.3368 
L 366.275064 212.679288 
L 366.275064 212.679288 
z
" clip-path="url(#p004ba4fc22)" style="fill: #4c72b0; fill-opacity: 0.1; stroke: #4c72b0; stroke-opacity: 0.1; stroke-width: 0.8"/>
    <path d="M 369.195501 217.638965 
L 369.195501 244.3368 
L 370.16898 244.3368 
L 371.14246 244.3368 
L 372.115939 244.3368 
L 373.089418 244.3368 
L 374.062897 244.3368 
L 375.036376 244.3368 
L 376.009855 244.3368 
L 376.983334 244.3368 
L 377.956813 244.3368 
L 378.930292 244.3368 
L 379.903771 244.3368 
L 380.87725 244.3368 
L 381.850729 244.3368 
L 382.824208 244.3368 
L 383.797687 244.3368 
L 384.771166 244.3368 
L 385.744645 244.3368 
L 386.718124 244.3368 
L 387.691603 244.3368 
L 388.665082 244.3368 
L 389.638561 244.3368 
L 390.61204 244.3368 
L 391.58552 244.3368 
L 392.558999 244.3368 
L 393.532478 244.3368 
L 394.505957 244.3368 
L 395.479436 244.3368 
L 395.479436 212.679288 
L 395.479436 212.679288 
L 394.505957 233.784296 
L 393.532478 223.231792 
L 392.558999 223.231792 
L 391.58552 223.231792 
L 390.61204 233.784296 
L 389.638561 223.231792 
L 388.665082 223.231792 
L 387.691603 223.231792 
L 386.718124 223.231792 
L 385.744645 223.231792 
L 384.771166 233.784296 
L 383.797687 223.231792 
L 382.824208 233.784296 
L 381.850729 223.231792 
L 380.87725 223.231792 
L 379.903771 233.784296 
L 378.930292 223.231792 
L 377.956813 223.231792 
L 376.983334 223.231792 
L 376.009855 233.784296 
L 375.036376 223.231792 
L 374.062897 223.231792 
L 373.089418 233.784296 
L 372.115939 223.231792 
L 371.14246 223.231792 
L 370.16898 233.784296 
L 369.195501 217.638965 
z
" clip-path="url(#p004ba4fc22)" style="fill: #4c72b0; fill-opacity: 0.1; stroke: #4c72b0; stroke-opacity: 0.1; stroke-width: 0.8"/>
    <path d="M 397.426394 223.231792 
L 397.426394 244.3368 
L 398.399873 244.3368 
L 399.373352 244.3368 
L 399.373352 233.784296 
L 399.373352 233.784296 
L 398.399873 212.679288 
L 397.426394 223.231792 
z
" clip-path="url(#p004ba4fc22)" style="fill: #4c72b0; fill-opacity: 0.1; stroke: #4c72b0; stroke-opacity: 0.1; stroke-width: 0.8"/>
    <path d="M 401.32031 233.784296 
L 401.32031 244.3368 
L 403.267268 244.3368 
L 403.267268 48.060229 
L 403.267268 48.060229 
L 401.32031 233.784296 
z
" clip-path="url(#p004ba4fc22)" style="fill: #4c72b0; fill-opacity: 0.1; stroke: #4c72b0; stroke-opacity: 0.1; stroke-width: 0.8"/>
    <path d="M 405.214226 223.231792 
L 405.214226 244.3368 
L 406.187705 244.3368 
L 407.161184 244.3368 
L 408.134663 244.3368 
L 409.108142 244.3368 
L 410.081621 244.3368 
L 411.055101 244.3368 
L 412.02858 244.3368 
L 413.002059 244.3368 
L 413.975538 244.3368 
L 414.949017 244.3368 
L 415.922496 244.3368 
L 416.895975 244.3368 
L 417.869454 244.3368 
L 418.842933 244.3368 
L 419.816412 244.3368 
L 420.789891 244.3368 
L 421.76337 244.3368 
L 422.736849 244.3368 
L 423.710328 244.3368 
L 424.683807 244.3368 
L 425.657286 244.3368 
L 426.630765 244.3368 
L 427.604244 244.3368 
L 428.577723 244.3368 
L 429.551202 244.3368 
L 430.524682 244.3368 
L 431.498161 244.3368 
L 432.47164 244.3368 
L 433.445119 244.3368 
L 434.418598 244.3368 
L 434.418598 202.126785 
L 434.418598 202.126785 
L 433.445119 233.784296 
L 432.47164 202.126785 
L 431.498161 202.126785 
L 430.524682 212.679288 
L 429.551202 212.679288 
L 428.577723 212.679288 
L 427.604244 202.126785 
L 426.630765 202.126785 
L 425.657286 202.126785 
L 424.683807 233.784296 
L 423.710328 202.126785 
L 422.736849 223.231792 
L 421.76337 212.679288 
L 420.789891 202.126785 
L 419.816412 212.679288 
L 418.842933 212.679288 
L 417.869454 212.679288 
L 416.895975 233.784296 
L 415.922496 223.231792 
L 414.949017 223.231792 
L 413.975538 212.679288 
L 413.002059 212.679288 
L 412.02858 212.679288 
L 411.055101 223.231792 
L 410.081621 202.126785 
L 409.108142 212.679288 
L 408.134663 223.231792 
L 407.161184 212.679288 
L 406.187705 223.231792 
L 405.214226 223.231792 
z
" clip-path="url(#p004ba4fc22)" style="fill: #4c72b0; fill-opacity: 0.1; stroke: #4c72b0; stroke-opacity: 0.1; stroke-width: 0.8"/>
    <path d="M 438.312514 232.834571 
L 438.312514 244.3368 
L 439.285993 244.3368 
L 440.259472 244.3368 
L 441.232951 244.3368 
L 442.20643 244.3368 
L 443.179909 244.3368 
L 444.153388 244.3368 
L 445.126867 244.3368 
L 446.100346 244.3368 
L 447.073825 244.3368 
L 448.047304 244.3368 
L 449.020783 244.3368 
L 449.994262 244.3368 
L 450.967742 244.3368 
L 451.941221 244.3368 
L 452.9147 244.3368 
L 453.888179 244.3368 
L 454.861658 244.3368 
L 455.835137 244.3368 
L 456.808616 244.3368 
L 457.782095 244.3368 
L 458.755574 244.3368 
L 459.729053 244.3368 
L 460.702532 244.3368 
L 461.676011 244.3368 
L 462.64949 244.3368 
L 463.622969 244.3368 
L 464.596448 244.3368 
L 465.569927 244.3368 
L 466.543406 244.3368 
L 467.516885 244.3368 
L 468.490364 244.3368 
L 468.490364 223.231792 
L 468.490364 223.231792 
L 467.516885 223.231792 
L 466.543406 233.784296 
L 465.569927 223.231792 
L 464.596448 212.679288 
L 463.622969 223.231792 
L 462.64949 233.784296 
L 461.676011 223.231792 
L 460.702532 223.231792 
L 459.729053 223.231792 
L 458.755574 223.231792 
L 457.782095 233.784296 
L 456.808616 223.231792 
L 455.835137 223.231792 
L 454.861658 233.784296 
L 453.888179 223.231792 
L 452.9147 212.679288 
L 451.941221 223.231792 
L 450.967742 223.231792 
L 449.994262 223.231792 
L 449.020783 233.784296 
L 448.047304 223.231792 
L 447.073825 223.231792 
L 446.100346 233.784296 
L 445.126867 233.784296 
L 444.153388 223.231792 
L 443.179909 223.231792 
L 442.20643 223.231792 
L 441.232951 223.231792 
L 440.259472 233.784296 
L 439.285993 223.231792 
L 438.312514 232.834571 
z
" clip-path="url(#p004ba4fc22)" style="fill: #4c72b0; fill-opacity: 0.1; stroke: #4c72b0; stroke-opacity: 0.1; stroke-width: 0.8"/>
    <path d="M 470.437323 223.231792 
L 470.437323 244.3368 
L 470.437323 223.231792 
L 470.437323 223.231792 
z
" clip-path="url(#p004ba4fc22)" style="fill: #4c72b0; fill-opacity: 0.1; stroke: #4c72b0; stroke-opacity: 0.1; stroke-width: 0.8"/>
    <path d="M 473.35776 230.829595 
L 473.35776 244.3368 
L 474.331239 244.3368 
L 475.304718 244.3368 
L 476.278197 244.3368 
L 477.251676 244.3368 
L 478.225155 244.3368 
L 479.198634 244.3368 
L 480.172113 244.3368 
L 481.145592 244.3368 
L 482.119071 244.3368 
L 483.09255 244.3368 
L 484.066029 244.3368 
L 485.039508 244.3368 
L 486.012987 244.3368 
L 486.986466 244.3368 
L 487.959945 244.3368 
L 488.933424 244.3368 
L 489.906904 244.3368 
L 490.880383 244.3368 
L 491.853862 244.3368 
L 492.827341 244.3368 
L 493.80082 244.3368 
L 494.774299 244.3368 
L 495.747778 244.3368 
L 496.721257 244.3368 
L 497.694736 244.3368 
L 498.668215 244.3368 
L 499.641694 244.3368 
L 500.615173 244.3368 
L 501.588652 244.3368 
L 502.562131 244.3368 
L 503.53561 244.3368 
L 503.53561 223.231792 
L 503.53561 223.231792 
L 502.562131 233.784296 
L 501.588652 212.679288 
L 500.615173 212.679288 
L 499.641694 202.126785 
L 498.668215 223.231792 
L 497.694736 212.679288 
L 496.721257 212.679288 
L 495.747778 202.126785 
L 494.774299 212.679288 
L 493.80082 212.679288 
L 492.827341 223.231792 
L 491.853862 202.126785 
L 490.880383 223.231792 
L 489.906904 202.126785 
L 488.933424 212.679288 
L 487.959945 223.231792 
L 486.986466 202.126785 
L 486.012987 223.231792 
L 485.039508 212.679288 
L 484.066029 212.679288 
L 483.09255 223.231792 
L 482.119071 212.679288 
L 481.145592 212.679288 
L 480.172113 212.679288 
L 479.198634 233.784296 
L 478.225155 212.679288 
L 477.251676 223.231792 
L 476.278197 223.231792 
L 475.304718 202.126785 
L 474.331239 212.679288 
L 473.35776 230.829595 
z
" clip-path="url(#p004ba4fc22)" style="fill: #4c72b0; fill-opacity: 0.1; stroke: #4c72b0; stroke-opacity: 0.1; stroke-width: 0.8"/>
    <path d="M 507.429526 232.834571 
L 507.429526 244.3368 
L 508.403005 244.3368 
L 509.376485 244.3368 
L 510.349964 244.3368 
L 511.323443 244.3368 
L 512.296922 244.3368 
L 513.270401 244.3368 
L 514.24388 244.3368 
L 515.217359 244.3368 
L 516.190838 244.3368 
L 517.164317 244.3368 
L 518.137796 244.3368 
L 519.111275 244.3368 
L 520.084754 244.3368 
L 521.058233 244.3368 
L 522.031712 244.3368 
L 523.005191 244.3368 
L 523.97867 244.3368 
L 524.952149 244.3368 
L 525.925628 244.3368 
L 526.899107 244.3368 
L 527.872586 244.3368 
L 528.846065 244.3368 
L 529.819545 244.3368 
L 530.793024 244.3368 
L 531.766503 244.3368 
L 532.739982 244.3368 
L 533.713461 244.3368 
L 534.68694 244.3368 
L 535.660419 244.3368 
L 536.633898 244.3368 
L 537.607377 244.3368 
L 537.607377 212.679288 
L 537.607377 212.679288 
L 536.633898 223.231792 
L 535.660419 233.784296 
L 534.68694 223.231792 
L 533.713461 233.784296 
L 532.739982 212.679288 
L 531.766503 223.231792 
L 530.793024 233.784296 
L 529.819545 223.231792 
L 528.846065 223.231792 
L 527.872586 233.784296 
L 526.899107 223.231792 
L 525.925628 233.784296 
L 524.952149 223.231792 
L 523.97867 223.231792 
L 523.005191 223.231792 
L 522.031712 233.784296 
L 521.058233 223.231792 
L 520.084754 223.231792 
L 519.111275 223.231792 
L 518.137796 233.784296 
L 517.164317 212.679288 
L 516.190838 233.784296 
L 515.217359 223.231792 
L 514.24388 233.784296 
L 513.270401 223.231792 
L 512.296922 233.784296 
L 511.323443 223.231792 
L 510.349964 233.784296 
L 509.376485 223.231792 
L 508.403005 223.231792 
L 507.429526 232.834571 
z
" clip-path="url(#p004ba4fc22)" style="fill: #4c72b0; fill-opacity: 0.1; stroke: #4c72b0; stroke-opacity: 0.1; stroke-width: 0.8"/>
    <path d="M 539.554335 212.679288 
L 539.554335 244.3368 
L 539.554335 212.679288 
L 539.554335 212.679288 
z
" clip-path="url(#p004ba4fc22)" style="fill: #4c72b0; fill-opacity: 0.1; stroke: #4c72b0; stroke-opacity: 0.1; stroke-width: 0.8"/>
    <path d="M 542.474772 179.016801 
L 542.474772 244.3368 
L 543.448251 244.3368 
L 544.42173 244.3368 
L 545.395209 244.3368 
L 546.368688 244.3368 
L 547.342167 244.3368 
L 548.315646 244.3368 
L 549.289126 244.3368 
L 550.262605 244.3368 
L 551.236084 244.3368 
L 552.209563 244.3368 
L 553.183042 244.3368 
L 554.156521 244.3368 
L 555.13 244.3368 
L 556.103479 244.3368 
L 557.076958 244.3368 
L 558.050437 244.3368 
L 559.023916 244.3368 
L 559.997395 244.3368 
L 560.970874 244.3368 
L 561.944353 244.3368 
L 562.917832 244.3368 
L 563.891311 244.3368 
L 564.86479 244.3368 
L 565.838269 244.3368 
L 566.811748 244.3368 
L 567.785227 244.3368 
L 568.758707 244.3368 
L 569.732186 244.3368 
L 570.705665 244.3368 
L 571.679144 244.3368 
L 571.679144 223.231792 
L 571.679144 223.231792 
L 570.705665 202.126785 
L 569.732186 202.126785 
L 568.758707 212.679288 
L 567.785227 202.126785 
L 566.811748 223.231792 
L 565.838269 212.679288 
L 564.86479 212.679288 
L 563.891311 223.231792 
L 562.917832 223.231792 
L 561.944353 202.126785 
L 560.970874 223.231792 
L 559.997395 202.126785 
L 559.023916 223.231792 
L 558.050437 223.231792 
L 557.076958 233.784296 
L 556.103479 233.784296 
L 555.13 212.679288 
L 554.156521 223.231792 
L 553.183042 223.231792 
L 552.209563 202.126785 
L 551.236084 223.231792 
L 550.262605 212.679288 
L 549.289126 212.679288 
L 548.315646 212.679288 
L 547.342167 212.679288 
L 546.368688 233.784296 
L 545.395209 202.126785 
L 544.42173 223.231792 
L 543.448251 212.679288 
L 542.474772 179.016801 
z
" clip-path="url(#p004ba4fc22)" style="fill: #4c72b0; fill-opacity: 0.1; stroke: #4c72b0; stroke-opacity: 0.1; stroke-width: 0.8"/>
    <path d="M 573.626102 229.563295 
L 573.626102 244.3368 
L 573.626102 229.563295 
L 573.626102 229.563295 
z
" clip-path="url(#p004ba4fc22)" style="fill: #4c72b0; fill-opacity: 0.1; stroke: #4c72b0; stroke-opacity: 0.1; stroke-width: 0.8"/>
    <path d="M 576.546539 219.432891 
L 576.546539 244.3368 
L 577.520018 244.3368 
L 578.493497 244.3368 
L 579.466976 244.3368 
L 580.440455 244.3368 
L 581.413934 244.3368 
L 582.387413 244.3368 
L 583.360892 244.3368 
L 584.334371 244.3368 
L 585.30785 244.3368 
L 586.281329 244.3368 
L 587.254808 244.3368 
L 587.254808 223.231792 
L 587.254808 223.231792 
L 586.281329 223.231792 
L 585.30785 212.679288 
L 584.334371 223.231792 
L 583.360892 223.231792 
L 582.387413 223.231792 
L 581.413934 212.679288 
L 580.440455 223.231792 
L 579.466976 223.231792 
L 578.493497 223.231792 
L 577.520018 223.231792 
L 576.546539 219.432891 
z
" clip-path="url(#p004ba4fc22)" style="fill: #4c72b0; fill-opacity: 0.1; stroke: #4c72b0; stroke-opacity: 0.1; stroke-width: 0.8"/>
    <path d="M 589.201767 223.231792 
L 589.201767 244.3368 
L 590.175246 244.3368 
L 591.148725 244.3368 
L 592.122204 244.3368 
L 593.095683 244.3368 
L 594.069162 244.3368 
L 595.042641 244.3368 
L 596.01612 244.3368 
L 596.989599 244.3368 
L 597.963078 244.3368 
L 598.936557 244.3368 
L 599.910036 244.3368 
L 600.883515 244.3368 
L 601.856994 244.3368 
L 602.830473 244.3368 
L 603.803952 244.3368 
L 604.777431 244.3368 
L 605.75091 244.3368 
L 606.724389 244.3368 
L 606.724389 223.231792 
L 606.724389 223.231792 
L 605.75091 223.231792 
L 604.777431 233.784296 
L 603.803952 223.231792 
L 602.830473 223.231792 
L 601.856994 212.679288 
L 600.883515 223.231792 
L 599.910036 223.231792 
L 598.936557 233.784296 
L 597.963078 223.231792 
L 596.989599 223.231792 
L 596.01612 212.679288 
L 595.042641 223.231792 
L 594.069162 223.231792 
L 593.095683 223.231792 
L 592.122204 223.231792 
L 591.148725 223.231792 
L 590.175246 233.784296 
L 589.201767 223.231792 
z
" clip-path="url(#p004ba4fc22)" style="fill: #4c72b0; fill-opacity: 0.1; stroke: #4c72b0; stroke-opacity: 0.1; stroke-width: 0.8"/>
    <path d="M 608.671348 223.231792 
L 608.671348 244.3368 
L 610.618306 244.3368 
L 611.591785 244.3368 
L 612.565264 244.3368 
L 613.538743 244.3368 
L 614.512222 244.3368 
L 615.485701 244.3368 
L 616.45918 244.3368 
L 617.432659 244.3368 
L 618.406138 244.3368 
L 619.379617 244.3368 
L 620.353096 244.3368 
L 621.326575 244.3368 
L 622.300054 244.3368 
L 623.273533 244.3368 
L 624.247012 244.3368 
L 625.220491 244.3368 
L 626.19397 244.3368 
L 627.167449 244.3368 
L 628.140929 244.3368 
L 629.114408 244.3368 
L 630.087887 244.3368 
L 631.061366 244.3368 
L 632.034845 244.3368 
L 633.008324 244.3368 
L 633.981803 244.3368 
L 634.955282 244.3368 
L 635.928761 244.3368 
L 636.90224 244.3368 
L 637.875719 244.3368 
L 638.849198 244.3368 
L 639.822677 244.3368 
L 640.796156 244.3368 
L 640.796156 202.126785 
L 640.796156 202.126785 
L 639.822677 202.126785 
L 638.849198 202.126785 
L 637.875719 202.126785 
L 636.90224 202.126785 
L 635.928761 191.574281 
L 634.955282 202.126785 
L 633.981803 202.126785 
L 633.008324 202.126785 
L 632.034845 202.126785 
L 631.061366 191.574281 
L 630.087887 191.574281 
L 629.114408 202.126785 
L 628.140929 191.574281 
L 627.167449 202.126785 
L 626.19397 212.679288 
L 625.220491 202.126785 
L 624.247012 191.574281 
L 623.273533 202.126785 
L 622.300054 191.574281 
L 621.326575 202.126785 
L 620.353096 191.574281 
L 619.379617 202.126785 
L 618.406138 191.574281 
L 617.432659 191.574281 
L 616.45918 212.679288 
L 615.485701 202.126785 
L 614.512222 191.574281 
L 613.538743 212.679288 
L 612.565264 212.679288 
L 611.591785 218.905266 
L 610.618306 48.904429 
L 608.671348 223.231792 
z
" clip-path="url(#p004ba4fc22)" style="fill: #4c72b0; fill-opacity: 0.1; stroke: #4c72b0; stroke-opacity: 0.1; stroke-width: 0.8"/>
    <path d="M 642.743114 229.24672 
L 642.743114 244.3368 
L 642.743114 229.24672 
L 642.743114 229.24672 
z
" clip-path="url(#p004ba4fc22)" style="fill: #4c72b0; fill-opacity: 0.1; stroke: #4c72b0; stroke-opacity: 0.1; stroke-width: 0.8"/>
    <path d="M 645.663551 220.066041 
L 645.663551 244.3368 
L 646.63703 244.3368 
L 647.610509 244.3368 
L 648.583989 244.3368 
L 649.557468 244.3368 
L 650.530947 244.3368 
L 651.504426 244.3368 
L 652.477905 244.3368 
L 653.451384 244.3368 
L 654.424863 244.3368 
L 655.398342 244.3368 
L 656.371821 244.3368 
L 657.3453 244.3368 
L 658.318779 244.3368 
L 659.292258 244.3368 
L 660.265737 244.3368 
L 661.239216 244.3368 
L 662.212695 244.3368 
L 663.186174 244.3368 
L 664.159653 244.3368 
L 665.133132 244.3368 
L 666.106611 244.3368 
L 667.08009 244.3368 
L 668.05357 244.3368 
L 669.027049 244.3368 
L 670.000528 244.3368 
L 670.974007 244.3368 
L 671.947486 244.3368 
L 672.920965 244.3368 
L 673.894444 244.3368 
L 674.867923 244.3368 
L 675.841402 244.3368 
L 675.841402 233.784296 
L 675.841402 233.784296 
L 674.867923 223.231792 
L 673.894444 212.679288 
L 672.920965 223.231792 
L 671.947486 223.231792 
L 670.974007 223.231792 
L 670.000528 223.231792 
L 669.027049 223.231792 
L 668.05357 212.679288 
L 667.08009 223.231792 
L 666.106611 212.679288 
L 665.133132 223.231792 
L 664.159653 223.231792 
L 663.186174 212.679288 
L 662.212695 223.231792 
L 661.239216 223.231792 
L 660.265737 223.231792 
L 659.292258 223.231792 
L 658.318779 223.231792 
L 657.3453 223.231792 
L 656.371821 212.679288 
L 655.398342 223.231792 
L 654.424863 233.784296 
L 653.451384 212.679288 
L 652.477905 223.231792 
L 651.504426 212.679288 
L 650.530947 223.231792 
L 649.557468 223.231792 
L 648.583989 223.231792 
L 647.610509 212.679288 
L 646.63703 223.231792 
L 645.663551 220.066041 
z
" clip-path="url(#p004ba4fc22)" style="fill: #4c72b0; fill-opacity: 0.1; stroke: #4c72b0; stroke-opacity: 0.1; stroke-width: 0.8"/>
    <path d="M 677.78836 233.784296 
L 677.78836 244.3368 
L 677.78836 233.784296 
L 677.78836 233.784296 
z
" clip-path="url(#p004ba4fc22)" style="fill: #4c72b0; fill-opacity: 0.1; stroke: #4c72b0; stroke-opacity: 0.1; stroke-width: 0.8"/>
    <path d="M 680.708797 231.040645 
L 680.708797 244.3368 
L 681.682276 244.3368 
L 682.655755 244.3368 
L 683.629234 244.3368 
L 684.602713 244.3368 
L 685.576192 244.3368 
L 686.549671 244.3368 
L 687.523151 244.3368 
L 688.49663 244.3368 
L 689.470109 244.3368 
L 690.443588 244.3368 
L 691.417067 244.3368 
L 692.390546 244.3368 
L 693.364025 244.3368 
L 694.337504 244.3368 
L 695.310983 244.3368 
L 696.284462 244.3368 
L 697.257941 244.3368 
L 698.23142 244.3368 
L 699.204899 244.3368 
L 700.178378 244.3368 
L 701.151857 244.3368 
L 702.125336 244.3368 
L 703.098815 244.3368 
L 704.072294 244.3368 
L 705.045773 244.3368 
L 706.019252 244.3368 
L 706.992732 244.3368 
L 707.966211 244.3368 
L 708.93969 244.3368 
L 709.913169 244.3368 
L 709.913169 212.679288 
L 709.913169 212.679288 
L 708.93969 223.231792 
L 707.966211 212.679288 
L 706.992732 212.679288 
L 706.019252 223.231792 
L 705.045773 223.231792 
L 704.072294 212.679288 
L 703.098815 223.231792 
L 702.125336 212.679288 
L 701.151857 202.126785 
L 700.178378 223.231792 
L 699.204899 212.679288 
L 698.23142 212.679288 
L 697.257941 223.231792 
L 696.284462 223.231792 
L 695.310983 223.231792 
L 694.337504 223.231792 
L 693.364025 212.679288 
L 692.390546 212.679288 
L 691.417067 212.679288 
L 690.443588 212.679288 
L 689.470109 212.679288 
L 688.49663 212.679288 
L 687.523151 202.126785 
L 686.549671 233.784296 
L 685.576192 223.231792 
L 684.602713 212.679288 
L 683.629234 202.126785 
L 682.655755 223.231792 
L 681.682276 233.784296 
L 680.708797 231.040645 
z
" clip-path="url(#p004ba4fc22)" style="fill: #4c72b0; fill-opacity: 0.1; stroke: #4c72b0; stroke-opacity: 0.1; stroke-width: 0.8"/>
    <path d="M 711.860127 212.679288 
L 711.860127 244.3368 
L 711.860127 212.679288 
L 711.860127 212.679288 
z
" clip-path="url(#p004ba4fc22)" style="fill: #4c72b0; fill-opacity: 0.1; stroke: #4c72b0; stroke-opacity: 0.1; stroke-width: 0.8"/>
    <path d="M 714.780564 217.427915 
L 714.780564 244.3368 
L 715.754043 244.3368 
L 716.727522 244.3368 
L 717.701001 244.3368 
L 718.67448 244.3368 
L 719.647959 244.3368 
L 720.621438 244.3368 
L 721.594917 244.3368 
L 722.568396 244.3368 
L 723.541875 244.3368 
L 724.515354 244.3368 
L 725.488833 244.3368 
L 726.462312 244.3368 
L 727.435792 244.3368 
L 728.409271 244.3368 
L 729.38275 244.3368 
L 730.356229 244.3368 
L 731.329708 244.3368 
L 732.303187 244.3368 
L 733.276666 244.3368 
L 734.250145 244.3368 
L 735.223624 244.3368 
L 736.197103 244.3368 
L 737.170582 244.3368 
L 738.144061 244.3368 
L 739.11754 244.3368 
L 740.091019 244.3368 
L 741.064498 244.3368 
L 742.037977 244.3368 
L 743.011456 244.3368 
L 743.984935 244.3368 
L 743.984935 212.679288 
L 743.984935 212.679288 
L 743.011456 223.231792 
L 742.037977 233.784296 
L 741.064498 233.784296 
L 740.091019 233.784296 
L 739.11754 223.231792 
L 738.144061 223.231792 
L 737.170582 223.231792 
L 736.197103 223.231792 
L 735.223624 223.231792 
L 734.250145 233.784296 
L 733.276666 223.231792 
L 732.303187 223.231792 
L 731.329708 223.231792 
L 730.356229 223.231792 
L 729.38275 233.784296 
L 728.409271 223.231792 
L 727.435792 223.231792 
L 726.462312 233.784296 
L 725.488833 223.231792 
L 724.515354 223.231792 
L 723.541875 223.231792 
L 722.568396 223.231792 
L 721.594917 233.784296 
L 720.621438 223.231792 
L 719.647959 223.231792 
L 718.67448 212.679288 
L 717.701001 233.784296 
L 716.727522 233.784296 
L 715.754043 223.231792 
L 714.780564 217.427915 
z
" clip-path="url(#p004ba4fc22)" style="fill: #4c72b0; fill-opacity: 0.1; stroke: #4c72b0; stroke-opacity: 0.1; stroke-width: 0.8"/>
    <path d="M 745.931893 212.679288 
L 745.931893 244.3368 
L 747.878852 244.3368 
L 748.852331 244.3368 
L 749.82581 244.3368 
L 750.799289 244.3368 
L 751.772768 244.3368 
L 752.746247 244.3368 
L 753.719726 244.3368 
L 754.693205 244.3368 
L 755.666684 244.3368 
L 756.640163 244.3368 
L 757.613642 244.3368 
L 758.587121 244.3368 
L 759.5606 244.3368 
L 760.534079 244.3368 
L 761.507558 244.3368 
L 762.481037 244.3368 
L 763.454516 244.3368 
L 764.427995 244.3368 
L 765.401474 244.3368 
L 766.374954 244.3368 
L 767.348433 244.3368 
L 768.321912 244.3368 
L 769.295391 244.3368 
L 770.26887 244.3368 
L 771.242349 244.3368 
L 772.215828 244.3368 
L 773.189307 244.3368 
L 774.162786 244.3368 
L 775.136265 244.3368 
L 776.109744 244.3368 
L 777.083223 244.3368 
L 778.056702 244.3368 
L 779.030181 244.3368 
L 779.030181 212.679288 
L 779.030181 212.679288 
L 778.056702 223.231792 
L 777.083223 212.679288 
L 776.109744 223.231792 
L 775.136265 202.126785 
L 774.162786 233.784296 
L 773.189307 233.784296 
L 772.215828 212.679288 
L 771.242349 223.231792 
L 770.26887 212.679288 
L 769.295391 233.784296 
L 768.321912 223.231792 
L 767.348433 212.679288 
L 766.374954 223.231792 
L 765.401474 212.679288 
L 764.427995 212.679288 
L 763.454516 202.126785 
L 762.481037 191.574281 
L 761.507558 233.784296 
L 760.534079 212.679288 
L 759.5606 212.679288 
L 758.587121 202.126785 
L 757.613642 202.126785 
L 756.640163 223.231792 
L 755.666684 223.231792 
L 754.693205 212.679288 
L 753.719726 212.679288 
L 752.746247 202.126785 
L 751.772768 212.679288 
L 750.799289 223.231792 
L 749.82581 212.679288 
L 748.852331 217.11134 
L 747.878852 48.376804 
L 745.931893 212.679288 
z
" clip-path="url(#p004ba4fc22)" style="fill: #4c72b0; fill-opacity: 0.1; stroke: #4c72b0; stroke-opacity: 0.1; stroke-width: 0.8"/>
    <path d="M 780.977139 212.679288 
L 780.977139 244.3368 
L 780.977139 212.679288 
L 780.977139 212.679288 
z
" clip-path="url(#p004ba4fc22)" style="fill: #4c72b0; fill-opacity: 0.1; stroke: #4c72b0; stroke-opacity: 0.1; stroke-width: 0.8"/>
    <path d="M 783.897576 231.251695 
L 783.897576 244.3368 
L 784.871055 244.3368 
L 785.844534 244.3368 
L 786.818014 244.3368 
L 787.791493 244.3368 
L 788.764972 244.3368 
L 789.738451 244.3368 
L 790.71193 244.3368 
L 791.685409 244.3368 
L 792.658888 244.3368 
L 793.632367 244.3368 
L 794.605846 244.3368 
L 795.579325 244.3368 
L 796.552804 244.3368 
L 797.526283 244.3368 
L 798.499762 244.3368 
L 799.473241 244.3368 
L 800.44672 244.3368 
L 801.420199 244.3368 
L 802.393678 244.3368 
L 803.367157 244.3368 
L 804.340636 244.3368 
L 805.314115 244.3368 
L 806.287595 244.3368 
L 806.287595 223.231792 
L 806.287595 223.231792 
L 805.314115 223.231792 
L 804.340636 223.231792 
L 803.367157 223.231792 
L 802.393678 223.231792 
L 801.420199 223.231792 
L 800.44672 223.231792 
L 799.473241 212.679288 
L 798.499762 223.231792 
L 797.526283 233.784296 
L 796.552804 223.231792 
L 795.579325 223.231792 
L 794.605846 233.784296 
L 793.632367 223.231792 
L 792.658888 223.231792 
L 791.685409 233.784296 
L 790.71193 223.231792 
L 789.738451 233.784296 
L 788.764972 223.231792 
L 787.791493 233.784296 
L 786.818014 223.231792 
L 785.844534 223.231792 
L 784.871055 223.231792 
L 783.897576 231.251695 
z
" clip-path="url(#p004ba4fc22)" style="fill: #4c72b0; fill-opacity: 0.1; stroke: #4c72b0; stroke-opacity: 0.1; stroke-width: 0.8"/>
    <path d="M 808.234553 223.231792 
L 808.234553 244.3368 
L 809.208032 244.3368 
L 810.181511 244.3368 
L 811.15499 244.3368 
L 811.15499 212.679288 
L 811.15499 212.679288 
L 810.181511 233.784296 
L 809.208032 233.784296 
L 808.234553 223.231792 
z
" clip-path="url(#p004ba4fc22)" style="fill: #4c72b0; fill-opacity: 0.1; stroke: #4c72b0; stroke-opacity: 0.1; stroke-width: 0.8"/>
   </g>
   <g id="line2d_17">
    <path d="M 88.833535 237.161097 
L 89.807014 233.467721 
L 90.780493 233.784296 
L 91.753972 233.784296 
L 92.727451 223.231792 
L 93.70093 233.784296 
L 99.541805 233.784296 
L 100.515284 223.231792 
L 101.488763 233.784296 
L 104.4092 233.784296 
L 105.382679 223.231792 
L 106.356158 233.784296 
M 108.303116 233.784296 
L 109.276595 223.231792 
L 110.250074 233.784296 
L 111.223553 233.784296 
L 112.197032 223.231792 
L 113.170511 233.784296 
L 114.143991 233.784296 
L 115.11747 223.231792 
L 116.090949 223.231792 
L 117.064428 233.784296 
L 118.037907 223.231792 
L 119.011386 233.784296 
L 119.984865 223.231792 
L 120.958344 233.784296 
L 121.931823 223.231792 
M 125.825739 223.231792 
L 127.772697 208.774862 
L 128.746176 233.784296 
L 129.719655 213.206914 
L 130.693134 223.231792 
L 131.666613 202.126785 
L 132.640092 212.679288 
L 133.613571 212.679288 
L 134.587051 233.784296 
L 135.56053 212.679288 
L 136.534009 223.231792 
L 137.507488 212.679288 
L 138.480967 212.679288 
L 139.454446 202.126785 
L 141.401404 223.231792 
L 143.348362 223.231792 
L 144.321841 212.679288 
L 146.268799 212.679288 
L 147.242278 233.784296 
L 149.189236 212.679288 
L 150.162715 223.231792 
L 151.136194 223.231792 
L 152.109673 212.679288 
L 153.083152 233.784296 
L 154.056632 212.679288 
L 156.977069 212.679288 
M 161.844464 230.829595 
L 162.817943 212.679288 
L 163.791422 223.231792 
L 164.764901 212.679288 
L 165.73838 223.231792 
L 166.711859 223.231792 
L 167.685338 233.784296 
L 168.658817 223.231792 
L 171.579254 223.231792 
L 172.552733 212.679288 
L 173.526213 223.231792 
L 176.44665 223.231792 
L 177.420129 233.784296 
L 178.393608 223.231792 
L 185.207961 223.231792 
L 186.18144 212.679288 
L 187.154919 223.231792 
L 192.022314 223.231792 
M 196.88971 205.503586 
L 197.863189 212.679288 
L 199.810147 212.679288 
L 200.783626 202.126785 
L 201.757105 212.679288 
L 209.544937 212.679288 
L 210.518416 223.231792 
L 212.465374 202.126785 
L 213.438854 212.679288 
L 214.412333 212.679288 
L 215.385812 223.231792 
L 216.359291 202.126785 
L 217.33277 212.679288 
L 219.279728 212.679288 
L 220.253207 223.231792 
L 221.226686 191.574281 
L 222.200165 212.679288 
L 223.173644 202.126785 
L 224.147123 223.231792 
L 225.120602 212.679288 
L 226.094081 223.231792 
M 230.961476 218.16659 
L 231.934955 223.231792 
L 234.855393 223.231792 
L 235.828872 212.679288 
L 236.802351 233.784296 
L 237.77583 223.231792 
L 239.722788 223.231792 
L 240.696267 212.679288 
L 241.669746 223.231792 
L 242.643225 223.231792 
L 243.616704 233.784296 
L 244.590183 223.231792 
L 245.563662 233.784296 
L 246.537141 212.679288 
L 247.51062 233.784296 
L 248.484099 223.231792 
L 252.378016 223.231792 
L 253.351495 233.784296 
L 254.324974 223.231792 
L 255.298453 233.784296 
L 256.271932 233.784296 
L 257.245411 223.231792 
L 258.21889 223.231792 
L 259.192369 233.784296 
L 260.165848 223.231792 
L 261.139327 223.231792 
M 266.006722 217.11134 
L 266.980201 212.679288 
L 268.927159 212.679288 
L 269.900638 202.126785 
L 270.874117 212.679288 
L 271.847596 202.126785 
L 272.821076 212.679288 
L 275.741513 212.679288 
L 276.714992 223.231792 
L 277.688471 202.126785 
L 278.66195 202.126785 
L 280.608908 223.231792 
L 281.582387 202.126785 
L 282.555866 212.679288 
L 283.529345 202.126785 
L 285.476303 223.231792 
L 286.449782 202.126785 
L 287.423261 202.126785 
L 288.39674 233.784296 
L 289.370219 212.679288 
L 290.343698 223.231792 
L 291.317177 223.231792 
L 292.290657 191.574281 
L 293.264136 223.231792 
L 294.237615 212.679288 
L 295.211094 212.679288 
M 300.078489 220.277091 
L 301.051968 223.231792 
L 302.998926 223.231792 
L 303.972405 212.679288 
L 304.945884 233.784296 
L 305.919363 223.231792 
L 308.8398 223.231792 
L 309.813279 233.784296 
L 310.786758 223.231792 
L 311.760238 223.231792 
L 312.733717 233.784296 
L 314.680675 212.679288 
L 315.654154 233.784296 
L 316.627633 223.231792 
L 317.601112 233.784296 
L 318.574591 223.231792 
L 322.468507 223.231792 
L 323.441986 233.784296 
L 324.415465 223.231792 
L 325.388944 223.231792 
L 326.362423 233.784296 
L 327.335902 223.231792 
L 329.28286 223.231792 
L 330.256339 212.679288 
M 335.123735 217.95554 
L 336.097214 202.126785 
L 337.070693 212.679288 
L 338.044172 212.679288 
L 339.017651 223.231792 
L 339.99113 223.231792 
L 340.964609 202.126785 
L 341.938088 223.231792 
L 342.911567 212.679288 
L 344.858525 212.679288 
L 345.832004 202.126785 
L 347.778962 202.126785 
L 348.752441 223.231792 
L 349.72592 212.679288 
L 350.699399 223.231792 
L 351.672879 223.231792 
L 352.646358 212.679288 
L 353.619837 212.679288 
L 354.593316 223.231792 
L 355.566795 202.126785 
L 356.540274 223.231792 
L 357.513753 212.679288 
L 358.487232 212.679288 
L 359.460711 202.126785 
L 360.43419 212.679288 
L 361.407669 212.679288 
L 362.381148 202.126785 
L 363.354627 202.126785 
L 364.328106 212.679288 
M 369.195501 217.638965 
L 370.16898 233.784296 
L 371.14246 223.231792 
L 372.115939 223.231792 
L 373.089418 233.784296 
L 374.062897 223.231792 
L 375.036376 223.231792 
L 376.009855 233.784296 
L 376.983334 223.231792 
L 378.930292 223.231792 
L 379.903771 233.784296 
L 380.87725 223.231792 
L 381.850729 223.231792 
L 382.824208 233.784296 
L 383.797687 223.231792 
L 384.771166 233.784296 
L 385.744645 223.231792 
L 389.638561 223.231792 
L 390.61204 233.784296 
L 391.58552 223.231792 
L 393.532478 223.231792 
L 394.505957 233.784296 
L 395.479436 212.679288 
M 397.426394 223.231792 
L 398.399873 212.679288 
L 399.373352 233.784296 
M 401.32031 233.784296 
L 403.267268 48.060229 
M 405.214226 223.231792 
L 406.187705 223.231792 
L 407.161184 212.679288 
L 408.134663 223.231792 
L 410.081621 202.126785 
L 411.055101 223.231792 
L 412.02858 212.679288 
L 413.975538 212.679288 
L 414.949017 223.231792 
L 415.922496 223.231792 
L 416.895975 233.784296 
L 417.869454 212.679288 
L 419.816412 212.679288 
L 420.789891 202.126785 
L 422.736849 223.231792 
L 423.710328 202.126785 
L 424.683807 233.784296 
L 425.657286 202.126785 
L 427.604244 202.126785 
L 428.577723 212.679288 
L 430.524682 212.679288 
L 431.498161 202.126785 
L 432.47164 202.126785 
L 433.445119 233.784296 
L 434.418598 202.126785 
M 438.312514 232.834571 
L 439.285993 223.231792 
L 440.259472 233.784296 
L 441.232951 223.231792 
L 444.153388 223.231792 
L 445.126867 233.784296 
L 446.100346 233.784296 
L 447.073825 223.231792 
L 448.047304 223.231792 
L 449.020783 233.784296 
L 449.994262 223.231792 
L 451.941221 223.231792 
L 452.9147 212.679288 
L 454.861658 233.784296 
L 455.835137 223.231792 
L 456.808616 223.231792 
L 457.782095 233.784296 
L 458.755574 223.231792 
L 461.676011 223.231792 
L 462.64949 233.784296 
L 464.596448 212.679288 
L 466.543406 233.784296 
L 467.516885 223.231792 
L 468.490364 223.231792 
M 473.35776 230.829595 
L 474.331239 212.679288 
L 475.304718 202.126785 
L 476.278197 223.231792 
L 477.251676 223.231792 
L 478.225155 212.679288 
L 479.198634 233.784296 
L 480.172113 212.679288 
L 482.119071 212.679288 
L 483.09255 223.231792 
L 484.066029 212.679288 
L 485.039508 212.679288 
L 486.012987 223.231792 
L 486.986466 202.126785 
L 487.959945 223.231792 
L 489.906904 202.126785 
L 490.880383 223.231792 
L 491.853862 202.126785 
L 492.827341 223.231792 
L 493.80082 212.679288 
L 494.774299 212.679288 
L 495.747778 202.126785 
L 496.721257 212.679288 
L 497.694736 212.679288 
L 498.668215 223.231792 
L 499.641694 202.126785 
L 500.615173 212.679288 
L 501.588652 212.679288 
L 502.562131 233.784296 
L 503.53561 223.231792 
M 507.429526 232.834571 
L 508.403005 223.231792 
L 509.376485 223.231792 
L 510.349964 233.784296 
L 511.323443 223.231792 
L 512.296922 233.784296 
L 513.270401 223.231792 
L 514.24388 233.784296 
L 515.217359 223.231792 
L 516.190838 233.784296 
L 517.164317 212.679288 
L 518.137796 233.784296 
L 519.111275 223.231792 
L 521.058233 223.231792 
L 522.031712 233.784296 
L 523.005191 223.231792 
L 524.952149 223.231792 
L 525.925628 233.784296 
L 526.899107 223.231792 
L 527.872586 233.784296 
L 528.846065 223.231792 
L 529.819545 223.231792 
L 530.793024 233.784296 
L 532.739982 212.679288 
L 533.713461 233.784296 
L 534.68694 223.231792 
L 535.660419 233.784296 
L 537.607377 212.679288 
M 542.474772 179.016801 
L 543.448251 212.679288 
L 544.42173 223.231792 
L 545.395209 202.126785 
L 546.368688 233.784296 
L 547.342167 212.679288 
L 550.262605 212.679288 
L 551.236084 223.231792 
L 552.209563 202.126785 
L 553.183042 223.231792 
L 554.156521 223.231792 
L 555.13 212.679288 
L 556.103479 233.784296 
L 557.076958 233.784296 
L 558.050437 223.231792 
L 559.023916 223.231792 
L 559.997395 202.126785 
L 560.970874 223.231792 
L 561.944353 202.126785 
L 562.917832 223.231792 
L 563.891311 223.231792 
L 564.86479 212.679288 
L 565.838269 212.679288 
L 566.811748 223.231792 
L 567.785227 202.126785 
L 568.758707 212.679288 
L 569.732186 202.126785 
L 570.705665 202.126785 
L 571.679144 223.231792 
M 576.546539 219.432891 
L 577.520018 223.231792 
L 580.440455 223.231792 
L 581.413934 212.679288 
L 582.387413 223.231792 
L 584.334371 223.231792 
L 585.30785 212.679288 
L 586.281329 223.231792 
L 587.254808 223.231792 
M 589.201767 223.231792 
L 590.175246 233.784296 
L 591.148725 223.231792 
L 595.042641 223.231792 
L 596.01612 212.679288 
L 596.989599 223.231792 
L 597.963078 223.231792 
L 598.936557 233.784296 
L 599.910036 223.231792 
L 600.883515 223.231792 
L 601.856994 212.679288 
L 602.830473 223.231792 
L 603.803952 223.231792 
L 604.777431 233.784296 
L 605.75091 223.231792 
L 606.724389 223.231792 
M 608.671348 223.231792 
L 610.618306 48.904429 
L 611.591785 218.905266 
L 612.565264 212.679288 
L 613.538743 212.679288 
L 614.512222 191.574281 
L 616.45918 212.679288 
L 617.432659 191.574281 
L 618.406138 191.574281 
L 619.379617 202.126785 
L 620.353096 191.574281 
L 621.326575 202.126785 
L 622.300054 191.574281 
L 623.273533 202.126785 
L 624.247012 191.574281 
L 626.19397 212.679288 
L 628.140929 191.574281 
L 629.114408 202.126785 
L 630.087887 191.574281 
L 631.061366 191.574281 
L 632.034845 202.126785 
L 634.955282 202.126785 
L 635.928761 191.574281 
L 636.90224 202.126785 
L 640.796156 202.126785 
M 645.663551 220.066041 
L 646.63703 223.231792 
L 647.610509 212.679288 
L 648.583989 223.231792 
L 650.530947 223.231792 
L 651.504426 212.679288 
L 652.477905 223.231792 
L 653.451384 212.679288 
L 654.424863 233.784296 
L 656.371821 212.679288 
L 657.3453 223.231792 
L 662.212695 223.231792 
L 663.186174 212.679288 
L 664.159653 223.231792 
L 665.133132 223.231792 
L 666.106611 212.679288 
L 667.08009 223.231792 
L 668.05357 212.679288 
L 669.027049 223.231792 
L 672.920965 223.231792 
L 673.894444 212.679288 
L 675.841402 233.784296 
M 680.708797 231.040645 
L 681.682276 233.784296 
L 682.655755 223.231792 
L 683.629234 202.126785 
L 686.549671 233.784296 
L 687.523151 202.126785 
L 688.49663 212.679288 
L 693.364025 212.679288 
L 694.337504 223.231792 
L 697.257941 223.231792 
L 698.23142 212.679288 
L 699.204899 212.679288 
L 700.178378 223.231792 
L 701.151857 202.126785 
L 703.098815 223.231792 
L 704.072294 212.679288 
L 705.045773 223.231792 
L 706.019252 223.231792 
L 706.992732 212.679288 
L 707.966211 212.679288 
L 708.93969 223.231792 
L 709.913169 212.679288 
M 714.780564 217.427915 
L 715.754043 223.231792 
L 716.727522 233.784296 
L 717.701001 233.784296 
L 718.67448 212.679288 
L 719.647959 223.231792 
L 720.621438 223.231792 
L 721.594917 233.784296 
L 722.568396 223.231792 
L 725.488833 223.231792 
L 726.462312 233.784296 
L 727.435792 223.231792 
L 728.409271 223.231792 
L 729.38275 233.784296 
L 730.356229 223.231792 
L 733.276666 223.231792 
L 734.250145 233.784296 
L 735.223624 223.231792 
L 739.11754 223.231792 
L 740.091019 233.784296 
L 742.037977 233.784296 
L 743.984935 212.679288 
M 745.931893 212.679288 
L 747.878852 48.376804 
L 748.852331 217.11134 
L 749.82581 212.679288 
L 750.799289 223.231792 
L 752.746247 202.126785 
L 753.719726 212.679288 
L 754.693205 212.679288 
L 755.666684 223.231792 
L 756.640163 223.231792 
L 757.613642 202.126785 
L 758.587121 202.126785 
L 759.5606 212.679288 
L 760.534079 212.679288 
L 761.507558 233.784296 
L 762.481037 191.574281 
L 764.427995 212.679288 
L 765.401474 212.679288 
L 766.374954 223.231792 
L 767.348433 212.679288 
L 769.295391 233.784296 
L 770.26887 212.679288 
L 771.242349 223.231792 
L 772.215828 212.679288 
L 773.189307 233.784296 
L 774.162786 233.784296 
L 775.136265 202.126785 
L 776.109744 223.231792 
L 777.083223 212.679288 
L 778.056702 223.231792 
L 779.030181 212.679288 
M 783.897576 231.251695 
L 784.871055 223.231792 
L 786.818014 223.231792 
L 787.791493 233.784296 
L 788.764972 223.231792 
L 789.738451 233.784296 
L 790.71193 223.231792 
L 791.685409 233.784296 
L 792.658888 223.231792 
L 793.632367 223.231792 
L 794.605846 233.784296 
L 795.579325 223.231792 
L 796.552804 223.231792 
L 797.526283 233.784296 
L 799.473241 212.679288 
L 800.44672 223.231792 
L 806.287595 223.231792 
M 808.234553 223.231792 
L 809.208032 233.784296 
L 810.181511 233.784296 
L 811.15499 212.679288 
L 811.15499 212.679288 
" clip-path="url(#p004ba4fc22)" style="fill: none; stroke: #4c72b0; stroke-width: 1.2; stroke-linecap: round"/>
   </g>
   <g id="line2d_18">
    <path d="M 122.073951 244.3368 
L 122.073951 38.2464 
" clip-path="url(#p004ba4fc22)" style="fill: none; stroke-dasharray: 2.96,1.28; stroke-dashoffset: 0; stroke: #d32f2f; stroke-opacity: 0.5; stroke-width: 0.8"/>
   </g>
   <g id="line2d_19">
    <path d="M 156.676264 244.3368 
L 156.676264 38.2464 
" clip-path="url(#p004ba4fc22)" style="fill: none; stroke-dasharray: 2.96,1.28; stroke-dashoffset: 0; stroke: #d32f2f; stroke-opacity: 0.5; stroke-width: 0.8"/>
   </g>
   <g id="line2d_20">
    <path d="M 191.549204 244.3368 
L 191.549204 38.2464 
" clip-path="url(#p004ba4fc22)" style="fill: none; stroke-dasharray: 2.96,1.28; stroke-dashoffset: 0; stroke: #d32f2f; stroke-opacity: 0.5; stroke-width: 0.8"/>
   </g>
   <g id="line2d_21">
    <path d="M 225.979211 244.3368 
L 225.979211 38.2464 
" clip-path="url(#p004ba4fc22)" style="fill: none; stroke-dasharray: 2.96,1.28; stroke-dashoffset: 0; stroke: #d32f2f; stroke-opacity: 0.5; stroke-width: 0.8"/>
   </g>
   <g id="line2d_22">
    <path d="M 260.680818 244.3368 
L 260.680818 38.2464 
" clip-path="url(#p004ba4fc22)" style="fill: none; stroke-dasharray: 2.96,1.28; stroke-dashoffset: 0; stroke: #d32f2f; stroke-opacity: 0.5; stroke-width: 0.8"/>
   </g>
   <g id="line2d_23">
    <path d="M 295.127374 244.3368 
L 295.127374 38.2464 
" clip-path="url(#p004ba4fc22)" style="fill: none; stroke-dasharray: 2.96,1.28; stroke-dashoffset: 0; stroke: #d32f2f; stroke-opacity: 0.5; stroke-width: 0.8"/>
   </g>
   <g id="line2d_24">
    <path d="M 329.639154 244.3368 
L 329.639154 38.2464 
" clip-path="url(#p004ba4fc22)" style="fill: none; stroke-dasharray: 2.96,1.28; stroke-dashoffset: 0; stroke: #d32f2f; stroke-opacity: 0.5; stroke-width: 0.8"/>
   </g>
   <g id="line2d_25">
    <path d="M 364.213236 244.3368 
L 364.213236 38.2464 
" clip-path="url(#p004ba4fc22)" style="fill: none; stroke-dasharray: 2.96,1.28; stroke-dashoffset: 0; stroke: #d32f2f; stroke-opacity: 0.5; stroke-width: 0.8"/>
   </g>
   <g id="line2d_26">
    <path d="M 398.759087 244.3368 
L 398.759087 38.2464 
" clip-path="url(#p004ba4fc22)" style="fill: none; stroke-dasharray: 2.96,1.28; stroke-dashoffset: 0; stroke: #d32f2f; stroke-opacity: 0.5; stroke-width: 0.8"/>
   </g>
   <g id="line2d_27">
    <path d="M 433.596008 244.3368 
L 433.596008 38.2464 
" clip-path="url(#p004ba4fc22)" style="fill: none; stroke-dasharray: 2.96,1.28; stroke-dashoffset: 0; stroke: #d32f2f; stroke-opacity: 0.5; stroke-width: 0.8"/>
   </g>
   <g id="line2d_28">
    <path d="M 468.212923 244.3368 
L 468.212923 38.2464 
" clip-path="url(#p004ba4fc22)" style="fill: none; stroke-dasharray: 2.96,1.28; stroke-dashoffset: 0; stroke: #d32f2f; stroke-opacity: 0.5; stroke-width: 0.8"/>
   </g>
   <g id="line2d_29">
    <path d="M 502.718861 244.3368 
L 502.718861 38.2464 
" clip-path="url(#p004ba4fc22)" style="fill: none; stroke-dasharray: 2.96,1.28; stroke-dashoffset: 0; stroke: #d32f2f; stroke-opacity: 0.5; stroke-width: 0.8"/>
   </g>
   <g id="line2d_30">
    <path d="M 537.18002 244.3368 
L 537.18002 38.2464 
" clip-path="url(#p004ba4fc22)" style="fill: none; stroke-dasharray: 2.96,1.28; stroke-dashoffset: 0; stroke: #d32f2f; stroke-opacity: 0.5; stroke-width: 0.8"/>
   </g>
   <g id="line2d_31">
    <path d="M 571.569141 244.3368 
L 571.569141 38.2464 
" clip-path="url(#p004ba4fc22)" style="fill: none; stroke-dasharray: 2.96,1.28; stroke-dashoffset: 0; stroke: #d32f2f; stroke-opacity: 0.5; stroke-width: 0.8"/>
   </g>
   <g id="line2d_32">
    <path d="M 606.167559 244.3368 
L 606.167559 38.2464 
" clip-path="url(#p004ba4fc22)" style="fill: none; stroke-dasharray: 2.96,1.28; stroke-dashoffset: 0; stroke: #d32f2f; stroke-opacity: 0.5; stroke-width: 0.8"/>
   </g>
   <g id="line2d_33">
    <path d="M 640.765978 244.3368 
L 640.765978 38.2464 
" clip-path="url(#p004ba4fc22)" style="fill: none; stroke-dasharray: 2.96,1.28; stroke-dashoffset: 0; stroke: #d32f2f; stroke-opacity: 0.5; stroke-width: 0.8"/>
   </g>
   <g id="line2d_34">
    <path d="M 675.321564 244.3368 
L 675.321564 38.2464 
" clip-path="url(#p004ba4fc22)" style="fill: none; stroke-dasharray: 2.96,1.28; stroke-dashoffset: 0; stroke: #d32f2f; stroke-opacity: 0.5; stroke-width: 0.8"/>
   </g>
   <g id="line2d_35">
    <path d="M 709.607496 244.3368 
L 709.607496 38.2464 
" clip-path="url(#p004ba4fc22)" style="fill: none; stroke-dasharray: 2.96,1.28; stroke-dashoffset: 0; stroke: #d32f2f; stroke-opacity: 0.5; stroke-width: 0.8"/>
   </g>
   <g id="line2d_36">
    <path d="M 744.042371 244.3368 
L 744.042371 38.2464 
" clip-path="url(#p004ba4fc22)" style="fill: none; stroke-dasharray: 2.96,1.28; stroke-dashoffset: 0; stroke: #d32f2f; stroke-opacity: 0.5; stroke-width: 0.8"/>
   </g>
   <g id="line2d_37">
    <path d="M 778.405208 244.3368 
L 778.405208 38.2464 
" clip-path="url(#p004ba4fc22)" style="fill: none; stroke-dasharray: 2.96,1.28; stroke-dashoffset: 0; stroke: #d32f2f; stroke-opacity: 0.5; stroke-width: 0.8"/>
   </g>
   <g id="patch_3">
    <path d="M 52.717462 244.3368 
L 52.717462 38.2464 
" style="fill: none; stroke: #cccccc; stroke-linejoin: miter; stroke-linecap: square"/>
   </g>
   <g id="patch_4">
    <path d="M 847.271062 244.3368 
L 847.271062 38.2464 
" style="fill: none; stroke: #cccccc; stroke-linejoin: miter; stroke-linecap: square"/>
   </g>
   <g id="patch_5">
    <path d="M 52.717462 244.3368 
L 847.271062 244.3368 
" style="fill: none; stroke: #cccccc; stroke-linejoin: miter; stroke-linecap: square"/>
   </g>
   <g id="patch_6">
    <path d="M 52.717462 38.2464 
L 847.271062 38.2464 
" style="fill: none; stroke: #cccccc; stroke-linejoin: miter; stroke-linecap: square"/>
   </g>
   <g id="legend_1">
    <g id="patch_7">
     <path d="M 58.317462 68.1314 
L 156.542463 68.1314 
Q 158.142463 68.1314 158.142463 66.5314 
L 158.142463 43.8464 
Q 158.142463 42.2464 156.542463 42.2464 
L 58.317462 42.2464 
Q 56.717462 42.2464 56.717462 43.8464 
L 56.717462 66.5314 
Q 56.717462 68.1314 58.317462 68.1314 
z
" style="fill: #ffffff; opacity: 0.9; stroke: #cccccc; stroke-width: 0.8; stroke-linejoin: miter"/>
    </g>
    <g id="line2d_38">
     <path d="M 59.917462 48.72515 
L 67.917462 48.72515 
L 75.917462 48.72515 
" style="fill: none; stroke: #4c72b0; stroke-width: 1.2; stroke-linecap: round"/>
    </g>
    <g id="text_19">
     <!-- server -->
     <g style="fill: #262626" transform="translate(82.317463 51.52515) scale(0.08 -0.08)">
      <defs>
       <path id="DejaVuSans-72" d="M 2631 2963 
Q 2534 3019 2420 3045 
Q 2306 3072 2169 3072 
Q 1681 3072 1420 2755 
Q 1159 2438 1159 1844 
L 1159 0 
L 581 0 
L 581 3500 
L 1159 3500 
L 1159 2956 
Q 1341 3275 1631 3429 
Q 1922 3584 2338 3584 
Q 2397 3584 2469 3576 
Q 2541 3569 2628 3553 
L 2631 2963 
z
" transform="scale(0.015625)"/>
       <path id="DejaVuSans-76" d="M 191 3500 
L 800 3500 
L 1894 563 
L 2988 3500 
L 3597 3500 
L 2284 0 
L 1503 0 
L 191 3500 
z
" transform="scale(0.015625)"/>
      </defs>
      <use xlink:href="#DejaVuSans-73"/>
      <use xlink:href="#DejaVuSans-65" transform="translate(52.099609 0)"/>
      <use xlink:href="#DejaVuSans-72" transform="translate(113.623047 0)"/>
      <use xlink:href="#DejaVuSans-76" transform="translate(154.736328 0)"/>
      <use xlink:href="#DejaVuSans-65" transform="translate(213.916016 0)"/>
      <use xlink:href="#DejaVuSans-72" transform="translate(275.439453 0)"/>
     </g>
    </g>
    <g id="line2d_39">
     <path d="M 59.917462 60.46765 
L 67.917462 60.46765 
L 75.917462 60.46765 
" style="fill: none; stroke-dasharray: 2.96,1.28; stroke-dashoffset: 0; stroke: #d32f2f; stroke-opacity: 0.5; stroke-width: 0.8"/>
    </g>
    <g id="text_20">
     <!-- Migrations (n=20) -->
     <g style="fill: #262626" transform="translate(82.317463 63.26765) scale(0.08 -0.08)">
      <defs>
       <path id="DejaVuSans-4d" d="M 628 4666 
L 1569 4666 
L 2759 1491 
L 3956 4666 
L 4897 4666 
L 4897 0 
L 4281 0 
L 4281 4097 
L 3078 897 
L 2444 897 
L 1241 4097 
L 1241 0 
L 628 0 
L 628 4666 
z
" transform="scale(0.015625)"/>
       <path id="DejaVuSans-67" d="M 2906 1791 
Q 2906 2416 2648 2759 
Q 2391 3103 1925 3103 
Q 1463 3103 1205 2759 
Q 947 2416 947 1791 
Q 947 1169 1205 825 
Q 1463 481 1925 481 
Q 2391 481 2648 825 
Q 2906 1169 2906 1791 
z
M 3481 434 
Q 3481 -459 3084 -895 
Q 2688 -1331 1869 -1331 
Q 1566 -1331 1297 -1286 
Q 1028 -1241 775 -1147 
L 775 -588 
Q 1028 -725 1275 -790 
Q 1522 -856 1778 -856 
Q 2344 -856 2625 -561 
Q 2906 -266 2906 331 
L 2906 616 
Q 2728 306 2450 153 
Q 2172 0 1784 0 
Q 1141 0 747 490 
Q 353 981 353 1791 
Q 353 2603 747 3093 
Q 1141 3584 1784 3584 
Q 2172 3584 2450 3431 
Q 2728 3278 2906 2969 
L 2906 3500 
L 3481 3500 
L 3481 434 
z
" transform="scale(0.015625)"/>
       <path id="DejaVuSans-61" d="M 2194 1759 
Q 1497 1759 1228 1600 
Q 959 1441 959 1056 
Q 959 750 1161 570 
Q 1363 391 1709 391 
Q 2188 391 2477 730 
Q 2766 1069 2766 1631 
L 2766 1759 
L 2194 1759 
z
M 3341 1997 
L 3341 0 
L 2766 0 
L 2766 531 
Q 2569 213 2275 61 
Q 1981 -91 1556 -91 
Q 1019 -91 701 211 
Q 384 513 384 1019 
Q 384 1609 779 1909 
Q 1175 2209 1959 2209 
L 2766 2209 
L 2766 2266 
Q 2766 2663 2505 2880 
Q 2244 3097 1772 3097 
Q 1472 3097 1187 3025 
Q 903 2953 641 2809 
L 641 3341 
Q 956 3463 1253 3523 
Q 1550 3584 1831 3584 
Q 2591 3584 2966 3190 
Q 3341 2797 3341 1997 
z
" transform="scale(0.015625)"/>
       <path id="DejaVuSans-74" d="M 1172 4494 
L 1172 3500 
L 2356 3500 
L 2356 3053 
L 1172 3053 
L 1172 1153 
Q 1172 725 1289 603 
Q 1406 481 1766 481 
L 2356 481 
L 2356 0 
L 1766 0 
Q 1100 0 847 248 
Q 594 497 594 1153 
L 594 3053 
L 172 3053 
L 172 3500 
L 594 3500 
L 594 4494 
L 1172 4494 
z
" transform="scale(0.015625)"/>
       <path id="DejaVuSans-6f" d="M 1959 3097 
Q 1497 3097 1228 2736 
Q 959 2375 959 1747 
Q 959 1119 1226 758 
Q 1494 397 1959 397 
Q 2419 397 2687 759 
Q 2956 1122 2956 1747 
Q 2956 2369 2687 2733 
Q 2419 3097 1959 3097 
z
M 1959 3584 
Q 2709 3584 3137 3096 
Q 3566 2609 3566 1747 
Q 3566 888 3137 398 
Q 2709 -91 1959 -91 
Q 1206 -91 779 398 
Q 353 888 353 1747 
Q 353 2609 779 3096 
Q 1206 3584 1959 3584 
z
" transform="scale(0.015625)"/>
       <path id="DejaVuSans-6e" d="M 3513 2113 
L 3513 0 
L 2938 0 
L 2938 2094 
Q 2938 2591 2744 2837 
Q 2550 3084 2163 3084 
Q 1697 3084 1428 2787 
Q 1159 2491 1159 1978 
L 1159 0 
L 581 0 
L 581 3500 
L 1159 3500 
L 1159 2956 
Q 1366 3272 1645 3428 
Q 1925 3584 2291 3584 
Q 2894 3584 3203 3211 
Q 3513 2838 3513 2113 
z
" transform="scale(0.015625)"/>
       <path id="DejaVuSans-3d" d="M 678 2906 
L 4684 2906 
L 4684 2381 
L 678 2381 
L 678 2906 
z
M 678 1631 
L 4684 1631 
L 4684 1100 
L 678 1100 
L 678 1631 
z
" transform="scale(0.015625)"/>
      </defs>
      <use xlink:href="#DejaVuSans-4d"/>
      <use xlink:href="#DejaVuSans-69" transform="translate(86.279297 0)"/>
      <use xlink:href="#DejaVuSans-67" transform="translate(114.0625 0)"/>
      <use xlink:href="#DejaVuSans-72" transform="translate(177.539062 0)"/>
      <use xlink:href="#DejaVuSans-61" transform="translate(218.652344 0)"/>
      <use xlink:href="#DejaVuSans-74" transform="translate(279.931641 0)"/>
      <use xlink:href="#DejaVuSans-69" transform="translate(319.140625 0)"/>
      <use xlink:href="#DejaVuSans-6f" transform="translate(346.923828 0)"/>
      <use xlink:href="#DejaVuSans-6e" transform="translate(408.105469 0)"/>
      <use xlink:href="#DejaVuSans-73" transform="translate(471.484375 0)"/>
      <use xlink:href="#DejaVuSans-20" transform="translate(523.583984 0)"/>
      <use xlink:href="#DejaVuSans-28" transform="translate(555.371094 0)"/>
      <use xlink:href="#DejaVuSans-6e" transform="translate(594.384766 0)"/>
      <use xlink:href="#DejaVuSans-3d" transform="translate(657.763672 0)"/>
      <use xlink:href="#DejaVuSans-32" transform="translate(741.552734 0)"/>
      <use xlink:href="#DejaVuSans-30" transform="translate(805.175781 0)"/>
      <use xlink:href="#DejaVuSans-29" transform="translate(868.798828 0)"/>
     </g>
    </g>
   </g>
  </g>
  <g id="text_21">
   <!-- Container CPU Utilisation -->
   <g style="fill: #262626" transform="translate(332.504182 17.26641) scale(0.13248 -0.13248)">
    <defs>
     <path id="DejaVuSans-Bold-43" d="M 4288 256 
Q 3956 84 3597 -3 
Q 3238 -91 2847 -91 
Q 1681 -91 1000 561 
Q 319 1213 319 2328 
Q 319 3447 1000 4098 
Q 1681 4750 2847 4750 
Q 3238 4750 3597 4662 
Q 3956 4575 4288 4403 
L 4288 3438 
Q 3953 3666 3628 3772 
Q 3303 3878 2944 3878 
Q 2300 3878 1931 3465 
Q 1563 3053 1563 2328 
Q 1563 1606 1931 1193 
Q 2300 781 2944 781 
Q 3303 781 3628 887 
Q 3953 994 4288 1222 
L 4288 256 
z
" transform="scale(0.015625)"/>
     <path id="DejaVuSans-Bold-6f" d="M 2203 2784 
Q 1831 2784 1636 2517 
Q 1441 2250 1441 1747 
Q 1441 1244 1636 976 
Q 1831 709 2203 709 
Q 2569 709 2762 976 
Q 2956 1244 2956 1747 
Q 2956 2250 2762 2517 
Q 2569 2784 2203 2784 
z
M 2203 3584 
Q 3106 3584 3614 3096 
Q 4122 2609 4122 1747 
Q 4122 884 3614 396 
Q 3106 -91 2203 -91 
Q 1297 -91 786 396 
Q 275 884 275 1747 
Q 275 2609 786 3096 
Q 1297 3584 2203 3584 
z
" transform="scale(0.015625)"/>
     <path id="DejaVuSans-Bold-6e" d="M 4056 2131 
L 4056 0 
L 2931 0 
L 2931 347 
L 2931 1631 
Q 2931 2084 2911 2256 
Q 2891 2428 2841 2509 
Q 2775 2619 2662 2680 
Q 2550 2741 2406 2741 
Q 2056 2741 1856 2470 
Q 1656 2200 1656 1722 
L 1656 0 
L 538 0 
L 538 3500 
L 1656 3500 
L 1656 2988 
Q 1909 3294 2193 3439 
Q 2478 3584 2822 3584 
Q 3428 3584 3742 3212 
Q 4056 2841 4056 2131 
z
" transform="scale(0.015625)"/>
     <path id="DejaVuSans-Bold-74" d="M 1759 4494 
L 1759 3500 
L 2913 3500 
L 2913 2700 
L 1759 2700 
L 1759 1216 
Q 1759 972 1856 886 
Q 1953 800 2241 800 
L 2816 800 
L 2816 0 
L 1856 0 
Q 1194 0 917 276 
Q 641 553 641 1216 
L 641 2700 
L 84 2700 
L 84 3500 
L 641 3500 
L 641 4494 
L 1759 4494 
z
" transform="scale(0.015625)"/>
     <path id="DejaVuSans-Bold-61" d="M 2106 1575 
Q 1756 1575 1579 1456 
Q 1403 1338 1403 1106 
Q 1403 894 1545 773 
Q 1688 653 1941 653 
Q 2256 653 2472 879 
Q 2688 1106 2688 1447 
L 2688 1575 
L 2106 1575 
z
M 3816 1997 
L 3816 0 
L 2688 0 
L 2688 519 
Q 2463 200 2181 54 
Q 1900 -91 1497 -91 
Q 953 -91 614 226 
Q 275 544 275 1050 
Q 275 1666 698 1953 
Q 1122 2241 2028 2241 
L 2688 2241 
L 2688 2328 
Q 2688 2594 2478 2717 
Q 2269 2841 1825 2841 
Q 1466 2841 1156 2769 
Q 847 2697 581 2553 
L 581 3406 
Q 941 3494 1303 3539 
Q 1666 3584 2028 3584 
Q 2975 3584 3395 3211 
Q 3816 2838 3816 1997 
z
" transform="scale(0.015625)"/>
     <path id="DejaVuSans-Bold-69" d="M 538 3500 
L 1656 3500 
L 1656 0 
L 538 0 
L 538 3500 
z
M 538 4863 
L 1656 4863 
L 1656 3950 
L 538 3950 
L 538 4863 
z
" transform="scale(0.015625)"/>
     <path id="DejaVuSans-Bold-65" d="M 4031 1759 
L 4031 1441 
L 1416 1441 
Q 1456 1047 1700 850 
Q 1944 653 2381 653 
Q 2734 653 3104 758 
Q 3475 863 3866 1075 
L 3866 213 
Q 3469 63 3072 -14 
Q 2675 -91 2278 -91 
Q 1328 -91 801 392 
Q 275 875 275 1747 
Q 275 2603 792 3093 
Q 1309 3584 2216 3584 
Q 3041 3584 3536 3087 
Q 4031 2591 4031 1759 
z
M 2881 2131 
Q 2881 2450 2695 2645 
Q 2509 2841 2209 2841 
Q 1884 2841 1681 2658 
Q 1478 2475 1428 2131 
L 2881 2131 
z
" transform="scale(0.015625)"/>
     <path id="DejaVuSans-Bold-72" d="M 3138 2547 
Q 2991 2616 2845 2648 
Q 2700 2681 2553 2681 
Q 2122 2681 1889 2404 
Q 1656 2128 1656 1613 
L 1656 0 
L 538 0 
L 538 3500 
L 1656 3500 
L 1656 2925 
Q 1872 3269 2151 3426 
Q 2431 3584 2822 3584 
Q 2878 3584 2943 3579 
Q 3009 3575 3134 3559 
L 3138 2547 
z
" transform="scale(0.015625)"/>
     <path id="DejaVuSans-Bold-20" transform="scale(0.015625)"/>
     <path id="DejaVuSans-Bold-50" d="M 588 4666 
L 2584 4666 
Q 3475 4666 3951 4270 
Q 4428 3875 4428 3144 
Q 4428 2409 3951 2014 
Q 3475 1619 2584 1619 
L 1791 1619 
L 1791 0 
L 588 0 
L 588 4666 
z
M 1791 3794 
L 1791 2491 
L 2456 2491 
Q 2806 2491 2997 2661 
Q 3188 2831 3188 3144 
Q 3188 3456 2997 3625 
Q 2806 3794 2456 3794 
L 1791 3794 
z
" transform="scale(0.015625)"/>
     <path id="DejaVuSans-Bold-55" d="M 588 4666 
L 1791 4666 
L 1791 1869 
Q 1791 1291 1980 1042 
Q 2169 794 2597 794 
Q 3028 794 3217 1042 
Q 3406 1291 3406 1869 
L 3406 4666 
L 4609 4666 
L 4609 1869 
Q 4609 878 4112 393 
Q 3616 -91 2597 -91 
Q 1581 -91 1084 393 
Q 588 878 588 1869 
L 588 4666 
z
" transform="scale(0.015625)"/>
     <path id="DejaVuSans-Bold-6c" d="M 538 4863 
L 1656 4863 
L 1656 0 
L 538 0 
L 538 4863 
z
" transform="scale(0.015625)"/>
     <path id="DejaVuSans-Bold-73" d="M 3272 3391 
L 3272 2541 
Q 2913 2691 2578 2766 
Q 2244 2841 1947 2841 
Q 1628 2841 1473 2761 
Q 1319 2681 1319 2516 
Q 1319 2381 1436 2309 
Q 1553 2238 1856 2203 
L 2053 2175 
Q 2913 2066 3209 1816 
Q 3506 1566 3506 1031 
Q 3506 472 3093 190 
Q 2681 -91 1863 -91 
Q 1516 -91 1145 -36 
Q 775 19 384 128 
L 384 978 
Q 719 816 1070 734 
Q 1422 653 1784 653 
Q 2113 653 2278 743 
Q 2444 834 2444 1013 
Q 2444 1163 2330 1236 
Q 2216 1309 1875 1350 
L 1678 1375 
Q 931 1469 631 1722 
Q 331 1975 331 2491 
Q 331 3047 712 3315 
Q 1094 3584 1881 3584 
Q 2191 3584 2531 3537 
Q 2872 3491 3272 3391 
z
" transform="scale(0.015625)"/>
    </defs>
    <use xlink:href="#DejaVuSans-Bold-43"/>
    <use xlink:href="#DejaVuSans-Bold-6f" transform="translate(73.388672 0)"/>
    <use xlink:href="#DejaVuSans-Bold-6e" transform="translate(142.089844 0)"/>
    <use xlink:href="#DejaVuSans-Bold-74" transform="translate(213.28125 0)"/>
    <use xlink:href="#DejaVuSans-Bold-61" transform="translate(261.083984 0)"/>
    <use xlink:href="#DejaVuSans-Bold-69" transform="translate(328.564453 0)"/>
    <use xlink:href="#DejaVuSans-Bold-6e" transform="translate(362.841797 0)"/>
    <use xlink:href="#DejaVuSans-Bold-65" transform="translate(434.033203 0)"/>
    <use xlink:href="#DejaVuSans-Bold-72" transform="translate(501.855469 0)"/>
    <use xlink:href="#DejaVuSans-Bold-20" transform="translate(551.171875 0)"/>
    <use xlink:href="#DejaVuSans-Bold-43" transform="translate(585.986328 0)"/>
    <use xlink:href="#DejaVuSans-Bold-50" transform="translate(659.375 0)"/>
    <use xlink:href="#DejaVuSans-Bold-55" transform="translate(732.666016 0)"/>
    <use xlink:href="#DejaVuSans-Bold-20" transform="translate(813.867188 0)"/>
    <use xlink:href="#DejaVuSans-Bold-55" transform="translate(848.681641 0)"/>
    <use xlink:href="#DejaVuSans-Bold-74" transform="translate(929.882812 0)"/>
    <use xlink:href="#DejaVuSans-Bold-69" transform="translate(977.685547 0)"/>
    <use xlink:href="#DejaVuSans-Bold-6c" transform="translate(1011.962891 0)"/>
    <use xlink:href="#DejaVuSans-Bold-69" transform="translate(1046.240234 0)"/>
    <use xlink:href="#DejaVuSans-Bold-73" transform="translate(1080.517578 0)"/>
    <use xlink:href="#DejaVuSans-Bold-61" transform="translate(1140.039062 0)"/>
    <use xlink:href="#DejaVuSans-Bold-74" transform="translate(1207.519531 0)"/>
    <use xlink:href="#DejaVuSans-Bold-69" transform="translate(1255.322266 0)"/>
    <use xlink:href="#DejaVuSans-Bold-6f" transform="translate(1289.599609 0)"/>
    <use xlink:href="#DejaVuSans-Bold-6e" transform="translate(1358.300781 0)"/>
   </g>
  </g>
 </g>
 <defs>
  <clipPath id="p004ba4fc22">
   <rect x="52.717462" y="38.2464" width="794.5536" height="206.0904"/>
  </clipPath>
 </defs>
</svg>
