<?xml version="1.0" encoding="utf-8" standalone="no"?>
<!DOCTYPE svg PUBLIC "-//W3C//DTD SVG 1.1//EN"
  "http://www.w3.org/Graphics/SVG/1.1/DTD/svg11.dtd">
<svg xmlns:xlink="http://www.w3.org/1999/xlink" width="710.81365pt" height="354.875712pt" viewBox="0 0 710.81365 354.875712" xmlns="http://www.w3.org/2000/svg" version="1.1">
 <metadata>
  <rdf:RDF xmlns:dc="http://purl.org/dc/elements/1.1/" xmlns:cc="http://creativecommons.org/ns#" xmlns:rdf="http://www.w3.org/1999/02/22-rdf-syntax-ns#">
   <cc:Work>
    <dc:type rdf:resource="http://purl.org/dc/dcmitype/StillImage"/>
    <dc:date>2026-02-22T20:27:22.209096</dc:date>
    <dc:format>image/svg+xml</dc:format>
    <dc:creator>
     <cc:Agent>
      <dc:title>Matplotlib v3.10.8, https://matplotlib.org/</dc:title>
     </cc:Agent>
    </dc:creator>
   </cc:Work>
  </rdf:RDF>
 </metadata>
 <defs>
  <style type="text/css">*{stroke-linejoin: round; stroke-linecap: butt}</style>
 </defs>
 <g id="figure_1">
  <g id="patch_1">
   <path d="M 0 354.875712 
L 710.81365 354.875712 
L 710.81365 0 
L 0 0 
z
" style="fill: #ffffff"/>
  </g>
  <g id="axes_1">
   <g id="patch_2">
    <path d="M 49.5012 314.8968 
L 697.1748 314.8968 
L 697.1748 36.8064 
L 49.5012 36.8064 
z
" style="fill: #ffffff"/>
   </g>
   <g id="matplotlib.axis_1">
    <g id="xtick_1">
     <g id="line2d_1">
      <path d="M 49.5012 314.8968 
L 49.5012 36.8064 
" clip-path="url(#p537e9429e1)" style="fill: none; stroke: #cccccc; stroke-width: 0.8; stroke-linecap: round"/>
     </g>
     <g id="text_1">
      <!-- −5 -->
      <g style="fill: #262626" transform="translate(42.041653 330.886419) scale(0.1012 -0.1012)">
       <defs>
        <path id="DejaVuSans-2212" d="M 678 2272 
L 4684 2272 
L 4684 1741 
L 678 1741 
L 678 2272 
z
" transform="scale(0.015625)"/>
        <path id="DejaVuSans-35" d="M 691 4666 
L 3169 4666 
L 3169 4134 
L 1269 4134 
L 1269 2991 
Q 1406 3038 1543 3061 
Q 1681 3084 1819 3084 
Q 2600 3084 3056 2656 
Q 3513 2228 3513 1497 
Q 3513 744 3044 326 
Q 2575 -91 1722 -91 
Q 1428 -91 1123 -41 
Q 819 9 494 109 
L 494 744 
Q 775 591 1075 516 
Q 1375 441 1709 441 
Q 2250 441 2565 725 
Q 2881 1009 2881 1497 
Q 2881 1984 2565 2268 
Q 2250 2553 1709 2553 
Q 1456 2553 1204 2497 
Q 953 2441 691 2322 
L 691 4666 
z
" transform="scale(0.015625)"/>
       </defs>
       <use xlink:href="#DejaVuSans-2212"/>
       <use xlink:href="#DejaVuSans-35" transform="translate(83.789062 0)"/>
      </g>
     </g>
    </g>
    <g id="xtick_2">
     <g id="line2d_2">
      <path d="M 157.4468 314.8968 
L 157.4468 36.8064 
" clip-path="url(#p537e9429e1)" style="fill: none; stroke: #cccccc; stroke-width: 0.8; stroke-linecap: round"/>
     </g>
     <g id="text_2">
      <!-- 0 -->
      <g style="fill: #262626" transform="translate(154.227375 330.886419) scale(0.1012 -0.1012)">
       <defs>
        <path id="DejaVuSans-30" d="M 2034 4250 
Q 1547 4250 1301 3770 
Q 1056 3291 1056 2328 
Q 1056 1369 1301 889 
Q 1547 409 2034 409 
Q 2525 409 2770 889 
Q 3016 1369 3016 2328 
Q 3016 3291 2770 3770 
Q 2525 4250 2034 4250 
z
M 2034 4750 
Q 2819 4750 3233 4129 
Q 3647 3509 3647 2328 
Q 3647 1150 3233 529 
Q 2819 -91 2034 -91 
Q 1250 -91 836 529 
Q 422 1150 422 2328 
Q 422 3509 836 4129 
Q 1250 4750 2034 4750 
z
" transform="scale(0.015625)"/>
       </defs>
       <use xlink:href="#DejaVuSans-30"/>
      </g>
     </g>
    </g>
    <g id="xtick_3">
     <g id="line2d_3">
      <path d="M 265.3924 314.8968 
L 265.3924 36.8064 
" clip-path="url(#p537e9429e1)" style="fill: none; stroke: #cccccc; stroke-width: 0.8; stroke-linecap: round"/>
     </g>
     <g id="text_3">
      <!-- 5 -->
      <g style="fill: #262626" transform="translate(262.172975 330.886419) scale(0.1012 -0.1012)">
       <use xlink:href="#DejaVuSans-35"/>
      </g>
     </g>
    </g>
    <g id="xtick_4">
     <g id="line2d_4">
      <path d="M 373.338 314.8968 
L 373.338 36.8064 
" clip-path="url(#p537e9429e1)" style="fill: none; stroke: #cccccc; stroke-width: 0.8; stroke-linecap: round"/>
     </g>
     <g id="text_4">
      <!-- 10 -->
      <g style="fill: #262626" transform="translate(366.89915 330.886419) scale(0.1012 -0.1012)">
       <defs>
        <path id="DejaVuSans-31" d="M 794 531 
L 1825 531 
L 1825 4091 
L 703 3866 
L 703 4441 
L 1819 4666 
L 2450 4666 
L 2450 531 
L 3481 531 
L 3481 0 
L 794 0 
L 794 531 
z
" transform="scale(0.015625)"/>
       </defs>
       <use xlink:href="#DejaVuSans-31"/>
       <use xlink:href="#DejaVuSans-30" transform="translate(63.623047 0)"/>
      </g>
     </g>
    </g>
    <g id="xtick_5">
     <g id="line2d_5">
      <path d="M 481.2836 314.8968 
L 481.2836 36.8064 
" clip-path="url(#p537e9429e1)" style="fill: none; stroke: #cccccc; stroke-width: 0.8; stroke-linecap: round"/>
     </g>
     <g id="text_5">
      <!-- 15 -->
      <g style="fill: #262626" transform="translate(474.84475 330.886419) scale(0.1012 -0.1012)">
       <use xlink:href="#DejaVuSans-31"/>
       <use xlink:href="#DejaVuSans-35" transform="translate(63.623047 0)"/>
      </g>
     </g>
    </g>
    <g id="xtick_6">
     <g id="line2d_6">
      <path d="M 589.2292 314.8968 
L 589.2292 36.8064 
" clip-path="url(#p537e9429e1)" style="fill: none; stroke: #cccccc; stroke-width: 0.8; stroke-linecap: round"/>
     </g>
     <g id="text_6">
      <!-- 20 -->
      <g style="fill: #262626" transform="translate(582.79035 330.886419) scale(0.1012 -0.1012)">
       <defs>
        <path id="DejaVuSans-32" d="M 1228 531 
L 3431 531 
L 3431 0 
L 469 0 
L 469 531 
Q 828 903 1448 1529 
Q 2069 2156 2228 2338 
Q 2531 2678 2651 2914 
Q 2772 3150 2772 3378 
Q 2772 3750 2511 3984 
Q 2250 4219 1831 4219 
Q 1534 4219 1204 4116 
Q 875 4013 500 3803 
L 500 4441 
Q 881 4594 1212 4672 
Q 1544 4750 1819 4750 
Q 2544 4750 2975 4387 
Q 3406 4025 3406 3419 
Q 3406 3131 3298 2873 
Q 3191 2616 2906 2266 
Q 2828 2175 2409 1742 
Q 1991 1309 1228 531 
z
" transform="scale(0.015625)"/>
       </defs>
       <use xlink:href="#DejaVuSans-32"/>
       <use xlink:href="#DejaVuSans-30" transform="translate(63.623047 0)"/>
      </g>
     </g>
    </g>
    <g id="xtick_7">
     <g id="line2d_7">
      <path d="M 697.1748 314.8968 
L 697.1748 36.8064 
" clip-path="url(#p537e9429e1)" style="fill: none; stroke: #cccccc; stroke-width: 0.8; stroke-linecap: round"/>
     </g>
     <g id="text_7">
      <!-- 25 -->
      <g style="fill: #262626" transform="translate(690.73595 330.886419) scale(0.1012 -0.1012)">
       <use xlink:href="#DejaVuSans-32"/>
       <use xlink:href="#DejaVuSans-35" transform="translate(63.623047 0)"/>
      </g>
     </g>
    </g>
    <g id="text_8">
     <!-- Time relative to migration start (s) -->
     <g style="fill: #262626" transform="translate(278.0214 345.379737) scale(0.1104 -0.1104)">
      <defs>
       <path id="DejaVuSans-54" d="M -19 4666 
L 3928 4666 
L 3928 4134 
L 2272 4134 
L 2272 0 
L 1638 0 
L 1638 4134 
L -19 4134 
L -19 4666 
z
" transform="scale(0.015625)"/>
       <path id="DejaVuSans-69" d="M 603 3500 
L 1178 3500 
L 1178 0 
L 603 0 
L 603 3500 
z
M 603 4863 
L 1178 4863 
L 1178 4134 
L 603 4134 
L 603 4863 
z
" transform="scale(0.015625)"/>
       <path id="DejaVuSans-6d" d="M 3328 2828 
Q 3544 3216 3844 3400 
Q 4144 3584 4550 3584 
Q 5097 3584 5394 3201 
Q 5691 2819 5691 2113 
L 5691 0 
L 5113 0 
L 5113 2094 
Q 5113 2597 4934 2840 
Q 4756 3084 4391 3084 
Q 3944 3084 3684 2787 
Q 3425 2491 3425 1978 
L 3425 0 
L 2847 0 
L 2847 2094 
Q 2847 2600 2669 2842 
Q 2491 3084 2119 3084 
Q 1678 3084 1418 2786 
Q 1159 2488 1159 1978 
L 1159 0 
L 581 0 
L 581 3500 
L 1159 3500 
L 1159 2956 
Q 1356 3278 1631 3431 
Q 1906 3584 2284 3584 
Q 2666 3584 2933 3390 
Q 3200 3197 3328 2828 
z
" transform="scale(0.015625)"/>
       <path id="DejaVuSans-65" d="M 3597 1894 
L 3597 1613 
L 953 1613 
Q 991 1019 1311 708 
Q 1631 397 2203 397 
Q 2534 397 2845 478 
Q 3156 559 3463 722 
L 3463 178 
Q 3153 47 2828 -22 
Q 2503 -91 2169 -91 
Q 1331 -91 842 396 
Q 353 884 353 1716 
Q 353 2575 817 3079 
Q 1281 3584 2069 3584 
Q 2775 3584 3186 3129 
Q 3597 2675 3597 1894 
z
M 3022 2063 
Q 3016 2534 2758 2815 
Q 2500 3097 2075 3097 
Q 1594 3097 1305 2825 
Q 1016 2553 972 2059 
L 3022 2063 
z
" transform="scale(0.015625)"/>
       <path id="DejaVuSans-20" transform="scale(0.015625)"/>
       <path id="DejaVuSans-72" d="M 2631 2963 
Q 2534 3019 2420 3045 
Q 2306 3072 2169 3072 
Q 1681 3072 1420 2755 
Q 1159 2438 1159 1844 
L 1159 0 
L 581 0 
L 581 3500 
L 1159 3500 
L 1159 2956 
Q 1341 3275 1631 3429 
Q 1922 3584 2338 3584 
Q 2397 3584 2469 3576 
Q 2541 3569 2628 3553 
L 2631 2963 
z
" transform="scale(0.015625)"/>
       <path id="DejaVuSans-6c" d="M 603 4863 
L 1178 4863 
L 1178 0 
L 603 0 
L 603 4863 
z
" transform="scale(0.015625)"/>
       <path id="DejaVuSans-61" d="M 2194 1759 
Q 1497 1759 1228 1600 
Q 959 1441 959 1056 
Q 959 750 1161 570 
Q 1363 391 1709 391 
Q 2188 391 2477 730 
Q 2766 1069 2766 1631 
L 2766 1759 
L 2194 1759 
z
M 3341 1997 
L 3341 0 
L 2766 0 
L 2766 531 
Q 2569 213 2275 61 
Q 1981 -91 1556 -91 
Q 1019 -91 701 211 
Q 384 513 384 1019 
Q 384 1609 779 1909 
Q 1175 2209 1959 2209 
L 2766 2209 
L 2766 2266 
Q 2766 2663 2505 2880 
Q 2244 3097 1772 3097 
Q 1472 3097 1187 3025 
Q 903 2953 641 2809 
L 641 3341 
Q 956 3463 1253 3523 
Q 1550 3584 1831 3584 
Q 2591 3584 2966 3190 
Q 3341 2797 3341 1997 
z
" transform="scale(0.015625)"/>
       <path id="DejaVuSans-74" d="M 1172 4494 
L 1172 3500 
L 2356 3500 
L 2356 3053 
L 1172 3053 
L 1172 1153 
Q 1172 725 1289 603 
Q 1406 481 1766 481 
L 2356 481 
L 2356 0 
L 1766 0 
Q 1100 0 847 248 
Q 594 497 594 1153 
L 594 3053 
L 172 3053 
L 172 3500 
L 594 3500 
L 594 4494 
L 1172 4494 
z
" transform="scale(0.015625)"/>
       <path id="DejaVuSans-76" d="M 191 3500 
L 800 3500 
L 1894 563 
L 2988 3500 
L 3597 3500 
L 2284 0 
L 1503 0 
L 191 3500 
z
" transform="scale(0.015625)"/>
       <path id="DejaVuSans-6f" d="M 1959 3097 
Q 1497 3097 1228 2736 
Q 959 2375 959 1747 
Q 959 1119 1226 758 
Q 1494 397 1959 397 
Q 2419 397 2687 759 
Q 2956 1122 2956 1747 
Q 2956 2369 2687 2733 
Q 2419 3097 1959 3097 
z
M 1959 3584 
Q 2709 3584 3137 3096 
Q 3566 2609 3566 1747 
Q 3566 888 3137 398 
Q 2709 -91 1959 -91 
Q 1206 -91 779 398 
Q 353 888 353 1747 
Q 353 2609 779 3096 
Q 1206 3584 1959 3584 
z
" transform="scale(0.015625)"/>
       <path id="DejaVuSans-67" d="M 2906 1791 
Q 2906 2416 2648 2759 
Q 2391 3103 1925 3103 
Q 1463 3103 1205 2759 
Q 947 2416 947 1791 
Q 947 1169 1205 825 
Q 1463 481 1925 481 
Q 2391 481 2648 825 
Q 2906 1169 2906 1791 
z
M 3481 434 
Q 3481 -459 3084 -895 
Q 2688 -1331 1869 -1331 
Q 1566 -1331 1297 -1286 
Q 1028 -1241 775 -1147 
L 775 -588 
Q 1028 -725 1275 -790 
Q 1522 -856 1778 -856 
Q 2344 -856 2625 -561 
Q 2906 -266 2906 331 
L 2906 616 
Q 2728 306 2450 153 
Q 2172 0 1784 0 
Q 1141 0 747 490 
Q 353 981 353 1791 
Q 353 2603 747 3093 
Q 1141 3584 1784 3584 
Q 2172 3584 2450 3431 
Q 2728 3278 2906 2969 
L 2906 3500 
L 3481 3500 
L 3481 434 
z
" transform="scale(0.015625)"/>
       <path id="DejaVuSans-6e" d="M 3513 2113 
L 3513 0 
L 2938 0 
L 2938 2094 
Q 2938 2591 2744 2837 
Q 2550 3084 2163 3084 
Q 1697 3084 1428 2787 
Q 1159 2491 1159 1978 
L 1159 0 
L 581 0 
L 581 3500 
L 1159 3500 
L 1159 2956 
Q 1366 3272 1645 3428 
Q 1925 3584 2291 3584 
Q 2894 3584 3203 3211 
Q 3513 2838 3513 2113 
z
" transform="scale(0.015625)"/>
       <path id="DejaVuSans-73" d="M 2834 3397 
L 2834 2853 
Q 2591 2978 2328 3040 
Q 2066 3103 1784 3103 
Q 1356 3103 1142 2972 
Q 928 2841 928 2578 
Q 928 2378 1081 2264 
Q 1234 2150 1697 2047 
L 1894 2003 
Q 2506 1872 2764 1633 
Q 3022 1394 3022 966 
Q 3022 478 2636 193 
Q 2250 -91 1575 -91 
Q 1294 -91 989 -36 
Q 684 19 347 128 
L 347 722 
Q 666 556 975 473 
Q 1284 391 1588 391 
Q 1994 391 2212 530 
Q 2431 669 2431 922 
Q 2431 1156 2273 1281 
Q 2116 1406 1581 1522 
L 1381 1569 
Q 847 1681 609 1914 
Q 372 2147 372 2553 
Q 372 3047 722 3315 
Q 1072 3584 1716 3584 
Q 2034 3584 2315 3537 
Q 2597 3491 2834 3397 
z
" transform="scale(0.015625)"/>
       <path id="DejaVuSans-28" d="M 1984 4856 
Q 1566 4138 1362 3434 
Q 1159 2731 1159 2009 
Q 1159 1288 1364 580 
Q 1569 -128 1984 -844 
L 1484 -844 
Q 1016 -109 783 600 
Q 550 1309 550 2009 
Q 550 2706 781 3412 
Q 1013 4119 1484 4856 
L 1984 4856 
z
" transform="scale(0.015625)"/>
       <path id="DejaVuSans-29" d="M 513 4856 
L 1013 4856 
Q 1481 4119 1714 3412 
Q 1947 2706 1947 2009 
Q 1947 1309 1714 600 
Q 1481 -109 1013 -844 
L 513 -844 
Q 928 -128 1133 580 
Q 1338 1288 1338 2009 
Q 1338 2731 1133 3434 
Q 928 4138 513 4856 
z
" transform="scale(0.015625)"/>
      </defs>
      <use xlink:href="#DejaVuSans-54"/>
      <use xlink:href="#DejaVuSans-69" transform="translate(57.958984 0)"/>
      <use xlink:href="#DejaVuSans-6d" transform="translate(85.742188 0)"/>
      <use xlink:href="#DejaVuSans-65" transform="translate(183.154297 0)"/>
      <use xlink:href="#DejaVuSans-20" transform="translate(244.677734 0)"/>
      <use xlink:href="#DejaVuSans-72" transform="translate(276.464844 0)"/>
      <use xlink:href="#DejaVuSans-65" transform="translate(315.328125 0)"/>
      <use xlink:href="#DejaVuSans-6c" transform="translate(376.851562 0)"/>
      <use xlink:href="#DejaVuSans-61" transform="translate(404.634766 0)"/>
      <use xlink:href="#DejaVuSans-74" transform="translate(465.914062 0)"/>
      <use xlink:href="#DejaVuSans-69" transform="translate(505.123047 0)"/>
      <use xlink:href="#DejaVuSans-76" transform="translate(532.90625 0)"/>
      <use xlink:href="#DejaVuSans-65" transform="translate(592.085938 0)"/>
      <use xlink:href="#DejaVuSans-20" transform="translate(653.609375 0)"/>
      <use xlink:href="#DejaVuSans-74" transform="translate(685.396484 0)"/>
      <use xlink:href="#DejaVuSans-6f" transform="translate(724.605469 0)"/>
      <use xlink:href="#DejaVuSans-20" transform="translate(785.787109 0)"/>
      <use xlink:href="#DejaVuSans-6d" transform="translate(817.574219 0)"/>
      <use xlink:href="#DejaVuSans-69" transform="translate(914.986328 0)"/>
      <use xlink:href="#DejaVuSans-67" transform="translate(942.769531 0)"/>
      <use xlink:href="#DejaVuSans-72" transform="translate(1006.246094 0)"/>
      <use xlink:href="#DejaVuSans-61" transform="translate(1047.359375 0)"/>
      <use xlink:href="#DejaVuSans-74" transform="translate(1108.638672 0)"/>
      <use xlink:href="#DejaVuSans-69" transform="translate(1147.847656 0)"/>
      <use xlink:href="#DejaVuSans-6f" transform="translate(1175.630859 0)"/>
      <use xlink:href="#DejaVuSans-6e" transform="translate(1236.8125 0)"/>
      <use xlink:href="#DejaVuSans-20" transform="translate(1300.191406 0)"/>
      <use xlink:href="#DejaVuSans-73" transform="translate(1331.978516 0)"/>
      <use xlink:href="#DejaVuSans-74" transform="translate(1384.078125 0)"/>
      <use xlink:href="#DejaVuSans-61" transform="translate(1423.287109 0)"/>
      <use xlink:href="#DejaVuSans-72" transform="translate(1484.566406 0)"/>
      <use xlink:href="#DejaVuSans-74" transform="translate(1525.679688 0)"/>
      <use xlink:href="#DejaVuSans-20" transform="translate(1564.888672 0)"/>
      <use xlink:href="#DejaVuSans-28" transform="translate(1596.675781 0)"/>
      <use xlink:href="#DejaVuSans-73" transform="translate(1635.689453 0)"/>
      <use xlink:href="#DejaVuSans-29" transform="translate(1687.789062 0)"/>
     </g>
    </g>
   </g>
   <g id="matplotlib.axis_2">
    <g id="ytick_1">
     <g id="line2d_8">
      <path d="M 49.5012 314.8968 
L 697.1748 314.8968 
" clip-path="url(#p537e9429e1)" style="fill: none; stroke: #cccccc; stroke-width: 0.8; stroke-linecap: round"/>
     </g>
     <g id="text_9">
      <!-- 0 -->
      <g style="fill: #262626" transform="translate(34.76235 318.741609) scale(0.1012 -0.1012)">
       <use xlink:href="#DejaVuSans-30"/>
      </g>
     </g>
    </g>
    <g id="ytick_2">
     <g id="line2d_9">
      <path d="M 49.5012 255.941326 
L 697.1748 255.941326 
" clip-path="url(#p537e9429e1)" style="fill: none; stroke: #cccccc; stroke-width: 0.8; stroke-linecap: round"/>
     </g>
     <g id="text_10">
      <!-- 100 -->
      <g style="fill: #262626" transform="translate(21.88465 259.786136) scale(0.1012 -0.1012)">
       <use xlink:href="#DejaVuSans-31"/>
       <use xlink:href="#DejaVuSans-30" transform="translate(63.623047 0)"/>
       <use xlink:href="#DejaVuSans-30" transform="translate(127.246094 0)"/>
      </g>
     </g>
    </g>
    <g id="ytick_3">
     <g id="line2d_10">
      <path d="M 49.5012 196.985853 
L 697.1748 196.985853 
" clip-path="url(#p537e9429e1)" style="fill: none; stroke: #cccccc; stroke-width: 0.8; stroke-linecap: round"/>
     </g>
     <g id="text_11">
      <!-- 200 -->
      <g style="fill: #262626" transform="translate(21.88465 200.830662) scale(0.1012 -0.1012)">
       <use xlink:href="#DejaVuSans-32"/>
       <use xlink:href="#DejaVuSans-30" transform="translate(63.623047 0)"/>
       <use xlink:href="#DejaVuSans-30" transform="translate(127.246094 0)"/>
      </g>
     </g>
    </g>
    <g id="ytick_4">
     <g id="line2d_11">
      <path d="M 49.5012 138.030379 
L 697.1748 138.030379 
" clip-path="url(#p537e9429e1)" style="fill: none; stroke: #cccccc; stroke-width: 0.8; stroke-linecap: round"/>
     </g>
     <g id="text_12">
      <!-- 300 -->
      <g style="fill: #262626" transform="translate(21.88465 141.875188) scale(0.1012 -0.1012)">
       <defs>
        <path id="DejaVuSans-33" d="M 2597 2516 
Q 3050 2419 3304 2112 
Q 3559 1806 3559 1356 
Q 3559 666 3084 287 
Q 2609 -91 1734 -91 
Q 1441 -91 1130 -33 
Q 819 25 488 141 
L 488 750 
Q 750 597 1062 519 
Q 1375 441 1716 441 
Q 2309 441 2620 675 
Q 2931 909 2931 1356 
Q 2931 1769 2642 2001 
Q 2353 2234 1838 2234 
L 1294 2234 
L 1294 2753 
L 1863 2753 
Q 2328 2753 2575 2939 
Q 2822 3125 2822 3475 
Q 2822 3834 2567 4026 
Q 2313 4219 1838 4219 
Q 1578 4219 1281 4162 
Q 984 4106 628 3988 
L 628 4550 
Q 988 4650 1302 4700 
Q 1616 4750 1894 4750 
Q 2613 4750 3031 4423 
Q 3450 4097 3450 3541 
Q 3450 3153 3228 2886 
Q 3006 2619 2597 2516 
z
" transform="scale(0.015625)"/>
       </defs>
       <use xlink:href="#DejaVuSans-33"/>
       <use xlink:href="#DejaVuSans-30" transform="translate(63.623047 0)"/>
       <use xlink:href="#DejaVuSans-30" transform="translate(127.246094 0)"/>
      </g>
     </g>
    </g>
    <g id="ytick_5">
     <g id="line2d_12">
      <path d="M 49.5012 79.074905 
L 697.1748 79.074905 
" clip-path="url(#p537e9429e1)" style="fill: none; stroke: #cccccc; stroke-width: 0.8; stroke-linecap: round"/>
     </g>
     <g id="text_13">
      <!-- 400 -->
      <g style="fill: #262626" transform="translate(21.88465 82.919715) scale(0.1012 -0.1012)">
       <defs>
        <path id="DejaVuSans-34" d="M 2419 4116 
L 825 1625 
L 2419 1625 
L 2419 4116 
z
M 2253 4666 
L 3047 4666 
L 3047 1625 
L 3713 1625 
L 3713 1100 
L 3047 1100 
L 3047 0 
L 2419 0 
L 2419 1100 
L 313 1100 
L 313 1709 
L 2253 4666 
z
" transform="scale(0.015625)"/>
       </defs>
       <use xlink:href="#DejaVuSans-34"/>
       <use xlink:href="#DejaVuSans-30" transform="translate(63.623047 0)"/>
       <use xlink:href="#DejaVuSans-30" transform="translate(127.246094 0)"/>
      </g>
     </g>
    </g>
    <g id="text_14">
     <!-- P50 RTT (ms) -->
     <g style="fill: #262626" transform="translate(15.588675 212.354325) rotate(-90) scale(0.1104 -0.1104)">
      <defs>
       <path id="DejaVuSans-50" d="M 1259 4147 
L 1259 2394 
L 2053 2394 
Q 2494 2394 2734 2622 
Q 2975 2850 2975 3272 
Q 2975 3691 2734 3919 
Q 2494 4147 2053 4147 
L 1259 4147 
z
M 628 4666 
L 2053 4666 
Q 2838 4666 3239 4311 
Q 3641 3956 3641 3272 
Q 3641 2581 3239 2228 
Q 2838 1875 2053 1875 
L 1259 1875 
L 1259 0 
L 628 0 
L 628 4666 
z
" transform="scale(0.015625)"/>
       <path id="DejaVuSans-52" d="M 2841 2188 
Q 3044 2119 3236 1894 
Q 3428 1669 3622 1275 
L 4263 0 
L 3584 0 
L 2988 1197 
Q 2756 1666 2539 1819 
Q 2322 1972 1947 1972 
L 1259 1972 
L 1259 0 
L 628 0 
L 628 4666 
L 2053 4666 
Q 2853 4666 3247 4331 
Q 3641 3997 3641 3322 
Q 3641 2881 3436 2590 
Q 3231 2300 2841 2188 
z
M 1259 4147 
L 1259 2491 
L 2053 2491 
Q 2509 2491 2742 2702 
Q 2975 2913 2975 3322 
Q 2975 3731 2742 3939 
Q 2509 4147 2053 4147 
L 1259 4147 
z
" transform="scale(0.015625)"/>
      </defs>
      <use xlink:href="#DejaVuSans-50"/>
      <use xlink:href="#DejaVuSans-35" transform="translate(60.302734 0)"/>
      <use xlink:href="#DejaVuSans-30" transform="translate(123.925781 0)"/>
      <use xlink:href="#DejaVuSans-20" transform="translate(187.548828 0)"/>
      <use xlink:href="#DejaVuSans-52" transform="translate(219.335938 0)"/>
      <use xlink:href="#DejaVuSans-54" transform="translate(281.568359 0)"/>
      <use xlink:href="#DejaVuSans-54" transform="translate(340.902344 0)"/>
      <use xlink:href="#DejaVuSans-20" transform="translate(401.986328 0)"/>
      <use xlink:href="#DejaVuSans-28" transform="translate(433.773438 0)"/>
      <use xlink:href="#DejaVuSans-6d" transform="translate(472.787109 0)"/>
      <use xlink:href="#DejaVuSans-73" transform="translate(570.199219 0)"/>
      <use xlink:href="#DejaVuSans-29" transform="translate(622.298828 0)"/>
     </g>
    </g>
   </g>
   <g id="FillBetweenPolyCollection_1">
    <defs>
     <path id="m4408f99f6c" d="M 49.5012 -40.319775 
L 49.5012 -40.189739 
L 60.29576 -40.189512 
L 71.09032 -40.191075 
L 81.88488 -40.192694 
L 92.67944 -40.190122 
L 103.474 -40.187167 
L 114.26856 -40.186183 
L 125.06312 -40.188676 
L 135.85768 -40.185569 
L 146.65224 -40.188379 
L 157.4468 -40.185395 
L 168.24136 -40.233673 
L 179.03592 -40.337627 
L 189.83048 -47.849906 
L 200.62504 -56.286563 
L 211.4196 -65.023016 
L 222.21416 -73.80261 
L 233.00872 -82.582204 
L 243.80328 -81.594684 
L 254.59784 -75.826432 
L 265.3924 -60.633725 
L 276.18696 -40.3288 
L 286.98152 -40.279741 
L 297.77608 -40.197664 
L 308.57064 -40.203969 
L 319.3652 -40.204123 
L 330.15976 -40.198788 
L 340.95432 -40.194668 
L 351.74888 -40.196584 
L 362.54344 -40.194994 
L 373.338 -40.191373 
L 384.13256 -40.191391 
L 394.92712 -40.190927 
L 405.72168 -40.192938 
L 416.51624 -40.193628 
L 427.3108 -40.194486 
L 438.10536 -40.193856 
L 448.89992 -40.193597 
L 459.69448 -40.192107 
L 470.48904 -40.191015 
L 481.2836 -40.187495 
L 492.07816 -40.19266 
L 502.87272 -40.193555 
L 513.66728 -40.194144 
L 524.46184 -40.191974 
L 535.2564 -40.190956 
L 546.05096 -40.194415 
L 556.84552 -40.194555 
L 567.64008 -40.188753 
L 578.43464 -40.186953 
L 589.2292 -40.188633 
L 600.02376 -40.189557 
L 610.81832 -40.193599 
L 621.61288 -40.193127 
L 632.40744 -40.189369 
L 643.202 -40.190313 
L 653.99656 -40.192627 
L 664.79112 -40.193537 
L 675.58568 -40.195526 
L 686.38024 -40.197514 
L 697.1748 -40.199925 
L 697.1748 -40.307644 
L 697.1748 -40.307644 
L 686.38024 -40.300823 
L 675.58568 -40.304453 
L 664.79112 -40.303394 
L 653.99656 -40.308781 
L 643.202 -40.311585 
L 632.40744 -40.304978 
L 621.61288 -40.305754 
L 610.81832 -40.314212 
L 600.02376 -40.317685 
L 589.2292 -40.316493 
L 578.43464 -40.311914 
L 567.64008 -40.313165 
L 556.84552 -40.313584 
L 546.05096 -40.306465 
L 535.2564 -40.304653 
L 524.46184 -40.313104 
L 513.66728 -40.313859 
L 502.87272 -40.318972 
L 492.07816 -40.317158 
L 481.2836 -40.321655 
L 470.48904 -40.324624 
L 459.69448 -40.324457 
L 448.89992 -40.320056 
L 438.10536 -40.322783 
L 427.3108 -40.322622 
L 416.51624 -40.311274 
L 405.72168 -40.303678 
L 394.92712 -40.30652 
L 384.13256 -40.307804 
L 373.338 -40.307405 
L 362.54344 -40.305393 
L 351.74888 -40.309151 
L 340.95432 -40.322375 
L 330.15976 -40.324899 
L 319.3652 -40.327519 
L 308.57064 -40.3301 
L 297.77608 -40.328126 
L 286.98152 -47.339345 
L 276.18696 -85.089125 
L 265.3924 -116.507766 
L 254.59784 -109.963369 
L 243.80328 -118.75401 
L 233.00872 -131.528368 
L 222.21416 -169.06799 
L 211.4196 -200.085977 
L 200.62504 -159.693148 
L 189.83048 -107.022099 
L 179.03592 -71.779625 
L 168.24136 -40.523881 
L 157.4468 -40.311597 
L 146.65224 -40.314399 
L 135.85768 -40.31437 
L 125.06312 -40.315271 
L 114.26856 -40.312473 
L 103.474 -40.311117 
L 92.67944 -40.309216 
L 81.88488 -40.309352 
L 71.09032 -40.309733 
L 60.29576 -40.315416 
L 49.5012 -40.319775 
z
" style="stroke: #4c72b0; stroke-opacity: 0.25; stroke-width: 0.8"/>
    </defs>
    <g clip-path="url(#p537e9429e1)">
     <use xlink:href="#m4408f99f6c" x="0" y="354.875712" style="fill: #4c72b0; fill-opacity: 0.25; stroke: #4c72b0; stroke-opacity: 0.25; stroke-width: 0.8"/>
    </g>
   </g>
   <g id="line2d_13">
    <path d="M 49.5012 314.707897 
L 60.29576 314.709076 
L 71.09032 314.707501 
L 81.88488 314.699247 
L 92.67944 314.694092 
L 103.474 314.69645 
L 114.26856 314.699842 
L 125.06312 314.705737 
L 135.85768 314.709136 
L 146.65224 314.706483 
L 157.4468 314.703228 
L 168.24136 314.698512 
L 179.03592 313.116422 
L 189.83048 307.709742 
L 200.62504 302.303061 
L 211.4196 296.896381 
L 222.21416 291.489701 
L 233.00872 286.083021 
L 243.80328 280.676341 
L 254.59784 275.269661 
L 265.3924 269.86298 
L 276.18696 264.4563 
L 286.98152 259.04962 
L 297.77608 253.64294 
L 308.57064 248.23626 
L 319.3652 242.82958 
L 330.15976 250.039132 
L 340.95432 287.838729 
L 351.74888 314.595937 
L 362.54344 314.579135 
L 373.338 314.570596 
L 384.13256 314.582092 
L 394.92712 314.589887 
L 405.72168 314.588708 
L 416.51624 314.586496 
L 427.3108 314.58178 
L 438.10536 314.578268 
L 448.89992 314.577679 
L 459.69448 314.577175 
L 470.48904 314.57688 
L 481.2836 314.578135 
L 492.07816 314.583146 
L 502.87272 314.582993 
L 513.66728 314.570318 
L 524.46184 314.564442 
L 535.2564 314.575054 
L 546.05096 314.581707 
L 556.84552 314.578759 
L 567.64008 314.574434 
L 578.43464 314.56677 
L 589.2292 314.56625 
L 600.02376 314.583052 
L 610.81832 314.59271 
L 621.61288 314.585046 
L 632.40744 314.578759 
L 643.202 314.575811 
L 653.99656 314.577167 
L 664.79112 314.588958 
L 675.58568 314.595929 
L 686.38024 314.591213 
L 697.1748 314.587959 
" clip-path="url(#p537e9429e1)" style="fill: none; stroke: #90caf9; stroke-opacity: 0.25; stroke-width: 0.5; stroke-linecap: round"/>
   </g>
   <g id="line2d_14">
    <path d="M 49.5012 314.587863 
L 60.29576 314.587642 
L 71.09032 314.580862 
L 81.88488 314.581063 
L 92.67944 314.59256 
L 103.474 314.602592 
L 114.26856 314.610256 
L 125.06312 314.607561 
L 135.85768 314.588106 
L 146.65224 314.57946 
L 157.4468 314.588304 
L 168.24136 314.595683 
L 179.03592 314.600694 
L 189.83048 258.735744 
L 200.62504 112.484311 
L 211.4196 50.041199 
L 222.21416 123.183275 
L 233.00872 196.325352 
L 243.80328 269.467429 
L 254.59784 314.671934 
L 265.3924 314.679009 
L 276.18696 314.684282 
L 286.98152 314.68664 
L 297.77608 314.688998 
L 308.57064 314.691357 
L 319.3652 314.693039 
L 330.15976 314.693629 
L 340.95432 314.69557 
L 351.74888 314.699697 
L 362.54344 314.706076 
L 373.338 314.716098 
L 384.13256 314.723418 
L 394.92712 314.726366 
L 405.72168 314.727287 
L 416.51624 314.724928 
L 427.3108 314.726061 
L 438.10536 314.732841 
L 448.89992 314.731063 
L 459.69448 314.715439 
L 470.48904 314.708487 
L 481.2836 314.715561 
L 492.07816 314.717456 
L 502.87272 314.710971 
L 513.66728 314.712819 
L 524.46184 314.728147 
L 535.2564 314.73717 
L 546.05096 314.735991 
L 556.84552 314.732559 
L 567.64008 314.725485 
L 578.43464 314.723815 
L 589.2292 314.73089 
L 600.02376 314.730983 
L 610.81832 314.719781 
L 621.61288 314.715449 
L 632.40744 314.722229 
L 643.202 314.721464 
L 653.99656 314.708494 
L 664.79112 314.702618 
L 675.58568 314.708219 
L 686.38024 314.710329 
L 697.1748 314.706791 
" clip-path="url(#p537e9429e1)" style="fill: none; stroke: #90caf9; stroke-opacity: 0.25; stroke-width: 0.5; stroke-linecap: round"/>
   </g>
   <g id="line2d_15">
    <path d="M 49.5012 314.710445 
L 60.29576 314.718754 
L 71.09032 314.718754 
L 81.88488 314.718655 
L 92.67944 314.715118 
L 103.474 314.711746 
L 114.26856 314.714104 
L 125.06312 314.71657 
L 135.85768 314.72276 
L 146.65224 314.728628 
L 157.4468 314.723322 
L 168.24136 313.8228 
L 179.03592 281.845499 
L 189.83048 249.868197 
L 200.62504 217.890896 
L 211.4196 187.405172 
L 222.21416 208.698514 
L 233.00872 229.991855 
L 243.80328 251.285197 
L 254.59784 272.578538 
L 265.3924 293.87188 
L 276.18696 314.568958 
L 286.98152 314.567189 
L 297.77608 314.565355 
L 308.57064 314.561228 
L 319.3652 314.557233 
L 330.15976 314.557823 
L 340.95432 314.558214 
L 351.74888 314.551729 
L 362.54344 314.5455 
L 373.338 314.548153 
L 384.13256 314.550591 
L 394.92712 314.54558 
L 405.72168 314.540725 
L 416.51624 314.541315 
L 427.3108 314.541913 
L 438.10536 314.542797 
L 448.89992 314.543698 
L 459.69448 314.545172 
L 470.48904 314.546629 
L 481.2836 314.547514 
L 492.07816 314.548381 
L 502.87272 314.548676 
L 513.66728 314.548963 
L 524.46184 314.548963 
L 535.2564 314.549004 
L 546.05096 314.550478 
L 556.84552 314.551902 
L 567.64008 314.551607 
L 578.43464 314.55142 
L 589.2292 314.554957 
L 600.02376 314.558759 
L 610.81832 314.571729 
L 621.61288 314.584072 
L 632.40744 314.574639 
L 643.202 314.565412 
L 653.99656 314.563349 
L 664.79112 314.561698 
L 675.58568 314.574374 
L 686.38024 314.58624 
L 697.1748 314.570027 
" clip-path="url(#p537e9429e1)" style="fill: none; stroke: #90caf9; stroke-opacity: 0.25; stroke-width: 0.5; stroke-linecap: round"/>
   </g>
   <g id="line2d_16">
    <path d="M 49.5012 314.546297 
L 60.29576 314.554069 
L 71.09032 314.566155 
L 81.88488 314.569458 
L 92.67944 314.570048 
L 103.474 314.570187 
L 114.26856 314.570187 
L 125.06312 314.566809 
L 135.85768 314.562387 
L 146.65224 314.561569 
L 157.4468 314.561863 
L 168.24136 314.563284 
L 179.03592 314.565053 
L 189.83048 309.067252 
L 200.62504 301.870631 
L 211.4196 294.67401 
L 222.21416 287.477389 
L 233.00872 280.280768 
L 243.80328 273.084147 
L 254.59784 265.887526 
L 265.3924 258.690905 
L 276.18696 279.023662 
L 286.98152 307.860258 
L 297.77608 314.664118 
L 308.57064 314.662055 
L 319.3652 314.662243 
L 330.15976 314.663128 
L 340.95432 314.669417 
L 351.74888 314.677376 
L 362.54344 314.681506 
L 373.338 314.684454 
L 384.13256 314.684925 
L 394.92712 314.68463 
L 405.72168 314.67375 
L 416.51624 314.659601 
L 427.3108 314.656262 
L 438.10536 314.656262 
L 448.89992 314.656937 
L 459.69448 314.657822 
L 470.48904 314.664111 
L 481.2836 314.67207 
L 492.07816 314.668994 
L 502.87272 314.662509 
L 513.66728 314.66278 
L 524.46184 314.665138 
L 535.2564 314.660515 
L 546.05096 314.653735 
L 556.84552 314.654387 
L 567.64008 314.657335 
L 578.43464 314.662309 
L 589.2292 314.66791 
L 600.02376 314.679366 
L 610.81832 314.692631 
L 621.61288 314.697338 
L 632.40744 314.699402 
L 643.202 314.703717 
L 653.99656 314.708729 
L 664.79112 314.704957 
L 675.58568 314.698471 
L 686.38024 314.697617 
L 697.1748 314.698501 
" clip-path="url(#p537e9429e1)" style="fill: none; stroke: #90caf9; stroke-opacity: 0.25; stroke-width: 0.5; stroke-linecap: round"/>
   </g>
   <g id="line2d_17">
    <path d="M 49.5012 314.680925 
L 60.29576 314.67464 
L 71.09032 314.676409 
L 81.88488 314.678554 
L 92.67944 314.686808 
L 103.474 314.694258 
L 114.26856 314.688657 
L 125.06312 314.683757 
L 135.85768 314.690242 
L 146.65224 314.696386 
L 157.4468 314.696975 
L 168.24136 312.190302 
L 179.03592 268.962233 
L 189.83048 225.734164 
L 200.62504 182.506095 
L 211.4196 144.290489 
L 222.21416 187.484217 
L 233.00872 230.677945 
L 243.80328 273.871673 
L 254.59784 314.560233 
L 265.3924 314.561412 
L 276.18696 314.562334 
L 286.98152 314.559092 
L 297.77608 314.556072 
L 308.57064 314.556661 
L 319.3652 314.557678 
L 330.15976 314.565637 
L 340.95432 314.572262 
L 351.74888 314.557229 
L 362.54344 314.543307 
L 373.338 314.547433 
L 384.13256 314.550859 
L 394.92712 314.5429 
L 405.72168 314.535506 
L 416.51624 314.537274 
L 427.3108 314.539094 
L 438.10536 314.541747 
L 448.89992 314.544263 
L 459.69448 314.544558 
L 470.48904 314.5454 
L 481.2836 314.555128 
L 492.07816 314.563111 
L 502.87272 314.542772 
L 513.66728 314.524843 
L 524.46184 314.546067 
L 535.2564 314.565461 
L 546.05096 314.555144 
L 556.84552 314.546007 
L 567.64008 314.556029 
L 578.43464 314.565162 
L 589.2292 314.559856 
L 600.02376 314.554858 
L 610.81832 314.554858 
L 621.61288 314.554739 
L 632.40744 314.552675 
L 643.202 314.551381 
L 653.99656 314.562583 
L 664.79112 314.572143 
L 675.58568 314.555046 
L 686.38024 314.539761 
L 697.1748 314.55391 
" clip-path="url(#p537e9429e1)" style="fill: none; stroke: #90caf9; stroke-opacity: 0.25; stroke-width: 0.5; stroke-linecap: round"/>
   </g>
   <g id="line2d_18">
    <path d="M 49.5012 314.538788 
L 60.29576 314.537964 
L 71.09032 314.536785 
L 81.88488 314.54244 
L 92.67944 314.549515 
L 103.474 314.552684 
L 114.26856 314.555042 
L 125.06312 314.560817 
L 135.85768 314.567303 
L 146.65224 314.563781 
L 157.4468 314.55818 
L 168.24136 314.557949 
L 179.03592 314.558833 
L 189.83048 308.196543 
L 200.62504 300.512434 
L 211.4196 292.828325 
L 222.21416 285.144216 
L 233.00872 277.460107 
L 243.80328 269.775998 
L 254.59784 262.091889 
L 265.3924 254.40778 
L 276.18696 278.583965 
L 286.98152 309.378472 
L 297.77608 314.678789 
L 308.57064 314.68321 
L 319.3652 314.680554 
L 330.15976 314.676427 
L 340.95432 314.675961 
L 351.74888 314.676256 
L 362.54344 314.680456 
L 373.338 314.685467 
L 384.13256 314.685841 
L 394.92712 314.685251 
L 405.72168 314.681977 
L 416.51624 314.678145 
L 427.3108 314.679194 
L 438.10536 314.681258 
L 448.89992 314.684297 
L 459.69448 314.68754 
L 470.48904 314.691027 
L 481.2836 314.694564 
L 492.07816 314.69566 
L 502.87272 314.69625 
L 513.66728 314.69684 
L 524.46184 314.697429 
L 535.2564 314.700215 
L 546.05096 314.703458 
L 556.84552 314.699622 
L 567.64008 314.694316 
L 578.43464 314.701214 
L 589.2292 314.710647 
L 600.02376 314.693964 
L 610.81832 314.671855 
L 621.61288 314.668541 
L 632.40744 314.66913 
L 643.202 314.67509 
L 653.99656 314.682164 
L 664.79112 314.681185 
L 675.58568 314.678532 
L 686.38024 314.677099 
L 697.1748 314.67592 
" clip-path="url(#p537e9429e1)" style="fill: none; stroke: #90caf9; stroke-opacity: 0.25; stroke-width: 0.5; stroke-linecap: round"/>
   </g>
   <g id="line2d_19">
    <path d="M 49.5012 314.655183 
L 60.29576 314.653709 
L 71.09032 314.656119 
L 81.88488 314.659951 
L 92.67944 314.658605 
L 103.474 314.655362 
L 114.26856 314.654061 
L 125.06312 314.653472 
L 135.85768 314.658277 
L 146.65224 314.665057 
L 157.4468 314.663205 
L 168.24136 314.658194 
L 179.03592 298.049572 
L 189.83048 275.362032 
L 200.62504 252.674492 
L 211.4196 229.986951 
L 222.21416 234.958718 
L 233.00872 250.057117 
L 243.80328 265.155515 
L 254.59784 280.253914 
L 265.3924 295.352313 
L 276.18696 310.450711 
L 286.98152 314.498808 
L 297.77608 314.501166 
L 308.57064 314.508487 
L 319.3652 314.517626 
L 330.15976 314.529784 
L 340.95432 314.543049 
L 351.74888 314.531932 
L 362.54344 314.511887 
L 373.338 314.517951 
L 384.13256 314.533574 
L 394.92712 314.533877 
L 405.72168 314.528571 
L 416.51624 314.526718 
L 427.3108 314.526128 
L 438.10536 314.531149 
L 448.89992 314.538223 
L 459.69448 314.529546 
L 470.48904 314.515102 
L 481.2836 314.511231 
L 492.07816 314.511231 
L 502.87272 314.515978 
L 513.66728 314.522463 
L 524.46184 314.519886 
L 535.2564 314.51399 
L 546.05096 314.524925 
L 556.84552 314.542022 
L 567.64008 314.54531 
L 578.43464 314.543541 
L 589.2292 314.524295 
L 600.02376 314.498649 
L 610.81832 314.493934 
L 621.61288 314.496881 
L 632.40744 314.497024 
L 643.202 314.49614 
L 653.99656 314.485761 
L 664.79112 314.471907 
L 675.58568 314.476393 
L 686.38024 314.487595 
L 697.1748 314.484123 
" clip-path="url(#p537e9429e1)" style="fill: none; stroke: #90caf9; stroke-opacity: 0.25; stroke-width: 0.5; stroke-linecap: round"/>
   </g>
   <g id="line2d_20">
    <path d="M 49.5012 314.492058 
L 60.29576 314.494876 
L 71.09032 314.500477 
L 81.88488 314.499771 
L 92.67944 314.497118 
L 103.474 314.49379 
L 114.26856 314.490252 
L 125.06312 314.511263 
L 135.85768 314.539856 
L 146.65224 314.533542 
L 157.4468 314.516445 
L 168.24136 314.528175 
L 179.03592 314.548809 
L 189.83048 304.292665 
L 200.62504 290.862019 
L 211.4196 277.431372 
L 222.21416 264.000726 
L 233.00872 250.570079 
L 243.80328 237.139433 
L 254.59784 223.708787 
L 265.3924 210.27814 
L 276.18696 248.205938 
L 286.98152 301.998386 
L 297.77608 314.688449 
L 308.57064 314.681964 
L 319.3652 314.686064 
L 330.15976 314.693433 
L 340.95432 314.697199 
L 351.74888 314.699852 
L 362.54344 314.699352 
L 373.338 314.697878 
L 384.13256 314.700909 
L 394.92712 314.70533 
L 405.72168 314.709977 
L 416.51624 314.714694 
L 427.3108 314.707924 
L 438.10536 314.697607 
L 448.89992 314.695172 
L 459.69448 314.695172 
L 470.48904 314.696974 
L 481.2836 314.699332 
L 492.07816 314.697862 
L 502.87272 314.695209 
L 513.66728 314.695033 
L 524.46184 314.695623 
L 535.2564 314.695762 
L 546.05096 314.695762 
L 556.84552 314.694185 
L 567.64008 314.692122 
L 578.43464 314.70222 
L 589.2292 314.716074 
L 600.02376 314.70403 
L 610.81832 314.683985 
L 621.61288 314.681281 
L 632.40744 314.683934 
L 643.202 314.683434 
L 653.99656 314.68196 
L 664.79112 314.671028 
L 675.58568 314.657173 
L 686.38024 314.663362 
L 697.1748 314.675743 
" clip-path="url(#p537e9429e1)" style="fill: none; stroke: #90caf9; stroke-opacity: 0.25; stroke-width: 0.5; stroke-linecap: round"/>
   </g>
   <g id="line2d_21">
    <path d="M 49.5012 314.691417 
L 60.29576 314.691123 
L 71.09032 314.688 
L 81.88488 314.683873 
L 92.67944 314.685185 
L 103.474 314.688427 
L 114.26856 314.693628 
L 125.06312 314.699523 
L 135.85768 314.694324 
L 146.65224 314.685186 
L 157.4468 314.689753 
L 168.24136 314.699186 
L 179.03592 303.970625 
L 189.83048 289.429932 
L 200.62504 274.889238 
L 211.4196 260.348544 
L 222.21416 245.80785 
L 233.00872 231.267156 
L 243.80328 216.726463 
L 254.59784 202.185769 
L 265.3924 187.645075 
L 276.18696 173.104381 
L 286.98152 158.563687 
L 297.77608 144.022994 
L 308.57064 129.4823 
L 319.3652 114.941606 
L 330.15976 186.199133 
L 340.95432 287.916191 
L 351.74888 314.569323 
L 362.54344 314.573745 
L 373.338 314.569464 
L 384.13256 314.562095 
L 394.92712 314.565385 
L 405.72168 314.57246 
L 416.51624 314.566264 
L 427.3108 314.555358 
L 438.10536 314.55424 
L 448.89992 314.556599 
L 459.69448 314.55156 
L 470.48904 314.543896 
L 481.2836 314.546457 
L 492.07816 314.552647 
L 502.87272 314.551876 
L 513.66728 314.548633 
L 524.46184 314.553875 
L 535.2564 314.562129 
L 546.05096 314.565814 
L 556.84552 314.567877 
L 567.64008 314.56472 
L 578.43464 314.559709 
L 589.2292 314.557308 
L 600.02376 314.555834 
L 610.81832 314.563715 
L 621.61288 314.574916 
L 632.40744 314.582637 
L 643.202 314.589122 
L 653.99656 314.582989 
L 664.79112 314.572377 
L 675.58568 314.57373 
L 686.38024 314.579331 
L 697.1748 314.571879 
" clip-path="url(#p537e9429e1)" style="fill: none; stroke: #90caf9; stroke-opacity: 0.25; stroke-width: 0.5; stroke-linecap: round"/>
   </g>
   <g id="line2d_22">
    <path d="M 49.5012 314.559757 
L 60.29576 314.560347 
L 71.09032 314.558652 
L 81.88488 314.551872 
L 92.67944 314.547377 
L 103.474 314.547966 
L 114.26856 314.548465 
L 125.06312 314.548759 
L 135.85768 314.551704 
L 146.65224 314.560547 
L 157.4468 314.565187 
L 168.24136 314.560471 
L 179.03592 309.707582 
L 189.83048 294.0636 
L 200.62504 278.419617 
L 211.4196 262.775635 
L 222.21416 247.131653 
L 233.00872 231.48767 
L 243.80328 215.843688 
L 254.59784 200.199706 
L 265.3924 208.825371 
L 276.18696 271.470572 
L 286.98152 314.692381 
L 297.77608 314.681474 
L 308.57064 314.670659 
L 319.3652 314.660047 
L 330.15976 314.656562 
L 340.95432 314.668943 
L 351.74888 314.676937 
L 362.54344 314.675169 
L 373.338 314.674131 
L 384.13256 314.674721 
L 394.92712 314.675767 
L 405.72168 314.677831 
L 416.51624 314.679346 
L 427.3108 314.67964 
L 438.10536 314.680209 
L 448.89992 314.681388 
L 459.69448 314.682293 
L 470.48904 314.682588 
L 481.2836 314.682426 
L 492.07816 314.681247 
L 502.87272 314.680251 
L 513.66728 314.679661 
L 524.46184 314.67898 
L 535.2564 314.678096 
L 546.05096 314.676298 
L 556.84552 314.672466 
L 567.64008 314.672289 
L 578.43464 314.680248 
L 589.2292 314.684095 
L 600.02376 314.678789 
L 610.81832 314.673939 
L 621.61288 314.670107 
L 632.40744 314.668103 
L 643.202 314.670166 
L 653.99656 314.67223 
L 664.79112 314.674293 
L 675.58568 314.673798 
L 686.38024 314.667608 
L 697.1748 314.667357 
" clip-path="url(#p537e9429e1)" style="fill: none; stroke: #90caf9; stroke-opacity: 0.25; stroke-width: 0.5; stroke-linecap: round"/>
   </g>
   <g id="line2d_23">
    <path d="M 49.5012 314.690214 
L 60.29576 314.694456 
L 71.09032 314.694161 
L 81.88488 314.692599 
L 92.67944 314.689356 
L 103.474 314.688902 
L 114.26856 314.692145 
L 125.06312 314.691078 
L 135.85768 314.684298 
L 146.65224 314.676124 
L 157.4468 314.666101 
L 168.24136 292.269817 
L 179.03592 240.198722 
L 189.83048 188.127626 
L 200.62504 136.056531 
L 211.4196 128.748705 
L 222.21416 180.778237 
L 233.00872 232.807769 
L 243.80328 284.837301 
L 254.59784 314.51188 
L 265.3924 314.553149 
L 276.18696 314.57477 
L 286.98152 314.570349 
L 297.77608 314.563265 
L 308.57064 314.552653 
L 319.3652 314.555477 
L 330.15976 314.576112 
L 340.95432 314.588127 
L 351.74888 314.588716 
L 362.54344 314.585503 
L 373.338 314.57725 
L 384.13256 314.578502 
L 394.92712 314.592357 
L 405.72168 314.598099 
L 416.51624 314.593088 
L 427.3108 314.594161 
L 438.10536 314.603299 
L 448.89992 314.613705 
L 459.69448 314.625791 
L 470.48904 314.632806 
L 481.2836 314.633101 
L 492.07816 314.635044 
L 502.87272 314.63917 
L 513.66728 314.634932 
L 524.46184 314.619603 
L 535.2564 314.609091 
L 546.05096 314.604965 
L 556.84552 314.601345 
L 567.64008 314.598397 
L 578.43464 314.592407 
L 589.2292 314.582385 
L 600.02376 314.57908 
L 610.81832 314.584681 
L 621.61288 314.586226 
L 632.40744 314.582393 
L 643.202 314.578308 
L 653.99656 314.573886 
L 664.79112 314.573394 
L 675.58568 314.57811 
L 686.38024 314.579024 
L 697.1748 314.574897 
" clip-path="url(#p537e9429e1)" style="fill: none; stroke: #90caf9; stroke-opacity: 0.25; stroke-width: 0.5; stroke-linecap: round"/>
   </g>
   <g id="line2d_24">
    <path d="M 49.5012 314.601053 
L 60.29576 314.599874 
L 71.09032 314.600119 
L 81.88488 314.603362 
L 92.67944 314.609072 
L 103.474 314.619979 
L 114.26856 314.627658 
L 125.06312 314.628543 
L 135.85768 314.625535 
L 146.65224 314.614334 
L 157.4468 314.604746 
L 168.24136 314.598555 
L 179.03592 308.94679 
L 189.83048 291.407758 
L 200.62504 273.868725 
L 211.4196 256.329693 
L 222.21416 238.790661 
L 233.00872 221.251628 
L 243.80328 203.712596 
L 254.59784 186.173564 
L 265.3924 196.883384 
L 276.18696 267.073707 
L 286.98152 314.663221 
L 297.77608 314.664695 
L 308.57064 314.665979 
L 319.3652 314.666864 
L 330.15976 314.671355 
L 340.95432 314.683441 
L 351.74888 314.691065 
L 362.54344 314.689297 
L 373.338 314.684301 
L 384.13256 314.67251 
L 394.92712 314.669546 
L 405.72168 314.685169 
L 416.51624 314.694148 
L 427.3108 314.689137 
L 438.10536 314.683651 
L 448.89992 314.677166 
L 459.69448 314.675047 
L 470.48904 314.682122 
L 481.2836 314.683312 
L 492.07816 314.67211 
L 502.87272 314.667268 
L 513.66728 314.675817 
L 524.46184 314.682752 
L 535.2564 314.686289 
L 546.05096 314.689257 
L 556.84552 314.691025 
L 567.64008 314.692414 
L 578.43464 314.693004 
L 589.2292 314.694068 
L 600.02376 314.696131 
L 610.81832 314.700188 
L 621.61288 314.708442 
L 632.40744 314.709102 
L 643.202 314.693774 
L 653.99656 314.685849 
L 664.79112 314.693513 
L 675.58568 314.694913 
L 686.38024 314.683122 
L 697.1748 314.675697 
" clip-path="url(#p537e9429e1)" style="fill: none; stroke: #90caf9; stroke-opacity: 0.25; stroke-width: 0.5; stroke-linecap: round"/>
   </g>
   <g id="line2d_25">
    <path d="M 49.5012 314.673416 
L 60.29576 314.668434 
L 71.09032 314.676393 
L 81.88488 314.682734 
L 92.67944 314.677428 
L 103.474 314.673524 
L 114.26856 314.679715 
L 125.06312 314.685689 
L 135.85768 314.690111 
L 146.65224 314.693777 
L 157.4468 314.692009 
L 168.24136 309.505334 
L 179.03592 267.004333 
L 189.83048 224.503332 
L 200.62504 182.002331 
L 211.4196 148.140203 
L 222.21416 176.449639 
L 233.00872 204.759075 
L 243.80328 233.068511 
L 254.59784 261.377947 
L 265.3924 289.687382 
L 276.18696 314.541772 
L 286.98152 314.531161 
L 297.77608 314.522131 
L 308.57064 314.524489 
L 319.3652 314.526344 
L 330.15976 314.524575 
L 340.95432 314.522842 
L 351.74888 314.521369 
L 362.54344 314.521261 
L 373.338 314.530989 
L 384.13256 314.538918 
L 394.92712 314.533907 
L 405.72168 314.530406 
L 416.51624 314.537776 
L 427.3108 314.542448 
L 438.10536 314.527709 
L 448.89992 314.51707 
L 459.69448 314.535936 
L 470.48904 314.55232 
L 481.2836 314.550846 
L 492.07816 314.549912 
L 502.87272 314.55286 
L 513.66728 314.55739 
L 524.46184 314.573308 
L 535.2564 314.585701 
L 546.05096 314.572731 
L 556.84552 314.562099 
L 567.64008 314.568289 
L 578.43464 314.573149 
L 589.2292 314.568432 
L 600.02376 314.562385 
L 610.81832 314.546762 
L 621.61288 314.534699 
L 632.40744 314.548259 
L 643.202 314.560272 
L 653.99656 314.561156 
L 664.79112 314.561969 
L 675.58568 314.562264 
L 686.38024 314.562487 
L 697.1748 314.562192 
" clip-path="url(#p537e9429e1)" style="fill: none; stroke: #90caf9; stroke-opacity: 0.25; stroke-width: 0.5; stroke-linecap: round"/>
   </g>
   <g id="line2d_26">
    <path d="M 49.5012 314.555971 
L 60.29576 314.560144 
L 71.09032 314.56545 
L 81.88488 314.557067 
L 92.67944 314.544686 
L 103.474 314.542344 
L 114.26856 314.542934 
L 125.06312 314.544664 
L 135.85768 314.546728 
L 146.65224 314.546738 
L 157.4468 314.546148 
L 168.24136 314.540995 
L 179.03592 314.53451 
L 189.83048 307.604923 
L 200.62504 298.65386 
L 211.4196 289.702798 
L 222.21416 280.751736 
L 233.00872 271.800674 
L 243.80328 262.849612 
L 254.59784 253.89855 
L 265.3924 244.947487 
L 276.18696 270.690881 
L 286.98152 306.564697 
L 297.77608 314.67332 
L 308.57064 314.674794 
L 319.3652 314.677637 
L 330.15976 314.68088 
L 340.95432 314.680472 
L 351.74888 314.678998 
L 362.54344 314.66931 
L 373.338 314.657224 
L 384.13256 314.658828 
L 394.92712 314.664429 
L 405.72168 314.667063 
L 416.51624 314.668832 
L 427.3108 314.669916 
L 438.10536 314.670801 
L 448.89992 314.671685 
L 459.69448 314.672569 
L 470.48904 314.678929 
L 481.2836 314.686888 
L 492.07816 314.679105 
L 502.87272 314.666724 
L 513.66728 314.661188 
L 524.46184 314.657651 
L 535.2564 314.660502 
L 546.05096 314.665218 
L 556.84552 314.672216 
L 567.64008 314.67988 
L 578.43464 314.682981 
L 589.2292 314.68475 
L 600.02376 314.683553 
L 610.81832 314.681489 
L 621.61288 314.686499 
L 632.40744 314.693573 
L 643.202 314.691294 
L 653.99656 314.686282 
L 664.79112 314.68515 
L 675.58568 314.68515 
L 686.38024 314.681499 
L 697.1748 314.676783 
" clip-path="url(#p537e9429e1)" style="fill: none; stroke: #90caf9; stroke-opacity: 0.25; stroke-width: 0.5; stroke-linecap: round"/>
   </g>
   <g id="line2d_27">
    <path d="M 49.5012 314.717151 
L 60.29576 314.720099 
L 71.09032 314.715729 
L 81.88488 314.710128 
L 92.67944 314.70806 
L 103.474 314.706586 
L 114.26856 314.707131 
L 125.06312 314.708015 
L 135.85768 314.70461 
L 146.65224 314.700483 
L 157.4468 314.697113 
L 168.24136 314.693871 
L 179.03592 305.408077 
L 189.83048 294.560733 
L 200.62504 283.713389 
L 211.4196 272.866045 
L 222.21416 262.018702 
L 233.00872 251.171358 
L 243.80328 240.324014 
L 254.59784 229.47667 
L 265.3924 218.629326 
L 276.18696 207.781982 
L 286.98152 196.934638 
L 297.77608 186.087294 
L 308.57064 175.23995 
L 319.3652 164.392606 
L 330.15976 227.779931 
L 340.95432 303.655331 
L 351.74888 314.588958 
L 362.54344 314.597801 
L 373.338 314.599327 
L 384.13256 314.599622 
L 394.92712 314.607739 
L 405.72168 314.617172 
L 416.51624 314.609951 
L 427.3108 314.599929 
L 438.10536 314.615896 
L 448.89992 314.636236 
L 459.69448 314.632352 
L 470.48904 314.624393 
L 481.2836 314.612901 
L 492.07816 314.600815 
L 502.87272 314.603617 
L 513.66728 314.608923 
L 524.46184 314.620032 
L 535.2564 314.632118 
L 546.05096 314.622504 
L 556.84552 314.609239 
L 567.64008 314.607329 
L 578.43464 314.607329 
L 589.2292 314.600263 
L 600.02376 314.59201 
L 610.81832 314.605204 
L 621.61288 314.622006 
L 632.40744 314.618117 
L 643.202 314.610748 
L 653.99656 314.604893 
L 664.79112 314.599292 
L 675.58568 314.602018 
L 686.38024 314.606145 
L 697.1748 314.607496 
" clip-path="url(#p537e9429e1)" style="fill: none; stroke: #90caf9; stroke-opacity: 0.25; stroke-width: 0.5; stroke-linecap: round"/>
   </g>
   <g id="line2d_28">
    <path d="M 49.5012 314.636167 
L 60.29576 314.617175 
L 71.09032 314.596246 
L 81.88488 314.594671 
L 92.67944 314.594377 
L 103.474 314.593805 
L 114.26856 314.593216 
L 125.06312 314.599539 
L 135.85768 314.606319 
L 146.65224 314.603698 
L 157.4468 314.600455 
L 168.24136 314.593341 
L 179.03592 314.585972 
L 189.83048 306.832768 
L 200.62504 298.567579 
L 211.4196 290.30239 
L 222.21416 282.037201 
L 233.00872 273.772012 
L 243.80328 265.506823 
L 254.59784 257.241634 
L 265.3924 248.976445 
L 276.18696 279.486606 
L 286.98152 312.559742 
L 297.77608 314.62106 
L 308.57064 314.632556 
L 319.3652 314.625804 
L 330.15976 314.617845 
L 340.95432 314.613204 
L 351.74888 314.608782 
L 362.54344 314.607955 
L 373.338 314.607365 
L 384.13256 314.607882 
L 394.92712 314.608471 
L 405.72168 314.615697 
L 416.51624 314.623361 
L 427.3108 314.624666 
L 438.10536 314.62555 
L 448.89992 314.616757 
L 459.69448 314.607324 
L 470.48904 314.609504 
L 481.2836 314.612452 
L 492.07816 314.607934 
L 502.87272 314.602923 
L 513.66728 314.614502 
L 524.46184 314.627177 
L 535.2564 314.624369 
L 546.05096 314.620536 
L 556.84552 314.596796 
L 567.64008 314.57174 
L 578.43464 314.584841 
L 589.2292 314.600464 
L 600.02376 314.612493 
L 610.81832 314.624284 
L 621.61288 314.624186 
L 632.40744 314.623301 
L 643.202 314.621588 
L 653.99656 314.619819 
L 664.79112 314.635193 
L 675.58568 314.651701 
L 686.38024 314.651065 
L 697.1748 314.649297 
" clip-path="url(#p537e9429e1)" style="fill: none; stroke: #90caf9; stroke-opacity: 0.25; stroke-width: 0.5; stroke-linecap: round"/>
   </g>
   <g id="line2d_29">
    <path d="M 49.5012 314.614564 
L 60.29576 314.612205 
L 71.09032 314.606825 
L 81.88488 314.601224 
L 92.67944 314.597547 
L 103.474 314.594009 
L 114.26856 314.600912 
L 125.06312 314.608576 
L 135.85768 314.612119 
L 146.65224 314.615362 
L 157.4468 314.625747 
L 168.24136 314.636654 
L 179.03592 283.51295 
L 189.83048 250.117622 
L 200.62504 216.722294 
L 211.4196 183.326966 
L 222.21416 201.79445 
L 233.00872 224.045916 
L 243.80328 246.297383 
L 254.59784 268.548849 
L 265.3924 290.800315 
L 276.18696 313.051781 
L 286.98152 314.56076 
L 297.77608 314.556338 
L 308.57064 314.558235 
L 319.3652 314.560593 
L 330.15976 314.558831 
L 340.95432 314.556767 
L 351.74888 314.558275 
L 362.54344 314.560044 
L 373.338 314.564835 
L 384.13256 314.569846 
L 394.92712 314.570461 
L 405.72168 314.570756 
L 416.51624 314.558963 
L 427.3108 314.546287 
L 438.10536 314.548997 
L 448.89992 314.552829 
L 459.69448 314.550342 
L 470.48904 314.547394 
L 481.2836 314.549941 
L 492.07816 314.552889 
L 502.87272 314.558035 
L 513.66728 314.563341 
L 524.46184 314.557108 
L 535.2564 314.550033 
L 546.05096 314.548728 
L 556.84552 314.547844 
L 567.64008 314.547234 
L 578.43464 314.546645 
L 589.2292 314.548528 
L 600.02376 314.550591 
L 610.81832 314.543863 
L 621.61288 314.536494 
L 632.40744 314.545333 
L 643.202 314.555356 
L 653.99656 314.568126 
L 664.79112 314.581096 
L 675.58568 314.563845 
L 686.38024 314.54439 
L 697.1748 314.551309 
" clip-path="url(#p537e9429e1)" style="fill: none; stroke: #90caf9; stroke-opacity: 0.25; stroke-width: 0.5; stroke-linecap: round"/>
   </g>
   <g id="line2d_30">
    <path d="M 49.5012 314.555838 
L 60.29576 314.564249 
L 71.09032 314.578398 
L 81.88488 314.582569 
L 92.67944 314.569893 
L 103.474 314.561165 
L 114.26856 314.559102 
L 125.06312 314.557916 
L 135.85768 314.55821 
L 146.65224 314.56015 
L 157.4468 314.564867 
L 168.24136 291.059467 
L 179.03592 227.864948 
L 189.83048 164.670428 
L 200.62504 101.475908 
L 211.4196 85.304581 
L 222.21416 148.516493 
L 233.00872 211.728404 
L 243.80328 274.940316 
L 254.59784 314.644962 
L 265.3924 314.665302 
L 276.18696 314.678514 
L 286.98152 314.679693 
L 297.77608 314.677802 
L 308.57064 314.670727 
L 319.3652 314.669574 
L 330.15976 314.678417 
L 340.95432 314.682765 
L 351.74888 314.679522 
L 362.54344 314.677924 
L 373.338 314.679103 
L 384.13256 314.68412 
L 394.92712 314.695617 
L 405.72168 314.699437 
L 416.51624 314.690299 
L 427.3108 314.685986 
L 438.10536 314.689818 
L 448.89992 314.69365 
L 459.69448 314.697482 
L 470.48904 314.697805 
L 481.2836 314.692204 
L 492.07816 314.688468 
L 502.87272 314.687878 
L 513.66728 314.687289 
L 524.46184 314.686699 
L 535.2564 314.684245 
L 546.05096 314.678645 
L 556.84552 314.677869 
L 567.64008 314.685238 
L 578.43464 314.687344 
L 589.2292 314.680564 
L 600.02376 314.676087 
L 610.81832 314.675498 
L 621.61288 314.675456 
L 632.40744 314.676341 
L 643.202 314.676348 
L 653.99656 314.674874 
L 664.79112 314.673071 
L 675.58568 314.670713 
L 686.38024 314.669999 
L 697.1748 314.672063 
" clip-path="url(#p537e9429e1)" style="fill: none; stroke: #90caf9; stroke-opacity: 0.25; stroke-width: 0.5; stroke-linecap: round"/>
   </g>
   <g id="line2d_31">
    <path d="M 49.5012 314.68456 
L 60.29576 314.68456 
L 71.09032 314.683517 
L 81.88488 314.674673 
L 92.67944 314.667535 
L 103.474 314.673135 
L 114.26856 314.67804 
L 125.06312 314.677746 
L 135.85768 314.677625 
L 146.65224 314.678804 
L 157.4468 314.680226 
L 168.24136 314.683469 
L 179.03592 314.088892 
L 189.83048 309.02587 
L 200.62504 303.962848 
L 211.4196 298.899825 
L 222.21416 293.836803 
L 233.00872 288.77378 
L 243.80328 283.710758 
L 254.59784 278.647736 
L 265.3924 276.565148 
L 276.18696 296.760051 
L 286.98152 314.573555 
L 297.77608 314.587115 
L 308.57064 314.59744 
L 319.3652 314.583585 
L 330.15976 314.571574 
L 340.95432 314.573343 
L 351.74888 314.574799 
L 362.54344 314.573914 
L 373.338 314.573552 
L 384.13256 314.577089 
L 394.92712 314.579653 
L 405.72168 314.574936 
L 416.51624 314.571194 
L 427.3108 314.574731 
L 438.10536 314.577433 
L 448.89992 314.573896 
L 459.69448 314.570011 
L 470.48904 314.563526 
L 481.2836 314.558084 
L 492.07816 314.560443 
L 502.87272 314.563253 
L 513.66728 314.569443 
L 524.46184 314.574694 
L 535.2564 314.572926 
L 546.05096 314.570392 
L 556.84552 314.562138 
L 567.64008 314.55465 
L 578.43464 314.552881 
L 589.2292 314.551251 
L 600.02376 314.550662 
L 610.81832 314.550664 
L 621.61288 314.555085 
L 632.40744 314.55902 
L 643.202 314.559315 
L 653.99656 314.559192 
L 664.79112 314.55595 
L 675.58568 314.553507 
L 686.38024 314.557044 
L 697.1748 314.559956 
" clip-path="url(#p537e9429e1)" style="fill: none; stroke: #90caf9; stroke-opacity: 0.25; stroke-width: 0.5; stroke-linecap: round"/>
   </g>
   <g id="line2d_32">
    <path d="M 49.5012 314.554342 
L 60.29576 314.547857 
L 71.09032 314.547281 
L 81.88488 314.54905 
L 92.67944 314.556306 
L 103.474 314.565739 
L 114.26856 314.564619 
L 125.06312 314.559313 
L 135.85768 314.556962 
L 146.65224 314.555783 
L 157.4468 314.561146 
L 168.24136 314.569105 
L 179.03592 284.211671 
L 189.83048 241.809863 
L 200.62504 199.408054 
L 211.4196 157.006246 
L 222.21416 165.213567 
L 233.00872 193.494901 
L 243.80328 221.776235 
L 254.59784 250.057569 
L 265.3924 278.338902 
L 276.18696 306.620236 
L 286.98152 314.669653 
L 297.77608 314.694119 
L 308.57064 314.698113 
L 319.3652 314.693986 
L 330.15976 314.692392 
L 340.95432 314.691802 
L 351.74888 314.698811 
L 362.54344 314.708833 
L 373.338 314.713157 
L 384.13256 314.715221 
L 394.92712 314.708209 
L 405.72168 314.697597 
L 416.51624 314.702603 
L 427.3108 314.713805 
L 438.10536 314.711287 
L 448.89992 314.703328 
L 459.69448 314.700435 
L 470.48904 314.69955 
L 481.2836 314.705842 
L 492.07816 314.71498 
L 502.87272 314.7066 
L 513.66728 314.691272 
L 524.46184 314.697472 
L 535.2564 314.71221 
L 546.05096 314.715763 
L 556.84552 314.714879 
L 567.64008 314.710828 
L 578.43464 314.705523 
L 589.2292 314.708237 
L 600.02376 314.714132 
L 610.81832 314.707997 
L 621.61288 314.697091 
L 632.40744 314.694626 
L 643.202 314.695511 
L 653.99656 314.695129 
L 664.79112 314.694244 
L 675.58568 314.693571 
L 686.38024 314.692981 
L 697.1748 314.697457 
" clip-path="url(#p537e9429e1)" style="fill: none; stroke: #90caf9; stroke-opacity: 0.25; stroke-width: 0.5; stroke-linecap: round"/>
   </g>
   <g id="line2d_33">
    <path d="M 157.4468 314.8968 
L 157.4468 36.8064 
" clip-path="url(#p537e9429e1)" style="fill: none; stroke-dasharray: 5.55,2.4; stroke-dashoffset: 0; stroke: #e53935; stroke-width: 1.5"/>
   </g>
   <g id="line2d_34">
    <path d="M 241.845147 314.8968 
L 241.845147 36.8064 
" clip-path="url(#p537e9429e1)" style="fill: none; stroke-dasharray: 1.2,1.98; stroke-dashoffset: 0; stroke: #ff9800; stroke-width: 1.2"/>
   </g>
   <g id="patch_3">
    <path d="M 49.5012 314.8968 
L 49.5012 36.8064 
" style="fill: none; stroke: #cccccc; stroke-linejoin: miter; stroke-linecap: square"/>
   </g>
   <g id="patch_4">
    <path d="M 697.1748 314.8968 
L 697.1748 36.8064 
" style="fill: none; stroke: #cccccc; stroke-linejoin: miter; stroke-linecap: square"/>
   </g>
   <g id="patch_5">
    <path d="M 49.5012 314.8968 
L 697.1748 314.8968 
" style="fill: none; stroke: #cccccc; stroke-linejoin: miter; stroke-linecap: square"/>
   </g>
   <g id="patch_6">
    <path d="M 49.5012 36.8064 
L 697.1748 36.8064 
" style="fill: none; stroke: #cccccc; stroke-linejoin: miter; stroke-linecap: square"/>
   </g>
   <g id="text_15">
    <!-- n = 20 migrations aligned at t=0 -->
    <g style="fill: #555555" transform="translate(55.977936 51.227862) scale(0.08 -0.08)">
     <defs>
      <path id="DejaVuSans-Oblique-6e" d="M 3566 2113 
L 3156 0 
L 2578 0 
L 2988 2091 
Q 3016 2238 3031 2350 
Q 3047 2463 3047 2528 
Q 3047 2791 2881 2937 
Q 2716 3084 2419 3084 
Q 1956 3084 1622 2776 
Q 1288 2469 1184 1941 
L 800 0 
L 225 0 
L 903 3500 
L 1478 3500 
L 1363 2950 
Q 1603 3253 1940 3418 
Q 2278 3584 2650 3584 
Q 3113 3584 3367 3334 
Q 3622 3084 3622 2631 
Q 3622 2519 3608 2391 
Q 3594 2263 3566 2113 
z
" transform="scale(0.015625)"/>
      <path id="DejaVuSans-Oblique-20" transform="scale(0.015625)"/>
      <path id="DejaVuSans-Oblique-3d" d="M 678 2906 
L 4684 2906 
L 4684 2381 
L 678 2381 
L 678 2906 
z
M 678 1631 
L 4684 1631 
L 4684 1100 
L 678 1100 
L 678 1631 
z
" transform="scale(0.015625)"/>
      <path id="DejaVuSans-Oblique-32" d="M 2950 2253 
L 934 525 
L 3163 525 
L 3053 0 
L 25 0 
L 128 531 
L 2234 2338 
Q 2656 2703 2832 2979 
Q 3009 3256 3009 3547 
Q 3009 3850 2796 4040 
Q 2584 4231 2241 4231 
Q 1944 4231 1581 4125 
Q 1219 4019 806 3816 
L 922 4441 
Q 1309 4594 1662 4672 
Q 2016 4750 2316 4750 
Q 2928 4750 3301 4425 
Q 3675 4100 3675 3572 
Q 3675 3216 3497 2892 
Q 3319 2569 2950 2253 
z
" transform="scale(0.015625)"/>
      <path id="DejaVuSans-Oblique-30" d="M 2444 4750 
Q 3078 4750 3414 4328 
Q 3750 3906 3750 3116 
Q 3750 2516 3592 1923 
Q 3434 1331 3150 863 
Q 2859 394 2467 151 
Q 2075 -91 1600 -91 
Q 988 -91 653 334 
Q 319 759 319 1544 
Q 319 2138 480 2733 
Q 641 3328 928 3794 
Q 1216 4263 1602 4506 
Q 1988 4750 2444 4750 
z
M 2406 4250 
Q 2169 4250 1955 4123 
Q 1741 3997 1569 3750 
Q 1281 3338 1111 2720 
Q 941 2103 941 1453 
Q 941 938 1123 673 
Q 1306 409 1663 409 
Q 1913 409 2125 536 
Q 2338 663 2509 909 
Q 2794 1319 2961 1936 
Q 3128 2553 3128 3206 
Q 3128 3722 2945 3986 
Q 2763 4250 2406 4250 
z
" transform="scale(0.015625)"/>
      <path id="DejaVuSans-Oblique-6d" d="M 5747 2113 
L 5338 0 
L 4763 0 
L 5166 2094 
Q 5191 2228 5203 2325 
Q 5216 2422 5216 2491 
Q 5216 2772 5059 2928 
Q 4903 3084 4622 3084 
Q 4203 3084 3875 2770 
Q 3547 2456 3450 1953 
L 3066 0 
L 2491 0 
L 2900 2094 
Q 2925 2209 2937 2307 
Q 2950 2406 2950 2484 
Q 2950 2769 2794 2926 
Q 2638 3084 2363 3084 
Q 1938 3084 1609 2770 
Q 1281 2456 1184 1953 
L 800 0 
L 225 0 
L 909 3500 
L 1484 3500 
L 1375 2956 
Q 1609 3263 1923 3423 
Q 2238 3584 2597 3584 
Q 2978 3584 3223 3384 
Q 3469 3184 3519 2828 
Q 3781 3197 4126 3390 
Q 4472 3584 4856 3584 
Q 5306 3584 5551 3325 
Q 5797 3066 5797 2591 
Q 5797 2488 5784 2364 
Q 5772 2241 5747 2113 
z
" transform="scale(0.015625)"/>
      <path id="DejaVuSans-Oblique-69" d="M 1172 4863 
L 1747 4863 
L 1606 4134 
L 1031 4134 
L 1172 4863 
z
M 909 3500 
L 1484 3500 
L 800 0 
L 225 0 
L 909 3500 
z
" transform="scale(0.015625)"/>
      <path id="DejaVuSans-Oblique-67" d="M 3816 3500 
L 3219 434 
Q 3047 -456 2561 -893 
Q 2075 -1331 1253 -1331 
Q 950 -1331 690 -1286 
Q 431 -1241 206 -1147 
L 313 -588 
Q 525 -725 762 -790 
Q 1000 -856 1269 -856 
Q 1816 -856 2167 -557 
Q 2519 -259 2631 300 
L 2681 563 
Q 2441 288 2122 144 
Q 1803 0 1434 0 
Q 903 0 598 351 
Q 294 703 294 1319 
Q 294 1803 478 2267 
Q 663 2731 997 3091 
Q 1219 3328 1514 3456 
Q 1809 3584 2131 3584 
Q 2484 3584 2746 3420 
Q 3009 3256 3138 2956 
L 3238 3500 
L 3816 3500 
z
M 2950 2216 
Q 2950 2641 2750 2872 
Q 2550 3103 2181 3103 
Q 1953 3103 1747 3012 
Q 1541 2922 1394 2759 
Q 1156 2491 1023 2127 
Q 891 1763 891 1375 
Q 891 944 1092 712 
Q 1294 481 1672 481 
Q 2219 481 2584 976 
Q 2950 1472 2950 2216 
z
" transform="scale(0.015625)"/>
      <path id="DejaVuSans-Oblique-72" d="M 2853 2969 
Q 2766 3016 2653 3041 
Q 2541 3066 2413 3066 
Q 1953 3066 1609 2717 
Q 1266 2369 1153 1784 
L 800 0 
L 225 0 
L 909 3500 
L 1484 3500 
L 1375 2956 
Q 1603 3259 1920 3421 
Q 2238 3584 2597 3584 
Q 2691 3584 2781 3573 
Q 2872 3563 2963 3538 
L 2853 2969 
z
" transform="scale(0.015625)"/>
      <path id="DejaVuSans-Oblique-61" d="M 3438 1997 
L 3047 0 
L 2472 0 
L 2578 531 
Q 2325 219 2001 64 
Q 1678 -91 1281 -91 
Q 834 -91 548 182 
Q 263 456 263 884 
Q 263 1497 752 1853 
Q 1241 2209 2100 2209 
L 2900 2209 
L 2931 2363 
Q 2938 2388 2941 2417 
Q 2944 2447 2944 2509 
Q 2944 2788 2717 2942 
Q 2491 3097 2081 3097 
Q 1800 3097 1504 3025 
Q 1209 2953 897 2809 
L 997 3341 
Q 1322 3463 1633 3523 
Q 1944 3584 2234 3584 
Q 2853 3584 3176 3315 
Q 3500 3047 3500 2534 
Q 3500 2431 3484 2292 
Q 3469 2153 3438 1997 
z
M 2816 1759 
L 2241 1759 
Q 1534 1759 1195 1570 
Q 856 1381 856 984 
Q 856 709 1029 553 
Q 1203 397 1509 397 
Q 1978 397 2328 733 
Q 2678 1069 2791 1631 
L 2816 1759 
z
" transform="scale(0.015625)"/>
      <path id="DejaVuSans-Oblique-74" d="M 2706 3500 
L 2619 3053 
L 1472 3053 
L 1100 1153 
Q 1081 1047 1072 975 
Q 1063 903 1063 863 
Q 1063 663 1183 572 
Q 1303 481 1569 481 
L 2150 481 
L 2053 0 
L 1503 0 
Q 991 0 739 200 
Q 488 400 488 806 
Q 488 878 497 964 
Q 506 1050 525 1153 
L 897 3053 
L 409 3053 
L 500 3500 
L 978 3500 
L 1172 4494 
L 1747 4494 
L 1556 3500 
L 2706 3500 
z
" transform="scale(0.015625)"/>
      <path id="DejaVuSans-Oblique-6f" d="M 1625 -91 
Q 1009 -91 651 289 
Q 294 669 294 1325 
Q 294 1706 417 2101 
Q 541 2497 738 2766 
Q 1047 3184 1428 3384 
Q 1809 3584 2291 3584 
Q 2888 3584 3255 3212 
Q 3622 2841 3622 2241 
Q 3622 1825 3500 1412 
Q 3378 1000 3181 728 
Q 2875 309 2494 109 
Q 2113 -91 1625 -91 
z
M 891 1344 
Q 891 869 1089 633 
Q 1288 397 1691 397 
Q 2269 397 2648 901 
Q 3028 1406 3028 2181 
Q 3028 2634 2825 2865 
Q 2622 3097 2228 3097 
Q 1903 3097 1650 2945 
Q 1397 2794 1197 2484 
Q 1050 2253 970 1956 
Q 891 1659 891 1344 
z
" transform="scale(0.015625)"/>
      <path id="DejaVuSans-Oblique-73" d="M 3200 3397 
L 3091 2853 
Q 2863 2978 2609 3040 
Q 2356 3103 2088 3103 
Q 1634 3103 1373 2948 
Q 1113 2794 1113 2528 
Q 1113 2219 1719 2053 
Q 1766 2041 1788 2034 
L 1972 1978 
Q 2547 1819 2739 1644 
Q 2931 1469 2931 1166 
Q 2931 609 2489 259 
Q 2047 -91 1331 -91 
Q 1053 -91 747 -37 
Q 441 16 72 128 
L 184 722 
Q 500 559 806 475 
Q 1113 391 1394 391 
Q 1816 391 2080 572 
Q 2344 753 2344 1031 
Q 2344 1331 1650 1516 
L 1591 1531 
L 1394 1581 
Q 956 1697 753 1886 
Q 550 2075 550 2369 
Q 550 2928 970 3256 
Q 1391 3584 2113 3584 
Q 2397 3584 2667 3537 
Q 2938 3491 3200 3397 
z
" transform="scale(0.015625)"/>
      <path id="DejaVuSans-Oblique-6c" d="M 1172 4863 
L 1747 4863 
L 800 0 
L 225 0 
L 1172 4863 
z
" transform="scale(0.015625)"/>
      <path id="DejaVuSans-Oblique-65" d="M 3078 2063 
Q 3088 2113 3092 2166 
Q 3097 2219 3097 2272 
Q 3097 2653 2873 2875 
Q 2650 3097 2266 3097 
Q 1838 3097 1509 2826 
Q 1181 2556 1013 2059 
L 3078 2063 
z
M 3578 1613 
L 903 1613 
Q 884 1494 878 1425 
Q 872 1356 872 1306 
Q 872 872 1139 634 
Q 1406 397 1894 397 
Q 2269 397 2603 481 
Q 2938 566 3225 728 
L 3116 159 
Q 2806 34 2476 -28 
Q 2147 -91 1806 -91 
Q 1078 -91 686 257 
Q 294 606 294 1247 
Q 294 1794 489 2264 
Q 684 2734 1063 3103 
Q 1306 3334 1642 3459 
Q 1978 3584 2356 3584 
Q 2950 3584 3301 3228 
Q 3653 2872 3653 2272 
Q 3653 2128 3634 1964 
Q 3616 1800 3578 1613 
z
" transform="scale(0.015625)"/>
      <path id="DejaVuSans-Oblique-64" d="M 2675 525 
Q 2444 222 2128 65 
Q 1813 -91 1428 -91 
Q 903 -91 598 267 
Q 294 625 294 1247 
Q 294 1766 478 2236 
Q 663 2706 1013 3078 
Q 1244 3325 1534 3454 
Q 1825 3584 2144 3584 
Q 2481 3584 2739 3421 
Q 2997 3259 3138 2956 
L 3513 4863 
L 4091 4863 
L 3144 0 
L 2566 0 
L 2675 525 
z
M 891 1350 
Q 891 897 1095 644 
Q 1300 391 1663 391 
Q 1931 391 2161 520 
Q 2391 650 2566 903 
Q 2750 1166 2856 1509 
Q 2963 1853 2963 2188 
Q 2963 2622 2758 2865 
Q 2553 3109 2194 3109 
Q 1922 3109 1687 2981 
Q 1453 2853 1288 2613 
Q 1106 2353 998 2009 
Q 891 1666 891 1350 
z
" transform="scale(0.015625)"/>
     </defs>
     <use xlink:href="#DejaVuSans-Oblique-6e"/>
     <use xlink:href="#DejaVuSans-Oblique-20" transform="translate(63.378906 0)"/>
     <use xlink:href="#DejaVuSans-Oblique-3d" transform="translate(95.166016 0)"/>
     <use xlink:href="#DejaVuSans-Oblique-20" transform="translate(178.955078 0)"/>
     <use xlink:href="#DejaVuSans-Oblique-32" transform="translate(210.742188 0)"/>
     <use xlink:href="#DejaVuSans-Oblique-30" transform="translate(274.365234 0)"/>
     <use xlink:href="#DejaVuSans-Oblique-20" transform="translate(337.988281 0)"/>
     <use xlink:href="#DejaVuSans-Oblique-6d" transform="translate(369.775391 0)"/>
     <use xlink:href="#DejaVuSans-Oblique-69" transform="translate(467.1875 0)"/>
     <use xlink:href="#DejaVuSans-Oblique-67" transform="translate(494.970703 0)"/>
     <use xlink:href="#DejaVuSans-Oblique-72" transform="translate(558.447266 0)"/>
     <use xlink:href="#DejaVuSans-Oblique-61" transform="translate(599.560547 0)"/>
     <use xlink:href="#DejaVuSans-Oblique-74" transform="translate(660.839844 0)"/>
     <use xlink:href="#DejaVuSans-Oblique-69" transform="translate(700.048828 0)"/>
     <use xlink:href="#DejaVuSans-Oblique-6f" transform="translate(727.832031 0)"/>
     <use xlink:href="#DejaVuSans-Oblique-6e" transform="translate(789.013672 0)"/>
     <use xlink:href="#DejaVuSans-Oblique-73" transform="translate(852.392578 0)"/>
     <use xlink:href="#DejaVuSans-Oblique-20" transform="translate(904.492188 0)"/>
     <use xlink:href="#DejaVuSans-Oblique-61" transform="translate(936.279297 0)"/>
     <use xlink:href="#DejaVuSans-Oblique-6c" transform="translate(997.558594 0)"/>
     <use xlink:href="#DejaVuSans-Oblique-69" transform="translate(1025.341797 0)"/>
     <use xlink:href="#DejaVuSans-Oblique-67" transform="translate(1053.125 0)"/>
     <use xlink:href="#DejaVuSans-Oblique-6e" transform="translate(1116.601562 0)"/>
     <use xlink:href="#DejaVuSans-Oblique-65" transform="translate(1179.980469 0)"/>
     <use xlink:href="#DejaVuSans-Oblique-64" transform="translate(1241.503906 0)"/>
     <use xlink:href="#DejaVuSans-Oblique-20" transform="translate(1304.980469 0)"/>
     <use xlink:href="#DejaVuSans-Oblique-61" transform="translate(1336.767578 0)"/>
     <use xlink:href="#DejaVuSans-Oblique-74" transform="translate(1398.046875 0)"/>
     <use xlink:href="#DejaVuSans-Oblique-20" transform="translate(1437.255859 0)"/>
     <use xlink:href="#DejaVuSans-Oblique-74" transform="translate(1469.042969 0)"/>
     <use xlink:href="#DejaVuSans-Oblique-3d" transform="translate(1508.251953 0)"/>
     <use xlink:href="#DejaVuSans-Oblique-30" transform="translate(1592.041016 0)"/>
    </g>
   </g>
   <g id="line2d_35">
    <path d="M 49.5012 314.622695 
L 60.29576 314.622563 
L 71.09032 314.622692 
L 81.88488 314.621648 
L 92.67944 314.620534 
L 103.474 314.621633 
L 114.26856 314.623498 
L 125.06312 314.625767 
L 135.85768 314.627331 
L 146.65224 314.626295 
L 157.4468 314.625251 
L 168.24136 311.901258 
L 179.03592 294.714109 
L 189.83048 270.05604 
L 200.62504 240.442216 
L 211.4196 220.365277 
L 222.21416 230.278187 
L 233.00872 241.890329 
L 243.80328 253.502471 
L 254.59784 261.299366 
L 265.3924 264.111085 
L 276.18696 282.71857 
L 286.98152 296.4081 
L 297.77608 296.616875 
L 308.57064 295.077456 
L 319.3652 293.536907 
L 330.15976 300.63133 
L 340.95432 311.404181 
L 351.74888 314.621278 
L 362.54344 314.619399 
L 373.338 314.619936 
L 384.13256 314.622578 
L 394.92712 314.624268 
L 405.72168 314.624656 
L 416.51624 314.62325 
L 427.3108 314.621721 
L 438.10536 314.622541 
L 448.89992 314.623282 
L 459.69448 314.622678 
L 470.48904 314.622972 
L 481.2836 314.6244 
L 492.07816 314.624072 
L 502.87272 314.621791 
L 513.66728 314.621322 
L 524.46184 314.624752 
L 535.2564 314.627744 
L 546.05096 314.626602 
L 556.84552 314.623762 
L 567.64008 314.622482 
L 578.43464 314.624126 
L 589.2292 314.624561 
L 600.02376 314.62277 
L 610.81832 314.621988 
L 621.61288 314.622728 
L 632.40744 314.62393 
L 643.202 314.623712 
L 653.99656 314.622732 
L 664.79112 314.622702 
L 675.58568 314.622373 
L 686.38024 314.621396 
L 697.1748 314.620968 
" clip-path="url(#p537e9429e1)" style="fill: none; stroke: #4c72b0; stroke-width: 2; stroke-linecap: round"/>
   </g>
   <g id="legend_1">
    <g id="patch_7">
     <path d="M 566.425894 96.84765 
L 690.8748 96.84765 
Q 692.6748 96.84765 692.6748 95.04765 
L 692.6748 43.1064 
Q 692.6748 41.3064 690.8748 41.3064 
L 566.425894 41.3064 
Q 564.625894 41.3064 564.625894 43.1064 
L 564.625894 95.04765 
Q 564.625894 96.84765 566.425894 96.84765 
z
" style="fill: #ffffff; opacity: 0.9; stroke: #cccccc; stroke-width: 0.8; stroke-linejoin: miter"/>
    </g>
    <g id="patch_8">
     <path d="M 568.225894 51.744994 
L 586.225894 51.744994 
L 586.225894 45.444994 
L 568.225894 45.444994 
z
" style="fill: #4c72b0; fill-opacity: 0.25; stroke: #4c72b0; stroke-opacity: 0.25; stroke-width: 0.8; stroke-linejoin: miter"/>
    </g>
    <g id="text_16">
     <!-- IQR (P25–P75) -->
     <g style="fill: #262626" transform="translate(593.425894 51.744994) scale(0.09 -0.09)">
      <defs>
       <path id="DejaVuSans-49" d="M 628 4666 
L 1259 4666 
L 1259 0 
L 628 0 
L 628 4666 
z
" transform="scale(0.015625)"/>
       <path id="DejaVuSans-51" d="M 2522 4238 
Q 1834 4238 1429 3725 
Q 1025 3213 1025 2328 
Q 1025 1447 1429 934 
Q 1834 422 2522 422 
Q 3209 422 3611 934 
Q 4013 1447 4013 2328 
Q 4013 3213 3611 3725 
Q 3209 4238 2522 4238 
z
M 3406 84 
L 4238 -825 
L 3475 -825 
L 2784 -78 
Q 2681 -84 2626 -87 
Q 2572 -91 2522 -91 
Q 1538 -91 948 567 
Q 359 1225 359 2328 
Q 359 3434 948 4092 
Q 1538 4750 2522 4750 
Q 3503 4750 4090 4092 
Q 4678 3434 4678 2328 
Q 4678 1516 4351 937 
Q 4025 359 3406 84 
z
" transform="scale(0.015625)"/>
       <path id="DejaVuSans-2013" d="M 313 1978 
L 2888 1978 
L 2888 1528 
L 313 1528 
L 313 1978 
z
" transform="scale(0.015625)"/>
       <path id="DejaVuSans-37" d="M 525 4666 
L 3525 4666 
L 3525 4397 
L 1831 0 
L 1172 0 
L 2766 4134 
L 525 4134 
L 525 4666 
z
" transform="scale(0.015625)"/>
      </defs>
      <use xlink:href="#DejaVuSans-49"/>
      <use xlink:href="#DejaVuSans-51" transform="translate(29.492188 0)"/>
      <use xlink:href="#DejaVuSans-52" transform="translate(108.203125 0)"/>
      <use xlink:href="#DejaVuSans-20" transform="translate(177.685547 0)"/>
      <use xlink:href="#DejaVuSans-28" transform="translate(209.472656 0)"/>
      <use xlink:href="#DejaVuSans-50" transform="translate(248.486328 0)"/>
      <use xlink:href="#DejaVuSans-32" transform="translate(308.789062 0)"/>
      <use xlink:href="#DejaVuSans-35" transform="translate(372.412109 0)"/>
      <use xlink:href="#DejaVuSans-2013" transform="translate(436.035156 0)"/>
      <use xlink:href="#DejaVuSans-50" transform="translate(486.035156 0)"/>
      <use xlink:href="#DejaVuSans-37" transform="translate(546.337891 0)"/>
      <use xlink:href="#DejaVuSans-35" transform="translate(609.960938 0)"/>
      <use xlink:href="#DejaVuSans-29" transform="translate(673.583984 0)"/>
     </g>
    </g>
    <g id="line2d_36">
     <path d="M 568.225894 61.805306 
L 577.225894 61.805306 
L 586.225894 61.805306 
" style="fill: none; stroke: #4c72b0; stroke-width: 2; stroke-linecap: round"/>
    </g>
    <g id="text_17">
     <!-- Mean RTT -->
     <g style="fill: #262626" transform="translate(593.425894 64.955306) scale(0.09 -0.09)">
      <defs>
       <path id="DejaVuSans-4d" d="M 628 4666 
L 1569 4666 
L 2759 1491 
L 3956 4666 
L 4897 4666 
L 4897 0 
L 4281 0 
L 4281 4097 
L 3078 897 
L 2444 897 
L 1241 4097 
L 1241 0 
L 628 0 
L 628 4666 
z
" transform="scale(0.015625)"/>
      </defs>
      <use xlink:href="#DejaVuSans-4d"/>
      <use xlink:href="#DejaVuSans-65" transform="translate(86.279297 0)"/>
      <use xlink:href="#DejaVuSans-61" transform="translate(147.802734 0)"/>
      <use xlink:href="#DejaVuSans-6e" transform="translate(209.082031 0)"/>
      <use xlink:href="#DejaVuSans-20" transform="translate(272.460938 0)"/>
      <use xlink:href="#DejaVuSans-52" transform="translate(304.248047 0)"/>
      <use xlink:href="#DejaVuSans-54" transform="translate(366.480469 0)"/>
      <use xlink:href="#DejaVuSans-54" transform="translate(425.814453 0)"/>
     </g>
    </g>
    <g id="line2d_37">
     <path d="M 568.225894 75.015619 
L 577.225894 75.015619 
L 586.225894 75.015619 
" style="fill: none; stroke-dasharray: 5.55,2.4; stroke-dashoffset: 0; stroke: #e53935; stroke-width: 1.5"/>
    </g>
    <g id="text_18">
     <!-- Migration start -->
     <g style="fill: #262626" transform="translate(593.425894 78.165619) scale(0.09 -0.09)">
      <use xlink:href="#DejaVuSans-4d"/>
      <use xlink:href="#DejaVuSans-69" transform="translate(86.279297 0)"/>
      <use xlink:href="#DejaVuSans-67" transform="translate(114.0625 0)"/>
      <use xlink:href="#DejaVuSans-72" transform="translate(177.539062 0)"/>
      <use xlink:href="#DejaVuSans-61" transform="translate(218.652344 0)"/>
      <use xlink:href="#DejaVuSans-74" transform="translate(279.931641 0)"/>
      <use xlink:href="#DejaVuSans-69" transform="translate(319.140625 0)"/>
      <use xlink:href="#DejaVuSans-6f" transform="translate(346.923828 0)"/>
      <use xlink:href="#DejaVuSans-6e" transform="translate(408.105469 0)"/>
      <use xlink:href="#DejaVuSans-20" transform="translate(471.484375 0)"/>
      <use xlink:href="#DejaVuSans-73" transform="translate(503.271484 0)"/>
      <use xlink:href="#DejaVuSans-74" transform="translate(555.371094 0)"/>
      <use xlink:href="#DejaVuSans-61" transform="translate(594.580078 0)"/>
      <use xlink:href="#DejaVuSans-72" transform="translate(655.859375 0)"/>
      <use xlink:href="#DejaVuSans-74" transform="translate(696.972656 0)"/>
     </g>
    </g>
    <g id="line2d_38">
     <path d="M 568.225894 88.225931 
L 577.225894 88.225931 
L 586.225894 88.225931 
" style="fill: none; stroke-dasharray: 1.2,1.98; stroke-dashoffset: 0; stroke: #ff9800; stroke-width: 1.2"/>
    </g>
    <g id="text_19">
     <!-- Mean recovery (3.9s) -->
     <g style="fill: #262626" transform="translate(593.425894 91.375931) scale(0.09 -0.09)">
      <defs>
       <path id="DejaVuSans-63" d="M 3122 3366 
L 3122 2828 
Q 2878 2963 2633 3030 
Q 2388 3097 2138 3097 
Q 1578 3097 1268 2742 
Q 959 2388 959 1747 
Q 959 1106 1268 751 
Q 1578 397 2138 397 
Q 2388 397 2633 464 
Q 2878 531 3122 666 
L 3122 134 
Q 2881 22 2623 -34 
Q 2366 -91 2075 -91 
Q 1284 -91 818 406 
Q 353 903 353 1747 
Q 353 2603 823 3093 
Q 1294 3584 2113 3584 
Q 2378 3584 2631 3529 
Q 2884 3475 3122 3366 
z
" transform="scale(0.015625)"/>
       <path id="DejaVuSans-79" d="M 2059 -325 
Q 1816 -950 1584 -1140 
Q 1353 -1331 966 -1331 
L 506 -1331 
L 506 -850 
L 844 -850 
Q 1081 -850 1212 -737 
Q 1344 -625 1503 -206 
L 1606 56 
L 191 3500 
L 800 3500 
L 1894 763 
L 2988 3500 
L 3597 3500 
L 2059 -325 
z
" transform="scale(0.015625)"/>
       <path id="DejaVuSans-2e" d="M 684 794 
L 1344 794 
L 1344 0 
L 684 0 
L 684 794 
z
" transform="scale(0.015625)"/>
       <path id="DejaVuSans-39" d="M 703 97 
L 703 672 
Q 941 559 1184 500 
Q 1428 441 1663 441 
Q 2288 441 2617 861 
Q 2947 1281 2994 2138 
Q 2813 1869 2534 1725 
Q 2256 1581 1919 1581 
Q 1219 1581 811 2004 
Q 403 2428 403 3163 
Q 403 3881 828 4315 
Q 1253 4750 1959 4750 
Q 2769 4750 3195 4129 
Q 3622 3509 3622 2328 
Q 3622 1225 3098 567 
Q 2575 -91 1691 -91 
Q 1453 -91 1209 -44 
Q 966 3 703 97 
z
M 1959 2075 
Q 2384 2075 2632 2365 
Q 2881 2656 2881 3163 
Q 2881 3666 2632 3958 
Q 2384 4250 1959 4250 
Q 1534 4250 1286 3958 
Q 1038 3666 1038 3163 
Q 1038 2656 1286 2365 
Q 1534 2075 1959 2075 
z
" transform="scale(0.015625)"/>
      </defs>
      <use xlink:href="#DejaVuSans-4d"/>
      <use xlink:href="#DejaVuSans-65" transform="translate(86.279297 0)"/>
      <use xlink:href="#DejaVuSans-61" transform="translate(147.802734 0)"/>
      <use xlink:href="#DejaVuSans-6e" transform="translate(209.082031 0)"/>
      <use xlink:href="#DejaVuSans-20" transform="translate(272.460938 0)"/>
      <use xlink:href="#DejaVuSans-72" transform="translate(304.248047 0)"/>
      <use xlink:href="#DejaVuSans-65" transform="translate(343.111328 0)"/>
      <use xlink:href="#DejaVuSans-63" transform="translate(404.634766 0)"/>
      <use xlink:href="#DejaVuSans-6f" transform="translate(459.615234 0)"/>
      <use xlink:href="#DejaVuSans-76" transform="translate(520.796875 0)"/>
      <use xlink:href="#DejaVuSans-65" transform="translate(579.976562 0)"/>
      <use xlink:href="#DejaVuSans-72" transform="translate(641.5 0)"/>
      <use xlink:href="#DejaVuSans-79" transform="translate(682.613281 0)"/>
      <use xlink:href="#DejaVuSans-20" transform="translate(741.792969 0)"/>
      <use xlink:href="#DejaVuSans-28" transform="translate(773.580078 0)"/>
      <use xlink:href="#DejaVuSans-33" transform="translate(812.59375 0)"/>
      <use xlink:href="#DejaVuSans-2e" transform="translate(876.216797 0)"/>
      <use xlink:href="#DejaVuSans-39" transform="translate(908.003906 0)"/>
      <use xlink:href="#DejaVuSans-73" transform="translate(971.626953 0)"/>
      <use xlink:href="#DejaVuSans-29" transform="translate(1023.726562 0)"/>
     </g>
    </g>
   </g>
  </g>
  <g id="text_20">
   <!-- Ensemble RTT Recovery Profile -->
   <g style="fill: #262626" transform="translate(239.442765 17.26641) scale(0.13248 -0.13248)">
    <defs>
     <path id="DejaVuSans-Bold-45" d="M 588 4666 
L 3834 4666 
L 3834 3756 
L 1791 3756 
L 1791 2888 
L 3713 2888 
L 3713 1978 
L 1791 1978 
L 1791 909 
L 3903 909 
L 3903 0 
L 588 0 
L 588 4666 
z
" transform="scale(0.015625)"/>
     <path id="DejaVuSans-Bold-6e" d="M 4056 2131 
L 4056 0 
L 2931 0 
L 2931 347 
L 2931 1631 
Q 2931 2084 2911 2256 
Q 2891 2428 2841 2509 
Q 2775 2619 2662 2680 
Q 2550 2741 2406 2741 
Q 2056 2741 1856 2470 
Q 1656 2200 1656 1722 
L 1656 0 
L 538 0 
L 538 3500 
L 1656 3500 
L 1656 2988 
Q 1909 3294 2193 3439 
Q 2478 3584 2822 3584 
Q 3428 3584 3742 3212 
Q 4056 2841 4056 2131 
z
" transform="scale(0.015625)"/>
     <path id="DejaVuSans-Bold-73" d="M 3272 3391 
L 3272 2541 
Q 2913 2691 2578 2766 
Q 2244 2841 1947 2841 
Q 1628 2841 1473 2761 
Q 1319 2681 1319 2516 
Q 1319 2381 1436 2309 
Q 1553 2238 1856 2203 
L 2053 2175 
Q 2913 2066 3209 1816 
Q 3506 1566 3506 1031 
Q 3506 472 3093 190 
Q 2681 -91 1863 -91 
Q 1516 -91 1145 -36 
Q 775 19 384 128 
L 384 978 
Q 719 816 1070 734 
Q 1422 653 1784 653 
Q 2113 653 2278 743 
Q 2444 834 2444 1013 
Q 2444 1163 2330 1236 
Q 2216 1309 1875 1350 
L 1678 1375 
Q 931 1469 631 1722 
Q 331 1975 331 2491 
Q 331 3047 712 3315 
Q 1094 3584 1881 3584 
Q 2191 3584 2531 3537 
Q 2872 3491 3272 3391 
z
" transform="scale(0.015625)"/>
     <path id="DejaVuSans-Bold-65" d="M 4031 1759 
L 4031 1441 
L 1416 1441 
Q 1456 1047 1700 850 
Q 1944 653 2381 653 
Q 2734 653 3104 758 
Q 3475 863 3866 1075 
L 3866 213 
Q 3469 63 3072 -14 
Q 2675 -91 2278 -91 
Q 1328 -91 801 392 
Q 275 875 275 1747 
Q 275 2603 792 3093 
Q 1309 3584 2216 3584 
Q 3041 3584 3536 3087 
Q 4031 2591 4031 1759 
z
M 2881 2131 
Q 2881 2450 2695 2645 
Q 2509 2841 2209 2841 
Q 1884 2841 1681 2658 
Q 1478 2475 1428 2131 
L 2881 2131 
z
" transform="scale(0.015625)"/>
     <path id="DejaVuSans-Bold-6d" d="M 3781 2919 
Q 3994 3244 4286 3414 
Q 4578 3584 4928 3584 
Q 5531 3584 5847 3212 
Q 6163 2841 6163 2131 
L 6163 0 
L 5038 0 
L 5038 1825 
Q 5041 1866 5042 1909 
Q 5044 1953 5044 2034 
Q 5044 2406 4934 2573 
Q 4825 2741 4581 2741 
Q 4263 2741 4089 2478 
Q 3916 2216 3909 1719 
L 3909 0 
L 2784 0 
L 2784 1825 
Q 2784 2406 2684 2573 
Q 2584 2741 2328 2741 
Q 2006 2741 1831 2477 
Q 1656 2213 1656 1722 
L 1656 0 
L 531 0 
L 531 3500 
L 1656 3500 
L 1656 2988 
Q 1863 3284 2130 3434 
Q 2397 3584 2719 3584 
Q 3081 3584 3359 3409 
Q 3638 3234 3781 2919 
z
" transform="scale(0.015625)"/>
     <path id="DejaVuSans-Bold-62" d="M 2400 722 
Q 2759 722 2948 984 
Q 3138 1247 3138 1747 
Q 3138 2247 2948 2509 
Q 2759 2772 2400 2772 
Q 2041 2772 1848 2508 
Q 1656 2244 1656 1747 
Q 1656 1250 1848 986 
Q 2041 722 2400 722 
z
M 1656 2988 
Q 1888 3294 2169 3439 
Q 2450 3584 2816 3584 
Q 3463 3584 3878 3070 
Q 4294 2556 4294 1747 
Q 4294 938 3878 423 
Q 3463 -91 2816 -91 
Q 2450 -91 2169 54 
Q 1888 200 1656 506 
L 1656 0 
L 538 0 
L 538 4863 
L 1656 4863 
L 1656 2988 
z
" transform="scale(0.015625)"/>
     <path id="DejaVuSans-Bold-6c" d="M 538 4863 
L 1656 4863 
L 1656 0 
L 538 0 
L 538 4863 
z
" transform="scale(0.015625)"/>
     <path id="DejaVuSans-Bold-20" transform="scale(0.015625)"/>
     <path id="DejaVuSans-Bold-52" d="M 2297 2597 
Q 2675 2597 2839 2737 
Q 3003 2878 3003 3200 
Q 3003 3519 2839 3656 
Q 2675 3794 2297 3794 
L 1791 3794 
L 1791 2597 
L 2297 2597 
z
M 1791 1766 
L 1791 0 
L 588 0 
L 588 4666 
L 2425 4666 
Q 3347 4666 3776 4356 
Q 4206 4047 4206 3378 
Q 4206 2916 3982 2619 
Q 3759 2322 3309 2181 
Q 3556 2125 3751 1926 
Q 3947 1728 4147 1325 
L 4800 0 
L 3519 0 
L 2950 1159 
Q 2778 1509 2601 1637 
Q 2425 1766 2131 1766 
L 1791 1766 
z
" transform="scale(0.015625)"/>
     <path id="DejaVuSans-Bold-54" d="M 31 4666 
L 4331 4666 
L 4331 3756 
L 2784 3756 
L 2784 0 
L 1581 0 
L 1581 3756 
L 31 3756 
L 31 4666 
z
" transform="scale(0.015625)"/>
     <path id="DejaVuSans-Bold-63" d="M 3366 3391 
L 3366 2478 
Q 3138 2634 2908 2709 
Q 2678 2784 2431 2784 
Q 1963 2784 1702 2511 
Q 1441 2238 1441 1747 
Q 1441 1256 1702 982 
Q 1963 709 2431 709 
Q 2694 709 2930 787 
Q 3166 866 3366 1019 
L 3366 103 
Q 3103 6 2833 -42 
Q 2563 -91 2291 -91 
Q 1344 -91 809 395 
Q 275 881 275 1747 
Q 275 2613 809 3098 
Q 1344 3584 2291 3584 
Q 2566 3584 2833 3536 
Q 3100 3488 3366 3391 
z
" transform="scale(0.015625)"/>
     <path id="DejaVuSans-Bold-6f" d="M 2203 2784 
Q 1831 2784 1636 2517 
Q 1441 2250 1441 1747 
Q 1441 1244 1636 976 
Q 1831 709 2203 709 
Q 2569 709 2762 976 
Q 2956 1244 2956 1747 
Q 2956 2250 2762 2517 
Q 2569 2784 2203 2784 
z
M 2203 3584 
Q 3106 3584 3614 3096 
Q 4122 2609 4122 1747 
Q 4122 884 3614 396 
Q 3106 -91 2203 -91 
Q 1297 -91 786 396 
Q 275 884 275 1747 
Q 275 2609 786 3096 
Q 1297 3584 2203 3584 
z
" transform="scale(0.015625)"/>
     <path id="DejaVuSans-Bold-76" d="M 97 3500 
L 1216 3500 
L 2088 1081 
L 2956 3500 
L 4078 3500 
L 2700 0 
L 1472 0 
L 97 3500 
z
" transform="scale(0.015625)"/>
     <path id="DejaVuSans-Bold-72" d="M 3138 2547 
Q 2991 2616 2845 2648 
Q 2700 2681 2553 2681 
Q 2122 2681 1889 2404 
Q 1656 2128 1656 1613 
L 1656 0 
L 538 0 
L 538 3500 
L 1656 3500 
L 1656 2925 
Q 1872 3269 2151 3426 
Q 2431 3584 2822 3584 
Q 2878 3584 2943 3579 
Q 3009 3575 3134 3559 
L 3138 2547 
z
" transform="scale(0.015625)"/>
     <path id="DejaVuSans-Bold-79" d="M 78 3500 
L 1197 3500 
L 2138 1125 
L 2938 3500 
L 4056 3500 
L 2584 -331 
Q 2363 -916 2067 -1148 
Q 1772 -1381 1288 -1381 
L 641 -1381 
L 641 -647 
L 991 -647 
Q 1275 -647 1404 -556 
Q 1534 -466 1606 -231 
L 1638 -134 
L 78 3500 
z
" transform="scale(0.015625)"/>
     <path id="DejaVuSans-Bold-50" d="M 588 4666 
L 2584 4666 
Q 3475 4666 3951 4270 
Q 4428 3875 4428 3144 
Q 4428 2409 3951 2014 
Q 3475 1619 2584 1619 
L 1791 1619 
L 1791 0 
L 588 0 
L 588 4666 
z
M 1791 3794 
L 1791 2491 
L 2456 2491 
Q 2806 2491 2997 2661 
Q 3188 2831 3188 3144 
Q 3188 3456 2997 3625 
Q 2806 3794 2456 3794 
L 1791 3794 
z
" transform="scale(0.015625)"/>
     <path id="DejaVuSans-Bold-66" d="M 2841 4863 
L 2841 4128 
L 2222 4128 
Q 1984 4128 1890 4042 
Q 1797 3956 1797 3744 
L 1797 3500 
L 2753 3500 
L 2753 2700 
L 1797 2700 
L 1797 0 
L 678 0 
L 678 2700 
L 122 2700 
L 122 3500 
L 678 3500 
L 678 3744 
Q 678 4316 997 4589 
Q 1316 4863 1984 4863 
L 2841 4863 
z
" transform="scale(0.015625)"/>
     <path id="DejaVuSans-Bold-69" d="M 538 3500 
L 1656 3500 
L 1656 0 
L 538 0 
L 538 3500 
z
M 538 4863 
L 1656 4863 
L 1656 3950 
L 538 3950 
L 538 4863 
z
" transform="scale(0.015625)"/>
    </defs>
    <use xlink:href="#DejaVuSans-Bold-45"/>
    <use xlink:href="#DejaVuSans-Bold-6e" transform="translate(68.310547 0)"/>
    <use xlink:href="#DejaVuSans-Bold-73" transform="translate(139.501953 0)"/>
    <use xlink:href="#DejaVuSans-Bold-65" transform="translate(199.023438 0)"/>
    <use xlink:href="#DejaVuSans-Bold-6d" transform="translate(266.845703 0)"/>
    <use xlink:href="#DejaVuSans-Bold-62" transform="translate(371.044922 0)"/>
    <use xlink:href="#DejaVuSans-Bold-6c" transform="translate(442.626953 0)"/>
    <use xlink:href="#DejaVuSans-Bold-65" transform="translate(476.904297 0)"/>
    <use xlink:href="#DejaVuSans-Bold-20" transform="translate(544.726562 0)"/>
    <use xlink:href="#DejaVuSans-Bold-52" transform="translate(579.541016 0)"/>
    <use xlink:href="#DejaVuSans-Bold-54" transform="translate(652.042969 0)"/>
    <use xlink:href="#DejaVuSans-Bold-54" transform="translate(722.505859 0)"/>
    <use xlink:href="#DejaVuSans-Bold-20" transform="translate(790.71875 0)"/>
    <use xlink:href="#DejaVuSans-Bold-52" transform="translate(825.533203 0)"/>
    <use xlink:href="#DejaVuSans-Bold-65" transform="translate(902.535156 0)"/>
    <use xlink:href="#DejaVuSans-Bold-63" transform="translate(970.357422 0)"/>
    <use xlink:href="#DejaVuSans-Bold-6f" transform="translate(1029.634766 0)"/>
    <use xlink:href="#DejaVuSans-Bold-76" transform="translate(1098.335938 0)"/>
    <use xlink:href="#DejaVuSans-Bold-65" transform="translate(1163.521484 0)"/>
    <use xlink:href="#DejaVuSans-Bold-72" transform="translate(1231.34375 0)"/>
    <use xlink:href="#DejaVuSans-Bold-79" transform="translate(1280.660156 0)"/>
    <use xlink:href="#DejaVuSans-Bold-20" transform="translate(1345.845703 0)"/>
    <use xlink:href="#DejaVuSans-Bold-50" transform="translate(1380.660156 0)"/>
    <use xlink:href="#DejaVuSans-Bold-72" transform="translate(1453.951172 0)"/>
    <use xlink:href="#DejaVuSans-Bold-6f" transform="translate(1503.267578 0)"/>
    <use xlink:href="#DejaVuSans-Bold-66" transform="translate(1571.96875 0)"/>
    <use xlink:href="#DejaVuSans-Bold-69" transform="translate(1615.474609 0)"/>
    <use xlink:href="#DejaVuSans-Bold-6c" transform="translate(1649.751953 0)"/>
    <use xlink:href="#DejaVuSans-Bold-65" transform="translate(1684.029297 0)"/>
   </g>
  </g>
 </g>
 <defs>
  <clipPath id="p537e9429e1">
   <rect x="49.5012" y="36.8064" width="647.6736" height="278.0904"/>
  </clipPath>
 </defs>
</svg>
