<?xml version="1.0" encoding="utf-8" standalone="no"?>
<!DOCTYPE svg PUBLIC "-//W3C//DTD SVG 1.1//EN"
  "http://www.w3.org/Graphics/SVG/1.1/DTD/svg11.dtd">
<svg xmlns:xlink="http://www.w3.org/1999/xlink" width="710.5848pt" height="354.875712pt" viewBox="0 0 710.5848 354.875712" xmlns="http://www.w3.org/2000/svg" version="1.1">
 <metadata>
  <rdf:RDF xmlns:dc="http://purl.org/dc/elements/1.1/" xmlns:cc="http://creativecommons.org/ns#" xmlns:rdf="http://www.w3.org/1999/02/22-rdf-syntax-ns#">
   <cc:Work>
    <dc:type rdf:resource="http://purl.org/dc/dcmitype/StillImage"/>
    <dc:date>2026-02-22T20:27:22.514868</dc:date>
    <dc:format>image/svg+xml</dc:format>
    <dc:creator>
     <cc:Agent>
      <dc:title>Matplotlib v3.10.8, https://matplotlib.org/</dc:title>
     </cc:Agent>
    </dc:creator>
   </cc:Work>
  </rdf:RDF>
 </metadata>
 <defs>
  <style type="text/css">*{stroke-linejoin: round; stroke-linecap: butt}</style>
 </defs>
 <g id="figure_1">
  <g id="patch_1">
   <path d="M 0 354.875712 
L 710.5848 354.875712 
L 710.5848 0 
L 0 0 
z
" style="fill: #ffffff"/>
  </g>
  <g id="axes_1">
   <g id="patch_2">
    <path d="M 43.06235 314.8968 
L 696.94595 314.8968 
L 696.94595 36.8064 
L 43.06235 36.8064 
z
" style="fill: #ffffff"/>
   </g>
   <g id="matplotlib.axis_1">
    <g id="xtick_1">
     <g id="line2d_1">
      <path d="M 43.06235 314.8968 
L 43.06235 36.8064 
" clip-path="url(#p68a7d66899)" style="fill: none; stroke: #cccccc; stroke-width: 0.8; stroke-linecap: round"/>
     </g>
     <g id="text_1">
      <!-- −5 -->
      <g style="fill: #262626" transform="translate(35.602803 330.886419) scale(0.1012 -0.1012)">
       <defs>
        <path id="DejaVuSans-2212" d="M 678 2272 
L 4684 2272 
L 4684 1741 
L 678 1741 
L 678 2272 
z
" transform="scale(0.015625)"/>
        <path id="DejaVuSans-35" d="M 691 4666 
L 3169 4666 
L 3169 4134 
L 1269 4134 
L 1269 2991 
Q 1406 3038 1543 3061 
Q 1681 3084 1819 3084 
Q 2600 3084 3056 2656 
Q 3513 2228 3513 1497 
Q 3513 744 3044 326 
Q 2575 -91 1722 -91 
Q 1428 -91 1123 -41 
Q 819 9 494 109 
L 494 744 
Q 775 591 1075 516 
Q 1375 441 1709 441 
Q 2250 441 2565 725 
Q 2881 1009 2881 1497 
Q 2881 1984 2565 2268 
Q 2250 2553 1709 2553 
Q 1456 2553 1204 2497 
Q 953 2441 691 2322 
L 691 4666 
z
" transform="scale(0.015625)"/>
       </defs>
       <use xlink:href="#DejaVuSans-2212"/>
       <use xlink:href="#DejaVuSans-35" transform="translate(83.789062 0)"/>
      </g>
     </g>
    </g>
    <g id="xtick_2">
     <g id="line2d_2">
      <path d="M 152.04295 314.8968 
L 152.04295 36.8064 
" clip-path="url(#p68a7d66899)" style="fill: none; stroke: #cccccc; stroke-width: 0.8; stroke-linecap: round"/>
     </g>
     <g id="text_2">
      <!-- 0 -->
      <g style="fill: #262626" transform="translate(148.823525 330.886419) scale(0.1012 -0.1012)">
       <defs>
        <path id="DejaVuSans-30" d="M 2034 4250 
Q 1547 4250 1301 3770 
Q 1056 3291 1056 2328 
Q 1056 1369 1301 889 
Q 1547 409 2034 409 
Q 2525 409 2770 889 
Q 3016 1369 3016 2328 
Q 3016 3291 2770 3770 
Q 2525 4250 2034 4250 
z
M 2034 4750 
Q 2819 4750 3233 4129 
Q 3647 3509 3647 2328 
Q 3647 1150 3233 529 
Q 2819 -91 2034 -91 
Q 1250 -91 836 529 
Q 422 1150 422 2328 
Q 422 3509 836 4129 
Q 1250 4750 2034 4750 
z
" transform="scale(0.015625)"/>
       </defs>
       <use xlink:href="#DejaVuSans-30"/>
      </g>
     </g>
    </g>
    <g id="xtick_3">
     <g id="line2d_3">
      <path d="M 261.02355 314.8968 
L 261.02355 36.8064 
" clip-path="url(#p68a7d66899)" style="fill: none; stroke: #cccccc; stroke-width: 0.8; stroke-linecap: round"/>
     </g>
     <g id="text_3">
      <!-- 5 -->
      <g style="fill: #262626" transform="translate(257.804125 330.886419) scale(0.1012 -0.1012)">
       <use xlink:href="#DejaVuSans-35"/>
      </g>
     </g>
    </g>
    <g id="xtick_4">
     <g id="line2d_4">
      <path d="M 370.00415 314.8968 
L 370.00415 36.8064 
" clip-path="url(#p68a7d66899)" style="fill: none; stroke: #cccccc; stroke-width: 0.8; stroke-linecap: round"/>
     </g>
     <g id="text_4">
      <!-- 10 -->
      <g style="fill: #262626" transform="translate(363.5653 330.886419) scale(0.1012 -0.1012)">
       <defs>
        <path id="DejaVuSans-31" d="M 794 531 
L 1825 531 
L 1825 4091 
L 703 3866 
L 703 4441 
L 1819 4666 
L 2450 4666 
L 2450 531 
L 3481 531 
L 3481 0 
L 794 0 
L 794 531 
z
" transform="scale(0.015625)"/>
       </defs>
       <use xlink:href="#DejaVuSans-31"/>
       <use xlink:href="#DejaVuSans-30" transform="translate(63.623047 0)"/>
      </g>
     </g>
    </g>
    <g id="xtick_5">
     <g id="line2d_5">
      <path d="M 478.98475 314.8968 
L 478.98475 36.8064 
" clip-path="url(#p68a7d66899)" style="fill: none; stroke: #cccccc; stroke-width: 0.8; stroke-linecap: round"/>
     </g>
     <g id="text_5">
      <!-- 15 -->
      <g style="fill: #262626" transform="translate(472.5459 330.886419) scale(0.1012 -0.1012)">
       <use xlink:href="#DejaVuSans-31"/>
       <use xlink:href="#DejaVuSans-35" transform="translate(63.623047 0)"/>
      </g>
     </g>
    </g>
    <g id="xtick_6">
     <g id="line2d_6">
      <path d="M 587.96535 314.8968 
L 587.96535 36.8064 
" clip-path="url(#p68a7d66899)" style="fill: none; stroke: #cccccc; stroke-width: 0.8; stroke-linecap: round"/>
     </g>
     <g id="text_6">
      <!-- 20 -->
      <g style="fill: #262626" transform="translate(581.5265 330.886419) scale(0.1012 -0.1012)">
       <defs>
        <path id="DejaVuSans-32" d="M 1228 531 
L 3431 531 
L 3431 0 
L 469 0 
L 469 531 
Q 828 903 1448 1529 
Q 2069 2156 2228 2338 
Q 2531 2678 2651 2914 
Q 2772 3150 2772 3378 
Q 2772 3750 2511 3984 
Q 2250 4219 1831 4219 
Q 1534 4219 1204 4116 
Q 875 4013 500 3803 
L 500 4441 
Q 881 4594 1212 4672 
Q 1544 4750 1819 4750 
Q 2544 4750 2975 4387 
Q 3406 4025 3406 3419 
Q 3406 3131 3298 2873 
Q 3191 2616 2906 2266 
Q 2828 2175 2409 1742 
Q 1991 1309 1228 531 
z
" transform="scale(0.015625)"/>
       </defs>
       <use xlink:href="#DejaVuSans-32"/>
       <use xlink:href="#DejaVuSans-30" transform="translate(63.623047 0)"/>
      </g>
     </g>
    </g>
    <g id="xtick_7">
     <g id="line2d_7">
      <path d="M 696.94595 314.8968 
L 696.94595 36.8064 
" clip-path="url(#p68a7d66899)" style="fill: none; stroke: #cccccc; stroke-width: 0.8; stroke-linecap: round"/>
     </g>
     <g id="text_7">
      <!-- 25 -->
      <g style="fill: #262626" transform="translate(690.5071 330.886419) scale(0.1012 -0.1012)">
       <use xlink:href="#DejaVuSans-32"/>
       <use xlink:href="#DejaVuSans-35" transform="translate(63.623047 0)"/>
      </g>
     </g>
    </g>
    <g id="text_8">
     <!-- Time relative to migration start (s) -->
     <g style="fill: #262626" transform="translate(274.68755 345.379737) scale(0.1104 -0.1104)">
      <defs>
       <path id="DejaVuSans-54" d="M -19 4666 
L 3928 4666 
L 3928 4134 
L 2272 4134 
L 2272 0 
L 1638 0 
L 1638 4134 
L -19 4134 
L -19 4666 
z
" transform="scale(0.015625)"/>
       <path id="DejaVuSans-69" d="M 603 3500 
L 1178 3500 
L 1178 0 
L 603 0 
L 603 3500 
z
M 603 4863 
L 1178 4863 
L 1178 4134 
L 603 4134 
L 603 4863 
z
" transform="scale(0.015625)"/>
       <path id="DejaVuSans-6d" d="M 3328 2828 
Q 3544 3216 3844 3400 
Q 4144 3584 4550 3584 
Q 5097 3584 5394 3201 
Q 5691 2819 5691 2113 
L 5691 0 
L 5113 0 
L 5113 2094 
Q 5113 2597 4934 2840 
Q 4756 3084 4391 3084 
Q 3944 3084 3684 2787 
Q 3425 2491 3425 1978 
L 3425 0 
L 2847 0 
L 2847 2094 
Q 2847 2600 2669 2842 
Q 2491 3084 2119 3084 
Q 1678 3084 1418 2786 
Q 1159 2488 1159 1978 
L 1159 0 
L 581 0 
L 581 3500 
L 1159 3500 
L 1159 2956 
Q 1356 3278 1631 3431 
Q 1906 3584 2284 3584 
Q 2666 3584 2933 3390 
Q 3200 3197 3328 2828 
z
" transform="scale(0.015625)"/>
       <path id="DejaVuSans-65" d="M 3597 1894 
L 3597 1613 
L 953 1613 
Q 991 1019 1311 708 
Q 1631 397 2203 397 
Q 2534 397 2845 478 
Q 3156 559 3463 722 
L 3463 178 
Q 3153 47 2828 -22 
Q 2503 -91 2169 -91 
Q 1331 -91 842 396 
Q 353 884 353 1716 
Q 353 2575 817 3079 
Q 1281 3584 2069 3584 
Q 2775 3584 3186 3129 
Q 3597 2675 3597 1894 
z
M 3022 2063 
Q 3016 2534 2758 2815 
Q 2500 3097 2075 3097 
Q 1594 3097 1305 2825 
Q 1016 2553 972 2059 
L 3022 2063 
z
" transform="scale(0.015625)"/>
       <path id="DejaVuSans-20" transform="scale(0.015625)"/>
       <path id="DejaVuSans-72" d="M 2631 2963 
Q 2534 3019 2420 3045 
Q 2306 3072 2169 3072 
Q 1681 3072 1420 2755 
Q 1159 2438 1159 1844 
L 1159 0 
L 581 0 
L 581 3500 
L 1159 3500 
L 1159 2956 
Q 1341 3275 1631 3429 
Q 1922 3584 2338 3584 
Q 2397 3584 2469 3576 
Q 2541 3569 2628 3553 
L 2631 2963 
z
" transform="scale(0.015625)"/>
       <path id="DejaVuSans-6c" d="M 603 4863 
L 1178 4863 
L 1178 0 
L 603 0 
L 603 4863 
z
" transform="scale(0.015625)"/>
       <path id="DejaVuSans-61" d="M 2194 1759 
Q 1497 1759 1228 1600 
Q 959 1441 959 1056 
Q 959 750 1161 570 
Q 1363 391 1709 391 
Q 2188 391 2477 730 
Q 2766 1069 2766 1631 
L 2766 1759 
L 2194 1759 
z
M 3341 1997 
L 3341 0 
L 2766 0 
L 2766 531 
Q 2569 213 2275 61 
Q 1981 -91 1556 -91 
Q 1019 -91 701 211 
Q 384 513 384 1019 
Q 384 1609 779 1909 
Q 1175 2209 1959 2209 
L 2766 2209 
L 2766 2266 
Q 2766 2663 2505 2880 
Q 2244 3097 1772 3097 
Q 1472 3097 1187 3025 
Q 903 2953 641 2809 
L 641 3341 
Q 956 3463 1253 3523 
Q 1550 3584 1831 3584 
Q 2591 3584 2966 3190 
Q 3341 2797 3341 1997 
z
" transform="scale(0.015625)"/>
       <path id="DejaVuSans-74" d="M 1172 4494 
L 1172 3500 
L 2356 3500 
L 2356 3053 
L 1172 3053 
L 1172 1153 
Q 1172 725 1289 603 
Q 1406 481 1766 481 
L 2356 481 
L 2356 0 
L 1766 0 
Q 1100 0 847 248 
Q 594 497 594 1153 
L 594 3053 
L 172 3053 
L 172 3500 
L 594 3500 
L 594 4494 
L 1172 4494 
z
" transform="scale(0.015625)"/>
       <path id="DejaVuSans-76" d="M 191 3500 
L 800 3500 
L 1894 563 
L 2988 3500 
L 3597 3500 
L 2284 0 
L 1503 0 
L 191 3500 
z
" transform="scale(0.015625)"/>
       <path id="DejaVuSans-6f" d="M 1959 3097 
Q 1497 3097 1228 2736 
Q 959 2375 959 1747 
Q 959 1119 1226 758 
Q 1494 397 1959 397 
Q 2419 397 2687 759 
Q 2956 1122 2956 1747 
Q 2956 2369 2687 2733 
Q 2419 3097 1959 3097 
z
M 1959 3584 
Q 2709 3584 3137 3096 
Q 3566 2609 3566 1747 
Q 3566 888 3137 398 
Q 2709 -91 1959 -91 
Q 1206 -91 779 398 
Q 353 888 353 1747 
Q 353 2609 779 3096 
Q 1206 3584 1959 3584 
z
" transform="scale(0.015625)"/>
       <path id="DejaVuSans-67" d="M 2906 1791 
Q 2906 2416 2648 2759 
Q 2391 3103 1925 3103 
Q 1463 3103 1205 2759 
Q 947 2416 947 1791 
Q 947 1169 1205 825 
Q 1463 481 1925 481 
Q 2391 481 2648 825 
Q 2906 1169 2906 1791 
z
M 3481 434 
Q 3481 -459 3084 -895 
Q 2688 -1331 1869 -1331 
Q 1566 -1331 1297 -1286 
Q 1028 -1241 775 -1147 
L 775 -588 
Q 1028 -725 1275 -790 
Q 1522 -856 1778 -856 
Q 2344 -856 2625 -561 
Q 2906 -266 2906 331 
L 2906 616 
Q 2728 306 2450 153 
Q 2172 0 1784 0 
Q 1141 0 747 490 
Q 353 981 353 1791 
Q 353 2603 747 3093 
Q 1141 3584 1784 3584 
Q 2172 3584 2450 3431 
Q 2728 3278 2906 2969 
L 2906 3500 
L 3481 3500 
L 3481 434 
z
" transform="scale(0.015625)"/>
       <path id="DejaVuSans-6e" d="M 3513 2113 
L 3513 0 
L 2938 0 
L 2938 2094 
Q 2938 2591 2744 2837 
Q 2550 3084 2163 3084 
Q 1697 3084 1428 2787 
Q 1159 2491 1159 1978 
L 1159 0 
L 581 0 
L 581 3500 
L 1159 3500 
L 1159 2956 
Q 1366 3272 1645 3428 
Q 1925 3584 2291 3584 
Q 2894 3584 3203 3211 
Q 3513 2838 3513 2113 
z
" transform="scale(0.015625)"/>
       <path id="DejaVuSans-73" d="M 2834 3397 
L 2834 2853 
Q 2591 2978 2328 3040 
Q 2066 3103 1784 3103 
Q 1356 3103 1142 2972 
Q 928 2841 928 2578 
Q 928 2378 1081 2264 
Q 1234 2150 1697 2047 
L 1894 2003 
Q 2506 1872 2764 1633 
Q 3022 1394 3022 966 
Q 3022 478 2636 193 
Q 2250 -91 1575 -91 
Q 1294 -91 989 -36 
Q 684 19 347 128 
L 347 722 
Q 666 556 975 473 
Q 1284 391 1588 391 
Q 1994 391 2212 530 
Q 2431 669 2431 922 
Q 2431 1156 2273 1281 
Q 2116 1406 1581 1522 
L 1381 1569 
Q 847 1681 609 1914 
Q 372 2147 372 2553 
Q 372 3047 722 3315 
Q 1072 3584 1716 3584 
Q 2034 3584 2315 3537 
Q 2597 3491 2834 3397 
z
" transform="scale(0.015625)"/>
       <path id="DejaVuSans-28" d="M 1984 4856 
Q 1566 4138 1362 3434 
Q 1159 2731 1159 2009 
Q 1159 1288 1364 580 
Q 1569 -128 1984 -844 
L 1484 -844 
Q 1016 -109 783 600 
Q 550 1309 550 2009 
Q 550 2706 781 3412 
Q 1013 4119 1484 4856 
L 1984 4856 
z
" transform="scale(0.015625)"/>
       <path id="DejaVuSans-29" d="M 513 4856 
L 1013 4856 
Q 1481 4119 1714 3412 
Q 1947 2706 1947 2009 
Q 1947 1309 1714 600 
Q 1481 -109 1013 -844 
L 513 -844 
Q 928 -128 1133 580 
Q 1338 1288 1338 2009 
Q 1338 2731 1133 3434 
Q 928 4138 513 4856 
z
" transform="scale(0.015625)"/>
      </defs>
      <use xlink:href="#DejaVuSans-54"/>
      <use xlink:href="#DejaVuSans-69" transform="translate(57.958984 0)"/>
      <use xlink:href="#DejaVuSans-6d" transform="translate(85.742188 0)"/>
      <use xlink:href="#DejaVuSans-65" transform="translate(183.154297 0)"/>
      <use xlink:href="#DejaVuSans-20" transform="translate(244.677734 0)"/>
      <use xlink:href="#DejaVuSans-72" transform="translate(276.464844 0)"/>
      <use xlink:href="#DejaVuSans-65" transform="translate(315.328125 0)"/>
      <use xlink:href="#DejaVuSans-6c" transform="translate(376.851562 0)"/>
      <use xlink:href="#DejaVuSans-61" transform="translate(404.634766 0)"/>
      <use xlink:href="#DejaVuSans-74" transform="translate(465.914062 0)"/>
      <use xlink:href="#DejaVuSans-69" transform="translate(505.123047 0)"/>
      <use xlink:href="#DejaVuSans-76" transform="translate(532.90625 0)"/>
      <use xlink:href="#DejaVuSans-65" transform="translate(592.085938 0)"/>
      <use xlink:href="#DejaVuSans-20" transform="translate(653.609375 0)"/>
      <use xlink:href="#DejaVuSans-74" transform="translate(685.396484 0)"/>
      <use xlink:href="#DejaVuSans-6f" transform="translate(724.605469 0)"/>
      <use xlink:href="#DejaVuSans-20" transform="translate(785.787109 0)"/>
      <use xlink:href="#DejaVuSans-6d" transform="translate(817.574219 0)"/>
      <use xlink:href="#DejaVuSans-69" transform="translate(914.986328 0)"/>
      <use xlink:href="#DejaVuSans-67" transform="translate(942.769531 0)"/>
      <use xlink:href="#DejaVuSans-72" transform="translate(1006.246094 0)"/>
      <use xlink:href="#DejaVuSans-61" transform="translate(1047.359375 0)"/>
      <use xlink:href="#DejaVuSans-74" transform="translate(1108.638672 0)"/>
      <use xlink:href="#DejaVuSans-69" transform="translate(1147.847656 0)"/>
      <use xlink:href="#DejaVuSans-6f" transform="translate(1175.630859 0)"/>
      <use xlink:href="#DejaVuSans-6e" transform="translate(1236.8125 0)"/>
      <use xlink:href="#DejaVuSans-20" transform="translate(1300.191406 0)"/>
      <use xlink:href="#DejaVuSans-73" transform="translate(1331.978516 0)"/>
      <use xlink:href="#DejaVuSans-74" transform="translate(1384.078125 0)"/>
      <use xlink:href="#DejaVuSans-61" transform="translate(1423.287109 0)"/>
      <use xlink:href="#DejaVuSans-72" transform="translate(1484.566406 0)"/>
      <use xlink:href="#DejaVuSans-74" transform="translate(1525.679688 0)"/>
      <use xlink:href="#DejaVuSans-20" transform="translate(1564.888672 0)"/>
      <use xlink:href="#DejaVuSans-28" transform="translate(1596.675781 0)"/>
      <use xlink:href="#DejaVuSans-73" transform="translate(1635.689453 0)"/>
      <use xlink:href="#DejaVuSans-29" transform="translate(1687.789062 0)"/>
     </g>
    </g>
   </g>
   <g id="matplotlib.axis_2">
    <g id="ytick_1">
     <g id="line2d_8">
      <path d="M 43.06235 314.8968 
L 696.94595 314.8968 
" clip-path="url(#p68a7d66899)" style="fill: none; stroke: #cccccc; stroke-width: 0.8; stroke-linecap: round"/>
     </g>
     <g id="text_9">
      <!-- 0 -->
      <g style="fill: #262626" transform="translate(28.3235 318.741609) scale(0.1012 -0.1012)">
       <use xlink:href="#DejaVuSans-30"/>
      </g>
     </g>
    </g>
    <g id="ytick_2">
     <g id="line2d_9">
      <path d="M 43.06235 279.966107 
L 696.94595 279.966107 
" clip-path="url(#p68a7d66899)" style="fill: none; stroke: #cccccc; stroke-width: 0.8; stroke-linecap: round"/>
     </g>
     <g id="text_10">
      <!-- 10 -->
      <g style="fill: #262626" transform="translate(21.88465 283.810917) scale(0.1012 -0.1012)">
       <use xlink:href="#DejaVuSans-31"/>
       <use xlink:href="#DejaVuSans-30" transform="translate(63.623047 0)"/>
      </g>
     </g>
    </g>
    <g id="ytick_3">
     <g id="line2d_10">
      <path d="M 43.06235 245.035415 
L 696.94595 245.035415 
" clip-path="url(#p68a7d66899)" style="fill: none; stroke: #cccccc; stroke-width: 0.8; stroke-linecap: round"/>
     </g>
     <g id="text_11">
      <!-- 20 -->
      <g style="fill: #262626" transform="translate(21.88465 248.880224) scale(0.1012 -0.1012)">
       <use xlink:href="#DejaVuSans-32"/>
       <use xlink:href="#DejaVuSans-30" transform="translate(63.623047 0)"/>
      </g>
     </g>
    </g>
    <g id="ytick_4">
     <g id="line2d_11">
      <path d="M 43.06235 210.104722 
L 696.94595 210.104722 
" clip-path="url(#p68a7d66899)" style="fill: none; stroke: #cccccc; stroke-width: 0.8; stroke-linecap: round"/>
     </g>
     <g id="text_12">
      <!-- 30 -->
      <g style="fill: #262626" transform="translate(21.88465 213.949531) scale(0.1012 -0.1012)">
       <defs>
        <path id="DejaVuSans-33" d="M 2597 2516 
Q 3050 2419 3304 2112 
Q 3559 1806 3559 1356 
Q 3559 666 3084 287 
Q 2609 -91 1734 -91 
Q 1441 -91 1130 -33 
Q 819 25 488 141 
L 488 750 
Q 750 597 1062 519 
Q 1375 441 1716 441 
Q 2309 441 2620 675 
Q 2931 909 2931 1356 
Q 2931 1769 2642 2001 
Q 2353 2234 1838 2234 
L 1294 2234 
L 1294 2753 
L 1863 2753 
Q 2328 2753 2575 2939 
Q 2822 3125 2822 3475 
Q 2822 3834 2567 4026 
Q 2313 4219 1838 4219 
Q 1578 4219 1281 4162 
Q 984 4106 628 3988 
L 628 4550 
Q 988 4650 1302 4700 
Q 1616 4750 1894 4750 
Q 2613 4750 3031 4423 
Q 3450 4097 3450 3541 
Q 3450 3153 3228 2886 
Q 3006 2619 2597 2516 
z
" transform="scale(0.015625)"/>
       </defs>
       <use xlink:href="#DejaVuSans-33"/>
       <use xlink:href="#DejaVuSans-30" transform="translate(63.623047 0)"/>
      </g>
     </g>
    </g>
    <g id="ytick_5">
     <g id="line2d_12">
      <path d="M 43.06235 175.174029 
L 696.94595 175.174029 
" clip-path="url(#p68a7d66899)" style="fill: none; stroke: #cccccc; stroke-width: 0.8; stroke-linecap: round"/>
     </g>
     <g id="text_13">
      <!-- 40 -->
      <g style="fill: #262626" transform="translate(21.88465 179.018839) scale(0.1012 -0.1012)">
       <defs>
        <path id="DejaVuSans-34" d="M 2419 4116 
L 825 1625 
L 2419 1625 
L 2419 4116 
z
M 2253 4666 
L 3047 4666 
L 3047 1625 
L 3713 1625 
L 3713 1100 
L 3047 1100 
L 3047 0 
L 2419 0 
L 2419 1100 
L 313 1100 
L 313 1709 
L 2253 4666 
z
" transform="scale(0.015625)"/>
       </defs>
       <use xlink:href="#DejaVuSans-34"/>
       <use xlink:href="#DejaVuSans-30" transform="translate(63.623047 0)"/>
      </g>
     </g>
    </g>
    <g id="ytick_6">
     <g id="line2d_13">
      <path d="M 43.06235 140.243337 
L 696.94595 140.243337 
" clip-path="url(#p68a7d66899)" style="fill: none; stroke: #cccccc; stroke-width: 0.8; stroke-linecap: round"/>
     </g>
     <g id="text_14">
      <!-- 50 -->
      <g style="fill: #262626" transform="translate(21.88465 144.088146) scale(0.1012 -0.1012)">
       <use xlink:href="#DejaVuSans-35"/>
       <use xlink:href="#DejaVuSans-30" transform="translate(63.623047 0)"/>
      </g>
     </g>
    </g>
    <g id="ytick_7">
     <g id="line2d_14">
      <path d="M 43.06235 105.312644 
L 696.94595 105.312644 
" clip-path="url(#p68a7d66899)" style="fill: none; stroke: #cccccc; stroke-width: 0.8; stroke-linecap: round"/>
     </g>
     <g id="text_15">
      <!-- 60 -->
      <g style="fill: #262626" transform="translate(21.88465 109.157454) scale(0.1012 -0.1012)">
       <defs>
        <path id="DejaVuSans-36" d="M 2113 2584 
Q 1688 2584 1439 2293 
Q 1191 2003 1191 1497 
Q 1191 994 1439 701 
Q 1688 409 2113 409 
Q 2538 409 2786 701 
Q 3034 994 3034 1497 
Q 3034 2003 2786 2293 
Q 2538 2584 2113 2584 
z
M 3366 4563 
L 3366 3988 
Q 3128 4100 2886 4159 
Q 2644 4219 2406 4219 
Q 1781 4219 1451 3797 
Q 1122 3375 1075 2522 
Q 1259 2794 1537 2939 
Q 1816 3084 2150 3084 
Q 2853 3084 3261 2657 
Q 3669 2231 3669 1497 
Q 3669 778 3244 343 
Q 2819 -91 2113 -91 
Q 1303 -91 875 529 
Q 447 1150 447 2328 
Q 447 3434 972 4092 
Q 1497 4750 2381 4750 
Q 2619 4750 2861 4703 
Q 3103 4656 3366 4563 
z
" transform="scale(0.015625)"/>
       </defs>
       <use xlink:href="#DejaVuSans-36"/>
       <use xlink:href="#DejaVuSans-30" transform="translate(63.623047 0)"/>
      </g>
     </g>
    </g>
    <g id="ytick_8">
     <g id="line2d_15">
      <path d="M 43.06235 70.381952 
L 696.94595 70.381952 
" clip-path="url(#p68a7d66899)" style="fill: none; stroke: #cccccc; stroke-width: 0.8; stroke-linecap: round"/>
     </g>
     <g id="text_16">
      <!-- 70 -->
      <g style="fill: #262626" transform="translate(21.88465 74.226761) scale(0.1012 -0.1012)">
       <defs>
        <path id="DejaVuSans-37" d="M 525 4666 
L 3525 4666 
L 3525 4397 
L 1831 0 
L 1172 0 
L 2766 4134 
L 525 4134 
L 525 4666 
z
" transform="scale(0.015625)"/>
       </defs>
       <use xlink:href="#DejaVuSans-37"/>
       <use xlink:href="#DejaVuSans-30" transform="translate(63.623047 0)"/>
      </g>
     </g>
    </g>
    <g id="text_17">
     <!-- Throughput (KB/s) -->
     <g style="fill: #262626" transform="translate(15.588675 226.115512) rotate(-90) scale(0.1104 -0.1104)">
      <defs>
       <path id="DejaVuSans-68" d="M 3513 2113 
L 3513 0 
L 2938 0 
L 2938 2094 
Q 2938 2591 2744 2837 
Q 2550 3084 2163 3084 
Q 1697 3084 1428 2787 
Q 1159 2491 1159 1978 
L 1159 0 
L 581 0 
L 581 4863 
L 1159 4863 
L 1159 2956 
Q 1366 3272 1645 3428 
Q 1925 3584 2291 3584 
Q 2894 3584 3203 3211 
Q 3513 2838 3513 2113 
z
" transform="scale(0.015625)"/>
       <path id="DejaVuSans-75" d="M 544 1381 
L 544 3500 
L 1119 3500 
L 1119 1403 
Q 1119 906 1312 657 
Q 1506 409 1894 409 
Q 2359 409 2629 706 
Q 2900 1003 2900 1516 
L 2900 3500 
L 3475 3500 
L 3475 0 
L 2900 0 
L 2900 538 
Q 2691 219 2414 64 
Q 2138 -91 1772 -91 
Q 1169 -91 856 284 
Q 544 659 544 1381 
z
M 1991 3584 
L 1991 3584 
z
" transform="scale(0.015625)"/>
       <path id="DejaVuSans-70" d="M 1159 525 
L 1159 -1331 
L 581 -1331 
L 581 3500 
L 1159 3500 
L 1159 2969 
Q 1341 3281 1617 3432 
Q 1894 3584 2278 3584 
Q 2916 3584 3314 3078 
Q 3713 2572 3713 1747 
Q 3713 922 3314 415 
Q 2916 -91 2278 -91 
Q 1894 -91 1617 61 
Q 1341 213 1159 525 
z
M 3116 1747 
Q 3116 2381 2855 2742 
Q 2594 3103 2138 3103 
Q 1681 3103 1420 2742 
Q 1159 2381 1159 1747 
Q 1159 1113 1420 752 
Q 1681 391 2138 391 
Q 2594 391 2855 752 
Q 3116 1113 3116 1747 
z
" transform="scale(0.015625)"/>
       <path id="DejaVuSans-4b" d="M 628 4666 
L 1259 4666 
L 1259 2694 
L 3353 4666 
L 4166 4666 
L 1850 2491 
L 4331 0 
L 3500 0 
L 1259 2247 
L 1259 0 
L 628 0 
L 628 4666 
z
" transform="scale(0.015625)"/>
       <path id="DejaVuSans-42" d="M 1259 2228 
L 1259 519 
L 2272 519 
Q 2781 519 3026 730 
Q 3272 941 3272 1375 
Q 3272 1813 3026 2020 
Q 2781 2228 2272 2228 
L 1259 2228 
z
M 1259 4147 
L 1259 2741 
L 2194 2741 
Q 2656 2741 2882 2914 
Q 3109 3088 3109 3444 
Q 3109 3797 2882 3972 
Q 2656 4147 2194 4147 
L 1259 4147 
z
M 628 4666 
L 2241 4666 
Q 2963 4666 3353 4366 
Q 3744 4066 3744 3513 
Q 3744 3084 3544 2831 
Q 3344 2578 2956 2516 
Q 3422 2416 3680 2098 
Q 3938 1781 3938 1306 
Q 3938 681 3513 340 
Q 3088 0 2303 0 
L 628 0 
L 628 4666 
z
" transform="scale(0.015625)"/>
       <path id="DejaVuSans-2f" d="M 1625 4666 
L 2156 4666 
L 531 -594 
L 0 -594 
L 1625 4666 
z
" transform="scale(0.015625)"/>
      </defs>
      <use xlink:href="#DejaVuSans-54"/>
      <use xlink:href="#DejaVuSans-68" transform="translate(61.083984 0)"/>
      <use xlink:href="#DejaVuSans-72" transform="translate(124.462891 0)"/>
      <use xlink:href="#DejaVuSans-6f" transform="translate(163.326172 0)"/>
      <use xlink:href="#DejaVuSans-75" transform="translate(224.507812 0)"/>
      <use xlink:href="#DejaVuSans-67" transform="translate(287.886719 0)"/>
      <use xlink:href="#DejaVuSans-68" transform="translate(351.363281 0)"/>
      <use xlink:href="#DejaVuSans-70" transform="translate(414.742188 0)"/>
      <use xlink:href="#DejaVuSans-75" transform="translate(478.21875 0)"/>
      <use xlink:href="#DejaVuSans-74" transform="translate(541.597656 0)"/>
      <use xlink:href="#DejaVuSans-20" transform="translate(580.806641 0)"/>
      <use xlink:href="#DejaVuSans-28" transform="translate(612.59375 0)"/>
      <use xlink:href="#DejaVuSans-4b" transform="translate(651.607422 0)"/>
      <use xlink:href="#DejaVuSans-42" transform="translate(717.183594 0)"/>
      <use xlink:href="#DejaVuSans-2f" transform="translate(785.787109 0)"/>
      <use xlink:href="#DejaVuSans-73" transform="translate(819.478516 0)"/>
      <use xlink:href="#DejaVuSans-29" transform="translate(871.578125 0)"/>
     </g>
    </g>
   </g>
   <g id="FillBetweenPolyCollection_1">
    <defs>
     <path id="ma64bc5db8a" d="M 43.06235 -285.312449 
L 43.06235 -284.903105 
L 53.96041 -284.903105 
L 64.85847 -284.903105 
L 75.75653 -284.903105 
L 86.65459 -284.903105 
L 97.55265 -284.903105 
L 108.45071 -284.903105 
L 119.34877 -284.868993 
L 130.24683 -278.269362 
L 141.14489 -266.707756 
L 152.04295 -261.403769 
L 162.94101 -256.534991 
L 173.83907 -242.799076 
L 184.73713 -194.142054 
L 195.63519 -75.344866 
L 206.53325 -56.449594 
L 217.43131 -72.419355 
L 228.32937 -97.277892 
L 239.22743 -122.136429 
L 250.12549 -146.954111 
L 261.02355 -169.999076 
L 271.92161 -193.367108 
L 282.81967 -232.247678 
L 293.71773 -271.940177 
L 304.61579 -279.252351 
L 315.51385 -284.903105 
L 326.41191 -284.903105 
L 337.30997 -284.903105 
L 348.20803 -284.903105 
L 359.10609 -284.903105 
L 370.00415 -284.903105 
L 380.90221 -284.903105 
L 391.80027 -284.903105 
L 402.69833 -284.903105 
L 413.59639 -284.903105 
L 424.49445 -284.903105 
L 435.39251 -284.903105 
L 446.29057 -284.903105 
L 457.18863 -284.903105 
L 468.08669 -284.903105 
L 478.98475 -284.903105 
L 489.88281 -284.903105 
L 500.78087 -284.903105 
L 511.67893 -284.903105 
L 522.57699 -284.903105 
L 533.47505 -284.903105 
L 544.37311 -284.903105 
L 555.27117 -284.903105 
L 566.16923 -284.903105 
L 577.06729 -284.903105 
L 587.96535 -284.903105 
L 598.86341 -284.903105 
L 609.76147 -284.903105 
L 620.65953 -284.903105 
L 631.55759 -284.903105 
L 642.45565 -284.903105 
L 653.35371 -284.903105 
L 664.25177 -284.903105 
L 675.14983 -284.903105 
L 686.04789 -284.903105 
L 696.94595 -284.903105 
L 696.94595 -285.312449 
L 696.94595 -285.312449 
L 686.04789 -285.312449 
L 675.14983 -285.312449 
L 664.25177 -285.312449 
L 653.35371 -285.312449 
L 642.45565 -285.312449 
L 631.55759 -285.312449 
L 620.65953 -285.312449 
L 609.76147 -285.312449 
L 598.86341 -285.312449 
L 587.96535 -285.312449 
L 577.06729 -285.312449 
L 566.16923 -285.312449 
L 555.27117 -285.312449 
L 544.37311 -285.312449 
L 533.47505 -285.312449 
L 522.57699 -285.312449 
L 511.67893 -285.312449 
L 500.78087 -285.312449 
L 489.88281 -285.312449 
L 478.98475 -285.312449 
L 468.08669 -285.312449 
L 457.18863 -285.312449 
L 446.29057 -285.312449 
L 435.39251 -285.312449 
L 424.49445 -285.312449 
L 413.59639 -285.312449 
L 402.69833 -285.312449 
L 391.80027 -285.312449 
L 380.90221 -285.312449 
L 370.00415 -285.312449 
L 359.10609 -285.312449 
L 348.20803 -285.312449 
L 337.30997 -285.312449 
L 326.41191 -285.312449 
L 315.51385 -285.312449 
L 304.61579 -285.130712 
L 293.71773 -283.621187 
L 282.81967 -273.503615 
L 271.92161 -235.44696 
L 261.02355 -199.989642 
L 250.12549 -179.856784 
L 239.22743 -157.688255 
L 228.32937 -132.095858 
L 217.43131 -102.406261 
L 206.53325 -72.716665 
L 195.63519 -151.169666 
L 184.73713 -237.679208 
L 173.83907 -284.903105 
L 162.94101 -285.005441 
L 152.04295 -285.005441 
L 141.14489 -285.005441 
L 130.24683 -285.005441 
L 119.34877 -285.312449 
L 108.45071 -285.312449 
L 97.55265 -285.312449 
L 86.65459 -285.312449 
L 75.75653 -285.312449 
L 64.85847 -285.312449 
L 53.96041 -285.312449 
L 43.06235 -285.312449 
z
" style="stroke: #55a868; stroke-opacity: 0.25; stroke-width: 0.8"/>
    </defs>
    <g clip-path="url(#p68a7d66899)">
     <use xlink:href="#ma64bc5db8a" x="0" y="354.875712" style="fill: #55a868; fill-opacity: 0.25; stroke: #55a868; stroke-opacity: 0.25; stroke-width: 0.8"/>
    </g>
   </g>
   <g id="line2d_16">
    <path d="M 43.06235 70.298354 
L 53.96041 70.23013 
L 64.85847 70.171203 
L 75.75653 70.134817 
L 86.65459 70.109056 
L 97.55265 70.109056 
L 108.45071 70.109056 
L 119.34877 70.109056 
L 130.24683 70.109056 
L 141.14489 70.109056 
L 152.04295 70.109056 
L 162.94101 70.109056 
L 173.83907 76.885323 
L 184.73713 100.09172 
L 195.63519 123.298117 
L 206.53325 146.504513 
L 217.43131 169.71091 
L 228.32937 192.917307 
L 239.22743 204.638761 
L 250.12549 188.513164 
L 261.02355 172.387566 
L 271.92161 156.261969 
L 282.81967 138.16988 
L 293.71773 115.30972 
L 304.61579 92.348459 
L 315.51385 69.142062 
L 326.41191 52.213898 
L 337.30997 50.508298 
L 348.20803 52.338748 
L 359.10609 62.742909 
L 370.00415 70.109056 
L 380.90221 70.109056 
L 391.80027 70.109056 
L 402.69833 70.109056 
L 413.59639 70.109056 
L 424.49445 70.109056 
L 435.39251 70.109056 
L 446.29057 70.109056 
L 457.18863 70.109056 
L 468.08669 70.109056 
L 478.98475 70.109056 
L 489.88281 70.109056 
L 500.78087 70.109056 
L 511.67893 70.109056 
L 522.57699 70.109056 
L 533.47505 70.109056 
L 544.37311 70.109056 
L 555.27117 70.109056 
L 566.16923 70.109056 
L 577.06729 70.109056 
L 587.96535 70.109056 
L 598.86341 70.109056 
L 609.76147 70.109056 
L 620.65953 70.109056 
L 631.55759 70.109056 
L 642.45565 70.109056 
L 653.35371 70.109056 
L 664.25177 70.109056 
L 675.14983 70.109056 
L 686.04789 70.109056 
L 696.94595 70.109056 
" clip-path="url(#p68a7d66899)" style="fill: none; stroke: #a5d6a7; stroke-opacity: 0.2; stroke-width: 0.5; stroke-linecap: round"/>
   </g>
   <g id="line2d_17">
    <path d="M 43.06235 70.109056 
L 53.96041 70.109056 
L 64.85847 70.109056 
L 75.75653 70.109056 
L 86.65459 70.109056 
L 97.55265 70.109056 
L 108.45071 70.109056 
L 119.34877 70.109056 
L 130.24683 70.109056 
L 141.14489 70.109056 
L 152.04295 70.109056 
L 162.94101 70.109056 
L 173.83907 70.109056 
L 184.73713 115.556853 
L 195.63519 234.530144 
L 206.53325 298.702547 
L 217.43131 274.218016 
L 228.32937 249.733485 
L 239.22743 225.248954 
L 250.12549 201.203642 
L 261.02355 177.868899 
L 271.92161 148.298762 
L 282.81967 108.640999 
L 293.71773 81.454023 
L 304.61579 74.4423 
L 315.51385 70.109056 
L 326.41191 70.109056 
L 337.30997 70.109056 
L 348.20803 70.109056 
L 359.10609 69.984612 
L 370.00415 69.658842 
L 380.90221 69.58196 
L 391.80027 69.90773 
L 402.69833 70.109056 
L 413.59639 70.109056 
L 424.49445 70.2335 
L 435.39251 70.559269 
L 446.29057 70.636151 
L 457.18863 70.310381 
L 468.08669 70.109056 
L 478.98475 70.109056 
L 489.88281 70.109056 
L 500.78087 70.109056 
L 511.67893 70.109056 
L 522.57699 70.109056 
L 533.47505 70.109056 
L 544.37311 70.109056 
L 555.27117 70.109056 
L 566.16923 70.109056 
L 577.06729 70.109056 
L 587.96535 70.109056 
L 598.86341 70.109056 
L 609.76147 70.109056 
L 620.65953 70.109056 
L 631.55759 70.109056 
L 642.45565 70.109056 
L 653.35371 70.109056 
L 664.25177 70.108838 
L 675.14983 70.10827 
L 686.04789 70.101186 
L 696.94595 70.083561 
" clip-path="url(#p68a7d66899)" style="fill: none; stroke: #a5d6a7; stroke-opacity: 0.2; stroke-width: 0.5; stroke-linecap: round"/>
   </g>
   <g id="line2d_18">
    <path d="M 43.06235 69.655959 
L 53.96041 69.972607 
L 64.85847 69.972607 
L 75.75653 69.981729 
L 86.65459 70.307499 
L 97.55265 70.615025 
L 108.45071 70.289256 
L 119.34877 70.18296 
L 130.24683 77.695561 
L 141.14489 85.089303 
L 152.04295 88.356948 
L 162.94101 91.862312 
L 173.83907 103.619867 
L 184.73713 117.743055 
L 195.63519 213.987518 
L 206.53325 306.839271 
L 217.43131 281.915548 
L 228.32937 256.991825 
L 239.22743 232.068102 
L 250.12549 207.198852 
L 261.02355 184.220579 
L 271.92161 160.777064 
L 282.81967 121.182976 
L 293.71773 82.519373 
L 304.61579 76.156916 
L 315.51385 69.972607 
L 326.41191 69.972607 
L 337.30997 69.972607 
L 348.20803 69.972607 
L 359.10609 69.972607 
L 370.00415 69.972607 
L 380.90221 69.972607 
L 391.80027 69.972607 
L 402.69833 69.972607 
L 413.59639 69.972607 
L 424.49445 69.972607 
L 435.39251 69.972607 
L 446.29057 69.972607 
L 457.18863 69.972607 
L 468.08669 69.972607 
L 478.98475 69.972607 
L 489.88281 69.972607 
L 500.78087 69.972607 
L 511.67893 69.972607 
L 522.57699 69.972607 
L 533.47505 69.972607 
L 544.37311 69.972607 
L 555.27117 69.972607 
L 566.16923 69.972607 
L 577.06729 69.972607 
L 587.96535 69.972607 
L 598.86341 69.972607 
L 609.76147 69.972607 
L 620.65953 69.972607 
L 631.55759 69.972607 
L 642.45565 69.972607 
L 653.35371 69.972607 
L 664.25177 69.972607 
L 675.14983 69.972607 
L 686.04789 69.972607 
L 696.94595 69.972607 
" clip-path="url(#p68a7d66899)" style="fill: none; stroke: #a5d6a7; stroke-opacity: 0.2; stroke-width: 0.5; stroke-linecap: round"/>
   </g>
   <g id="line2d_19">
    <path d="M 43.06235 69.972607 
L 53.96041 69.972607 
L 64.85847 69.972607 
L 75.75653 69.972607 
L 86.65459 69.972607 
L 97.55265 69.972607 
L 108.45071 69.972607 
L 119.34877 69.972607 
L 130.24683 69.972607 
L 141.14489 69.972607 
L 152.04295 69.972607 
L 162.94101 69.972607 
L 173.83907 69.972607 
L 184.73713 160.546993 
L 195.63519 279.099853 
L 206.53325 285.097999 
L 217.43131 256.327935 
L 228.32937 227.55787 
L 239.22743 198.787805 
L 250.12549 176.460161 
L 261.02355 156.122584 
L 271.92161 121.131454 
L 282.81967 81.613834 
L 293.71773 71.40332 
L 304.61579 70.245786 
L 315.51385 69.972607 
L 326.41191 69.972607 
L 337.30997 69.972607 
L 348.20803 69.972607 
L 359.10609 69.972607 
L 370.00415 69.972607 
L 380.90221 69.972607 
L 391.80027 69.972607 
L 402.69833 69.972607 
L 413.59639 69.972607 
L 424.49445 69.972607 
L 435.39251 69.972607 
L 446.29057 69.972607 
L 457.18863 69.972607 
L 468.08669 69.972607 
L 478.98475 69.972607 
L 489.88281 69.972607 
L 500.78087 69.972607 
L 511.67893 69.972607 
L 522.57699 69.972607 
L 533.47505 69.972607 
L 544.37311 69.972607 
L 555.27117 69.972607 
L 566.16923 69.972607 
L 577.06729 69.972607 
L 587.96535 69.972607 
L 598.86341 69.972607 
L 609.76147 69.972607 
L 620.65953 69.972607 
L 631.55759 69.972607 
L 642.45565 69.972607 
L 653.35371 69.972607 
L 664.25177 69.972607 
L 675.14983 69.972607 
L 686.04789 69.972607 
L 696.94595 69.972607 
" clip-path="url(#p68a7d66899)" style="fill: none; stroke: #a5d6a7; stroke-opacity: 0.2; stroke-width: 0.5; stroke-linecap: round"/>
   </g>
   <g id="line2d_20">
    <path d="M 43.06235 69.972607 
L 53.96041 69.972607 
L 64.85847 69.972607 
L 75.75653 69.972607 
L 86.65459 69.972607 
L 97.55265 69.972607 
L 108.45071 69.972607 
L 119.34877 70.29497 
L 130.24683 75.852953 
L 141.14489 81.249754 
L 152.04295 84.028746 
L 162.94101 87.1301 
L 173.83907 95.467074 
L 184.73713 109.327811 
L 195.63519 212.902091 
L 206.53325 308.903033 
L 217.43131 281.902528 
L 228.32937 254.902024 
L 239.22743 227.901519 
L 250.12549 201.186265 
L 261.02355 179.103859 
L 271.92161 155.977433 
L 282.81967 115.894691 
L 293.71773 77.899987 
L 304.61579 73.817917 
L 315.51385 69.972607 
L 326.41191 69.972607 
L 337.30997 69.972607 
L 348.20803 69.972607 
L 359.10609 69.972607 
L 370.00415 69.972607 
L 380.90221 69.972607 
L 391.80027 69.972607 
L 402.69833 69.972607 
L 413.59639 69.972607 
L 424.49445 69.972607 
L 435.39251 69.972607 
L 446.29057 69.972607 
L 457.18863 69.972607 
L 468.08669 69.972607 
L 478.98475 69.972607 
L 489.88281 69.972607 
L 500.78087 69.972607 
L 511.67893 69.972607 
L 522.57699 69.972607 
L 533.47505 69.972607 
L 544.37311 69.972607 
L 555.27117 69.972607 
L 566.16923 69.972607 
L 577.06729 69.972607 
L 587.96535 69.972607 
L 598.86341 69.972607 
L 609.76147 69.972607 
L 620.65953 69.972607 
L 631.55759 69.972607 
L 642.45565 69.972607 
L 653.35371 69.972607 
L 664.25177 69.972607 
L 675.14983 69.972607 
L 686.04789 69.972607 
L 696.94595 69.972607 
" clip-path="url(#p68a7d66899)" style="fill: none; stroke: #a5d6a7; stroke-opacity: 0.2; stroke-width: 0.5; stroke-linecap: round"/>
   </g>
   <g id="line2d_21">
    <path d="M 43.06235 69.972607 
L 53.96041 69.972607 
L 64.85847 69.972607 
L 75.75653 69.972607 
L 86.65459 69.972607 
L 97.55265 69.972607 
L 108.45071 69.972607 
L 119.34877 69.972607 
L 130.24683 69.972607 
L 141.14489 69.972607 
L 152.04295 69.972607 
L 162.94101 69.972607 
L 173.83907 69.972607 
L 184.73713 168.134376 
L 195.63519 286.687237 
L 206.53325 282.554833 
L 217.43131 252.937085 
L 228.32937 223.319337 
L 239.22743 193.701589 
L 250.12549 172.235744 
L 261.02355 152.463289 
L 271.92161 116.341838 
L 282.81967 76.824217 
L 293.71773 70.004591 
L 304.61579 69.977301 
L 315.51385 69.972607 
L 326.41191 69.972607 
L 337.30997 69.972607 
L 348.20803 69.972607 
L 359.10609 69.972607 
L 370.00415 69.972607 
L 380.90221 69.972607 
L 391.80027 69.972607 
L 402.69833 69.972607 
L 413.59639 69.972607 
L 424.49445 69.972607 
L 435.39251 69.972607 
L 446.29057 69.972607 
L 457.18863 69.972607 
L 468.08669 69.972607 
L 478.98475 69.972607 
L 489.88281 69.972607 
L 500.78087 69.972607 
L 511.67893 69.972607 
L 522.57699 69.972607 
L 533.47505 69.972607 
L 544.37311 69.972607 
L 555.27117 69.972607 
L 566.16923 69.972607 
L 577.06729 69.972607 
L 587.96535 69.972607 
L 598.86341 69.972607 
L 609.76147 69.972607 
L 620.65953 69.972607 
L 631.55759 69.972607 
L 642.45565 69.972607 
L 653.35371 69.972607 
L 664.25177 69.972607 
L 675.14983 69.972607 
L 686.04789 69.972607 
L 696.94595 69.972607 
" clip-path="url(#p68a7d66899)" style="fill: none; stroke: #a5d6a7; stroke-opacity: 0.2; stroke-width: 0.5; stroke-linecap: round"/>
   </g>
   <g id="line2d_22">
    <path d="M 43.06235 69.972607 
L 53.96041 69.972607 
L 64.85847 69.972607 
L 75.75653 69.972607 
L 86.65459 69.972607 
L 97.55265 69.972607 
L 108.45071 69.972607 
L 119.34877 69.972607 
L 130.24683 78.936833 
L 141.14489 91.183043 
L 152.04295 98.947139 
L 162.94101 105.070244 
L 173.83907 120.157575 
L 184.73713 138.526889 
L 195.63519 203.337883 
L 206.53325 285.152114 
L 217.43131 289.054992 
L 228.32937 264.432947 
L 239.22743 239.810902 
L 250.12549 215.188857 
L 261.02355 191.678809 
L 271.92161 168.575885 
L 282.81967 133.457404 
L 293.71773 93.939784 
L 304.61579 78.453279 
L 315.51385 71.765052 
L 326.41191 69.972607 
L 337.30997 69.972607 
L 348.20803 69.972607 
L 359.10609 69.972607 
L 370.00415 69.972607 
L 380.90221 69.972607 
L 391.80027 69.972607 
L 402.69833 69.972607 
L 413.59639 69.972607 
L 424.49445 69.972607 
L 435.39251 69.972607 
L 446.29057 69.972607 
L 457.18863 69.972607 
L 468.08669 69.972607 
L 478.98475 69.972607 
L 489.88281 69.972607 
L 500.78087 69.972607 
L 511.67893 69.972607 
L 522.57699 69.972607 
L 533.47505 69.972607 
L 544.37311 69.972607 
L 555.27117 69.972607 
L 566.16923 69.972607 
L 577.06729 69.972607 
L 587.96535 69.972607 
L 598.86341 69.972607 
L 609.76147 69.972607 
L 620.65953 69.972607 
L 631.55759 69.972607 
L 642.45565 69.972607 
L 653.35371 69.972607 
L 664.25177 69.972607 
L 675.14983 69.972607 
L 686.04789 69.972607 
L 696.94595 69.972607 
" clip-path="url(#p68a7d66899)" style="fill: none; stroke: #a5d6a7; stroke-opacity: 0.2; stroke-width: 0.5; stroke-linecap: round"/>
   </g>
   <g id="line2d_23">
    <path d="M 43.06235 69.972607 
L 53.96041 69.972607 
L 64.85847 69.972607 
L 75.75653 69.972607 
L 86.65459 69.972607 
L 97.55265 69.972607 
L 108.45071 69.972607 
L 119.34877 69.972607 
L 130.24683 69.972607 
L 141.14489 69.972607 
L 152.04295 69.972607 
L 162.94101 69.972607 
L 173.83907 69.972607 
L 184.73713 161.293657 
L 195.63519 280.823826 
L 206.53325 286.566895 
L 217.43131 257.161067 
L 228.32937 227.75524 
L 239.22743 198.349413 
L 250.12549 175.946656 
L 261.02355 155.707151 
L 271.92161 120.490278 
L 282.81967 80.646888 
L 293.71773 70.758234 
L 304.61579 70.122614 
L 315.51385 69.972607 
L 326.41191 69.972607 
L 337.30997 69.972607 
L 348.20803 69.972607 
L 359.10609 69.972607 
L 370.00415 69.972607 
L 380.90221 69.972607 
L 391.80027 69.972607 
L 402.69833 69.972607 
L 413.59639 69.972607 
L 424.49445 69.972607 
L 435.39251 69.972607 
L 446.29057 69.972607 
L 457.18863 69.972607 
L 468.08669 69.972607 
L 478.98475 69.972607 
L 489.88281 69.972607 
L 500.78087 69.972607 
L 511.67893 69.972607 
L 522.57699 69.972607 
L 533.47505 69.972607 
L 544.37311 69.972607 
L 555.27117 69.972607 
L 566.16923 69.972607 
L 577.06729 69.972607 
L 587.96535 69.972607 
L 598.86341 69.972607 
L 609.76147 69.972607 
L 620.65953 69.972607 
L 631.55759 69.972607 
L 642.45565 69.972607 
L 653.35371 69.972607 
L 664.25177 69.972607 
L 675.14983 69.972607 
L 686.04789 69.972607 
L 696.94595 69.972607 
" clip-path="url(#p68a7d66899)" style="fill: none; stroke: #a5d6a7; stroke-opacity: 0.2; stroke-width: 0.5; stroke-linecap: round"/>
   </g>
   <g id="line2d_24">
    <path d="M 43.06235 69.972607 
L 53.96041 69.972607 
L 64.85847 69.972607 
L 75.75653 69.972607 
L 86.65459 69.972607 
L 97.55265 69.972607 
L 108.45071 69.972607 
L 119.34877 69.972607 
L 130.24683 79.01031 
L 141.14489 91.25652 
L 152.04295 98.983878 
L 162.94101 105.106983 
L 173.83907 120.26779 
L 184.73713 138.637105 
L 195.63519 203.828768 
L 206.53325 285.643 
L 217.43131 289.046979 
L 228.32937 264.614256 
L 239.22743 240.181532 
L 250.12549 215.748809 
L 261.02355 193.479848 
L 271.92161 171.979051 
L 282.81967 129.911397 
L 293.71773 80.54223 
L 304.61579 62.485304 
L 315.51385 55.544649 
L 326.41191 52.450681 
L 337.30997 50.722339 
L 348.20803 57.539955 
L 359.10609 67.391502 
L 370.00415 69.972607 
L 380.90221 69.972607 
L 391.80027 69.972607 
L 402.69833 69.972607 
L 413.59639 69.972607 
L 424.49445 69.972607 
L 435.39251 69.972607 
L 446.29057 69.972607 
L 457.18863 69.972607 
L 468.08669 69.972607 
L 478.98475 69.972607 
L 489.88281 69.972607 
L 500.78087 69.972607 
L 511.67893 69.972607 
L 522.57699 69.972607 
L 533.47505 69.972607 
L 544.37311 69.972607 
L 555.27117 69.972607 
L 566.16923 69.972607 
L 577.06729 69.972607 
L 587.96535 69.972607 
L 598.86341 69.972607 
L 609.76147 69.972607 
L 620.65953 69.972607 
L 631.55759 69.972607 
L 642.45565 69.972607 
L 653.35371 69.972607 
L 664.25177 69.972607 
L 675.14983 69.972607 
L 686.04789 69.972607 
L 696.94595 69.972607 
" clip-path="url(#p68a7d66899)" style="fill: none; stroke: #a5d6a7; stroke-opacity: 0.2; stroke-width: 0.5; stroke-linecap: round"/>
   </g>
   <g id="line2d_25">
    <path d="M 43.06235 69.972607 
L 53.96041 69.972607 
L 64.85847 69.972607 
L 75.75653 69.972607 
L 86.65459 69.972607 
L 97.55265 69.972607 
L 108.45071 69.972607 
L 119.34877 69.972607 
L 130.24683 75.491907 
L 141.14489 93.296099 
L 152.04295 108.340642 
L 162.94101 117.242738 
L 173.83907 131.664134 
L 184.73713 158.370422 
L 195.63519 178.788981 
L 206.53325 185.212271 
L 217.43131 185.007062 
L 228.32937 170.048095 
L 239.22743 155.089129 
L 250.12549 140.130162 
L 261.02355 126.716955 
L 271.92161 116.74431 
L 282.81967 103.680146 
L 293.71773 83.734857 
L 304.61579 69.972607 
L 315.51385 69.972607 
L 326.41191 69.958684 
L 337.30997 69.91377 
L 348.20803 69.86163 
L 359.10609 69.793406 
L 370.00415 69.725182 
L 380.90221 69.656958 
L 391.80027 69.602657 
L 402.69833 69.579347 
L 413.59639 69.563263 
L 424.49445 69.563263 
L 435.39251 69.563263 
L 446.29057 69.563263 
L 457.18863 69.563263 
L 468.08669 69.563263 
L 478.98475 69.563263 
L 489.88281 69.563263 
L 500.78087 69.563263 
L 511.67893 69.563263 
L 522.57699 69.563263 
L 533.47505 69.563263 
L 544.37311 69.563263 
L 555.27117 69.563263 
L 566.16923 69.563263 
L 577.06729 69.563263 
L 587.96535 69.563263 
L 598.86341 69.563263 
L 609.76147 69.563263 
L 620.65953 69.563263 
L 631.55759 69.563263 
L 642.45565 69.563263 
L 653.35371 69.563263 
L 664.25177 69.563263 
L 675.14983 69.563263 
L 686.04789 69.563263 
L 696.94595 69.563263 
" clip-path="url(#p68a7d66899)" style="fill: none; stroke: #a5d6a7; stroke-opacity: 0.2; stroke-width: 0.5; stroke-linecap: round"/>
   </g>
   <g id="line2d_26">
    <path d="M 43.06235 69.563263 
L 53.96041 69.563263 
L 64.85847 69.563263 
L 75.75653 69.563263 
L 86.65459 69.563263 
L 97.55265 69.563263 
L 108.45071 69.563263 
L 119.34877 69.563263 
L 130.24683 69.563263 
L 141.14489 69.563263 
L 152.04295 69.563263 
L 162.94101 69.563263 
L 173.83907 69.563263 
L 184.73713 120.626069 
L 195.63519 239.376779 
L 206.53325 296.459603 
L 217.43131 271.796623 
L 228.32937 247.133644 
L 239.22743 222.470665 
L 250.12549 198.461886 
L 261.02355 175.320302 
L 271.92161 145.108664 
L 282.81967 105.525094 
L 293.71773 80.081632 
L 304.61579 73.382034 
L 315.51385 69.563263 
L 326.41191 69.563263 
L 337.30997 69.563263 
L 348.20803 69.563263 
L 359.10609 69.563263 
L 370.00415 69.563263 
L 380.90221 69.563263 
L 391.80027 69.563263 
L 402.69833 69.563263 
L 413.59639 69.563263 
L 424.49445 69.563263 
L 435.39251 69.563263 
L 446.29057 69.563263 
L 457.18863 69.563263 
L 468.08669 69.563263 
L 478.98475 69.563263 
L 489.88281 69.563263 
L 500.78087 69.563263 
L 511.67893 69.563263 
L 522.57699 69.563263 
L 533.47505 69.563263 
L 544.37311 69.563263 
L 555.27117 69.563263 
L 566.16923 69.563263 
L 577.06729 69.563263 
L 587.96535 69.563263 
L 598.86341 69.563263 
L 609.76147 69.563263 
L 620.65953 69.563263 
L 631.55759 69.563263 
L 642.45565 69.563263 
L 653.35371 69.563263 
L 664.25177 69.563263 
L 675.14983 69.563263 
L 686.04789 69.563263 
L 696.94595 69.563263 
" clip-path="url(#p68a7d66899)" style="fill: none; stroke: #a5d6a7; stroke-opacity: 0.2; stroke-width: 0.5; stroke-linecap: round"/>
   </g>
   <g id="line2d_27">
    <path d="M 43.06235 69.563263 
L 53.96041 69.563263 
L 64.85847 69.563263 
L 75.75653 69.563263 
L 86.65459 69.563263 
L 97.55265 69.563263 
L 108.45071 69.563263 
L 119.34877 69.563263 
L 130.24683 75.305733 
L 141.14489 93.139489 
L 152.04295 108.10201 
L 162.94101 117.018888 
L 173.83907 131.678235 
L 184.73713 158.428869 
L 195.63519 178.011302 
L 206.53325 182.500442 
L 217.43131 180.875851 
L 228.32937 166.378249 
L 239.22743 151.880647 
L 250.12549 137.383045 
L 261.02355 124.441519 
L 271.92161 114.776451 
L 282.81967 101.999231 
L 293.71773 82.669096 
L 304.61579 69.563263 
L 315.51385 69.563263 
L 326.41191 69.563263 
L 337.30997 69.563263 
L 348.20803 69.563263 
L 359.10609 69.563263 
L 370.00415 69.563263 
L 380.90221 69.563263 
L 391.80027 69.563263 
L 402.69833 69.563263 
L 413.59639 69.563263 
L 424.49445 69.563263 
L 435.39251 69.563263 
L 446.29057 69.563263 
L 457.18863 69.563263 
L 468.08669 69.563263 
L 478.98475 69.563263 
L 489.88281 69.563263 
L 500.78087 69.563263 
L 511.67893 69.563263 
L 522.57699 69.563263 
L 533.47505 69.563263 
L 544.37311 69.563263 
L 555.27117 69.563263 
L 566.16923 69.563263 
L 577.06729 69.563263 
L 587.96535 69.563263 
L 598.86341 69.563263 
L 609.76147 69.563263 
L 620.65953 69.563263 
L 631.55759 69.563263 
L 642.45565 69.563263 
L 653.35371 69.563263 
L 664.25177 69.563263 
L 675.14983 69.563263 
L 686.04789 69.563263 
L 696.94595 69.563263 
" clip-path="url(#p68a7d66899)" style="fill: none; stroke: #a5d6a7; stroke-opacity: 0.2; stroke-width: 0.5; stroke-linecap: round"/>
   </g>
   <g id="line2d_28">
    <path d="M 43.06235 69.563263 
L 53.96041 69.563263 
L 64.85847 69.563263 
L 75.75653 69.563263 
L 86.65459 69.563263 
L 97.55265 69.563263 
L 108.45071 69.563263 
L 119.34877 70.242447 
L 130.24683 75.809526 
L 141.14489 81.037014 
L 152.04295 83.820553 
L 162.94101 87.283276 
L 173.83907 95.633895 
L 184.73713 115.384145 
L 195.63519 217.174367 
L 206.53325 303.545205 
L 217.43131 278.947039 
L 228.32937 254.348872 
L 239.22743 229.750706 
L 250.12549 205.335514 
L 261.02355 182.237138 
L 271.92161 157.138112 
L 282.81967 117.640959 
L 293.71773 82.145108 
L 304.61579 75.44551 
L 315.51385 69.563263 
L 326.41191 69.563263 
L 337.30997 69.563263 
L 348.20803 69.563263 
L 359.10609 69.563263 
L 370.00415 69.563263 
L 380.90221 69.563263 
L 391.80027 69.563263 
L 402.69833 69.563263 
L 413.59639 69.563263 
L 424.49445 69.563263 
L 435.39251 69.563263 
L 446.29057 69.563263 
L 457.18863 69.563263 
L 468.08669 69.563263 
L 478.98475 69.563263 
L 489.88281 69.563263 
L 500.78087 69.563263 
L 511.67893 69.563263 
L 522.57699 69.563263 
L 533.47505 69.563263 
L 544.37311 69.563263 
L 555.27117 69.563263 
L 566.16923 69.563263 
L 577.06729 69.563263 
L 587.96535 69.563263 
L 598.86341 69.563263 
L 609.76147 69.563263 
L 620.65953 69.563263 
L 631.55759 69.563263 
L 642.45565 69.563263 
L 653.35371 69.563263 
L 664.25177 69.563263 
L 675.14983 69.563263 
L 686.04789 69.563263 
L 696.94595 69.563263 
" clip-path="url(#p68a7d66899)" style="fill: none; stroke: #a5d6a7; stroke-opacity: 0.2; stroke-width: 0.5; stroke-linecap: round"/>
   </g>
   <g id="line2d_29">
    <path d="M 43.06235 69.563263 
L 53.96041 69.563263 
L 64.85847 69.563263 
L 75.75653 69.563263 
L 86.65459 69.563263 
L 97.55265 69.563263 
L 108.45071 69.563263 
L 119.34877 69.563263 
L 130.24683 69.563263 
L 141.14489 69.563263 
L 152.04295 69.563263 
L 162.94101 69.563263 
L 173.83907 69.563263 
L 184.73713 161.855192 
L 195.63519 281.095409 
L 206.53325 285.560156 
L 217.43131 256.511652 
L 228.32937 227.463149 
L 239.22743 198.414645 
L 250.12549 176.074735 
L 261.02355 155.693665 
L 271.92161 120.323567 
L 282.81967 80.576828 
L 293.71773 70.808145 
L 304.61579 69.792744 
L 315.51385 69.563263 
L 326.41191 69.563263 
L 337.30997 69.563263 
L 348.20803 69.563263 
L 359.10609 69.563263 
L 370.00415 69.563263 
L 380.90221 69.563263 
L 391.80027 69.563263 
L 402.69833 69.563263 
L 413.59639 69.563263 
L 424.49445 69.563263 
L 435.39251 69.563263 
L 446.29057 69.563263 
L 457.18863 69.563263 
L 468.08669 69.563263 
L 478.98475 69.563263 
L 489.88281 69.563263 
L 500.78087 69.563263 
L 511.67893 69.563263 
L 522.57699 69.563263 
L 533.47505 69.563263 
L 544.37311 69.563263 
L 555.27117 69.563263 
L 566.16923 69.563263 
L 577.06729 69.563263 
L 587.96535 69.563263 
L 598.86341 69.563263 
L 609.76147 69.563263 
L 620.65953 69.563263 
L 631.55759 69.563263 
L 642.45565 69.563263 
L 653.35371 69.563263 
L 664.25177 69.563263 
L 675.14983 69.563263 
L 686.04789 69.563263 
L 696.94595 69.563263 
" clip-path="url(#p68a7d66899)" style="fill: none; stroke: #a5d6a7; stroke-opacity: 0.2; stroke-width: 0.5; stroke-linecap: round"/>
   </g>
   <g id="line2d_30">
    <path d="M 43.06235 69.563263 
L 53.96041 69.563263 
L 64.85847 69.563263 
L 75.75653 69.563263 
L 86.65459 69.563263 
L 97.55265 69.563263 
L 108.45071 69.563263 
L 119.34877 69.563263 
L 130.24683 78.946157 
L 141.14489 89.907481 
L 152.04295 96.177358 
L 162.94101 101.65802 
L 173.83907 116.521576 
L 184.73713 132.963562 
L 195.63519 210.509209 
L 206.53325 298.333975 
L 217.43131 288.772776 
L 228.32937 262.828891 
L 239.22743 236.885006 
L 250.12549 210.941121 
L 261.02355 189.047746 
L 271.92161 167.835764 
L 282.81967 121.758142 
L 293.71773 71.497514 
L 304.61579 59.428378 
L 315.51385 53.783978 
L 326.41191 51.491724 
L 337.30997 49.763383 
L 348.20803 58.095372 
L 359.10609 68.119753 
L 370.00415 69.563263 
L 380.90221 69.563263 
L 391.80027 69.563263 
L 402.69833 69.563263 
L 413.59639 69.563263 
L 424.49445 69.563263 
L 435.39251 69.563263 
L 446.29057 69.563263 
L 457.18863 69.563263 
L 468.08669 69.563263 
L 478.98475 69.563263 
L 489.88281 69.563263 
L 500.78087 69.563263 
L 511.67893 69.563263 
L 522.57699 69.563263 
L 533.47505 69.563263 
L 544.37311 69.563263 
L 555.27117 69.563263 
L 566.16923 69.563263 
L 577.06729 69.563263 
L 587.96535 69.563263 
L 598.86341 69.563263 
L 609.76147 69.563263 
L 620.65953 69.563263 
L 631.55759 69.563263 
L 642.45565 69.563263 
L 653.35371 69.563263 
L 664.25177 69.563263 
L 675.14983 69.563263 
L 686.04789 69.563263 
L 696.94595 69.563263 
" clip-path="url(#p68a7d66899)" style="fill: none; stroke: #a5d6a7; stroke-opacity: 0.2; stroke-width: 0.5; stroke-linecap: round"/>
   </g>
   <g id="line2d_31">
    <path d="M 43.06235 69.563263 
L 53.96041 69.563263 
L 64.85847 69.563263 
L 75.75653 69.563263 
L 86.65459 69.563263 
L 97.55265 69.563263 
L 108.45071 69.563263 
L 119.34877 69.563263 
L 130.24683 69.563263 
L 141.14489 69.563263 
L 152.04295 69.563263 
L 162.94101 69.563263 
L 173.83907 69.563263 
L 184.73713 181.869745 
L 195.63519 301.59947 
L 206.53325 280.97169 
L 217.43131 251.066548 
L 228.32937 221.161407 
L 239.22743 191.256265 
L 250.12549 170.667334 
L 261.02355 150.694187 
L 271.92161 112.020358 
L 282.81967 72.11045 
L 293.71773 69.601906 
L 304.61579 69.565519 
L 315.51385 69.563263 
L 326.41191 69.563263 
L 337.30997 69.563263 
L 348.20803 69.563263 
L 359.10609 69.563263 
L 370.00415 69.563263 
L 380.90221 69.563263 
L 391.80027 69.563263 
L 402.69833 69.563263 
L 413.59639 69.563263 
L 424.49445 69.563263 
L 435.39251 69.563263 
L 446.29057 69.563263 
L 457.18863 69.563263 
L 468.08669 69.563263 
L 478.98475 69.563263 
L 489.88281 69.563263 
L 500.78087 69.563263 
L 511.67893 69.563263 
L 522.57699 69.563263 
L 533.47505 69.563263 
L 544.37311 69.563263 
L 555.27117 69.563263 
L 566.16923 69.563263 
L 577.06729 69.563263 
L 587.96535 69.563263 
L 598.86341 69.563263 
L 609.76147 69.563263 
L 620.65953 69.563263 
L 631.55759 69.563263 
L 642.45565 69.563263 
L 653.35371 69.563263 
L 664.25177 69.563263 
L 675.14983 69.563263 
L 686.04789 69.563263 
L 696.94595 69.563263 
" clip-path="url(#p68a7d66899)" style="fill: none; stroke: #a5d6a7; stroke-opacity: 0.2; stroke-width: 0.5; stroke-linecap: round"/>
   </g>
   <g id="line2d_32">
    <path d="M 43.06235 69.563263 
L 53.96041 69.563263 
L 64.85847 69.563263 
L 75.75653 69.563263 
L 86.65459 69.563263 
L 97.55265 69.563263 
L 108.45071 69.563263 
L 119.34877 69.563263 
L 130.24683 78.258482 
L 141.14489 87.588115 
L 152.04295 92.570139 
L 162.94101 97.234956 
L 173.83907 110.59499 
L 184.73713 124.58944 
L 195.63519 210.13107 
L 206.53325 300.892881 
L 217.43131 284.078787 
L 228.32937 259.415808 
L 239.22743 234.752829 
L 250.12549 210.089849 
L 261.02355 186.844811 
L 271.92161 163.703227 
L 282.81967 125.237712 
L 293.71773 85.654142 
L 304.61579 76.718434 
L 315.51385 70.018836 
L 326.41191 69.563263 
L 337.30997 69.563263 
L 348.20803 69.563263 
L 359.10609 69.563263 
L 370.00415 69.563263 
L 380.90221 69.563263 
L 391.80027 69.563263 
L 402.69833 69.563263 
L 413.59639 69.563263 
L 424.49445 69.563263 
L 435.39251 69.563263 
L 446.29057 69.563263 
L 457.18863 69.563263 
L 468.08669 69.563263 
L 478.98475 69.563263 
L 489.88281 69.563263 
L 500.78087 69.563263 
L 511.67893 69.563263 
L 522.57699 69.563263 
L 533.47505 69.563263 
L 544.37311 69.563263 
L 555.27117 69.563263 
L 566.16923 69.563263 
L 577.06729 69.563263 
L 587.96535 69.563263 
L 598.86341 69.563263 
L 609.76147 69.563263 
L 620.65953 69.563263 
L 631.55759 69.563263 
L 642.45565 69.563263 
L 653.35371 69.563263 
L 664.25177 69.563263 
L 675.14983 69.563263 
L 686.04789 69.563263 
L 696.94595 69.563263 
" clip-path="url(#p68a7d66899)" style="fill: none; stroke: #a5d6a7; stroke-opacity: 0.2; stroke-width: 0.5; stroke-linecap: round"/>
   </g>
   <g id="line2d_33">
    <path d="M 43.06235 69.563263 
L 53.96041 69.563263 
L 64.85847 69.563263 
L 75.75653 69.563263 
L 86.65459 69.563263 
L 97.55265 69.563263 
L 108.45071 69.563263 
L 119.34877 69.563263 
L 130.24683 69.563263 
L 141.14489 69.563263 
L 152.04295 69.563263 
L 162.94101 69.563263 
L 173.83907 69.563263 
L 184.73713 113.738528 
L 195.63519 232.489238 
L 206.53325 297.890055 
L 217.43131 273.227076 
L 228.32937 248.564097 
L 239.22743 223.901118 
L 250.12549 199.804097 
L 261.02355 176.662514 
L 271.92161 147.404511 
L 282.81967 107.820941 
L 293.71773 80.470208 
L 304.61579 73.770611 
L 315.51385 69.563263 
L 326.41191 69.563263 
L 337.30997 69.563263 
L 348.20803 69.563263 
L 359.10609 69.563263 
L 370.00415 69.563263 
L 380.90221 69.563263 
L 391.80027 69.563263 
L 402.69833 69.563263 
L 413.59639 69.563263 
L 424.49445 69.563263 
L 435.39251 69.563263 
L 446.29057 69.563263 
L 457.18863 69.563263 
L 468.08669 69.563263 
L 478.98475 69.563263 
L 489.88281 69.563263 
L 500.78087 69.563263 
L 511.67893 69.563263 
L 522.57699 69.563263 
L 533.47505 69.563263 
L 544.37311 69.563263 
L 555.27117 69.563263 
L 566.16923 69.563263 
L 577.06729 69.563263 
L 587.96535 69.563263 
L 598.86341 69.563263 
L 609.76147 69.563263 
L 620.65953 69.563263 
L 631.55759 69.563263 
L 642.45565 69.563263 
L 653.35371 69.563263 
L 664.25177 69.563263 
L 675.14983 69.563263 
L 686.04789 69.563263 
L 696.94595 69.563263 
" clip-path="url(#p68a7d66899)" style="fill: none; stroke: #a5d6a7; stroke-opacity: 0.2; stroke-width: 0.5; stroke-linecap: round"/>
   </g>
   <g id="line2d_34">
    <path d="M 43.06235 69.563263 
L 53.96041 69.563263 
L 64.85847 69.563263 
L 75.75653 69.563263 
L 86.65459 69.563263 
L 97.55265 69.563263 
L 108.45071 69.563263 
L 119.34877 69.563263 
L 130.24683 69.563263 
L 141.14489 69.563263 
L 152.04295 69.563263 
L 162.94101 69.563263 
L 173.83907 83.575847 
L 184.73713 202.326557 
L 195.63519 303.462819 
L 206.53325 272.938545 
L 217.43131 242.41427 
L 228.32937 211.889996 
L 239.22743 182.65946 
L 250.12549 163.099068 
L 261.02355 141.214449 
L 271.92161 101.957217 
L 282.81967 67.463963 
L 293.71773 68.579425 
L 304.61579 69.601771 
L 315.51385 69.92811 
L 326.41191 70.177432 
L 337.30997 69.851094 
L 348.20803 69.563263 
L 359.10609 69.563263 
L 370.00415 69.563263 
L 380.90221 69.563263 
L 391.80027 69.563263 
L 402.69833 69.563263 
L 413.59639 69.563263 
L 424.49445 69.563263 
L 435.39251 69.563263 
L 446.29057 69.563263 
L 457.18863 69.563263 
L 468.08669 69.563263 
L 478.98475 69.563263 
L 489.88281 69.563263 
L 500.78087 69.563263 
L 511.67893 69.563263 
L 522.57699 69.563263 
L 533.47505 69.563263 
L 544.37311 69.563263 
L 555.27117 69.563263 
L 566.16923 69.563263 
L 577.06729 69.563263 
L 587.96535 69.563263 
L 598.86341 69.563263 
L 609.76147 69.563263 
L 620.65953 69.563263 
L 631.55759 69.524756 
L 642.45565 69.198417 
L 653.35371 68.949095 
L 664.25177 69.275433 
L 675.14983 69.563263 
L 686.04789 69.563263 
L 696.94595 69.601771 
" clip-path="url(#p68a7d66899)" style="fill: none; stroke: #a5d6a7; stroke-opacity: 0.2; stroke-width: 0.5; stroke-linecap: round"/>
   </g>
   <g id="line2d_35">
    <path d="M 43.06235 69.563263 
L 53.96041 69.563263 
L 64.85847 69.563263 
L 75.75653 69.563263 
L 86.65459 69.563263 
L 97.55265 69.563263 
L 108.45071 69.563263 
L 119.34877 69.563263 
L 130.24683 76.243281 
L 141.14489 85.572914 
L 152.04295 91.562539 
L 162.94101 96.227355 
L 173.83907 107.572189 
L 184.73713 121.566639 
L 195.63519 191.438763 
L 206.53325 283.474657 
L 217.43131 291.025122 
L 228.32937 265.064607 
L 239.22743 239.104093 
L 250.12549 213.143578 
L 261.02355 189.516694 
L 271.92161 166.815439 
L 282.81967 131.722365 
L 293.71773 91.714101 
L 304.61579 76.489474 
L 315.51385 71.095229 
L 326.41191 69.563263 
L 337.30997 69.563263 
L 348.20803 69.563263 
L 359.10609 69.563263 
L 370.00415 69.563263 
L 380.90221 69.563263 
L 391.80027 69.563263 
L 402.69833 69.563263 
L 413.59639 69.563263 
L 424.49445 69.563263 
L 435.39251 69.563263 
L 446.29057 69.563263 
L 457.18863 69.563263 
L 468.08669 69.563263 
L 478.98475 69.563263 
L 489.88281 69.563263 
L 500.78087 69.563263 
L 511.67893 69.563263 
L 522.57699 69.563263 
L 533.47505 69.563263 
L 544.37311 69.563263 
L 555.27117 69.563263 
L 566.16923 69.563263 
L 577.06729 69.563263 
L 587.96535 69.563263 
L 598.86341 69.563263 
L 609.76147 69.563263 
L 620.65953 69.563263 
L 631.55759 69.563263 
L 642.45565 69.563263 
L 653.35371 69.563263 
L 664.25177 69.563263 
L 675.14983 69.563263 
L 686.04789 69.563263 
L 696.94595 69.563263 
" clip-path="url(#p68a7d66899)" style="fill: none; stroke: #a5d6a7; stroke-opacity: 0.2; stroke-width: 0.5; stroke-linecap: round"/>
   </g>
   <g id="line2d_36">
    <path d="M 152.04295 314.8968 
L 152.04295 36.8064 
" clip-path="url(#p68a7d66899)" style="fill: none; stroke-dasharray: 5.55,2.4; stroke-dashoffset: 0; stroke: #e53935; stroke-width: 1.5"/>
   </g>
   <g id="line2d_37">
    <path d="M 237.250522 314.8968 
L 237.250522 36.8064 
" clip-path="url(#p68a7d66899)" style="fill: none; stroke-dasharray: 1.2,1.98; stroke-dashoffset: 0; stroke: #ff9800; stroke-width: 1.2"/>
   </g>
   <g id="patch_3">
    <path d="M 43.06235 314.8968 
L 43.06235 36.8064 
" style="fill: none; stroke: #cccccc; stroke-linejoin: miter; stroke-linecap: square"/>
   </g>
   <g id="patch_4">
    <path d="M 696.94595 314.8968 
L 696.94595 36.8064 
" style="fill: none; stroke: #cccccc; stroke-linejoin: miter; stroke-linecap: square"/>
   </g>
   <g id="patch_5">
    <path d="M 43.06235 314.8968 
L 696.94595 314.8968 
" style="fill: none; stroke: #cccccc; stroke-linejoin: miter; stroke-linecap: square"/>
   </g>
   <g id="patch_6">
    <path d="M 43.06235 36.8064 
L 696.94595 36.8064 
" style="fill: none; stroke: #cccccc; stroke-linejoin: miter; stroke-linecap: square"/>
   </g>
   <g id="text_18">
    <!-- n = 20 migrations aligned at t=0 -->
    <g style="fill: #555555" transform="translate(49.601186 51.227862) scale(0.08 -0.08)">
     <defs>
      <path id="DejaVuSans-Oblique-6e" d="M 3566 2113 
L 3156 0 
L 2578 0 
L 2988 2091 
Q 3016 2238 3031 2350 
Q 3047 2463 3047 2528 
Q 3047 2791 2881 2937 
Q 2716 3084 2419 3084 
Q 1956 3084 1622 2776 
Q 1288 2469 1184 1941 
L 800 0 
L 225 0 
L 903 3500 
L 1478 3500 
L 1363 2950 
Q 1603 3253 1940 3418 
Q 2278 3584 2650 3584 
Q 3113 3584 3367 3334 
Q 3622 3084 3622 2631 
Q 3622 2519 3608 2391 
Q 3594 2263 3566 2113 
z
" transform="scale(0.015625)"/>
      <path id="DejaVuSans-Oblique-20" transform="scale(0.015625)"/>
      <path id="DejaVuSans-Oblique-3d" d="M 678 2906 
L 4684 2906 
L 4684 2381 
L 678 2381 
L 678 2906 
z
M 678 1631 
L 4684 1631 
L 4684 1100 
L 678 1100 
L 678 1631 
z
" transform="scale(0.015625)"/>
      <path id="DejaVuSans-Oblique-32" d="M 2950 2253 
L 934 525 
L 3163 525 
L 3053 0 
L 25 0 
L 128 531 
L 2234 2338 
Q 2656 2703 2832 2979 
Q 3009 3256 3009 3547 
Q 3009 3850 2796 4040 
Q 2584 4231 2241 4231 
Q 1944 4231 1581 4125 
Q 1219 4019 806 3816 
L 922 4441 
Q 1309 4594 1662 4672 
Q 2016 4750 2316 4750 
Q 2928 4750 3301 4425 
Q 3675 4100 3675 3572 
Q 3675 3216 3497 2892 
Q 3319 2569 2950 2253 
z
" transform="scale(0.015625)"/>
      <path id="DejaVuSans-Oblique-30" d="M 2444 4750 
Q 3078 4750 3414 4328 
Q 3750 3906 3750 3116 
Q 3750 2516 3592 1923 
Q 3434 1331 3150 863 
Q 2859 394 2467 151 
Q 2075 -91 1600 -91 
Q 988 -91 653 334 
Q 319 759 319 1544 
Q 319 2138 480 2733 
Q 641 3328 928 3794 
Q 1216 4263 1602 4506 
Q 1988 4750 2444 4750 
z
M 2406 4250 
Q 2169 4250 1955 4123 
Q 1741 3997 1569 3750 
Q 1281 3338 1111 2720 
Q 941 2103 941 1453 
Q 941 938 1123 673 
Q 1306 409 1663 409 
Q 1913 409 2125 536 
Q 2338 663 2509 909 
Q 2794 1319 2961 1936 
Q 3128 2553 3128 3206 
Q 3128 3722 2945 3986 
Q 2763 4250 2406 4250 
z
" transform="scale(0.015625)"/>
      <path id="DejaVuSans-Oblique-6d" d="M 5747 2113 
L 5338 0 
L 4763 0 
L 5166 2094 
Q 5191 2228 5203 2325 
Q 5216 2422 5216 2491 
Q 5216 2772 5059 2928 
Q 4903 3084 4622 3084 
Q 4203 3084 3875 2770 
Q 3547 2456 3450 1953 
L 3066 0 
L 2491 0 
L 2900 2094 
Q 2925 2209 2937 2307 
Q 2950 2406 2950 2484 
Q 2950 2769 2794 2926 
Q 2638 3084 2363 3084 
Q 1938 3084 1609 2770 
Q 1281 2456 1184 1953 
L 800 0 
L 225 0 
L 909 3500 
L 1484 3500 
L 1375 2956 
Q 1609 3263 1923 3423 
Q 2238 3584 2597 3584 
Q 2978 3584 3223 3384 
Q 3469 3184 3519 2828 
Q 3781 3197 4126 3390 
Q 4472 3584 4856 3584 
Q 5306 3584 5551 3325 
Q 5797 3066 5797 2591 
Q 5797 2488 5784 2364 
Q 5772 2241 5747 2113 
z
" transform="scale(0.015625)"/>
      <path id="DejaVuSans-Oblique-69" d="M 1172 4863 
L 1747 4863 
L 1606 4134 
L 1031 4134 
L 1172 4863 
z
M 909 3500 
L 1484 3500 
L 800 0 
L 225 0 
L 909 3500 
z
" transform="scale(0.015625)"/>
      <path id="DejaVuSans-Oblique-67" d="M 3816 3500 
L 3219 434 
Q 3047 -456 2561 -893 
Q 2075 -1331 1253 -1331 
Q 950 -1331 690 -1286 
Q 431 -1241 206 -1147 
L 313 -588 
Q 525 -725 762 -790 
Q 1000 -856 1269 -856 
Q 1816 -856 2167 -557 
Q 2519 -259 2631 300 
L 2681 563 
Q 2441 288 2122 144 
Q 1803 0 1434 0 
Q 903 0 598 351 
Q 294 703 294 1319 
Q 294 1803 478 2267 
Q 663 2731 997 3091 
Q 1219 3328 1514 3456 
Q 1809 3584 2131 3584 
Q 2484 3584 2746 3420 
Q 3009 3256 3138 2956 
L 3238 3500 
L 3816 3500 
z
M 2950 2216 
Q 2950 2641 2750 2872 
Q 2550 3103 2181 3103 
Q 1953 3103 1747 3012 
Q 1541 2922 1394 2759 
Q 1156 2491 1023 2127 
Q 891 1763 891 1375 
Q 891 944 1092 712 
Q 1294 481 1672 481 
Q 2219 481 2584 976 
Q 2950 1472 2950 2216 
z
" transform="scale(0.015625)"/>
      <path id="DejaVuSans-Oblique-72" d="M 2853 2969 
Q 2766 3016 2653 3041 
Q 2541 3066 2413 3066 
Q 1953 3066 1609 2717 
Q 1266 2369 1153 1784 
L 800 0 
L 225 0 
L 909 3500 
L 1484 3500 
L 1375 2956 
Q 1603 3259 1920 3421 
Q 2238 3584 2597 3584 
Q 2691 3584 2781 3573 
Q 2872 3563 2963 3538 
L 2853 2969 
z
" transform="scale(0.015625)"/>
      <path id="DejaVuSans-Oblique-61" d="M 3438 1997 
L 3047 0 
L 2472 0 
L 2578 531 
Q 2325 219 2001 64 
Q 1678 -91 1281 -91 
Q 834 -91 548 182 
Q 263 456 263 884 
Q 263 1497 752 1853 
Q 1241 2209 2100 2209 
L 2900 2209 
L 2931 2363 
Q 2938 2388 2941 2417 
Q 2944 2447 2944 2509 
Q 2944 2788 2717 2942 
Q 2491 3097 2081 3097 
Q 1800 3097 1504 3025 
Q 1209 2953 897 2809 
L 997 3341 
Q 1322 3463 1633 3523 
Q 1944 3584 2234 3584 
Q 2853 3584 3176 3315 
Q 3500 3047 3500 2534 
Q 3500 2431 3484 2292 
Q 3469 2153 3438 1997 
z
M 2816 1759 
L 2241 1759 
Q 1534 1759 1195 1570 
Q 856 1381 856 984 
Q 856 709 1029 553 
Q 1203 397 1509 397 
Q 1978 397 2328 733 
Q 2678 1069 2791 1631 
L 2816 1759 
z
" transform="scale(0.015625)"/>
      <path id="DejaVuSans-Oblique-74" d="M 2706 3500 
L 2619 3053 
L 1472 3053 
L 1100 1153 
Q 1081 1047 1072 975 
Q 1063 903 1063 863 
Q 1063 663 1183 572 
Q 1303 481 1569 481 
L 2150 481 
L 2053 0 
L 1503 0 
Q 991 0 739 200 
Q 488 400 488 806 
Q 488 878 497 964 
Q 506 1050 525 1153 
L 897 3053 
L 409 3053 
L 500 3500 
L 978 3500 
L 1172 4494 
L 1747 4494 
L 1556 3500 
L 2706 3500 
z
" transform="scale(0.015625)"/>
      <path id="DejaVuSans-Oblique-6f" d="M 1625 -91 
Q 1009 -91 651 289 
Q 294 669 294 1325 
Q 294 1706 417 2101 
Q 541 2497 738 2766 
Q 1047 3184 1428 3384 
Q 1809 3584 2291 3584 
Q 2888 3584 3255 3212 
Q 3622 2841 3622 2241 
Q 3622 1825 3500 1412 
Q 3378 1000 3181 728 
Q 2875 309 2494 109 
Q 2113 -91 1625 -91 
z
M 891 1344 
Q 891 869 1089 633 
Q 1288 397 1691 397 
Q 2269 397 2648 901 
Q 3028 1406 3028 2181 
Q 3028 2634 2825 2865 
Q 2622 3097 2228 3097 
Q 1903 3097 1650 2945 
Q 1397 2794 1197 2484 
Q 1050 2253 970 1956 
Q 891 1659 891 1344 
z
" transform="scale(0.015625)"/>
      <path id="DejaVuSans-Oblique-73" d="M 3200 3397 
L 3091 2853 
Q 2863 2978 2609 3040 
Q 2356 3103 2088 3103 
Q 1634 3103 1373 2948 
Q 1113 2794 1113 2528 
Q 1113 2219 1719 2053 
Q 1766 2041 1788 2034 
L 1972 1978 
Q 2547 1819 2739 1644 
Q 2931 1469 2931 1166 
Q 2931 609 2489 259 
Q 2047 -91 1331 -91 
Q 1053 -91 747 -37 
Q 441 16 72 128 
L 184 722 
Q 500 559 806 475 
Q 1113 391 1394 391 
Q 1816 391 2080 572 
Q 2344 753 2344 1031 
Q 2344 1331 1650 1516 
L 1591 1531 
L 1394 1581 
Q 956 1697 753 1886 
Q 550 2075 550 2369 
Q 550 2928 970 3256 
Q 1391 3584 2113 3584 
Q 2397 3584 2667 3537 
Q 2938 3491 3200 3397 
z
" transform="scale(0.015625)"/>
      <path id="DejaVuSans-Oblique-6c" d="M 1172 4863 
L 1747 4863 
L 800 0 
L 225 0 
L 1172 4863 
z
" transform="scale(0.015625)"/>
      <path id="DejaVuSans-Oblique-65" d="M 3078 2063 
Q 3088 2113 3092 2166 
Q 3097 2219 3097 2272 
Q 3097 2653 2873 2875 
Q 2650 3097 2266 3097 
Q 1838 3097 1509 2826 
Q 1181 2556 1013 2059 
L 3078 2063 
z
M 3578 1613 
L 903 1613 
Q 884 1494 878 1425 
Q 872 1356 872 1306 
Q 872 872 1139 634 
Q 1406 397 1894 397 
Q 2269 397 2603 481 
Q 2938 566 3225 728 
L 3116 159 
Q 2806 34 2476 -28 
Q 2147 -91 1806 -91 
Q 1078 -91 686 257 
Q 294 606 294 1247 
Q 294 1794 489 2264 
Q 684 2734 1063 3103 
Q 1306 3334 1642 3459 
Q 1978 3584 2356 3584 
Q 2950 3584 3301 3228 
Q 3653 2872 3653 2272 
Q 3653 2128 3634 1964 
Q 3616 1800 3578 1613 
z
" transform="scale(0.015625)"/>
      <path id="DejaVuSans-Oblique-64" d="M 2675 525 
Q 2444 222 2128 65 
Q 1813 -91 1428 -91 
Q 903 -91 598 267 
Q 294 625 294 1247 
Q 294 1766 478 2236 
Q 663 2706 1013 3078 
Q 1244 3325 1534 3454 
Q 1825 3584 2144 3584 
Q 2481 3584 2739 3421 
Q 2997 3259 3138 2956 
L 3513 4863 
L 4091 4863 
L 3144 0 
L 2566 0 
L 2675 525 
z
M 891 1350 
Q 891 897 1095 644 
Q 1300 391 1663 391 
Q 1931 391 2161 520 
Q 2391 650 2566 903 
Q 2750 1166 2856 1509 
Q 2963 1853 2963 2188 
Q 2963 2622 2758 2865 
Q 2553 3109 2194 3109 
Q 1922 3109 1687 2981 
Q 1453 2853 1288 2613 
Q 1106 2353 998 2009 
Q 891 1666 891 1350 
z
" transform="scale(0.015625)"/>
     </defs>
     <use xlink:href="#DejaVuSans-Oblique-6e"/>
     <use xlink:href="#DejaVuSans-Oblique-20" transform="translate(63.378906 0)"/>
     <use xlink:href="#DejaVuSans-Oblique-3d" transform="translate(95.166016 0)"/>
     <use xlink:href="#DejaVuSans-Oblique-20" transform="translate(178.955078 0)"/>
     <use xlink:href="#DejaVuSans-Oblique-32" transform="translate(210.742188 0)"/>
     <use xlink:href="#DejaVuSans-Oblique-30" transform="translate(274.365234 0)"/>
     <use xlink:href="#DejaVuSans-Oblique-20" transform="translate(337.988281 0)"/>
     <use xlink:href="#DejaVuSans-Oblique-6d" transform="translate(369.775391 0)"/>
     <use xlink:href="#DejaVuSans-Oblique-69" transform="translate(467.1875 0)"/>
     <use xlink:href="#DejaVuSans-Oblique-67" transform="translate(494.970703 0)"/>
     <use xlink:href="#DejaVuSans-Oblique-72" transform="translate(558.447266 0)"/>
     <use xlink:href="#DejaVuSans-Oblique-61" transform="translate(599.560547 0)"/>
     <use xlink:href="#DejaVuSans-Oblique-74" transform="translate(660.839844 0)"/>
     <use xlink:href="#DejaVuSans-Oblique-69" transform="translate(700.048828 0)"/>
     <use xlink:href="#DejaVuSans-Oblique-6f" transform="translate(727.832031 0)"/>
     <use xlink:href="#DejaVuSans-Oblique-6e" transform="translate(789.013672 0)"/>
     <use xlink:href="#DejaVuSans-Oblique-73" transform="translate(852.392578 0)"/>
     <use xlink:href="#DejaVuSans-Oblique-20" transform="translate(904.492188 0)"/>
     <use xlink:href="#DejaVuSans-Oblique-61" transform="translate(936.279297 0)"/>
     <use xlink:href="#DejaVuSans-Oblique-6c" transform="translate(997.558594 0)"/>
     <use xlink:href="#DejaVuSans-Oblique-69" transform="translate(1025.341797 0)"/>
     <use xlink:href="#DejaVuSans-Oblique-67" transform="translate(1053.125 0)"/>
     <use xlink:href="#DejaVuSans-Oblique-6e" transform="translate(1116.601562 0)"/>
     <use xlink:href="#DejaVuSans-Oblique-65" transform="translate(1179.980469 0)"/>
     <use xlink:href="#DejaVuSans-Oblique-64" transform="translate(1241.503906 0)"/>
     <use xlink:href="#DejaVuSans-Oblique-20" transform="translate(1304.980469 0)"/>
     <use xlink:href="#DejaVuSans-Oblique-61" transform="translate(1336.767578 0)"/>
     <use xlink:href="#DejaVuSans-Oblique-74" transform="translate(1398.046875 0)"/>
     <use xlink:href="#DejaVuSans-Oblique-20" transform="translate(1437.255859 0)"/>
     <use xlink:href="#DejaVuSans-Oblique-74" transform="translate(1469.042969 0)"/>
     <use xlink:href="#DejaVuSans-Oblique-3d" transform="translate(1508.251953 0)"/>
     <use xlink:href="#DejaVuSans-Oblique-30" transform="translate(1592.041016 0)"/>
    </g>
   </g>
   <g id="line2d_38">
    <path d="M 43.06235 69.775213 
L 53.96041 69.787634 
L 64.85847 69.784688 
L 75.75653 69.783324 
L 86.65459 69.798325 
L 97.55265 69.813701 
L 108.45071 69.797413 
L 119.34877 69.842175 
L 130.24683 73.47515 
L 141.14489 78.863599 
L 152.04295 82.44211 
L 162.94101 85.189356 
L 173.83907 92.595921 
L 184.73713 140.078881 
L 195.63519 229.128642 
L 206.53325 273.687184 
L 217.43131 257.799893 
L 228.32937 234.826055 
L 239.22743 211.342657 
L 250.12549 188.940627 
L 261.02355 168.071128 
L 271.92161 141.683068 
L 282.81967 106.093906 
L 293.71773 80.53937 
L 304.61579 72.589011 
L 315.51385 68.43011 
L 326.41191 67.137161 
L 337.30997 66.860485 
L 348.20803 67.692489 
L 359.10609 69.19686 
L 370.00415 69.746698 
L 380.90221 69.739443 
L 391.80027 69.753016 
L 402.69833 69.761917 
L 413.59639 69.761113 
L 424.49445 69.767335 
L 435.39251 69.783624 
L 446.29057 69.787468 
L 457.18863 69.771179 
L 468.08669 69.761113 
L 478.98475 69.761113 
L 489.88281 69.761113 
L 500.78087 69.761113 
L 511.67893 69.761113 
L 522.57699 69.761113 
L 533.47505 69.761113 
L 544.37311 69.761113 
L 555.27117 69.761113 
L 566.16923 69.761113 
L 577.06729 69.761113 
L 587.96535 69.761113 
L 598.86341 69.761113 
L 609.76147 69.761113 
L 620.65953 69.761113 
L 631.55759 69.759188 
L 642.45565 69.742871 
L 653.35371 69.730405 
L 664.25177 69.746711 
L 675.14983 69.761074 
L 686.04789 69.76072 
L 696.94595 69.761764 
" clip-path="url(#p68a7d66899)" style="fill: none; stroke: #55a868; stroke-width: 2; stroke-linecap: round"/>
   </g>
   <g id="legend_1">
    <g id="patch_7">
     <path d="M 566.197044 96.84765 
L 690.64595 96.84765 
Q 692.44595 96.84765 692.44595 95.04765 
L 692.44595 43.1064 
Q 692.44595 41.3064 690.64595 41.3064 
L 566.197044 41.3064 
Q 564.397044 41.3064 564.397044 43.1064 
L 564.397044 95.04765 
Q 564.397044 96.84765 566.197044 96.84765 
z
" style="fill: #ffffff; opacity: 0.9; stroke: #cccccc; stroke-width: 0.8; stroke-linejoin: miter"/>
    </g>
    <g id="patch_8">
     <path d="M 567.997044 51.744994 
L 585.997044 51.744994 
L 585.997044 45.444994 
L 567.997044 45.444994 
z
" style="fill: #55a868; fill-opacity: 0.25; stroke: #55a868; stroke-opacity: 0.25; stroke-width: 0.8; stroke-linejoin: miter"/>
    </g>
    <g id="text_19">
     <!-- IQR (P25–P75) -->
     <g style="fill: #262626" transform="translate(593.197044 51.744994) scale(0.09 -0.09)">
      <defs>
       <path id="DejaVuSans-49" d="M 628 4666 
L 1259 4666 
L 1259 0 
L 628 0 
L 628 4666 
z
" transform="scale(0.015625)"/>
       <path id="DejaVuSans-51" d="M 2522 4238 
Q 1834 4238 1429 3725 
Q 1025 3213 1025 2328 
Q 1025 1447 1429 934 
Q 1834 422 2522 422 
Q 3209 422 3611 934 
Q 4013 1447 4013 2328 
Q 4013 3213 3611 3725 
Q 3209 4238 2522 4238 
z
M 3406 84 
L 4238 -825 
L 3475 -825 
L 2784 -78 
Q 2681 -84 2626 -87 
Q 2572 -91 2522 -91 
Q 1538 -91 948 567 
Q 359 1225 359 2328 
Q 359 3434 948 4092 
Q 1538 4750 2522 4750 
Q 3503 4750 4090 4092 
Q 4678 3434 4678 2328 
Q 4678 1516 4351 937 
Q 4025 359 3406 84 
z
" transform="scale(0.015625)"/>
       <path id="DejaVuSans-52" d="M 2841 2188 
Q 3044 2119 3236 1894 
Q 3428 1669 3622 1275 
L 4263 0 
L 3584 0 
L 2988 1197 
Q 2756 1666 2539 1819 
Q 2322 1972 1947 1972 
L 1259 1972 
L 1259 0 
L 628 0 
L 628 4666 
L 2053 4666 
Q 2853 4666 3247 4331 
Q 3641 3997 3641 3322 
Q 3641 2881 3436 2590 
Q 3231 2300 2841 2188 
z
M 1259 4147 
L 1259 2491 
L 2053 2491 
Q 2509 2491 2742 2702 
Q 2975 2913 2975 3322 
Q 2975 3731 2742 3939 
Q 2509 4147 2053 4147 
L 1259 4147 
z
" transform="scale(0.015625)"/>
       <path id="DejaVuSans-50" d="M 1259 4147 
L 1259 2394 
L 2053 2394 
Q 2494 2394 2734 2622 
Q 2975 2850 2975 3272 
Q 2975 3691 2734 3919 
Q 2494 4147 2053 4147 
L 1259 4147 
z
M 628 4666 
L 2053 4666 
Q 2838 4666 3239 4311 
Q 3641 3956 3641 3272 
Q 3641 2581 3239 2228 
Q 2838 1875 2053 1875 
L 1259 1875 
L 1259 0 
L 628 0 
L 628 4666 
z
" transform="scale(0.015625)"/>
       <path id="DejaVuSans-2013" d="M 313 1978 
L 2888 1978 
L 2888 1528 
L 313 1528 
L 313 1978 
z
" transform="scale(0.015625)"/>
      </defs>
      <use xlink:href="#DejaVuSans-49"/>
      <use xlink:href="#DejaVuSans-51" transform="translate(29.492188 0)"/>
      <use xlink:href="#DejaVuSans-52" transform="translate(108.203125 0)"/>
      <use xlink:href="#DejaVuSans-20" transform="translate(177.685547 0)"/>
      <use xlink:href="#DejaVuSans-28" transform="translate(209.472656 0)"/>
      <use xlink:href="#DejaVuSans-50" transform="translate(248.486328 0)"/>
      <use xlink:href="#DejaVuSans-32" transform="translate(308.789062 0)"/>
      <use xlink:href="#DejaVuSans-35" transform="translate(372.412109 0)"/>
      <use xlink:href="#DejaVuSans-2013" transform="translate(436.035156 0)"/>
      <use xlink:href="#DejaVuSans-50" transform="translate(486.035156 0)"/>
      <use xlink:href="#DejaVuSans-37" transform="translate(546.337891 0)"/>
      <use xlink:href="#DejaVuSans-35" transform="translate(609.960938 0)"/>
      <use xlink:href="#DejaVuSans-29" transform="translate(673.583984 0)"/>
     </g>
    </g>
    <g id="line2d_39">
     <path d="M 567.997044 61.805306 
L 576.997044 61.805306 
L 585.997044 61.805306 
" style="fill: none; stroke: #55a868; stroke-width: 2; stroke-linecap: round"/>
    </g>
    <g id="text_20">
     <!-- Mean throughput -->
     <g style="fill: #262626" transform="translate(593.197044 64.955306) scale(0.09 -0.09)">
      <defs>
       <path id="DejaVuSans-4d" d="M 628 4666 
L 1569 4666 
L 2759 1491 
L 3956 4666 
L 4897 4666 
L 4897 0 
L 4281 0 
L 4281 4097 
L 3078 897 
L 2444 897 
L 1241 4097 
L 1241 0 
L 628 0 
L 628 4666 
z
" transform="scale(0.015625)"/>
      </defs>
      <use xlink:href="#DejaVuSans-4d"/>
      <use xlink:href="#DejaVuSans-65" transform="translate(86.279297 0)"/>
      <use xlink:href="#DejaVuSans-61" transform="translate(147.802734 0)"/>
      <use xlink:href="#DejaVuSans-6e" transform="translate(209.082031 0)"/>
      <use xlink:href="#DejaVuSans-20" transform="translate(272.460938 0)"/>
      <use xlink:href="#DejaVuSans-74" transform="translate(304.248047 0)"/>
      <use xlink:href="#DejaVuSans-68" transform="translate(343.457031 0)"/>
      <use xlink:href="#DejaVuSans-72" transform="translate(406.835938 0)"/>
      <use xlink:href="#DejaVuSans-6f" transform="translate(445.699219 0)"/>
      <use xlink:href="#DejaVuSans-75" transform="translate(506.880859 0)"/>
      <use xlink:href="#DejaVuSans-67" transform="translate(570.259766 0)"/>
      <use xlink:href="#DejaVuSans-68" transform="translate(633.736328 0)"/>
      <use xlink:href="#DejaVuSans-70" transform="translate(697.115234 0)"/>
      <use xlink:href="#DejaVuSans-75" transform="translate(760.591797 0)"/>
      <use xlink:href="#DejaVuSans-74" transform="translate(823.970703 0)"/>
     </g>
    </g>
    <g id="line2d_40">
     <path d="M 567.997044 75.015619 
L 576.997044 75.015619 
L 585.997044 75.015619 
" style="fill: none; stroke-dasharray: 5.55,2.4; stroke-dashoffset: 0; stroke: #e53935; stroke-width: 1.5"/>
    </g>
    <g id="text_21">
     <!-- Migration start -->
     <g style="fill: #262626" transform="translate(593.197044 78.165619) scale(0.09 -0.09)">
      <use xlink:href="#DejaVuSans-4d"/>
      <use xlink:href="#DejaVuSans-69" transform="translate(86.279297 0)"/>
      <use xlink:href="#DejaVuSans-67" transform="translate(114.0625 0)"/>
      <use xlink:href="#DejaVuSans-72" transform="translate(177.539062 0)"/>
      <use xlink:href="#DejaVuSans-61" transform="translate(218.652344 0)"/>
      <use xlink:href="#DejaVuSans-74" transform="translate(279.931641 0)"/>
      <use xlink:href="#DejaVuSans-69" transform="translate(319.140625 0)"/>
      <use xlink:href="#DejaVuSans-6f" transform="translate(346.923828 0)"/>
      <use xlink:href="#DejaVuSans-6e" transform="translate(408.105469 0)"/>
      <use xlink:href="#DejaVuSans-20" transform="translate(471.484375 0)"/>
      <use xlink:href="#DejaVuSans-73" transform="translate(503.271484 0)"/>
      <use xlink:href="#DejaVuSans-74" transform="translate(555.371094 0)"/>
      <use xlink:href="#DejaVuSans-61" transform="translate(594.580078 0)"/>
      <use xlink:href="#DejaVuSans-72" transform="translate(655.859375 0)"/>
      <use xlink:href="#DejaVuSans-74" transform="translate(696.972656 0)"/>
     </g>
    </g>
    <g id="line2d_41">
     <path d="M 567.997044 88.225931 
L 576.997044 88.225931 
L 585.997044 88.225931 
" style="fill: none; stroke-dasharray: 1.2,1.98; stroke-dashoffset: 0; stroke: #ff9800; stroke-width: 1.2"/>
    </g>
    <g id="text_22">
     <!-- Mean recovery (3.9s) -->
     <g style="fill: #262626" transform="translate(593.197044 91.375931) scale(0.09 -0.09)">
      <defs>
       <path id="DejaVuSans-63" d="M 3122 3366 
L 3122 2828 
Q 2878 2963 2633 3030 
Q 2388 3097 2138 3097 
Q 1578 3097 1268 2742 
Q 959 2388 959 1747 
Q 959 1106 1268 751 
Q 1578 397 2138 397 
Q 2388 397 2633 464 
Q 2878 531 3122 666 
L 3122 134 
Q 2881 22 2623 -34 
Q 2366 -91 2075 -91 
Q 1284 -91 818 406 
Q 353 903 353 1747 
Q 353 2603 823 3093 
Q 1294 3584 2113 3584 
Q 2378 3584 2631 3529 
Q 2884 3475 3122 3366 
z
" transform="scale(0.015625)"/>
       <path id="DejaVuSans-79" d="M 2059 -325 
Q 1816 -950 1584 -1140 
Q 1353 -1331 966 -1331 
L 506 -1331 
L 506 -850 
L 844 -850 
Q 1081 -850 1212 -737 
Q 1344 -625 1503 -206 
L 1606 56 
L 191 3500 
L 800 3500 
L 1894 763 
L 2988 3500 
L 3597 3500 
L 2059 -325 
z
" transform="scale(0.015625)"/>
       <path id="DejaVuSans-2e" d="M 684 794 
L 1344 794 
L 1344 0 
L 684 0 
L 684 794 
z
" transform="scale(0.015625)"/>
       <path id="DejaVuSans-39" d="M 703 97 
L 703 672 
Q 941 559 1184 500 
Q 1428 441 1663 441 
Q 2288 441 2617 861 
Q 2947 1281 2994 2138 
Q 2813 1869 2534 1725 
Q 2256 1581 1919 1581 
Q 1219 1581 811 2004 
Q 403 2428 403 3163 
Q 403 3881 828 4315 
Q 1253 4750 1959 4750 
Q 2769 4750 3195 4129 
Q 3622 3509 3622 2328 
Q 3622 1225 3098 567 
Q 2575 -91 1691 -91 
Q 1453 -91 1209 -44 
Q 966 3 703 97 
z
M 1959 2075 
Q 2384 2075 2632 2365 
Q 2881 2656 2881 3163 
Q 2881 3666 2632 3958 
Q 2384 4250 1959 4250 
Q 1534 4250 1286 3958 
Q 1038 3666 1038 3163 
Q 1038 2656 1286 2365 
Q 1534 2075 1959 2075 
z
" transform="scale(0.015625)"/>
      </defs>
      <use xlink:href="#DejaVuSans-4d"/>
      <use xlink:href="#DejaVuSans-65" transform="translate(86.279297 0)"/>
      <use xlink:href="#DejaVuSans-61" transform="translate(147.802734 0)"/>
      <use xlink:href="#DejaVuSans-6e" transform="translate(209.082031 0)"/>
      <use xlink:href="#DejaVuSans-20" transform="translate(272.460938 0)"/>
      <use xlink:href="#DejaVuSans-72" transform="translate(304.248047 0)"/>
      <use xlink:href="#DejaVuSans-65" transform="translate(343.111328 0)"/>
      <use xlink:href="#DejaVuSans-63" transform="translate(404.634766 0)"/>
      <use xlink:href="#DejaVuSans-6f" transform="translate(459.615234 0)"/>
      <use xlink:href="#DejaVuSans-76" transform="translate(520.796875 0)"/>
      <use xlink:href="#DejaVuSans-65" transform="translate(579.976562 0)"/>
      <use xlink:href="#DejaVuSans-72" transform="translate(641.5 0)"/>
      <use xlink:href="#DejaVuSans-79" transform="translate(682.613281 0)"/>
      <use xlink:href="#DejaVuSans-20" transform="translate(741.792969 0)"/>
      <use xlink:href="#DejaVuSans-28" transform="translate(773.580078 0)"/>
      <use xlink:href="#DejaVuSans-33" transform="translate(812.59375 0)"/>
      <use xlink:href="#DejaVuSans-2e" transform="translate(876.216797 0)"/>
      <use xlink:href="#DejaVuSans-39" transform="translate(908.003906 0)"/>
      <use xlink:href="#DejaVuSans-73" transform="translate(971.626953 0)"/>
      <use xlink:href="#DejaVuSans-29" transform="translate(1023.726562 0)"/>
     </g>
    </g>
   </g>
  </g>
  <g id="text_23">
   <!-- Ensemble Throughput Recovery Profile -->
   <g style="fill: #262626" transform="translate(209.356235 17.26641) scale(0.13248 -0.13248)">
    <defs>
     <path id="DejaVuSans-Bold-45" d="M 588 4666 
L 3834 4666 
L 3834 3756 
L 1791 3756 
L 1791 2888 
L 3713 2888 
L 3713 1978 
L 1791 1978 
L 1791 909 
L 3903 909 
L 3903 0 
L 588 0 
L 588 4666 
z
" transform="scale(0.015625)"/>
     <path id="DejaVuSans-Bold-6e" d="M 4056 2131 
L 4056 0 
L 2931 0 
L 2931 347 
L 2931 1631 
Q 2931 2084 2911 2256 
Q 2891 2428 2841 2509 
Q 2775 2619 2662 2680 
Q 2550 2741 2406 2741 
Q 2056 2741 1856 2470 
Q 1656 2200 1656 1722 
L 1656 0 
L 538 0 
L 538 3500 
L 1656 3500 
L 1656 2988 
Q 1909 3294 2193 3439 
Q 2478 3584 2822 3584 
Q 3428 3584 3742 3212 
Q 4056 2841 4056 2131 
z
" transform="scale(0.015625)"/>
     <path id="DejaVuSans-Bold-73" d="M 3272 3391 
L 3272 2541 
Q 2913 2691 2578 2766 
Q 2244 2841 1947 2841 
Q 1628 2841 1473 2761 
Q 1319 2681 1319 2516 
Q 1319 2381 1436 2309 
Q 1553 2238 1856 2203 
L 2053 2175 
Q 2913 2066 3209 1816 
Q 3506 1566 3506 1031 
Q 3506 472 3093 190 
Q 2681 -91 1863 -91 
Q 1516 -91 1145 -36 
Q 775 19 384 128 
L 384 978 
Q 719 816 1070 734 
Q 1422 653 1784 653 
Q 2113 653 2278 743 
Q 2444 834 2444 1013 
Q 2444 1163 2330 1236 
Q 2216 1309 1875 1350 
L 1678 1375 
Q 931 1469 631 1722 
Q 331 1975 331 2491 
Q 331 3047 712 3315 
Q 1094 3584 1881 3584 
Q 2191 3584 2531 3537 
Q 2872 3491 3272 3391 
z
" transform="scale(0.015625)"/>
     <path id="DejaVuSans-Bold-65" d="M 4031 1759 
L 4031 1441 
L 1416 1441 
Q 1456 1047 1700 850 
Q 1944 653 2381 653 
Q 2734 653 3104 758 
Q 3475 863 3866 1075 
L 3866 213 
Q 3469 63 3072 -14 
Q 2675 -91 2278 -91 
Q 1328 -91 801 392 
Q 275 875 275 1747 
Q 275 2603 792 3093 
Q 1309 3584 2216 3584 
Q 3041 3584 3536 3087 
Q 4031 2591 4031 1759 
z
M 2881 2131 
Q 2881 2450 2695 2645 
Q 2509 2841 2209 2841 
Q 1884 2841 1681 2658 
Q 1478 2475 1428 2131 
L 2881 2131 
z
" transform="scale(0.015625)"/>
     <path id="DejaVuSans-Bold-6d" d="M 3781 2919 
Q 3994 3244 4286 3414 
Q 4578 3584 4928 3584 
Q 5531 3584 5847 3212 
Q 6163 2841 6163 2131 
L 6163 0 
L 5038 0 
L 5038 1825 
Q 5041 1866 5042 1909 
Q 5044 1953 5044 2034 
Q 5044 2406 4934 2573 
Q 4825 2741 4581 2741 
Q 4263 2741 4089 2478 
Q 3916 2216 3909 1719 
L 3909 0 
L 2784 0 
L 2784 1825 
Q 2784 2406 2684 2573 
Q 2584 2741 2328 2741 
Q 2006 2741 1831 2477 
Q 1656 2213 1656 1722 
L 1656 0 
L 531 0 
L 531 3500 
L 1656 3500 
L 1656 2988 
Q 1863 3284 2130 3434 
Q 2397 3584 2719 3584 
Q 3081 3584 3359 3409 
Q 3638 3234 3781 2919 
z
" transform="scale(0.015625)"/>
     <path id="DejaVuSans-Bold-62" d="M 2400 722 
Q 2759 722 2948 984 
Q 3138 1247 3138 1747 
Q 3138 2247 2948 2509 
Q 2759 2772 2400 2772 
Q 2041 2772 1848 2508 
Q 1656 2244 1656 1747 
Q 1656 1250 1848 986 
Q 2041 722 2400 722 
z
M 1656 2988 
Q 1888 3294 2169 3439 
Q 2450 3584 2816 3584 
Q 3463 3584 3878 3070 
Q 4294 2556 4294 1747 
Q 4294 938 3878 423 
Q 3463 -91 2816 -91 
Q 2450 -91 2169 54 
Q 1888 200 1656 506 
L 1656 0 
L 538 0 
L 538 4863 
L 1656 4863 
L 1656 2988 
z
" transform="scale(0.015625)"/>
     <path id="DejaVuSans-Bold-6c" d="M 538 4863 
L 1656 4863 
L 1656 0 
L 538 0 
L 538 4863 
z
" transform="scale(0.015625)"/>
     <path id="DejaVuSans-Bold-20" transform="scale(0.015625)"/>
     <path id="DejaVuSans-Bold-54" d="M 31 4666 
L 4331 4666 
L 4331 3756 
L 2784 3756 
L 2784 0 
L 1581 0 
L 1581 3756 
L 31 3756 
L 31 4666 
z
" transform="scale(0.015625)"/>
     <path id="DejaVuSans-Bold-68" d="M 4056 2131 
L 4056 0 
L 2931 0 
L 2931 347 
L 2931 1625 
Q 2931 2084 2911 2256 
Q 2891 2428 2841 2509 
Q 2775 2619 2662 2680 
Q 2550 2741 2406 2741 
Q 2056 2741 1856 2470 
Q 1656 2200 1656 1722 
L 1656 0 
L 538 0 
L 538 4863 
L 1656 4863 
L 1656 2988 
Q 1909 3294 2193 3439 
Q 2478 3584 2822 3584 
Q 3428 3584 3742 3212 
Q 4056 2841 4056 2131 
z
" transform="scale(0.015625)"/>
     <path id="DejaVuSans-Bold-72" d="M 3138 2547 
Q 2991 2616 2845 2648 
Q 2700 2681 2553 2681 
Q 2122 2681 1889 2404 
Q 1656 2128 1656 1613 
L 1656 0 
L 538 0 
L 538 3500 
L 1656 3500 
L 1656 2925 
Q 1872 3269 2151 3426 
Q 2431 3584 2822 3584 
Q 2878 3584 2943 3579 
Q 3009 3575 3134 3559 
L 3138 2547 
z
" transform="scale(0.015625)"/>
     <path id="DejaVuSans-Bold-6f" d="M 2203 2784 
Q 1831 2784 1636 2517 
Q 1441 2250 1441 1747 
Q 1441 1244 1636 976 
Q 1831 709 2203 709 
Q 2569 709 2762 976 
Q 2956 1244 2956 1747 
Q 2956 2250 2762 2517 
Q 2569 2784 2203 2784 
z
M 2203 3584 
Q 3106 3584 3614 3096 
Q 4122 2609 4122 1747 
Q 4122 884 3614 396 
Q 3106 -91 2203 -91 
Q 1297 -91 786 396 
Q 275 884 275 1747 
Q 275 2609 786 3096 
Q 1297 3584 2203 3584 
z
" transform="scale(0.015625)"/>
     <path id="DejaVuSans-Bold-75" d="M 500 1363 
L 500 3500 
L 1625 3500 
L 1625 3150 
Q 1625 2866 1622 2436 
Q 1619 2006 1619 1863 
Q 1619 1441 1641 1255 
Q 1663 1069 1716 984 
Q 1784 875 1895 815 
Q 2006 756 2150 756 
Q 2500 756 2700 1025 
Q 2900 1294 2900 1772 
L 2900 3500 
L 4019 3500 
L 4019 0 
L 2900 0 
L 2900 506 
Q 2647 200 2364 54 
Q 2081 -91 1741 -91 
Q 1134 -91 817 281 
Q 500 653 500 1363 
z
" transform="scale(0.015625)"/>
     <path id="DejaVuSans-Bold-67" d="M 2919 594 
Q 2688 288 2409 144 
Q 2131 0 1766 0 
Q 1125 0 706 504 
Q 288 1009 288 1791 
Q 288 2575 706 3076 
Q 1125 3578 1766 3578 
Q 2131 3578 2409 3434 
Q 2688 3291 2919 2981 
L 2919 3500 
L 4044 3500 
L 4044 353 
Q 4044 -491 3511 -936 
Q 2978 -1381 1966 -1381 
Q 1638 -1381 1331 -1331 
Q 1025 -1281 716 -1178 
L 716 -306 
Q 1009 -475 1290 -558 
Q 1572 -641 1856 -641 
Q 2406 -641 2662 -400 
Q 2919 -159 2919 353 
L 2919 594 
z
M 2181 2772 
Q 1834 2772 1640 2515 
Q 1447 2259 1447 1791 
Q 1447 1309 1634 1061 
Q 1822 813 2181 813 
Q 2531 813 2725 1069 
Q 2919 1325 2919 1791 
Q 2919 2259 2725 2515 
Q 2531 2772 2181 2772 
z
" transform="scale(0.015625)"/>
     <path id="DejaVuSans-Bold-70" d="M 1656 506 
L 1656 -1331 
L 538 -1331 
L 538 3500 
L 1656 3500 
L 1656 2988 
Q 1888 3294 2169 3439 
Q 2450 3584 2816 3584 
Q 3463 3584 3878 3070 
Q 4294 2556 4294 1747 
Q 4294 938 3878 423 
Q 3463 -91 2816 -91 
Q 2450 -91 2169 54 
Q 1888 200 1656 506 
z
M 2400 2772 
Q 2041 2772 1848 2508 
Q 1656 2244 1656 1747 
Q 1656 1250 1848 986 
Q 2041 722 2400 722 
Q 2759 722 2948 984 
Q 3138 1247 3138 1747 
Q 3138 2247 2948 2509 
Q 2759 2772 2400 2772 
z
" transform="scale(0.015625)"/>
     <path id="DejaVuSans-Bold-74" d="M 1759 4494 
L 1759 3500 
L 2913 3500 
L 2913 2700 
L 1759 2700 
L 1759 1216 
Q 1759 972 1856 886 
Q 1953 800 2241 800 
L 2816 800 
L 2816 0 
L 1856 0 
Q 1194 0 917 276 
Q 641 553 641 1216 
L 641 2700 
L 84 2700 
L 84 3500 
L 641 3500 
L 641 4494 
L 1759 4494 
z
" transform="scale(0.015625)"/>
     <path id="DejaVuSans-Bold-52" d="M 2297 2597 
Q 2675 2597 2839 2737 
Q 3003 2878 3003 3200 
Q 3003 3519 2839 3656 
Q 2675 3794 2297 3794 
L 1791 3794 
L 1791 2597 
L 2297 2597 
z
M 1791 1766 
L 1791 0 
L 588 0 
L 588 4666 
L 2425 4666 
Q 3347 4666 3776 4356 
Q 4206 4047 4206 3378 
Q 4206 2916 3982 2619 
Q 3759 2322 3309 2181 
Q 3556 2125 3751 1926 
Q 3947 1728 4147 1325 
L 4800 0 
L 3519 0 
L 2950 1159 
Q 2778 1509 2601 1637 
Q 2425 1766 2131 1766 
L 1791 1766 
z
" transform="scale(0.015625)"/>
     <path id="DejaVuSans-Bold-63" d="M 3366 3391 
L 3366 2478 
Q 3138 2634 2908 2709 
Q 2678 2784 2431 2784 
Q 1963 2784 1702 2511 
Q 1441 2238 1441 1747 
Q 1441 1256 1702 982 
Q 1963 709 2431 709 
Q 2694 709 2930 787 
Q 3166 866 3366 1019 
L 3366 103 
Q 3103 6 2833 -42 
Q 2563 -91 2291 -91 
Q 1344 -91 809 395 
Q 275 881 275 1747 
Q 275 2613 809 3098 
Q 1344 3584 2291 3584 
Q 2566 3584 2833 3536 
Q 3100 3488 3366 3391 
z
" transform="scale(0.015625)"/>
     <path id="DejaVuSans-Bold-76" d="M 97 3500 
L 1216 3500 
L 2088 1081 
L 2956 3500 
L 4078 3500 
L 2700 0 
L 1472 0 
L 97 3500 
z
" transform="scale(0.015625)"/>
     <path id="DejaVuSans-Bold-79" d="M 78 3500 
L 1197 3500 
L 2138 1125 
L 2938 3500 
L 4056 3500 
L 2584 -331 
Q 2363 -916 2067 -1148 
Q 1772 -1381 1288 -1381 
L 641 -1381 
L 641 -647 
L 991 -647 
Q 1275 -647 1404 -556 
Q 1534 -466 1606 -231 
L 1638 -134 
L 78 3500 
z
" transform="scale(0.015625)"/>
     <path id="DejaVuSans-Bold-50" d="M 588 4666 
L 2584 4666 
Q 3475 4666 3951 4270 
Q 4428 3875 4428 3144 
Q 4428 2409 3951 2014 
Q 3475 1619 2584 1619 
L 1791 1619 
L 1791 0 
L 588 0 
L 588 4666 
z
M 1791 3794 
L 1791 2491 
L 2456 2491 
Q 2806 2491 2997 2661 
Q 3188 2831 3188 3144 
Q 3188 3456 2997 3625 
Q 2806 3794 2456 3794 
L 1791 3794 
z
" transform="scale(0.015625)"/>
     <path id="DejaVuSans-Bold-66" d="M 2841 4863 
L 2841 4128 
L 2222 4128 
Q 1984 4128 1890 4042 
Q 1797 3956 1797 3744 
L 1797 3500 
L 2753 3500 
L 2753 2700 
L 1797 2700 
L 1797 0 
L 678 0 
L 678 2700 
L 122 2700 
L 122 3500 
L 678 3500 
L 678 3744 
Q 678 4316 997 4589 
Q 1316 4863 1984 4863 
L 2841 4863 
z
" transform="scale(0.015625)"/>
     <path id="DejaVuSans-Bold-69" d="M 538 3500 
L 1656 3500 
L 1656 0 
L 538 0 
L 538 3500 
z
M 538 4863 
L 1656 4863 
L 1656 3950 
L 538 3950 
L 538 4863 
z
" transform="scale(0.015625)"/>
    </defs>
    <use xlink:href="#DejaVuSans-Bold-45"/>
    <use xlink:href="#DejaVuSans-Bold-6e" transform="translate(68.310547 0)"/>
    <use xlink:href="#DejaVuSans-Bold-73" transform="translate(139.501953 0)"/>
    <use xlink:href="#DejaVuSans-Bold-65" transform="translate(199.023438 0)"/>
    <use xlink:href="#DejaVuSans-Bold-6d" transform="translate(266.845703 0)"/>
    <use xlink:href="#DejaVuSans-Bold-62" transform="translate(371.044922 0)"/>
    <use xlink:href="#DejaVuSans-Bold-6c" transform="translate(442.626953 0)"/>
    <use xlink:href="#DejaVuSans-Bold-65" transform="translate(476.904297 0)"/>
    <use xlink:href="#DejaVuSans-Bold-20" transform="translate(544.726562 0)"/>
    <use xlink:href="#DejaVuSans-Bold-54" transform="translate(579.541016 0)"/>
    <use xlink:href="#DejaVuSans-Bold-68" transform="translate(647.753906 0)"/>
    <use xlink:href="#DejaVuSans-Bold-72" transform="translate(718.945312 0)"/>
    <use xlink:href="#DejaVuSans-Bold-6f" transform="translate(768.261719 0)"/>
    <use xlink:href="#DejaVuSans-Bold-75" transform="translate(836.962891 0)"/>
    <use xlink:href="#DejaVuSans-Bold-67" transform="translate(908.154297 0)"/>
    <use xlink:href="#DejaVuSans-Bold-68" transform="translate(979.736328 0)"/>
    <use xlink:href="#DejaVuSans-Bold-70" transform="translate(1050.927734 0)"/>
    <use xlink:href="#DejaVuSans-Bold-75" transform="translate(1122.509766 0)"/>
    <use xlink:href="#DejaVuSans-Bold-74" transform="translate(1193.701172 0)"/>
    <use xlink:href="#DejaVuSans-Bold-20" transform="translate(1241.503906 0)"/>
    <use xlink:href="#DejaVuSans-Bold-52" transform="translate(1276.318359 0)"/>
    <use xlink:href="#DejaVuSans-Bold-65" transform="translate(1353.320312 0)"/>
    <use xlink:href="#DejaVuSans-Bold-63" transform="translate(1421.142578 0)"/>
    <use xlink:href="#DejaVuSans-Bold-6f" transform="translate(1480.419922 0)"/>
    <use xlink:href="#DejaVuSans-Bold-76" transform="translate(1549.121094 0)"/>
    <use xlink:href="#DejaVuSans-Bold-65" transform="translate(1614.306641 0)"/>
    <use xlink:href="#DejaVuSans-Bold-72" transform="translate(1682.128906 0)"/>
    <use xlink:href="#DejaVuSans-Bold-79" transform="translate(1731.445312 0)"/>
    <use xlink:href="#DejaVuSans-Bold-20" transform="translate(1796.630859 0)"/>
    <use xlink:href="#DejaVuSans-Bold-50" transform="translate(1831.445312 0)"/>
    <use xlink:href="#DejaVuSans-Bold-72" transform="translate(1904.736328 0)"/>
    <use xlink:href="#DejaVuSans-Bold-6f" transform="translate(1954.052734 0)"/>
    <use xlink:href="#DejaVuSans-Bold-66" transform="translate(2022.753906 0)"/>
    <use xlink:href="#DejaVuSans-Bold-69" transform="translate(2066.259766 0)"/>
    <use xlink:href="#DejaVuSans-Bold-6c" transform="translate(2100.537109 0)"/>
    <use xlink:href="#DejaVuSans-Bold-65" transform="translate(2134.814453 0)"/>
   </g>
  </g>
 </g>
 <defs>
  <clipPath id="p68a7d66899">
   <rect x="43.06235" y="36.8064" width="653.8836" height="278.0904"/>
  </clipPath>
 </defs>
</svg>
