<?xml version="1.0" encoding="utf-8" standalone="no"?>
<!DOCTYPE svg PUBLIC "-//W3C//DTD SVG 1.1//EN"
  "http://www.w3.org/Graphics/SVG/1.1/DTD/svg11.dtd">
<svg xmlns:xlink="http://www.w3.org/1999/xlink" width="638.453766pt" height="355.532681pt" viewBox="0 0 638.453766 355.532681" xmlns="http://www.w3.org/2000/svg" version="1.1">
 <metadata>
  <rdf:RDF xmlns:dc="http://purl.org/dc/elements/1.1/" xmlns:cc="http://creativecommons.org/ns#" xmlns:rdf="http://www.w3.org/1999/02/22-rdf-syntax-ns#">
   <cc:Work>
    <dc:type rdf:resource="http://purl.org/dc/dcmitype/StillImage"/>
    <dc:date>2026-02-22T20:27:21.880421</dc:date>
    <dc:format>image/svg+xml</dc:format>
    <dc:creator>
     <cc:Agent>
      <dc:title>Matplotlib v3.10.8, https://matplotlib.org/</dc:title>
     </cc:Agent>
    </dc:creator>
   </cc:Work>
  </rdf:RDF>
 </metadata>
 <defs>
  <style type="text/css">*{stroke-linejoin: round; stroke-linecap: butt}</style>
 </defs>
 <g id="figure_1">
  <g id="patch_1">
   <path d="M 0 355.532681 
L 638.453766 355.532681 
L 638.453766 0 
L 0 0 
z
" style="fill: #ffffff"/>
  </g>
  <g id="axes_1">
   <g id="patch_2">
    <path d="M 55.94005 307.794105 
L 539.65165 307.794105 
L 539.65165 36.8064 
L 55.94005 36.8064 
z
" style="fill: #ffffff"/>
   </g>
   <g id="matplotlib.axis_1">
    <g id="xtick_1">
     <g id="line2d_1">
      <path d="M 84.657622 307.794105 
L 84.657622 36.8064 
" clip-path="url(#p4e10615df6)" style="fill: none; stroke: #cccccc; stroke-width: 0.8; stroke-linecap: round"/>
     </g>
     <g id="text_1">
      <!-- M1 -->
      <g style="fill: #262626" transform="translate(81.978571 328.872409) rotate(-45) scale(0.08 -0.08)">
       <defs>
        <path id="DejaVuSans-4d" d="M 628 4666 
L 1569 4666 
L 2759 1491 
L 3956 4666 
L 4897 4666 
L 4897 0 
L 4281 0 
L 4281 4097 
L 3078 897 
L 2444 897 
L 1241 4097 
L 1241 0 
L 628 0 
L 628 4666 
z
" transform="scale(0.015625)"/>
        <path id="DejaVuSans-31" d="M 794 531 
L 1825 531 
L 1825 4091 
L 703 3866 
L 703 4441 
L 1819 4666 
L 2450 4666 
L 2450 531 
L 3481 531 
L 3481 0 
L 794 0 
L 794 531 
z
" transform="scale(0.015625)"/>
       </defs>
       <use xlink:href="#DejaVuSans-4d"/>
       <use xlink:href="#DejaVuSans-31" transform="translate(86.279297 0)"/>
      </g>
     </g>
    </g>
    <g id="xtick_2">
     <g id="line2d_2">
      <path d="M 107.093225 307.794105 
L 107.093225 36.8064 
" clip-path="url(#p4e10615df6)" style="fill: none; stroke: #cccccc; stroke-width: 0.8; stroke-linecap: round"/>
     </g>
     <g id="text_2">
      <!-- M2 -->
      <g style="fill: #262626" transform="translate(104.414174 328.872409) rotate(-45) scale(0.08 -0.08)">
       <defs>
        <path id="DejaVuSans-32" d="M 1228 531 
L 3431 531 
L 3431 0 
L 469 0 
L 469 531 
Q 828 903 1448 1529 
Q 2069 2156 2228 2338 
Q 2531 2678 2651 2914 
Q 2772 3150 2772 3378 
Q 2772 3750 2511 3984 
Q 2250 4219 1831 4219 
Q 1534 4219 1204 4116 
Q 875 4013 500 3803 
L 500 4441 
Q 881 4594 1212 4672 
Q 1544 4750 1819 4750 
Q 2544 4750 2975 4387 
Q 3406 4025 3406 3419 
Q 3406 3131 3298 2873 
Q 3191 2616 2906 2266 
Q 2828 2175 2409 1742 
Q 1991 1309 1228 531 
z
" transform="scale(0.015625)"/>
       </defs>
       <use xlink:href="#DejaVuSans-4d"/>
       <use xlink:href="#DejaVuSans-32" transform="translate(86.279297 0)"/>
      </g>
     </g>
    </g>
    <g id="xtick_3">
     <g id="line2d_3">
      <path d="M 129.528828 307.794105 
L 129.528828 36.8064 
" clip-path="url(#p4e10615df6)" style="fill: none; stroke: #cccccc; stroke-width: 0.8; stroke-linecap: round"/>
     </g>
     <g id="text_3">
      <!-- M3 -->
      <g style="fill: #262626" transform="translate(126.849777 328.872409) rotate(-45) scale(0.08 -0.08)">
       <defs>
        <path id="DejaVuSans-33" d="M 2597 2516 
Q 3050 2419 3304 2112 
Q 3559 1806 3559 1356 
Q 3559 666 3084 287 
Q 2609 -91 1734 -91 
Q 1441 -91 1130 -33 
Q 819 25 488 141 
L 488 750 
Q 750 597 1062 519 
Q 1375 441 1716 441 
Q 2309 441 2620 675 
Q 2931 909 2931 1356 
Q 2931 1769 2642 2001 
Q 2353 2234 1838 2234 
L 1294 2234 
L 1294 2753 
L 1863 2753 
Q 2328 2753 2575 2939 
Q 2822 3125 2822 3475 
Q 2822 3834 2567 4026 
Q 2313 4219 1838 4219 
Q 1578 4219 1281 4162 
Q 984 4106 628 3988 
L 628 4550 
Q 988 4650 1302 4700 
Q 1616 4750 1894 4750 
Q 2613 4750 3031 4423 
Q 3450 4097 3450 3541 
Q 3450 3153 3228 2886 
Q 3006 2619 2597 2516 
z
" transform="scale(0.015625)"/>
       </defs>
       <use xlink:href="#DejaVuSans-4d"/>
       <use xlink:href="#DejaVuSans-33" transform="translate(86.279297 0)"/>
      </g>
     </g>
    </g>
    <g id="xtick_4">
     <g id="line2d_4">
      <path d="M 151.964431 307.794105 
L 151.964431 36.8064 
" clip-path="url(#p4e10615df6)" style="fill: none; stroke: #cccccc; stroke-width: 0.8; stroke-linecap: round"/>
     </g>
     <g id="text_4">
      <!-- M4 -->
      <g style="fill: #262626" transform="translate(149.28538 328.872409) rotate(-45) scale(0.08 -0.08)">
       <defs>
        <path id="DejaVuSans-34" d="M 2419 4116 
L 825 1625 
L 2419 1625 
L 2419 4116 
z
M 2253 4666 
L 3047 4666 
L 3047 1625 
L 3713 1625 
L 3713 1100 
L 3047 1100 
L 3047 0 
L 2419 0 
L 2419 1100 
L 313 1100 
L 313 1709 
L 2253 4666 
z
" transform="scale(0.015625)"/>
       </defs>
       <use xlink:href="#DejaVuSans-4d"/>
       <use xlink:href="#DejaVuSans-34" transform="translate(86.279297 0)"/>
      </g>
     </g>
    </g>
    <g id="xtick_5">
     <g id="line2d_5">
      <path d="M 174.400034 307.794105 
L 174.400034 36.8064 
" clip-path="url(#p4e10615df6)" style="fill: none; stroke: #cccccc; stroke-width: 0.8; stroke-linecap: round"/>
     </g>
     <g id="text_5">
      <!-- M5 -->
      <g style="fill: #262626" transform="translate(171.720983 328.872409) rotate(-45) scale(0.08 -0.08)">
       <defs>
        <path id="DejaVuSans-35" d="M 691 4666 
L 3169 4666 
L 3169 4134 
L 1269 4134 
L 1269 2991 
Q 1406 3038 1543 3061 
Q 1681 3084 1819 3084 
Q 2600 3084 3056 2656 
Q 3513 2228 3513 1497 
Q 3513 744 3044 326 
Q 2575 -91 1722 -91 
Q 1428 -91 1123 -41 
Q 819 9 494 109 
L 494 744 
Q 775 591 1075 516 
Q 1375 441 1709 441 
Q 2250 441 2565 725 
Q 2881 1009 2881 1497 
Q 2881 1984 2565 2268 
Q 2250 2553 1709 2553 
Q 1456 2553 1204 2497 
Q 953 2441 691 2322 
L 691 4666 
z
" transform="scale(0.015625)"/>
       </defs>
       <use xlink:href="#DejaVuSans-4d"/>
       <use xlink:href="#DejaVuSans-35" transform="translate(86.279297 0)"/>
      </g>
     </g>
    </g>
    <g id="xtick_6">
     <g id="line2d_6">
      <path d="M 196.835637 307.794105 
L 196.835637 36.8064 
" clip-path="url(#p4e10615df6)" style="fill: none; stroke: #cccccc; stroke-width: 0.8; stroke-linecap: round"/>
     </g>
     <g id="text_6">
      <!-- M6 -->
      <g style="fill: #262626" transform="translate(194.156586 328.872409) rotate(-45) scale(0.08 -0.08)">
       <defs>
        <path id="DejaVuSans-36" d="M 2113 2584 
Q 1688 2584 1439 2293 
Q 1191 2003 1191 1497 
Q 1191 994 1439 701 
Q 1688 409 2113 409 
Q 2538 409 2786 701 
Q 3034 994 3034 1497 
Q 3034 2003 2786 2293 
Q 2538 2584 2113 2584 
z
M 3366 4563 
L 3366 3988 
Q 3128 4100 2886 4159 
Q 2644 4219 2406 4219 
Q 1781 4219 1451 3797 
Q 1122 3375 1075 2522 
Q 1259 2794 1537 2939 
Q 1816 3084 2150 3084 
Q 2853 3084 3261 2657 
Q 3669 2231 3669 1497 
Q 3669 778 3244 343 
Q 2819 -91 2113 -91 
Q 1303 -91 875 529 
Q 447 1150 447 2328 
Q 447 3434 972 4092 
Q 1497 4750 2381 4750 
Q 2619 4750 2861 4703 
Q 3103 4656 3366 4563 
z
" transform="scale(0.015625)"/>
       </defs>
       <use xlink:href="#DejaVuSans-4d"/>
       <use xlink:href="#DejaVuSans-36" transform="translate(86.279297 0)"/>
      </g>
     </g>
    </g>
    <g id="xtick_7">
     <g id="line2d_7">
      <path d="M 219.27124 307.794105 
L 219.27124 36.8064 
" clip-path="url(#p4e10615df6)" style="fill: none; stroke: #cccccc; stroke-width: 0.8; stroke-linecap: round"/>
     </g>
     <g id="text_7">
      <!-- M7 -->
      <g style="fill: #262626" transform="translate(216.592189 328.872409) rotate(-45) scale(0.08 -0.08)">
       <defs>
        <path id="DejaVuSans-37" d="M 525 4666 
L 3525 4666 
L 3525 4397 
L 1831 0 
L 1172 0 
L 2766 4134 
L 525 4134 
L 525 4666 
z
" transform="scale(0.015625)"/>
       </defs>
       <use xlink:href="#DejaVuSans-4d"/>
       <use xlink:href="#DejaVuSans-37" transform="translate(86.279297 0)"/>
      </g>
     </g>
    </g>
    <g id="xtick_8">
     <g id="line2d_8">
      <path d="M 241.706843 307.794105 
L 241.706843 36.8064 
" clip-path="url(#p4e10615df6)" style="fill: none; stroke: #cccccc; stroke-width: 0.8; stroke-linecap: round"/>
     </g>
     <g id="text_8">
      <!-- M8 -->
      <g style="fill: #262626" transform="translate(239.027792 328.872409) rotate(-45) scale(0.08 -0.08)">
       <defs>
        <path id="DejaVuSans-38" d="M 2034 2216 
Q 1584 2216 1326 1975 
Q 1069 1734 1069 1313 
Q 1069 891 1326 650 
Q 1584 409 2034 409 
Q 2484 409 2743 651 
Q 3003 894 3003 1313 
Q 3003 1734 2745 1975 
Q 2488 2216 2034 2216 
z
M 1403 2484 
Q 997 2584 770 2862 
Q 544 3141 544 3541 
Q 544 4100 942 4425 
Q 1341 4750 2034 4750 
Q 2731 4750 3128 4425 
Q 3525 4100 3525 3541 
Q 3525 3141 3298 2862 
Q 3072 2584 2669 2484 
Q 3125 2378 3379 2068 
Q 3634 1759 3634 1313 
Q 3634 634 3220 271 
Q 2806 -91 2034 -91 
Q 1263 -91 848 271 
Q 434 634 434 1313 
Q 434 1759 690 2068 
Q 947 2378 1403 2484 
z
M 1172 3481 
Q 1172 3119 1398 2916 
Q 1625 2713 2034 2713 
Q 2441 2713 2670 2916 
Q 2900 3119 2900 3481 
Q 2900 3844 2670 4047 
Q 2441 4250 2034 4250 
Q 1625 4250 1398 4047 
Q 1172 3844 1172 3481 
z
" transform="scale(0.015625)"/>
       </defs>
       <use xlink:href="#DejaVuSans-4d"/>
       <use xlink:href="#DejaVuSans-38" transform="translate(86.279297 0)"/>
      </g>
     </g>
    </g>
    <g id="xtick_9">
     <g id="line2d_9">
      <path d="M 264.142446 307.794105 
L 264.142446 36.8064 
" clip-path="url(#p4e10615df6)" style="fill: none; stroke: #cccccc; stroke-width: 0.8; stroke-linecap: round"/>
     </g>
     <g id="text_9">
      <!-- M9 -->
      <g style="fill: #262626" transform="translate(261.463395 328.872409) rotate(-45) scale(0.08 -0.08)">
       <defs>
        <path id="DejaVuSans-39" d="M 703 97 
L 703 672 
Q 941 559 1184 500 
Q 1428 441 1663 441 
Q 2288 441 2617 861 
Q 2947 1281 2994 2138 
Q 2813 1869 2534 1725 
Q 2256 1581 1919 1581 
Q 1219 1581 811 2004 
Q 403 2428 403 3163 
Q 403 3881 828 4315 
Q 1253 4750 1959 4750 
Q 2769 4750 3195 4129 
Q 3622 3509 3622 2328 
Q 3622 1225 3098 567 
Q 2575 -91 1691 -91 
Q 1453 -91 1209 -44 
Q 966 3 703 97 
z
M 1959 2075 
Q 2384 2075 2632 2365 
Q 2881 2656 2881 3163 
Q 2881 3666 2632 3958 
Q 2384 4250 1959 4250 
Q 1534 4250 1286 3958 
Q 1038 3666 1038 3163 
Q 1038 2656 1286 2365 
Q 1534 2075 1959 2075 
z
" transform="scale(0.015625)"/>
       </defs>
       <use xlink:href="#DejaVuSans-4d"/>
       <use xlink:href="#DejaVuSans-39" transform="translate(86.279297 0)"/>
      </g>
     </g>
    </g>
    <g id="xtick_10">
     <g id="line2d_10">
      <path d="M 286.578049 307.794105 
L 286.578049 36.8064 
" clip-path="url(#p4e10615df6)" style="fill: none; stroke: #cccccc; stroke-width: 0.8; stroke-linecap: round"/>
     </g>
     <g id="text_10">
      <!-- M10 -->
      <g style="fill: #262626" transform="translate(282.099411 332.471582) rotate(-45) scale(0.08 -0.08)">
       <defs>
        <path id="DejaVuSans-30" d="M 2034 4250 
Q 1547 4250 1301 3770 
Q 1056 3291 1056 2328 
Q 1056 1369 1301 889 
Q 1547 409 2034 409 
Q 2525 409 2770 889 
Q 3016 1369 3016 2328 
Q 3016 3291 2770 3770 
Q 2525 4250 2034 4250 
z
M 2034 4750 
Q 2819 4750 3233 4129 
Q 3647 3509 3647 2328 
Q 3647 1150 3233 529 
Q 2819 -91 2034 -91 
Q 1250 -91 836 529 
Q 422 1150 422 2328 
Q 422 3509 836 4129 
Q 1250 4750 2034 4750 
z
" transform="scale(0.015625)"/>
       </defs>
       <use xlink:href="#DejaVuSans-4d"/>
       <use xlink:href="#DejaVuSans-31" transform="translate(86.279297 0)"/>
       <use xlink:href="#DejaVuSans-30" transform="translate(149.902344 0)"/>
      </g>
     </g>
    </g>
    <g id="xtick_11">
     <g id="line2d_11">
      <path d="M 309.013651 307.794105 
L 309.013651 36.8064 
" clip-path="url(#p4e10615df6)" style="fill: none; stroke: #cccccc; stroke-width: 0.8; stroke-linecap: round"/>
     </g>
     <g id="text_11">
      <!-- M11 -->
      <g style="fill: #262626" transform="translate(304.535014 332.471582) rotate(-45) scale(0.08 -0.08)">
       <use xlink:href="#DejaVuSans-4d"/>
       <use xlink:href="#DejaVuSans-31" transform="translate(86.279297 0)"/>
       <use xlink:href="#DejaVuSans-31" transform="translate(149.902344 0)"/>
      </g>
     </g>
    </g>
    <g id="xtick_12">
     <g id="line2d_12">
      <path d="M 331.449254 307.794105 
L 331.449254 36.8064 
" clip-path="url(#p4e10615df6)" style="fill: none; stroke: #cccccc; stroke-width: 0.8; stroke-linecap: round"/>
     </g>
     <g id="text_12">
      <!-- M12 -->
      <g style="fill: #262626" transform="translate(326.970617 332.471582) rotate(-45) scale(0.08 -0.08)">
       <use xlink:href="#DejaVuSans-4d"/>
       <use xlink:href="#DejaVuSans-31" transform="translate(86.279297 0)"/>
       <use xlink:href="#DejaVuSans-32" transform="translate(149.902344 0)"/>
      </g>
     </g>
    </g>
    <g id="xtick_13">
     <g id="line2d_13">
      <path d="M 353.884857 307.794105 
L 353.884857 36.8064 
" clip-path="url(#p4e10615df6)" style="fill: none; stroke: #cccccc; stroke-width: 0.8; stroke-linecap: round"/>
     </g>
     <g id="text_13">
      <!-- M13 -->
      <g style="fill: #262626" transform="translate(349.40622 332.471582) rotate(-45) scale(0.08 -0.08)">
       <use xlink:href="#DejaVuSans-4d"/>
       <use xlink:href="#DejaVuSans-31" transform="translate(86.279297 0)"/>
       <use xlink:href="#DejaVuSans-33" transform="translate(149.902344 0)"/>
      </g>
     </g>
    </g>
    <g id="xtick_14">
     <g id="line2d_14">
      <path d="M 376.32046 307.794105 
L 376.32046 36.8064 
" clip-path="url(#p4e10615df6)" style="fill: none; stroke: #cccccc; stroke-width: 0.8; stroke-linecap: round"/>
     </g>
     <g id="text_14">
      <!-- M14 -->
      <g style="fill: #262626" transform="translate(371.841823 332.471582) rotate(-45) scale(0.08 -0.08)">
       <use xlink:href="#DejaVuSans-4d"/>
       <use xlink:href="#DejaVuSans-31" transform="translate(86.279297 0)"/>
       <use xlink:href="#DejaVuSans-34" transform="translate(149.902344 0)"/>
      </g>
     </g>
    </g>
    <g id="xtick_15">
     <g id="line2d_15">
      <path d="M 398.756063 307.794105 
L 398.756063 36.8064 
" clip-path="url(#p4e10615df6)" style="fill: none; stroke: #cccccc; stroke-width: 0.8; stroke-linecap: round"/>
     </g>
     <g id="text_15">
      <!-- M15 -->
      <g style="fill: #262626" transform="translate(394.277426 332.471582) rotate(-45) scale(0.08 -0.08)">
       <use xlink:href="#DejaVuSans-4d"/>
       <use xlink:href="#DejaVuSans-31" transform="translate(86.279297 0)"/>
       <use xlink:href="#DejaVuSans-35" transform="translate(149.902344 0)"/>
      </g>
     </g>
    </g>
    <g id="xtick_16">
     <g id="line2d_16">
      <path d="M 421.191666 307.794105 
L 421.191666 36.8064 
" clip-path="url(#p4e10615df6)" style="fill: none; stroke: #cccccc; stroke-width: 0.8; stroke-linecap: round"/>
     </g>
     <g id="text_16">
      <!-- M16 -->
      <g style="fill: #262626" transform="translate(416.713029 332.471582) rotate(-45) scale(0.08 -0.08)">
       <use xlink:href="#DejaVuSans-4d"/>
       <use xlink:href="#DejaVuSans-31" transform="translate(86.279297 0)"/>
       <use xlink:href="#DejaVuSans-36" transform="translate(149.902344 0)"/>
      </g>
     </g>
    </g>
    <g id="xtick_17">
     <g id="line2d_17">
      <path d="M 443.627269 307.794105 
L 443.627269 36.8064 
" clip-path="url(#p4e10615df6)" style="fill: none; stroke: #cccccc; stroke-width: 0.8; stroke-linecap: round"/>
     </g>
     <g id="text_17">
      <!-- M17 -->
      <g style="fill: #262626" transform="translate(439.148632 332.471582) rotate(-45) scale(0.08 -0.08)">
       <use xlink:href="#DejaVuSans-4d"/>
       <use xlink:href="#DejaVuSans-31" transform="translate(86.279297 0)"/>
       <use xlink:href="#DejaVuSans-37" transform="translate(149.902344 0)"/>
      </g>
     </g>
    </g>
    <g id="xtick_18">
     <g id="line2d_18">
      <path d="M 466.062872 307.794105 
L 466.062872 36.8064 
" clip-path="url(#p4e10615df6)" style="fill: none; stroke: #cccccc; stroke-width: 0.8; stroke-linecap: round"/>
     </g>
     <g id="text_18">
      <!-- M18 -->
      <g style="fill: #262626" transform="translate(461.584235 332.471582) rotate(-45) scale(0.08 -0.08)">
       <use xlink:href="#DejaVuSans-4d"/>
       <use xlink:href="#DejaVuSans-31" transform="translate(86.279297 0)"/>
       <use xlink:href="#DejaVuSans-38" transform="translate(149.902344 0)"/>
      </g>
     </g>
    </g>
    <g id="xtick_19">
     <g id="line2d_19">
      <path d="M 488.498475 307.794105 
L 488.498475 36.8064 
" clip-path="url(#p4e10615df6)" style="fill: none; stroke: #cccccc; stroke-width: 0.8; stroke-linecap: round"/>
     </g>
     <g id="text_19">
      <!-- M19 -->
      <g style="fill: #262626" transform="translate(484.019838 332.471582) rotate(-45) scale(0.08 -0.08)">
       <use xlink:href="#DejaVuSans-4d"/>
       <use xlink:href="#DejaVuSans-31" transform="translate(86.279297 0)"/>
       <use xlink:href="#DejaVuSans-39" transform="translate(149.902344 0)"/>
      </g>
     </g>
    </g>
    <g id="xtick_20">
     <g id="line2d_20">
      <path d="M 510.934078 307.794105 
L 510.934078 36.8064 
" clip-path="url(#p4e10615df6)" style="fill: none; stroke: #cccccc; stroke-width: 0.8; stroke-linecap: round"/>
     </g>
     <g id="text_20">
      <!-- M20 -->
      <g style="fill: #262626" transform="translate(506.455441 332.471582) rotate(-45) scale(0.08 -0.08)">
       <use xlink:href="#DejaVuSans-4d"/>
       <use xlink:href="#DejaVuSans-32" transform="translate(86.279297 0)"/>
       <use xlink:href="#DejaVuSans-30" transform="translate(149.902344 0)"/>
      </g>
     </g>
    </g>
    <g id="text_21">
     <!-- Migration # -->
     <g style="fill: #262626" transform="translate(265.39 346.036706) scale(0.1104 -0.1104)">
      <defs>
       <path id="DejaVuSans-69" d="M 603 3500 
L 1178 3500 
L 1178 0 
L 603 0 
L 603 3500 
z
M 603 4863 
L 1178 4863 
L 1178 4134 
L 603 4134 
L 603 4863 
z
" transform="scale(0.015625)"/>
       <path id="DejaVuSans-67" d="M 2906 1791 
Q 2906 2416 2648 2759 
Q 2391 3103 1925 3103 
Q 1463 3103 1205 2759 
Q 947 2416 947 1791 
Q 947 1169 1205 825 
Q 1463 481 1925 481 
Q 2391 481 2648 825 
Q 2906 1169 2906 1791 
z
M 3481 434 
Q 3481 -459 3084 -895 
Q 2688 -1331 1869 -1331 
Q 1566 -1331 1297 -1286 
Q 1028 -1241 775 -1147 
L 775 -588 
Q 1028 -725 1275 -790 
Q 1522 -856 1778 -856 
Q 2344 -856 2625 -561 
Q 2906 -266 2906 331 
L 2906 616 
Q 2728 306 2450 153 
Q 2172 0 1784 0 
Q 1141 0 747 490 
Q 353 981 353 1791 
Q 353 2603 747 3093 
Q 1141 3584 1784 3584 
Q 2172 3584 2450 3431 
Q 2728 3278 2906 2969 
L 2906 3500 
L 3481 3500 
L 3481 434 
z
" transform="scale(0.015625)"/>
       <path id="DejaVuSans-72" d="M 2631 2963 
Q 2534 3019 2420 3045 
Q 2306 3072 2169 3072 
Q 1681 3072 1420 2755 
Q 1159 2438 1159 1844 
L 1159 0 
L 581 0 
L 581 3500 
L 1159 3500 
L 1159 2956 
Q 1341 3275 1631 3429 
Q 1922 3584 2338 3584 
Q 2397 3584 2469 3576 
Q 2541 3569 2628 3553 
L 2631 2963 
z
" transform="scale(0.015625)"/>
       <path id="DejaVuSans-61" d="M 2194 1759 
Q 1497 1759 1228 1600 
Q 959 1441 959 1056 
Q 959 750 1161 570 
Q 1363 391 1709 391 
Q 2188 391 2477 730 
Q 2766 1069 2766 1631 
L 2766 1759 
L 2194 1759 
z
M 3341 1997 
L 3341 0 
L 2766 0 
L 2766 531 
Q 2569 213 2275 61 
Q 1981 -91 1556 -91 
Q 1019 -91 701 211 
Q 384 513 384 1019 
Q 384 1609 779 1909 
Q 1175 2209 1959 2209 
L 2766 2209 
L 2766 2266 
Q 2766 2663 2505 2880 
Q 2244 3097 1772 3097 
Q 1472 3097 1187 3025 
Q 903 2953 641 2809 
L 641 3341 
Q 956 3463 1253 3523 
Q 1550 3584 1831 3584 
Q 2591 3584 2966 3190 
Q 3341 2797 3341 1997 
z
" transform="scale(0.015625)"/>
       <path id="DejaVuSans-74" d="M 1172 4494 
L 1172 3500 
L 2356 3500 
L 2356 3053 
L 1172 3053 
L 1172 1153 
Q 1172 725 1289 603 
Q 1406 481 1766 481 
L 2356 481 
L 2356 0 
L 1766 0 
Q 1100 0 847 248 
Q 594 497 594 1153 
L 594 3053 
L 172 3053 
L 172 3500 
L 594 3500 
L 594 4494 
L 1172 4494 
z
" transform="scale(0.015625)"/>
       <path id="DejaVuSans-6f" d="M 1959 3097 
Q 1497 3097 1228 2736 
Q 959 2375 959 1747 
Q 959 1119 1226 758 
Q 1494 397 1959 397 
Q 2419 397 2687 759 
Q 2956 1122 2956 1747 
Q 2956 2369 2687 2733 
Q 2419 3097 1959 3097 
z
M 1959 3584 
Q 2709 3584 3137 3096 
Q 3566 2609 3566 1747 
Q 3566 888 3137 398 
Q 2709 -91 1959 -91 
Q 1206 -91 779 398 
Q 353 888 353 1747 
Q 353 2609 779 3096 
Q 1206 3584 1959 3584 
z
" transform="scale(0.015625)"/>
       <path id="DejaVuSans-6e" d="M 3513 2113 
L 3513 0 
L 2938 0 
L 2938 2094 
Q 2938 2591 2744 2837 
Q 2550 3084 2163 3084 
Q 1697 3084 1428 2787 
Q 1159 2491 1159 1978 
L 1159 0 
L 581 0 
L 581 3500 
L 1159 3500 
L 1159 2956 
Q 1366 3272 1645 3428 
Q 1925 3584 2291 3584 
Q 2894 3584 3203 3211 
Q 3513 2838 3513 2113 
z
" transform="scale(0.015625)"/>
       <path id="DejaVuSans-20" transform="scale(0.015625)"/>
       <path id="DejaVuSans-23" d="M 3272 2816 
L 2363 2816 
L 2100 1772 
L 3016 1772 
L 3272 2816 
z
M 2803 4594 
L 2478 3297 
L 3391 3297 
L 3719 4594 
L 4219 4594 
L 3897 3297 
L 4872 3297 
L 4872 2816 
L 3775 2816 
L 3519 1772 
L 4513 1772 
L 4513 1294 
L 3397 1294 
L 3072 0 
L 2572 0 
L 2894 1294 
L 1978 1294 
L 1656 0 
L 1153 0 
L 1478 1294 
L 494 1294 
L 494 1772 
L 1594 1772 
L 1856 2816 
L 850 2816 
L 850 3297 
L 1978 3297 
L 2297 4594 
L 2803 4594 
z
" transform="scale(0.015625)"/>
      </defs>
      <use xlink:href="#DejaVuSans-4d"/>
      <use xlink:href="#DejaVuSans-69" transform="translate(86.279297 0)"/>
      <use xlink:href="#DejaVuSans-67" transform="translate(114.0625 0)"/>
      <use xlink:href="#DejaVuSans-72" transform="translate(177.539062 0)"/>
      <use xlink:href="#DejaVuSans-61" transform="translate(218.652344 0)"/>
      <use xlink:href="#DejaVuSans-74" transform="translate(279.931641 0)"/>
      <use xlink:href="#DejaVuSans-69" transform="translate(319.140625 0)"/>
      <use xlink:href="#DejaVuSans-6f" transform="translate(346.923828 0)"/>
      <use xlink:href="#DejaVuSans-6e" transform="translate(408.105469 0)"/>
      <use xlink:href="#DejaVuSans-20" transform="translate(471.484375 0)"/>
      <use xlink:href="#DejaVuSans-23" transform="translate(503.271484 0)"/>
     </g>
    </g>
   </g>
   <g id="matplotlib.axis_2">
    <g id="ytick_1">
     <g id="line2d_21">
      <path d="M 55.94005 307.794105 
L 539.65165 307.794105 
" clip-path="url(#p4e10615df6)" style="fill: none; stroke: #cccccc; stroke-width: 0.8; stroke-linecap: round"/>
     </g>
     <g id="text_22">
      <!-- 0 -->
      <g style="fill: #262626" transform="translate(41.2012 311.638915) scale(0.1012 -0.1012)">
       <use xlink:href="#DejaVuSans-30"/>
      </g>
     </g>
    </g>
    <g id="ytick_2">
     <g id="line2d_22">
      <path d="M 55.94005 249.390953 
L 539.65165 249.390953 
" clip-path="url(#p4e10615df6)" style="fill: none; stroke: #cccccc; stroke-width: 0.8; stroke-linecap: round"/>
     </g>
     <g id="text_23">
      <!-- 1000 -->
      <g style="fill: #262626" transform="translate(21.88465 253.235763) scale(0.1012 -0.1012)">
       <use xlink:href="#DejaVuSans-31"/>
       <use xlink:href="#DejaVuSans-30" transform="translate(63.623047 0)"/>
       <use xlink:href="#DejaVuSans-30" transform="translate(127.246094 0)"/>
       <use xlink:href="#DejaVuSans-30" transform="translate(190.869141 0)"/>
      </g>
     </g>
    </g>
    <g id="ytick_3">
     <g id="line2d_23">
      <path d="M 55.94005 190.987801 
L 539.65165 190.987801 
" clip-path="url(#p4e10615df6)" style="fill: none; stroke: #cccccc; stroke-width: 0.8; stroke-linecap: round"/>
     </g>
     <g id="text_24">
      <!-- 2000 -->
      <g style="fill: #262626" transform="translate(21.88465 194.832611) scale(0.1012 -0.1012)">
       <use xlink:href="#DejaVuSans-32"/>
       <use xlink:href="#DejaVuSans-30" transform="translate(63.623047 0)"/>
       <use xlink:href="#DejaVuSans-30" transform="translate(127.246094 0)"/>
       <use xlink:href="#DejaVuSans-30" transform="translate(190.869141 0)"/>
      </g>
     </g>
    </g>
    <g id="ytick_4">
     <g id="line2d_24">
      <path d="M 55.94005 132.584649 
L 539.65165 132.584649 
" clip-path="url(#p4e10615df6)" style="fill: none; stroke: #cccccc; stroke-width: 0.8; stroke-linecap: round"/>
     </g>
     <g id="text_25">
      <!-- 3000 -->
      <g style="fill: #262626" transform="translate(21.88465 136.429459) scale(0.1012 -0.1012)">
       <use xlink:href="#DejaVuSans-33"/>
       <use xlink:href="#DejaVuSans-30" transform="translate(63.623047 0)"/>
       <use xlink:href="#DejaVuSans-30" transform="translate(127.246094 0)"/>
       <use xlink:href="#DejaVuSans-30" transform="translate(190.869141 0)"/>
      </g>
     </g>
    </g>
    <g id="ytick_5">
     <g id="line2d_25">
      <path d="M 55.94005 74.181497 
L 539.65165 74.181497 
" clip-path="url(#p4e10615df6)" style="fill: none; stroke: #cccccc; stroke-width: 0.8; stroke-linecap: round"/>
     </g>
     <g id="text_26">
      <!-- 4000 -->
      <g style="fill: #262626" transform="translate(21.88465 78.026307) scale(0.1012 -0.1012)">
       <use xlink:href="#DejaVuSans-34"/>
       <use xlink:href="#DejaVuSans-30" transform="translate(63.623047 0)"/>
       <use xlink:href="#DejaVuSans-30" transform="translate(127.246094 0)"/>
       <use xlink:href="#DejaVuSans-30" transform="translate(190.869141 0)"/>
      </g>
     </g>
    </g>
    <g id="text_27">
     <!-- Duration (ms) -->
     <g style="fill: #262626" transform="translate(15.588675 210.588353) rotate(-90) scale(0.1104 -0.1104)">
      <defs>
       <path id="DejaVuSans-44" d="M 1259 4147 
L 1259 519 
L 2022 519 
Q 2988 519 3436 956 
Q 3884 1394 3884 2338 
Q 3884 3275 3436 3711 
Q 2988 4147 2022 4147 
L 1259 4147 
z
M 628 4666 
L 1925 4666 
Q 3281 4666 3915 4102 
Q 4550 3538 4550 2338 
Q 4550 1131 3912 565 
Q 3275 0 1925 0 
L 628 0 
L 628 4666 
z
" transform="scale(0.015625)"/>
       <path id="DejaVuSans-75" d="M 544 1381 
L 544 3500 
L 1119 3500 
L 1119 1403 
Q 1119 906 1312 657 
Q 1506 409 1894 409 
Q 2359 409 2629 706 
Q 2900 1003 2900 1516 
L 2900 3500 
L 3475 3500 
L 3475 0 
L 2900 0 
L 2900 538 
Q 2691 219 2414 64 
Q 2138 -91 1772 -91 
Q 1169 -91 856 284 
Q 544 659 544 1381 
z
M 1991 3584 
L 1991 3584 
z
" transform="scale(0.015625)"/>
       <path id="DejaVuSans-28" d="M 1984 4856 
Q 1566 4138 1362 3434 
Q 1159 2731 1159 2009 
Q 1159 1288 1364 580 
Q 1569 -128 1984 -844 
L 1484 -844 
Q 1016 -109 783 600 
Q 550 1309 550 2009 
Q 550 2706 781 3412 
Q 1013 4119 1484 4856 
L 1984 4856 
z
" transform="scale(0.015625)"/>
       <path id="DejaVuSans-6d" d="M 3328 2828 
Q 3544 3216 3844 3400 
Q 4144 3584 4550 3584 
Q 5097 3584 5394 3201 
Q 5691 2819 5691 2113 
L 5691 0 
L 5113 0 
L 5113 2094 
Q 5113 2597 4934 2840 
Q 4756 3084 4391 3084 
Q 3944 3084 3684 2787 
Q 3425 2491 3425 1978 
L 3425 0 
L 2847 0 
L 2847 2094 
Q 2847 2600 2669 2842 
Q 2491 3084 2119 3084 
Q 1678 3084 1418 2786 
Q 1159 2488 1159 1978 
L 1159 0 
L 581 0 
L 581 3500 
L 1159 3500 
L 1159 2956 
Q 1356 3278 1631 3431 
Q 1906 3584 2284 3584 
Q 2666 3584 2933 3390 
Q 3200 3197 3328 2828 
z
" transform="scale(0.015625)"/>
       <path id="DejaVuSans-73" d="M 2834 3397 
L 2834 2853 
Q 2591 2978 2328 3040 
Q 2066 3103 1784 3103 
Q 1356 3103 1142 2972 
Q 928 2841 928 2578 
Q 928 2378 1081 2264 
Q 1234 2150 1697 2047 
L 1894 2003 
Q 2506 1872 2764 1633 
Q 3022 1394 3022 966 
Q 3022 478 2636 193 
Q 2250 -91 1575 -91 
Q 1294 -91 989 -36 
Q 684 19 347 128 
L 347 722 
Q 666 556 975 473 
Q 1284 391 1588 391 
Q 1994 391 2212 530 
Q 2431 669 2431 922 
Q 2431 1156 2273 1281 
Q 2116 1406 1581 1522 
L 1381 1569 
Q 847 1681 609 1914 
Q 372 2147 372 2553 
Q 372 3047 722 3315 
Q 1072 3584 1716 3584 
Q 2034 3584 2315 3537 
Q 2597 3491 2834 3397 
z
" transform="scale(0.015625)"/>
       <path id="DejaVuSans-29" d="M 513 4856 
L 1013 4856 
Q 1481 4119 1714 3412 
Q 1947 2706 1947 2009 
Q 1947 1309 1714 600 
Q 1481 -109 1013 -844 
L 513 -844 
Q 928 -128 1133 580 
Q 1338 1288 1338 2009 
Q 1338 2731 1133 3434 
Q 928 4138 513 4856 
z
" transform="scale(0.015625)"/>
      </defs>
      <use xlink:href="#DejaVuSans-44"/>
      <use xlink:href="#DejaVuSans-75" transform="translate(77.001953 0)"/>
      <use xlink:href="#DejaVuSans-72" transform="translate(140.380859 0)"/>
      <use xlink:href="#DejaVuSans-61" transform="translate(181.494141 0)"/>
      <use xlink:href="#DejaVuSans-74" transform="translate(242.773438 0)"/>
      <use xlink:href="#DejaVuSans-69" transform="translate(281.982422 0)"/>
      <use xlink:href="#DejaVuSans-6f" transform="translate(309.765625 0)"/>
      <use xlink:href="#DejaVuSans-6e" transform="translate(370.947266 0)"/>
      <use xlink:href="#DejaVuSans-20" transform="translate(434.326172 0)"/>
      <use xlink:href="#DejaVuSans-28" transform="translate(466.113281 0)"/>
      <use xlink:href="#DejaVuSans-6d" transform="translate(505.126953 0)"/>
      <use xlink:href="#DejaVuSans-73" transform="translate(602.539062 0)"/>
      <use xlink:href="#DejaVuSans-29" transform="translate(654.638672 0)"/>
     </g>
    </g>
   </g>
   <g id="patch_3">
    <path d="M 77.926941 307.794105 
L 91.388303 307.794105 
L 91.388303 223.927179 
L 77.926941 223.927179 
z
" clip-path="url(#p4e10615df6)" style="fill: #4caf50; stroke: #ffffff; stroke-width: 0.5; stroke-linejoin: miter"/>
   </g>
   <g id="patch_4">
    <path d="M 100.362544 307.794105 
L 113.823906 307.794105 
L 113.823906 217.26922 
L 100.362544 217.26922 
z
" clip-path="url(#p4e10615df6)" style="fill: #4caf50; stroke: #ffffff; stroke-width: 0.5; stroke-linejoin: miter"/>
   </g>
   <g id="patch_5">
    <path d="M 122.798147 307.794105 
L 136.259509 307.794105 
L 136.259509 211.72092 
L 122.798147 211.72092 
z
" clip-path="url(#p4e10615df6)" style="fill: #4caf50; stroke: #ffffff; stroke-width: 0.5; stroke-linejoin: miter"/>
   </g>
   <g id="patch_6">
    <path d="M 145.23375 307.794105 
L 158.695112 307.794105 
L 158.695112 220.481393 
L 145.23375 220.481393 
z
" clip-path="url(#p4e10615df6)" style="fill: #4caf50; stroke: #ffffff; stroke-width: 0.5; stroke-linejoin: miter"/>
   </g>
   <g id="patch_7">
    <path d="M 167.669353 307.794105 
L 181.130715 307.794105 
L 181.130715 217.561235 
L 167.669353 217.561235 
z
" clip-path="url(#p4e10615df6)" style="fill: #4caf50; stroke: #ffffff; stroke-width: 0.5; stroke-linejoin: miter"/>
   </g>
   <g id="patch_8">
    <path d="M 190.104956 307.794105 
L 203.566318 307.794105 
L 203.566318 218.378879 
L 190.104956 218.378879 
z
" clip-path="url(#p4e10615df6)" style="fill: #4caf50; stroke: #ffffff; stroke-width: 0.5; stroke-linejoin: miter"/>
   </g>
   <g id="patch_9">
    <path d="M 212.540559 307.794105 
L 226.001921 307.794105 
L 226.001921 217.678042 
L 212.540559 217.678042 
z
" clip-path="url(#p4e10615df6)" style="fill: #4caf50; stroke: #ffffff; stroke-width: 0.5; stroke-linejoin: miter"/>
   </g>
   <g id="patch_10">
    <path d="M 234.976162 307.794105 
L 248.437523 307.794105 
L 248.437523 218.320476 
L 234.976162 218.320476 
z
" clip-path="url(#p4e10615df6)" style="fill: #4caf50; stroke: #ffffff; stroke-width: 0.5; stroke-linejoin: miter"/>
   </g>
   <g id="patch_11">
    <path d="M 257.411765 307.794105 
L 270.873126 307.794105 
L 270.873126 193.323927 
L 257.411765 193.323927 
z
" clip-path="url(#p4e10615df6)" style="fill: #4caf50; stroke: #ffffff; stroke-width: 0.5; stroke-linejoin: miter"/>
   </g>
   <g id="patch_12">
    <path d="M 279.847368 307.794105 
L 293.308729 307.794105 
L 293.308729 211.662517 
L 279.847368 211.662517 
z
" clip-path="url(#p4e10615df6)" style="fill: #4caf50; stroke: #ffffff; stroke-width: 0.5; stroke-linejoin: miter"/>
   </g>
   <g id="patch_13">
    <path d="M 302.282971 307.794105 
L 315.744332 307.794105 
L 315.744332 207.399087 
L 302.282971 207.399087 
z
" clip-path="url(#p4e10615df6)" style="fill: #4caf50; stroke: #ffffff; stroke-width: 0.5; stroke-linejoin: miter"/>
   </g>
   <g id="patch_14">
    <path d="M 324.718574 307.794105 
L 338.179935 307.794105 
L 338.179935 221.240634 
L 324.718574 221.240634 
z
" clip-path="url(#p4e10615df6)" style="fill: #4caf50; stroke: #ffffff; stroke-width: 0.5; stroke-linejoin: miter"/>
   </g>
   <g id="patch_15">
    <path d="M 347.154177 307.794105 
L 360.615538 307.794105 
L 360.615538 218.262073 
L 347.154177 218.262073 
z
" clip-path="url(#p4e10615df6)" style="fill: #4caf50; stroke: #ffffff; stroke-width: 0.5; stroke-linejoin: miter"/>
   </g>
   <g id="patch_16">
    <path d="M 369.589779 307.794105 
L 383.051141 307.794105 
L 383.051141 212.480161 
L 369.589779 212.480161 
z
" clip-path="url(#p4e10615df6)" style="fill: #4caf50; stroke: #ffffff; stroke-width: 0.5; stroke-linejoin: miter"/>
   </g>
   <g id="patch_17">
    <path d="M 392.025382 307.794105 
L 405.486744 307.794105 
L 405.486744 212.246549 
L 392.025382 212.246549 
z
" clip-path="url(#p4e10615df6)" style="fill: #4caf50; stroke: #ffffff; stroke-width: 0.5; stroke-linejoin: miter"/>
   </g>
   <g id="patch_18">
    <path d="M 414.460985 307.794105 
L 427.922347 307.794105 
L 427.922347 220.24778 
L 414.460985 220.24778 
z
" clip-path="url(#p4e10615df6)" style="fill: #4caf50; stroke: #ffffff; stroke-width: 0.5; stroke-linejoin: miter"/>
   </g>
   <g id="patch_19">
    <path d="M 436.896588 307.794105 
L 450.35795 307.794105 
L 450.35795 223.751969 
L 436.896588 223.751969 
z
" clip-path="url(#p4e10615df6)" style="fill: #4caf50; stroke: #ffffff; stroke-width: 0.5; stroke-linejoin: miter"/>
   </g>
   <g id="patch_20">
    <path d="M 459.332191 307.794105 
L 472.793553 307.794105 
L 472.793553 221.415843 
L 459.332191 221.415843 
z
" clip-path="url(#p4e10615df6)" style="fill: #4caf50; stroke: #ffffff; stroke-width: 0.5; stroke-linejoin: miter"/>
   </g>
   <g id="patch_21">
    <path d="M 481.767794 307.794105 
L 495.229156 307.794105 
L 495.229156 223.343147 
L 481.767794 223.343147 
z
" clip-path="url(#p4e10615df6)" style="fill: #4caf50; stroke: #ffffff; stroke-width: 0.5; stroke-linejoin: miter"/>
   </g>
   <g id="patch_22">
    <path d="M 504.203397 307.794105 
L 517.664759 307.794105 
L 517.664759 218.086864 
L 504.203397 218.086864 
z
" clip-path="url(#p4e10615df6)" style="fill: #4caf50; stroke: #ffffff; stroke-width: 0.5; stroke-linejoin: miter"/>
   </g>
   <g id="patch_23">
    <path d="M 77.926941 223.927179 
L 91.388303 223.927179 
L 91.388303 217.386026 
L 77.926941 217.386026 
z
" clip-path="url(#p4e10615df6)" style="fill: #81c784; stroke: #ffffff; stroke-width: 0.5; stroke-linejoin: miter"/>
   </g>
   <g id="patch_24">
    <path d="M 100.362544 217.26922 
L 113.823906 217.26922 
L 113.823906 211.136889 
L 100.362544 211.136889 
z
" clip-path="url(#p4e10615df6)" style="fill: #81c784; stroke: #ffffff; stroke-width: 0.5; stroke-linejoin: miter"/>
   </g>
   <g id="patch_25">
    <path d="M 122.798147 211.72092 
L 136.259509 211.72092 
L 136.259509 205.121364 
L 122.798147 205.121364 
z
" clip-path="url(#p4e10615df6)" style="fill: #81c784; stroke: #ffffff; stroke-width: 0.5; stroke-linejoin: miter"/>
   </g>
   <g id="patch_26">
    <path d="M 145.23375 220.481393 
L 158.695112 220.481393 
L 158.695112 214.290659 
L 145.23375 214.290659 
z
" clip-path="url(#p4e10615df6)" style="fill: #81c784; stroke: #ffffff; stroke-width: 0.5; stroke-linejoin: miter"/>
   </g>
   <g id="patch_27">
    <path d="M 167.669353 217.561235 
L 181.130715 217.561235 
L 181.130715 211.604114 
L 167.669353 211.604114 
z
" clip-path="url(#p4e10615df6)" style="fill: #81c784; stroke: #ffffff; stroke-width: 0.5; stroke-linejoin: miter"/>
   </g>
   <g id="patch_28">
    <path d="M 190.104956 218.378879 
L 203.566318 218.378879 
L 203.566318 212.655371 
L 190.104956 212.655371 
z
" clip-path="url(#p4e10615df6)" style="fill: #81c784; stroke: #ffffff; stroke-width: 0.5; stroke-linejoin: miter"/>
   </g>
   <g id="patch_29">
    <path d="M 212.540559 217.678042 
L 226.001921 217.678042 
L 226.001921 211.837726 
L 212.540559 211.837726 
z
" clip-path="url(#p4e10615df6)" style="fill: #81c784; stroke: #ffffff; stroke-width: 0.5; stroke-linejoin: miter"/>
   </g>
   <g id="patch_30">
    <path d="M 234.976162 218.320476 
L 248.437523 218.320476 
L 248.437523 212.129742 
L 234.976162 212.129742 
z
" clip-path="url(#p4e10615df6)" style="fill: #81c784; stroke: #ffffff; stroke-width: 0.5; stroke-linejoin: miter"/>
   </g>
   <g id="patch_31">
    <path d="M 257.411765 193.323927 
L 270.873126 193.323927 
L 270.873126 186.724371 
L 257.411765 186.724371 
z
" clip-path="url(#p4e10615df6)" style="fill: #81c784; stroke: #ffffff; stroke-width: 0.5; stroke-linejoin: miter"/>
   </g>
   <g id="patch_32">
    <path d="M 279.847368 211.662517 
L 293.308729 211.662517 
L 293.308729 205.880605 
L 279.847368 205.880605 
z
" clip-path="url(#p4e10615df6)" style="fill: #81c784; stroke: #ffffff; stroke-width: 0.5; stroke-linejoin: miter"/>
   </g>
   <g id="patch_33">
    <path d="M 302.282971 207.399087 
L 315.744332 207.399087 
L 315.744332 201.617175 
L 302.282971 201.617175 
z
" clip-path="url(#p4e10615df6)" style="fill: #81c784; stroke: #ffffff; stroke-width: 0.5; stroke-linejoin: miter"/>
   </g>
   <g id="patch_34">
    <path d="M 324.718574 221.240634 
L 338.179935 221.240634 
L 338.179935 215.108303 
L 324.718574 215.108303 
z
" clip-path="url(#p4e10615df6)" style="fill: #81c784; stroke: #ffffff; stroke-width: 0.5; stroke-linejoin: miter"/>
   </g>
   <g id="patch_35">
    <path d="M 347.154177 218.262073 
L 360.615538 218.262073 
L 360.615538 212.246549 
L 347.154177 212.246549 
z
" clip-path="url(#p4e10615df6)" style="fill: #81c784; stroke: #ffffff; stroke-width: 0.5; stroke-linejoin: miter"/>
   </g>
   <g id="patch_36">
    <path d="M 369.589779 212.480161 
L 383.051141 212.480161 
L 383.051141 206.289427 
L 369.589779 206.289427 
z
" clip-path="url(#p4e10615df6)" style="fill: #81c784; stroke: #ffffff; stroke-width: 0.5; stroke-linejoin: miter"/>
   </g>
   <g id="patch_37">
    <path d="M 392.025382 212.246549 
L 405.486744 212.246549 
L 405.486744 206.289427 
L 392.025382 206.289427 
z
" clip-path="url(#p4e10615df6)" style="fill: #81c784; stroke: #ffffff; stroke-width: 0.5; stroke-linejoin: miter"/>
   </g>
   <g id="patch_38">
    <path d="M 414.460985 220.24778 
L 427.922347 220.24778 
L 427.922347 214.115449 
L 414.460985 214.115449 
z
" clip-path="url(#p4e10615df6)" style="fill: #81c784; stroke: #ffffff; stroke-width: 0.5; stroke-linejoin: miter"/>
   </g>
   <g id="patch_39">
    <path d="M 436.896588 223.751969 
L 450.35795 223.751969 
L 450.35795 217.386026 
L 436.896588 217.386026 
z
" clip-path="url(#p4e10615df6)" style="fill: #81c784; stroke: #ffffff; stroke-width: 0.5; stroke-linejoin: miter"/>
   </g>
   <g id="patch_40">
    <path d="M 459.332191 221.415843 
L 472.793553 221.415843 
L 472.793553 215.341916 
L 459.332191 215.341916 
z
" clip-path="url(#p4e10615df6)" style="fill: #81c784; stroke: #ffffff; stroke-width: 0.5; stroke-linejoin: miter"/>
   </g>
   <g id="patch_41">
    <path d="M 481.767794 223.343147 
L 495.229156 223.343147 
L 495.229156 217.561235 
L 481.767794 217.561235 
z
" clip-path="url(#p4e10615df6)" style="fill: #81c784; stroke: #ffffff; stroke-width: 0.5; stroke-linejoin: miter"/>
   </g>
   <g id="patch_42">
    <path d="M 504.203397 218.086864 
L 517.664759 218.086864 
L 517.664759 212.071339 
L 504.203397 212.071339 
z
" clip-path="url(#p4e10615df6)" style="fill: #81c784; stroke: #ffffff; stroke-width: 0.5; stroke-linejoin: miter"/>
   </g>
   <g id="patch_43">
    <path d="M 77.926941 217.386026 
L 91.388303 217.386026 
L 91.388303 208.56715 
L 77.926941 208.56715 
z
" clip-path="url(#p4e10615df6)" style="fill: #03a9f4; stroke: #ffffff; stroke-width: 0.5; stroke-linejoin: miter"/>
   </g>
   <g id="patch_44">
    <path d="M 100.362544 211.136889 
L 113.823906 211.136889 
L 113.823906 202.0844 
L 100.362544 202.0844 
z
" clip-path="url(#p4e10615df6)" style="fill: #03a9f4; stroke: #ffffff; stroke-width: 0.5; stroke-linejoin: miter"/>
   </g>
   <g id="patch_45">
    <path d="M 122.798147 205.121364 
L 136.259509 205.121364 
L 136.259509 196.010472 
L 122.798147 196.010472 
z
" clip-path="url(#p4e10615df6)" style="fill: #03a9f4; stroke: #ffffff; stroke-width: 0.5; stroke-linejoin: miter"/>
   </g>
   <g id="patch_46">
    <path d="M 145.23375 214.290659 
L 158.695112 214.290659 
L 158.695112 205.179767 
L 145.23375 205.179767 
z
" clip-path="url(#p4e10615df6)" style="fill: #03a9f4; stroke: #ffffff; stroke-width: 0.5; stroke-linejoin: miter"/>
   </g>
   <g id="patch_47">
    <path d="M 167.669353 211.604114 
L 181.130715 211.604114 
L 181.130715 202.551625 
L 167.669353 202.551625 
z
" clip-path="url(#p4e10615df6)" style="fill: #03a9f4; stroke: #ffffff; stroke-width: 0.5; stroke-linejoin: miter"/>
   </g>
   <g id="patch_48">
    <path d="M 190.104956 212.655371 
L 203.566318 212.655371 
L 203.566318 203.661285 
L 190.104956 203.661285 
z
" clip-path="url(#p4e10615df6)" style="fill: #03a9f4; stroke: #ffffff; stroke-width: 0.5; stroke-linejoin: miter"/>
   </g>
   <g id="patch_49">
    <path d="M 212.540559 211.837726 
L 226.001921 211.837726 
L 226.001921 202.668432 
L 212.540559 202.668432 
z
" clip-path="url(#p4e10615df6)" style="fill: #03a9f4; stroke: #ffffff; stroke-width: 0.5; stroke-linejoin: miter"/>
   </g>
   <g id="patch_50">
    <path d="M 234.976162 212.129742 
L 248.437523 212.129742 
L 248.437523 202.960447 
L 234.976162 202.960447 
z
" clip-path="url(#p4e10615df6)" style="fill: #03a9f4; stroke: #ffffff; stroke-width: 0.5; stroke-linejoin: miter"/>
   </g>
   <g id="patch_51">
    <path d="M 257.411765 186.724371 
L 270.873126 186.724371 
L 270.873126 177.496673 
L 257.411765 177.496673 
z
" clip-path="url(#p4e10615df6)" style="fill: #03a9f4; stroke: #ffffff; stroke-width: 0.5; stroke-linejoin: miter"/>
   </g>
   <g id="patch_52">
    <path d="M 279.847368 205.880605 
L 293.308729 205.880605 
L 293.308729 196.594504 
L 279.847368 196.594504 
z
" clip-path="url(#p4e10615df6)" style="fill: #03a9f4; stroke: #ffffff; stroke-width: 0.5; stroke-linejoin: miter"/>
   </g>
   <g id="patch_53">
    <path d="M 302.282971 201.617175 
L 315.744332 201.617175 
L 315.744332 192.564686 
L 302.282971 192.564686 
z
" clip-path="url(#p4e10615df6)" style="fill: #03a9f4; stroke: #ffffff; stroke-width: 0.5; stroke-linejoin: miter"/>
   </g>
   <g id="patch_54">
    <path d="M 324.718574 215.108303 
L 338.179935 215.108303 
L 338.179935 205.646992 
L 324.718574 205.646992 
z
" clip-path="url(#p4e10615df6)" style="fill: #03a9f4; stroke: #ffffff; stroke-width: 0.5; stroke-linejoin: miter"/>
   </g>
   <g id="patch_55">
    <path d="M 347.154177 212.246549 
L 360.615538 212.246549 
L 360.615538 202.843641 
L 347.154177 202.843641 
z
" clip-path="url(#p4e10615df6)" style="fill: #03a9f4; stroke: #ffffff; stroke-width: 0.5; stroke-linejoin: miter"/>
   </g>
   <g id="patch_56">
    <path d="M 369.589779 206.289427 
L 383.051141 206.289427 
L 383.051141 197.295342 
L 369.589779 197.295342 
z
" clip-path="url(#p4e10615df6)" style="fill: #03a9f4; stroke: #ffffff; stroke-width: 0.5; stroke-linejoin: miter"/>
   </g>
   <g id="patch_57">
    <path d="M 392.025382 206.289427 
L 405.486744 206.289427 
L 405.486744 197.353745 
L 392.025382 197.353745 
z
" clip-path="url(#p4e10615df6)" style="fill: #03a9f4; stroke: #ffffff; stroke-width: 0.5; stroke-linejoin: miter"/>
   </g>
   <g id="patch_58">
    <path d="M 414.460985 214.115449 
L 427.922347 214.115449 
L 427.922347 204.770945 
L 414.460985 204.770945 
z
" clip-path="url(#p4e10615df6)" style="fill: #03a9f4; stroke: #ffffff; stroke-width: 0.5; stroke-linejoin: miter"/>
   </g>
   <g id="patch_59">
    <path d="M 436.896588 217.386026 
L 450.35795 217.386026 
L 450.35795 208.216731 
L 436.896588 208.216731 
z
" clip-path="url(#p4e10615df6)" style="fill: #03a9f4; stroke: #ffffff; stroke-width: 0.5; stroke-linejoin: miter"/>
   </g>
   <g id="patch_60">
    <path d="M 459.332191 215.341916 
L 472.793553 215.341916 
L 472.793553 205.763799 
L 459.332191 205.763799 
z
" clip-path="url(#p4e10615df6)" style="fill: #03a9f4; stroke: #ffffff; stroke-width: 0.5; stroke-linejoin: miter"/>
   </g>
   <g id="patch_61">
    <path d="M 481.767794 217.561235 
L 495.229156 217.561235 
L 495.229156 208.450344 
L 481.767794 208.450344 
z
" clip-path="url(#p4e10615df6)" style="fill: #03a9f4; stroke: #ffffff; stroke-width: 0.5; stroke-linejoin: miter"/>
   </g>
   <g id="patch_62">
    <path d="M 504.203397 212.071339 
L 517.664759 212.071339 
L 517.664759 202.960447 
L 504.203397 202.960447 
z
" clip-path="url(#p4e10615df6)" style="fill: #03a9f4; stroke: #ffffff; stroke-width: 0.5; stroke-linejoin: miter"/>
   </g>
   <g id="patch_63">
    <path d="M 77.926941 208.56715 
L 91.388303 208.56715 
L 91.388303 84.518855 
L 77.926941 84.518855 
z
" clip-path="url(#p4e10615df6)" style="fill: #ff9800; stroke: #ffffff; stroke-width: 0.5; stroke-linejoin: miter"/>
   </g>
   <g id="patch_64">
    <path d="M 100.362544 202.0844 
L 113.823906 202.0844 
L 113.823906 88.548673 
L 100.362544 88.548673 
z
" clip-path="url(#p4e10615df6)" style="fill: #ff9800; stroke: #ffffff; stroke-width: 0.5; stroke-linejoin: miter"/>
   </g>
   <g id="patch_65">
    <path d="M 122.798147 196.010472 
L 136.259509 196.010472 
L 136.259509 87.789432 
L 122.798147 87.789432 
z
" clip-path="url(#p4e10615df6)" style="fill: #ff9800; stroke: #ffffff; stroke-width: 0.5; stroke-linejoin: miter"/>
   </g>
   <g id="patch_66">
    <path d="M 145.23375 205.179767 
L 158.695112 205.179767 
L 158.695112 105.076765 
L 145.23375 105.076765 
z
" clip-path="url(#p4e10615df6)" style="fill: #ff9800; stroke: #ffffff; stroke-width: 0.5; stroke-linejoin: miter"/>
   </g>
   <g id="patch_67">
    <path d="M 167.669353 202.551625 
L 181.130715 202.551625 
L 181.130715 85.336499 
L 167.669353 85.336499 
z
" clip-path="url(#p4e10615df6)" style="fill: #ff9800; stroke: #ffffff; stroke-width: 0.5; stroke-linejoin: miter"/>
   </g>
   <g id="patch_68">
    <path d="M 190.104956 203.661285 
L 203.566318 203.661285 
L 203.566318 113.077996 
L 190.104956 113.077996 
z
" clip-path="url(#p4e10615df6)" style="fill: #ff9800; stroke: #ffffff; stroke-width: 0.5; stroke-linejoin: miter"/>
   </g>
   <g id="patch_69">
    <path d="M 212.540559 202.668432 
L 226.001921 202.668432 
L 226.001921 86.854981 
L 212.540559 86.854981 
z
" clip-path="url(#p4e10615df6)" style="fill: #ff9800; stroke: #ffffff; stroke-width: 0.5; stroke-linejoin: miter"/>
   </g>
   <g id="patch_70">
    <path d="M 234.976162 202.960447 
L 248.437523 202.960447 
L 248.437523 107.646503 
L 234.976162 107.646503 
z
" clip-path="url(#p4e10615df6)" style="fill: #ff9800; stroke: #ffffff; stroke-width: 0.5; stroke-linejoin: miter"/>
   </g>
   <g id="patch_71">
    <path d="M 257.411765 177.496673 
L 270.873126 177.496673 
L 270.873126 62.968092 
L 257.411765 62.968092 
z
" clip-path="url(#p4e10615df6)" style="fill: #ff9800; stroke: #ffffff; stroke-width: 0.5; stroke-linejoin: miter"/>
   </g>
   <g id="patch_72">
    <path d="M 279.847368 196.594504 
L 293.308729 196.594504 
L 293.308729 105.602393 
L 279.847368 105.602393 
z
" clip-path="url(#p4e10615df6)" style="fill: #ff9800; stroke: #ffffff; stroke-width: 0.5; stroke-linejoin: miter"/>
   </g>
   <g id="patch_73">
    <path d="M 302.282971 192.564686 
L 315.744332 192.564686 
L 315.744332 83.467598 
L 302.282971 83.467598 
z
" clip-path="url(#p4e10615df6)" style="fill: #ff9800; stroke: #ffffff; stroke-width: 0.5; stroke-linejoin: miter"/>
   </g>
   <g id="patch_74">
    <path d="M 324.718574 205.646992 
L 338.179935 205.646992 
L 338.179935 113.662028 
L 324.718574 113.662028 
z
" clip-path="url(#p4e10615df6)" style="fill: #ff9800; stroke: #ffffff; stroke-width: 0.5; stroke-linejoin: miter"/>
   </g>
   <g id="patch_75">
    <path d="M 347.154177 202.843641 
L 360.615538 202.843641 
L 360.615538 95.557051 
L 347.154177 95.557051 
z
" clip-path="url(#p4e10615df6)" style="fill: #ff9800; stroke: #ffffff; stroke-width: 0.5; stroke-linejoin: miter"/>
   </g>
   <g id="patch_76">
    <path d="M 369.589779 197.295342 
L 383.051141 197.295342 
L 383.051141 105.427183 
L 369.589779 105.427183 
z
" clip-path="url(#p4e10615df6)" style="fill: #ff9800; stroke: #ffffff; stroke-width: 0.5; stroke-linejoin: miter"/>
   </g>
   <g id="patch_77">
    <path d="M 392.025382 197.353745 
L 405.486744 197.353745 
L 405.486744 77.919299 
L 392.025382 77.919299 
z
" clip-path="url(#p4e10615df6)" style="fill: #ff9800; stroke: #ffffff; stroke-width: 0.5; stroke-linejoin: miter"/>
   </g>
   <g id="patch_78">
    <path d="M 414.460985 204.770945 
L 427.922347 204.770945 
L 427.922347 114.304463 
L 414.460985 114.304463 
z
" clip-path="url(#p4e10615df6)" style="fill: #ff9800; stroke: #ffffff; stroke-width: 0.5; stroke-linejoin: miter"/>
   </g>
   <g id="patch_79">
    <path d="M 436.896588 208.216731 
L 450.35795 208.216731 
L 450.35795 100.229303 
L 436.896588 100.229303 
z
" clip-path="url(#p4e10615df6)" style="fill: #ff9800; stroke: #ffffff; stroke-width: 0.5; stroke-linejoin: miter"/>
   </g>
   <g id="patch_80">
    <path d="M 459.332191 205.763799 
L 472.793553 205.763799 
L 472.793553 113.895641 
L 459.332191 113.895641 
z
" clip-path="url(#p4e10615df6)" style="fill: #ff9800; stroke: #ffffff; stroke-width: 0.5; stroke-linejoin: miter"/>
   </g>
   <g id="patch_81">
    <path d="M 481.767794 208.450344 
L 495.229156 208.450344 
L 495.229156 90.884799 
L 481.767794 90.884799 
z
" clip-path="url(#p4e10615df6)" style="fill: #ff9800; stroke: #ffffff; stroke-width: 0.5; stroke-linejoin: miter"/>
   </g>
   <g id="patch_82">
    <path d="M 504.203397 202.960447 
L 517.664759 202.960447 
L 517.664759 100.813334 
L 504.203397 100.813334 
z
" clip-path="url(#p4e10615df6)" style="fill: #ff9800; stroke: #ffffff; stroke-width: 0.5; stroke-linejoin: miter"/>
   </g>
   <g id="patch_83">
    <path d="M 77.926941 84.518855 
L 91.388303 84.518855 
L 91.388303 82.649954 
L 77.926941 82.649954 
z
" clip-path="url(#p4e10615df6)" style="fill: #9c27b0; stroke: #ffffff; stroke-width: 0.5; stroke-linejoin: miter"/>
   </g>
   <g id="patch_84">
    <path d="M 100.362544 88.548673 
L 113.823906 88.548673 
L 113.823906 86.446159 
L 100.362544 86.446159 
z
" clip-path="url(#p4e10615df6)" style="fill: #9c27b0; stroke: #ffffff; stroke-width: 0.5; stroke-linejoin: miter"/>
   </g>
   <g id="patch_85">
    <path d="M 122.798147 87.789432 
L 136.259509 87.789432 
L 136.259509 85.920531 
L 122.798147 85.920531 
z
" clip-path="url(#p4e10615df6)" style="fill: #9c27b0; stroke: #ffffff; stroke-width: 0.5; stroke-linejoin: miter"/>
   </g>
   <g id="patch_86">
    <path d="M 145.23375 105.076765 
L 158.695112 105.076765 
L 158.695112 103.149461 
L 145.23375 103.149461 
z
" clip-path="url(#p4e10615df6)" style="fill: #9c27b0; stroke: #ffffff; stroke-width: 0.5; stroke-linejoin: miter"/>
   </g>
   <g id="patch_87">
    <path d="M 167.669353 85.336499 
L 181.130715 85.336499 
L 181.130715 83.526001 
L 167.669353 83.526001 
z
" clip-path="url(#p4e10615df6)" style="fill: #9c27b0; stroke: #ffffff; stroke-width: 0.5; stroke-linejoin: miter"/>
   </g>
   <g id="patch_88">
    <path d="M 190.104956 113.077996 
L 203.566318 113.077996 
L 203.566318 111.092289 
L 190.104956 111.092289 
z
" clip-path="url(#p4e10615df6)" style="fill: #9c27b0; stroke: #ffffff; stroke-width: 0.5; stroke-linejoin: miter"/>
   </g>
   <g id="patch_89">
    <path d="M 212.540559 86.854981 
L 226.001921 86.854981 
L 226.001921 84.927677 
L 212.540559 84.927677 
z
" clip-path="url(#p4e10615df6)" style="fill: #9c27b0; stroke: #ffffff; stroke-width: 0.5; stroke-linejoin: miter"/>
   </g>
   <g id="patch_90">
    <path d="M 234.976162 107.646503 
L 248.437523 107.646503 
L 248.437523 105.602393 
L 234.976162 105.602393 
z
" clip-path="url(#p4e10615df6)" style="fill: #9c27b0; stroke: #ffffff; stroke-width: 0.5; stroke-linejoin: miter"/>
   </g>
   <g id="patch_91">
    <path d="M 257.411765 62.968092 
L 270.873126 62.968092 
L 270.873126 61.157594 
L 257.411765 61.157594 
z
" clip-path="url(#p4e10615df6)" style="fill: #9c27b0; stroke: #ffffff; stroke-width: 0.5; stroke-linejoin: miter"/>
   </g>
   <g id="patch_92">
    <path d="M 279.847368 105.602393 
L 293.308729 105.602393 
L 293.308729 103.791895 
L 279.847368 103.791895 
z
" clip-path="url(#p4e10615df6)" style="fill: #9c27b0; stroke: #ffffff; stroke-width: 0.5; stroke-linejoin: miter"/>
   </g>
   <g id="patch_93">
    <path d="M 302.282971 83.467598 
L 315.744332 83.467598 
L 315.744332 81.715504 
L 302.282971 81.715504 
z
" clip-path="url(#p4e10615df6)" style="fill: #9c27b0; stroke: #ffffff; stroke-width: 0.5; stroke-linejoin: miter"/>
   </g>
   <g id="patch_94">
    <path d="M 324.718574 113.662028 
L 338.179935 113.662028 
L 338.179935 111.793127 
L 324.718574 111.793127 
z
" clip-path="url(#p4e10615df6)" style="fill: #9c27b0; stroke: #ffffff; stroke-width: 0.5; stroke-linejoin: miter"/>
   </g>
   <g id="patch_95">
    <path d="M 347.154177 95.557051 
L 360.615538 95.557051 
L 360.615538 93.68815 
L 347.154177 93.68815 
z
" clip-path="url(#p4e10615df6)" style="fill: #9c27b0; stroke: #ffffff; stroke-width: 0.5; stroke-linejoin: miter"/>
   </g>
   <g id="patch_96">
    <path d="M 369.589779 105.427183 
L 383.051141 105.427183 
L 383.051141 103.558283 
L 369.589779 103.558283 
z
" clip-path="url(#p4e10615df6)" style="fill: #9c27b0; stroke: #ffffff; stroke-width: 0.5; stroke-linejoin: miter"/>
   </g>
   <g id="patch_97">
    <path d="M 392.025382 77.919299 
L 405.486744 77.919299 
L 405.486744 76.167204 
L 392.025382 76.167204 
z
" clip-path="url(#p4e10615df6)" style="fill: #9c27b0; stroke: #ffffff; stroke-width: 0.5; stroke-linejoin: miter"/>
   </g>
   <g id="patch_98">
    <path d="M 414.460985 114.304463 
L 427.922347 114.304463 
L 427.922347 112.493965 
L 414.460985 112.493965 
z
" clip-path="url(#p4e10615df6)" style="fill: #9c27b0; stroke: #ffffff; stroke-width: 0.5; stroke-linejoin: miter"/>
   </g>
   <g id="patch_99">
    <path d="M 436.896588 100.229303 
L 450.35795 100.229303 
L 450.35795 98.301999 
L 436.896588 98.301999 
z
" clip-path="url(#p4e10615df6)" style="fill: #9c27b0; stroke: #ffffff; stroke-width: 0.5; stroke-linejoin: miter"/>
   </g>
   <g id="patch_100">
    <path d="M 459.332191 113.895641 
L 472.793553 113.895641 
L 472.793553 111.85153 
L 459.332191 111.85153 
z
" clip-path="url(#p4e10615df6)" style="fill: #9c27b0; stroke: #ffffff; stroke-width: 0.5; stroke-linejoin: miter"/>
   </g>
   <g id="patch_101">
    <path d="M 481.767794 90.884799 
L 495.229156 90.884799 
L 495.229156 89.074301 
L 481.767794 89.074301 
z
" clip-path="url(#p4e10615df6)" style="fill: #9c27b0; stroke: #ffffff; stroke-width: 0.5; stroke-linejoin: miter"/>
   </g>
   <g id="patch_102">
    <path d="M 504.203397 100.813334 
L 517.664759 100.813334 
L 517.664759 98.827627 
L 504.203397 98.827627 
z
" clip-path="url(#p4e10615df6)" style="fill: #9c27b0; stroke: #ffffff; stroke-width: 0.5; stroke-linejoin: miter"/>
   </g>
   <g id="patch_103">
    <path d="M 77.926941 82.649954 
L 91.388303 82.649954 
L 91.388303 65.245815 
L 77.926941 65.245815 
z
" clip-path="url(#p4e10615df6)" style="fill: #bdbdbd; stroke: #ffffff; stroke-width: 0.5; stroke-linejoin: miter"/>
   </g>
   <g id="patch_104">
    <path d="M 100.362544 86.446159 
L 113.823906 86.446159 
L 113.823906 72.546209 
L 100.362544 72.546209 
z
" clip-path="url(#p4e10615df6)" style="fill: #bdbdbd; stroke: #ffffff; stroke-width: 0.5; stroke-linejoin: miter"/>
   </g>
   <g id="patch_105">
    <path d="M 122.798147 85.920531 
L 136.259509 85.920531 
L 136.259509 74.356707 
L 122.798147 74.356707 
z
" clip-path="url(#p4e10615df6)" style="fill: #bdbdbd; stroke: #ffffff; stroke-width: 0.5; stroke-linejoin: miter"/>
   </g>
   <g id="patch_106">
    <path d="M 145.23375 103.149461 
L 158.695112 103.149461 
L 158.695112 82.76676 
L 145.23375 82.76676 
z
" clip-path="url(#p4e10615df6)" style="fill: #bdbdbd; stroke: #ffffff; stroke-width: 0.5; stroke-linejoin: miter"/>
   </g>
   <g id="patch_107">
    <path d="M 167.669353 83.526001 
L 181.130715 83.526001 
L 181.130715 72.429403 
L 167.669353 72.429403 
z
" clip-path="url(#p4e10615df6)" style="fill: #bdbdbd; stroke: #ffffff; stroke-width: 0.5; stroke-linejoin: miter"/>
   </g>
   <g id="patch_108">
    <path d="M 190.104956 111.092289 
L 203.566318 111.092289 
L 203.566318 96.257889 
L 190.104956 96.257889 
z
" clip-path="url(#p4e10615df6)" style="fill: #bdbdbd; stroke: #ffffff; stroke-width: 0.5; stroke-linejoin: miter"/>
   </g>
   <g id="patch_109">
    <path d="M 212.540559 84.927677 
L 226.001921 84.927677 
L 226.001921 67.465135 
L 212.540559 67.465135 
z
" clip-path="url(#p4e10615df6)" style="fill: #bdbdbd; stroke: #ffffff; stroke-width: 0.5; stroke-linejoin: miter"/>
   </g>
   <g id="patch_110">
    <path d="M 234.976162 105.602393 
L 248.437523 105.602393 
L 248.437523 92.052862 
L 234.976162 92.052862 
z
" clip-path="url(#p4e10615df6)" style="fill: #bdbdbd; stroke: #ffffff; stroke-width: 0.5; stroke-linejoin: miter"/>
   </g>
   <g id="patch_111">
    <path d="M 257.411765 61.157594 
L 270.873126 61.157594 
L 270.873126 49.710576 
L 257.411765 49.710576 
z
" clip-path="url(#p4e10615df6)" style="fill: #bdbdbd; stroke: #ffffff; stroke-width: 0.5; stroke-linejoin: miter"/>
   </g>
   <g id="patch_112">
    <path d="M 279.847368 103.791895 
L 293.308729 103.791895 
L 293.308729 88.31506 
L 279.847368 88.31506 
z
" clip-path="url(#p4e10615df6)" style="fill: #bdbdbd; stroke: #ffffff; stroke-width: 0.5; stroke-linejoin: miter"/>
   </g>
   <g id="patch_113">
    <path d="M 302.282971 81.715504 
L 315.744332 81.715504 
L 315.744332 70.15168 
L 302.282971 70.15168 
z
" clip-path="url(#p4e10615df6)" style="fill: #bdbdbd; stroke: #ffffff; stroke-width: 0.5; stroke-linejoin: miter"/>
   </g>
   <g id="patch_114">
    <path d="M 324.718574 111.793127 
L 338.179935 111.793127 
L 338.179935 96.725114 
L 324.718574 96.725114 
z
" clip-path="url(#p4e10615df6)" style="fill: #bdbdbd; stroke: #ffffff; stroke-width: 0.5; stroke-linejoin: miter"/>
   </g>
   <g id="patch_115">
    <path d="M 347.154177 93.68815 
L 360.615538 93.68815 
L 360.615538 76.342414 
L 347.154177 76.342414 
z
" clip-path="url(#p4e10615df6)" style="fill: #bdbdbd; stroke: #ffffff; stroke-width: 0.5; stroke-linejoin: miter"/>
   </g>
   <g id="patch_116">
    <path d="M 369.589779 103.558283 
L 383.051141 103.558283 
L 383.051141 89.074301 
L 369.589779 89.074301 
z
" clip-path="url(#p4e10615df6)" style="fill: #bdbdbd; stroke: #ffffff; stroke-width: 0.5; stroke-linejoin: miter"/>
   </g>
   <g id="patch_117">
    <path d="M 392.025382 76.167204 
L 405.486744 76.167204 
L 405.486744 64.486574 
L 392.025382 64.486574 
z
" clip-path="url(#p4e10615df6)" style="fill: #bdbdbd; stroke: #ffffff; stroke-width: 0.5; stroke-linejoin: miter"/>
   </g>
   <g id="patch_118">
    <path d="M 414.460985 112.493965 
L 427.922347 112.493965 
L 427.922347 91.936055 
L 414.460985 91.936055 
z
" clip-path="url(#p4e10615df6)" style="fill: #bdbdbd; stroke: #ffffff; stroke-width: 0.5; stroke-linejoin: miter"/>
   </g>
   <g id="patch_119">
    <path d="M 436.896588 98.301999 
L 450.35795 98.301999 
L 450.35795 81.131472 
L 436.896588 81.131472 
z
" clip-path="url(#p4e10615df6)" style="fill: #bdbdbd; stroke: #ffffff; stroke-width: 0.5; stroke-linejoin: miter"/>
   </g>
   <g id="patch_120">
    <path d="M 459.332191 111.85153 
L 472.793553 111.85153 
L 472.793553 97.250742 
L 459.332191 97.250742 
z
" clip-path="url(#p4e10615df6)" style="fill: #bdbdbd; stroke: #ffffff; stroke-width: 0.5; stroke-linejoin: miter"/>
   </g>
   <g id="patch_121">
    <path d="M 481.767794 89.074301 
L 495.229156 89.074301 
L 495.229156 77.627283 
L 481.767794 77.627283 
z
" clip-path="url(#p4e10615df6)" style="fill: #bdbdbd; stroke: #ffffff; stroke-width: 0.5; stroke-linejoin: miter"/>
   </g>
   <g id="patch_122">
    <path d="M 504.203397 98.827627 
L 517.664759 98.827627 
L 517.664759 83.701211 
L 504.203397 83.701211 
z
" clip-path="url(#p4e10615df6)" style="fill: #bdbdbd; stroke: #ffffff; stroke-width: 0.5; stroke-linejoin: miter"/>
   </g>
   <g id="patch_123">
    <path d="M 55.94005 307.794105 
L 55.94005 36.8064 
" style="fill: none; stroke: #cccccc; stroke-linejoin: miter; stroke-linecap: square"/>
   </g>
   <g id="patch_124">
    <path d="M 539.65165 307.794105 
L 539.65165 36.8064 
" style="fill: none; stroke: #cccccc; stroke-linejoin: miter; stroke-linecap: square"/>
   </g>
   <g id="patch_125">
    <path d="M 55.94005 307.794105 
L 539.65165 307.794105 
" style="fill: none; stroke: #cccccc; stroke-linejoin: miter; stroke-linecap: square"/>
   </g>
   <g id="patch_126">
    <path d="M 55.94005 36.8064 
L 539.65165 36.8064 
" style="fill: none; stroke: #cccccc; stroke-linejoin: miter; stroke-linecap: square"/>
   </g>
   <g id="text_28">
    <!-- 4.2s -->
    <g style="fill: #262626" transform="translate(75.191372 57.74175) scale(0.08 -0.08)">
     <defs>
      <path id="DejaVuSans-Bold-34" d="M 2356 3675 
L 1038 1722 
L 2356 1722 
L 2356 3675 
z
M 2156 4666 
L 3494 4666 
L 3494 1722 
L 4159 1722 
L 4159 850 
L 3494 850 
L 3494 0 
L 2356 0 
L 2356 850 
L 288 850 
L 288 1881 
L 2156 4666 
z
" transform="scale(0.015625)"/>
      <path id="DejaVuSans-Bold-2e" d="M 653 1209 
L 1778 1209 
L 1778 0 
L 653 0 
L 653 1209 
z
" transform="scale(0.015625)"/>
      <path id="DejaVuSans-Bold-32" d="M 1844 884 
L 3897 884 
L 3897 0 
L 506 0 
L 506 884 
L 2209 2388 
Q 2438 2594 2547 2791 
Q 2656 2988 2656 3200 
Q 2656 3528 2436 3728 
Q 2216 3928 1850 3928 
Q 1569 3928 1234 3808 
Q 900 3688 519 3450 
L 519 4475 
Q 925 4609 1322 4679 
Q 1719 4750 2100 4750 
Q 2938 4750 3402 4381 
Q 3866 4013 3866 3353 
Q 3866 2972 3669 2642 
Q 3472 2313 2841 1759 
L 1844 884 
z
" transform="scale(0.015625)"/>
      <path id="DejaVuSans-Bold-73" d="M 3272 3391 
L 3272 2541 
Q 2913 2691 2578 2766 
Q 2244 2841 1947 2841 
Q 1628 2841 1473 2761 
Q 1319 2681 1319 2516 
Q 1319 2381 1436 2309 
Q 1553 2238 1856 2203 
L 2053 2175 
Q 2913 2066 3209 1816 
Q 3506 1566 3506 1031 
Q 3506 472 3093 190 
Q 2681 -91 1863 -91 
Q 1516 -91 1145 -36 
Q 775 19 384 128 
L 384 978 
Q 719 816 1070 734 
Q 1422 653 1784 653 
Q 2113 653 2278 743 
Q 2444 834 2444 1013 
Q 2444 1163 2330 1236 
Q 2216 1309 1875 1350 
L 1678 1375 
Q 931 1469 631 1722 
Q 331 1975 331 2491 
Q 331 3047 712 3315 
Q 1094 3584 1881 3584 
Q 2191 3584 2531 3537 
Q 2872 3491 3272 3391 
z
" transform="scale(0.015625)"/>
     </defs>
     <use xlink:href="#DejaVuSans-Bold-34"/>
     <use xlink:href="#DejaVuSans-Bold-2e" transform="translate(69.580078 0)"/>
     <use xlink:href="#DejaVuSans-Bold-32" transform="translate(107.568359 0)"/>
     <use xlink:href="#DejaVuSans-Bold-73" transform="translate(177.148438 0)"/>
    </g>
   </g>
   <g id="text_29">
    <!-- 4.0s -->
    <g style="fill: #262626" transform="translate(97.626975 65.042144) scale(0.08 -0.08)">
     <defs>
      <path id="DejaVuSans-Bold-30" d="M 2944 2338 
Q 2944 3213 2780 3570 
Q 2616 3928 2228 3928 
Q 1841 3928 1675 3570 
Q 1509 3213 1509 2338 
Q 1509 1453 1675 1090 
Q 1841 728 2228 728 
Q 2613 728 2778 1090 
Q 2944 1453 2944 2338 
z
M 4147 2328 
Q 4147 1169 3647 539 
Q 3147 -91 2228 -91 
Q 1306 -91 806 539 
Q 306 1169 306 2328 
Q 306 3491 806 4120 
Q 1306 4750 2228 4750 
Q 3147 4750 3647 4120 
Q 4147 3491 4147 2328 
z
" transform="scale(0.015625)"/>
     </defs>
     <use xlink:href="#DejaVuSans-Bold-34"/>
     <use xlink:href="#DejaVuSans-Bold-2e" transform="translate(69.580078 0)"/>
     <use xlink:href="#DejaVuSans-Bold-30" transform="translate(107.568359 0)"/>
     <use xlink:href="#DejaVuSans-Bold-73" transform="translate(177.148438 0)"/>
    </g>
   </g>
   <g id="text_30">
    <!-- 4.0s -->
    <g style="fill: #262626" transform="translate(120.062578 66.852641) scale(0.08 -0.08)">
     <use xlink:href="#DejaVuSans-Bold-34"/>
     <use xlink:href="#DejaVuSans-Bold-2e" transform="translate(69.580078 0)"/>
     <use xlink:href="#DejaVuSans-Bold-30" transform="translate(107.568359 0)"/>
     <use xlink:href="#DejaVuSans-Bold-73" transform="translate(177.148438 0)"/>
    </g>
   </g>
   <g id="text_31">
    <!-- 3.9s -->
    <g style="fill: #262626" transform="translate(142.498181 75.262695) scale(0.08 -0.08)">
     <defs>
      <path id="DejaVuSans-Bold-33" d="M 2981 2516 
Q 3453 2394 3698 2092 
Q 3944 1791 3944 1325 
Q 3944 631 3412 270 
Q 2881 -91 1863 -91 
Q 1503 -91 1142 -33 
Q 781 25 428 141 
L 428 1069 
Q 766 900 1098 814 
Q 1431 728 1753 728 
Q 2231 728 2486 893 
Q 2741 1059 2741 1369 
Q 2741 1688 2480 1852 
Q 2219 2016 1709 2016 
L 1228 2016 
L 1228 2791 
L 1734 2791 
Q 2188 2791 2409 2933 
Q 2631 3075 2631 3366 
Q 2631 3634 2415 3781 
Q 2200 3928 1806 3928 
Q 1516 3928 1219 3862 
Q 922 3797 628 3669 
L 628 4550 
Q 984 4650 1334 4700 
Q 1684 4750 2022 4750 
Q 2931 4750 3382 4451 
Q 3834 4153 3834 3553 
Q 3834 3144 3618 2883 
Q 3403 2622 2981 2516 
z
" transform="scale(0.015625)"/>
      <path id="DejaVuSans-Bold-39" d="M 641 103 
L 641 966 
Q 928 831 1190 764 
Q 1453 697 1709 697 
Q 2247 697 2547 995 
Q 2847 1294 2900 1881 
Q 2688 1725 2447 1647 
Q 2206 1569 1925 1569 
Q 1209 1569 770 1986 
Q 331 2403 331 3084 
Q 331 3838 820 4291 
Q 1309 4744 2131 4744 
Q 3044 4744 3544 4128 
Q 4044 3513 4044 2388 
Q 4044 1231 3459 570 
Q 2875 -91 1856 -91 
Q 1528 -91 1228 -42 
Q 928 6 641 103 
z
M 2125 2350 
Q 2441 2350 2600 2554 
Q 2759 2759 2759 3169 
Q 2759 3575 2600 3781 
Q 2441 3988 2125 3988 
Q 1809 3988 1650 3781 
Q 1491 3575 1491 3169 
Q 1491 2759 1650 2554 
Q 1809 2350 2125 2350 
z
" transform="scale(0.015625)"/>
     </defs>
     <use xlink:href="#DejaVuSans-Bold-33"/>
     <use xlink:href="#DejaVuSans-Bold-2e" transform="translate(69.580078 0)"/>
     <use xlink:href="#DejaVuSans-Bold-39" transform="translate(107.568359 0)"/>
     <use xlink:href="#DejaVuSans-Bold-73" transform="translate(177.148438 0)"/>
    </g>
   </g>
   <g id="text_32">
    <!-- 4.0s -->
    <g style="fill: #262626" transform="translate(164.933784 64.925337) scale(0.08 -0.08)">
     <use xlink:href="#DejaVuSans-Bold-34"/>
     <use xlink:href="#DejaVuSans-Bold-2e" transform="translate(69.580078 0)"/>
     <use xlink:href="#DejaVuSans-Bold-30" transform="translate(107.568359 0)"/>
     <use xlink:href="#DejaVuSans-Bold-73" transform="translate(177.148438 0)"/>
    </g>
   </g>
   <g id="text_33">
    <!-- 3.6s -->
    <g style="fill: #262626" transform="translate(187.369387 88.753823) scale(0.08 -0.08)">
     <defs>
      <path id="DejaVuSans-Bold-36" d="M 2316 2303 
Q 2000 2303 1842 2098 
Q 1684 1894 1684 1484 
Q 1684 1075 1842 870 
Q 2000 666 2316 666 
Q 2634 666 2792 870 
Q 2950 1075 2950 1484 
Q 2950 1894 2792 2098 
Q 2634 2303 2316 2303 
z
M 3803 4544 
L 3803 3681 
Q 3506 3822 3243 3889 
Q 2981 3956 2731 3956 
Q 2194 3956 1894 3657 
Q 1594 3359 1544 2772 
Q 1750 2925 1990 3001 
Q 2231 3078 2516 3078 
Q 3231 3078 3670 2659 
Q 4109 2241 4109 1563 
Q 4109 813 3618 361 
Q 3128 -91 2303 -91 
Q 1394 -91 895 523 
Q 397 1138 397 2266 
Q 397 3422 980 4083 
Q 1563 4744 2578 4744 
Q 2900 4744 3203 4694 
Q 3506 4644 3803 4544 
z
" transform="scale(0.015625)"/>
     </defs>
     <use xlink:href="#DejaVuSans-Bold-33"/>
     <use xlink:href="#DejaVuSans-Bold-2e" transform="translate(69.580078 0)"/>
     <use xlink:href="#DejaVuSans-Bold-36" transform="translate(107.568359 0)"/>
     <use xlink:href="#DejaVuSans-Bold-73" transform="translate(177.148438 0)"/>
    </g>
   </g>
   <g id="text_34">
    <!-- 4.1s -->
    <g style="fill: #262626" transform="translate(209.80499 59.961069) scale(0.08 -0.08)">
     <defs>
      <path id="DejaVuSans-Bold-31" d="M 750 831 
L 1813 831 
L 1813 3847 
L 722 3622 
L 722 4441 
L 1806 4666 
L 2950 4666 
L 2950 831 
L 4013 831 
L 4013 0 
L 750 0 
L 750 831 
z
" transform="scale(0.015625)"/>
     </defs>
     <use xlink:href="#DejaVuSans-Bold-34"/>
     <use xlink:href="#DejaVuSans-Bold-2e" transform="translate(69.580078 0)"/>
     <use xlink:href="#DejaVuSans-Bold-31" transform="translate(107.568359 0)"/>
     <use xlink:href="#DejaVuSans-Bold-73" transform="translate(177.148438 0)"/>
    </g>
   </g>
   <g id="text_35">
    <!-- 3.7s -->
    <g style="fill: #262626" transform="translate(232.240593 84.548796) scale(0.08 -0.08)">
     <defs>
      <path id="DejaVuSans-Bold-37" d="M 428 4666 
L 3944 4666 
L 3944 3988 
L 2125 0 
L 953 0 
L 2675 3781 
L 428 3781 
L 428 4666 
z
" transform="scale(0.015625)"/>
     </defs>
     <use xlink:href="#DejaVuSans-Bold-33"/>
     <use xlink:href="#DejaVuSans-Bold-2e" transform="translate(69.580078 0)"/>
     <use xlink:href="#DejaVuSans-Bold-37" transform="translate(107.568359 0)"/>
     <use xlink:href="#DejaVuSans-Bold-73" transform="translate(177.148438 0)"/>
    </g>
   </g>
   <g id="text_36">
    <!-- 4.4s -->
    <g style="fill: #262626" transform="translate(254.676196 42.206511) scale(0.08 -0.08)">
     <use xlink:href="#DejaVuSans-Bold-34"/>
     <use xlink:href="#DejaVuSans-Bold-2e" transform="translate(69.580078 0)"/>
     <use xlink:href="#DejaVuSans-Bold-34" transform="translate(107.568359 0)"/>
     <use xlink:href="#DejaVuSans-Bold-73" transform="translate(177.148438 0)"/>
    </g>
   </g>
   <g id="text_37">
    <!-- 3.8s -->
    <g style="fill: #262626" transform="translate(277.111799 80.810995) scale(0.08 -0.08)">
     <defs>
      <path id="DejaVuSans-Bold-38" d="M 2228 2088 
Q 1891 2088 1709 1903 
Q 1528 1719 1528 1375 
Q 1528 1031 1709 848 
Q 1891 666 2228 666 
Q 2563 666 2741 848 
Q 2919 1031 2919 1375 
Q 2919 1722 2741 1905 
Q 2563 2088 2228 2088 
z
M 1350 2484 
Q 925 2613 709 2878 
Q 494 3144 494 3541 
Q 494 4131 934 4440 
Q 1375 4750 2228 4750 
Q 3075 4750 3515 4442 
Q 3956 4134 3956 3541 
Q 3956 3144 3739 2878 
Q 3522 2613 3097 2484 
Q 3572 2353 3814 2058 
Q 4056 1763 4056 1313 
Q 4056 619 3595 264 
Q 3134 -91 2228 -91 
Q 1319 -91 855 264 
Q 391 619 391 1313 
Q 391 1763 633 2058 
Q 875 2353 1350 2484 
z
M 1631 3419 
Q 1631 3141 1786 2991 
Q 1941 2841 2228 2841 
Q 2509 2841 2662 2991 
Q 2816 3141 2816 3419 
Q 2816 3697 2662 3845 
Q 2509 3994 2228 3994 
Q 1941 3994 1786 3844 
Q 1631 3694 1631 3419 
z
" transform="scale(0.015625)"/>
     </defs>
     <use xlink:href="#DejaVuSans-Bold-33"/>
     <use xlink:href="#DejaVuSans-Bold-2e" transform="translate(69.580078 0)"/>
     <use xlink:href="#DejaVuSans-Bold-38" transform="translate(107.568359 0)"/>
     <use xlink:href="#DejaVuSans-Bold-73" transform="translate(177.148438 0)"/>
    </g>
   </g>
   <g id="text_38">
    <!-- 4.1s -->
    <g style="fill: #262626" transform="translate(299.547401 62.647614) scale(0.08 -0.08)">
     <use xlink:href="#DejaVuSans-Bold-34"/>
     <use xlink:href="#DejaVuSans-Bold-2e" transform="translate(69.580078 0)"/>
     <use xlink:href="#DejaVuSans-Bold-31" transform="translate(107.568359 0)"/>
     <use xlink:href="#DejaVuSans-Bold-73" transform="translate(177.148438 0)"/>
    </g>
   </g>
   <g id="text_39">
    <!-- 3.6s -->
    <g style="fill: #262626" transform="translate(321.983004 89.221049) scale(0.08 -0.08)">
     <use xlink:href="#DejaVuSans-Bold-33"/>
     <use xlink:href="#DejaVuSans-Bold-2e" transform="translate(69.580078 0)"/>
     <use xlink:href="#DejaVuSans-Bold-36" transform="translate(107.568359 0)"/>
     <use xlink:href="#DejaVuSans-Bold-73" transform="translate(177.148438 0)"/>
    </g>
   </g>
   <g id="text_40">
    <!-- 4.0s -->
    <g style="fill: #262626" transform="translate(344.418607 68.838349) scale(0.08 -0.08)">
     <use xlink:href="#DejaVuSans-Bold-34"/>
     <use xlink:href="#DejaVuSans-Bold-2e" transform="translate(69.580078 0)"/>
     <use xlink:href="#DejaVuSans-Bold-30" transform="translate(107.568359 0)"/>
     <use xlink:href="#DejaVuSans-Bold-73" transform="translate(177.148438 0)"/>
    </g>
   </g>
   <g id="text_41">
    <!-- 3.7s -->
    <g style="fill: #262626" transform="translate(366.85421 81.570236) scale(0.08 -0.08)">
     <use xlink:href="#DejaVuSans-Bold-33"/>
     <use xlink:href="#DejaVuSans-Bold-2e" transform="translate(69.580078 0)"/>
     <use xlink:href="#DejaVuSans-Bold-37" transform="translate(107.568359 0)"/>
     <use xlink:href="#DejaVuSans-Bold-73" transform="translate(177.148438 0)"/>
    </g>
   </g>
   <g id="text_42">
    <!-- 4.2s -->
    <g style="fill: #262626" transform="translate(389.289813 56.982509) scale(0.08 -0.08)">
     <use xlink:href="#DejaVuSans-Bold-34"/>
     <use xlink:href="#DejaVuSans-Bold-2e" transform="translate(69.580078 0)"/>
     <use xlink:href="#DejaVuSans-Bold-32" transform="translate(107.568359 0)"/>
     <use xlink:href="#DejaVuSans-Bold-73" transform="translate(177.148438 0)"/>
    </g>
   </g>
   <g id="text_43">
    <!-- 3.7s -->
    <g style="fill: #262626" transform="translate(411.725416 84.43199) scale(0.08 -0.08)">
     <use xlink:href="#DejaVuSans-Bold-33"/>
     <use xlink:href="#DejaVuSans-Bold-2e" transform="translate(69.580078 0)"/>
     <use xlink:href="#DejaVuSans-Bold-37" transform="translate(107.568359 0)"/>
     <use xlink:href="#DejaVuSans-Bold-73" transform="translate(177.148438 0)"/>
    </g>
   </g>
   <g id="text_44">
    <!-- 3.9s -->
    <g style="fill: #262626" transform="translate(434.161019 73.627407) scale(0.08 -0.08)">
     <use xlink:href="#DejaVuSans-Bold-33"/>
     <use xlink:href="#DejaVuSans-Bold-2e" transform="translate(69.580078 0)"/>
     <use xlink:href="#DejaVuSans-Bold-39" transform="translate(107.568359 0)"/>
     <use xlink:href="#DejaVuSans-Bold-73" transform="translate(177.148438 0)"/>
    </g>
   </g>
   <g id="text_45">
    <!-- 3.6s -->
    <g style="fill: #262626" transform="translate(456.596622 89.746677) scale(0.08 -0.08)">
     <use xlink:href="#DejaVuSans-Bold-33"/>
     <use xlink:href="#DejaVuSans-Bold-2e" transform="translate(69.580078 0)"/>
     <use xlink:href="#DejaVuSans-Bold-36" transform="translate(107.568359 0)"/>
     <use xlink:href="#DejaVuSans-Bold-73" transform="translate(177.148438 0)"/>
    </g>
   </g>
   <g id="text_46">
    <!-- 3.9s -->
    <g style="fill: #262626" transform="translate(479.032225 70.123218) scale(0.08 -0.08)">
     <use xlink:href="#DejaVuSans-Bold-33"/>
     <use xlink:href="#DejaVuSans-Bold-2e" transform="translate(69.580078 0)"/>
     <use xlink:href="#DejaVuSans-Bold-39" transform="translate(107.568359 0)"/>
     <use xlink:href="#DejaVuSans-Bold-73" transform="translate(177.148438 0)"/>
    </g>
   </g>
   <g id="text_47">
    <!-- 3.8s -->
    <g style="fill: #262626" transform="translate(501.467828 76.197146) scale(0.08 -0.08)">
     <use xlink:href="#DejaVuSans-Bold-33"/>
     <use xlink:href="#DejaVuSans-Bold-2e" transform="translate(69.580078 0)"/>
     <use xlink:href="#DejaVuSans-Bold-38" transform="translate(107.568359 0)"/>
     <use xlink:href="#DejaVuSans-Bold-73" transform="translate(177.148438 0)"/>
    </g>
   </g>
   <g id="legend_1">
    <g id="patch_127">
     <path d="M 546.088766 109.6614 
L 629.653766 109.6614 
Q 631.253766 109.6614 631.253766 108.0614 
L 631.253766 38.4064 
Q 631.253766 36.8064 629.653766 36.8064 
L 546.088766 36.8064 
Q 544.488766 36.8064 544.488766 38.4064 
L 544.488766 108.0614 
Q 544.488766 109.6614 546.088766 109.6614 
z
" style="fill: #ffffff; opacity: 0.8; stroke: #cccccc; stroke-width: 0.8; stroke-linejoin: miter"/>
    </g>
    <g id="patch_128">
     <path d="M 547.688766 46.08515 
L 563.688766 46.08515 
L 563.688766 40.48515 
L 547.688766 40.48515 
z
" style="fill: #4caf50; stroke: #ffffff; stroke-width: 0.5; stroke-linejoin: miter"/>
    </g>
    <g id="text_48">
     <!-- Checkpoint -->
     <g style="fill: #262626" transform="translate(570.088766 46.08515) scale(0.08 -0.08)">
      <defs>
       <path id="DejaVuSans-43" d="M 4122 4306 
L 4122 3641 
Q 3803 3938 3442 4084 
Q 3081 4231 2675 4231 
Q 1875 4231 1450 3742 
Q 1025 3253 1025 2328 
Q 1025 1406 1450 917 
Q 1875 428 2675 428 
Q 3081 428 3442 575 
Q 3803 722 4122 1019 
L 4122 359 
Q 3791 134 3420 21 
Q 3050 -91 2638 -91 
Q 1578 -91 968 557 
Q 359 1206 359 2328 
Q 359 3453 968 4101 
Q 1578 4750 2638 4750 
Q 3056 4750 3426 4639 
Q 3797 4528 4122 4306 
z
" transform="scale(0.015625)"/>
       <path id="DejaVuSans-68" d="M 3513 2113 
L 3513 0 
L 2938 0 
L 2938 2094 
Q 2938 2591 2744 2837 
Q 2550 3084 2163 3084 
Q 1697 3084 1428 2787 
Q 1159 2491 1159 1978 
L 1159 0 
L 581 0 
L 581 4863 
L 1159 4863 
L 1159 2956 
Q 1366 3272 1645 3428 
Q 1925 3584 2291 3584 
Q 2894 3584 3203 3211 
Q 3513 2838 3513 2113 
z
" transform="scale(0.015625)"/>
       <path id="DejaVuSans-65" d="M 3597 1894 
L 3597 1613 
L 953 1613 
Q 991 1019 1311 708 
Q 1631 397 2203 397 
Q 2534 397 2845 478 
Q 3156 559 3463 722 
L 3463 178 
Q 3153 47 2828 -22 
Q 2503 -91 2169 -91 
Q 1331 -91 842 396 
Q 353 884 353 1716 
Q 353 2575 817 3079 
Q 1281 3584 2069 3584 
Q 2775 3584 3186 3129 
Q 3597 2675 3597 1894 
z
M 3022 2063 
Q 3016 2534 2758 2815 
Q 2500 3097 2075 3097 
Q 1594 3097 1305 2825 
Q 1016 2553 972 2059 
L 3022 2063 
z
" transform="scale(0.015625)"/>
       <path id="DejaVuSans-63" d="M 3122 3366 
L 3122 2828 
Q 2878 2963 2633 3030 
Q 2388 3097 2138 3097 
Q 1578 3097 1268 2742 
Q 959 2388 959 1747 
Q 959 1106 1268 751 
Q 1578 397 2138 397 
Q 2388 397 2633 464 
Q 2878 531 3122 666 
L 3122 134 
Q 2881 22 2623 -34 
Q 2366 -91 2075 -91 
Q 1284 -91 818 406 
Q 353 903 353 1747 
Q 353 2603 823 3093 
Q 1294 3584 2113 3584 
Q 2378 3584 2631 3529 
Q 2884 3475 3122 3366 
z
" transform="scale(0.015625)"/>
       <path id="DejaVuSans-6b" d="M 581 4863 
L 1159 4863 
L 1159 1991 
L 2875 3500 
L 3609 3500 
L 1753 1863 
L 3688 0 
L 2938 0 
L 1159 1709 
L 1159 0 
L 581 0 
L 581 4863 
z
" transform="scale(0.015625)"/>
       <path id="DejaVuSans-70" d="M 1159 525 
L 1159 -1331 
L 581 -1331 
L 581 3500 
L 1159 3500 
L 1159 2969 
Q 1341 3281 1617 3432 
Q 1894 3584 2278 3584 
Q 2916 3584 3314 3078 
Q 3713 2572 3713 1747 
Q 3713 922 3314 415 
Q 2916 -91 2278 -91 
Q 1894 -91 1617 61 
Q 1341 213 1159 525 
z
M 3116 1747 
Q 3116 2381 2855 2742 
Q 2594 3103 2138 3103 
Q 1681 3103 1420 2742 
Q 1159 2381 1159 1747 
Q 1159 1113 1420 752 
Q 1681 391 2138 391 
Q 2594 391 2855 752 
Q 3116 1113 3116 1747 
z
" transform="scale(0.015625)"/>
      </defs>
      <use xlink:href="#DejaVuSans-43"/>
      <use xlink:href="#DejaVuSans-68" transform="translate(69.824219 0)"/>
      <use xlink:href="#DejaVuSans-65" transform="translate(133.203125 0)"/>
      <use xlink:href="#DejaVuSans-63" transform="translate(194.726562 0)"/>
      <use xlink:href="#DejaVuSans-6b" transform="translate(249.707031 0)"/>
      <use xlink:href="#DejaVuSans-70" transform="translate(307.617188 0)"/>
      <use xlink:href="#DejaVuSans-6f" transform="translate(371.09375 0)"/>
      <use xlink:href="#DejaVuSans-69" transform="translate(432.275391 0)"/>
      <use xlink:href="#DejaVuSans-6e" transform="translate(460.058594 0)"/>
      <use xlink:href="#DejaVuSans-74" transform="translate(523.4375 0)"/>
     </g>
    </g>
    <g id="patch_129">
     <path d="M 547.688766 57.82765 
L 563.688766 57.82765 
L 563.688766 52.22765 
L 547.688766 52.22765 
z
" style="fill: #81c784; stroke: #ffffff; stroke-width: 0.5; stroke-linejoin: miter"/>
    </g>
    <g id="text_49">
     <!-- Pre-transfer -->
     <g style="fill: #262626" transform="translate(570.088766 57.82765) scale(0.08 -0.08)">
      <defs>
       <path id="DejaVuSans-50" d="M 1259 4147 
L 1259 2394 
L 2053 2394 
Q 2494 2394 2734 2622 
Q 2975 2850 2975 3272 
Q 2975 3691 2734 3919 
Q 2494 4147 2053 4147 
L 1259 4147 
z
M 628 4666 
L 2053 4666 
Q 2838 4666 3239 4311 
Q 3641 3956 3641 3272 
Q 3641 2581 3239 2228 
Q 2838 1875 2053 1875 
L 1259 1875 
L 1259 0 
L 628 0 
L 628 4666 
z
" transform="scale(0.015625)"/>
       <path id="DejaVuSans-2d" d="M 313 2009 
L 1997 2009 
L 1997 1497 
L 313 1497 
L 313 2009 
z
" transform="scale(0.015625)"/>
       <path id="DejaVuSans-66" d="M 2375 4863 
L 2375 4384 
L 1825 4384 
Q 1516 4384 1395 4259 
Q 1275 4134 1275 3809 
L 1275 3500 
L 2222 3500 
L 2222 3053 
L 1275 3053 
L 1275 0 
L 697 0 
L 697 3053 
L 147 3053 
L 147 3500 
L 697 3500 
L 697 3744 
Q 697 4328 969 4595 
Q 1241 4863 1831 4863 
L 2375 4863 
z
" transform="scale(0.015625)"/>
      </defs>
      <use xlink:href="#DejaVuSans-50"/>
      <use xlink:href="#DejaVuSans-72" transform="translate(58.552734 0)"/>
      <use xlink:href="#DejaVuSans-65" transform="translate(97.416016 0)"/>
      <use xlink:href="#DejaVuSans-2d" transform="translate(158.939453 0)"/>
      <use xlink:href="#DejaVuSans-74" transform="translate(195.023438 0)"/>
      <use xlink:href="#DejaVuSans-72" transform="translate(234.232422 0)"/>
      <use xlink:href="#DejaVuSans-61" transform="translate(275.345703 0)"/>
      <use xlink:href="#DejaVuSans-6e" transform="translate(336.625 0)"/>
      <use xlink:href="#DejaVuSans-73" transform="translate(400.003906 0)"/>
      <use xlink:href="#DejaVuSans-66" transform="translate(452.103516 0)"/>
      <use xlink:href="#DejaVuSans-65" transform="translate(487.308594 0)"/>
      <use xlink:href="#DejaVuSans-72" transform="translate(548.832031 0)"/>
     </g>
    </g>
    <g id="patch_130">
     <path d="M 547.688766 69.57015 
L 563.688766 69.57015 
L 563.688766 63.97015 
L 547.688766 63.97015 
z
" style="fill: #03a9f4; stroke: #ffffff; stroke-width: 0.5; stroke-linejoin: miter"/>
    </g>
    <g id="text_50">
     <!-- Transfer -->
     <g style="fill: #262626" transform="translate(570.088766 69.57015) scale(0.08 -0.08)">
      <defs>
       <path id="DejaVuSans-54" d="M -19 4666 
L 3928 4666 
L 3928 4134 
L 2272 4134 
L 2272 0 
L 1638 0 
L 1638 4134 
L -19 4134 
L -19 4666 
z
" transform="scale(0.015625)"/>
      </defs>
      <use xlink:href="#DejaVuSans-54"/>
      <use xlink:href="#DejaVuSans-72" transform="translate(46.333984 0)"/>
      <use xlink:href="#DejaVuSans-61" transform="translate(87.447266 0)"/>
      <use xlink:href="#DejaVuSans-6e" transform="translate(148.726562 0)"/>
      <use xlink:href="#DejaVuSans-73" transform="translate(212.105469 0)"/>
      <use xlink:href="#DejaVuSans-66" transform="translate(264.205078 0)"/>
      <use xlink:href="#DejaVuSans-65" transform="translate(299.410156 0)"/>
      <use xlink:href="#DejaVuSans-72" transform="translate(360.933594 0)"/>
     </g>
    </g>
    <g id="patch_131">
     <path d="M 547.688766 81.31265 
L 563.688766 81.31265 
L 563.688766 75.71265 
L 547.688766 75.71265 
z
" style="fill: #ff9800; stroke: #ffffff; stroke-width: 0.5; stroke-linejoin: miter"/>
    </g>
    <g id="text_51">
     <!-- Restore -->
     <g style="fill: #262626" transform="translate(570.088766 81.31265) scale(0.08 -0.08)">
      <defs>
       <path id="DejaVuSans-52" d="M 2841 2188 
Q 3044 2119 3236 1894 
Q 3428 1669 3622 1275 
L 4263 0 
L 3584 0 
L 2988 1197 
Q 2756 1666 2539 1819 
Q 2322 1972 1947 1972 
L 1259 1972 
L 1259 0 
L 628 0 
L 628 4666 
L 2053 4666 
Q 2853 4666 3247 4331 
Q 3641 3997 3641 3322 
Q 3641 2881 3436 2590 
Q 3231 2300 2841 2188 
z
M 1259 4147 
L 1259 2491 
L 2053 2491 
Q 2509 2491 2742 2702 
Q 2975 2913 2975 3322 
Q 2975 3731 2742 3939 
Q 2509 4147 2053 4147 
L 1259 4147 
z
" transform="scale(0.015625)"/>
      </defs>
      <use xlink:href="#DejaVuSans-52"/>
      <use xlink:href="#DejaVuSans-65" transform="translate(64.982422 0)"/>
      <use xlink:href="#DejaVuSans-73" transform="translate(126.505859 0)"/>
      <use xlink:href="#DejaVuSans-74" transform="translate(178.605469 0)"/>
      <use xlink:href="#DejaVuSans-6f" transform="translate(217.814453 0)"/>
      <use xlink:href="#DejaVuSans-72" transform="translate(278.996094 0)"/>
      <use xlink:href="#DejaVuSans-65" transform="translate(317.859375 0)"/>
     </g>
    </g>
    <g id="patch_132">
     <path d="M 547.688766 93.05515 
L 563.688766 93.05515 
L 563.688766 87.45515 
L 547.688766 87.45515 
z
" style="fill: #9c27b0; stroke: #ffffff; stroke-width: 0.5; stroke-linejoin: miter"/>
    </g>
    <g id="text_52">
     <!-- Switch Update -->
     <g style="fill: #262626" transform="translate(570.088766 93.05515) scale(0.08 -0.08)">
      <defs>
       <path id="DejaVuSans-53" d="M 3425 4513 
L 3425 3897 
Q 3066 4069 2747 4153 
Q 2428 4238 2131 4238 
Q 1616 4238 1336 4038 
Q 1056 3838 1056 3469 
Q 1056 3159 1242 3001 
Q 1428 2844 1947 2747 
L 2328 2669 
Q 3034 2534 3370 2195 
Q 3706 1856 3706 1288 
Q 3706 609 3251 259 
Q 2797 -91 1919 -91 
Q 1588 -91 1214 -16 
Q 841 59 441 206 
L 441 856 
Q 825 641 1194 531 
Q 1563 422 1919 422 
Q 2459 422 2753 634 
Q 3047 847 3047 1241 
Q 3047 1584 2836 1778 
Q 2625 1972 2144 2069 
L 1759 2144 
Q 1053 2284 737 2584 
Q 422 2884 422 3419 
Q 422 4038 858 4394 
Q 1294 4750 2059 4750 
Q 2388 4750 2728 4690 
Q 3069 4631 3425 4513 
z
" transform="scale(0.015625)"/>
       <path id="DejaVuSans-77" d="M 269 3500 
L 844 3500 
L 1563 769 
L 2278 3500 
L 2956 3500 
L 3675 769 
L 4391 3500 
L 4966 3500 
L 4050 0 
L 3372 0 
L 2619 2869 
L 1863 0 
L 1184 0 
L 269 3500 
z
" transform="scale(0.015625)"/>
       <path id="DejaVuSans-55" d="M 556 4666 
L 1191 4666 
L 1191 1831 
Q 1191 1081 1462 751 
Q 1734 422 2344 422 
Q 2950 422 3222 751 
Q 3494 1081 3494 1831 
L 3494 4666 
L 4128 4666 
L 4128 1753 
Q 4128 841 3676 375 
Q 3225 -91 2344 -91 
Q 1459 -91 1007 375 
Q 556 841 556 1753 
L 556 4666 
z
" transform="scale(0.015625)"/>
       <path id="DejaVuSans-64" d="M 2906 2969 
L 2906 4863 
L 3481 4863 
L 3481 0 
L 2906 0 
L 2906 525 
Q 2725 213 2448 61 
Q 2172 -91 1784 -91 
Q 1150 -91 751 415 
Q 353 922 353 1747 
Q 353 2572 751 3078 
Q 1150 3584 1784 3584 
Q 2172 3584 2448 3432 
Q 2725 3281 2906 2969 
z
M 947 1747 
Q 947 1113 1208 752 
Q 1469 391 1925 391 
Q 2381 391 2643 752 
Q 2906 1113 2906 1747 
Q 2906 2381 2643 2742 
Q 2381 3103 1925 3103 
Q 1469 3103 1208 2742 
Q 947 2381 947 1747 
z
" transform="scale(0.015625)"/>
      </defs>
      <use xlink:href="#DejaVuSans-53"/>
      <use xlink:href="#DejaVuSans-77" transform="translate(63.476562 0)"/>
      <use xlink:href="#DejaVuSans-69" transform="translate(145.263672 0)"/>
      <use xlink:href="#DejaVuSans-74" transform="translate(173.046875 0)"/>
      <use xlink:href="#DejaVuSans-63" transform="translate(212.255859 0)"/>
      <use xlink:href="#DejaVuSans-68" transform="translate(267.236328 0)"/>
      <use xlink:href="#DejaVuSans-20" transform="translate(330.615234 0)"/>
      <use xlink:href="#DejaVuSans-55" transform="translate(362.402344 0)"/>
      <use xlink:href="#DejaVuSans-70" transform="translate(435.595703 0)"/>
      <use xlink:href="#DejaVuSans-64" transform="translate(499.072266 0)"/>
      <use xlink:href="#DejaVuSans-61" transform="translate(562.548828 0)"/>
      <use xlink:href="#DejaVuSans-74" transform="translate(623.828125 0)"/>
      <use xlink:href="#DejaVuSans-65" transform="translate(663.037109 0)"/>
     </g>
    </g>
    <g id="patch_133">
     <path d="M 547.688766 104.79765 
L 563.688766 104.79765 
L 563.688766 99.19765 
L 547.688766 99.19765 
z
" style="fill: #bdbdbd; stroke: #ffffff; stroke-width: 0.5; stroke-linejoin: miter"/>
    </g>
    <g id="text_53">
     <!-- Overhead -->
     <g style="fill: #262626" transform="translate(570.088766 104.79765) scale(0.08 -0.08)">
      <defs>
       <path id="DejaVuSans-4f" d="M 2522 4238 
Q 1834 4238 1429 3725 
Q 1025 3213 1025 2328 
Q 1025 1447 1429 934 
Q 1834 422 2522 422 
Q 3209 422 3611 934 
Q 4013 1447 4013 2328 
Q 4013 3213 3611 3725 
Q 3209 4238 2522 4238 
z
M 2522 4750 
Q 3503 4750 4090 4092 
Q 4678 3434 4678 2328 
Q 4678 1225 4090 567 
Q 3503 -91 2522 -91 
Q 1538 -91 948 565 
Q 359 1222 359 2328 
Q 359 3434 948 4092 
Q 1538 4750 2522 4750 
z
" transform="scale(0.015625)"/>
       <path id="DejaVuSans-76" d="M 191 3500 
L 800 3500 
L 1894 563 
L 2988 3500 
L 3597 3500 
L 2284 0 
L 1503 0 
L 191 3500 
z
" transform="scale(0.015625)"/>
      </defs>
      <use xlink:href="#DejaVuSans-4f"/>
      <use xlink:href="#DejaVuSans-76" transform="translate(78.710938 0)"/>
      <use xlink:href="#DejaVuSans-65" transform="translate(137.890625 0)"/>
      <use xlink:href="#DejaVuSans-72" transform="translate(199.414062 0)"/>
      <use xlink:href="#DejaVuSans-68" transform="translate(238.777344 0)"/>
      <use xlink:href="#DejaVuSans-65" transform="translate(302.15625 0)"/>
      <use xlink:href="#DejaVuSans-61" transform="translate(363.679688 0)"/>
      <use xlink:href="#DejaVuSans-64" transform="translate(424.958984 0)"/>
     </g>
    </g>
   </g>
  </g>
  <g id="text_54">
   <!-- Per-Migration Phase Breakdown -->
   <g style="fill: #262626" transform="translate(199.32052 17.26641) scale(0.13248 -0.13248)">
    <defs>
     <path id="DejaVuSans-Bold-50" d="M 588 4666 
L 2584 4666 
Q 3475 4666 3951 4270 
Q 4428 3875 4428 3144 
Q 4428 2409 3951 2014 
Q 3475 1619 2584 1619 
L 1791 1619 
L 1791 0 
L 588 0 
L 588 4666 
z
M 1791 3794 
L 1791 2491 
L 2456 2491 
Q 2806 2491 2997 2661 
Q 3188 2831 3188 3144 
Q 3188 3456 2997 3625 
Q 2806 3794 2456 3794 
L 1791 3794 
z
" transform="scale(0.015625)"/>
     <path id="DejaVuSans-Bold-65" d="M 4031 1759 
L 4031 1441 
L 1416 1441 
Q 1456 1047 1700 850 
Q 1944 653 2381 653 
Q 2734 653 3104 758 
Q 3475 863 3866 1075 
L 3866 213 
Q 3469 63 3072 -14 
Q 2675 -91 2278 -91 
Q 1328 -91 801 392 
Q 275 875 275 1747 
Q 275 2603 792 3093 
Q 1309 3584 2216 3584 
Q 3041 3584 3536 3087 
Q 4031 2591 4031 1759 
z
M 2881 2131 
Q 2881 2450 2695 2645 
Q 2509 2841 2209 2841 
Q 1884 2841 1681 2658 
Q 1478 2475 1428 2131 
L 2881 2131 
z
" transform="scale(0.015625)"/>
     <path id="DejaVuSans-Bold-72" d="M 3138 2547 
Q 2991 2616 2845 2648 
Q 2700 2681 2553 2681 
Q 2122 2681 1889 2404 
Q 1656 2128 1656 1613 
L 1656 0 
L 538 0 
L 538 3500 
L 1656 3500 
L 1656 2925 
Q 1872 3269 2151 3426 
Q 2431 3584 2822 3584 
Q 2878 3584 2943 3579 
Q 3009 3575 3134 3559 
L 3138 2547 
z
" transform="scale(0.015625)"/>
     <path id="DejaVuSans-Bold-2d" d="M 347 2297 
L 2309 2297 
L 2309 1388 
L 347 1388 
L 347 2297 
z
" transform="scale(0.015625)"/>
     <path id="DejaVuSans-Bold-4d" d="M 588 4666 
L 2119 4666 
L 3181 2169 
L 4250 4666 
L 5778 4666 
L 5778 0 
L 4641 0 
L 4641 3413 
L 3566 897 
L 2803 897 
L 1728 3413 
L 1728 0 
L 588 0 
L 588 4666 
z
" transform="scale(0.015625)"/>
     <path id="DejaVuSans-Bold-69" d="M 538 3500 
L 1656 3500 
L 1656 0 
L 538 0 
L 538 3500 
z
M 538 4863 
L 1656 4863 
L 1656 3950 
L 538 3950 
L 538 4863 
z
" transform="scale(0.015625)"/>
     <path id="DejaVuSans-Bold-67" d="M 2919 594 
Q 2688 288 2409 144 
Q 2131 0 1766 0 
Q 1125 0 706 504 
Q 288 1009 288 1791 
Q 288 2575 706 3076 
Q 1125 3578 1766 3578 
Q 2131 3578 2409 3434 
Q 2688 3291 2919 2981 
L 2919 3500 
L 4044 3500 
L 4044 353 
Q 4044 -491 3511 -936 
Q 2978 -1381 1966 -1381 
Q 1638 -1381 1331 -1331 
Q 1025 -1281 716 -1178 
L 716 -306 
Q 1009 -475 1290 -558 
Q 1572 -641 1856 -641 
Q 2406 -641 2662 -400 
Q 2919 -159 2919 353 
L 2919 594 
z
M 2181 2772 
Q 1834 2772 1640 2515 
Q 1447 2259 1447 1791 
Q 1447 1309 1634 1061 
Q 1822 813 2181 813 
Q 2531 813 2725 1069 
Q 2919 1325 2919 1791 
Q 2919 2259 2725 2515 
Q 2531 2772 2181 2772 
z
" transform="scale(0.015625)"/>
     <path id="DejaVuSans-Bold-61" d="M 2106 1575 
Q 1756 1575 1579 1456 
Q 1403 1338 1403 1106 
Q 1403 894 1545 773 
Q 1688 653 1941 653 
Q 2256 653 2472 879 
Q 2688 1106 2688 1447 
L 2688 1575 
L 2106 1575 
z
M 3816 1997 
L 3816 0 
L 2688 0 
L 2688 519 
Q 2463 200 2181 54 
Q 1900 -91 1497 -91 
Q 953 -91 614 226 
Q 275 544 275 1050 
Q 275 1666 698 1953 
Q 1122 2241 2028 2241 
L 2688 2241 
L 2688 2328 
Q 2688 2594 2478 2717 
Q 2269 2841 1825 2841 
Q 1466 2841 1156 2769 
Q 847 2697 581 2553 
L 581 3406 
Q 941 3494 1303 3539 
Q 1666 3584 2028 3584 
Q 2975 3584 3395 3211 
Q 3816 2838 3816 1997 
z
" transform="scale(0.015625)"/>
     <path id="DejaVuSans-Bold-74" d="M 1759 4494 
L 1759 3500 
L 2913 3500 
L 2913 2700 
L 1759 2700 
L 1759 1216 
Q 1759 972 1856 886 
Q 1953 800 2241 800 
L 2816 800 
L 2816 0 
L 1856 0 
Q 1194 0 917 276 
Q 641 553 641 1216 
L 641 2700 
L 84 2700 
L 84 3500 
L 641 3500 
L 641 4494 
L 1759 4494 
z
" transform="scale(0.015625)"/>
     <path id="DejaVuSans-Bold-6f" d="M 2203 2784 
Q 1831 2784 1636 2517 
Q 1441 2250 1441 1747 
Q 1441 1244 1636 976 
Q 1831 709 2203 709 
Q 2569 709 2762 976 
Q 2956 1244 2956 1747 
Q 2956 2250 2762 2517 
Q 2569 2784 2203 2784 
z
M 2203 3584 
Q 3106 3584 3614 3096 
Q 4122 2609 4122 1747 
Q 4122 884 3614 396 
Q 3106 -91 2203 -91 
Q 1297 -91 786 396 
Q 275 884 275 1747 
Q 275 2609 786 3096 
Q 1297 3584 2203 3584 
z
" transform="scale(0.015625)"/>
     <path id="DejaVuSans-Bold-6e" d="M 4056 2131 
L 4056 0 
L 2931 0 
L 2931 347 
L 2931 1631 
Q 2931 2084 2911 2256 
Q 2891 2428 2841 2509 
Q 2775 2619 2662 2680 
Q 2550 2741 2406 2741 
Q 2056 2741 1856 2470 
Q 1656 2200 1656 1722 
L 1656 0 
L 538 0 
L 538 3500 
L 1656 3500 
L 1656 2988 
Q 1909 3294 2193 3439 
Q 2478 3584 2822 3584 
Q 3428 3584 3742 3212 
Q 4056 2841 4056 2131 
z
" transform="scale(0.015625)"/>
     <path id="DejaVuSans-Bold-20" transform="scale(0.015625)"/>
     <path id="DejaVuSans-Bold-68" d="M 4056 2131 
L 4056 0 
L 2931 0 
L 2931 347 
L 2931 1625 
Q 2931 2084 2911 2256 
Q 2891 2428 2841 2509 
Q 2775 2619 2662 2680 
Q 2550 2741 2406 2741 
Q 2056 2741 1856 2470 
Q 1656 2200 1656 1722 
L 1656 0 
L 538 0 
L 538 4863 
L 1656 4863 
L 1656 2988 
Q 1909 3294 2193 3439 
Q 2478 3584 2822 3584 
Q 3428 3584 3742 3212 
Q 4056 2841 4056 2131 
z
" transform="scale(0.015625)"/>
     <path id="DejaVuSans-Bold-42" d="M 2456 2859 
Q 2741 2859 2887 2984 
Q 3034 3109 3034 3353 
Q 3034 3594 2887 3720 
Q 2741 3847 2456 3847 
L 1791 3847 
L 1791 2859 
L 2456 2859 
z
M 2497 819 
Q 2859 819 3042 972 
Q 3225 1125 3225 1434 
Q 3225 1738 3044 1889 
Q 2863 2041 2497 2041 
L 1791 2041 
L 1791 819 
L 2497 819 
z
M 3616 2497 
Q 4003 2384 4215 2081 
Q 4428 1778 4428 1338 
Q 4428 663 3972 331 
Q 3516 0 2584 0 
L 588 0 
L 588 4666 
L 2394 4666 
Q 3366 4666 3802 4372 
Q 4238 4078 4238 3431 
Q 4238 3091 4078 2852 
Q 3919 2613 3616 2497 
z
" transform="scale(0.015625)"/>
     <path id="DejaVuSans-Bold-6b" d="M 538 4863 
L 1656 4863 
L 1656 2216 
L 2944 3500 
L 4244 3500 
L 2534 1894 
L 4378 0 
L 3022 0 
L 1656 1459 
L 1656 0 
L 538 0 
L 538 4863 
z
" transform="scale(0.015625)"/>
     <path id="DejaVuSans-Bold-64" d="M 2919 2988 
L 2919 4863 
L 4044 4863 
L 4044 0 
L 2919 0 
L 2919 506 
Q 2688 197 2409 53 
Q 2131 -91 1766 -91 
Q 1119 -91 703 423 
Q 288 938 288 1747 
Q 288 2556 703 3070 
Q 1119 3584 1766 3584 
Q 2128 3584 2408 3439 
Q 2688 3294 2919 2988 
z
M 2181 722 
Q 2541 722 2730 984 
Q 2919 1247 2919 1747 
Q 2919 2247 2730 2509 
Q 2541 2772 2181 2772 
Q 1825 2772 1636 2509 
Q 1447 2247 1447 1747 
Q 1447 1247 1636 984 
Q 1825 722 2181 722 
z
" transform="scale(0.015625)"/>
     <path id="DejaVuSans-Bold-77" d="M 225 3500 
L 1313 3500 
L 1900 1088 
L 2491 3500 
L 3425 3500 
L 4013 1113 
L 4603 3500 
L 5691 3500 
L 4769 0 
L 3547 0 
L 2956 2406 
L 2369 0 
L 1147 0 
L 225 3500 
z
" transform="scale(0.015625)"/>
    </defs>
    <use xlink:href="#DejaVuSans-Bold-50"/>
    <use xlink:href="#DejaVuSans-Bold-65" transform="translate(73.291016 0)"/>
    <use xlink:href="#DejaVuSans-Bold-72" transform="translate(141.113281 0)"/>
    <use xlink:href="#DejaVuSans-Bold-2d" transform="translate(190.429688 0)"/>
    <use xlink:href="#DejaVuSans-Bold-4d" transform="translate(231.933594 0)"/>
    <use xlink:href="#DejaVuSans-Bold-69" transform="translate(331.445312 0)"/>
    <use xlink:href="#DejaVuSans-Bold-67" transform="translate(365.722656 0)"/>
    <use xlink:href="#DejaVuSans-Bold-72" transform="translate(437.304688 0)"/>
    <use xlink:href="#DejaVuSans-Bold-61" transform="translate(486.621094 0)"/>
    <use xlink:href="#DejaVuSans-Bold-74" transform="translate(554.101562 0)"/>
    <use xlink:href="#DejaVuSans-Bold-69" transform="translate(601.904297 0)"/>
    <use xlink:href="#DejaVuSans-Bold-6f" transform="translate(636.181641 0)"/>
    <use xlink:href="#DejaVuSans-Bold-6e" transform="translate(704.882812 0)"/>
    <use xlink:href="#DejaVuSans-Bold-20" transform="translate(776.074219 0)"/>
    <use xlink:href="#DejaVuSans-Bold-50" transform="translate(810.888672 0)"/>
    <use xlink:href="#DejaVuSans-Bold-68" transform="translate(884.179688 0)"/>
    <use xlink:href="#DejaVuSans-Bold-61" transform="translate(955.371094 0)"/>
    <use xlink:href="#DejaVuSans-Bold-73" transform="translate(1022.851562 0)"/>
    <use xlink:href="#DejaVuSans-Bold-65" transform="translate(1082.373047 0)"/>
    <use xlink:href="#DejaVuSans-Bold-20" transform="translate(1150.195312 0)"/>
    <use xlink:href="#DejaVuSans-Bold-42" transform="translate(1185.009766 0)"/>
    <use xlink:href="#DejaVuSans-Bold-72" transform="translate(1261.230469 0)"/>
    <use xlink:href="#DejaVuSans-Bold-65" transform="translate(1310.546875 0)"/>
    <use xlink:href="#DejaVuSans-Bold-61" transform="translate(1378.369141 0)"/>
    <use xlink:href="#DejaVuSans-Bold-6b" transform="translate(1445.849609 0)"/>
    <use xlink:href="#DejaVuSans-Bold-64" transform="translate(1512.353516 0)"/>
    <use xlink:href="#DejaVuSans-Bold-6f" transform="translate(1583.935547 0)"/>
    <use xlink:href="#DejaVuSans-Bold-77" transform="translate(1652.636719 0)"/>
    <use xlink:href="#DejaVuSans-Bold-6e" transform="translate(1745.019531 0)"/>
   </g>
  </g>
 </g>
 <defs>
  <clipPath id="p4e10615df6">
   <rect x="55.94005" y="36.8064" width="483.7116" height="270.987705"/>
  </clipPath>
 </defs>
</svg>
