<?xml version="1.0" encoding="utf-8" standalone="no"?>
<!DOCTYPE svg PUBLIC "-//W3C//DTD SVG 1.1//EN"
  "http://www.w3.org/Graphics/SVG/1.1/DTD/svg11.dtd">
<svg xmlns:xlink="http://www.w3.org/1999/xlink" width="854.53595pt" height="284.315712pt" viewBox="0 0 854.53595 284.315712" xmlns="http://www.w3.org/2000/svg" version="1.1">
 <metadata>
  <rdf:RDF xmlns:dc="http://purl.org/dc/elements/1.1/" xmlns:cc="http://creativecommons.org/ns#" xmlns:rdf="http://www.w3.org/1999/02/22-rdf-syntax-ns#">
   <cc:Work>
    <dc:type rdf:resource="http://purl.org/dc/dcmitype/StillImage"/>
    <dc:date>2026-02-22T20:27:21.110274</dc:date>
    <dc:format>image/svg+xml</dc:format>
    <dc:creator>
     <cc:Agent>
      <dc:title>Matplotlib v3.10.8, https://matplotlib.org/</dc:title>
     </cc:Agent>
    </dc:creator>
   </cc:Work>
  </rdf:RDF>
 </metadata>
 <defs>
  <style type="text/css">*{stroke-linejoin: round; stroke-linecap: butt}</style>
 </defs>
 <g id="figure_1">
  <g id="patch_1">
   <path d="M 0 284.315712 
L 854.53595 284.315712 
L 854.53595 0 
L 0 0 
z
" style="fill: #ffffff"/>
  </g>
  <g id="axes_1">
   <g id="patch_2">
    <path d="M 43.06235 244.3368 
L 847.33595 244.3368 
L 847.33595 38.2464 
L 43.06235 38.2464 
z
" style="fill: #ffffff"/>
   </g>
   <g id="matplotlib.axis_1">
    <g id="xtick_1">
     <g id="line2d_1">
      <path d="M 79.620241 244.3368 
L 79.620241 38.2464 
" clip-path="url(#pda6eab5234)" style="fill: none; stroke: #cccccc; stroke-width: 0.8; stroke-linecap: round"/>
     </g>
     <g id="text_1">
      <!-- 0 -->
      <g style="fill: #262626" transform="translate(76.400816 260.326419) scale(0.1012 -0.1012)">
       <defs>
        <path id="DejaVuSans-30" d="M 2034 4250 
Q 1547 4250 1301 3770 
Q 1056 3291 1056 2328 
Q 1056 1369 1301 889 
Q 1547 409 2034 409 
Q 2525 409 2770 889 
Q 3016 1369 3016 2328 
Q 3016 3291 2770 3770 
Q 2525 4250 2034 4250 
z
M 2034 4750 
Q 2819 4750 3233 4129 
Q 3647 3509 3647 2328 
Q 3647 1150 3233 529 
Q 2819 -91 2034 -91 
Q 1250 -91 836 529 
Q 422 1150 422 2328 
Q 422 3509 836 4129 
Q 1250 4750 2034 4750 
z
" transform="scale(0.015625)"/>
       </defs>
       <use xlink:href="#DejaVuSans-30"/>
      </g>
     </g>
    </g>
    <g id="xtick_2">
     <g id="line2d_2">
      <path d="M 178.15903 244.3368 
L 178.15903 38.2464 
" clip-path="url(#pda6eab5234)" style="fill: none; stroke: #cccccc; stroke-width: 0.8; stroke-linecap: round"/>
     </g>
     <g id="text_2">
      <!-- 100 -->
      <g style="fill: #262626" transform="translate(168.500755 260.326419) scale(0.1012 -0.1012)">
       <defs>
        <path id="DejaVuSans-31" d="M 794 531 
L 1825 531 
L 1825 4091 
L 703 3866 
L 703 4441 
L 1819 4666 
L 2450 4666 
L 2450 531 
L 3481 531 
L 3481 0 
L 794 0 
L 794 531 
z
" transform="scale(0.015625)"/>
       </defs>
       <use xlink:href="#DejaVuSans-31"/>
       <use xlink:href="#DejaVuSans-30" transform="translate(63.623047 0)"/>
       <use xlink:href="#DejaVuSans-30" transform="translate(127.246094 0)"/>
      </g>
     </g>
    </g>
    <g id="xtick_3">
     <g id="line2d_3">
      <path d="M 276.69782 244.3368 
L 276.69782 38.2464 
" clip-path="url(#pda6eab5234)" style="fill: none; stroke: #cccccc; stroke-width: 0.8; stroke-linecap: round"/>
     </g>
     <g id="text_3">
      <!-- 200 -->
      <g style="fill: #262626" transform="translate(267.039545 260.326419) scale(0.1012 -0.1012)">
       <defs>
        <path id="DejaVuSans-32" d="M 1228 531 
L 3431 531 
L 3431 0 
L 469 0 
L 469 531 
Q 828 903 1448 1529 
Q 2069 2156 2228 2338 
Q 2531 2678 2651 2914 
Q 2772 3150 2772 3378 
Q 2772 3750 2511 3984 
Q 2250 4219 1831 4219 
Q 1534 4219 1204 4116 
Q 875 4013 500 3803 
L 500 4441 
Q 881 4594 1212 4672 
Q 1544 4750 1819 4750 
Q 2544 4750 2975 4387 
Q 3406 4025 3406 3419 
Q 3406 3131 3298 2873 
Q 3191 2616 2906 2266 
Q 2828 2175 2409 1742 
Q 1991 1309 1228 531 
z
" transform="scale(0.015625)"/>
       </defs>
       <use xlink:href="#DejaVuSans-32"/>
       <use xlink:href="#DejaVuSans-30" transform="translate(63.623047 0)"/>
       <use xlink:href="#DejaVuSans-30" transform="translate(127.246094 0)"/>
      </g>
     </g>
    </g>
    <g id="xtick_4">
     <g id="line2d_4">
      <path d="M 375.236609 244.3368 
L 375.236609 38.2464 
" clip-path="url(#pda6eab5234)" style="fill: none; stroke: #cccccc; stroke-width: 0.8; stroke-linecap: round"/>
     </g>
     <g id="text_4">
      <!-- 300 -->
      <g style="fill: #262626" transform="translate(365.578334 260.326419) scale(0.1012 -0.1012)">
       <defs>
        <path id="DejaVuSans-33" d="M 2597 2516 
Q 3050 2419 3304 2112 
Q 3559 1806 3559 1356 
Q 3559 666 3084 287 
Q 2609 -91 1734 -91 
Q 1441 -91 1130 -33 
Q 819 25 488 141 
L 488 750 
Q 750 597 1062 519 
Q 1375 441 1716 441 
Q 2309 441 2620 675 
Q 2931 909 2931 1356 
Q 2931 1769 2642 2001 
Q 2353 2234 1838 2234 
L 1294 2234 
L 1294 2753 
L 1863 2753 
Q 2328 2753 2575 2939 
Q 2822 3125 2822 3475 
Q 2822 3834 2567 4026 
Q 2313 4219 1838 4219 
Q 1578 4219 1281 4162 
Q 984 4106 628 3988 
L 628 4550 
Q 988 4650 1302 4700 
Q 1616 4750 1894 4750 
Q 2613 4750 3031 4423 
Q 3450 4097 3450 3541 
Q 3450 3153 3228 2886 
Q 3006 2619 2597 2516 
z
" transform="scale(0.015625)"/>
       </defs>
       <use xlink:href="#DejaVuSans-33"/>
       <use xlink:href="#DejaVuSans-30" transform="translate(63.623047 0)"/>
       <use xlink:href="#DejaVuSans-30" transform="translate(127.246094 0)"/>
      </g>
     </g>
    </g>
    <g id="xtick_5">
     <g id="line2d_5">
      <path d="M 473.775399 244.3368 
L 473.775399 38.2464 
" clip-path="url(#pda6eab5234)" style="fill: none; stroke: #cccccc; stroke-width: 0.8; stroke-linecap: round"/>
     </g>
     <g id="text_5">
      <!-- 400 -->
      <g style="fill: #262626" transform="translate(464.117124 260.326419) scale(0.1012 -0.1012)">
       <defs>
        <path id="DejaVuSans-34" d="M 2419 4116 
L 825 1625 
L 2419 1625 
L 2419 4116 
z
M 2253 4666 
L 3047 4666 
L 3047 1625 
L 3713 1625 
L 3713 1100 
L 3047 1100 
L 3047 0 
L 2419 0 
L 2419 1100 
L 313 1100 
L 313 1709 
L 2253 4666 
z
" transform="scale(0.015625)"/>
       </defs>
       <use xlink:href="#DejaVuSans-34"/>
       <use xlink:href="#DejaVuSans-30" transform="translate(63.623047 0)"/>
       <use xlink:href="#DejaVuSans-30" transform="translate(127.246094 0)"/>
      </g>
     </g>
    </g>
    <g id="xtick_6">
     <g id="line2d_6">
      <path d="M 572.314188 244.3368 
L 572.314188 38.2464 
" clip-path="url(#pda6eab5234)" style="fill: none; stroke: #cccccc; stroke-width: 0.8; stroke-linecap: round"/>
     </g>
     <g id="text_6">
      <!-- 500 -->
      <g style="fill: #262626" transform="translate(562.655913 260.326419) scale(0.1012 -0.1012)">
       <defs>
        <path id="DejaVuSans-35" d="M 691 4666 
L 3169 4666 
L 3169 4134 
L 1269 4134 
L 1269 2991 
Q 1406 3038 1543 3061 
Q 1681 3084 1819 3084 
Q 2600 3084 3056 2656 
Q 3513 2228 3513 1497 
Q 3513 744 3044 326 
Q 2575 -91 1722 -91 
Q 1428 -91 1123 -41 
Q 819 9 494 109 
L 494 744 
Q 775 591 1075 516 
Q 1375 441 1709 441 
Q 2250 441 2565 725 
Q 2881 1009 2881 1497 
Q 2881 1984 2565 2268 
Q 2250 2553 1709 2553 
Q 1456 2553 1204 2497 
Q 953 2441 691 2322 
L 691 4666 
z
" transform="scale(0.015625)"/>
       </defs>
       <use xlink:href="#DejaVuSans-35"/>
       <use xlink:href="#DejaVuSans-30" transform="translate(63.623047 0)"/>
       <use xlink:href="#DejaVuSans-30" transform="translate(127.246094 0)"/>
      </g>
     </g>
    </g>
    <g id="xtick_7">
     <g id="line2d_7">
      <path d="M 670.852978 244.3368 
L 670.852978 38.2464 
" clip-path="url(#pda6eab5234)" style="fill: none; stroke: #cccccc; stroke-width: 0.8; stroke-linecap: round"/>
     </g>
     <g id="text_7">
      <!-- 600 -->
      <g style="fill: #262626" transform="translate(661.194703 260.326419) scale(0.1012 -0.1012)">
       <defs>
        <path id="DejaVuSans-36" d="M 2113 2584 
Q 1688 2584 1439 2293 
Q 1191 2003 1191 1497 
Q 1191 994 1439 701 
Q 1688 409 2113 409 
Q 2538 409 2786 701 
Q 3034 994 3034 1497 
Q 3034 2003 2786 2293 
Q 2538 2584 2113 2584 
z
M 3366 4563 
L 3366 3988 
Q 3128 4100 2886 4159 
Q 2644 4219 2406 4219 
Q 1781 4219 1451 3797 
Q 1122 3375 1075 2522 
Q 1259 2794 1537 2939 
Q 1816 3084 2150 3084 
Q 2853 3084 3261 2657 
Q 3669 2231 3669 1497 
Q 3669 778 3244 343 
Q 2819 -91 2113 -91 
Q 1303 -91 875 529 
Q 447 1150 447 2328 
Q 447 3434 972 4092 
Q 1497 4750 2381 4750 
Q 2619 4750 2861 4703 
Q 3103 4656 3366 4563 
z
" transform="scale(0.015625)"/>
       </defs>
       <use xlink:href="#DejaVuSans-36"/>
       <use xlink:href="#DejaVuSans-30" transform="translate(63.623047 0)"/>
       <use xlink:href="#DejaVuSans-30" transform="translate(127.246094 0)"/>
      </g>
     </g>
    </g>
    <g id="xtick_8">
     <g id="line2d_8">
      <path d="M 769.391767 244.3368 
L 769.391767 38.2464 
" clip-path="url(#pda6eab5234)" style="fill: none; stroke: #cccccc; stroke-width: 0.8; stroke-linecap: round"/>
     </g>
     <g id="text_8">
      <!-- 700 -->
      <g style="fill: #262626" transform="translate(759.733492 260.326419) scale(0.1012 -0.1012)">
       <defs>
        <path id="DejaVuSans-37" d="M 525 4666 
L 3525 4666 
L 3525 4397 
L 1831 0 
L 1172 0 
L 2766 4134 
L 525 4134 
L 525 4666 
z
" transform="scale(0.015625)"/>
       </defs>
       <use xlink:href="#DejaVuSans-37"/>
       <use xlink:href="#DejaVuSans-30" transform="translate(63.623047 0)"/>
       <use xlink:href="#DejaVuSans-30" transform="translate(127.246094 0)"/>
      </g>
     </g>
    </g>
    <g id="text_9">
     <!-- Time (s) -->
     <g style="fill: #262626" transform="translate(422.756037 274.819737) scale(0.1104 -0.1104)">
      <defs>
       <path id="DejaVuSans-54" d="M -19 4666 
L 3928 4666 
L 3928 4134 
L 2272 4134 
L 2272 0 
L 1638 0 
L 1638 4134 
L -19 4134 
L -19 4666 
z
" transform="scale(0.015625)"/>
       <path id="DejaVuSans-69" d="M 603 3500 
L 1178 3500 
L 1178 0 
L 603 0 
L 603 3500 
z
M 603 4863 
L 1178 4863 
L 1178 4134 
L 603 4134 
L 603 4863 
z
" transform="scale(0.015625)"/>
       <path id="DejaVuSans-6d" d="M 3328 2828 
Q 3544 3216 3844 3400 
Q 4144 3584 4550 3584 
Q 5097 3584 5394 3201 
Q 5691 2819 5691 2113 
L 5691 0 
L 5113 0 
L 5113 2094 
Q 5113 2597 4934 2840 
Q 4756 3084 4391 3084 
Q 3944 3084 3684 2787 
Q 3425 2491 3425 1978 
L 3425 0 
L 2847 0 
L 2847 2094 
Q 2847 2600 2669 2842 
Q 2491 3084 2119 3084 
Q 1678 3084 1418 2786 
Q 1159 2488 1159 1978 
L 1159 0 
L 581 0 
L 581 3500 
L 1159 3500 
L 1159 2956 
Q 1356 3278 1631 3431 
Q 1906 3584 2284 3584 
Q 2666 3584 2933 3390 
Q 3200 3197 3328 2828 
z
" transform="scale(0.015625)"/>
       <path id="DejaVuSans-65" d="M 3597 1894 
L 3597 1613 
L 953 1613 
Q 991 1019 1311 708 
Q 1631 397 2203 397 
Q 2534 397 2845 478 
Q 3156 559 3463 722 
L 3463 178 
Q 3153 47 2828 -22 
Q 2503 -91 2169 -91 
Q 1331 -91 842 396 
Q 353 884 353 1716 
Q 353 2575 817 3079 
Q 1281 3584 2069 3584 
Q 2775 3584 3186 3129 
Q 3597 2675 3597 1894 
z
M 3022 2063 
Q 3016 2534 2758 2815 
Q 2500 3097 2075 3097 
Q 1594 3097 1305 2825 
Q 1016 2553 972 2059 
L 3022 2063 
z
" transform="scale(0.015625)"/>
       <path id="DejaVuSans-20" transform="scale(0.015625)"/>
       <path id="DejaVuSans-28" d="M 1984 4856 
Q 1566 4138 1362 3434 
Q 1159 2731 1159 2009 
Q 1159 1288 1364 580 
Q 1569 -128 1984 -844 
L 1484 -844 
Q 1016 -109 783 600 
Q 550 1309 550 2009 
Q 550 2706 781 3412 
Q 1013 4119 1484 4856 
L 1984 4856 
z
" transform="scale(0.015625)"/>
       <path id="DejaVuSans-73" d="M 2834 3397 
L 2834 2853 
Q 2591 2978 2328 3040 
Q 2066 3103 1784 3103 
Q 1356 3103 1142 2972 
Q 928 2841 928 2578 
Q 928 2378 1081 2264 
Q 1234 2150 1697 2047 
L 1894 2003 
Q 2506 1872 2764 1633 
Q 3022 1394 3022 966 
Q 3022 478 2636 193 
Q 2250 -91 1575 -91 
Q 1294 -91 989 -36 
Q 684 19 347 128 
L 347 722 
Q 666 556 975 473 
Q 1284 391 1588 391 
Q 1994 391 2212 530 
Q 2431 669 2431 922 
Q 2431 1156 2273 1281 
Q 2116 1406 1581 1522 
L 1381 1569 
Q 847 1681 609 1914 
Q 372 2147 372 2553 
Q 372 3047 722 3315 
Q 1072 3584 1716 3584 
Q 2034 3584 2315 3537 
Q 2597 3491 2834 3397 
z
" transform="scale(0.015625)"/>
       <path id="DejaVuSans-29" d="M 513 4856 
L 1013 4856 
Q 1481 4119 1714 3412 
Q 1947 2706 1947 2009 
Q 1947 1309 1714 600 
Q 1481 -109 1013 -844 
L 513 -844 
Q 928 -128 1133 580 
Q 1338 1288 1338 2009 
Q 1338 2731 1133 3434 
Q 928 4138 513 4856 
z
" transform="scale(0.015625)"/>
      </defs>
      <use xlink:href="#DejaVuSans-54"/>
      <use xlink:href="#DejaVuSans-69" transform="translate(57.958984 0)"/>
      <use xlink:href="#DejaVuSans-6d" transform="translate(85.742188 0)"/>
      <use xlink:href="#DejaVuSans-65" transform="translate(183.154297 0)"/>
      <use xlink:href="#DejaVuSans-20" transform="translate(244.677734 0)"/>
      <use xlink:href="#DejaVuSans-28" transform="translate(276.464844 0)"/>
      <use xlink:href="#DejaVuSans-73" transform="translate(315.478516 0)"/>
      <use xlink:href="#DejaVuSans-29" transform="translate(367.578125 0)"/>
     </g>
    </g>
   </g>
   <g id="matplotlib.axis_2">
    <g id="ytick_1">
     <g id="line2d_9">
      <path d="M 43.06235 244.3368 
L 847.33595 244.3368 
" clip-path="url(#pda6eab5234)" style="fill: none; stroke: #cccccc; stroke-width: 0.8; stroke-linecap: round"/>
     </g>
     <g id="text_10">
      <!-- 0 -->
      <g style="fill: #262626" transform="translate(28.3235 248.181609) scale(0.1012 -0.1012)">
       <use xlink:href="#DejaVuSans-30"/>
      </g>
     </g>
    </g>
    <g id="ytick_2">
     <g id="line2d_10">
      <path d="M 43.06235 218.522876 
L 847.33595 218.522876 
" clip-path="url(#pda6eab5234)" style="fill: none; stroke: #cccccc; stroke-width: 0.8; stroke-linecap: round"/>
     </g>
     <g id="text_11">
      <!-- 10 -->
      <g style="fill: #262626" transform="translate(21.88465 222.367686) scale(0.1012 -0.1012)">
       <use xlink:href="#DejaVuSans-31"/>
       <use xlink:href="#DejaVuSans-30" transform="translate(63.623047 0)"/>
      </g>
     </g>
    </g>
    <g id="ytick_3">
     <g id="line2d_11">
      <path d="M 43.06235 192.708953 
L 847.33595 192.708953 
" clip-path="url(#pda6eab5234)" style="fill: none; stroke: #cccccc; stroke-width: 0.8; stroke-linecap: round"/>
     </g>
     <g id="text_12">
      <!-- 20 -->
      <g style="fill: #262626" transform="translate(21.88465 196.553762) scale(0.1012 -0.1012)">
       <use xlink:href="#DejaVuSans-32"/>
       <use xlink:href="#DejaVuSans-30" transform="translate(63.623047 0)"/>
      </g>
     </g>
    </g>
    <g id="ytick_4">
     <g id="line2d_12">
      <path d="M 43.06235 166.895029 
L 847.33595 166.895029 
" clip-path="url(#pda6eab5234)" style="fill: none; stroke: #cccccc; stroke-width: 0.8; stroke-linecap: round"/>
     </g>
     <g id="text_13">
      <!-- 30 -->
      <g style="fill: #262626" transform="translate(21.88465 170.739839) scale(0.1012 -0.1012)">
       <use xlink:href="#DejaVuSans-33"/>
       <use xlink:href="#DejaVuSans-30" transform="translate(63.623047 0)"/>
      </g>
     </g>
    </g>
    <g id="ytick_5">
     <g id="line2d_13">
      <path d="M 43.06235 141.081106 
L 847.33595 141.081106 
" clip-path="url(#pda6eab5234)" style="fill: none; stroke: #cccccc; stroke-width: 0.8; stroke-linecap: round"/>
     </g>
     <g id="text_14">
      <!-- 40 -->
      <g style="fill: #262626" transform="translate(21.88465 144.925915) scale(0.1012 -0.1012)">
       <use xlink:href="#DejaVuSans-34"/>
       <use xlink:href="#DejaVuSans-30" transform="translate(63.623047 0)"/>
      </g>
     </g>
    </g>
    <g id="ytick_6">
     <g id="line2d_14">
      <path d="M 43.06235 115.267182 
L 847.33595 115.267182 
" clip-path="url(#pda6eab5234)" style="fill: none; stroke: #cccccc; stroke-width: 0.8; stroke-linecap: round"/>
     </g>
     <g id="text_15">
      <!-- 50 -->
      <g style="fill: #262626" transform="translate(21.88465 119.111991) scale(0.1012 -0.1012)">
       <use xlink:href="#DejaVuSans-35"/>
       <use xlink:href="#DejaVuSans-30" transform="translate(63.623047 0)"/>
      </g>
     </g>
    </g>
    <g id="ytick_7">
     <g id="line2d_15">
      <path d="M 43.06235 89.453258 
L 847.33595 89.453258 
" clip-path="url(#pda6eab5234)" style="fill: none; stroke: #cccccc; stroke-width: 0.8; stroke-linecap: round"/>
     </g>
     <g id="text_16">
      <!-- 60 -->
      <g style="fill: #262626" transform="translate(21.88465 93.298068) scale(0.1012 -0.1012)">
       <use xlink:href="#DejaVuSans-36"/>
       <use xlink:href="#DejaVuSans-30" transform="translate(63.623047 0)"/>
      </g>
     </g>
    </g>
    <g id="ytick_8">
     <g id="line2d_16">
      <path d="M 43.06235 63.639335 
L 847.33595 63.639335 
" clip-path="url(#pda6eab5234)" style="fill: none; stroke: #cccccc; stroke-width: 0.8; stroke-linecap: round"/>
     </g>
     <g id="text_17">
      <!-- 70 -->
      <g style="fill: #262626" transform="translate(21.88465 67.484144) scale(0.1012 -0.1012)">
       <use xlink:href="#DejaVuSans-37"/>
       <use xlink:href="#DejaVuSans-30" transform="translate(63.623047 0)"/>
      </g>
     </g>
    </g>
    <g id="text_18">
     <!-- Throughput (KB/s) -->
     <g style="fill: #262626" transform="translate(15.588675 191.555512) rotate(-90) scale(0.1104 -0.1104)">
      <defs>
       <path id="DejaVuSans-68" d="M 3513 2113 
L 3513 0 
L 2938 0 
L 2938 2094 
Q 2938 2591 2744 2837 
Q 2550 3084 2163 3084 
Q 1697 3084 1428 2787 
Q 1159 2491 1159 1978 
L 1159 0 
L 581 0 
L 581 4863 
L 1159 4863 
L 1159 2956 
Q 1366 3272 1645 3428 
Q 1925 3584 2291 3584 
Q 2894 3584 3203 3211 
Q 3513 2838 3513 2113 
z
" transform="scale(0.015625)"/>
       <path id="DejaVuSans-72" d="M 2631 2963 
Q 2534 3019 2420 3045 
Q 2306 3072 2169 3072 
Q 1681 3072 1420 2755 
Q 1159 2438 1159 1844 
L 1159 0 
L 581 0 
L 581 3500 
L 1159 3500 
L 1159 2956 
Q 1341 3275 1631 3429 
Q 1922 3584 2338 3584 
Q 2397 3584 2469 3576 
Q 2541 3569 2628 3553 
L 2631 2963 
z
" transform="scale(0.015625)"/>
       <path id="DejaVuSans-6f" d="M 1959 3097 
Q 1497 3097 1228 2736 
Q 959 2375 959 1747 
Q 959 1119 1226 758 
Q 1494 397 1959 397 
Q 2419 397 2687 759 
Q 2956 1122 2956 1747 
Q 2956 2369 2687 2733 
Q 2419 3097 1959 3097 
z
M 1959 3584 
Q 2709 3584 3137 3096 
Q 3566 2609 3566 1747 
Q 3566 888 3137 398 
Q 2709 -91 1959 -91 
Q 1206 -91 779 398 
Q 353 888 353 1747 
Q 353 2609 779 3096 
Q 1206 3584 1959 3584 
z
" transform="scale(0.015625)"/>
       <path id="DejaVuSans-75" d="M 544 1381 
L 544 3500 
L 1119 3500 
L 1119 1403 
Q 1119 906 1312 657 
Q 1506 409 1894 409 
Q 2359 409 2629 706 
Q 2900 1003 2900 1516 
L 2900 3500 
L 3475 3500 
L 3475 0 
L 2900 0 
L 2900 538 
Q 2691 219 2414 64 
Q 2138 -91 1772 -91 
Q 1169 -91 856 284 
Q 544 659 544 1381 
z
M 1991 3584 
L 1991 3584 
z
" transform="scale(0.015625)"/>
       <path id="DejaVuSans-67" d="M 2906 1791 
Q 2906 2416 2648 2759 
Q 2391 3103 1925 3103 
Q 1463 3103 1205 2759 
Q 947 2416 947 1791 
Q 947 1169 1205 825 
Q 1463 481 1925 481 
Q 2391 481 2648 825 
Q 2906 1169 2906 1791 
z
M 3481 434 
Q 3481 -459 3084 -895 
Q 2688 -1331 1869 -1331 
Q 1566 -1331 1297 -1286 
Q 1028 -1241 775 -1147 
L 775 -588 
Q 1028 -725 1275 -790 
Q 1522 -856 1778 -856 
Q 2344 -856 2625 -561 
Q 2906 -266 2906 331 
L 2906 616 
Q 2728 306 2450 153 
Q 2172 0 1784 0 
Q 1141 0 747 490 
Q 353 981 353 1791 
Q 353 2603 747 3093 
Q 1141 3584 1784 3584 
Q 2172 3584 2450 3431 
Q 2728 3278 2906 2969 
L 2906 3500 
L 3481 3500 
L 3481 434 
z
" transform="scale(0.015625)"/>
       <path id="DejaVuSans-70" d="M 1159 525 
L 1159 -1331 
L 581 -1331 
L 581 3500 
L 1159 3500 
L 1159 2969 
Q 1341 3281 1617 3432 
Q 1894 3584 2278 3584 
Q 2916 3584 3314 3078 
Q 3713 2572 3713 1747 
Q 3713 922 3314 415 
Q 2916 -91 2278 -91 
Q 1894 -91 1617 61 
Q 1341 213 1159 525 
z
M 3116 1747 
Q 3116 2381 2855 2742 
Q 2594 3103 2138 3103 
Q 1681 3103 1420 2742 
Q 1159 2381 1159 1747 
Q 1159 1113 1420 752 
Q 1681 391 2138 391 
Q 2594 391 2855 752 
Q 3116 1113 3116 1747 
z
" transform="scale(0.015625)"/>
       <path id="DejaVuSans-74" d="M 1172 4494 
L 1172 3500 
L 2356 3500 
L 2356 3053 
L 1172 3053 
L 1172 1153 
Q 1172 725 1289 603 
Q 1406 481 1766 481 
L 2356 481 
L 2356 0 
L 1766 0 
Q 1100 0 847 248 
Q 594 497 594 1153 
L 594 3053 
L 172 3053 
L 172 3500 
L 594 3500 
L 594 4494 
L 1172 4494 
z
" transform="scale(0.015625)"/>
       <path id="DejaVuSans-4b" d="M 628 4666 
L 1259 4666 
L 1259 2694 
L 3353 4666 
L 4166 4666 
L 1850 2491 
L 4331 0 
L 3500 0 
L 1259 2247 
L 1259 0 
L 628 0 
L 628 4666 
z
" transform="scale(0.015625)"/>
       <path id="DejaVuSans-42" d="M 1259 2228 
L 1259 519 
L 2272 519 
Q 2781 519 3026 730 
Q 3272 941 3272 1375 
Q 3272 1813 3026 2020 
Q 2781 2228 2272 2228 
L 1259 2228 
z
M 1259 4147 
L 1259 2741 
L 2194 2741 
Q 2656 2741 2882 2914 
Q 3109 3088 3109 3444 
Q 3109 3797 2882 3972 
Q 2656 4147 2194 4147 
L 1259 4147 
z
M 628 4666 
L 2241 4666 
Q 2963 4666 3353 4366 
Q 3744 4066 3744 3513 
Q 3744 3084 3544 2831 
Q 3344 2578 2956 2516 
Q 3422 2416 3680 2098 
Q 3938 1781 3938 1306 
Q 3938 681 3513 340 
Q 3088 0 2303 0 
L 628 0 
L 628 4666 
z
" transform="scale(0.015625)"/>
       <path id="DejaVuSans-2f" d="M 1625 4666 
L 2156 4666 
L 531 -594 
L 0 -594 
L 1625 4666 
z
" transform="scale(0.015625)"/>
      </defs>
      <use xlink:href="#DejaVuSans-54"/>
      <use xlink:href="#DejaVuSans-68" transform="translate(61.083984 0)"/>
      <use xlink:href="#DejaVuSans-72" transform="translate(124.462891 0)"/>
      <use xlink:href="#DejaVuSans-6f" transform="translate(163.326172 0)"/>
      <use xlink:href="#DejaVuSans-75" transform="translate(224.507812 0)"/>
      <use xlink:href="#DejaVuSans-67" transform="translate(287.886719 0)"/>
      <use xlink:href="#DejaVuSans-68" transform="translate(351.363281 0)"/>
      <use xlink:href="#DejaVuSans-70" transform="translate(414.742188 0)"/>
      <use xlink:href="#DejaVuSans-75" transform="translate(478.21875 0)"/>
      <use xlink:href="#DejaVuSans-74" transform="translate(541.597656 0)"/>
      <use xlink:href="#DejaVuSans-20" transform="translate(580.806641 0)"/>
      <use xlink:href="#DejaVuSans-28" transform="translate(612.59375 0)"/>
      <use xlink:href="#DejaVuSans-4b" transform="translate(651.607422 0)"/>
      <use xlink:href="#DejaVuSans-42" transform="translate(717.183594 0)"/>
      <use xlink:href="#DejaVuSans-2f" transform="translate(785.787109 0)"/>
      <use xlink:href="#DejaVuSans-73" transform="translate(819.478516 0)"/>
      <use xlink:href="#DejaVuSans-29" transform="translate(871.578125 0)"/>
     </g>
    </g>
   </g>
   <g id="FillBetweenPolyCollection_1">
    <path d="M 79.620241 66.724905 
L 79.620241 244.3368 
L 80.605629 244.3368 
L 81.591017 244.3368 
L 82.576405 244.3368 
L 83.561792 244.3368 
L 84.54718 244.3368 
L 85.532568 244.3368 
L 86.517956 244.3368 
L 87.503344 244.3368 
L 88.488732 244.3368 
L 89.47412 244.3368 
L 90.459508 244.3368 
L 91.444896 244.3368 
L 92.430284 244.3368 
L 93.415671 244.3368 
L 94.401059 244.3368 
L 95.386447 244.3368 
L 96.371835 244.3368 
L 97.357223 244.3368 
L 98.342611 244.3368 
L 99.327999 244.3368 
L 100.313387 244.3368 
L 101.298775 244.3368 
L 102.284162 244.3368 
L 103.26955 244.3368 
L 104.254938 244.3368 
L 105.240326 244.3368 
L 106.225714 244.3368 
L 107.211102 244.3368 
L 108.19649 244.3368 
L 109.181878 244.3368 
L 110.167266 244.3368 
L 111.152654 244.3368 
L 112.138041 244.3368 
L 113.123429 244.3368 
L 114.108817 244.3368 
L 114.108817 63.437664 
L 114.108817 63.437664 
L 113.123429 63.437664 
L 112.138041 63.437664 
L 111.152654 63.437664 
L 110.167266 63.437664 
L 109.181878 63.491443 
L 108.19649 63.592278 
L 107.211102 63.693114 
L 106.225714 63.74017 
L 105.240326 63.74017 
L 104.254938 63.74017 
L 103.26955 63.74017 
L 102.284162 63.74017 
L 101.298775 63.74017 
L 100.313387 63.74017 
L 99.327999 63.74017 
L 98.342611 63.74017 
L 97.357223 63.74017 
L 96.371835 63.74017 
L 95.386447 63.74017 
L 94.401059 63.74017 
L 93.415671 63.74017 
L 92.430284 63.74017 
L 91.444896 63.74017 
L 90.459508 63.74017 
L 89.47412 63.74017 
L 88.488732 63.74017 
L 87.503344 63.74017 
L 86.517956 63.747733 
L 85.532568 63.780505 
L 84.54718 63.814117 
L 83.561792 63.840166 
L 82.576405 63.841006 
L 81.591017 64.802306 
L 80.605629 65.282956 
L 79.620241 66.724905 
z
" clip-path="url(#pda6eab5234)" style="fill: #dd8452; fill-opacity: 0.12; stroke: #dd8452; stroke-opacity: 0.12; stroke-width: 0.8"/>
    <path d="M 117.064981 166.335391 
L 117.064981 244.3368 
L 119.035757 244.3368 
L 120.021145 244.3368 
L 121.006533 244.3368 
L 121.99192 244.3368 
L 122.977308 244.3368 
L 123.962696 244.3368 
L 124.948084 244.3368 
L 125.933472 244.3368 
L 126.91886 244.3368 
L 127.904248 244.3368 
L 128.889636 244.3368 
L 129.875024 244.3368 
L 130.860411 244.3368 
L 131.845799 244.3368 
L 132.831187 244.3368 
L 133.816575 244.3368 
L 134.801963 244.3368 
L 135.787351 244.3368 
L 136.772739 244.3368 
L 137.758127 244.3368 
L 138.743515 244.3368 
L 139.728903 244.3368 
L 140.71429 244.3368 
L 141.699678 244.3368 
L 142.685066 244.3368 
L 143.670454 244.3368 
L 144.655842 244.3368 
L 145.64123 244.3368 
L 146.626618 244.3368 
L 147.612006 244.3368 
L 148.597394 244.3368 
L 149.582781 244.3368 
L 150.568169 244.3368 
L 152.538945 244.3368 
L 153.524333 244.3368 
L 154.509721 244.3368 
L 155.495109 244.3368 
L 156.480497 244.3368 
L 157.465885 244.3368 
L 158.451273 244.3368 
L 159.43666 244.3368 
L 160.422048 244.3368 
L 161.407436 244.3368 
L 162.392824 244.3368 
L 163.378212 244.3368 
L 164.3636 244.3368 
L 165.348988 244.3368 
L 166.334376 244.3368 
L 167.319764 244.3368 
L 168.305151 244.3368 
L 169.290539 244.3368 
L 170.275927 244.3368 
L 171.261315 244.3368 
L 172.246703 244.3368 
L 173.232091 244.3368 
L 174.217479 244.3368 
L 175.202867 244.3368 
L 176.188255 244.3368 
L 177.173643 244.3368 
L 178.15903 244.3368 
L 179.144418 244.3368 
L 180.129806 244.3368 
L 181.115194 244.3368 
L 182.100582 244.3368 
L 183.08597 244.3368 
L 184.071358 244.3368 
L 185.056746 244.3368 
L 186.042134 244.3368 
L 188.012909 244.3368 
L 188.998297 244.3368 
L 189.983685 244.3368 
L 190.969073 244.3368 
L 191.954461 244.3368 
L 192.939849 244.3368 
L 193.925237 244.3368 
L 194.910625 244.3368 
L 195.896013 244.3368 
L 196.8814 244.3368 
L 197.866788 244.3368 
L 198.852176 244.3368 
L 199.837564 244.3368 
L 200.822952 244.3368 
L 201.80834 244.3368 
L 202.793728 244.3368 
L 203.779116 244.3368 
L 204.764504 244.3368 
L 205.749891 244.3368 
L 206.735279 244.3368 
L 207.720667 244.3368 
L 208.706055 244.3368 
L 209.691443 244.3368 
L 210.676831 244.3368 
L 211.662219 244.3368 
L 212.647607 244.3368 
L 213.632995 244.3368 
L 214.618383 244.3368 
L 215.60377 244.3368 
L 216.589158 244.3368 
L 217.574546 244.3368 
L 218.559934 244.3368 
L 219.545322 244.3368 
L 220.53071 244.3368 
L 222.501486 244.3368 
L 223.486874 244.3368 
L 224.472261 244.3368 
L 225.457649 244.3368 
L 226.443037 244.3368 
L 227.428425 244.3368 
L 228.413813 244.3368 
L 229.399201 244.3368 
L 230.384589 244.3368 
L 231.369977 244.3368 
L 232.355365 244.3368 
L 233.340753 244.3368 
L 234.32614 244.3368 
L 235.311528 244.3368 
L 236.296916 244.3368 
L 237.282304 244.3368 
L 238.267692 244.3368 
L 239.25308 244.3368 
L 240.238468 244.3368 
L 241.223856 244.3368 
L 242.209244 244.3368 
L 243.194631 244.3368 
L 244.180019 244.3368 
L 245.165407 244.3368 
L 246.150795 244.3368 
L 247.136183 244.3368 
L 248.121571 244.3368 
L 249.106959 244.3368 
L 250.092347 244.3368 
L 251.077735 244.3368 
L 252.063123 244.3368 
L 253.04851 244.3368 
L 254.033898 244.3368 
L 255.019286 244.3368 
L 256.004674 244.3368 
L 257.97545 244.3368 
L 258.960838 244.3368 
L 259.946226 244.3368 
L 260.931614 244.3368 
L 261.917002 244.3368 
L 262.902389 244.3368 
L 263.887777 244.3368 
L 264.873165 244.3368 
L 265.858553 244.3368 
L 266.843941 244.3368 
L 267.829329 244.3368 
L 268.814717 244.3368 
L 269.800105 244.3368 
L 270.785493 244.3368 
L 271.77088 244.3368 
L 272.756268 244.3368 
L 273.741656 244.3368 
L 274.727044 244.3368 
L 275.712432 244.3368 
L 276.69782 244.3368 
L 277.683208 244.3368 
L 278.668596 244.3368 
L 279.653984 244.3368 
L 280.639372 244.3368 
L 281.624759 244.3368 
L 282.610147 244.3368 
L 283.595535 244.3368 
L 284.580923 244.3368 
L 285.566311 244.3368 
L 286.551699 244.3368 
L 287.537087 244.3368 
L 288.522475 244.3368 
L 289.507863 244.3368 
L 290.49325 244.3368 
L 292.464026 244.3368 
L 293.449414 244.3368 
L 294.434802 244.3368 
L 295.42019 244.3368 
L 296.405578 244.3368 
L 297.390966 244.3368 
L 298.376354 244.3368 
L 299.361742 244.3368 
L 300.347129 244.3368 
L 301.332517 244.3368 
L 302.317905 244.3368 
L 303.303293 244.3368 
L 304.288681 244.3368 
L 305.274069 244.3368 
L 306.259457 244.3368 
L 307.244845 244.3368 
L 308.230233 244.3368 
L 309.21562 244.3368 
L 310.201008 244.3368 
L 311.186396 244.3368 
L 312.171784 244.3368 
L 313.157172 244.3368 
L 314.14256 244.3368 
L 315.127948 244.3368 
L 316.113336 244.3368 
L 317.098724 244.3368 
L 318.084112 244.3368 
L 319.069499 244.3368 
L 320.054887 244.3368 
L 321.040275 244.3368 
L 322.025663 244.3368 
L 323.011051 244.3368 
L 323.996439 244.3368 
L 324.981827 244.3368 
L 325.967215 244.3368 
L 327.93799 244.3368 
L 328.923378 244.3368 
L 329.908766 244.3368 
L 330.894154 244.3368 
L 331.879542 244.3368 
L 332.86493 244.3368 
L 333.850318 244.3368 
L 334.835706 244.3368 
L 335.821094 244.3368 
L 336.806482 244.3368 
L 337.791869 244.3368 
L 338.777257 244.3368 
L 339.762645 244.3368 
L 340.748033 244.3368 
L 341.733421 244.3368 
L 342.718809 244.3368 
L 343.704197 244.3368 
L 344.689585 244.3368 
L 345.674973 244.3368 
L 346.66036 244.3368 
L 347.645748 244.3368 
L 348.631136 244.3368 
L 349.616524 244.3368 
L 350.601912 244.3368 
L 351.5873 244.3368 
L 352.572688 244.3368 
L 353.558076 244.3368 
L 354.543464 244.3368 
L 355.528852 244.3368 
L 356.514239 244.3368 
L 357.499627 244.3368 
L 358.485015 244.3368 
L 359.470403 244.3368 
L 360.455791 244.3368 
L 362.426567 244.3368 
L 363.411955 244.3368 
L 364.397343 244.3368 
L 365.38273 244.3368 
L 366.368118 244.3368 
L 367.353506 244.3368 
L 368.338894 244.3368 
L 369.324282 244.3368 
L 370.30967 244.3368 
L 371.295058 244.3368 
L 372.280446 244.3368 
L 373.265834 244.3368 
L 374.251222 244.3368 
L 375.236609 244.3368 
L 376.221997 244.3368 
L 377.207385 244.3368 
L 378.192773 244.3368 
L 379.178161 244.3368 
L 380.163549 244.3368 
L 381.148937 244.3368 
L 382.134325 244.3368 
L 383.119713 244.3368 
L 384.105101 244.3368 
L 385.090488 244.3368 
L 386.075876 244.3368 
L 387.061264 244.3368 
L 388.046652 244.3368 
L 389.03204 244.3368 
L 390.017428 244.3368 
L 391.002816 244.3368 
L 391.988204 244.3368 
L 392.973592 244.3368 
L 393.958979 244.3368 
L 394.944367 244.3368 
L 395.929755 244.3368 
L 397.900531 244.3368 
L 398.885919 244.3368 
L 399.871307 244.3368 
L 400.856695 244.3368 
L 401.842083 244.3368 
L 402.827471 244.3368 
L 403.812858 244.3368 
L 404.798246 244.3368 
L 405.783634 244.3368 
L 406.769022 244.3368 
L 407.75441 244.3368 
L 408.739798 244.3368 
L 409.725186 244.3368 
L 410.710574 244.3368 
L 411.695962 244.3368 
L 412.681349 244.3368 
L 413.666737 244.3368 
L 414.652125 244.3368 
L 415.637513 244.3368 
L 416.622901 244.3368 
L 417.608289 244.3368 
L 418.593677 244.3368 
L 419.579065 244.3368 
L 420.564453 244.3368 
L 421.549841 244.3368 
L 422.535228 244.3368 
L 423.520616 244.3368 
L 424.506004 244.3368 
L 425.491392 244.3368 
L 426.47678 244.3368 
L 427.462168 244.3368 
L 428.447556 244.3368 
L 429.432944 244.3368 
L 430.418332 244.3368 
L 431.403719 244.3368 
L 433.374495 244.3368 
L 434.359883 244.3368 
L 435.345271 244.3368 
L 436.330659 244.3368 
L 437.316047 244.3368 
L 438.301435 244.3368 
L 439.286823 244.3368 
L 440.272211 244.3368 
L 441.257598 244.3368 
L 442.242986 244.3368 
L 443.228374 244.3368 
L 444.213762 244.3368 
L 445.19915 244.3368 
L 446.184538 244.3368 
L 447.169926 244.3368 
L 448.155314 244.3368 
L 449.140702 244.3368 
L 450.126089 244.3368 
L 451.111477 244.3368 
L 452.096865 244.3368 
L 453.082253 244.3368 
L 454.067641 244.3368 
L 455.053029 244.3368 
L 456.038417 244.3368 
L 457.023805 244.3368 
L 458.009193 244.3368 
L 458.994581 244.3368 
L 459.979968 244.3368 
L 460.965356 244.3368 
L 461.950744 244.3368 
L 462.936132 244.3368 
L 463.92152 244.3368 
L 464.906908 244.3368 
L 465.892296 244.3368 
L 467.863072 244.3368 
L 468.848459 244.3368 
L 469.833847 244.3368 
L 470.819235 244.3368 
L 471.804623 244.3368 
L 472.790011 244.3368 
L 473.775399 244.3368 
L 474.760787 244.3368 
L 475.746175 244.3368 
L 476.731563 244.3368 
L 477.716951 244.3368 
L 478.702338 244.3368 
L 479.687726 244.3368 
L 480.673114 244.3368 
L 481.658502 244.3368 
L 482.64389 244.3368 
L 483.629278 244.3368 
L 484.614666 244.3368 
L 485.600054 244.3368 
L 486.585442 244.3368 
L 487.570829 244.3368 
L 488.556217 244.3368 
L 489.541605 244.3368 
L 490.526993 244.3368 
L 491.512381 244.3368 
L 492.497769 244.3368 
L 493.483157 244.3368 
L 494.468545 244.3368 
L 495.453933 244.3368 
L 496.439321 244.3368 
L 497.424708 244.3368 
L 498.410096 244.3368 
L 499.395484 244.3368 
L 500.380872 244.3368 
L 501.36626 244.3368 
L 503.337036 244.3368 
L 504.322424 244.3368 
L 505.307812 244.3368 
L 506.293199 244.3368 
L 507.278587 244.3368 
L 508.263975 244.3368 
L 509.249363 244.3368 
L 510.234751 244.3368 
L 511.220139 244.3368 
L 512.205527 244.3368 
L 513.190915 244.3368 
L 514.176303 244.3368 
L 515.161691 244.3368 
L 516.147078 244.3368 
L 517.132466 244.3368 
L 518.117854 244.3368 
L 519.103242 244.3368 
L 520.08863 244.3368 
L 521.074018 244.3368 
L 522.059406 244.3368 
L 523.044794 244.3368 
L 524.030182 244.3368 
L 525.01557 244.3368 
L 526.000957 244.3368 
L 526.986345 244.3368 
L 527.971733 244.3368 
L 528.957121 244.3368 
L 529.942509 244.3368 
L 530.927897 244.3368 
L 531.913285 244.3368 
L 532.898673 244.3368 
L 533.884061 244.3368 
L 534.869448 244.3368 
L 535.854836 244.3368 
L 537.825612 244.3368 
L 538.811 244.3368 
L 539.796388 244.3368 
L 540.781776 244.3368 
L 541.767164 244.3368 
L 542.752552 244.3368 
L 543.73794 244.3368 
L 544.723327 244.3368 
L 545.708715 244.3368 
L 546.694103 244.3368 
L 547.679491 244.3368 
L 548.664879 244.3368 
L 549.650267 244.3368 
L 550.635655 244.3368 
L 551.621043 244.3368 
L 552.606431 244.3368 
L 553.591818 244.3368 
L 554.577206 244.3368 
L 555.562594 244.3368 
L 556.547982 244.3368 
L 557.53337 244.3368 
L 558.518758 244.3368 
L 559.504146 244.3368 
L 560.489534 244.3368 
L 561.474922 244.3368 
L 562.46031 244.3368 
L 563.445697 244.3368 
L 564.431085 244.3368 
L 565.416473 244.3368 
L 566.401861 244.3368 
L 567.387249 244.3368 
L 568.372637 244.3368 
L 569.358025 244.3368 
L 570.343413 244.3368 
L 572.314188 244.3368 
L 573.299576 244.3368 
L 574.284964 244.3368 
L 575.270352 244.3368 
L 576.25574 244.3368 
L 577.241128 244.3368 
L 578.226516 244.3368 
L 579.211904 244.3368 
L 580.197292 244.3368 
L 581.18268 244.3368 
L 582.168067 244.3368 
L 583.153455 244.3368 
L 584.138843 244.3368 
L 585.124231 244.3368 
L 586.109619 244.3368 
L 587.095007 244.3368 
L 588.080395 244.3368 
L 589.065783 244.3368 
L 590.051171 244.3368 
L 591.036558 244.3368 
L 592.021946 244.3368 
L 593.007334 244.3368 
L 593.992722 244.3368 
L 594.97811 244.3368 
L 595.963498 244.3368 
L 596.948886 244.3368 
L 597.934274 244.3368 
L 598.919662 244.3368 
L 599.90505 244.3368 
L 600.890437 244.3368 
L 601.875825 244.3368 
L 602.861213 244.3368 
L 603.846601 244.3368 
L 604.831989 244.3368 
L 605.817377 244.3368 
L 607.788153 244.3368 
L 608.773541 244.3368 
L 609.758928 244.3368 
L 610.744316 244.3368 
L 611.729704 244.3368 
L 612.715092 244.3368 
L 613.70048 244.3368 
L 614.685868 244.3368 
L 615.671256 244.3368 
L 616.656644 244.3368 
L 617.642032 244.3368 
L 618.62742 244.3368 
L 619.612807 244.3368 
L 620.598195 244.3368 
L 621.583583 244.3368 
L 622.568971 244.3368 
L 623.554359 244.3368 
L 624.539747 244.3368 
L 625.525135 244.3368 
L 626.510523 244.3368 
L 627.495911 244.3368 
L 628.481298 244.3368 
L 629.466686 244.3368 
L 630.452074 244.3368 
L 631.437462 244.3368 
L 632.42285 244.3368 
L 633.408238 244.3368 
L 634.393626 244.3368 
L 635.379014 244.3368 
L 636.364402 244.3368 
L 637.34979 244.3368 
L 638.335177 244.3368 
L 639.320565 244.3368 
L 640.305953 244.3368 
L 642.276729 244.3368 
L 643.262117 244.3368 
L 644.247505 244.3368 
L 645.232893 244.3368 
L 646.218281 244.3368 
L 647.203669 244.3368 
L 648.189056 244.3368 
L 649.174444 244.3368 
L 650.159832 244.3368 
L 651.14522 244.3368 
L 652.130608 244.3368 
L 653.115996 244.3368 
L 654.101384 244.3368 
L 655.086772 244.3368 
L 656.07216 244.3368 
L 657.057547 244.3368 
L 658.042935 244.3368 
L 659.028323 244.3368 
L 660.013711 244.3368 
L 660.999099 244.3368 
L 661.984487 244.3368 
L 662.969875 244.3368 
L 663.955263 244.3368 
L 664.940651 244.3368 
L 665.926039 244.3368 
L 666.911426 244.3368 
L 667.896814 244.3368 
L 668.882202 244.3368 
L 669.86759 244.3368 
L 670.852978 244.3368 
L 671.838366 244.3368 
L 672.823754 244.3368 
L 673.809142 244.3368 
L 674.79453 244.3368 
L 675.779917 244.3368 
L 677.750693 244.3368 
L 678.736081 244.3368 
L 679.721469 244.3368 
L 680.706857 244.3368 
L 681.692245 244.3368 
L 682.677633 244.3368 
L 683.663021 244.3368 
L 684.648409 244.3368 
L 685.633796 244.3368 
L 686.619184 244.3368 
L 687.604572 244.3368 
L 688.58996 244.3368 
L 689.575348 244.3368 
L 690.560736 244.3368 
L 691.546124 244.3368 
L 692.531512 244.3368 
L 693.5169 244.3368 
L 694.502287 244.3368 
L 695.487675 244.3368 
L 696.473063 244.3368 
L 697.458451 244.3368 
L 698.443839 244.3368 
L 699.429227 244.3368 
L 700.414615 244.3368 
L 701.400003 244.3368 
L 702.385391 244.3368 
L 703.370779 244.3368 
L 704.356166 244.3368 
L 705.341554 244.3368 
L 706.326942 244.3368 
L 707.31233 244.3368 
L 708.297718 244.3368 
L 709.283106 244.3368 
L 710.268494 244.3368 
L 712.23927 244.3368 
L 713.224657 244.3368 
L 714.210045 244.3368 
L 715.195433 244.3368 
L 716.180821 244.3368 
L 717.166209 244.3368 
L 718.151597 244.3368 
L 719.136985 244.3368 
L 720.122373 244.3368 
L 721.107761 244.3368 
L 722.093149 244.3368 
L 723.078536 244.3368 
L 724.063924 244.3368 
L 725.049312 244.3368 
L 726.0347 244.3368 
L 727.020088 244.3368 
L 728.005476 244.3368 
L 728.990864 244.3368 
L 729.976252 244.3368 
L 730.96164 244.3368 
L 731.947027 244.3368 
L 732.932415 244.3368 
L 733.917803 244.3368 
L 734.903191 244.3368 
L 735.888579 244.3368 
L 736.873967 244.3368 
L 737.859355 244.3368 
L 738.844743 244.3368 
L 739.830131 244.3368 
L 740.815519 244.3368 
L 741.800906 244.3368 
L 742.786294 244.3368 
L 743.771682 244.3368 
L 744.75707 244.3368 
L 746.727846 244.3368 
L 747.713234 244.3368 
L 748.698622 244.3368 
L 749.68401 244.3368 
L 750.669397 244.3368 
L 751.654785 244.3368 
L 752.640173 244.3368 
L 753.625561 244.3368 
L 754.610949 244.3368 
L 755.596337 244.3368 
L 756.581725 244.3368 
L 757.567113 244.3368 
L 758.552501 244.3368 
L 759.537889 244.3368 
L 760.523276 244.3368 
L 761.508664 244.3368 
L 762.494052 244.3368 
L 763.47944 244.3368 
L 764.464828 244.3368 
L 765.450216 244.3368 
L 766.435604 244.3368 
L 767.420992 244.3368 
L 768.40638 244.3368 
L 769.391767 244.3368 
L 770.377155 244.3368 
L 771.362543 244.3368 
L 772.347931 244.3368 
L 773.333319 244.3368 
L 774.318707 244.3368 
L 775.304095 244.3368 
L 776.289483 244.3368 
L 777.274871 244.3368 
L 778.260259 244.3368 
L 779.245646 244.3368 
L 780.231034 244.3368 
L 782.20181 244.3368 
L 783.187198 244.3368 
L 784.172586 244.3368 
L 785.157974 244.3368 
L 786.143362 244.3368 
L 787.12875 244.3368 
L 788.114138 244.3368 
L 789.099525 244.3368 
L 790.084913 244.3368 
L 791.070301 244.3368 
L 792.055689 244.3368 
L 793.041077 244.3368 
L 794.026465 244.3368 
L 795.011853 244.3368 
L 795.997241 244.3368 
L 796.982629 244.3368 
L 797.968016 244.3368 
L 798.953404 244.3368 
L 799.938792 244.3368 
L 800.92418 244.3368 
L 801.909568 244.3368 
L 802.894956 244.3368 
L 803.880344 244.3368 
L 804.865732 244.3368 
L 805.85112 244.3368 
L 806.836508 244.3368 
L 807.821895 244.3368 
L 808.807283 244.3368 
L 809.792671 244.3368 
L 810.778059 244.3368 
L 810.778059 63.034321 
L 810.778059 63.034321 
L 809.792671 63.034321 
L 808.807283 63.034321 
L 807.821895 63.034321 
L 806.836508 63.034321 
L 805.85112 63.034321 
L 804.865732 63.034321 
L 803.880344 63.034321 
L 802.894956 63.034321 
L 801.909568 63.034321 
L 800.92418 63.034321 
L 799.938792 63.034321 
L 798.953404 63.034321 
L 797.968016 63.034321 
L 796.982629 63.034321 
L 795.997241 63.034321 
L 795.011853 63.034321 
L 794.026465 63.034321 
L 793.041077 63.034321 
L 792.055689 63.034321 
L 791.070301 63.034321 
L 790.084913 63.034321 
L 789.099525 63.034321 
L 788.114138 63.034321 
L 787.12875 63.034321 
L 786.143362 63.034321 
L 785.157974 63.034321 
L 784.172586 71.007059 
L 783.187198 130.139598 
L 782.20181 163.692237 
L 780.231034 240.43194 
L 779.245646 104.402142 
L 778.260259 83.718231 
L 777.274871 76.823595 
L 776.289483 63.034321 
L 775.304095 63.034321 
L 774.318707 63.034321 
L 773.333319 63.034321 
L 772.347931 63.034321 
L 771.362543 63.034321 
L 770.377155 63.034321 
L 769.391767 63.034321 
L 768.40638 63.516651 
L 767.420992 63.034321 
L 766.435604 63.034321 
L 765.450216 62.55199 
L 764.464828 63.034321 
L 763.47944 63.034321 
L 762.494052 63.034321 
L 761.508664 63.034321 
L 760.523276 63.034321 
L 759.537889 63.034321 
L 758.552501 63.034321 
L 757.567113 63.034321 
L 756.581725 63.034321 
L 755.596337 63.034321 
L 754.610949 63.034321 
L 753.625561 63.034321 
L 752.640173 63.034321 
L 751.654785 63.034321 
L 750.669397 63.516651 
L 749.68401 63.034321 
L 748.698622 61.385658 
L 747.713234 119.408166 
L 746.727846 148.318584 
L 744.75707 238.548834 
L 743.771682 63.034321 
L 742.786294 63.034321 
L 741.800906 63.034321 
L 740.815519 63.034321 
L 739.830131 63.034321 
L 738.844743 63.034321 
L 737.859355 63.034321 
L 736.873967 63.034321 
L 735.888579 63.034321 
L 734.903191 63.034321 
L 733.917803 63.034321 
L 732.932415 63.034321 
L 731.947027 63.034321 
L 730.96164 63.034321 
L 729.976252 63.034321 
L 728.990864 63.034321 
L 728.005476 63.034321 
L 727.020088 63.034321 
L 726.0347 63.034321 
L 725.049312 63.034321 
L 724.063924 63.034321 
L 723.078536 63.034321 
L 722.093149 63.034321 
L 721.107761 63.034321 
L 720.122373 63.034321 
L 719.136985 63.034321 
L 718.151597 63.034321 
L 717.166209 63.034321 
L 716.180821 63.034321 
L 715.195433 63.034321 
L 714.210045 72.936381 
L 713.224657 131.441219 
L 712.23927 165.644667 
L 710.268494 238.548834 
L 709.283106 63.034321 
L 708.297718 63.034321 
L 707.31233 63.034321 
L 706.326942 63.034321 
L 705.341554 63.034321 
L 704.356166 63.034321 
L 703.370779 63.034321 
L 702.385391 63.034321 
L 701.400003 63.034321 
L 700.414615 63.034321 
L 699.429227 63.034321 
L 698.443839 63.034321 
L 697.458451 63.034321 
L 696.473063 63.034321 
L 695.487675 63.034321 
L 694.502287 63.034321 
L 693.5169 63.034321 
L 692.531512 63.034321 
L 691.546124 63.034321 
L 690.560736 63.034321 
L 689.575348 63.034321 
L 688.58996 63.034321 
L 687.604572 63.034321 
L 686.619184 63.034321 
L 685.633796 63.034321 
L 684.648409 63.034321 
L 683.663021 63.034321 
L 682.677633 63.034321 
L 681.692245 63.034321 
L 680.706857 63.034321 
L 679.721469 72.936381 
L 678.736081 131.441219 
L 677.750693 165.644667 
L 675.779917 238.548834 
L 674.79453 104.402142 
L 673.809142 83.718231 
L 672.823754 76.823595 
L 671.838366 63.034321 
L 670.852978 63.034321 
L 669.86759 63.034321 
L 668.882202 63.034321 
L 667.896814 63.034321 
L 666.911426 63.034321 
L 665.926039 63.034321 
L 664.940651 63.034321 
L 663.955263 63.034321 
L 662.969875 63.034321 
L 661.984487 63.034321 
L 660.999099 63.034321 
L 660.013711 63.034321 
L 659.028323 63.034321 
L 658.042935 63.034321 
L 657.057547 63.034321 
L 656.07216 63.034321 
L 655.086772 63.034321 
L 654.101384 63.034321 
L 653.115996 63.034321 
L 652.130608 63.034321 
L 651.14522 63.034321 
L 650.159832 63.034321 
L 649.174444 63.034321 
L 648.189056 63.034321 
L 647.203669 63.034321 
L 646.218281 63.034321 
L 645.232893 63.034321 
L 644.247505 63.0881 
L 643.262117 122.075268 
L 642.276729 151.595742 
L 640.305953 239.995826 
L 639.320565 63.034321 
L 638.335177 63.034321 
L 637.34979 63.034321 
L 636.364402 63.034321 
L 635.379014 63.034321 
L 634.393626 63.034321 
L 633.408238 63.034321 
L 632.42285 63.034321 
L 631.437462 63.034321 
L 630.452074 63.034321 
L 629.466686 63.034321 
L 628.481298 63.034321 
L 627.495911 63.034321 
L 626.510523 63.034321 
L 625.525135 63.034321 
L 624.539747 63.034321 
L 623.554359 63.034321 
L 622.568971 63.034321 
L 621.583583 63.034321 
L 620.598195 63.034321 
L 619.612807 63.034321 
L 618.62742 63.034321 
L 617.642032 63.034321 
L 616.656644 63.034321 
L 615.671256 63.034321 
L 614.685868 63.034321 
L 613.70048 63.034321 
L 612.715092 63.034321 
L 611.729704 48.218204 
L 610.744316 50.772707 
L 609.758928 59.115176 
L 608.773541 133.400791 
L 607.788153 164.752272 
L 605.817377 241.442817 
L 604.831989 111.637099 
L 603.846601 87.33571 
L 602.861213 79.235247 
L 601.875825 63.034321 
L 600.890437 63.034321 
L 599.90505 63.034321 
L 598.919662 63.034321 
L 597.934274 63.034321 
L 596.948886 63.034321 
L 595.963498 63.034321 
L 594.97811 63.034321 
L 593.992722 63.034321 
L 593.007334 63.034321 
L 592.021946 63.034321 
L 591.036558 63.034321 
L 590.051171 63.034321 
L 589.065783 63.034321 
L 588.080395 63.034321 
L 587.095007 63.034321 
L 586.109619 63.034321 
L 585.124231 63.034321 
L 584.138843 63.034321 
L 583.153455 63.034321 
L 582.168067 63.034321 
L 581.18268 63.034321 
L 580.197292 63.034321 
L 579.211904 63.034321 
L 578.226516 63.034321 
L 577.241128 63.034321 
L 576.25574 63.034321 
L 575.270352 63.034321 
L 574.284964 64.535091 
L 573.299576 123.281094 
L 572.314188 153.404481 
L 570.343413 239.27233 
L 569.358025 63.034321 
L 568.372637 63.034321 
L 567.387249 63.034321 
L 566.401861 63.034321 
L 565.416473 63.034321 
L 564.431085 63.034321 
L 563.445697 63.034321 
L 562.46031 63.034321 
L 561.474922 63.034321 
L 560.489534 63.034321 
L 559.504146 63.034321 
L 558.518758 63.034321 
L 557.53337 63.034321 
L 556.547982 63.034321 
L 555.562594 63.034321 
L 554.577206 63.034321 
L 553.591818 63.034321 
L 552.606431 63.034321 
L 551.621043 63.034321 
L 550.635655 63.034321 
L 549.650267 63.034321 
L 548.664879 63.034321 
L 547.679491 63.034321 
L 546.694103 63.034321 
L 545.708715 63.034321 
L 544.723327 63.034321 
L 543.73794 63.034321 
L 542.752552 63.034321 
L 541.767164 63.034321 
L 540.781776 63.034321 
L 539.796388 72.936381 
L 538.811 131.313493 
L 537.825612 165.45308 
L 535.854836 238.165659 
L 534.869448 87.718885 
L 533.884061 75.376603 
L 532.898673 71.262509 
L 531.913285 63.034321 
L 530.927897 63.034321 
L 529.942509 63.034321 
L 528.957121 63.034321 
L 527.971733 63.034321 
L 526.986345 63.034321 
L 526.000957 63.034321 
L 525.01557 63.034321 
L 524.030182 63.034321 
L 523.044794 63.034321 
L 522.059406 63.034321 
L 521.074018 63.034321 
L 520.08863 63.034321 
L 519.103242 63.034321 
L 518.117854 63.034321 
L 517.132466 63.034321 
L 516.147078 63.034321 
L 515.161691 63.034321 
L 514.176303 63.034321 
L 513.190915 63.034321 
L 512.205527 63.034321 
L 511.220139 63.034321 
L 510.234751 63.034321 
L 509.249363 63.034321 
L 508.263975 63.034321 
L 507.278587 63.034321 
L 506.293199 63.034321 
L 505.307812 63.034321 
L 504.322424 91.604419 
L 503.337036 105.889468 
L 501.36626 148.744614 
L 500.380872 142.109629 
L 499.395484 102.571975 
L 498.410096 89.392757 
L 497.424708 63.034321 
L 496.439321 63.034321 
L 495.453933 63.034321 
L 494.468545 63.034321 
L 493.483157 63.034321 
L 492.497769 63.034321 
L 491.512381 63.034321 
L 490.526993 63.034321 
L 489.541605 63.034321 
L 488.556217 63.034321 
L 487.570829 63.034321 
L 486.585442 63.034321 
L 485.600054 63.034321 
L 484.614666 63.034321 
L 483.629278 63.034321 
L 482.64389 63.034321 
L 481.658502 63.034321 
L 480.673114 63.034321 
L 479.687726 63.034321 
L 478.702338 63.034321 
L 477.716951 63.034321 
L 476.731563 63.034321 
L 475.746175 63.034321 
L 474.760787 63.034321 
L 473.775399 63.034321 
L 472.790011 63.034321 
L 471.804623 63.034321 
L 470.819235 63.034321 
L 469.833847 72.936381 
L 468.848459 131.441219 
L 467.863072 165.644667 
L 465.892296 238.548834 
L 464.906908 63.034321 
L 463.92152 63.034321 
L 462.936132 63.034321 
L 461.950744 63.034321 
L 460.965356 63.034321 
L 459.979968 63.034321 
L 458.994581 63.034321 
L 458.009193 63.034321 
L 457.023805 63.034321 
L 456.038417 63.034321 
L 455.053029 63.034321 
L 454.067641 63.034321 
L 453.082253 63.034321 
L 452.096865 63.034321 
L 451.111477 63.034321 
L 450.126089 63.034321 
L 449.140702 63.034321 
L 448.155314 63.034321 
L 447.169926 63.034321 
L 446.184538 63.034321 
L 445.19915 63.034321 
L 444.213762 63.034321 
L 443.228374 63.034321 
L 442.242986 63.034321 
L 441.257598 63.034321 
L 440.272211 63.034321 
L 439.286823 63.068773 
L 438.301435 63.169609 
L 437.316047 63.270444 
L 436.330659 63.336828 
L 435.345271 63.336828 
L 434.359883 92.816127 
L 433.374495 107.555777 
L 431.403719 151.774725 
L 430.418332 142.28105 
L 429.432944 102.808939 
L 428.447556 89.651568 
L 427.462168 63.336828 
L 426.47678 63.336828 
L 425.491392 63.336828 
L 424.506004 63.336828 
L 423.520616 63.336828 
L 422.535228 63.336828 
L 421.549841 63.336828 
L 420.564453 63.336828 
L 419.579065 63.336828 
L 418.593677 63.336828 
L 417.608289 63.336828 
L 416.622901 63.336828 
L 415.637513 63.336828 
L 414.652125 63.336828 
L 413.666737 63.336828 
L 412.681349 63.336828 
L 411.695962 63.336828 
L 410.710574 63.336828 
L 409.725186 63.336828 
L 408.739798 63.336828 
L 407.75441 63.336828 
L 406.769022 63.336828 
L 405.783634 63.336828 
L 404.798246 63.336828 
L 403.812858 63.336828 
L 402.827471 63.336828 
L 401.842083 48.776162 
L 400.856695 51.330664 
L 399.871307 61.58901 
L 398.885919 134.55704 
L 397.900531 166.335391 
L 395.929755 238.558918 
L 394.944367 117.63682 
L 393.958979 90.486824 
L 392.973592 81.436825 
L 391.988204 63.336828 
L 391.002816 63.336828 
L 390.017428 63.336828 
L 389.03204 63.336828 
L 388.046652 63.336828 
L 387.061264 63.336828 
L 386.075876 63.336828 
L 385.090488 63.336828 
L 384.105101 63.336828 
L 383.119713 63.336828 
L 382.134325 63.336828 
L 381.148937 63.336828 
L 380.163549 63.336828 
L 379.178161 63.336828 
L 378.192773 63.336828 
L 377.207385 63.336828 
L 376.221997 63.336828 
L 375.236609 63.336828 
L 374.251222 63.336828 
L 373.265834 63.336828 
L 372.280446 63.336828 
L 371.295058 63.336828 
L 370.30967 63.336828 
L 369.324282 63.336828 
L 368.338894 63.336828 
L 367.353506 63.336828 
L 366.368118 63.336828 
L 365.38273 63.336828 
L 364.397343 64.27628 
L 363.411955 123.165133 
L 362.426567 153.079286 
L 360.455791 240.003388 
L 359.470403 63.336828 
L 358.485015 63.336828 
L 357.499627 63.336828 
L 356.514239 63.336828 
L 355.528852 63.336828 
L 354.543464 63.336828 
L 353.558076 63.336828 
L 352.572688 63.336828 
L 351.5873 63.336828 
L 350.601912 63.336828 
L 349.616524 63.336828 
L 348.631136 63.336828 
L 347.645748 63.336828 
L 346.66036 63.336828 
L 345.674973 63.336828 
L 344.689585 63.336828 
L 343.704197 63.336828 
L 342.718809 63.336828 
L 341.733421 63.336828 
L 340.748033 63.336828 
L 339.762645 63.336828 
L 338.777257 63.336828 
L 337.791869 63.336828 
L 336.806482 63.336828 
L 335.821094 63.336828 
L 334.835706 63.336828 
L 333.850318 63.336828 
L 332.86493 63.336828 
L 331.879542 63.336828 
L 330.894154 63.336828 
L 329.908766 73.222082 
L 328.923378 131.629445 
L 327.93799 165.775754 
L 325.967215 238.558918 
L 324.981827 117.63682 
L 323.996439 90.486824 
L 323.011051 81.436825 
L 322.025663 63.336828 
L 321.040275 63.336828 
L 320.054887 63.336828 
L 319.069499 63.336828 
L 318.084112 63.336828 
L 317.098724 63.336828 
L 316.113336 63.336828 
L 315.127948 63.336828 
L 314.14256 63.336828 
L 313.157172 63.336828 
L 312.171784 63.336828 
L 311.186396 63.336828 
L 310.201008 63.336828 
L 309.21562 63.336828 
L 308.230233 63.336828 
L 307.244845 63.336828 
L 306.259457 63.336828 
L 305.274069 63.336828 
L 304.288681 63.336828 
L 303.303293 63.336828 
L 302.317905 63.336828 
L 301.332517 63.336828 
L 300.347129 63.336828 
L 299.361742 63.336828 
L 298.376354 63.336828 
L 297.390966 63.336828 
L 296.405578 63.336828 
L 295.42019 63.336828 
L 294.434802 63.377162 
L 293.449414 121.784525 
L 292.464026 151.008374 
L 290.49325 238.558918 
L 289.507863 63.336828 
L 288.522475 63.336828 
L 287.537087 63.336828 
L 286.551699 63.336828 
L 285.566311 63.336828 
L 284.580923 63.336828 
L 283.595535 63.336828 
L 282.610147 63.336828 
L 281.624759 63.336828 
L 280.639372 63.336828 
L 279.653984 63.336828 
L 278.668596 63.336828 
L 277.683208 63.336828 
L 276.69782 63.336828 
L 275.712432 63.336828 
L 274.727044 63.336828 
L 273.741656 63.336828 
L 272.756268 63.336828 
L 271.77088 63.336828 
L 270.785493 63.336828 
L 269.800105 63.336828 
L 268.814717 63.336828 
L 267.829329 63.336828 
L 266.843941 63.336828 
L 265.858553 63.336828 
L 264.873165 63.336828 
L 263.887777 63.336828 
L 262.902389 63.336828 
L 261.917002 63.336828 
L 260.931614 63.336828 
L 259.946226 69.37016 
L 258.960838 128.612779 
L 257.97545 161.250754 
L 256.004674 241.064684 
L 255.019286 87.981058 
L 254.033898 75.658943 
L 253.04851 71.551571 
L 252.063123 63.336828 
L 251.077735 63.336828 
L 250.092347 63.336828 
L 249.106959 63.336828 
L 248.121571 63.336828 
L 247.136183 63.336828 
L 246.150795 63.336828 
L 245.165407 63.336828 
L 244.180019 63.336828 
L 243.194631 63.336828 
L 242.209244 63.336828 
L 241.223856 63.336828 
L 240.238468 63.336828 
L 239.25308 63.336828 
L 238.267692 63.336828 
L 237.282304 63.336828 
L 236.296916 63.336828 
L 235.311528 63.336828 
L 234.32614 63.336828 
L 233.340753 63.336828 
L 232.355365 63.336828 
L 231.369977 63.336828 
L 230.384589 63.336828 
L 229.399201 63.336828 
L 228.413813 63.336828 
L 227.428425 63.336828 
L 226.443037 63.336828 
L 225.457649 63.336828 
L 224.472261 65.047673 
L 223.486874 123.455036 
L 222.501486 153.51414 
L 220.53071 238.558918 
L 219.545322 63.336828 
L 218.559934 63.336828 
L 217.574546 63.336828 
L 216.589158 63.336828 
L 215.60377 63.336828 
L 214.618383 63.336828 
L 213.632995 63.336828 
L 212.647607 63.336828 
L 211.662219 63.336828 
L 210.676831 63.336828 
L 209.691443 63.336828 
L 208.706055 63.336828 
L 207.720667 63.336828 
L 206.735279 63.336828 
L 205.749891 63.336828 
L 204.764504 63.336828 
L 203.779116 63.336828 
L 202.793728 63.336828 
L 201.80834 63.336828 
L 200.822952 63.336828 
L 199.837564 63.336828 
L 198.852176 63.336828 
L 197.866788 63.336828 
L 196.8814 63.336828 
L 195.896013 63.336828 
L 194.910625 63.336828 
L 193.925237 63.336828 
L 192.939849 63.336828 
L 191.954461 63.336828 
L 190.969073 63.336828 
L 189.983685 72.740592 
L 188.998297 131.260975 
L 188.012909 165.223048 
L 186.042134 238.897978 
L 185.056746 96.647881 
L 184.071358 79.270119 
L 183.08597 74.440512 
L 182.100582 63.336828 
L 181.115194 63.818318 
L 180.129806 63.336828 
L 179.144418 63.336828 
L 178.15903 62.855338 
L 177.173643 63.336828 
L 176.188255 63.336828 
L 175.202867 63.825881 
L 174.217479 63.377162 
L 173.232091 63.410774 
L 172.246703 63.436823 
L 171.261315 63.437664 
L 170.275927 63.437664 
L 169.290539 63.437664 
L 168.305151 63.437664 
L 167.319764 63.437664 
L 166.334376 63.437664 
L 165.348988 63.437664 
L 164.3636 63.437664 
L 163.378212 63.437664 
L 162.392824 63.437664 
L 161.407436 63.919154 
L 160.422048 63.437664 
L 159.43666 63.437664 
L 158.451273 62.956173 
L 157.465885 63.437664 
L 156.480497 63.437664 
L 155.495109 63.437664 
L 154.509721 73.801046 
L 153.524333 132.415543 
L 152.538945 166.904483 
L 150.568169 239.281153 
L 149.582781 63.437664 
L 148.597394 63.437664 
L 147.612006 63.437664 
L 146.626618 63.437664 
L 145.64123 63.437664 
L 144.655842 63.437664 
L 143.670454 63.437664 
L 142.685066 63.437664 
L 141.699678 63.437664 
L 140.71429 63.437664 
L 139.728903 63.437664 
L 138.743515 63.437664 
L 137.758127 63.437664 
L 136.772739 63.437664 
L 135.787351 63.437664 
L 134.801963 63.437664 
L 133.816575 63.437664 
L 132.831187 63.437664 
L 131.845799 63.437664 
L 130.860411 63.437664 
L 129.875024 63.437664 
L 128.889636 63.437664 
L 127.904248 63.437664 
L 126.91886 63.437664 
L 125.933472 63.437664 
L 124.948084 63.437664 
L 123.962696 63.437664 
L 122.977308 63.437664 
L 121.99192 48.060229 
L 121.006533 50.58112 
L 120.021145 84.880362 
L 119.035757 118.667864 
L 117.064981 166.335391 
z
" clip-path="url(#pda6eab5234)" style="fill: #dd8452; fill-opacity: 0.12; stroke: #dd8452; stroke-opacity: 0.12; stroke-width: 0.8"/>
   </g>
   <g id="line2d_17">
    <path d="M 79.620241 66.724905 
L 80.605629 65.282956 
L 81.591017 64.802306 
L 82.576405 63.841006 
L 106.225714 63.74017 
L 109.181878 63.491443 
L 112.138041 63.437664 
L 114.108817 63.437664 
M 117.064981 166.335391 
L 119.035757 118.667864 
L 121.006533 50.58112 
L 121.99192 48.060229 
L 122.977308 63.437664 
L 149.582781 63.437664 
L 150.568169 239.281153 
L 153.524333 132.415543 
L 154.509721 73.801046 
L 155.495109 63.437664 
L 157.465885 63.437664 
L 158.451273 62.956173 
L 159.43666 63.437664 
L 160.422048 63.437664 
L 161.407436 63.919154 
L 162.392824 63.437664 
L 174.217479 63.377162 
L 175.202867 63.825881 
L 176.188255 63.336828 
L 177.173643 63.336828 
L 178.15903 62.855338 
L 179.144418 63.336828 
L 180.129806 63.336828 
L 181.115194 63.818318 
L 182.100582 63.336828 
L 183.08597 74.440512 
L 184.071358 79.270119 
L 185.056746 96.647881 
L 186.042134 238.897978 
L 188.998297 131.260975 
L 189.983685 72.740592 
L 190.969073 63.336828 
L 219.545322 63.336828 
L 220.53071 238.558918 
L 222.501486 153.51414 
L 223.486874 123.455036 
L 224.472261 65.047673 
L 225.457649 63.336828 
L 252.063123 63.336828 
L 253.04851 71.551571 
L 254.033898 75.658943 
L 255.019286 87.981058 
L 256.004674 241.064684 
L 257.97545 161.250754 
L 258.960838 128.612779 
L 259.946226 69.37016 
L 260.931614 63.336828 
L 289.507863 63.336828 
L 290.49325 238.558918 
L 292.464026 151.008374 
L 293.449414 121.784525 
L 294.434802 63.377162 
L 297.390966 63.336828 
L 322.025663 63.336828 
L 323.011051 81.436825 
L 323.996439 90.486824 
L 324.981827 117.63682 
L 325.967215 238.558918 
L 328.923378 131.629445 
L 329.908766 73.222082 
L 330.894154 63.336828 
L 359.470403 63.336828 
L 360.455791 240.003388 
L 362.426567 153.079286 
L 363.411955 123.165133 
L 364.397343 64.27628 
L 365.38273 63.336828 
L 391.988204 63.336828 
L 392.973592 81.436825 
L 393.958979 90.486824 
L 394.944367 117.63682 
L 395.929755 238.558918 
L 397.900531 166.335391 
L 398.885919 134.55704 
L 399.871307 61.58901 
L 400.856695 51.330664 
L 401.842083 48.776162 
L 402.827471 63.336828 
L 427.462168 63.336828 
L 428.447556 89.651568 
L 429.432944 102.808939 
L 430.418332 142.28105 
L 431.403719 151.774725 
L 433.374495 107.555777 
L 434.359883 92.816127 
L 435.345271 63.336828 
L 437.316047 63.270444 
L 440.272211 63.034321 
L 464.906908 63.034321 
L 465.892296 238.548834 
L 468.848459 131.441219 
L 469.833847 72.936381 
L 470.819235 63.034321 
L 497.424708 63.034321 
L 498.410096 89.392757 
L 499.395484 102.571975 
L 500.380872 142.109629 
L 501.36626 148.744614 
L 503.337036 105.889468 
L 504.322424 91.604419 
L 505.307812 63.034321 
L 531.913285 63.034321 
L 532.898673 71.262509 
L 533.884061 75.376603 
L 534.869448 87.718885 
L 535.854836 238.165659 
L 538.811 131.313493 
L 539.796388 72.936381 
L 540.781776 63.034321 
L 569.358025 63.034321 
L 570.343413 239.27233 
L 572.314188 153.404481 
L 573.299576 123.281094 
L 574.284964 64.535091 
L 575.270352 63.034321 
L 601.875825 63.034321 
L 602.861213 79.235247 
L 603.846601 87.33571 
L 604.831989 111.637099 
L 605.817377 241.442817 
L 607.788153 164.752272 
L 608.773541 133.400791 
L 609.758928 59.115176 
L 610.744316 50.772707 
L 611.729704 48.218204 
L 612.715092 63.034321 
L 639.320565 63.034321 
L 640.305953 239.995826 
L 642.276729 151.595742 
L 643.262117 122.075268 
L 644.247505 63.0881 
L 647.203669 63.034321 
L 671.838366 63.034321 
L 672.823754 76.823595 
L 673.809142 83.718231 
L 674.79453 104.402142 
L 675.779917 238.548834 
L 678.736081 131.441219 
L 679.721469 72.936381 
L 680.706857 63.034321 
L 709.283106 63.034321 
L 710.268494 238.548834 
L 713.224657 131.441219 
L 714.210045 72.936381 
L 715.195433 63.034321 
L 743.771682 63.034321 
L 744.75707 238.548834 
L 746.727846 148.318584 
L 747.713234 119.408166 
L 748.698622 61.385658 
L 749.68401 63.034321 
L 750.669397 63.516651 
L 751.654785 63.034321 
L 764.464828 63.034321 
L 765.450216 62.55199 
L 766.435604 63.034321 
L 767.420992 63.034321 
L 768.40638 63.516651 
L 769.391767 63.034321 
L 776.289483 63.034321 
L 777.274871 76.823595 
L 778.260259 83.718231 
L 779.245646 104.402142 
L 780.231034 240.43194 
L 782.20181 163.692237 
L 783.187198 130.139598 
L 784.172586 71.007059 
L 785.157974 63.034321 
L 810.778059 63.034321 
L 810.778059 63.034321 
" clip-path="url(#pda6eab5234)" style="fill: none; stroke: #dd8452; stroke-width: 1.2; stroke-linecap: round"/>
   </g>
   <g id="line2d_18">
    <path d="M 79.620241 240.807553 
L 114.108817 240.706717 
M 120.021145 235.745604 
L 121.99192 233.325548 
L 122.977308 240.706717 
L 149.582781 240.706717 
M 152.538945 242.703263 
L 153.524333 242.037747 
L 154.509721 240.82772 
L 155.495109 240.706717 
L 185.056746 240.605881 
L 186.042134 244.150254 
L 188.998297 241.911703 
L 189.983685 240.730245 
L 190.969073 240.605881 
L 219.545322 240.605881 
M 222.501486 236.688417 
L 223.486874 237.994238 
L 224.472261 236.750599 
L 225.457649 240.605881 
L 255.019286 240.605881 
L 256.004674 244.150254 
L 258.960838 241.911703 
L 259.946226 240.730245 
L 260.931614 240.605881 
L 289.507863 240.605881 
M 292.464026 236.874963 
L 293.449414 238.118602 
L 294.434802 236.874963 
L 295.42019 240.605881 
L 324.981827 240.605881 
M 327.93799 242.657887 
L 328.923378 241.973885 
L 329.908766 240.730245 
L 330.894154 240.605881 
L 359.470403 240.605881 
M 362.426567 236.828326 
L 363.411955 238.087511 
L 364.397343 236.843872 
L 365.38273 240.605881 
L 394.944367 240.605881 
M 399.871307 236.004415 
L 401.842083 233.517136 
L 402.827471 240.605881 
L 430.418332 240.605881 
L 431.403719 237.248055 
L 433.374495 238.926968 
L 434.359883 239.486606 
L 435.345271 240.605881 
L 464.906908 240.605881 
M 467.863072 242.657887 
L 468.848459 241.973885 
L 469.833847 240.730245 
L 470.819235 240.605881 
L 500.380872 240.605881 
L 501.36626 237.248055 
L 503.337036 238.926968 
L 504.322424 239.486606 
L 505.307812 240.605881 
L 534.869448 240.605881 
L 535.854836 244.196891 
L 537.825612 242.587932 
L 538.811 241.927248 
L 539.796388 240.730245 
L 540.781776 240.605881 
L 569.358025 240.605881 
M 572.314188 236.874963 
L 573.299576 238.118602 
L 574.284964 236.874963 
L 575.270352 240.605881 
L 604.831989 240.605881 
M 609.758928 235.880051 
L 611.729704 233.392772 
L 612.715092 240.605881 
L 639.320565 240.605881 
M 642.276729 236.874963 
L 643.262117 238.118602 
L 644.247505 236.874963 
L 645.232893 240.605881 
L 674.79453 240.605881 
M 677.750693 242.657887 
L 678.736081 241.973885 
L 679.721469 240.730245 
L 680.706857 240.605881 
L 709.283106 240.605881 
M 712.23927 242.657887 
L 713.224657 241.973885 
L 714.210045 240.730245 
L 715.195433 240.605881 
L 743.771682 240.605881 
M 746.727846 236.688417 
L 747.713234 237.994238 
L 748.698622 236.750599 
L 749.68401 240.605881 
L 779.245646 240.605881 
L 780.231034 244.196891 
L 782.20181 242.587932 
L 783.187198 241.927248 
L 784.172586 240.730245 
L 785.157974 240.605881 
L 810.778059 240.605881 
L 810.778059 240.605881 
" clip-path="url(#pda6eab5234)" style="fill: none; stroke-dasharray: 3.7,1.6; stroke-dashoffset: 0; stroke: #55a868; stroke-opacity: 0.8"/>
   </g>
   <g id="line2d_19">
    <path d="M 113.267296 244.3368 
L 113.267296 38.2464 
" clip-path="url(#pda6eab5234)" style="fill: none; stroke-dasharray: 2.96,1.28; stroke-dashoffset: 0; stroke: #d32f2f; stroke-opacity: 0.5; stroke-width: 0.8"/>
   </g>
   <g id="line2d_20">
    <path d="M 148.292909 244.3368 
L 148.292909 38.2464 
" clip-path="url(#pda6eab5234)" style="fill: none; stroke-dasharray: 2.96,1.28; stroke-dashoffset: 0; stroke: #d32f2f; stroke-opacity: 0.5; stroke-width: 0.8"/>
   </g>
   <g id="line2d_21">
    <path d="M 183.592459 244.3368 
L 183.592459 38.2464 
" clip-path="url(#pda6eab5234)" style="fill: none; stroke-dasharray: 2.96,1.28; stroke-dashoffset: 0; stroke: #d32f2f; stroke-opacity: 0.5; stroke-width: 0.8"/>
   </g>
   <g id="line2d_22">
    <path d="M 218.443658 244.3368 
L 218.443658 38.2464 
" clip-path="url(#pda6eab5234)" style="fill: none; stroke-dasharray: 2.96,1.28; stroke-dashoffset: 0; stroke: #d32f2f; stroke-opacity: 0.5; stroke-width: 0.8"/>
   </g>
   <g id="line2d_23">
    <path d="M 253.569781 244.3368 
L 253.569781 38.2464 
" clip-path="url(#pda6eab5234)" style="fill: none; stroke-dasharray: 2.96,1.28; stroke-dashoffset: 0; stroke: #d32f2f; stroke-opacity: 0.5; stroke-width: 0.8"/>
   </g>
   <g id="line2d_24">
    <path d="M 288.437731 244.3368 
L 288.437731 38.2464 
" clip-path="url(#pda6eab5234)" style="fill: none; stroke-dasharray: 2.96,1.28; stroke-dashoffset: 0; stroke: #d32f2f; stroke-opacity: 0.5; stroke-width: 0.8"/>
   </g>
   <g id="line2d_25">
    <path d="M 323.371703 244.3368 
L 323.371703 38.2464 
" clip-path="url(#pda6eab5234)" style="fill: none; stroke-dasharray: 2.96,1.28; stroke-dashoffset: 0; stroke: #d32f2f; stroke-opacity: 0.5; stroke-width: 0.8"/>
   </g>
   <g id="line2d_26">
    <path d="M 358.368739 244.3368 
L 358.368739 38.2464 
" clip-path="url(#pda6eab5234)" style="fill: none; stroke-dasharray: 2.96,1.28; stroke-dashoffset: 0; stroke: #d32f2f; stroke-opacity: 0.5; stroke-width: 0.8"/>
   </g>
   <g id="line2d_27">
    <path d="M 393.3372 244.3368 
L 393.3372 38.2464 
" clip-path="url(#pda6eab5234)" style="fill: none; stroke-dasharray: 2.96,1.28; stroke-dashoffset: 0; stroke: #d32f2f; stroke-opacity: 0.5; stroke-width: 0.8"/>
   </g>
   <g id="line2d_28">
    <path d="M 428.600291 244.3368 
L 428.600291 38.2464 
" clip-path="url(#pda6eab5234)" style="fill: none; stroke-dasharray: 2.96,1.28; stroke-dashoffset: 0; stroke: #d32f2f; stroke-opacity: 0.5; stroke-width: 0.8"/>
   </g>
   <g id="line2d_29">
    <path d="M 463.640684 244.3368 
L 463.640684 38.2464 
" clip-path="url(#pda6eab5234)" style="fill: none; stroke-dasharray: 2.96,1.28; stroke-dashoffset: 0; stroke: #d32f2f; stroke-opacity: 0.5; stroke-width: 0.8"/>
   </g>
   <g id="line2d_30">
    <path d="M 498.568744 244.3368 
L 498.568744 38.2464 
" clip-path="url(#pda6eab5234)" style="fill: none; stroke-dasharray: 2.96,1.28; stroke-dashoffset: 0; stroke: #d32f2f; stroke-opacity: 0.5; stroke-width: 0.8"/>
   </g>
   <g id="line2d_31">
    <path d="M 533.451475 244.3368 
L 533.451475 38.2464 
" clip-path="url(#pda6eab5234)" style="fill: none; stroke-dasharray: 2.96,1.28; stroke-dashoffset: 0; stroke: #d32f2f; stroke-opacity: 0.5; stroke-width: 0.8"/>
   </g>
   <g id="line2d_32">
    <path d="M 568.261288 244.3368 
L 568.261288 38.2464 
" clip-path="url(#pda6eab5234)" style="fill: none; stroke-dasharray: 2.96,1.28; stroke-dashoffset: 0; stroke: #d32f2f; stroke-opacity: 0.5; stroke-width: 0.8"/>
   </g>
   <g id="line2d_33">
    <path d="M 603.282959 244.3368 
L 603.282959 38.2464 
" clip-path="url(#pda6eab5234)" style="fill: none; stroke-dasharray: 2.96,1.28; stroke-dashoffset: 0; stroke: #d32f2f; stroke-opacity: 0.5; stroke-width: 0.8"/>
   </g>
   <g id="line2d_34">
    <path d="M 638.30463 244.3368 
L 638.30463 38.2464 
" clip-path="url(#pda6eab5234)" style="fill: none; stroke-dasharray: 2.96,1.28; stroke-dashoffset: 0; stroke: #d32f2f; stroke-opacity: 0.5; stroke-width: 0.8"/>
   </g>
   <g id="line2d_35">
    <path d="M 673.282945 244.3368 
L 673.282945 38.2464 
" clip-path="url(#pda6eab5234)" style="fill: none; stroke-dasharray: 2.96,1.28; stroke-dashoffset: 0; stroke: #d32f2f; stroke-opacity: 0.5; stroke-width: 0.8"/>
   </g>
   <g id="line2d_36">
    <path d="M 707.988306 244.3368 
L 707.988306 38.2464 
" clip-path="url(#pda6eab5234)" style="fill: none; stroke-dasharray: 2.96,1.28; stroke-dashoffset: 0; stroke: #d32f2f; stroke-opacity: 0.5; stroke-width: 0.8"/>
   </g>
   <g id="line2d_37">
    <path d="M 742.844432 244.3368 
L 742.844432 38.2464 
" clip-path="url(#pda6eab5234)" style="fill: none; stroke-dasharray: 2.96,1.28; stroke-dashoffset: 0; stroke: #d32f2f; stroke-opacity: 0.5; stroke-width: 0.8"/>
   </g>
   <g id="line2d_38">
    <path d="M 777.62764 244.3368 
L 777.62764 38.2464 
" clip-path="url(#pda6eab5234)" style="fill: none; stroke-dasharray: 2.96,1.28; stroke-dashoffset: 0; stroke: #d32f2f; stroke-opacity: 0.5; stroke-width: 0.8"/>
   </g>
   <g id="patch_3">
    <path d="M 43.06235 244.3368 
L 43.06235 38.2464 
" style="fill: none; stroke: #cccccc; stroke-linejoin: miter; stroke-linecap: square"/>
   </g>
   <g id="patch_4">
    <path d="M 847.33595 244.3368 
L 847.33595 38.2464 
" style="fill: none; stroke: #cccccc; stroke-linejoin: miter; stroke-linecap: square"/>
   </g>
   <g id="patch_5">
    <path d="M 43.06235 244.3368 
L 847.33595 244.3368 
" style="fill: none; stroke: #cccccc; stroke-linejoin: miter; stroke-linecap: square"/>
   </g>
   <g id="patch_6">
    <path d="M 43.06235 38.2464 
L 847.33595 38.2464 
" style="fill: none; stroke: #cccccc; stroke-linejoin: miter; stroke-linecap: square"/>
   </g>
   <g id="legend_1">
    <g id="patch_7">
     <path d="M 48.66235 79.8739 
L 200.41485 79.8739 
Q 202.01485 79.8739 202.01485 78.2739 
L 202.01485 43.8464 
Q 202.01485 42.2464 200.41485 42.2464 
L 48.66235 42.2464 
Q 47.06235 42.2464 47.06235 43.8464 
L 47.06235 78.2739 
Q 47.06235 79.8739 48.66235 79.8739 
z
" style="fill: #ffffff; opacity: 0.9; stroke: #cccccc; stroke-width: 0.8; stroke-linejoin: miter"/>
    </g>
    <g id="line2d_39">
     <path d="M 50.26235 48.72515 
L 58.26235 48.72515 
L 66.26235 48.72515 
" style="fill: none; stroke: #dd8452; stroke-width: 1.2; stroke-linecap: round"/>
    </g>
    <g id="text_19">
     <!-- Throughput (server writes) -->
     <g style="fill: #262626" transform="translate(72.66235 51.52515) scale(0.08 -0.08)">
      <defs>
       <path id="DejaVuSans-76" d="M 191 3500 
L 800 3500 
L 1894 563 
L 2988 3500 
L 3597 3500 
L 2284 0 
L 1503 0 
L 191 3500 
z
" transform="scale(0.015625)"/>
       <path id="DejaVuSans-77" d="M 269 3500 
L 844 3500 
L 1563 769 
L 2278 3500 
L 2956 3500 
L 3675 769 
L 4391 3500 
L 4966 3500 
L 4050 0 
L 3372 0 
L 2619 2869 
L 1863 0 
L 1184 0 
L 269 3500 
z
" transform="scale(0.015625)"/>
      </defs>
      <use xlink:href="#DejaVuSans-54"/>
      <use xlink:href="#DejaVuSans-68" transform="translate(61.083984 0)"/>
      <use xlink:href="#DejaVuSans-72" transform="translate(124.462891 0)"/>
      <use xlink:href="#DejaVuSans-6f" transform="translate(163.326172 0)"/>
      <use xlink:href="#DejaVuSans-75" transform="translate(224.507812 0)"/>
      <use xlink:href="#DejaVuSans-67" transform="translate(287.886719 0)"/>
      <use xlink:href="#DejaVuSans-68" transform="translate(351.363281 0)"/>
      <use xlink:href="#DejaVuSans-70" transform="translate(414.742188 0)"/>
      <use xlink:href="#DejaVuSans-75" transform="translate(478.21875 0)"/>
      <use xlink:href="#DejaVuSans-74" transform="translate(541.597656 0)"/>
      <use xlink:href="#DejaVuSans-20" transform="translate(580.806641 0)"/>
      <use xlink:href="#DejaVuSans-28" transform="translate(612.59375 0)"/>
      <use xlink:href="#DejaVuSans-73" transform="translate(651.607422 0)"/>
      <use xlink:href="#DejaVuSans-65" transform="translate(703.707031 0)"/>
      <use xlink:href="#DejaVuSans-72" transform="translate(765.230469 0)"/>
      <use xlink:href="#DejaVuSans-76" transform="translate(806.34375 0)"/>
      <use xlink:href="#DejaVuSans-65" transform="translate(865.523438 0)"/>
      <use xlink:href="#DejaVuSans-72" transform="translate(927.046875 0)"/>
      <use xlink:href="#DejaVuSans-20" transform="translate(968.160156 0)"/>
      <use xlink:href="#DejaVuSans-77" transform="translate(999.947266 0)"/>
      <use xlink:href="#DejaVuSans-72" transform="translate(1081.734375 0)"/>
      <use xlink:href="#DejaVuSans-69" transform="translate(1122.847656 0)"/>
      <use xlink:href="#DejaVuSans-74" transform="translate(1150.630859 0)"/>
      <use xlink:href="#DejaVuSans-65" transform="translate(1189.839844 0)"/>
      <use xlink:href="#DejaVuSans-73" transform="translate(1251.363281 0)"/>
      <use xlink:href="#DejaVuSans-29" transform="translate(1303.462891 0)"/>
     </g>
    </g>
    <g id="line2d_40">
     <path d="M 50.26235 60.46765 
L 58.26235 60.46765 
L 66.26235 60.46765 
" style="fill: none; stroke-dasharray: 3.7,1.6; stroke-dashoffset: 0; stroke: #55a868; stroke-opacity: 0.8"/>
    </g>
    <g id="text_20">
     <!-- ClientServer (server receives) -->
     <g style="fill: #262626" transform="translate(72.66235 63.26765) scale(0.08 -0.08)">
      <defs>
       <path id="DejaVuSans-43" d="M 4122 4306 
L 4122 3641 
Q 3803 3938 3442 4084 
Q 3081 4231 2675 4231 
Q 1875 4231 1450 3742 
Q 1025 3253 1025 2328 
Q 1025 1406 1450 917 
Q 1875 428 2675 428 
Q 3081 428 3442 575 
Q 3803 722 4122 1019 
L 4122 359 
Q 3791 134 3420 21 
Q 3050 -91 2638 -91 
Q 1578 -91 968 557 
Q 359 1206 359 2328 
Q 359 3453 968 4101 
Q 1578 4750 2638 4750 
Q 3056 4750 3426 4639 
Q 3797 4528 4122 4306 
z
" transform="scale(0.015625)"/>
       <path id="DejaVuSans-6c" d="M 603 4863 
L 1178 4863 
L 1178 0 
L 603 0 
L 603 4863 
z
" transform="scale(0.015625)"/>
       <path id="DejaVuSans-6e" d="M 3513 2113 
L 3513 0 
L 2938 0 
L 2938 2094 
Q 2938 2591 2744 2837 
Q 2550 3084 2163 3084 
Q 1697 3084 1428 2787 
Q 1159 2491 1159 1978 
L 1159 0 
L 581 0 
L 581 3500 
L 1159 3500 
L 1159 2956 
Q 1366 3272 1645 3428 
Q 1925 3584 2291 3584 
Q 2894 3584 3203 3211 
Q 3513 2838 3513 2113 
z
" transform="scale(0.015625)"/>
       <path id="DejaVuSans-2192" d="M 5050 2147 
L 5050 1866 
L 3822 638 
L 3447 1013 
L 4175 1741 
L 366 1741 
L 366 2272 
L 4175 2272 
L 3447 3000 
L 3822 3375 
L 5050 2147 
z
" transform="scale(0.015625)"/>
       <path id="DejaVuSans-53" d="M 3425 4513 
L 3425 3897 
Q 3066 4069 2747 4153 
Q 2428 4238 2131 4238 
Q 1616 4238 1336 4038 
Q 1056 3838 1056 3469 
Q 1056 3159 1242 3001 
Q 1428 2844 1947 2747 
L 2328 2669 
Q 3034 2534 3370 2195 
Q 3706 1856 3706 1288 
Q 3706 609 3251 259 
Q 2797 -91 1919 -91 
Q 1588 -91 1214 -16 
Q 841 59 441 206 
L 441 856 
Q 825 641 1194 531 
Q 1563 422 1919 422 
Q 2459 422 2753 634 
Q 3047 847 3047 1241 
Q 3047 1584 2836 1778 
Q 2625 1972 2144 2069 
L 1759 2144 
Q 1053 2284 737 2584 
Q 422 2884 422 3419 
Q 422 4038 858 4394 
Q 1294 4750 2059 4750 
Q 2388 4750 2728 4690 
Q 3069 4631 3425 4513 
z
" transform="scale(0.015625)"/>
       <path id="DejaVuSans-63" d="M 3122 3366 
L 3122 2828 
Q 2878 2963 2633 3030 
Q 2388 3097 2138 3097 
Q 1578 3097 1268 2742 
Q 959 2388 959 1747 
Q 959 1106 1268 751 
Q 1578 397 2138 397 
Q 2388 397 2633 464 
Q 2878 531 3122 666 
L 3122 134 
Q 2881 22 2623 -34 
Q 2366 -91 2075 -91 
Q 1284 -91 818 406 
Q 353 903 353 1747 
Q 353 2603 823 3093 
Q 1294 3584 2113 3584 
Q 2378 3584 2631 3529 
Q 2884 3475 3122 3366 
z
" transform="scale(0.015625)"/>
      </defs>
      <use xlink:href="#DejaVuSans-43"/>
      <use xlink:href="#DejaVuSans-6c" transform="translate(69.824219 0)"/>
      <use xlink:href="#DejaVuSans-69" transform="translate(97.607422 0)"/>
      <use xlink:href="#DejaVuSans-65" transform="translate(125.390625 0)"/>
      <use xlink:href="#DejaVuSans-6e" transform="translate(186.914062 0)"/>
      <use xlink:href="#DejaVuSans-74" transform="translate(250.292969 0)"/>
      <use xlink:href="#DejaVuSans-2192" transform="translate(289.501953 0)"/>
      <use xlink:href="#DejaVuSans-53" transform="translate(373.291016 0)"/>
      <use xlink:href="#DejaVuSans-65" transform="translate(436.767578 0)"/>
      <use xlink:href="#DejaVuSans-72" transform="translate(498.291016 0)"/>
      <use xlink:href="#DejaVuSans-76" transform="translate(539.404297 0)"/>
      <use xlink:href="#DejaVuSans-65" transform="translate(598.583984 0)"/>
      <use xlink:href="#DejaVuSans-72" transform="translate(660.107422 0)"/>
      <use xlink:href="#DejaVuSans-20" transform="translate(701.220703 0)"/>
      <use xlink:href="#DejaVuSans-28" transform="translate(733.007812 0)"/>
      <use xlink:href="#DejaVuSans-73" transform="translate(772.021484 0)"/>
      <use xlink:href="#DejaVuSans-65" transform="translate(824.121094 0)"/>
      <use xlink:href="#DejaVuSans-72" transform="translate(885.644531 0)"/>
      <use xlink:href="#DejaVuSans-76" transform="translate(926.757812 0)"/>
      <use xlink:href="#DejaVuSans-65" transform="translate(985.9375 0)"/>
      <use xlink:href="#DejaVuSans-72" transform="translate(1047.460938 0)"/>
      <use xlink:href="#DejaVuSans-20" transform="translate(1088.574219 0)"/>
      <use xlink:href="#DejaVuSans-72" transform="translate(1120.361328 0)"/>
      <use xlink:href="#DejaVuSans-65" transform="translate(1159.224609 0)"/>
      <use xlink:href="#DejaVuSans-63" transform="translate(1220.748047 0)"/>
      <use xlink:href="#DejaVuSans-65" transform="translate(1275.728516 0)"/>
      <use xlink:href="#DejaVuSans-69" transform="translate(1337.251953 0)"/>
      <use xlink:href="#DejaVuSans-76" transform="translate(1365.035156 0)"/>
      <use xlink:href="#DejaVuSans-65" transform="translate(1424.214844 0)"/>
      <use xlink:href="#DejaVuSans-73" transform="translate(1485.738281 0)"/>
      <use xlink:href="#DejaVuSans-29" transform="translate(1537.837891 0)"/>
     </g>
    </g>
    <g id="line2d_41">
     <path d="M 50.26235 72.21015 
L 58.26235 72.21015 
L 66.26235 72.21015 
" style="fill: none; stroke-dasharray: 2.96,1.28; stroke-dashoffset: 0; stroke: #d32f2f; stroke-opacity: 0.5; stroke-width: 0.8"/>
    </g>
    <g id="text_21">
     <!-- Migrations (n=20) -->
     <g style="fill: #262626" transform="translate(72.66235 75.01015) scale(0.08 -0.08)">
      <defs>
       <path id="DejaVuSans-4d" d="M 628 4666 
L 1569 4666 
L 2759 1491 
L 3956 4666 
L 4897 4666 
L 4897 0 
L 4281 0 
L 4281 4097 
L 3078 897 
L 2444 897 
L 1241 4097 
L 1241 0 
L 628 0 
L 628 4666 
z
" transform="scale(0.015625)"/>
       <path id="DejaVuSans-61" d="M 2194 1759 
Q 1497 1759 1228 1600 
Q 959 1441 959 1056 
Q 959 750 1161 570 
Q 1363 391 1709 391 
Q 2188 391 2477 730 
Q 2766 1069 2766 1631 
L 2766 1759 
L 2194 1759 
z
M 3341 1997 
L 3341 0 
L 2766 0 
L 2766 531 
Q 2569 213 2275 61 
Q 1981 -91 1556 -91 
Q 1019 -91 701 211 
Q 384 513 384 1019 
Q 384 1609 779 1909 
Q 1175 2209 1959 2209 
L 2766 2209 
L 2766 2266 
Q 2766 2663 2505 2880 
Q 2244 3097 1772 3097 
Q 1472 3097 1187 3025 
Q 903 2953 641 2809 
L 641 3341 
Q 956 3463 1253 3523 
Q 1550 3584 1831 3584 
Q 2591 3584 2966 3190 
Q 3341 2797 3341 1997 
z
" transform="scale(0.015625)"/>
       <path id="DejaVuSans-3d" d="M 678 2906 
L 4684 2906 
L 4684 2381 
L 678 2381 
L 678 2906 
z
M 678 1631 
L 4684 1631 
L 4684 1100 
L 678 1100 
L 678 1631 
z
" transform="scale(0.015625)"/>
      </defs>
      <use xlink:href="#DejaVuSans-4d"/>
      <use xlink:href="#DejaVuSans-69" transform="translate(86.279297 0)"/>
      <use xlink:href="#DejaVuSans-67" transform="translate(114.0625 0)"/>
      <use xlink:href="#DejaVuSans-72" transform="translate(177.539062 0)"/>
      <use xlink:href="#DejaVuSans-61" transform="translate(218.652344 0)"/>
      <use xlink:href="#DejaVuSans-74" transform="translate(279.931641 0)"/>
      <use xlink:href="#DejaVuSans-69" transform="translate(319.140625 0)"/>
      <use xlink:href="#DejaVuSans-6f" transform="translate(346.923828 0)"/>
      <use xlink:href="#DejaVuSans-6e" transform="translate(408.105469 0)"/>
      <use xlink:href="#DejaVuSans-73" transform="translate(471.484375 0)"/>
      <use xlink:href="#DejaVuSans-20" transform="translate(523.583984 0)"/>
      <use xlink:href="#DejaVuSans-28" transform="translate(555.371094 0)"/>
      <use xlink:href="#DejaVuSans-6e" transform="translate(594.384766 0)"/>
      <use xlink:href="#DejaVuSans-3d" transform="translate(657.763672 0)"/>
      <use xlink:href="#DejaVuSans-32" transform="translate(741.552734 0)"/>
      <use xlink:href="#DejaVuSans-30" transform="translate(805.175781 0)"/>
      <use xlink:href="#DejaVuSans-29" transform="translate(868.798828 0)"/>
     </g>
    </g>
   </g>
  </g>
  <g id="text_22">
   <!-- Server Throughput -->
   <g style="fill: #262626" transform="translate(356.499305 17.26641) scale(0.13248 -0.13248)">
    <defs>
     <path id="DejaVuSans-Bold-53" d="M 3834 4519 
L 3834 3531 
Q 3450 3703 3084 3790 
Q 2719 3878 2394 3878 
Q 1963 3878 1756 3759 
Q 1550 3641 1550 3391 
Q 1550 3203 1689 3098 
Q 1828 2994 2194 2919 
L 2706 2816 
Q 3484 2659 3812 2340 
Q 4141 2022 4141 1434 
Q 4141 663 3683 286 
Q 3225 -91 2284 -91 
Q 1841 -91 1394 -6 
Q 947 78 500 244 
L 500 1259 
Q 947 1022 1364 901 
Q 1781 781 2169 781 
Q 2563 781 2772 912 
Q 2981 1044 2981 1288 
Q 2981 1506 2839 1625 
Q 2697 1744 2272 1838 
L 1806 1941 
Q 1106 2091 782 2419 
Q 459 2747 459 3303 
Q 459 4000 909 4375 
Q 1359 4750 2203 4750 
Q 2588 4750 2994 4692 
Q 3400 4634 3834 4519 
z
" transform="scale(0.015625)"/>
     <path id="DejaVuSans-Bold-65" d="M 4031 1759 
L 4031 1441 
L 1416 1441 
Q 1456 1047 1700 850 
Q 1944 653 2381 653 
Q 2734 653 3104 758 
Q 3475 863 3866 1075 
L 3866 213 
Q 3469 63 3072 -14 
Q 2675 -91 2278 -91 
Q 1328 -91 801 392 
Q 275 875 275 1747 
Q 275 2603 792 3093 
Q 1309 3584 2216 3584 
Q 3041 3584 3536 3087 
Q 4031 2591 4031 1759 
z
M 2881 2131 
Q 2881 2450 2695 2645 
Q 2509 2841 2209 2841 
Q 1884 2841 1681 2658 
Q 1478 2475 1428 2131 
L 2881 2131 
z
" transform="scale(0.015625)"/>
     <path id="DejaVuSans-Bold-72" d="M 3138 2547 
Q 2991 2616 2845 2648 
Q 2700 2681 2553 2681 
Q 2122 2681 1889 2404 
Q 1656 2128 1656 1613 
L 1656 0 
L 538 0 
L 538 3500 
L 1656 3500 
L 1656 2925 
Q 1872 3269 2151 3426 
Q 2431 3584 2822 3584 
Q 2878 3584 2943 3579 
Q 3009 3575 3134 3559 
L 3138 2547 
z
" transform="scale(0.015625)"/>
     <path id="DejaVuSans-Bold-76" d="M 97 3500 
L 1216 3500 
L 2088 1081 
L 2956 3500 
L 4078 3500 
L 2700 0 
L 1472 0 
L 97 3500 
z
" transform="scale(0.015625)"/>
     <path id="DejaVuSans-Bold-20" transform="scale(0.015625)"/>
     <path id="DejaVuSans-Bold-54" d="M 31 4666 
L 4331 4666 
L 4331 3756 
L 2784 3756 
L 2784 0 
L 1581 0 
L 1581 3756 
L 31 3756 
L 31 4666 
z
" transform="scale(0.015625)"/>
     <path id="DejaVuSans-Bold-68" d="M 4056 2131 
L 4056 0 
L 2931 0 
L 2931 347 
L 2931 1625 
Q 2931 2084 2911 2256 
Q 2891 2428 2841 2509 
Q 2775 2619 2662 2680 
Q 2550 2741 2406 2741 
Q 2056 2741 1856 2470 
Q 1656 2200 1656 1722 
L 1656 0 
L 538 0 
L 538 4863 
L 1656 4863 
L 1656 2988 
Q 1909 3294 2193 3439 
Q 2478 3584 2822 3584 
Q 3428 3584 3742 3212 
Q 4056 2841 4056 2131 
z
" transform="scale(0.015625)"/>
     <path id="DejaVuSans-Bold-6f" d="M 2203 2784 
Q 1831 2784 1636 2517 
Q 1441 2250 1441 1747 
Q 1441 1244 1636 976 
Q 1831 709 2203 709 
Q 2569 709 2762 976 
Q 2956 1244 2956 1747 
Q 2956 2250 2762 2517 
Q 2569 2784 2203 2784 
z
M 2203 3584 
Q 3106 3584 3614 3096 
Q 4122 2609 4122 1747 
Q 4122 884 3614 396 
Q 3106 -91 2203 -91 
Q 1297 -91 786 396 
Q 275 884 275 1747 
Q 275 2609 786 3096 
Q 1297 3584 2203 3584 
z
" transform="scale(0.015625)"/>
     <path id="DejaVuSans-Bold-75" d="M 500 1363 
L 500 3500 
L 1625 3500 
L 1625 3150 
Q 1625 2866 1622 2436 
Q 1619 2006 1619 1863 
Q 1619 1441 1641 1255 
Q 1663 1069 1716 984 
Q 1784 875 1895 815 
Q 2006 756 2150 756 
Q 2500 756 2700 1025 
Q 2900 1294 2900 1772 
L 2900 3500 
L 4019 3500 
L 4019 0 
L 2900 0 
L 2900 506 
Q 2647 200 2364 54 
Q 2081 -91 1741 -91 
Q 1134 -91 817 281 
Q 500 653 500 1363 
z
" transform="scale(0.015625)"/>
     <path id="DejaVuSans-Bold-67" d="M 2919 594 
Q 2688 288 2409 144 
Q 2131 0 1766 0 
Q 1125 0 706 504 
Q 288 1009 288 1791 
Q 288 2575 706 3076 
Q 1125 3578 1766 3578 
Q 2131 3578 2409 3434 
Q 2688 3291 2919 2981 
L 2919 3500 
L 4044 3500 
L 4044 353 
Q 4044 -491 3511 -936 
Q 2978 -1381 1966 -1381 
Q 1638 -1381 1331 -1331 
Q 1025 -1281 716 -1178 
L 716 -306 
Q 1009 -475 1290 -558 
Q 1572 -641 1856 -641 
Q 2406 -641 2662 -400 
Q 2919 -159 2919 353 
L 2919 594 
z
M 2181 2772 
Q 1834 2772 1640 2515 
Q 1447 2259 1447 1791 
Q 1447 1309 1634 1061 
Q 1822 813 2181 813 
Q 2531 813 2725 1069 
Q 2919 1325 2919 1791 
Q 2919 2259 2725 2515 
Q 2531 2772 2181 2772 
z
" transform="scale(0.015625)"/>
     <path id="DejaVuSans-Bold-70" d="M 1656 506 
L 1656 -1331 
L 538 -1331 
L 538 3500 
L 1656 3500 
L 1656 2988 
Q 1888 3294 2169 3439 
Q 2450 3584 2816 3584 
Q 3463 3584 3878 3070 
Q 4294 2556 4294 1747 
Q 4294 938 3878 423 
Q 3463 -91 2816 -91 
Q 2450 -91 2169 54 
Q 1888 200 1656 506 
z
M 2400 2772 
Q 2041 2772 1848 2508 
Q 1656 2244 1656 1747 
Q 1656 1250 1848 986 
Q 2041 722 2400 722 
Q 2759 722 2948 984 
Q 3138 1247 3138 1747 
Q 3138 2247 2948 2509 
Q 2759 2772 2400 2772 
z
" transform="scale(0.015625)"/>
     <path id="DejaVuSans-Bold-74" d="M 1759 4494 
L 1759 3500 
L 2913 3500 
L 2913 2700 
L 1759 2700 
L 1759 1216 
Q 1759 972 1856 886 
Q 1953 800 2241 800 
L 2816 800 
L 2816 0 
L 1856 0 
Q 1194 0 917 276 
Q 641 553 641 1216 
L 641 2700 
L 84 2700 
L 84 3500 
L 641 3500 
L 641 4494 
L 1759 4494 
z
" transform="scale(0.015625)"/>
    </defs>
    <use xlink:href="#DejaVuSans-Bold-53"/>
    <use xlink:href="#DejaVuSans-Bold-65" transform="translate(72.021484 0)"/>
    <use xlink:href="#DejaVuSans-Bold-72" transform="translate(139.84375 0)"/>
    <use xlink:href="#DejaVuSans-Bold-76" transform="translate(189.160156 0)"/>
    <use xlink:href="#DejaVuSans-Bold-65" transform="translate(254.345703 0)"/>
    <use xlink:href="#DejaVuSans-Bold-72" transform="translate(322.167969 0)"/>
    <use xlink:href="#DejaVuSans-Bold-20" transform="translate(371.484375 0)"/>
    <use xlink:href="#DejaVuSans-Bold-54" transform="translate(406.298828 0)"/>
    <use xlink:href="#DejaVuSans-Bold-68" transform="translate(474.511719 0)"/>
    <use xlink:href="#DejaVuSans-Bold-72" transform="translate(545.703125 0)"/>
    <use xlink:href="#DejaVuSans-Bold-6f" transform="translate(595.019531 0)"/>
    <use xlink:href="#DejaVuSans-Bold-75" transform="translate(663.720703 0)"/>
    <use xlink:href="#DejaVuSans-Bold-67" transform="translate(734.912109 0)"/>
    <use xlink:href="#DejaVuSans-Bold-68" transform="translate(806.494141 0)"/>
    <use xlink:href="#DejaVuSans-Bold-70" transform="translate(877.685547 0)"/>
    <use xlink:href="#DejaVuSans-Bold-75" transform="translate(949.267578 0)"/>
    <use xlink:href="#DejaVuSans-Bold-74" transform="translate(1020.458984 0)"/>
   </g>
  </g>
 </g>
 <defs>
  <clipPath id="pda6eab5234">
   <rect x="43.06235" y="38.2464" width="804.2736" height="206.0904"/>
  </clipPath>
 </defs>
</svg>
