<?xml version="1.0" encoding="utf-8" standalone="no"?>
<!DOCTYPE svg PUBLIC "-//W3C//DTD SVG 1.1//EN"
  "http://www.w3.org/Graphics/SVG/1.1/DTD/svg11.dtd">
<svg xmlns:xlink="http://www.w3.org/1999/xlink" width="854.741062pt" height="319.595712pt" viewBox="0 0 854.741062 319.595712" xmlns="http://www.w3.org/2000/svg" version="1.1">
 <metadata>
  <rdf:RDF xmlns:dc="http://purl.org/dc/elements/1.1/" xmlns:cc="http://creativecommons.org/ns#" xmlns:rdf="http://www.w3.org/1999/02/22-rdf-syntax-ns#">
   <cc:Work>
    <dc:type rdf:resource="http://purl.org/dc/dcmitype/StillImage"/>
    <dc:date>2026-02-22T20:27:20.951977</dc:date>
    <dc:format>image/svg+xml</dc:format>
    <dc:creator>
     <cc:Agent>
      <dc:title>Matplotlib v3.10.8, https://matplotlib.org/</dc:title>
     </cc:Agent>
    </dc:creator>
   </cc:Work>
  </rdf:RDF>
 </metadata>
 <defs>
  <style type="text/css">*{stroke-linejoin: round; stroke-linecap: butt}</style>
 </defs>
 <g id="figure_1">
  <g id="patch_1">
   <path d="M 0 319.595712 
L 854.741062 319.595712 
L 854.741062 0 
L 0 0 
z
" style="fill: #ffffff"/>
  </g>
  <g id="axes_1">
   <g id="patch_2">
    <path d="M 52.717462 279.6168 
L 847.541062 279.6168 
L 847.541062 37.5264 
L 52.717462 37.5264 
z
" style="fill: #ffffff"/>
   </g>
   <g id="matplotlib.axis_1">
    <g id="xtick_1">
     <g id="line2d_1">
      <path d="M 88.845808 279.6168 
L 88.845808 37.5264 
" clip-path="url(#p904992d4a7)" style="fill: none; stroke: #cccccc; stroke-width: 0.8; stroke-linecap: round"/>
     </g>
     <g id="text_1">
      <!-- 0 -->
      <g style="fill: #262626" transform="translate(85.626383 295.606419) scale(0.1012 -0.1012)">
       <defs>
        <path id="DejaVuSans-30" d="M 2034 4250 
Q 1547 4250 1301 3770 
Q 1056 3291 1056 2328 
Q 1056 1369 1301 889 
Q 1547 409 2034 409 
Q 2525 409 2770 889 
Q 3016 1369 3016 2328 
Q 3016 3291 2770 3770 
Q 2525 4250 2034 4250 
z
M 2034 4750 
Q 2819 4750 3233 4129 
Q 3647 3509 3647 2328 
Q 3647 1150 3233 529 
Q 2819 -91 2034 -91 
Q 1250 -91 836 529 
Q 422 1150 422 2328 
Q 422 3509 836 4129 
Q 1250 4750 2034 4750 
z
" transform="scale(0.015625)"/>
       </defs>
       <use xlink:href="#DejaVuSans-30"/>
      </g>
     </g>
    </g>
    <g id="xtick_2">
     <g id="line2d_2">
      <path d="M 186.226793 279.6168 
L 186.226793 37.5264 
" clip-path="url(#p904992d4a7)" style="fill: none; stroke: #cccccc; stroke-width: 0.8; stroke-linecap: round"/>
     </g>
     <g id="text_2">
      <!-- 100 -->
      <g style="fill: #262626" transform="translate(176.568518 295.606419) scale(0.1012 -0.1012)">
       <defs>
        <path id="DejaVuSans-31" d="M 794 531 
L 1825 531 
L 1825 4091 
L 703 3866 
L 703 4441 
L 1819 4666 
L 2450 4666 
L 2450 531 
L 3481 531 
L 3481 0 
L 794 0 
L 794 531 
z
" transform="scale(0.015625)"/>
       </defs>
       <use xlink:href="#DejaVuSans-31"/>
       <use xlink:href="#DejaVuSans-30" transform="translate(63.623047 0)"/>
       <use xlink:href="#DejaVuSans-30" transform="translate(127.246094 0)"/>
      </g>
     </g>
    </g>
    <g id="xtick_3">
     <g id="line2d_3">
      <path d="M 283.607778 279.6168 
L 283.607778 37.5264 
" clip-path="url(#p904992d4a7)" style="fill: none; stroke: #cccccc; stroke-width: 0.8; stroke-linecap: round"/>
     </g>
     <g id="text_3">
      <!-- 200 -->
      <g style="fill: #262626" transform="translate(273.949503 295.606419) scale(0.1012 -0.1012)">
       <defs>
        <path id="DejaVuSans-32" d="M 1228 531 
L 3431 531 
L 3431 0 
L 469 0 
L 469 531 
Q 828 903 1448 1529 
Q 2069 2156 2228 2338 
Q 2531 2678 2651 2914 
Q 2772 3150 2772 3378 
Q 2772 3750 2511 3984 
Q 2250 4219 1831 4219 
Q 1534 4219 1204 4116 
Q 875 4013 500 3803 
L 500 4441 
Q 881 4594 1212 4672 
Q 1544 4750 1819 4750 
Q 2544 4750 2975 4387 
Q 3406 4025 3406 3419 
Q 3406 3131 3298 2873 
Q 3191 2616 2906 2266 
Q 2828 2175 2409 1742 
Q 1991 1309 1228 531 
z
" transform="scale(0.015625)"/>
       </defs>
       <use xlink:href="#DejaVuSans-32"/>
       <use xlink:href="#DejaVuSans-30" transform="translate(63.623047 0)"/>
       <use xlink:href="#DejaVuSans-30" transform="translate(127.246094 0)"/>
      </g>
     </g>
    </g>
    <g id="xtick_4">
     <g id="line2d_4">
      <path d="M 380.988763 279.6168 
L 380.988763 37.5264 
" clip-path="url(#p904992d4a7)" style="fill: none; stroke: #cccccc; stroke-width: 0.8; stroke-linecap: round"/>
     </g>
     <g id="text_4">
      <!-- 300 -->
      <g style="fill: #262626" transform="translate(371.330488 295.606419) scale(0.1012 -0.1012)">
       <defs>
        <path id="DejaVuSans-33" d="M 2597 2516 
Q 3050 2419 3304 2112 
Q 3559 1806 3559 1356 
Q 3559 666 3084 287 
Q 2609 -91 1734 -91 
Q 1441 -91 1130 -33 
Q 819 25 488 141 
L 488 750 
Q 750 597 1062 519 
Q 1375 441 1716 441 
Q 2309 441 2620 675 
Q 2931 909 2931 1356 
Q 2931 1769 2642 2001 
Q 2353 2234 1838 2234 
L 1294 2234 
L 1294 2753 
L 1863 2753 
Q 2328 2753 2575 2939 
Q 2822 3125 2822 3475 
Q 2822 3834 2567 4026 
Q 2313 4219 1838 4219 
Q 1578 4219 1281 4162 
Q 984 4106 628 3988 
L 628 4550 
Q 988 4650 1302 4700 
Q 1616 4750 1894 4750 
Q 2613 4750 3031 4423 
Q 3450 4097 3450 3541 
Q 3450 3153 3228 2886 
Q 3006 2619 2597 2516 
z
" transform="scale(0.015625)"/>
       </defs>
       <use xlink:href="#DejaVuSans-33"/>
       <use xlink:href="#DejaVuSans-30" transform="translate(63.623047 0)"/>
       <use xlink:href="#DejaVuSans-30" transform="translate(127.246094 0)"/>
      </g>
     </g>
    </g>
    <g id="xtick_5">
     <g id="line2d_5">
      <path d="M 478.369748 279.6168 
L 478.369748 37.5264 
" clip-path="url(#p904992d4a7)" style="fill: none; stroke: #cccccc; stroke-width: 0.8; stroke-linecap: round"/>
     </g>
     <g id="text_5">
      <!-- 400 -->
      <g style="fill: #262626" transform="translate(468.711473 295.606419) scale(0.1012 -0.1012)">
       <defs>
        <path id="DejaVuSans-34" d="M 2419 4116 
L 825 1625 
L 2419 1625 
L 2419 4116 
z
M 2253 4666 
L 3047 4666 
L 3047 1625 
L 3713 1625 
L 3713 1100 
L 3047 1100 
L 3047 0 
L 2419 0 
L 2419 1100 
L 313 1100 
L 313 1709 
L 2253 4666 
z
" transform="scale(0.015625)"/>
       </defs>
       <use xlink:href="#DejaVuSans-34"/>
       <use xlink:href="#DejaVuSans-30" transform="translate(63.623047 0)"/>
       <use xlink:href="#DejaVuSans-30" transform="translate(127.246094 0)"/>
      </g>
     </g>
    </g>
    <g id="xtick_6">
     <g id="line2d_6">
      <path d="M 575.750733 279.6168 
L 575.750733 37.5264 
" clip-path="url(#p904992d4a7)" style="fill: none; stroke: #cccccc; stroke-width: 0.8; stroke-linecap: round"/>
     </g>
     <g id="text_6">
      <!-- 500 -->
      <g style="fill: #262626" transform="translate(566.092458 295.606419) scale(0.1012 -0.1012)">
       <defs>
        <path id="DejaVuSans-35" d="M 691 4666 
L 3169 4666 
L 3169 4134 
L 1269 4134 
L 1269 2991 
Q 1406 3038 1543 3061 
Q 1681 3084 1819 3084 
Q 2600 3084 3056 2656 
Q 3513 2228 3513 1497 
Q 3513 744 3044 326 
Q 2575 -91 1722 -91 
Q 1428 -91 1123 -41 
Q 819 9 494 109 
L 494 744 
Q 775 591 1075 516 
Q 1375 441 1709 441 
Q 2250 441 2565 725 
Q 2881 1009 2881 1497 
Q 2881 1984 2565 2268 
Q 2250 2553 1709 2553 
Q 1456 2553 1204 2497 
Q 953 2441 691 2322 
L 691 4666 
z
" transform="scale(0.015625)"/>
       </defs>
       <use xlink:href="#DejaVuSans-35"/>
       <use xlink:href="#DejaVuSans-30" transform="translate(63.623047 0)"/>
       <use xlink:href="#DejaVuSans-30" transform="translate(127.246094 0)"/>
      </g>
     </g>
    </g>
    <g id="xtick_7">
     <g id="line2d_7">
      <path d="M 673.131718 279.6168 
L 673.131718 37.5264 
" clip-path="url(#p904992d4a7)" style="fill: none; stroke: #cccccc; stroke-width: 0.8; stroke-linecap: round"/>
     </g>
     <g id="text_7">
      <!-- 600 -->
      <g style="fill: #262626" transform="translate(663.473443 295.606419) scale(0.1012 -0.1012)">
       <defs>
        <path id="DejaVuSans-36" d="M 2113 2584 
Q 1688 2584 1439 2293 
Q 1191 2003 1191 1497 
Q 1191 994 1439 701 
Q 1688 409 2113 409 
Q 2538 409 2786 701 
Q 3034 994 3034 1497 
Q 3034 2003 2786 2293 
Q 2538 2584 2113 2584 
z
M 3366 4563 
L 3366 3988 
Q 3128 4100 2886 4159 
Q 2644 4219 2406 4219 
Q 1781 4219 1451 3797 
Q 1122 3375 1075 2522 
Q 1259 2794 1537 2939 
Q 1816 3084 2150 3084 
Q 2853 3084 3261 2657 
Q 3669 2231 3669 1497 
Q 3669 778 3244 343 
Q 2819 -91 2113 -91 
Q 1303 -91 875 529 
Q 447 1150 447 2328 
Q 447 3434 972 4092 
Q 1497 4750 2381 4750 
Q 2619 4750 2861 4703 
Q 3103 4656 3366 4563 
z
" transform="scale(0.015625)"/>
       </defs>
       <use xlink:href="#DejaVuSans-36"/>
       <use xlink:href="#DejaVuSans-30" transform="translate(63.623047 0)"/>
       <use xlink:href="#DejaVuSans-30" transform="translate(127.246094 0)"/>
      </g>
     </g>
    </g>
    <g id="xtick_8">
     <g id="line2d_8">
      <path d="M 770.512703 279.6168 
L 770.512703 37.5264 
" clip-path="url(#p904992d4a7)" style="fill: none; stroke: #cccccc; stroke-width: 0.8; stroke-linecap: round"/>
     </g>
     <g id="text_8">
      <!-- 700 -->
      <g style="fill: #262626" transform="translate(760.854428 295.606419) scale(0.1012 -0.1012)">
       <defs>
        <path id="DejaVuSans-37" d="M 525 4666 
L 3525 4666 
L 3525 4397 
L 1831 0 
L 1172 0 
L 2766 4134 
L 525 4134 
L 525 4666 
z
" transform="scale(0.015625)"/>
       </defs>
       <use xlink:href="#DejaVuSans-37"/>
       <use xlink:href="#DejaVuSans-30" transform="translate(63.623047 0)"/>
       <use xlink:href="#DejaVuSans-30" transform="translate(127.246094 0)"/>
      </g>
     </g>
    </g>
    <g id="text_9">
     <!-- Time (s) -->
     <g style="fill: #262626" transform="translate(427.68615 310.099737) scale(0.1104 -0.1104)">
      <defs>
       <path id="DejaVuSans-54" d="M -19 4666 
L 3928 4666 
L 3928 4134 
L 2272 4134 
L 2272 0 
L 1638 0 
L 1638 4134 
L -19 4134 
L -19 4666 
z
" transform="scale(0.015625)"/>
       <path id="DejaVuSans-69" d="M 603 3500 
L 1178 3500 
L 1178 0 
L 603 0 
L 603 3500 
z
M 603 4863 
L 1178 4863 
L 1178 4134 
L 603 4134 
L 603 4863 
z
" transform="scale(0.015625)"/>
       <path id="DejaVuSans-6d" d="M 3328 2828 
Q 3544 3216 3844 3400 
Q 4144 3584 4550 3584 
Q 5097 3584 5394 3201 
Q 5691 2819 5691 2113 
L 5691 0 
L 5113 0 
L 5113 2094 
Q 5113 2597 4934 2840 
Q 4756 3084 4391 3084 
Q 3944 3084 3684 2787 
Q 3425 2491 3425 1978 
L 3425 0 
L 2847 0 
L 2847 2094 
Q 2847 2600 2669 2842 
Q 2491 3084 2119 3084 
Q 1678 3084 1418 2786 
Q 1159 2488 1159 1978 
L 1159 0 
L 581 0 
L 581 3500 
L 1159 3500 
L 1159 2956 
Q 1356 3278 1631 3431 
Q 1906 3584 2284 3584 
Q 2666 3584 2933 3390 
Q 3200 3197 3328 2828 
z
" transform="scale(0.015625)"/>
       <path id="DejaVuSans-65" d="M 3597 1894 
L 3597 1613 
L 953 1613 
Q 991 1019 1311 708 
Q 1631 397 2203 397 
Q 2534 397 2845 478 
Q 3156 559 3463 722 
L 3463 178 
Q 3153 47 2828 -22 
Q 2503 -91 2169 -91 
Q 1331 -91 842 396 
Q 353 884 353 1716 
Q 353 2575 817 3079 
Q 1281 3584 2069 3584 
Q 2775 3584 3186 3129 
Q 3597 2675 3597 1894 
z
M 3022 2063 
Q 3016 2534 2758 2815 
Q 2500 3097 2075 3097 
Q 1594 3097 1305 2825 
Q 1016 2553 972 2059 
L 3022 2063 
z
" transform="scale(0.015625)"/>
       <path id="DejaVuSans-20" transform="scale(0.015625)"/>
       <path id="DejaVuSans-28" d="M 1984 4856 
Q 1566 4138 1362 3434 
Q 1159 2731 1159 2009 
Q 1159 1288 1364 580 
Q 1569 -128 1984 -844 
L 1484 -844 
Q 1016 -109 783 600 
Q 550 1309 550 2009 
Q 550 2706 781 3412 
Q 1013 4119 1484 4856 
L 1984 4856 
z
" transform="scale(0.015625)"/>
       <path id="DejaVuSans-73" d="M 2834 3397 
L 2834 2853 
Q 2591 2978 2328 3040 
Q 2066 3103 1784 3103 
Q 1356 3103 1142 2972 
Q 928 2841 928 2578 
Q 928 2378 1081 2264 
Q 1234 2150 1697 2047 
L 1894 2003 
Q 2506 1872 2764 1633 
Q 3022 1394 3022 966 
Q 3022 478 2636 193 
Q 2250 -91 1575 -91 
Q 1294 -91 989 -36 
Q 684 19 347 128 
L 347 722 
Q 666 556 975 473 
Q 1284 391 1588 391 
Q 1994 391 2212 530 
Q 2431 669 2431 922 
Q 2431 1156 2273 1281 
Q 2116 1406 1581 1522 
L 1381 1569 
Q 847 1681 609 1914 
Q 372 2147 372 2553 
Q 372 3047 722 3315 
Q 1072 3584 1716 3584 
Q 2034 3584 2315 3537 
Q 2597 3491 2834 3397 
z
" transform="scale(0.015625)"/>
       <path id="DejaVuSans-29" d="M 513 4856 
L 1013 4856 
Q 1481 4119 1714 3412 
Q 1947 2706 1947 2009 
Q 1947 1309 1714 600 
Q 1481 -109 1013 -844 
L 513 -844 
Q 928 -128 1133 580 
Q 1338 1288 1338 2009 
Q 1338 2731 1133 3434 
Q 928 4138 513 4856 
z
" transform="scale(0.015625)"/>
      </defs>
      <use xlink:href="#DejaVuSans-54"/>
      <use xlink:href="#DejaVuSans-69" transform="translate(57.958984 0)"/>
      <use xlink:href="#DejaVuSans-6d" transform="translate(85.742188 0)"/>
      <use xlink:href="#DejaVuSans-65" transform="translate(183.154297 0)"/>
      <use xlink:href="#DejaVuSans-20" transform="translate(244.677734 0)"/>
      <use xlink:href="#DejaVuSans-28" transform="translate(276.464844 0)"/>
      <use xlink:href="#DejaVuSans-73" transform="translate(315.478516 0)"/>
      <use xlink:href="#DejaVuSans-29" transform="translate(367.578125 0)"/>
     </g>
    </g>
   </g>
   <g id="matplotlib.axis_2">
    <g id="ytick_1">
     <g id="line2d_9">
      <path d="M 52.717462 278.10741 
L 847.541062 278.10741 
" clip-path="url(#p904992d4a7)" style="fill: none; stroke: #cccccc; stroke-width: 0.8; stroke-linecap: round"/>
     </g>
     <g id="text_10">
      <!-- 0.01 -->
      <g style="fill: #262626" transform="translate(21.88465 281.952219) scale(0.1012 -0.1012)">
       <defs>
        <path id="DejaVuSans-2e" d="M 684 794 
L 1344 794 
L 1344 0 
L 684 0 
L 684 794 
z
" transform="scale(0.015625)"/>
       </defs>
       <use xlink:href="#DejaVuSans-30"/>
       <use xlink:href="#DejaVuSans-2e" transform="translate(63.623047 0)"/>
       <use xlink:href="#DejaVuSans-30" transform="translate(95.410156 0)"/>
       <use xlink:href="#DejaVuSans-31" transform="translate(159.033203 0)"/>
      </g>
     </g>
    </g>
    <g id="ytick_2">
     <g id="line2d_10">
      <path d="M 52.717462 224.188102 
L 847.541062 224.188102 
" clip-path="url(#p904992d4a7)" style="fill: none; stroke: #cccccc; stroke-width: 0.8; stroke-linecap: round"/>
     </g>
     <g id="text_11">
      <!-- 0.10 -->
      <g style="fill: #262626" transform="translate(21.88465 228.032912) scale(0.1012 -0.1012)">
       <use xlink:href="#DejaVuSans-30"/>
       <use xlink:href="#DejaVuSans-2e" transform="translate(63.623047 0)"/>
       <use xlink:href="#DejaVuSans-31" transform="translate(95.410156 0)"/>
       <use xlink:href="#DejaVuSans-30" transform="translate(159.033203 0)"/>
      </g>
     </g>
    </g>
    <g id="ytick_3">
     <g id="line2d_11">
      <path d="M 52.717462 170.268795 
L 847.541062 170.268795 
" clip-path="url(#p904992d4a7)" style="fill: none; stroke: #cccccc; stroke-width: 0.8; stroke-linecap: round"/>
     </g>
     <g id="text_12">
      <!-- 1 -->
      <g style="fill: #262626" transform="translate(37.978612 174.113604) scale(0.1012 -0.1012)">
       <use xlink:href="#DejaVuSans-31"/>
      </g>
     </g>
    </g>
    <g id="ytick_4">
     <g id="line2d_12">
      <path d="M 52.717462 116.349488 
L 847.541062 116.349488 
" clip-path="url(#p904992d4a7)" style="fill: none; stroke: #cccccc; stroke-width: 0.8; stroke-linecap: round"/>
     </g>
     <g id="text_13">
      <!-- 10 -->
      <g style="fill: #262626" transform="translate(31.539763 120.194297) scale(0.1012 -0.1012)">
       <use xlink:href="#DejaVuSans-31"/>
       <use xlink:href="#DejaVuSans-30" transform="translate(63.623047 0)"/>
      </g>
     </g>
    </g>
    <g id="ytick_5">
     <g id="line2d_13">
      <path d="M 52.717462 62.43018 
L 847.541062 62.43018 
" clip-path="url(#p904992d4a7)" style="fill: none; stroke: #cccccc; stroke-width: 0.8; stroke-linecap: round"/>
     </g>
     <g id="text_14">
      <!-- 100 -->
      <g style="fill: #262626" transform="translate(25.100912 66.27499) scale(0.1012 -0.1012)">
       <use xlink:href="#DejaVuSans-31"/>
       <use xlink:href="#DejaVuSans-30" transform="translate(63.623047 0)"/>
       <use xlink:href="#DejaVuSans-30" transform="translate(127.246094 0)"/>
      </g>
     </g>
    </g>
    <g id="ytick_6"/>
    <g id="ytick_7"/>
    <g id="ytick_8"/>
    <g id="ytick_9"/>
    <g id="ytick_10"/>
    <g id="ytick_11"/>
    <g id="ytick_12"/>
    <g id="ytick_13"/>
    <g id="ytick_14"/>
    <g id="ytick_15"/>
    <g id="ytick_16"/>
    <g id="ytick_17"/>
    <g id="ytick_18"/>
    <g id="ytick_19"/>
    <g id="ytick_20"/>
    <g id="ytick_21"/>
    <g id="ytick_22"/>
    <g id="ytick_23"/>
    <g id="ytick_24"/>
    <g id="ytick_25"/>
    <g id="ytick_26"/>
    <g id="ytick_27"/>
    <g id="ytick_28"/>
    <g id="ytick_29"/>
    <g id="ytick_30"/>
    <g id="ytick_31"/>
    <g id="ytick_32"/>
    <g id="ytick_33"/>
    <g id="ytick_34"/>
    <g id="ytick_35"/>
    <g id="ytick_36"/>
    <g id="ytick_37"/>
    <g id="ytick_38"/>
    <g id="text_15">
     <!-- Jitter (ms) -->
     <g style="fill: #262626" transform="translate(15.588675 186.041362) rotate(-90) scale(0.1104 -0.1104)">
      <defs>
       <path id="DejaVuSans-4a" d="M 628 4666 
L 1259 4666 
L 1259 325 
Q 1259 -519 939 -900 
Q 619 -1281 -91 -1281 
L -331 -1281 
L -331 -750 
L -134 -750 
Q 284 -750 456 -515 
Q 628 -281 628 325 
L 628 4666 
z
" transform="scale(0.015625)"/>
       <path id="DejaVuSans-74" d="M 1172 4494 
L 1172 3500 
L 2356 3500 
L 2356 3053 
L 1172 3053 
L 1172 1153 
Q 1172 725 1289 603 
Q 1406 481 1766 481 
L 2356 481 
L 2356 0 
L 1766 0 
Q 1100 0 847 248 
Q 594 497 594 1153 
L 594 3053 
L 172 3053 
L 172 3500 
L 594 3500 
L 594 4494 
L 1172 4494 
z
" transform="scale(0.015625)"/>
       <path id="DejaVuSans-72" d="M 2631 2963 
Q 2534 3019 2420 3045 
Q 2306 3072 2169 3072 
Q 1681 3072 1420 2755 
Q 1159 2438 1159 1844 
L 1159 0 
L 581 0 
L 581 3500 
L 1159 3500 
L 1159 2956 
Q 1341 3275 1631 3429 
Q 1922 3584 2338 3584 
Q 2397 3584 2469 3576 
Q 2541 3569 2628 3553 
L 2631 2963 
z
" transform="scale(0.015625)"/>
      </defs>
      <use xlink:href="#DejaVuSans-4a"/>
      <use xlink:href="#DejaVuSans-69" transform="translate(29.492188 0)"/>
      <use xlink:href="#DejaVuSans-74" transform="translate(57.275391 0)"/>
      <use xlink:href="#DejaVuSans-74" transform="translate(96.484375 0)"/>
      <use xlink:href="#DejaVuSans-65" transform="translate(135.693359 0)"/>
      <use xlink:href="#DejaVuSans-72" transform="translate(197.216797 0)"/>
      <use xlink:href="#DejaVuSans-20" transform="translate(238.330078 0)"/>
      <use xlink:href="#DejaVuSans-28" transform="translate(270.117188 0)"/>
      <use xlink:href="#DejaVuSans-6d" transform="translate(309.130859 0)"/>
      <use xlink:href="#DejaVuSans-73" transform="translate(406.542969 0)"/>
      <use xlink:href="#DejaVuSans-29" transform="translate(458.642578 0)"/>
     </g>
    </g>
   </g>
   <g id="line2d_14">
    <path d="M 88.845808 240.419431 
L 89.819618 241.868359 
L 90.793428 234.275685 
L 91.767238 250.870073 
L 92.741047 248.111964 
L 93.714857 238.187566 
L 94.688667 238.617245 
L 95.662477 248.111964 
L 96.636287 248.111964 
L 97.610097 235.382199 
L 98.583906 245.066529 
L 99.557716 245.066529 
L 100.531526 243.951229 
L 101.505336 245.066529 
L 102.479146 243.412887 
L 103.452956 248.771638 
L 104.426766 239.054956 
L 105.400575 239.955716 
L 107.348195 239.955716 
L 108.322005 238.187566 
L 109.295815 242.886643 
L 110.269625 241.375354 
L 111.243435 230.308444 
L 112.217244 238.187566 
L 113.191054 249.450435 
L 114.164864 250.870073 
L 115.138674 241.868359 
L 116.112484 236.543603 
L 117.086294 237.351161 
L 118.060103 243.951229 
L 119.033913 237.351161 
L 120.007723 232.540309 
L 120.981533 239.501005 
L 121.955343 236.543603 
L 122.929153 230.614551 
M 129.745822 60.359809 
L 130.719632 232.540309 
L 131.693441 239.054956 
L 132.667251 234.638744 
L 133.641061 237.765629 
L 135.588681 251.613527 
L 136.562491 234.638744 
L 137.5363 239.054956 
L 138.51011 242.371966 
L 139.48392 243.951229 
L 140.45773 245.066529 
L 141.43154 245.644752 
L 142.40535 241.375354 
L 143.37916 231.239037 
L 144.352969 237.765629 
L 145.326779 237.351161 
L 146.300589 243.412887 
L 147.274399 243.951229 
L 148.248209 231.557639 
L 149.222019 248.111964 
L 150.195829 240.892515 
L 151.169638 232.208149 
L 152.143448 238.617245 
L 153.117258 248.111964 
L 154.091068 234.275685 
L 155.064878 234.275685 
L 156.038688 236.943901 
L 157.012497 231.880635 
L 157.986307 221.119832 
L 158.960117 48.530509 
L 160.907737 260.733568 
L 161.881547 261.876081 
L 162.855357 264.343293 
L 163.829166 264.343293 
L 165.776786 253.17523 
L 166.750596 255.732334 
L 168.698216 259.644216 
L 169.672026 261.876081 
L 170.645835 260.733568 
L 171.619645 267.101402 
L 172.593455 254.848574 
L 173.567265 260.733568 
L 174.541075 268.612691 
L 175.514885 255.732334 
L 176.488695 257.606683 
L 177.462504 263.077209 
L 178.436314 258.603295 
L 179.410124 257.606683 
L 180.383934 263.077209 
L 181.357744 260.733568 
L 182.331554 263.077209 
L 183.305363 260.733568 
L 184.279173 257.606683 
L 185.252983 252.381362 
L 186.226793 258.603295 
L 187.200603 263.077209 
L 188.174413 264.343293 
L 189.148223 261.876081 
L 191.095842 259.644216 
L 192.069652 255.732334 
M 196.938701 239.501005 
L 198.886321 242.371966 
L 199.860131 241.375354 
L 200.833941 236.150033 
L 201.807751 247.470366 
L 202.78156 247.470366 
L 203.75537 248.771638 
L 204.72918 245.644752 
L 205.70299 244.50224 
L 206.6768 250.870073 
L 207.65061 251.613527 
L 208.62442 246.237615 
L 209.598229 246.237615 
L 210.572039 248.771638 
L 211.545849 242.886643 
L 212.519659 241.375354 
L 213.493469 245.644752 
L 214.467279 243.951229 
L 215.441089 248.111964 
L 216.414898 244.50224 
L 217.388708 251.613527 
L 218.362518 246.84588 
L 220.310138 244.50224 
L 221.283948 227.993785 
L 222.257757 245.066529 
L 223.231567 242.371966 
L 224.205377 246.237615 
L 225.179187 240.892515 
L 226.152997 241.375354 
L 227.126807 236.543603 
M 231.022046 61.803802 
L 231.995856 254.848574 
L 232.969666 257.606683 
L 233.943476 258.603295 
L 234.917286 248.111964 
L 235.891095 243.412887 
L 236.864905 249.450435 
L 238.812525 252.381362 
L 239.786335 254.848574 
L 240.760145 250.149497 
L 241.733954 246.237615 
L 242.707764 250.870073 
L 243.681574 251.613527 
L 244.655384 250.870073 
L 245.629194 263.077209 
L 246.603004 253.17523 
L 247.576814 251.613527 
L 248.550623 253.996958 
L 249.524433 245.644752 
L 250.498243 263.077209 
L 251.472053 259.644216 
L 252.445863 260.733568 
L 253.419673 255.732334 
L 254.393483 253.996958 
L 255.367292 254.848574 
L 256.341102 260.733568 
L 257.314912 253.17523 
L 258.288722 252.381362 
L 259.262532 253.17523 
L 260.236342 256.65076 
L 261.210151 256.65076 
M 263.157771 55.86514 
L 265.105391 237.351161 
L 266.079201 254.848574 
L 267.053011 248.111964 
L 268.02682 238.617245 
L 269.00063 245.644752 
L 269.97444 242.886643 
L 270.94825 242.886643 
L 271.92206 245.644752 
L 272.89587 243.412887 
L 273.86968 247.470366 
L 274.843489 235.007521 
L 275.817299 243.412887 
L 276.791109 241.375354 
L 277.764919 248.111964 
L 278.738729 241.868359 
L 279.712539 243.951229 
L 280.686349 244.50224 
L 281.660158 242.886643 
L 282.633968 243.951229 
L 283.607778 243.951229 
L 284.581588 248.111964 
L 285.555398 244.50224 
L 286.529208 247.470366 
L 287.503017 238.617245 
L 288.476827 248.771638 
L 289.450637 247.470366 
L 290.424447 244.50224 
L 291.398257 242.886643 
L 292.372067 245.066529 
L 293.345877 245.066529 
L 294.319686 253.996958 
L 295.293496 245.644752 
L 296.267306 227.993785 
M 300.162546 60.985431 
L 301.136355 252.381362 
L 302.110165 255.732334 
L 303.083975 254.848574 
L 304.057785 258.603295 
L 305.031595 232.877248 
L 306.005405 250.870073 
L 306.979214 255.732334 
L 307.953024 263.077209 
L 308.926834 261.876081 
L 309.900644 253.17523 
L 310.874454 261.876081 
L 311.848264 259.644216 
L 312.822074 242.886643 
L 313.795883 253.17523 
L 314.769693 252.381362 
L 315.743503 254.848574 
L 316.717313 251.613527 
L 317.691123 250.870073 
L 318.664933 249.450435 
L 319.638743 252.381362 
L 320.612552 253.996958 
L 321.586362 260.733568 
L 322.560172 265.681763 
L 323.533982 267.101402 
L 324.507792 248.771638 
L 325.481602 254.848574 
L 326.455411 255.732334 
L 327.429221 259.644216 
L 328.403031 252.381362 
L 329.376841 254.848574 
L 330.350651 250.149497 
M 335.2197 236.150033 
L 336.19351 247.470366 
L 337.16732 243.412887 
L 338.14113 241.868359 
L 339.11494 237.765629 
L 340.088749 252.381362 
L 341.062559 249.450435 
L 342.036369 242.886643 
L 343.010179 246.237615 
L 343.983989 248.771638 
L 344.957799 246.84588 
L 345.931608 250.149497 
L 346.905418 250.149497 
L 347.879228 242.371966 
L 348.853038 242.886643 
L 349.826848 248.771638 
L 350.800658 239.955716 
L 351.774468 250.870073 
L 352.748277 248.771638 
L 353.722087 245.644752 
L 354.695897 247.470366 
L 355.669707 248.771638 
L 356.643517 245.644752 
L 357.617327 243.412887 
L 358.591137 241.868359 
L 359.564946 247.470366 
L 360.538756 248.771638 
L 361.512566 245.644752 
L 362.486376 247.470366 
L 363.460186 253.996958 
L 364.433996 239.955716 
L 365.407806 232.540309 
M 369.303045 59.072434 
L 370.276855 252.381362 
L 372.224474 252.381362 
L 373.198284 250.870073 
L 375.145904 255.732334 
L 376.119714 258.603295 
L 377.093524 249.450435 
L 378.067334 251.613527 
L 379.041143 247.470366 
L 380.014953 243.951229 
L 380.988763 245.066529 
L 381.962573 254.848574 
L 382.936383 255.732334 
L 383.910193 250.870073 
L 384.884003 247.470366 
L 385.857812 251.613527 
L 386.831622 252.381362 
L 387.805432 253.996958 
L 388.779242 252.381362 
L 389.753052 257.606683 
L 390.726862 255.732334 
L 391.700671 256.65076 
L 392.674481 263.077209 
L 393.648291 252.381362 
L 394.622101 253.17523 
L 395.595911 247.470366 
L 396.569721 255.732334 
L 397.543531 250.149497 
L 398.51734 246.84588 
L 399.49115 253.996958 
M 406.307819 53.684799 
L 407.281629 240.892515 
L 408.255439 241.375354 
L 409.229249 238.617245 
L 410.203059 243.951229 
L 411.176868 227.993785 
L 412.150678 229.413423 
L 413.124488 232.540309 
L 414.098298 228.270911 
L 415.072108 234.638744 
L 416.045918 245.066529 
L 417.019728 224.42345 
L 417.993537 235.007521 
L 418.967347 233.566028 
L 419.941157 234.638744 
L 420.914967 237.765629 
L 421.888777 232.877248 
L 422.862587 235.007521 
L 423.836397 232.877248 
L 424.810206 242.886643 
L 425.784016 233.219106 
L 426.757826 232.540309 
L 427.731636 232.877248 
L 428.705446 235.762969 
L 429.679256 245.066529 
L 430.653065 239.054956 
L 431.626875 231.239037 
L 432.600685 240.892515 
L 433.574495 240.892515 
L 434.548305 234.638744 
M 438.443544 57.856014 
L 439.417354 253.17523 
L 440.391164 264.343293 
L 441.364974 267.101402 
L 442.338784 259.644216 
L 443.312594 244.50224 
L 444.286403 254.848574 
L 445.260213 252.381362 
L 446.234023 264.343293 
L 447.207833 257.606683 
L 448.181643 254.848574 
L 449.155453 251.613527 
L 450.129262 256.65076 
L 451.103072 258.603295 
L 452.076882 255.732334 
L 453.050692 261.876081 
L 454.024502 265.681763 
L 454.998312 261.876081 
L 455.972122 253.996958 
L 456.945931 250.870073 
L 457.919741 254.848574 
L 458.893551 267.101402 
L 459.867361 259.644216 
L 460.841171 253.17523 
L 461.814981 254.848574 
L 462.788791 252.381362 
L 463.7626 255.732334 
L 464.73641 255.732334 
L 465.71022 248.771638 
L 466.68403 257.606683 
L 467.65784 260.733568 
L 468.63165 246.237615 
M 470.579269 52.837161 
L 472.526889 227.449182 
L 473.500699 229.707979 
L 474.474509 243.412887 
L 475.448319 240.892515 
L 476.422128 235.382199 
L 477.395938 236.943901 
L 478.369748 245.644752 
L 479.343558 242.371966 
L 480.317368 241.375354 
L 481.291178 243.951229 
L 482.264988 246.84588 
L 483.238797 239.501005 
L 484.212607 248.111964 
L 485.186417 242.886643 
L 486.160227 241.868359 
L 487.134037 244.50224 
L 488.107847 232.540309 
L 489.081657 240.892515 
L 490.055466 240.892515 
L 491.029276 248.111964 
L 492.003086 238.187566 
L 492.976896 236.943901 
L 493.950706 236.943901 
L 494.924516 236.150033 
L 495.898325 240.892515 
L 496.872135 233.918168 
L 497.845945 245.066529 
L 498.819755 248.111964 
L 499.793565 237.351161 
L 500.767375 247.470366 
L 501.741185 243.951229 
L 502.714994 242.371966 
L 503.688804 241.868359 
M 507.584044 57.485666 
L 508.557854 259.644216 
L 509.531663 257.606683 
L 510.505473 245.644752 
L 511.479283 245.644752 
L 512.453093 248.111964 
L 513.426903 237.351161 
L 514.400713 254.848574 
L 515.374522 250.870073 
L 516.348332 256.65076 
L 517.322142 245.644752 
L 518.295952 242.371966 
L 519.269762 242.886643 
L 520.243572 250.870073 
L 521.217382 257.606683 
L 522.191191 252.381362 
L 523.165001 241.375354 
L 524.138811 245.066529 
L 525.112621 239.054956 
L 526.086431 244.50224 
L 527.060241 251.613527 
L 528.034051 252.381362 
L 529.00786 258.603295 
L 529.98167 249.450435 
L 531.92929 245.644752 
L 532.9031 247.470366 
L 533.87691 252.381362 
L 534.850719 248.771638 
L 535.824529 251.613527 
L 536.798339 248.111964 
L 537.772149 250.870073 
M 542.641198 240.892515 
L 543.615008 248.771638 
L 544.588818 239.054956 
L 545.562628 248.111964 
L 546.536438 240.892515 
L 547.510248 237.765629 
L 548.484057 245.066529 
L 549.457867 244.50224 
L 550.431677 242.886643 
L 551.405487 236.543603 
L 552.379297 246.237615 
L 553.353107 241.868359 
L 554.326917 245.644752 
L 555.300726 245.644752 
L 556.274536 246.237615 
L 557.248346 245.644752 
L 558.222156 246.237615 
L 559.195966 250.870073 
L 560.169776 248.771638 
L 561.143585 237.351161 
L 562.117395 250.870073 
L 563.091205 244.50224 
L 564.065015 243.412887 
L 565.038825 251.613527 
L 566.012635 250.870073 
L 566.986445 249.450435 
L 567.960254 243.951229 
L 568.934064 246.84588 
L 569.907874 248.111964 
L 570.881684 250.149497 
L 571.855494 240.419431 
L 572.829304 238.617245 
M 576.724543 60.636019 
L 577.698353 244.50224 
L 578.672163 246.84588 
L 579.645973 251.613527 
L 580.619782 250.870073 
L 581.593592 261.876081 
L 582.567402 257.606683 
L 583.541212 259.644216 
L 584.515022 249.450435 
L 585.488832 253.17523 
L 586.462642 249.450435 
L 587.436451 261.876081 
L 588.410261 255.732334 
L 589.384071 260.733568 
L 590.357881 250.149497 
L 591.331691 267.101402 
L 592.305501 258.603295 
L 593.279311 259.644216 
L 594.25312 259.644216 
L 596.20074 268.612691 
L 597.17455 263.077209 
L 598.14836 258.603295 
L 599.12217 258.603295 
L 600.095979 257.606683 
L 602.043599 261.876081 
L 603.017409 260.733568 
L 603.991219 261.876081 
L 604.965029 255.732334 
L 605.938839 258.603295 
L 606.912648 244.50224 
M 613.729317 56.335841 
L 614.703127 238.187566 
L 615.676937 243.412887 
L 616.650747 241.375354 
L 617.624557 240.419431 
L 618.598367 241.375354 
L 619.572176 248.111964 
L 620.545986 234.275685 
L 621.519796 240.892515 
L 622.493606 237.765629 
L 623.467416 232.208149 
L 624.441226 241.375354 
L 625.415036 236.943901 
L 626.388845 230.006287 
L 627.362655 242.886643 
L 628.336465 243.951229 
L 629.310275 242.371966 
L 630.284085 242.886643 
L 631.257895 239.501005 
L 632.231705 241.375354 
L 633.205514 240.892515 
L 634.179324 243.412887 
L 635.153134 228.8352 
L 636.126944 244.50224 
L 637.100754 240.892515 
L 638.074564 239.054956 
L 639.048374 236.543603 
L 640.022183 241.868359 
L 640.995993 246.237615 
L 641.969803 239.054956 
M 645.865042 60.772409 
L 646.838852 255.732334 
L 647.812662 249.450435 
L 648.786472 248.111964 
L 649.760282 242.371966 
L 650.734092 248.771638 
L 651.707902 251.613527 
L 652.681711 245.066529 
L 653.655521 250.149497 
L 654.629331 248.111964 
L 655.603141 248.111964 
L 656.576951 245.066529 
L 657.550761 248.111964 
L 658.524571 234.638744 
L 659.49838 240.892515 
L 660.47219 258.603295 
L 661.446 250.149497 
L 662.41981 246.237615 
L 663.39362 246.84588 
L 665.341239 254.848574 
L 666.315049 246.237615 
L 667.288859 263.077209 
L 668.262669 249.450435 
L 669.236479 253.17523 
L 670.210289 251.613527 
L 671.184099 260.733568 
L 672.157908 257.606683 
L 673.131718 259.644216 
L 674.105528 248.771638 
L 675.079338 249.450435 
L 676.053148 246.237615 
M 680.922197 239.054956 
L 681.896007 244.50224 
L 682.869817 233.918168 
L 683.843627 242.371966 
L 684.817436 239.054956 
L 685.791246 242.886643 
L 686.765056 239.955716 
L 687.738866 239.054956 
L 688.712676 232.877248 
L 689.686486 239.501005 
L 690.660296 231.880635 
L 691.634105 249.450435 
L 692.607915 240.419431 
L 693.581725 241.868359 
L 694.555535 242.886643 
L 695.529345 246.84588 
L 697.476965 240.892515 
L 698.450774 243.412887 
L 699.424584 239.955716 
L 700.398394 246.237615 
L 701.372204 238.617245 
L 702.346014 235.007521 
L 703.319824 244.50224 
L 704.293633 243.412887 
L 705.267443 245.644752 
L 706.241253 230.006287 
L 707.215063 237.765629 
L 708.188873 242.371966 
L 709.162683 233.566028 
L 710.136493 233.219106 
M 712.084112 50.955436 
L 714.031732 236.943901 
L 715.005542 249.450435 
L 715.979352 240.419431 
L 716.953162 253.17523 
L 717.926971 246.84588 
L 718.900781 248.771638 
L 719.874591 255.732334 
L 720.848401 255.732334 
L 721.822211 257.606683 
L 722.796021 247.470366 
L 723.76983 248.771638 
L 724.74364 248.771638 
L 725.71745 255.732334 
L 726.69126 252.381362 
L 727.66507 254.848574 
L 728.63888 250.870073 
L 729.61269 250.149497 
L 730.586499 252.381362 
L 731.560309 258.603295 
L 732.534119 263.077209 
L 734.481739 260.733568 
L 735.455549 252.381362 
L 736.429359 248.771638 
L 737.403168 264.343293 
L 738.376978 252.381362 
L 739.350788 250.870073 
L 740.324598 248.771638 
L 741.298408 250.149497 
L 742.272218 256.65076 
L 743.246028 250.149497 
L 744.219837 252.381362 
L 745.193647 250.870073 
M 749.088887 61.902272 
L 750.062696 247.470366 
L 751.036506 250.149497 
L 752.010316 247.470366 
L 752.984126 241.868359 
L 753.957936 250.149497 
L 754.931746 254.848574 
L 755.905556 252.381362 
L 756.879365 250.870073 
L 757.853175 246.237615 
L 758.826985 242.886643 
L 759.800795 248.111964 
L 760.774605 243.951229 
L 761.748415 256.65076 
L 762.722225 258.603295 
L 763.696034 250.870073 
L 764.669844 246.237615 
L 765.643654 251.613527 
L 766.617464 250.870073 
L 767.591274 245.066529 
L 768.565084 253.996958 
L 769.538893 252.381362 
L 770.512703 245.066529 
L 771.486513 261.876081 
L 772.460323 238.617245 
L 773.434133 237.765629 
L 774.407943 245.644752 
L 775.381753 245.644752 
L 776.355562 249.450435 
L 777.329372 251.613527 
L 778.303182 235.762969 
L 779.276992 239.955716 
M 784.146041 242.886643 
L 785.119851 248.771638 
L 786.093661 248.771638 
L 787.067471 253.17523 
L 788.041281 254.848574 
L 789.01509 249.450435 
L 789.9889 254.848574 
L 790.96271 253.17523 
L 791.93652 255.732334 
L 792.91033 256.65076 
L 793.88414 250.149497 
L 794.85795 256.65076 
L 795.831759 252.381362 
L 796.805569 253.996958 
L 797.779379 259.644216 
L 798.753189 256.65076 
L 799.726999 251.613527 
L 800.700809 233.918168 
L 801.674619 256.65076 
L 802.648428 256.65076 
L 803.622238 263.077209 
L 804.596048 247.470366 
L 805.569858 253.17523 
L 806.543668 259.644216 
L 807.517478 252.381362 
L 808.491287 257.606683 
L 809.465097 250.870073 
L 810.438907 253.17523 
L 811.412717 256.65076 
L 811.412717 256.65076 
" clip-path="url(#p904992d4a7)" style="fill: none; stroke: #7b1fa2; stroke-opacity: 0.85; stroke-width: 1.2; stroke-linecap: round"/>
   </g>
   <g id="line2d_15">
    <path d="M 122.097519 279.6168 
L 122.097519 37.5264 
" clip-path="url(#p904992d4a7)" style="fill: none; stroke-dasharray: 2.96,1.28; stroke-dashoffset: 0; stroke: #d32f2f; stroke-opacity: 0.5; stroke-width: 0.8"/>
   </g>
   <g id="line2d_16">
    <path d="M 156.71159 279.6168 
L 156.71159 37.5264 
" clip-path="url(#p904992d4a7)" style="fill: none; stroke-dasharray: 2.96,1.28; stroke-dashoffset: 0; stroke: #d32f2f; stroke-opacity: 0.5; stroke-width: 0.8"/>
   </g>
   <g id="line2d_17">
    <path d="M 191.596381 279.6168 
L 191.596381 37.5264 
" clip-path="url(#p904992d4a7)" style="fill: none; stroke-dasharray: 2.96,1.28; stroke-dashoffset: 0; stroke: #d32f2f; stroke-opacity: 0.5; stroke-width: 0.8"/>
   </g>
   <g id="line2d_18">
    <path d="M 226.038087 279.6168 
L 226.038087 37.5264 
" clip-path="url(#p904992d4a7)" style="fill: none; stroke-dasharray: 2.96,1.28; stroke-dashoffset: 0; stroke: #d32f2f; stroke-opacity: 0.5; stroke-width: 0.8"/>
   </g>
   <g id="line2d_19">
    <path d="M 260.751487 279.6168 
L 260.751487 37.5264 
" clip-path="url(#p904992d4a7)" style="fill: none; stroke-dasharray: 2.96,1.28; stroke-dashoffset: 0; stroke: #d32f2f; stroke-opacity: 0.5; stroke-width: 0.8"/>
   </g>
   <g id="line2d_20">
    <path d="M 295.209749 279.6168 
L 295.209749 37.5264 
" clip-path="url(#p904992d4a7)" style="fill: none; stroke-dasharray: 2.96,1.28; stroke-dashoffset: 0; stroke: #d32f2f; stroke-opacity: 0.5; stroke-width: 0.8"/>
   </g>
   <g id="line2d_21">
    <path d="M 329.733255 279.6168 
L 329.733255 37.5264 
" clip-path="url(#p904992d4a7)" style="fill: none; stroke-dasharray: 2.96,1.28; stroke-dashoffset: 0; stroke: #d32f2f; stroke-opacity: 0.5; stroke-width: 0.8"/>
   </g>
   <g id="line2d_22">
    <path d="M 364.319086 279.6168 
L 364.319086 37.5264 
" clip-path="url(#p904992d4a7)" style="fill: none; stroke-dasharray: 2.96,1.28; stroke-dashoffset: 0; stroke: #d32f2f; stroke-opacity: 0.5; stroke-width: 0.8"/>
   </g>
   <g id="line2d_23">
    <path d="M 398.876676 279.6168 
L 398.876676 37.5264 
" clip-path="url(#p904992d4a7)" style="fill: none; stroke-dasharray: 2.96,1.28; stroke-dashoffset: 0; stroke: #d32f2f; stroke-opacity: 0.5; stroke-width: 0.8"/>
   </g>
   <g id="line2d_24">
    <path d="M 433.725436 279.6168 
L 433.725436 37.5264 
" clip-path="url(#p904992d4a7)" style="fill: none; stroke-dasharray: 2.96,1.28; stroke-dashoffset: 0; stroke: #d32f2f; stroke-opacity: 0.5; stroke-width: 0.8"/>
   </g>
   <g id="line2d_25">
    <path d="M 468.354114 279.6168 
L 468.354114 37.5264 
" clip-path="url(#p904992d4a7)" style="fill: none; stroke-dasharray: 2.96,1.28; stroke-dashoffset: 0; stroke: #d32f2f; stroke-opacity: 0.5; stroke-width: 0.8"/>
   </g>
   <g id="line2d_26">
    <path d="M 502.871778 279.6168 
L 502.871778 37.5264 
" clip-path="url(#p904992d4a7)" style="fill: none; stroke-dasharray: 2.96,1.28; stroke-dashoffset: 0; stroke: #d32f2f; stroke-opacity: 0.5; stroke-width: 0.8"/>
   </g>
   <g id="line2d_27">
    <path d="M 537.344647 279.6168 
L 537.344647 37.5264 
" clip-path="url(#p904992d4a7)" style="fill: none; stroke-dasharray: 2.96,1.28; stroke-dashoffset: 0; stroke: #d32f2f; stroke-opacity: 0.5; stroke-width: 0.8"/>
   </g>
   <g id="line2d_28">
    <path d="M 571.745453 279.6168 
L 571.745453 37.5264 
" clip-path="url(#p904992d4a7)" style="fill: none; stroke-dasharray: 2.96,1.28; stroke-dashoffset: 0; stroke: #d32f2f; stroke-opacity: 0.5; stroke-width: 0.8"/>
   </g>
   <g id="line2d_29">
    <path d="M 606.355629 279.6168 
L 606.355629 37.5264 
" clip-path="url(#p904992d4a7)" style="fill: none; stroke-dasharray: 2.96,1.28; stroke-dashoffset: 0; stroke: #d32f2f; stroke-opacity: 0.5; stroke-width: 0.8"/>
   </g>
   <g id="line2d_30">
    <path d="M 640.965805 279.6168 
L 640.965805 37.5264 
" clip-path="url(#p904992d4a7)" style="fill: none; stroke-dasharray: 2.96,1.28; stroke-dashoffset: 0; stroke: #d32f2f; stroke-opacity: 0.5; stroke-width: 0.8"/>
   </g>
   <g id="line2d_31">
    <path d="M 675.533133 279.6168 
L 675.533133 37.5264 
" clip-path="url(#p904992d4a7)" style="fill: none; stroke-dasharray: 2.96,1.28; stroke-dashoffset: 0; stroke: #d32f2f; stroke-opacity: 0.5; stroke-width: 0.8"/>
   </g>
   <g id="line2d_32">
    <path d="M 709.830716 279.6168 
L 709.830716 37.5264 
" clip-path="url(#p904992d4a7)" style="fill: none; stroke-dasharray: 2.96,1.28; stroke-dashoffset: 0; stroke: #d32f2f; stroke-opacity: 0.5; stroke-width: 0.8"/>
   </g>
   <g id="line2d_33">
    <path d="M 744.277292 279.6168 
L 744.277292 37.5264 
" clip-path="url(#p904992d4a7)" style="fill: none; stroke-dasharray: 2.96,1.28; stroke-dashoffset: 0; stroke: #d32f2f; stroke-opacity: 0.5; stroke-width: 0.8"/>
   </g>
   <g id="line2d_34">
    <path d="M 778.651806 279.6168 
L 778.651806 37.5264 
" clip-path="url(#p904992d4a7)" style="fill: none; stroke-dasharray: 2.96,1.28; stroke-dashoffset: 0; stroke: #d32f2f; stroke-opacity: 0.5; stroke-width: 0.8"/>
   </g>
   <g id="patch_3">
    <path d="M 52.717462 279.6168 
L 52.717462 37.5264 
" style="fill: none; stroke: #cccccc; stroke-linejoin: miter; stroke-linecap: square"/>
   </g>
   <g id="patch_4">
    <path d="M 847.541062 279.6168 
L 847.541062 37.5264 
" style="fill: none; stroke: #cccccc; stroke-linejoin: miter; stroke-linecap: square"/>
   </g>
   <g id="patch_5">
    <path d="M 52.717463 279.6168 
L 847.541062 279.6168 
" style="fill: none; stroke: #cccccc; stroke-linejoin: miter; stroke-linecap: square"/>
   </g>
   <g id="patch_6">
    <path d="M 52.717463 37.5264 
L 847.541062 37.5264 
" style="fill: none; stroke: #cccccc; stroke-linejoin: miter; stroke-linecap: square"/>
   </g>
   <g id="legend_1">
    <g id="patch_7">
     <path d="M 58.317462 67.6689 
L 197.204962 67.6689 
Q 198.804962 67.6689 198.804962 66.0689 
L 198.804962 43.1264 
Q 198.804962 41.5264 197.204962 41.5264 
L 58.317462 41.5264 
Q 56.717462 41.5264 56.717462 43.1264 
L 56.717462 66.0689 
Q 56.717462 67.6689 58.317462 67.6689 
z
" style="fill: #ffffff; opacity: 0.9; stroke: #cccccc; stroke-width: 0.8; stroke-linejoin: miter"/>
    </g>
    <g id="line2d_35">
     <path d="M 59.917462 48.04015 
L 67.917462 48.04015 
L 75.917462 48.04015 
" style="fill: none; stroke: #7b1fa2; stroke-opacity: 0.85; stroke-width: 1.2; stroke-linecap: round"/>
    </g>
    <g id="text_16">
     <!-- Jitter (mean |RTTₙ − RTTₙ₋₁|) -->
     <g style="fill: #262626" transform="translate(82.317463 50.84015) scale(0.08 -0.08)">
      <defs>
       <path id="DejaVuSans-61" d="M 2194 1759 
Q 1497 1759 1228 1600 
Q 959 1441 959 1056 
Q 959 750 1161 570 
Q 1363 391 1709 391 
Q 2188 391 2477 730 
Q 2766 1069 2766 1631 
L 2766 1759 
L 2194 1759 
z
M 3341 1997 
L 3341 0 
L 2766 0 
L 2766 531 
Q 2569 213 2275 61 
Q 1981 -91 1556 -91 
Q 1019 -91 701 211 
Q 384 513 384 1019 
Q 384 1609 779 1909 
Q 1175 2209 1959 2209 
L 2766 2209 
L 2766 2266 
Q 2766 2663 2505 2880 
Q 2244 3097 1772 3097 
Q 1472 3097 1187 3025 
Q 903 2953 641 2809 
L 641 3341 
Q 956 3463 1253 3523 
Q 1550 3584 1831 3584 
Q 2591 3584 2966 3190 
Q 3341 2797 3341 1997 
z
" transform="scale(0.015625)"/>
       <path id="DejaVuSans-6e" d="M 3513 2113 
L 3513 0 
L 2938 0 
L 2938 2094 
Q 2938 2591 2744 2837 
Q 2550 3084 2163 3084 
Q 1697 3084 1428 2787 
Q 1159 2491 1159 1978 
L 1159 0 
L 581 0 
L 581 3500 
L 1159 3500 
L 1159 2956 
Q 1366 3272 1645 3428 
Q 1925 3584 2291 3584 
Q 2894 3584 3203 3211 
Q 3513 2838 3513 2113 
z
" transform="scale(0.015625)"/>
       <path id="DejaVuSans-7c" d="M 1344 4891 
L 1344 -1509 
L 813 -1509 
L 813 4891 
L 1344 4891 
z
" transform="scale(0.015625)"/>
       <path id="DejaVuSans-52" d="M 2841 2188 
Q 3044 2119 3236 1894 
Q 3428 1669 3622 1275 
L 4263 0 
L 3584 0 
L 2988 1197 
Q 2756 1666 2539 1819 
Q 2322 1972 1947 1972 
L 1259 1972 
L 1259 0 
L 628 0 
L 628 4666 
L 2053 4666 
Q 2853 4666 3247 4331 
Q 3641 3997 3641 3322 
Q 3641 2881 3436 2590 
Q 3231 2300 2841 2188 
z
M 1259 4147 
L 1259 2491 
L 2053 2491 
Q 2509 2491 2742 2702 
Q 2975 2913 2975 3322 
Q 2975 3731 2742 3939 
Q 2509 4147 2053 4147 
L 1259 4147 
z
" transform="scale(0.015625)"/>
       <path id="DejaVuSans-2099" d="M 2213 1160 
L 2213 -24 
L 1850 -24 
L 1850 1147 
Q 1850 1426 1728 1565 
Q 1606 1704 1363 1704 
Q 1069 1704 900 1536 
Q 731 1369 731 1082 
L 731 -24 
L 366 -24 
L 366 1935 
L 731 1935 
L 731 1632 
Q 859 1807 1036 1894 
Q 1213 1982 1444 1982 
Q 1822 1982 2017 1772 
Q 2213 1563 2213 1160 
z
" transform="scale(0.015625)"/>
       <path id="DejaVuSans-2212" d="M 678 2272 
L 4684 2272 
L 4684 1741 
L 678 1741 
L 678 2272 
z
" transform="scale(0.015625)"/>
       <path id="DejaVuSans-208b" d="M 428 1247 
L 2950 1247 
L 2950 951 
L 428 951 
L 428 1247 
z
" transform="scale(0.015625)"/>
       <path id="DejaVuSans-2081" d="M 488 319 
L 1125 319 
L 1125 2229 
L 428 2101 
L 428 2463 
L 1147 2585 
L 1575 2585 
L 1575 319 
L 2216 319 
L 2216 -24 
L 488 -24 
L 488 319 
z
" transform="scale(0.015625)"/>
      </defs>
      <use xlink:href="#DejaVuSans-4a"/>
      <use xlink:href="#DejaVuSans-69" transform="translate(29.492188 0)"/>
      <use xlink:href="#DejaVuSans-74" transform="translate(57.275391 0)"/>
      <use xlink:href="#DejaVuSans-74" transform="translate(96.484375 0)"/>
      <use xlink:href="#DejaVuSans-65" transform="translate(135.693359 0)"/>
      <use xlink:href="#DejaVuSans-72" transform="translate(197.216797 0)"/>
      <use xlink:href="#DejaVuSans-20" transform="translate(238.330078 0)"/>
      <use xlink:href="#DejaVuSans-28" transform="translate(270.117188 0)"/>
      <use xlink:href="#DejaVuSans-6d" transform="translate(309.130859 0)"/>
      <use xlink:href="#DejaVuSans-65" transform="translate(406.542969 0)"/>
      <use xlink:href="#DejaVuSans-61" transform="translate(468.066406 0)"/>
      <use xlink:href="#DejaVuSans-6e" transform="translate(529.345703 0)"/>
      <use xlink:href="#DejaVuSans-20" transform="translate(592.724609 0)"/>
      <use xlink:href="#DejaVuSans-7c" transform="translate(624.511719 0)"/>
      <use xlink:href="#DejaVuSans-52" transform="translate(658.203125 0)"/>
      <use xlink:href="#DejaVuSans-54" transform="translate(720.435547 0)"/>
      <use xlink:href="#DejaVuSans-54" transform="translate(779.769531 0)"/>
      <use xlink:href="#DejaVuSans-2099" transform="translate(840.853516 0)"/>
      <use xlink:href="#DejaVuSans-20" transform="translate(880.697266 0)"/>
      <use xlink:href="#DejaVuSans-2212" transform="translate(912.484375 0)"/>
      <use xlink:href="#DejaVuSans-20" transform="translate(996.273438 0)"/>
      <use xlink:href="#DejaVuSans-52" transform="translate(1028.060547 0)"/>
      <use xlink:href="#DejaVuSans-54" transform="translate(1090.292969 0)"/>
      <use xlink:href="#DejaVuSans-54" transform="translate(1149.626953 0)"/>
      <use xlink:href="#DejaVuSans-2099" transform="translate(1210.710938 0)"/>
      <use xlink:href="#DejaVuSans-208b" transform="translate(1250.554688 0)"/>
      <use xlink:href="#DejaVuSans-2081" transform="translate(1303.337891 0)"/>
      <use xlink:href="#DejaVuSans-7c" transform="translate(1343.425781 0)"/>
      <use xlink:href="#DejaVuSans-29" transform="translate(1377.117188 0)"/>
     </g>
    </g>
    <g id="line2d_36">
     <path d="M 59.917462 60.00515 
L 67.917462 60.00515 
L 75.917462 60.00515 
" style="fill: none; stroke-dasharray: 2.96,1.28; stroke-dashoffset: 0; stroke: #d32f2f; stroke-opacity: 0.5; stroke-width: 0.8"/>
    </g>
    <g id="text_17">
     <!-- Migrations (n=20) -->
     <g style="fill: #262626" transform="translate(82.317463 62.80515) scale(0.08 -0.08)">
      <defs>
       <path id="DejaVuSans-4d" d="M 628 4666 
L 1569 4666 
L 2759 1491 
L 3956 4666 
L 4897 4666 
L 4897 0 
L 4281 0 
L 4281 4097 
L 3078 897 
L 2444 897 
L 1241 4097 
L 1241 0 
L 628 0 
L 628 4666 
z
" transform="scale(0.015625)"/>
       <path id="DejaVuSans-67" d="M 2906 1791 
Q 2906 2416 2648 2759 
Q 2391 3103 1925 3103 
Q 1463 3103 1205 2759 
Q 947 2416 947 1791 
Q 947 1169 1205 825 
Q 1463 481 1925 481 
Q 2391 481 2648 825 
Q 2906 1169 2906 1791 
z
M 3481 434 
Q 3481 -459 3084 -895 
Q 2688 -1331 1869 -1331 
Q 1566 -1331 1297 -1286 
Q 1028 -1241 775 -1147 
L 775 -588 
Q 1028 -725 1275 -790 
Q 1522 -856 1778 -856 
Q 2344 -856 2625 -561 
Q 2906 -266 2906 331 
L 2906 616 
Q 2728 306 2450 153 
Q 2172 0 1784 0 
Q 1141 0 747 490 
Q 353 981 353 1791 
Q 353 2603 747 3093 
Q 1141 3584 1784 3584 
Q 2172 3584 2450 3431 
Q 2728 3278 2906 2969 
L 2906 3500 
L 3481 3500 
L 3481 434 
z
" transform="scale(0.015625)"/>
       <path id="DejaVuSans-6f" d="M 1959 3097 
Q 1497 3097 1228 2736 
Q 959 2375 959 1747 
Q 959 1119 1226 758 
Q 1494 397 1959 397 
Q 2419 397 2687 759 
Q 2956 1122 2956 1747 
Q 2956 2369 2687 2733 
Q 2419 3097 1959 3097 
z
M 1959 3584 
Q 2709 3584 3137 3096 
Q 3566 2609 3566 1747 
Q 3566 888 3137 398 
Q 2709 -91 1959 -91 
Q 1206 -91 779 398 
Q 353 888 353 1747 
Q 353 2609 779 3096 
Q 1206 3584 1959 3584 
z
" transform="scale(0.015625)"/>
       <path id="DejaVuSans-3d" d="M 678 2906 
L 4684 2906 
L 4684 2381 
L 678 2381 
L 678 2906 
z
M 678 1631 
L 4684 1631 
L 4684 1100 
L 678 1100 
L 678 1631 
z
" transform="scale(0.015625)"/>
      </defs>
      <use xlink:href="#DejaVuSans-4d"/>
      <use xlink:href="#DejaVuSans-69" transform="translate(86.279297 0)"/>
      <use xlink:href="#DejaVuSans-67" transform="translate(114.0625 0)"/>
      <use xlink:href="#DejaVuSans-72" transform="translate(177.539062 0)"/>
      <use xlink:href="#DejaVuSans-61" transform="translate(218.652344 0)"/>
      <use xlink:href="#DejaVuSans-74" transform="translate(279.931641 0)"/>
      <use xlink:href="#DejaVuSans-69" transform="translate(319.140625 0)"/>
      <use xlink:href="#DejaVuSans-6f" transform="translate(346.923828 0)"/>
      <use xlink:href="#DejaVuSans-6e" transform="translate(408.105469 0)"/>
      <use xlink:href="#DejaVuSans-73" transform="translate(471.484375 0)"/>
      <use xlink:href="#DejaVuSans-20" transform="translate(523.583984 0)"/>
      <use xlink:href="#DejaVuSans-28" transform="translate(555.371094 0)"/>
      <use xlink:href="#DejaVuSans-6e" transform="translate(594.384766 0)"/>
      <use xlink:href="#DejaVuSans-3d" transform="translate(657.763672 0)"/>
      <use xlink:href="#DejaVuSans-32" transform="translate(741.552734 0)"/>
      <use xlink:href="#DejaVuSans-30" transform="translate(805.175781 0)"/>
      <use xlink:href="#DejaVuSans-29" transform="translate(868.798828 0)"/>
     </g>
    </g>
   </g>
  </g>
  <g id="text_18">
   <!-- Application-Layer Jitter (client-measured) -->
   <g style="fill: #262626" transform="translate(271.794053 17.26641) scale(0.13248 -0.13248)">
    <defs>
     <path id="DejaVuSans-Bold-41" d="M 3419 850 
L 1538 850 
L 1241 0 
L 31 0 
L 1759 4666 
L 3194 4666 
L 4922 0 
L 3713 0 
L 3419 850 
z
M 1838 1716 
L 3116 1716 
L 2478 3572 
L 1838 1716 
z
" transform="scale(0.015625)"/>
     <path id="DejaVuSans-Bold-70" d="M 1656 506 
L 1656 -1331 
L 538 -1331 
L 538 3500 
L 1656 3500 
L 1656 2988 
Q 1888 3294 2169 3439 
Q 2450 3584 2816 3584 
Q 3463 3584 3878 3070 
Q 4294 2556 4294 1747 
Q 4294 938 3878 423 
Q 3463 -91 2816 -91 
Q 2450 -91 2169 54 
Q 1888 200 1656 506 
z
M 2400 2772 
Q 2041 2772 1848 2508 
Q 1656 2244 1656 1747 
Q 1656 1250 1848 986 
Q 2041 722 2400 722 
Q 2759 722 2948 984 
Q 3138 1247 3138 1747 
Q 3138 2247 2948 2509 
Q 2759 2772 2400 2772 
z
" transform="scale(0.015625)"/>
     <path id="DejaVuSans-Bold-6c" d="M 538 4863 
L 1656 4863 
L 1656 0 
L 538 0 
L 538 4863 
z
" transform="scale(0.015625)"/>
     <path id="DejaVuSans-Bold-69" d="M 538 3500 
L 1656 3500 
L 1656 0 
L 538 0 
L 538 3500 
z
M 538 4863 
L 1656 4863 
L 1656 3950 
L 538 3950 
L 538 4863 
z
" transform="scale(0.015625)"/>
     <path id="DejaVuSans-Bold-63" d="M 3366 3391 
L 3366 2478 
Q 3138 2634 2908 2709 
Q 2678 2784 2431 2784 
Q 1963 2784 1702 2511 
Q 1441 2238 1441 1747 
Q 1441 1256 1702 982 
Q 1963 709 2431 709 
Q 2694 709 2930 787 
Q 3166 866 3366 1019 
L 3366 103 
Q 3103 6 2833 -42 
Q 2563 -91 2291 -91 
Q 1344 -91 809 395 
Q 275 881 275 1747 
Q 275 2613 809 3098 
Q 1344 3584 2291 3584 
Q 2566 3584 2833 3536 
Q 3100 3488 3366 3391 
z
" transform="scale(0.015625)"/>
     <path id="DejaVuSans-Bold-61" d="M 2106 1575 
Q 1756 1575 1579 1456 
Q 1403 1338 1403 1106 
Q 1403 894 1545 773 
Q 1688 653 1941 653 
Q 2256 653 2472 879 
Q 2688 1106 2688 1447 
L 2688 1575 
L 2106 1575 
z
M 3816 1997 
L 3816 0 
L 2688 0 
L 2688 519 
Q 2463 200 2181 54 
Q 1900 -91 1497 -91 
Q 953 -91 614 226 
Q 275 544 275 1050 
Q 275 1666 698 1953 
Q 1122 2241 2028 2241 
L 2688 2241 
L 2688 2328 
Q 2688 2594 2478 2717 
Q 2269 2841 1825 2841 
Q 1466 2841 1156 2769 
Q 847 2697 581 2553 
L 581 3406 
Q 941 3494 1303 3539 
Q 1666 3584 2028 3584 
Q 2975 3584 3395 3211 
Q 3816 2838 3816 1997 
z
" transform="scale(0.015625)"/>
     <path id="DejaVuSans-Bold-74" d="M 1759 4494 
L 1759 3500 
L 2913 3500 
L 2913 2700 
L 1759 2700 
L 1759 1216 
Q 1759 972 1856 886 
Q 1953 800 2241 800 
L 2816 800 
L 2816 0 
L 1856 0 
Q 1194 0 917 276 
Q 641 553 641 1216 
L 641 2700 
L 84 2700 
L 84 3500 
L 641 3500 
L 641 4494 
L 1759 4494 
z
" transform="scale(0.015625)"/>
     <path id="DejaVuSans-Bold-6f" d="M 2203 2784 
Q 1831 2784 1636 2517 
Q 1441 2250 1441 1747 
Q 1441 1244 1636 976 
Q 1831 709 2203 709 
Q 2569 709 2762 976 
Q 2956 1244 2956 1747 
Q 2956 2250 2762 2517 
Q 2569 2784 2203 2784 
z
M 2203 3584 
Q 3106 3584 3614 3096 
Q 4122 2609 4122 1747 
Q 4122 884 3614 396 
Q 3106 -91 2203 -91 
Q 1297 -91 786 396 
Q 275 884 275 1747 
Q 275 2609 786 3096 
Q 1297 3584 2203 3584 
z
" transform="scale(0.015625)"/>
     <path id="DejaVuSans-Bold-6e" d="M 4056 2131 
L 4056 0 
L 2931 0 
L 2931 347 
L 2931 1631 
Q 2931 2084 2911 2256 
Q 2891 2428 2841 2509 
Q 2775 2619 2662 2680 
Q 2550 2741 2406 2741 
Q 2056 2741 1856 2470 
Q 1656 2200 1656 1722 
L 1656 0 
L 538 0 
L 538 3500 
L 1656 3500 
L 1656 2988 
Q 1909 3294 2193 3439 
Q 2478 3584 2822 3584 
Q 3428 3584 3742 3212 
Q 4056 2841 4056 2131 
z
" transform="scale(0.015625)"/>
     <path id="DejaVuSans-Bold-2d" d="M 347 2297 
L 2309 2297 
L 2309 1388 
L 347 1388 
L 347 2297 
z
" transform="scale(0.015625)"/>
     <path id="DejaVuSans-Bold-4c" d="M 588 4666 
L 1791 4666 
L 1791 909 
L 3903 909 
L 3903 0 
L 588 0 
L 588 4666 
z
" transform="scale(0.015625)"/>
     <path id="DejaVuSans-Bold-79" d="M 78 3500 
L 1197 3500 
L 2138 1125 
L 2938 3500 
L 4056 3500 
L 2584 -331 
Q 2363 -916 2067 -1148 
Q 1772 -1381 1288 -1381 
L 641 -1381 
L 641 -647 
L 991 -647 
Q 1275 -647 1404 -556 
Q 1534 -466 1606 -231 
L 1638 -134 
L 78 3500 
z
" transform="scale(0.015625)"/>
     <path id="DejaVuSans-Bold-65" d="M 4031 1759 
L 4031 1441 
L 1416 1441 
Q 1456 1047 1700 850 
Q 1944 653 2381 653 
Q 2734 653 3104 758 
Q 3475 863 3866 1075 
L 3866 213 
Q 3469 63 3072 -14 
Q 2675 -91 2278 -91 
Q 1328 -91 801 392 
Q 275 875 275 1747 
Q 275 2603 792 3093 
Q 1309 3584 2216 3584 
Q 3041 3584 3536 3087 
Q 4031 2591 4031 1759 
z
M 2881 2131 
Q 2881 2450 2695 2645 
Q 2509 2841 2209 2841 
Q 1884 2841 1681 2658 
Q 1478 2475 1428 2131 
L 2881 2131 
z
" transform="scale(0.015625)"/>
     <path id="DejaVuSans-Bold-72" d="M 3138 2547 
Q 2991 2616 2845 2648 
Q 2700 2681 2553 2681 
Q 2122 2681 1889 2404 
Q 1656 2128 1656 1613 
L 1656 0 
L 538 0 
L 538 3500 
L 1656 3500 
L 1656 2925 
Q 1872 3269 2151 3426 
Q 2431 3584 2822 3584 
Q 2878 3584 2943 3579 
Q 3009 3575 3134 3559 
L 3138 2547 
z
" transform="scale(0.015625)"/>
     <path id="DejaVuSans-Bold-20" transform="scale(0.015625)"/>
     <path id="DejaVuSans-Bold-4a" d="M 588 4666 
L 1791 4666 
L 1791 453 
Q 1791 -419 1317 -850 
Q 844 -1281 -116 -1281 
L -359 -1281 
L -359 -372 
L -172 -372 
Q 203 -372 395 -162 
Q 588 47 588 453 
L 588 4666 
z
" transform="scale(0.015625)"/>
     <path id="DejaVuSans-Bold-28" d="M 2413 -844 
L 1484 -844 
Q 1006 -72 778 623 
Q 550 1319 550 2003 
Q 550 2688 779 3389 
Q 1009 4091 1484 4856 
L 2413 4856 
Q 2013 4116 1813 3408 
Q 1613 2700 1613 2009 
Q 1613 1319 1811 609 
Q 2009 -100 2413 -844 
z
" transform="scale(0.015625)"/>
     <path id="DejaVuSans-Bold-6d" d="M 3781 2919 
Q 3994 3244 4286 3414 
Q 4578 3584 4928 3584 
Q 5531 3584 5847 3212 
Q 6163 2841 6163 2131 
L 6163 0 
L 5038 0 
L 5038 1825 
Q 5041 1866 5042 1909 
Q 5044 1953 5044 2034 
Q 5044 2406 4934 2573 
Q 4825 2741 4581 2741 
Q 4263 2741 4089 2478 
Q 3916 2216 3909 1719 
L 3909 0 
L 2784 0 
L 2784 1825 
Q 2784 2406 2684 2573 
Q 2584 2741 2328 2741 
Q 2006 2741 1831 2477 
Q 1656 2213 1656 1722 
L 1656 0 
L 531 0 
L 531 3500 
L 1656 3500 
L 1656 2988 
Q 1863 3284 2130 3434 
Q 2397 3584 2719 3584 
Q 3081 3584 3359 3409 
Q 3638 3234 3781 2919 
z
" transform="scale(0.015625)"/>
     <path id="DejaVuSans-Bold-73" d="M 3272 3391 
L 3272 2541 
Q 2913 2691 2578 2766 
Q 2244 2841 1947 2841 
Q 1628 2841 1473 2761 
Q 1319 2681 1319 2516 
Q 1319 2381 1436 2309 
Q 1553 2238 1856 2203 
L 2053 2175 
Q 2913 2066 3209 1816 
Q 3506 1566 3506 1031 
Q 3506 472 3093 190 
Q 2681 -91 1863 -91 
Q 1516 -91 1145 -36 
Q 775 19 384 128 
L 384 978 
Q 719 816 1070 734 
Q 1422 653 1784 653 
Q 2113 653 2278 743 
Q 2444 834 2444 1013 
Q 2444 1163 2330 1236 
Q 2216 1309 1875 1350 
L 1678 1375 
Q 931 1469 631 1722 
Q 331 1975 331 2491 
Q 331 3047 712 3315 
Q 1094 3584 1881 3584 
Q 2191 3584 2531 3537 
Q 2872 3491 3272 3391 
z
" transform="scale(0.015625)"/>
     <path id="DejaVuSans-Bold-75" d="M 500 1363 
L 500 3500 
L 1625 3500 
L 1625 3150 
Q 1625 2866 1622 2436 
Q 1619 2006 1619 1863 
Q 1619 1441 1641 1255 
Q 1663 1069 1716 984 
Q 1784 875 1895 815 
Q 2006 756 2150 756 
Q 2500 756 2700 1025 
Q 2900 1294 2900 1772 
L 2900 3500 
L 4019 3500 
L 4019 0 
L 2900 0 
L 2900 506 
Q 2647 200 2364 54 
Q 2081 -91 1741 -91 
Q 1134 -91 817 281 
Q 500 653 500 1363 
z
" transform="scale(0.015625)"/>
     <path id="DejaVuSans-Bold-64" d="M 2919 2988 
L 2919 4863 
L 4044 4863 
L 4044 0 
L 2919 0 
L 2919 506 
Q 2688 197 2409 53 
Q 2131 -91 1766 -91 
Q 1119 -91 703 423 
Q 288 938 288 1747 
Q 288 2556 703 3070 
Q 1119 3584 1766 3584 
Q 2128 3584 2408 3439 
Q 2688 3294 2919 2988 
z
M 2181 722 
Q 2541 722 2730 984 
Q 2919 1247 2919 1747 
Q 2919 2247 2730 2509 
Q 2541 2772 2181 2772 
Q 1825 2772 1636 2509 
Q 1447 2247 1447 1747 
Q 1447 1247 1636 984 
Q 1825 722 2181 722 
z
" transform="scale(0.015625)"/>
     <path id="DejaVuSans-Bold-29" d="M 513 -844 
Q 913 -100 1113 609 
Q 1313 1319 1313 2009 
Q 1313 2700 1113 3408 
Q 913 4116 513 4856 
L 1441 4856 
Q 1916 4091 2145 3389 
Q 2375 2688 2375 2003 
Q 2375 1319 2147 623 
Q 1919 -72 1441 -844 
L 513 -844 
z
" transform="scale(0.015625)"/>
    </defs>
    <use xlink:href="#DejaVuSans-Bold-41"/>
    <use xlink:href="#DejaVuSans-Bold-70" transform="translate(77.392578 0)"/>
    <use xlink:href="#DejaVuSans-Bold-70" transform="translate(148.974609 0)"/>
    <use xlink:href="#DejaVuSans-Bold-6c" transform="translate(220.556641 0)"/>
    <use xlink:href="#DejaVuSans-Bold-69" transform="translate(254.833984 0)"/>
    <use xlink:href="#DejaVuSans-Bold-63" transform="translate(289.111328 0)"/>
    <use xlink:href="#DejaVuSans-Bold-61" transform="translate(348.388672 0)"/>
    <use xlink:href="#DejaVuSans-Bold-74" transform="translate(415.869141 0)"/>
    <use xlink:href="#DejaVuSans-Bold-69" transform="translate(463.671875 0)"/>
    <use xlink:href="#DejaVuSans-Bold-6f" transform="translate(497.949219 0)"/>
    <use xlink:href="#DejaVuSans-Bold-6e" transform="translate(566.650391 0)"/>
    <use xlink:href="#DejaVuSans-Bold-2d" transform="translate(637.841797 0)"/>
    <use xlink:href="#DejaVuSans-Bold-4c" transform="translate(679.345703 0)"/>
    <use xlink:href="#DejaVuSans-Bold-61" transform="translate(743.066406 0)"/>
    <use xlink:href="#DejaVuSans-Bold-79" transform="translate(807.421875 0)"/>
    <use xlink:href="#DejaVuSans-Bold-65" transform="translate(872.607422 0)"/>
    <use xlink:href="#DejaVuSans-Bold-72" transform="translate(940.429688 0)"/>
    <use xlink:href="#DejaVuSans-Bold-20" transform="translate(989.746094 0)"/>
    <use xlink:href="#DejaVuSans-Bold-4a" transform="translate(1024.560547 0)"/>
    <use xlink:href="#DejaVuSans-Bold-69" transform="translate(1061.767578 0)"/>
    <use xlink:href="#DejaVuSans-Bold-74" transform="translate(1096.044922 0)"/>
    <use xlink:href="#DejaVuSans-Bold-74" transform="translate(1143.847656 0)"/>
    <use xlink:href="#DejaVuSans-Bold-65" transform="translate(1191.650391 0)"/>
    <use xlink:href="#DejaVuSans-Bold-72" transform="translate(1259.472656 0)"/>
    <use xlink:href="#DejaVuSans-Bold-20" transform="translate(1308.789062 0)"/>
    <use xlink:href="#DejaVuSans-Bold-28" transform="translate(1343.603516 0)"/>
    <use xlink:href="#DejaVuSans-Bold-63" transform="translate(1389.306641 0)"/>
    <use xlink:href="#DejaVuSans-Bold-6c" transform="translate(1448.583984 0)"/>
    <use xlink:href="#DejaVuSans-Bold-69" transform="translate(1482.861328 0)"/>
    <use xlink:href="#DejaVuSans-Bold-65" transform="translate(1517.138672 0)"/>
    <use xlink:href="#DejaVuSans-Bold-6e" transform="translate(1584.960938 0)"/>
    <use xlink:href="#DejaVuSans-Bold-74" transform="translate(1656.152344 0)"/>
    <use xlink:href="#DejaVuSans-Bold-2d" transform="translate(1703.955078 0)"/>
    <use xlink:href="#DejaVuSans-Bold-6d" transform="translate(1745.458984 0)"/>
    <use xlink:href="#DejaVuSans-Bold-65" transform="translate(1849.658203 0)"/>
    <use xlink:href="#DejaVuSans-Bold-61" transform="translate(1917.480469 0)"/>
    <use xlink:href="#DejaVuSans-Bold-73" transform="translate(1984.960938 0)"/>
    <use xlink:href="#DejaVuSans-Bold-75" transform="translate(2044.482422 0)"/>
    <use xlink:href="#DejaVuSans-Bold-72" transform="translate(2115.673828 0)"/>
    <use xlink:href="#DejaVuSans-Bold-65" transform="translate(2164.990234 0)"/>
    <use xlink:href="#DejaVuSans-Bold-64" transform="translate(2232.8125 0)"/>
    <use xlink:href="#DejaVuSans-Bold-29" transform="translate(2304.394531 0)"/>
   </g>
  </g>
 </g>
 <defs>
  <clipPath id="p904992d4a7">
   <rect x="52.717462" y="37.5264" width="794.8236" height="242.0904"/>
  </clipPath>
 </defs>
</svg>
